<?xml version="1.0" encoding="UTF-8" standalone="no"?>
<!-- Created with Inkscape (http://www.inkscape.org/) -->

<svg
   width="2000"
   height="2000"
   viewBox="0 0 2000 2000"
   version="1.1"
   id="svg1"
   inkscape:version="1.3 (0e150ed6c4, 2023-07-21)"
   sodipodi:docname="1026_dje-capital.svg"
   xml:space="preserve"
   xmlns:inkscape="http://www.inkscape.org/namespaces/inkscape"
   xmlns:sodipodi="http://sodipodi.sourceforge.net/DTD/sodipodi-0.dtd"
   xmlns="http://www.w3.org/2000/svg"
   xmlns:svg="http://www.w3.org/2000/svg"><sodipodi:namedview
     id="namedview1"
     pagecolor="#ffffff"
     bordercolor="#000000"
     borderopacity="0.25"
     inkscape:showpageshadow="2"
     inkscape:pageopacity="0.0"
     inkscape:pagecheckerboard="0"
     inkscape:deskcolor="#d1d1d1"
     inkscape:document-units="px"
     showgrid="true"
     inkscape:zoom="0.39303354"
     inkscape:cx="671.6984"
     inkscape:cy="1176.7444"
     inkscape:window-width="2560"
     inkscape:window-height="1494"
     inkscape:window-x="-11"
     inkscape:window-y="-11"
     inkscape:window-maximized="1"
     inkscape:current-layer="layer1"
     showguides="false"><inkscape:grid
       id="grid1"
       units="px"
       originx="0"
       originy="0"
       spacingx="25"
       spacingy="25"
       empcolor="#0099e5"
       empopacity="0.30196078"
       color="#0099e5"
       opacity="0.14901961"
       empspacing="4"
       dotted="false"
       gridanglex="30"
       gridanglez="30"
       visible="true" /></sodipodi:namedview><defs
     id="defs1" /><g
     inkscape:label="Layer 1"
     inkscape:groupmode="layer"
     id="layer1"><path
       id="path8529-1"
       style="fill:#000000;fill-opacity:0.555319;fill-rule:evenodd;stroke:none;stroke-width:1px;stroke-linecap:butt;stroke-linejoin:miter;stroke-opacity:1"
       d="m 1000,300 c 99.9997,0 150.0006,6e-4 350,200 h 50 V 200 H 100 v 300 h 50 C 349.9994,300.0006 400.0003,300 500,300 H 600 V 1500 H 300 v 100 H 975 V 1500 H 900 V 300 Z"
       sodipodi:nodetypes="ccccccccccccccccc" /><path
       id="path124467-4"
       style="fill:#000000;fill-opacity:0.555319;stroke:none;stroke-width:1px;stroke-linecap:butt;stroke-linejoin:miter;stroke-opacity:1"
       d="m 1260,600 c -259.9997,0 -360,270 -360,270 v 130 c 0,0 116.7469,-301.27216 360,-300 139.998,0.73216 140,100.0001 140,200 v 300 100 c 0,223.6064 -76.1359,200 -150,200 0,0 75,-25.0002 75,-100 0,-49.9998 -50.0002,-100 -150,-100 -99.9998,0 -150,50.0002 -150,125 0,98.9462 75.0004,175 250,175 249.9996,0 425,-76.3936 425,-300 V 1200 880 c 0.8996,-80.20982 -100.0003,-280 -440,-280 z" /><path
       id="path8529-1-0"
       style="fill:#000000;fill-opacity:0.555319;fill-rule:evenodd;stroke:none;stroke-width:1px;stroke-linecap:butt;stroke-linejoin:miter;stroke-opacity:1"
       d="M 100 200 L 100 500 L 150 500 C 349.9992 300.0008 400.0004 300 500 300 L 600 300 L 600 1500 L 300 1500 L 300 1600 L 975 1600 L 975 1500 L 900 1500 L 900 1000 C 900 1000 1016.7471 698.72784 1260 700 C 1399.9979 700.73216 1400 800.0002 1400 900 L 1400 1200 L 1400 1300 C 1400 1523.6062 1323.864 1500 1250 1500 C 1250 1500 1325 1474.9997 1325 1400 C 1325 1350.0002 1274.9997 1300 1175 1300 C 1075.0003 1300 1025 1350.0003 1025 1425 C 1025 1523.9461 1100.0006 1600 1275 1600 C 1524.9994 1600 1700 1523.6062 1700 1300 L 1700 1200 L 1700 880 C 1700.8996 799.79026 1599.9994 600 1260 600 C 1000.0006 600 900 870 900 870 L 900 300 L 1000 300 C 1099.9996 300 1150.0008 300.0008 1350 500 L 1400 500 L 1400 200 L 100 200 z " /></g></svg>
