<?xml version="1.0" encoding="UTF-8" standalone="no"?>
<!-- Created with Inkscape (http://www.inkscape.org/) -->

<svg
   width="2000"
   height="2000"
   viewBox="0 0 2000 2000"
   version="1.1"
   id="svg1"
   inkscape:version="1.3 (0e150ed6c4, 2023-07-21)"
   sodipodi:docname="1028_ukraninan-ie-capital.svg"
   xml:space="preserve"
   xmlns:inkscape="http://www.inkscape.org/namespaces/inkscape"
   xmlns:sodipodi="http://sodipodi.sourceforge.net/DTD/sodipodi-0.dtd"
   xmlns="http://www.w3.org/2000/svg"
   xmlns:svg="http://www.w3.org/2000/svg"><sodipodi:namedview
     id="namedview1"
     pagecolor="#ffffff"
     bordercolor="#000000"
     borderopacity="0.25"
     inkscape:showpageshadow="2"
     inkscape:pageopacity="0.0"
     inkscape:pagecheckerboard="0"
     inkscape:deskcolor="#d1d1d1"
     inkscape:document-units="px"
     showgrid="true"
     inkscape:zoom="0.55583335"
     inkscape:cx="933.7331"
     inkscape:cy="1096.5517"
     inkscape:window-width="2560"
     inkscape:window-height="1494"
     inkscape:window-x="-11"
     inkscape:window-y="-11"
     inkscape:window-maximized="1"
     inkscape:current-layer="layer1"
     showguides="false"><inkscape:grid
       id="grid1"
       units="px"
       originx="0"
       originy="0"
       spacingx="10"
       spacingy="10"
       empcolor="#0099e5"
       empopacity="0.30196078"
       color="#0099e5"
       opacity="0.14901961"
       empspacing="10"
       dotted="false"
       gridanglex="30"
       gridanglez="30"
       visible="true" /></sodipodi:namedview><defs
     id="defs1" /><g
     inkscape:label="Layer 1"
     inkscape:groupmode="layer"
     id="layer1"><path
       style="fill:#000000;stroke:none;stroke-width:1px;stroke-linecap:butt;stroke-linejoin:miter;stroke-opacity:1;fill-opacity:0.55531901"
       d="m 1500,1370 c -50,60 -200,240 -600,240 -300,0 -800,-260 -800,-710 0,-450 500,-710 800,-710 300,0 500,190 500,190 V 200 h 100 v 400 h -50 C 1300,450 1202.009,302.69865 950,300 600.02007,296.25222 500,550 500,900 c 0,350 100,600 450,600 350,0 500,-180 550,-230 z"
       id="path53405"
       sodipodi:nodetypes="cszscccccszscc" /><path
       id="path8529"
       style="fill:#000000;fill-opacity:0.555319;fill-rule:evenodd;stroke:none;stroke-width:1px;stroke-linecap:butt;stroke-linejoin:miter;stroke-opacity:1"
       d="m 1100,600 h -50 C 950.0001,699.9999 849.9999,800 750,800 H 400 v 100 h 350 c 99.9999,0 200.0001,100.0001 300,200 h 50 z"
       sodipodi:nodetypes="ccsccsccc" /><path
       id="path53405-3"
       style="fill:#000000;fill-opacity:0.555319;stroke:none;stroke-width:1px;stroke-linecap:butt;stroke-linejoin:miter;stroke-opacity:1"
       d="M 900 190 C 600.0003 190 100 450.00045 100 900 C 100 1349.9995 600.0003 1610 900 1610 C 1299.9996 1610 1450.0001 1429.9999 1500 1370 L 1500 1270 C 1450.0001 1319.9999 1299.9996 1500 950 1500 C 600.00035 1500 500 1249.9996 500 900 L 750 900 C 849.9998 900 950.0002 1000.0002 1050 1100 L 1100 1100 L 1100 600 L 1050 600 C 950.0002 699.9998 849.9998 800 750 800 L 503.37305 800 C 522.41952 502.89923 634.44051 296.62081 950 300 C 1202.0087 302.69865 1300.0002 450.00015 1450 600 L 1500 600 L 1500 200 L 1400 200 L 1400 380 C 1400 380 1199.9997 190 900 190 z " /></g></svg>
