<?xml version="1.0" encoding="UTF-8" standalone="no"?>
<!-- Created with Inkscape (http://www.inkscape.org/) -->

<svg
   width="2000"
   height="2000"
   viewBox="0 0 2000 2000"
   version="1.1"
   id="svg1"
   inkscape:version="1.3 (0e150ed6c4, 2023-07-21)"
   sodipodi:docname="1035_tshe-capital.svg"
   xml:space="preserve"
   xmlns:inkscape="http://www.inkscape.org/namespaces/inkscape"
   xmlns:sodipodi="http://sodipodi.sourceforge.net/DTD/sodipodi-0.dtd"
   xmlns="http://www.w3.org/2000/svg"
   xmlns:svg="http://www.w3.org/2000/svg"><sodipodi:namedview
     id="namedview1"
     pagecolor="#ffffff"
     bordercolor="#000000"
     borderopacity="0.25"
     inkscape:showpageshadow="2"
     inkscape:pageopacity="0.0"
     inkscape:pagecheckerboard="0"
     inkscape:deskcolor="#d1d1d1"
     inkscape:document-units="px"
     showgrid="true"
     inkscape:zoom="0.78606706"
     inkscape:cx="774.74306"
     inkscape:cy="920.40493"
     inkscape:window-width="2560"
     inkscape:window-height="1494"
     inkscape:window-x="-11"
     inkscape:window-y="-11"
     inkscape:window-maximized="1"
     inkscape:current-layer="layer1"
     showguides="false"><inkscape:grid
       id="grid1"
       units="px"
       originx="0"
       originy="0"
       spacingx="25"
       spacingy="25"
       empcolor="#0099e5"
       empopacity="0.30196078"
       color="#0099e5"
       opacity="0.14901961"
       empspacing="4"
       dotted="false"
       gridanglex="30"
       gridanglez="30"
       visible="true" /></sodipodi:namedview><defs
     id="defs1" /><g
     inkscape:label="Layer 1"
     inkscape:groupmode="layer"
     id="layer1"><path
       id="path8529"
       style="fill:#000000;fill-opacity:0.555319;fill-rule:evenodd;stroke:none;stroke-width:1px;stroke-linecap:butt;stroke-linejoin:miter;stroke-opacity:1"
       d="m 1000,300 c 99.9997,0 150.0006,6e-4 350,200 h 50 V 200 H 100 v 300 h 50 C 349.9994,300.0006 400.0003,300 500,300 H 600 V 1500 H 300 v 100 h 900 V 1500 H 900 V 300 Z"
       sodipodi:nodetypes="ccccccccccccccccc" /><path
       style="fill:#000000;fill-opacity:0.555319;stroke:none;stroke-width:1px;stroke-linecap:butt;stroke-linejoin:miter;stroke-opacity:1"
       d="m 1400,1600 h 500 V 1500 H 1700 V 880 c 0.8996,-80.2099 -100,-280 -440,-280 -260,0 -360,270 -360,270 v 130 c 0,0 116.7467,-301.27216 360,-300 139.9981,0.73216 140,100 140,200 z"
       id="path124467"
       sodipodi:nodetypes="cccccsccscc" /><path
       id="path8529-0"
       style="fill:#000000;fill-opacity:0.555319;fill-rule:evenodd;stroke:none;stroke-width:1px;stroke-linecap:butt;stroke-linejoin:miter;stroke-opacity:1"
       d="M 100 200 L 100 500 L 150 500 C 349.9992 300.0008 400.0004 300 500 300 L 600 300 L 600 1500 L 300 1500 L 300 1600 L 1200 1600 L 1200 1500 L 900 1500 L 900 1000 C 900 1000 1016.7469 698.72784 1260 700 C 1399.998 700.73216 1400 800.0001 1400 900 L 1400 1600 L 1900 1600 L 1900 1500 L 1700 1500 L 1700 880 C 1700.8996 799.79018 1599.9997 600 1260 600 C 1000.0003 600 900 870 900 870 L 900 300 L 1000 300 C 1099.9996 300 1150.0008 300.0008 1350 500 L 1400 500 L 1400 200 L 100 200 z " /></g></svg>
