<?xml version="1.0" encoding="UTF-8" standalone="no"?>
<!-- Created with Inkscape (http://www.inkscape.org/) -->

<svg
   width="2000"
   height="2000"
   viewBox="0 0 2000 2000"
   version="1.1"
   id="svg1"
   inkscape:version="1.2.2 (732a01da63, 2022-12-09)"
   sodipodi:docname="1044_de-capital.svg"
   xml:space="preserve"
   xmlns:inkscape="http://www.inkscape.org/namespaces/inkscape"
   xmlns:sodipodi="http://sodipodi.sourceforge.net/DTD/sodipodi-0.dtd"
   xmlns="http://www.w3.org/2000/svg"
   xmlns:svg="http://www.w3.org/2000/svg"><sodipodi:namedview
     id="namedview1"
     pagecolor="#ffffff"
     bordercolor="#000000"
     borderopacity="0.25"
     inkscape:showpageshadow="2"
     inkscape:pageopacity="0.0"
     inkscape:pagecheckerboard="0"
     inkscape:deskcolor="#d1d1d1"
     inkscape:document-units="px"
     showgrid="true"
     inkscape:zoom="1.1116667"
     inkscape:cx="769.56519"
     inkscape:cy="1271.964"
     inkscape:window-width="3840"
     inkscape:window-height="2066"
     inkscape:window-x="-11"
     inkscape:window-y="-11"
     inkscape:window-maximized="1"
     inkscape:current-layer="layer1"
     showguides="false"><inkscape:grid
       id="grid1"
       units="px"
       originx="0"
       originy="0"
       spacingx="10"
       spacingy="10"
       empcolor="#0099e5"
       empopacity="0.30196078"
       color="#0099e5"
       opacity="0.14901961"
       empspacing="10"
       dotted="false"
       gridanglex="30"
       gridanglez="30"
       visible="true" /></sodipodi:namedview><defs
     id="defs1" /><g
     inkscape:label="Layer 1"
     inkscape:groupmode="layer"
     id="layer1"><path
       id="path22183"
       style="fill:#000000;fill-opacity:0.555319;stroke:none;stroke-width:1px;stroke-linecap:butt;stroke-linejoin:miter;stroke-opacity:1"
       d="m 1300,300 v 1200 h -200 v 100 h 700 V 1500 H 1600 V 300 h 200 V 200 H 300 v 100 z"
       sodipodi:nodetypes="ccccccccccccc" /><path
       id="path124467-3"
       style="fill:#000000;fill-opacity:0.555319;stroke:none;stroke-width:1px;stroke-linecap:butt;stroke-linejoin:miter;stroke-opacity:1"
       d="m 250,1600 c 249.99975,0 270.76744,-83.0698 325,-300 L 775,500 c 50,-200 75.00018,-199.82249 250,-199.82249 h 175 v -100 c -56.4868,0 -58.8062,-0.3994 -175,0 -332.75289,1.1437 -349.95068,99.82249 -375,200 L 425,1300 c -54.24263,216.9277 -126.1358,200 -200,200 z"
       sodipodi:nodetypes="csssccssscc" /><path
       id="path11061"
       style="fill:#000000;fill-opacity:0.555319;stroke:none;stroke-width:1px;stroke-linecap:butt;stroke-linejoin:miter;stroke-opacity:1"
       d="m 100,1900 h 150 c 149.99985,-299.9997 150.0006,-300 350,-300 h 700 c 199.9994,0 200.0002,3e-4 350,300 h 150 V 1500 H 100"
       sodipodi:nodetypes="ccsscccc" /><path
       id="path22183-9"
       style="fill:#000000;fill-opacity:0.555319;stroke:none;stroke-width:1px;stroke-linecap:butt;stroke-linejoin:miter;stroke-opacity:1"
       d="M 300,200 V 300 H 687.41406 C 666.82682,330.5193 658.74413,365.20813 650,400.17773 L 425,1300 c -45.50166,181.9707 -103.46978,199.1136 -164.55664,200 H 100 v 400 h 150 c 149.9997,-299.9994 150.0008,-300 350,-300 h 500 200 c 199.9992,0 200.0003,6e-4 350,300 h 150 V 1600 1500 H 1600 V 300 h 200 V 200 Z m 900,100 h 100 V 1500 H 1100 508.35938 C 536.52265,1452.7364 553.15113,1387.3955 575,1300 L 775,500 c 49.99995,-199.9998 75.00035,-199.82227 250,-199.82227 h 175 z"
       sodipodi:nodetypes="cccssccccscsccccccccccccccssscc" /></g></svg>
