<?xml version="1.0" encoding="UTF-8" standalone="no"?>
<!-- Created with Inkscape (http://www.inkscape.org/) -->

<svg
   width="2000"
   height="2000"
   viewBox="0 0 2000 2000"
   version="1.1"
   id="svg1"
   inkscape:version="1.3 (0e150ed6c4, 2023-07-21)"
   sodipodi:docname="1046_zhe-capital.svg"
   xml:space="preserve"
   xmlns:inkscape="http://www.inkscape.org/namespaces/inkscape"
   xmlns:sodipodi="http://sodipodi.sourceforge.net/DTD/sodipodi-0.dtd"
   xmlns="http://www.w3.org/2000/svg"
   xmlns:svg="http://www.w3.org/2000/svg"><sodipodi:namedview
     id="namedview1"
     pagecolor="#ffffff"
     bordercolor="#000000"
     borderopacity="0.25"
     inkscape:showpageshadow="2"
     inkscape:pageopacity="0.0"
     inkscape:pagecheckerboard="0"
     inkscape:deskcolor="#d1d1d1"
     inkscape:document-units="px"
     showgrid="true"
     inkscape:zoom="0.55583335"
     inkscape:cx="683.65815"
     inkscape:cy="1175.7121"
     inkscape:window-width="2560"
     inkscape:window-height="1494"
     inkscape:window-x="-11"
     inkscape:window-y="-11"
     inkscape:window-maximized="1"
     inkscape:current-layer="layer1-3"
     showguides="false"><inkscape:grid
       id="grid1"
       units="px"
       originx="0"
       originy="0"
       spacingx="25"
       spacingy="25"
       empcolor="#0099e5"
       empopacity="0.30196078"
       color="#0099e5"
       opacity="0.14901961"
       empspacing="4"
       dotted="false"
       gridanglex="30"
       gridanglez="30"
       visible="true" /></sodipodi:namedview><defs
     id="defs1" /><g
     inkscape:label="Layer 1"
     inkscape:groupmode="layer"
     id="layer1"><g
       inkscape:label="Layer 1"
       id="layer1-3"
       transform="translate(1800,-400)"><path
         id="path124467-3-9"
         style="fill:#000000;fill-opacity:0.555319;stroke:none;stroke-width:1px;stroke-linecap:butt;stroke-linejoin:miter;stroke-opacity:1"
         d="m -700,600 v 100 h 200 v 750 200 250 h -200 v 100 H 0 v -100 h -200 v -600 h 100 c 144.46811,0 162.02924,24.0585 200,100 l 150,300 c 99.9999,199.9998 200.00025,300 450,300 h 300 v -100 c -73.86423,0 -300.0001,-2e-4 -400,-200 L 450,1400 C 413.42682,1326.8536 370.37409,1271.269 274.20703,1237.4375 310.08742,1203.6775 321.41586,1157.1683 350,1100 L 450,900 c 99.9998,-199.9996 151.13584,-200 225,-200 0,0 -75,25.00014 -75,100 0,49.99975 50.0002,100 150,100 99.9998,0 150,-50.00014 150,-125 0,-98.94619 -75.00035,-175 -250,-175 -249.9995,0 -250.0002,100.0004 -350,300 l -100,200 c -37.97072,75.9414 -50.00035,100 -225,100 -116.1938,-0.3994 -118.5132,0 -175,0 V 700 H 0 V 600 Z" /><path
         id="path124467-3-9-9"
         style="fill:#000000;fill-opacity:0.555319;stroke:none;stroke-width:1px;stroke-linecap:butt;stroke-linejoin:miter;stroke-opacity:1"
         d="m 0,600 v 100 h -200 v 750 200 250 H 0 v 100 h -700 v -100 h 200 v -600 h -100 c -144.4681,0 -162.0292,24.0585 -200,100 l -150,300 c -99.9999,199.9998 -200.0003,300 -450,300 h -300 v -100 c 73.8642,0 300.0001,-2e-4 400,-200 l 150,-300 c 36.5732,-73.1464 79.6259,-128.731 175.793,-162.5625 -35.8804,-33.76 -47.2089,-80.2692 -75.793,-137.4375 l -100,-200 c -99.9998,-199.9996 -151.1358,-200 -225,-200 0,0 75,25.00014 75,100 0,49.99975 -50.0002,100 -150,100 -99.9998,0 -150,-50.00014 -150,-125 0,-98.94619 75.0003,-175 250,-175 249.9995,0 250.0002,100.0004 350,300 l 100,200 c 37.9707,75.9414 50.0003,100 225,100 116.1938,-0.3994 118.5132,0 175,0 V 700 H -700 V 600 Z" /><path
         id="path124467-3-9-2"
         style="fill:#000000;fill-opacity:0.555319;stroke:none;stroke-width:1px;stroke-linecap:butt;stroke-linejoin:miter;stroke-opacity:1"
         d="M -1350 600 C -1524.9995 600 -1600 676.05391 -1600 775 C -1600 849.99979 -1549.9997 900 -1450 900 C -1350.0003 900 -1300 849.9997 -1300 800 C -1300 725.00021 -1375 700 -1375 700 C -1301.1359 700 -1249.9997 700.0006 -1150 900 L -1050 1100 C -1021.4159 1157.1682 -1010.0874 1203.6775 -974.20703 1237.4375 C -1070.374 1271.269 -1113.4268 1326.8537 -1150 1400 L -1300 1700 C -1399.9998 1899.9996 -1626.1359 1900 -1700 1900 L -1700 2000 L -1400 2000 C -1150.0005 2000 -1049.9998 1899.9996 -950 1700 L -800 1400 C -762.02924 1324.0586 -744.46796 1300 -600 1300 L -500 1300 L -500 1450 L -500 1650 L -500 1900 L -700 1900 L -700 2000 L 0 2000 L 0 1900 L -200 1900 L -200 1650 L -200 1450 L -200 1300 L -100 1300 C 44.467966 1300 62.029278 1324.0586 100 1400 L 250 1700 C 349.9998 1899.9996 450.0005 2000 700 2000 L 1000 2000 L 1000 1900 C 926.13584 1900 699.9998 1899.9996 600 1700 L 450 1400 C 413.42686 1326.8537 370.374 1271.269 274.20703 1237.4375 C 310.08739 1203.6775 321.41589 1157.1682 350 1100 L 450 900 C 549.9997 700.0006 601.13591 700 675 700 C 675 700 600 725.00021 600 800 C 600 849.9997 650.0003 900 750 900 C 849.9997 900 900 849.99979 900 775 C 900 676.05391 824.99948 600 650 600 C 400.00075 600 399.9997 700.0006 300 900 L 200 1100 C 162.02932 1175.9413 149.99948 1200 -25 1200 C -141.19368 1199.6006 -143.51326 1200 -200 1200 L -200 700 L 0 700 L 0 600 L -700 600 L -700 700 L -500 700 L -500 1200 C -556.48674 1200 -558.80632 1199.6006 -675 1200 C -849.99953 1200 -862.02934 1175.9413 -900 1100 L -1000 900 C -1099.9997 700.0006 -1100.0007 600 -1350 600 z " /></g></g></svg>
