<?xml version="1.0" encoding="UTF-8" standalone="no"?>
<!-- Created with Inkscape (http://www.inkscape.org/) -->

<svg
   width="2000"
   height="2000"
   viewBox="0 0 2000 2000"
   version="1.1"
   id="svg1"
   inkscape:version="1.2.2 (732a01da63, 2022-12-09)"
   sodipodi:docname="1047_ze-capital.svg"
   xml:space="preserve"
   xmlns:inkscape="http://www.inkscape.org/namespaces/inkscape"
   xmlns:sodipodi="http://sodipodi.sourceforge.net/DTD/sodipodi-0.dtd"
   xmlns="http://www.w3.org/2000/svg"
   xmlns:svg="http://www.w3.org/2000/svg"><sodipodi:namedview
     id="namedview1"
     pagecolor="#ffffff"
     bordercolor="#000000"
     borderopacity="0.25"
     inkscape:showpageshadow="2"
     inkscape:pageopacity="0.0"
     inkscape:pagecheckerboard="0"
     inkscape:deskcolor="#d1d1d1"
     inkscape:document-units="px"
     showgrid="true"
     inkscape:zoom="0.55583336"
     inkscape:cx="186.20689"
     inkscape:cy="795.20236"
     inkscape:window-width="3840"
     inkscape:window-height="2066"
     inkscape:window-x="-11"
     inkscape:window-y="-11"
     inkscape:window-maximized="1"
     inkscape:current-layer="layer1"
     showguides="false"><inkscape:grid
       id="grid1"
       units="px"
       originx="0"
       originy="0"
       spacingx="10"
       spacingy="10"
       empcolor="#0099e5"
       empopacity="0.30196078"
       color="#0099e5"
       opacity="0.14901961"
       empspacing="10"
       dotted="false"
       gridanglex="30"
       gridanglez="30"
       visible="true" /></sodipodi:namedview><defs
     id="defs1" /><g
     inkscape:label="Layer 1"
     inkscape:groupmode="layer"
     id="layer1"><path
       style="fill:#000000;fill-opacity:0.555319;stroke:none;stroke-width:1px;stroke-linecap:butt;stroke-linejoin:miter;stroke-opacity:1"
       d="m 650.00001,800 c 250,0 351.79909,-137.61619 349.99999,-250 -1.2381,-77.34145 0,-250 -299.99999,-250 -390,0 -500,250 -550,300 h -50 V 200 h 100 v 150 c 0,0 180,-160 500,-160 C 1080,190 1250,350 1250,550 1250,770 950,900 650.00001,900"
       id="path73468"
       sodipodi:nodetypes="csscccccssc" /><path
       style="fill:#000000;fill-opacity:0.555319;stroke:none;stroke-width:1px;stroke-linecap:butt;stroke-linejoin:miter;stroke-opacity:1"
       d="M 650.00001,900 C 905.5272,902.54907 1000,1020 1000,1150 c 0,130 -50,350 -400,350 -350,0 -450,-180 -500,-230 v 100 c 50,60 150,240 550,240 300,0 647.3014,-150.3298 650,-460 2.6987,-309.67018 -350,-350 -649.99999,-350"
       id="path53405"
       sodipodi:nodetypes="czsccszc" /><rect
       style="opacity:0.489888;fill:#000000;fill-opacity:0.555319;fill-rule:evenodd;stroke-width:100;stroke-linecap:round;stroke-linejoin:round;stroke-miterlimit:4.5;stroke-opacity:0.56;stop-color:#000000"
       id="rect12237"
       width="250"
       height="100"
       x="-650"
       y="800"
       transform="scale(-1,1)" /><path
       id="path73468-6"
       style="fill:#000000;fill-opacity:0.555319;stroke:none;stroke-width:1px;stroke-linecap:butt;stroke-linejoin:miter;stroke-opacity:1"
       d="M 700 190 C 380.00032 190 200 350 200 350 L 200 200 L 100 200 L 100 600 L 150 600 C 199.99995 550.00005 310.00039 300 700 300 C 999.99969 300 998.7619 472.65863 1000 550 C 1001.7991 662.3837 899.99975 800 650 800 L 400 800 L 400 900 L 650 900 C 905.52693 902.54907 1000 1020.0001 1000 1150 C 1000 1279.9999 949.99965 1500 600 1500 C 250.00035 1500 149.99995 1319.9999 100 1270 L 100 1370 C 149.99995 1429.9999 250.0004 1610 650 1610 C 949.9997 1610 1297.3014 1459.6699 1300 1150 C 1301.6262 963.39294 1174.1337 874.66855 1006.9512 833.55859 C 1149.5837 774.26588 1250 677.22283 1250 550 C 1250 350.0002 1079.9996 190 700 190 z " /></g></svg>
