<?xml version="1.0" encoding="UTF-8" standalone="no"?>
<!-- Created with Inkscape (http://www.inkscape.org/) -->

<svg
   width="2000"
   height="2000"
   viewBox="0 0 2000 2000"
   version="1.1"
   id="svg1"
   inkscape:version="1.2.2 (732a01da63, 2022-12-09)"
   sodipodi:docname="1050_ka-capital.svg"
   xml:space="preserve"
   xmlns:inkscape="http://www.inkscape.org/namespaces/inkscape"
   xmlns:sodipodi="http://sodipodi.sourceforge.net/DTD/sodipodi-0.dtd"
   xmlns="http://www.w3.org/2000/svg"
   xmlns:svg="http://www.w3.org/2000/svg"><sodipodi:namedview
     id="namedview1"
     pagecolor="#ffffff"
     bordercolor="#000000"
     borderopacity="0.25"
     inkscape:showpageshadow="2"
     inkscape:pageopacity="0.0"
     inkscape:pagecheckerboard="0"
     inkscape:deskcolor="#d1d1d1"
     inkscape:document-units="px"
     showgrid="true"
     inkscape:zoom="0.78606706"
     inkscape:cx="1417.818"
     inkscape:cy="915.95239"
     inkscape:window-width="3840"
     inkscape:window-height="2066"
     inkscape:window-x="-11"
     inkscape:window-y="-11"
     inkscape:window-maximized="1"
     inkscape:current-layer="layer1-3"
     showguides="false"><inkscape:grid
       id="grid1"
       units="px"
       originx="0"
       originy="0"
       spacingx="25"
       spacingy="25"
       empcolor="#0099e5"
       empopacity="0.30196078"
       color="#0099e5"
       opacity="0.14901961"
       empspacing="4"
       dotted="false"
       gridanglex="30"
       gridanglez="30"
       visible="true" /></sodipodi:namedview><defs
     id="defs1" /><g
     inkscape:label="Layer 1"
     inkscape:groupmode="layer"
     id="layer1"><g
       inkscape:label="Layer 1"
       id="layer1-3"
       transform="translate(1800,-400)"><path
         id="path124467-3"
         style="fill:#000000;fill-opacity:0.555319;stroke:none;stroke-width:1px;stroke-linecap:butt;stroke-linejoin:miter;stroke-opacity:1"
         d="m -350,600 c -249.99975,0 -250.0001,100.0002 -350,300 l -100,200 c -37.97076,75.9415 -50.00018,100 -225,100 h -175 v 100 c 56.4868,0 58.8062,0.3994 175,0 332.75289,-1.1437 312.65796,-75.3159 375,-200 l 100,-200 c 99.9999,-199.9998 151.13577,-200 225,-200 0,0 -75,25.00007 -75,100 0,49.9998 50.0001,100 150,100 99.9999,0 150,-50.00007 150,-125 0,-98.94629 -75.00018,-175 -250,-175 z" /><path
         style="fill:#000000;fill-opacity:0.555319;stroke:none;stroke-width:1px;stroke-linecap:butt;stroke-linejoin:miter;stroke-opacity:1"
         d="M -1500,1450 V 700 h -200 V 600 h 700 v 100 h -200 v 1200 h 200 v 100 h -700 v -100 h 200 v -250"
         id="path11949" /><path
         style="fill:#000000;fill-opacity:0.555319;stroke:none;stroke-width:1px;stroke-linecap:butt;stroke-linejoin:miter;stroke-opacity:1"
         d="m 0,2000 h -300 c -250,0 -350,-100 -450,-300 l -150,-300 c -37.9708,-75.9416 -55.53175,-100 -200,-100 h -100 v -100 c 56.4869,0 58.8061,-0.3994 175,0 332.75322,1.1437 412.6579,75.3158 475,200 l 150,300 c 100,200 326.1357,200 400,200 z"
         id="path69743-7"
         sodipodi:nodetypes="cssssccssscc" /><path
         id="path124467-3-9"
         style="fill:#000000;fill-opacity:0.555319;stroke:none;stroke-width:1px;stroke-linecap:butt;stroke-linejoin:miter;stroke-opacity:1"
         d="M -1700 600 L -1700 700 L -1500 700 L -1500 1450 L -1500 1650 L -1500 1900 L -1700 1900 L -1700 2000 L -1000 2000 L -1000 1900 L -1200 1900 L -1200 1300 L -1100 1300 C -955.53189 1300 -937.97076 1324.0585 -900 1400 L -750 1700 C -650.0001 1899.9998 -549.99975 2000 -300 2000 L 0 2000 L 0 1900 C -73.864226 1900 -300.0001 1899.9998 -400 1700 L -550 1400 C -586.57318 1326.8536 -629.62591 1271.269 -725.79297 1237.4375 C -689.91258 1203.6775 -678.58414 1157.1683 -650 1100 L -550 900 C -450.0002 700.0004 -398.86416 700 -325 700 C -325 700 -400 725.00014 -400 800 C -400 849.99975 -349.9998 900 -250 900 C -150.0002 900 -100 849.99986 -100 775 C -100 676.05381 -175.00035 600 -350 600 C -599.9995 600 -600.0002 700.0004 -700 900 L -800 1100 C -837.97072 1175.9414 -850.00035 1200 -1025 1200 C -1141.1938 1199.6006 -1143.5132 1200 -1200 1200 L -1200 700 L -1000 700 L -1000 600 L -1700 600 z " /></g></g></svg>
