<?xml version="1.0" encoding="UTF-8" standalone="no"?>
<!-- Created with Inkscape (http://www.inkscape.org/) -->

<svg
   width="2000"
   height="2000"
   viewBox="0 0 2000 2000"
   version="1.1"
   id="svg1"
   inkscape:version="1.3 (0e150ed6c4, 2023-07-21)"
   sodipodi:docname="1051_el-capital.svg"
   xml:space="preserve"
   xmlns:inkscape="http://www.inkscape.org/namespaces/inkscape"
   xmlns:sodipodi="http://sodipodi.sourceforge.net/DTD/sodipodi-0.dtd"
   xmlns="http://www.w3.org/2000/svg"
   xmlns:svg="http://www.w3.org/2000/svg"><sodipodi:namedview
     id="namedview1"
     pagecolor="#ffffff"
     bordercolor="#000000"
     borderopacity="0.25"
     inkscape:showpageshadow="2"
     inkscape:pageopacity="0.0"
     inkscape:pagecheckerboard="0"
     inkscape:deskcolor="#d1d1d1"
     inkscape:document-units="px"
     showgrid="true"
     inkscape:zoom="0.78606706"
     inkscape:cx="996.09822"
     inkscape:cy="926.76571"
     inkscape:window-width="2560"
     inkscape:window-height="1494"
     inkscape:window-x="-11"
     inkscape:window-y="-11"
     inkscape:window-maximized="1"
     inkscape:current-layer="layer1"
     showguides="false"><inkscape:grid
       id="grid1"
       units="px"
       originx="0"
       originy="0"
       spacingx="25"
       spacingy="25"
       empcolor="#0099e5"
       empopacity="0.30196078"
       color="#0099e5"
       opacity="0.14901961"
       empspacing="4"
       dotted="false"
       gridanglex="30"
       gridanglez="30"
       visible="true" /></sodipodi:namedview><defs
     id="defs1" /><g
     inkscape:label="Layer 1"
     inkscape:groupmode="layer"
     id="layer1"><path
       id="path22183"
       style="fill:#000000;fill-opacity:0.555319;stroke:none;stroke-width:1px;stroke-linecap:butt;stroke-linejoin:miter;stroke-opacity:1"
       d="m 1400,300 v 1200 h -200 v 100 h 700 V 1500 H 1700 V 300 h 200 V 200 H 400 v 100 z"
       sodipodi:nodetypes="ccccccccccccc" /><path
       id="path124467-3"
       style="fill:#000000;fill-opacity:0.555319;stroke:none;stroke-width:1px;stroke-linecap:butt;stroke-linejoin:miter;stroke-opacity:1"
       d="m 350,1600 c 249.99975,0 270.76744,-83.0698 325,-300 L 875,500 c 50,-200 75.00018,-199.82249 250,-199.82249 h 175 v -100 c -56.4868,0 -58.8062,-0.3994 -175,0 -332.75289,1.1437 -349.95068,99.82249 -375,200 L 525,1300 c -54.24263,216.9277 -126.1358,200 -200,200 0,0 75,-25.0001 75,-100 0,-49.9998 -50.0001,-100 -150,-100 -99.9999,0 -150,50.0001 -150,125 0,98.9463 75.0002,175 250,175 z"
       sodipodi:nodetypes="ssssccssscssss" /><path
       id="path22183-4"
       style="fill:#000000;fill-opacity:0.555319;stroke:none;stroke-width:1px;stroke-linecap:butt;stroke-linejoin:miter;stroke-opacity:1"
       d="M 400 200 L 400 300 L 787.41406 300 C 766.82682 330.5193 758.74413 365.20813 750 400.17773 L 525 1300 C 470.75742 1516.9275 398.86413 1500 325 1500 C 325 1500 400 1474.9998 400 1400 C 400 1350.0002 349.9998 1300 250 1300 C 150.0002 1300 100 1350.0002 100 1425 C 100 1523.9462 175.00037 1600 350 1600 C 599.9995 1600 620.76749 1516.93 675 1300 L 875 500 C 924.99995 300.0002 950.00035 300.17773 1125 300.17773 L 1300 300.17773 L 1300 300 L 1400 300 L 1400 1500 L 1200 1500 L 1200 1600 L 1900 1600 L 1900 1500 L 1700 1500 L 1700 300 L 1900 300 L 1900 200 L 400 200 z " /></g></svg>
