<?xml version="1.0" encoding="UTF-8" standalone="no"?>
<!-- Created with Inkscape (http://www.inkscape.org/) -->

<svg
   width="2000"
   height="2000"
   viewBox="0 0 2000 2000"
   version="1.1"
   id="svg1"
   inkscape:version="1.2.1 (9c6d41e410, 2022-07-14)"
   sodipodi:docname="1060_ef-capital.svg"
   xml:space="preserve"
   xmlns:inkscape="http://www.inkscape.org/namespaces/inkscape"
   xmlns:sodipodi="http://sodipodi.sourceforge.net/DTD/sodipodi-0.dtd"
   xmlns="http://www.w3.org/2000/svg"
   xmlns:svg="http://www.w3.org/2000/svg"><sodipodi:namedview
     id="namedview1"
     pagecolor="#ffffff"
     bordercolor="#000000"
     borderopacity="0.25"
     inkscape:showpageshadow="2"
     inkscape:pageopacity="0.0"
     inkscape:pagecheckerboard="0"
     inkscape:deskcolor="#d1d1d1"
     inkscape:document-units="px"
     showgrid="true"
     inkscape:zoom="0.78606706"
     inkscape:cx="561.65692"
     inkscape:cy="977.01588"
     inkscape:window-width="2560"
     inkscape:window-height="1377"
     inkscape:window-x="1072"
     inkscape:window-y="-8"
     inkscape:window-maximized="1"
     inkscape:current-layer="layer1"
     showguides="false"><inkscape:grid
       id="grid1"
       units="px"
       originx="0"
       originy="0"
       spacingx="10"
       spacingy="10"
       empcolor="#0099e5"
       empopacity="0.30196078"
       color="#0099e5"
       opacity="0.14901961"
       empspacing="10"
       dotted="false"
       gridanglex="30"
       gridanglez="30"
       visible="true" /></sodipodi:namedview><defs
     id="defs1" /><g
     inkscape:label="Layer 1"
     inkscape:groupmode="layer"
     id="layer1"><path
       id="path48264"
       style="fill:#000000;fill-opacity:0.555319;fill-rule:evenodd;stroke:none;stroke-width:0.792794px;stroke-linecap:butt;stroke-linejoin:miter;stroke-opacity:1"
       d="m 800,390 c -393.42121,1.13077 -700,258.59206 -700,510 0,251.4079 306.25039,510 700,510 V 1300 C 536.05747,1300 450,1115.4926 450,900 450,684.50748 537.50052,500 800,500 Z"
       sodipodi:nodetypes="csccscc" /><path
       id="path48264-4"
       style="fill:#000000;fill-opacity:0.555319;fill-rule:evenodd;stroke:none;stroke-width:0.792794px;stroke-linecap:butt;stroke-linejoin:miter;stroke-opacity:1"
       d="m 1100,390 c 393.4212,1.13077 700,258.59206 700,510 0,251.4079 -306.2504,510 -700,510 v -110 c 263.9425,0 350,-184.5074 350,-400 0,-215.49252 -87.5005,-400 -350,-400 z"
       sodipodi:nodetypes="csccscc" /><path
       id="rect28838"
       style="opacity:0.52809;fill:#000000;fill-opacity:0.555319;fill-rule:evenodd;stroke:none;stroke-width:100;stroke-linecap:round;stroke-linejoin:round;stroke-miterlimit:4.5;stop-color:#000000"
       d="M 500,200 V 300 H 800 V 1500 H 500 v 100 h 900 V 1500 H 1100 V 300 h 300 V 200 Z" /><path
       id="path48264-6"
       style="fill:#000000;fill-opacity:0.555319;fill-rule:evenodd;stroke:none;stroke-width:0.792794px;stroke-linecap:butt;stroke-linejoin:miter;stroke-opacity:1"
       d="M 500 200 L 500 300 L 800 300 L 800 390 C 406.57918 391.13077 100 648.59231 100 900 C 100 1151.4076 406.25078 1410 800 1410 L 800 1500 L 500 1500 L 500 1600 L 1400 1600 L 1400 1500 L 1100 1500 L 1100 1410 C 1493.7492 1410 1800 1151.4076 1800 900 C 1800 648.59231 1493.4208 391.13077 1100 390 L 1100 300 L 1400 300 L 1400 200 L 500 200 z M 800 500 L 800 1300 C 536.05773 1300 450 1115.4924 450 900 C 450 684.5077 537.50078 500 800 500 z M 1100 500 C 1362.4992 500 1450 684.5077 1450 900 C 1450 1115.4924 1363.9422 1300 1100 1300 L 1100 500 z " /></g></svg>
