<?xml version="1.0" encoding="UTF-8" standalone="no"?>
<!-- Created with Inkscape (http://www.inkscape.org/) -->

<svg
   width="2000"
   height="2000"
   viewBox="0 0 2000 2000"
   version="1.1"
   id="svg1"
   inkscape:version="1.2.1 (9c6d41e410, 2022-07-14)"
   sodipodi:docname="1067_capital-yeru.svg"
   xml:space="preserve"
   xmlns:inkscape="http://www.inkscape.org/namespaces/inkscape"
   xmlns:sodipodi="http://sodipodi.sourceforge.net/DTD/sodipodi-0.dtd"
   xmlns="http://www.w3.org/2000/svg"
   xmlns:svg="http://www.w3.org/2000/svg"><sodipodi:namedview
     id="namedview1"
     pagecolor="#ffffff"
     bordercolor="#000000"
     borderopacity="0.25"
     inkscape:showpageshadow="2"
     inkscape:pageopacity="0.0"
     inkscape:pagecheckerboard="0"
     inkscape:deskcolor="#d1d1d1"
     inkscape:document-units="px"
     showgrid="true"
     inkscape:zoom="0.27791667"
     inkscape:cx="1030.8845"
     inkscape:cy="1439.2803"
     inkscape:window-width="2560"
     inkscape:window-height="1377"
     inkscape:window-x="1072"
     inkscape:window-y="-8"
     inkscape:window-maximized="1"
     inkscape:current-layer="layer1"
     showguides="false"><inkscape:grid
       id="grid1"
       units="px"
       originx="0"
       originy="0"
       spacingx="25"
       spacingy="25"
       empcolor="#0099e5"
       empopacity="0.30196078"
       color="#0099e5"
       opacity="0.14901961"
       empspacing="4"
       dotted="false"
       gridanglex="30"
       gridanglez="30"
       visible="true" /></sodipodi:namedview><defs
     id="defs1" /><g
     inkscape:label="Layer 1"
     inkscape:groupmode="layer"
     id="layer1"><path
       id="rect287"
       style="fill:#000000;fill-opacity:0.556863;stroke-width:0.25;stroke-linejoin:round;paint-order:stroke markers fill"
       d="m 1600.5,199.5 -0.5,0.5 v 99 l 0.5,0.5 h 300 l -0.5,0.5 v 1199 l 0.5,0.5 h -300 l -0.5,0.5 v 99 l 0.5,0.5 h 899 l 0.5,-0.5 v -99 l -0.5,-0.5 h -300 l 0.5,-0.5 V 300 l -0.5,-0.5 h 300 l 0.5,-0.5 v -99 l -0.5,-0.5 z"
       sodipodi:nodetypes="ccccccccccccccccccccccccc" /><path
       id="path8529-2"
       style="fill:#000000;fill-opacity:0.555319;fill-rule:evenodd;stroke:none;stroke-width:1px;stroke-linecap:butt;stroke-linejoin:miter;stroke-opacity:1"
       d="M 100,300 H 300 V 1500 H 100 v 100 h 700 200 c 249.9993,0 495.5022,-130.7355 500,-390 4.4978,-259.2646 -250.0007,-410 -500,-410 H 600 V 300 H 800 V 200 H 100 Z m 500,600 h 400 c 119.9997,0 200,140.0006 200,300 0,159.9994 -80.0003,300 -200,300 H 800 600 Z"
       sodipodi:nodetypes="ccccccssscccccccsssccc" /></g></svg>
