<?xml version="1.0" encoding="UTF-8" standalone="no"?>
<!-- Created with Inkscape (http://www.inkscape.org/) -->

<svg
   width="2000"
   height="2000"
   viewBox="0 0 2000 2000"
   version="1.1"
   id="svg1"
   inkscape:version="1.3 (0e150ed6c4, 2023-07-21)"
   sodipodi:docname="1069_e-capital.svg"
   xml:space="preserve"
   xmlns:inkscape="http://www.inkscape.org/namespaces/inkscape"
   xmlns:sodipodi="http://sodipodi.sourceforge.net/DTD/sodipodi-0.dtd"
   xmlns="http://www.w3.org/2000/svg"
   xmlns:svg="http://www.w3.org/2000/svg"><sodipodi:namedview
     id="namedview1"
     pagecolor="#ffffff"
     bordercolor="#000000"
     borderopacity="0.25"
     inkscape:showpageshadow="2"
     inkscape:pageopacity="0.0"
     inkscape:pagecheckerboard="0"
     inkscape:deskcolor="#d1d1d1"
     inkscape:document-units="px"
     showgrid="true"
     inkscape:zoom="0.55583335"
     inkscape:cx="933.73311"
     inkscape:cy="1098.3508"
     inkscape:window-width="2560"
     inkscape:window-height="1494"
     inkscape:window-x="-11"
     inkscape:window-y="-11"
     inkscape:window-maximized="1"
     inkscape:current-layer="layer1"
     showguides="false"><inkscape:grid
       id="grid1"
       units="px"
       originx="0"
       originy="0"
       spacingx="10"
       spacingy="10"
       empcolor="#0099e5"
       empopacity="0.30196078"
       color="#0099e5"
       opacity="0.14901961"
       empspacing="10"
       dotted="false"
       gridanglex="30"
       gridanglez="30"
       visible="true" /></sodipodi:namedview><defs
     id="defs1" /><g
     inkscape:label="Layer 1"
     inkscape:groupmode="layer"
     id="layer1"><path
       style="fill:#000000;fill-opacity:0.555319;stroke:none;stroke-width:1px;stroke-linecap:butt;stroke-linejoin:miter;stroke-opacity:1"
       d="m 100,1370 c 50,60 200,240 600,240 300,0 800,-260 800,-710 C 1500,450 1000,190 700,190 400,190 200,380 200,380 V 200 H 100 v 400 h 50 C 300,450 397.991,302.69865 650,300 c 349.97993,-3.74778 450,250 450,600 0,350 -100,600 -450,600 -350,0 -500,-180 -550,-230 z"
       id="path53405"
       sodipodi:nodetypes="cszscccccszscc" /><path
       id="path8529"
       style="fill:#000000;fill-opacity:0.555319;fill-rule:evenodd;stroke:none;stroke-width:1px;stroke-linecap:butt;stroke-linejoin:miter;stroke-opacity:1"
       d="m 500,600 h 50 c 99.9999,99.9999 200.0001,200 300,200 h 350 V 900 H 850 c -99.9999,0 -200.0001,100.0001 -300,200 h -50 z"
       sodipodi:nodetypes="ccsccsccc" /><path
       id="path53405-3"
       style="fill:#000000;fill-opacity:0.555319;stroke:none;stroke-width:1px;stroke-linecap:butt;stroke-linejoin:miter;stroke-opacity:1"
       d="m 700,190 c 299.9997,0 800,260.00045 800,710 0,449.9995 -500.0003,710 -800,710 -399.9996,0 -550.0001,-180.0001 -600,-240 v -100 c 49.9999,49.9999 200.0004,230 550,230 349.99965,0 450,-250.0004 450,-600 H 850 c -99.9998,0 -200.0002,100.0002 -300,200 H 500 V 600 h 50 c 99.9998,99.9998 200.0002,200 300,200 h 246.627 C 1077.5805,502.89923 965.55949,296.62081 650,300 397.9913,302.69865 299.9998,450.00015 150,600 H 100 V 200 h 100 v 180 c 0,0 200.0003,-190 500,-190 z" /></g></svg>
