<?xml version="1.0" encoding="UTF-8" standalone="no"?>
<!-- Created with Inkscape (http://www.inkscape.org/) -->

<svg
   width="2000"
   height="2000"
   viewBox="0 0 2000 2000"
   version="1.1"
   id="svg1"
   inkscape:version="1.3 (0e150ed6c4, 2023-07-21)"
   sodipodi:docname="1070_yu-capital.svg"
   xml:space="preserve"
   xmlns:inkscape="http://www.inkscape.org/namespaces/inkscape"
   xmlns:sodipodi="http://sodipodi.sourceforge.net/DTD/sodipodi-0.dtd"
   xmlns="http://www.w3.org/2000/svg"
   xmlns:svg="http://www.w3.org/2000/svg"><sodipodi:namedview
     id="namedview1"
     pagecolor="#ffffff"
     bordercolor="#000000"
     borderopacity="0.25"
     inkscape:showpageshadow="2"
     inkscape:pageopacity="0.0"
     inkscape:pagecheckerboard="0"
     inkscape:deskcolor="#d1d1d1"
     inkscape:document-units="px"
     showgrid="true"
     inkscape:zoom="0.39303353"
     inkscape:cx="997.37037"
     inkscape:cy="792.55324"
     inkscape:window-width="2560"
     inkscape:window-height="1494"
     inkscape:window-x="-11"
     inkscape:window-y="-11"
     inkscape:window-maximized="1"
     inkscape:current-layer="layer1"
     showguides="false"><inkscape:grid
       id="grid1"
       units="px"
       originx="0"
       originy="0"
       spacingx="25"
       spacingy="25"
       empcolor="#0099e5"
       empopacity="0.30196078"
       color="#0099e5"
       opacity="0.14901961"
       empspacing="4"
       dotted="false"
       gridanglex="30"
       gridanglez="30"
       visible="true" /></sodipodi:namedview><defs
     id="defs1" /><g
     inkscape:label="Layer 1"
     inkscape:groupmode="layer"
     id="layer1"><path
       id="path48264"
       style="fill:#000000;fill-opacity:0.555319;fill-rule:evenodd;stroke:none;stroke-width:1px;stroke-linecap:butt;stroke-linejoin:miter;stroke-opacity:1"
       d="m 1700,190 c -449.6247,1.57421 -800,360.00037 -800,710 0,349.9996 350,710 800,710 450,0 800,-360.0004 800,-710 0,-349.99963 -350.3753,-711.57421 -800,-710 z m 0,110 c 299.9997,0 400,300.0003 400,600 0,299.9997 -98.3511,600 -400,600 -301.6489,0 -400,-300.0003 -400,-600 0,-299.9997 100.0003,-600 400,-600 z"
       sodipodi:nodetypes="zzzzzzzzzz" /><path
       id="rect28838"
       style="opacity:0.52809;fill:#000000;fill-opacity:0.555319;fill-rule:evenodd;stroke:none;stroke-width:100;stroke-linecap:round;stroke-linejoin:round;stroke-miterlimit:4.5;stop-color:#000000"
       d="M 100,200 V 300 H 300 V 1500 H 100 v 100 H 800 V 1500 H 600 V 300 H 800 V 200 Z"
       sodipodi:nodetypes="ccccccccccccc" /><rect
       style="opacity:0.453441;fill:#000000;fill-opacity:0.555319;fill-rule:evenodd"
       id="rect1"
       width="325"
       height="150"
       x="600"
       y="825" /><path
       id="path48264-4"
       style="fill:#000000;fill-opacity:0.555319;fill-rule:evenodd;stroke:none;stroke-width:1px;stroke-linecap:butt;stroke-linejoin:miter;stroke-opacity:1"
       d="M 1700 190 C 1282.4984 191.46174 950.76962 500.61905 905.47266 825 L 600 825 L 600 300 L 800 300 L 800 200 L 100 200 L 100 300 L 300 300 L 300 1500 L 100 1500 L 100 1600 L 800 1600 L 800 1500 L 600 1500 L 600 975 L 905.46289 975 C 950.70274 1299.5759 1282.1399 1610 1700 1610 C 2149.9995 1610 2500 1249.9993 2500 900 C 2500 550.00072 2149.6243 188.42579 1700 190 z M 1700 300 C 1999.9994 300 2100 600.0006 2100 900 C 2100 1199.9994 2001.6486 1500 1700 1500 C 1398.3514 1500 1300 1199.9994 1300 900 C 1300 600.0006 1400.0006 300 1700 300 z " /></g></svg>
