<?xml version="1.0" encoding="UTF-8" standalone="no"?>
<!-- Created with Inkscape (http://www.inkscape.org/) -->

<svg
   width="2000"
   height="2000"
   viewBox="0 0 2000 2000"
   version="1.1"
   id="svg1"
   inkscape:version="1.2.2 (732a01da63, 2022-12-09)"
   sodipodi:docname="1071_ya-capital.svg"
   xml:space="preserve"
   xmlns:inkscape="http://www.inkscape.org/namespaces/inkscape"
   xmlns:sodipodi="http://sodipodi.sourceforge.net/DTD/sodipodi-0.dtd"
   xmlns="http://www.w3.org/2000/svg"
   xmlns:svg="http://www.w3.org/2000/svg"><sodipodi:namedview
     id="namedview1"
     pagecolor="#ffffff"
     bordercolor="#000000"
     borderopacity="0.25"
     inkscape:showpageshadow="2"
     inkscape:pageopacity="0.0"
     inkscape:pagecheckerboard="0"
     inkscape:deskcolor="#d1d1d1"
     inkscape:document-units="px"
     showgrid="true"
     inkscape:zoom="0.78606706"
     inkscape:cx="1291.8745"
     inkscape:cy="915.95239"
     inkscape:window-width="3840"
     inkscape:window-height="2066"
     inkscape:window-x="-11"
     inkscape:window-y="-11"
     inkscape:window-maximized="1"
     inkscape:current-layer="layer1-3"
     showguides="false"><inkscape:grid
       id="grid1"
       units="px"
       originx="0"
       originy="0"
       spacingx="25"
       spacingy="25"
       empcolor="#0099e5"
       empopacity="0.30196078"
       color="#0099e5"
       opacity="0.14901961"
       empspacing="4"
       dotted="false"
       gridanglex="30"
       gridanglez="30"
       visible="true" /></sodipodi:namedview><defs
     id="defs1" /><g
     inkscape:label="Layer 1"
     inkscape:groupmode="layer"
     id="layer1"><g
       inkscape:label="Layer 1"
       id="layer1-3"
       transform="translate(1800,-400)"><path
         style="fill:#000000;fill-opacity:0.555319;stroke:none;stroke-width:1px;stroke-linecap:butt;stroke-linejoin:miter;stroke-opacity:1"
         d="m -1700,2000 h 100 c 250,0 350,0 450,-200 l 150,-300 c 37.9708,-75.9416 55.53175,-100 200,-100 h 100 v -100 c -56.4869,0 -58.8061,-0.3994 -175,0 -332.7532,1.1437 -412.6579,75.3158 -475,200 l -150,300 c -49.1138,98.2275 -126.1357,100 -200,100 z"
         id="path69743-7"
         sodipodi:nodetypes="cssssccssscc" /><path
         id="path48264-2"
         style="fill:#000000;fill-opacity:0.555319;fill-rule:evenodd;stroke:none;stroke-width:1px;stroke-linecap:butt;stroke-linejoin:miter;stroke-opacity:1"
         d="m -1100,1400 c -250,0 -495.5022,-130.7346 -500,-390 -4.4978,-259.26538 250,-410 500,-410 h 900 v 100 h -200 v 1200 h 200 v 100 h -700 v -100 h 200 v -500 z m 400,-700 h -400 c -120,0 -200,140 -200,300 0,160 80,300 200,300 h 400 z"
         sodipodi:nodetypes="czsccccccccccccszscc" /><path
         id="path69743-7-9"
         style="fill:#000000;fill-opacity:0.555319;stroke:none;stroke-width:1px;stroke-linecap:butt;stroke-linejoin:miter;stroke-opacity:1"
         d="M -1100 600 C -1349.9997 600 -1604.4978 750.73488 -1600 1010 C -1596.4738 1213.2588 -1444.6571 1337.1413 -1258.8379 1381.3418 C -1300.2447 1412.8449 -1326.397 1452.794 -1350 1500 L -1500 1800 C -1549.1138 1898.2274 -1626.1358 1900 -1700 1900 L -1700 2000 L -1600 2000 C -1350.0003 2000 -1249.9999 1999.9998 -1150 1800 L -1000 1500 C -962.02924 1424.0585 -944.46811 1400 -800 1400 L -700 1400 L -700 1900 L -900 1900 L -900 2000 L -200 2000 L -200 1900 L -400 1900 L -400 700 L -200 700 L -200 600 L -1100 600 z M -1100 700 L -700 700 L -700 1300 L -875 1300 L -1100 1300 C -1219.9999 1300 -1300 1159.9998 -1300 1000 C -1300 840.00016 -1219.9999 700 -1100 700 z " /></g></g></svg>
