<?xml version="1.0" encoding="UTF-8" standalone="no"?>
<!-- Created with Inkscape (http://www.inkscape.org/) -->

<svg
   width="2000"
   height="2000"
   viewBox="0 0 2000 2000"
   version="1.1"
   id="svg1"
   inkscape:version="1.3 (0e150ed6c4, 2023-07-21)"
   sodipodi:docname="1073_be-small.svg"
   xml:space="preserve"
   xmlns:inkscape="http://www.inkscape.org/namespaces/inkscape"
   xmlns:sodipodi="http://sodipodi.sourceforge.net/DTD/sodipodi-0.dtd"
   xmlns="http://www.w3.org/2000/svg"
   xmlns:svg="http://www.w3.org/2000/svg"><sodipodi:namedview
     id="namedview1"
     pagecolor="#ffffff"
     bordercolor="#000000"
     borderopacity="0.25"
     inkscape:showpageshadow="2"
     inkscape:pageopacity="0.0"
     inkscape:pagecheckerboard="0"
     inkscape:deskcolor="#d1d1d1"
     inkscape:document-units="px"
     showgrid="true"
     inkscape:zoom="0.91100744"
     inkscape:cx="346.86874"
     inkscape:cy="627.32748"
     inkscape:window-width="2560"
     inkscape:window-height="1494"
     inkscape:window-x="-11"
     inkscape:window-y="-11"
     inkscape:window-maximized="1"
     inkscape:current-layer="layer1"
     showguides="false"><inkscape:grid
       id="grid1"
       units="px"
       originx="0"
       originy="0"
       spacingx="10"
       spacingy="10"
       empcolor="#0099e5"
       empopacity="0.30196078"
       color="#0099e5"
       opacity="0.14901961"
       empspacing="10"
       dotted="false"
       gridanglex="30"
       gridanglez="30"
       visible="true" /></sodipodi:namedview><defs
     id="defs1" /><g
     inkscape:label="Layer 1"
     inkscape:groupmode="layer"
     id="layer1"><path
       id="path124467"
       style="fill:#000000;fill-opacity:0.555319;stroke:none;stroke-width:1px;stroke-linecap:butt;stroke-linejoin:miter;stroke-opacity:1"
       d="M 650 600 C 250.0004 600 100 800.00033 100 1100 C 100 1399.9997 257.24739 1597.4557 650 1600 C 1042.7526 1597.4557 1200 1399.9997 1200 1100 C 1200 800.00033 1049.9996 600 650 600 z M 650 700 C 799.99985 700 900 834.33314 900 1100 C 900 1365.6669 799.99985 1500 650 1500 C 500.00015 1500 400 1365.6669 400 1100 C 400 834.33314 500.00015 700 650 700 z " /><path
       style="fill:#000000;fill-opacity:0.555319;stroke:none;stroke-width:1px;stroke-linecap:butt;stroke-linejoin:miter;stroke-opacity:1"
       d="m 550,500 c -200,0 -300,50 -300,200 v 400 H 100 V 700 C 100,410 300.0033,298.84611 500,300 h 300 c 100,0 200,-83.50494 200,-200 h 100 c 0,133.49123 0,400 -300,400 z"
       id="path69743"
       sodipodi:nodetypes="ccccscccccc" /><path
       id="path124467-3"
       style="fill:#000000;fill-opacity:0.555319;stroke:none;stroke-width:1px;stroke-linecap:butt;stroke-linejoin:miter;stroke-opacity:1"
       d="M 1000 100 C 1000 216.49494 899.9999 300 800 300 L 500 300 C 300.0035 298.84611 100 410.00029 100 700 L 100 1100 C 100 1399.9994 257.24778 1597.4557 650 1600 C 1042.7522 1597.4557 1200 1399.9994 1200 1100 C 1200 800.00063 1049.9992 600 650 600 C 468.00184 600 337.90706 641.51703 250 714.90625 L 250 700 C 250 550.00015 350.0002 500 550 500 L 800 500 C 1099.9997 500 1100 233.4911 1100 100 L 1000 100 z M 650 700 C 799.9997 700 900 834.33341 900 1100 C 900 1365.6666 799.9997 1500 650 1500 C 500.0003 1500 400 1365.6666 400 1100 C 400 834.33341 500.0003 700 650 700 z " /></g></svg>
