<?xml version="1.0" encoding="UTF-8" standalone="no"?>
<!-- Created with Inkscape (http://www.inkscape.org/) -->

<svg
   width="2000"
   height="2000"
   viewBox="0 0 2000 2000"
   version="1.1"
   id="svg1"
   inkscape:version="1.3 (0e150ed6c4, 2023-07-21)"
   sodipodi:docname="1076_de-small.svg"
   xml:space="preserve"
   xmlns:inkscape="http://www.inkscape.org/namespaces/inkscape"
   xmlns:sodipodi="http://sodipodi.sourceforge.net/DTD/sodipodi-0.dtd"
   xmlns="http://www.w3.org/2000/svg"
   xmlns:svg="http://www.w3.org/2000/svg"><sodipodi:namedview
     id="namedview1"
     pagecolor="#ffffff"
     bordercolor="#000000"
     borderopacity="0.25"
     inkscape:showpageshadow="2"
     inkscape:pageopacity="0.0"
     inkscape:pagecheckerboard="0"
     inkscape:deskcolor="#d1d1d1"
     inkscape:document-units="px"
     showgrid="true"
     inkscape:zoom="0.78606706"
     inkscape:cx="895.59789"
     inkscape:cy="1062.8864"
     inkscape:window-width="2560"
     inkscape:window-height="1494"
     inkscape:window-x="-11"
     inkscape:window-y="-11"
     inkscape:window-maximized="1"
     inkscape:current-layer="layer1"
     showguides="false"><inkscape:grid
       id="grid1"
       units="px"
       originx="0"
       originy="0"
       spacingx="10"
       spacingy="10"
       empcolor="#0099e5"
       empopacity="0.30196078"
       color="#0099e5"
       opacity="0.14901961"
       empspacing="10"
       dotted="false"
       gridanglex="30"
       gridanglez="30"
       visible="true" /></sodipodi:namedview><defs
     id="defs1" /><g
     inkscape:label="Layer 1"
     inkscape:groupmode="layer"
     id="layer1"><path
       id="path22183"
       style="fill:#000000;fill-opacity:0.555319;stroke:none;stroke-width:0.714288px;stroke-linecap:butt;stroke-linejoin:miter;stroke-opacity:1"
       d="M 899.99997,700 900,1500 H 800 l 1.42857,100.006 H 1401.4286 L 1400,1500 H 1200 V 700 h 200 l 1.4286,-100 H 200 l -1.4286,100 z"
       sodipodi:nodetypes="ccccccccccccc" /><path
       id="path124467-3"
       style="fill:#000000;fill-opacity:0.555319;stroke:none;stroke-width:0.714288px;stroke-linecap:butt;stroke-linejoin:miter;stroke-opacity:1"
       d="m 200,1600 c 178.57125,0 211.26224,-45.049 250,-200 L 600,800 c 15,-60 30.00013,-100 155,-100 h 125 l 2.85714,-99.87321 c -40.34772,0 -42.00443,-0.28528 -125,0 C 520.17651,600.94373 490,640 450,800 l -150,600 c -16.72524,66.901 -47.23986,100 -100,100 z"
       sodipodi:nodetypes="csssccssscc" /><path
       id="path11061"
       style="fill:#000000;fill-opacity:0.555319;stroke:none;stroke-width:0.714288px;stroke-linecap:butt;stroke-linejoin:miter;stroke-opacity:1"
       d="m 100,1800 h 100 c 107.14275,-214.2868 107.14329,-200 250,-200 h 600 c 142.8567,0 142.8573,-14.2868 250,200 h 100 V 1500 H 100"
       sodipodi:nodetypes="ccsscccc" /><path
       id="path22183-1"
       style="fill:#000000;fill-opacity:0.555319;stroke:none;stroke-width:0.714288px;stroke-linecap:butt;stroke-linejoin:miter;stroke-opacity:1"
       d="m 200,600 -1.42773,100 H 482.28125 C 469.7781,726.42588 460.18734,759.25065 450,800 l -150,600 c -16.72522,66.9009 -47.23991,100 -100,100 H 100 v 300 h 100 c 107.14264,-214.2866 107.14343,-200 250,-200 h 351.42773 v 0.01 h 309.55857 c 84.6573,1.73 99.9244,21.8144 189.0137,199.9941 h 100 v -199.9941 h 1.4277 L 1400,1500 H 1200 V 700 h 200 l 1.4277,-100 z m 555,100 h 125 20 v 800 H 800 418.07617 C 430.09368,1473.3532 439.87141,1440.5143 450,1400 L 600,800 c 14.99999,-59.99994 30.00025,-100 155,-100 z"
       sodipodi:nodetypes="cccssscccscccccccccccccscccccsss" /></g></svg>
