<?xml version="1.0" encoding="UTF-8" standalone="no"?>
<!-- Created with Inkscape (http://www.inkscape.org/) -->

<svg
   width="2000"
   height="2000"
   viewBox="0 0 2000 2000"
   version="1.1"
   id="svg1"
   inkscape:version="1.2.2 (732a01da63, 2022-12-09)"
   sodipodi:docname="ascii_101_e.svg"
   xml:space="preserve"
   xmlns:inkscape="http://www.inkscape.org/namespaces/inkscape"
   xmlns:sodipodi="http://sodipodi.sourceforge.net/DTD/sodipodi-0.dtd"
   xmlns="http://www.w3.org/2000/svg"
   xmlns:svg="http://www.w3.org/2000/svg"><sodipodi:namedview
     id="namedview1"
     pagecolor="#ffffff"
     bordercolor="#000000"
     borderopacity="0.25"
     inkscape:showpageshadow="2"
     inkscape:pageopacity="0.0"
     inkscape:pagecheckerboard="0"
     inkscape:deskcolor="#d1d1d1"
     inkscape:document-units="px"
     showgrid="true"
     inkscape:zoom="1.1116667"
     inkscape:cx="768.66564"
     inkscape:cy="1126.2368"
     inkscape:window-width="3840"
     inkscape:window-height="2066"
     inkscape:window-x="-11"
     inkscape:window-y="-11"
     inkscape:window-maximized="1"
     inkscape:current-layer="layer1"
     showguides="false"><inkscape:grid
       id="grid1"
       units="px"
       originx="0"
       originy="0"
       spacingx="25"
       spacingy="25"
       empcolor="#0099e5"
       empopacity="0.30196078"
       color="#0099e5"
       opacity="0.14901961"
       empspacing="4"
       dotted="false"
       gridanglex="30"
       gridanglez="30"
       visible="true" /></sodipodi:namedview><defs
     id="defs1" /><g
     inkscape:label="Layer 1"
     inkscape:groupmode="layer"
     id="layer1"><path
       style="fill:#000000;fill-opacity:0.555319;stroke:none;stroke-width:1px;stroke-linecap:butt;stroke-linejoin:miter;stroke-opacity:1"
       d="m 100,1100 c 0,300 300.01549,496.7076 650,500 382.4866,3.5982 525,-200 525,-200 v -100 c 0,0 -175,200 -525,200 -250,0 -350,-100 -350,-400 0,-300 100,-400 350,-400 250,0 250,300 250,300 H 300 v 100 c 0,0 675,0 1000,0 0,-200 -100,-500 -550,-500 -350,0 -650,200 -650,500 z"
       id="path124467"
       sodipodi:nodetypes="zsccszsccccsz" /><path
       id="path124467-7"
       style="fill:#000000;fill-opacity:0.555319;stroke:none;stroke-width:1px;stroke-linecap:butt;stroke-linejoin:miter;stroke-opacity:1"
       d="M 750 600 C 400.00035 600 100 800.00026 100 1100 C 100 1399.9997 400.01584 1596.7076 750 1600 C 1132.4862 1603.5982 1275 1400 1275 1400 L 1275 1300 C 1275 1300 1099.9996 1500 750 1500 C 500.00025 1500 400 1399.9997 400 1100 L 1300 1100 C 1300 900.00016 1199.9995 600 750 600 z M 750 700 C 999.99975 700 1000 1000 1000 1000 L 404.54297 1000 C 426.42563 777.43912 530.19978 700 750 700 z " /></g></svg>
