<?xml version="1.0" encoding="UTF-8" standalone="no"?>
<!-- Created with Inkscape (http://www.inkscape.org/) -->

<svg
   width="2000"
   height="2000"
   viewBox="0 0 2000 2000"
   version="1.1"
   id="svg1"
   inkscape:version="1.3 (0e150ed6c4, 2023-07-21)"
   sodipodi:docname="1078_zhe-small.svg"
   xml:space="preserve"
   xmlns:inkscape="http://www.inkscape.org/namespaces/inkscape"
   xmlns:sodipodi="http://sodipodi.sourceforge.net/DTD/sodipodi-0.dtd"
   xmlns="http://www.w3.org/2000/svg"
   xmlns:svg="http://www.w3.org/2000/svg"><sodipodi:namedview
     id="namedview1"
     pagecolor="#ffffff"
     bordercolor="#000000"
     borderopacity="0.25"
     inkscape:showpageshadow="2"
     inkscape:pageopacity="0.0"
     inkscape:pagecheckerboard="0"
     inkscape:deskcolor="#d1d1d1"
     inkscape:document-units="px"
     showgrid="true"
     inkscape:zoom="0.55583335"
     inkscape:cx="683.65815"
     inkscape:cy="1175.7121"
     inkscape:window-width="2560"
     inkscape:window-height="1494"
     inkscape:window-x="-11"
     inkscape:window-y="-11"
     inkscape:window-maximized="1"
     inkscape:current-layer="layer1-3"
     showguides="false"><inkscape:grid
       id="grid1"
       units="px"
       originx="0"
       originy="0"
       spacingx="25"
       spacingy="25"
       empcolor="#0099e5"
       empopacity="0.30196078"
       color="#0099e5"
       opacity="0.14901961"
       empspacing="4"
       dotted="false"
       gridanglex="30"
       gridanglez="30"
       visible="true" /></sodipodi:namedview><defs
     id="defs1" /><g
     inkscape:label="Layer 1"
     inkscape:groupmode="layer"
     id="layer1"><g
       inkscape:label="Layer 1"
       id="layer1-3"
       transform="translate(1800,-400)"><path
         id="path124467-3-9-9"
         style="fill:#000000;fill-opacity:0.555319;stroke:none;stroke-width:0.714286px;stroke-linecap:butt;stroke-linejoin:miter;stroke-opacity:1"
         d="m -500,1900 h 200 v 100 h -700 v -100 h 200 v -400 h -78.57142 C -975,1500 -1012.5,1525 -1050,1600 l -100,200 c -75,150 -150,200 -300,200 h -250 v -100 c 75,0 250,0 300,-100 l 100,-200 c 26.1238,-52.2475 49.7328,-120.5221 118.4236,-144.6875 C -1207.2053,1431.1982 -1212.5,1425 -1250,1350 l -75,-150 c -50,-100 -50,-100 -75,-125 0,0 25,21.4287 25,75 0,35.7142 -28.5715,75 -100,75 -71.4284,0 -125,-46.4287 -125,-100 0,-70.6758 53.5716,-125 178.5714,-125 121.4286,0 150.0002,57.1432 221.4286,200 l 75,150 c 25,50 50,50 157.14286,50 82.99557,-0.2853 127.50942,0 167.85714,0 v -300 h -200 v -100 h 700 v 100 h -200 z"
         sodipodi:nodetypes="cccccccssssccsscsscssssssccccccccc" /><path
         id="path124467-3-9-9-5"
         style="fill:#000000;fill-opacity:0.555319;stroke:none;stroke-width:0.714286px;stroke-linecap:butt;stroke-linejoin:miter;stroke-opacity:1"
         d="m -800,1900 h -200 v 100 h 700 v -100 h -200 v -400 h 78.5714 C -325,1500 -287.5,1525 -250,1600 l 100,200 c 75,150 150,200 300,200 h 250 v -100 c -75,0 -250,0 -300,-100 L 0,1600 C -26.1238,1547.7525 -49.7328,1479.4779 -118.4236,1455.3125 -92.7947,1431.1982 -87.5,1425 -50,1350 l 75,-150 c 50,-100 50,-100 75,-125 0,0 -25,21.4287 -25,75 0,35.7142 28.5715,75 100,75 71.4284,0 125,-46.4287 125,-100 0,-70.6758 -53.5716,-125 -178.5714,-125 C 0,1000 -28.5716,1057.1432 -100,1200 l -75,150 c -25,50 -50,50 -157.1429,50 -82.9955,-0.2853 -127.5094,0 -167.8571,0 v -300 h 200 v -100 h -700 v 100 h 200 z"
         sodipodi:nodetypes="cccccccssssccsscsscssssssccccccccc" /><path
         id="path124467-3-9-9-58"
         style="fill:#000000;fill-opacity:0.555319;stroke:none;stroke-width:0.714286px;stroke-linecap:butt;stroke-linejoin:miter;stroke-opacity:1"
         d="M -1421.4277 1000 C -1546.4274 1000 -1600 1054.3243 -1600 1125 C -1600 1178.5712 -1546.4283 1225 -1475 1225 C -1403.5716 1225 -1375 1185.7142 -1375 1150 C -1375 1096.4288 -1400 1075 -1400 1075 C -1375 1100 -1374.9999 1100.0001 -1325 1200 L -1250 1350 C -1212.5 1424.9999 -1207.205 1431.1982 -1181.5762 1455.3125 C -1250.2669 1479.4779 -1273.8762 1547.7526 -1300 1600 L -1400 1800 C -1449.9999 1899.9999 -1625.0001 1900 -1700 1900 L -1700 2000 L -1450 2000 C -1300.0001 2000 -1224.9999 1949.9998 -1150 1800 L -1050 1600 C -1012.5 1525.0001 -975.00075 1500 -878.57227 1500 L -800 1500 L -800 1900 L -1000 1900 L -1000 2000 L -300 2000 L -300 1900 L -500 1900 L -500 1500 L -421.42773 1500 C -324.99923 1500 -287.49996 1525.0001 -250 1600 L -150 1800 C -75.000075 1949.9998 0.00015 2000 150 2000 L 400 2000 L 400 1900 C 325.00007 1900 149.99995 1899.9999 100 1800 L 0 1600 C -26.123774 1547.7526 -49.733097 1479.4779 -118.42383 1455.3125 C -92.794954 1431.1982 -87.499963 1424.9999 -50 1350 L 25 1200 C 74.99995 1100.0001 75.000025 1100 100 1075 C 100 1075 75 1096.4288 75 1150 C 75 1185.7142 103.57157 1225 175 1225 C 246.42833 1225 300 1178.5712 300 1125 C 300 1054.3243 246.42741 1000 121.42773 1000 C -0.0007441964 1000 -28.571671 1057.1433 -100 1200 L -175 1350 C -199.99997 1399.9999 -224.99979 1400 -332.14258 1400 C -415.138 1399.7147 -459.65234 1400 -500 1400 L -500 1100 L -300 1100 L -300 1000 L -1000 1000 L -1000 1100 L -800 1100 L -800 1400 C -840.34768 1400 -884.86193 1399.7147 -967.85742 1400 C -1075.0002 1400 -1100 1399.9999 -1125 1350 L -1200 1200 C -1271.4283 1057.1433 -1299.9993 1000 -1421.4277 1000 z " /></g></g></svg>
