<?xml version="1.0" encoding="UTF-8" standalone="no"?>
<!-- Created with Inkscape (http://www.inkscape.org/) -->

<svg
   width="2000"
   height="2000"
   viewBox="0 0 2000 2000"
   version="1.1"
   id="svg1"
   inkscape:version="1.3 (0e150ed6c4, 2023-07-21)"
   sodipodi:docname="1079_ze-small.svg"
   xml:space="preserve"
   xmlns:inkscape="http://www.inkscape.org/namespaces/inkscape"
   xmlns:sodipodi="http://sodipodi.sourceforge.net/DTD/sodipodi-0.dtd"
   xmlns="http://www.w3.org/2000/svg"
   xmlns:svg="http://www.w3.org/2000/svg"><sodipodi:namedview
     id="namedview1"
     pagecolor="#ffffff"
     bordercolor="#000000"
     borderopacity="0.25"
     inkscape:showpageshadow="2"
     inkscape:pageopacity="0.0"
     inkscape:pagecheckerboard="0"
     inkscape:deskcolor="#d1d1d1"
     inkscape:document-units="px"
     showgrid="true"
     inkscape:zoom="1.1116667"
     inkscape:cx="722.3388"
     inkscape:cy="1211.2443"
     inkscape:window-width="2560"
     inkscape:window-height="1494"
     inkscape:window-x="-11"
     inkscape:window-y="-11"
     inkscape:window-maximized="1"
     inkscape:current-layer="layer1"
     showguides="false"><inkscape:grid
       id="grid1"
       units="px"
       originx="0"
       originy="0"
       spacingx="10"
       spacingy="10"
       empcolor="#0099e5"
       empopacity="0.30196078"
       color="#0099e5"
       opacity="0.14901961"
       empspacing="10"
       dotted="false"
       gridanglex="30"
       gridanglez="30"
       visible="true" /></sodipodi:namedview><defs
     id="defs1" /><g
     inkscape:label="Layer 1"
     inkscape:groupmode="layer"
     id="layer1"><path
       style="fill:#000000;fill-opacity:0.555319;stroke:none;stroke-width:0.714286px;stroke-linecap:butt;stroke-linejoin:miter;stroke-opacity:1"
       d="M 500,1000 C 678.57143,1000 801.28507,931.7028 800,851.4286 799.11565,796.18471 774.2857,700 560,700 281.42857,700 171.42857,864.28571 135.71428,900 H 100 V 600 h 100 v 90 c 0,0 171.42857,-100 400,-100 271.42856,0 450,80 450,260 0,180 -335.71429,250 -550,250"
       id="path73468"
       sodipodi:nodetypes="csscccccssc" /><path
       style="fill:#000000;fill-opacity:0.555319;stroke:none;stroke-width:0.714286px;stroke-linecap:butt;stroke-linejoin:miter;stroke-opacity:1"
       d="m 500,1100 c 182.51942,1.8208 300,87.1429 300,180 0,92.8572 -60,220 -310,220 -250,0 -354.28571,-124.2857 -390,-160 v 100 c 35.71429,42.8571 174.28572,170 460,170 214.28572,0 540,-100 540,-330 0,-230 -385.71429,-280 -600,-280"
       id="path53405"
       sodipodi:nodetypes="czsccszc" /><rect
       style="opacity:0.489888;fill:#000000;fill-opacity:0.555319;fill-rule:evenodd;stroke-width:71.4286;stroke-linecap:round;stroke-linejoin:round;stroke-miterlimit:4.5;stroke-opacity:0.56;stop-color:#000000"
       id="rect12237"
       width="200"
       height="100"
       x="-500"
       y="1000"
       transform="scale(-1,1)" /><path
       id="path73468-0"
       style="fill:#000000;fill-opacity:0.555319;stroke:none;stroke-width:0.714286px;stroke-linecap:butt;stroke-linejoin:miter;stroke-opacity:1"
       d="M 600,590 C 371.4288,590 200,690 200,690 V 600 H 100 v 300 h 35.71484 C 171.4291,864.28575 281.42885,700 560,700 774.28549,700 799.11565,796.1839 800,851.42773 801.28507,931.7019 678.57125,1000 500,1000 H 300 v 100 h 200 c 182.51924,1.8208 300,87.143 300,180 0,92.8571 -60.00025,220 -310,220 -249.99975,0 -354.28575,-124.2857 -390,-160 v 100 c 35.71425,42.8571 174.28601,170 460,170 214.28551,0 540,-100.0002 540,-330 0,-124.2984 -112.70368,-195.9598 -250.07031,-235.6348 C 963.28912,1004.4562 1050,941.4497 1050,850 1050,670.00018 871.42829,590 600,590 Z" /></g></svg>
