<?xml version="1.0" encoding="UTF-8" standalone="no"?>
<!-- Created with Inkscape (http://www.inkscape.org/) -->

<svg
   width="2000"
   height="2000"
   viewBox="0 0 2000 2000"
   version="1.1"
   id="svg1"
   inkscape:version="1.3 (0e150ed6c4, 2023-07-21)"
   sodipodi:docname="1081_ka-small.svg"
   xml:space="preserve"
   xmlns:inkscape="http://www.inkscape.org/namespaces/inkscape"
   xmlns:sodipodi="http://sodipodi.sourceforge.net/DTD/sodipodi-0.dtd"
   xmlns="http://www.w3.org/2000/svg"
   xmlns:svg="http://www.w3.org/2000/svg"><sodipodi:namedview
     id="namedview1"
     pagecolor="#ffffff"
     bordercolor="#000000"
     borderopacity="0.25"
     inkscape:showpageshadow="2"
     inkscape:pageopacity="0.0"
     inkscape:pagecheckerboard="0"
     inkscape:deskcolor="#d1d1d1"
     inkscape:document-units="px"
     showgrid="true"
     inkscape:zoom="0.55583335"
     inkscape:cx="683.65815"
     inkscape:cy="1175.7121"
     inkscape:window-width="2560"
     inkscape:window-height="1494"
     inkscape:window-x="-11"
     inkscape:window-y="-11"
     inkscape:window-maximized="1"
     inkscape:current-layer="layer1-3"
     showguides="false"><inkscape:grid
       id="grid1"
       units="px"
       originx="0"
       originy="0"
       spacingx="25"
       spacingy="25"
       empcolor="#0099e5"
       empopacity="0.30196078"
       color="#0099e5"
       opacity="0.14901961"
       empspacing="4"
       dotted="false"
       gridanglex="30"
       gridanglez="30"
       visible="true" /></sodipodi:namedview><defs
     id="defs1" /><g
     inkscape:label="Layer 1"
     inkscape:groupmode="layer"
     id="layer1"><g
       inkscape:label="Layer 1"
       id="layer1-3"
       transform="translate(1800,-400)"><path
         id="path124467-3-9-9-5"
         style="fill:#000000;fill-opacity:0.555319;stroke:none;stroke-width:0.714286px;stroke-linecap:butt;stroke-linejoin:miter;stroke-opacity:1"
         d="m -1500,1900 h -200 v 100 h 700 v -100 h -200 v -400 h 78.5714 C -1025,1500 -987.5,1525 -950,1600 l 100,200 c 75,150 150,200 300,200 h 250 v -100 c -75,0 -250,0 -300,-100 l -100,-200 c -26.1238,-52.2475 -49.7328,-120.5221 -118.4236,-144.6875 C -792.7947,1431.1982 -787.5,1425 -750,1350 l 75,-150 c 50,-100 50,-100 75,-125 0,0 -25,21.4287 -25,75 0,35.7142 28.5715,75 100,75 71.4284,0 125,-46.4287 125,-100 0,-70.6758 -53.5716,-125 -178.5714,-125 C -700,1000 -728.5716,1057.1432 -800,1200 l -75,150 c -25,50 -50,50 -157.1429,50 -82.9955,-0.2853 -127.5094,0 -167.8571,0 v -300 h 200 v -100 h -700 v 100 h 200 z"
         sodipodi:nodetypes="cccccccssssccsscsscssssssccccccccc" /></g></g></svg>
