<?xml version="1.0" encoding="UTF-8" standalone="no"?>
<!-- Created with Inkscape (http://www.inkscape.org/) -->

<svg
   width="2000"
   height="2000"
   viewBox="0 0 2000 2000"
   version="1.1"
   id="svg1"
   inkscape:version="1.3 (0e150ed6c4, 2023-07-21)"
   sodipodi:docname="1083_el-small.svg"
   xml:space="preserve"
   xmlns:inkscape="http://www.inkscape.org/namespaces/inkscape"
   xmlns:sodipodi="http://sodipodi.sourceforge.net/DTD/sodipodi-0.dtd"
   xmlns="http://www.w3.org/2000/svg"
   xmlns:svg="http://www.w3.org/2000/svg"><sodipodi:namedview
     id="namedview1"
     pagecolor="#ffffff"
     bordercolor="#000000"
     borderopacity="0.25"
     inkscape:showpageshadow="2"
     inkscape:pageopacity="0.0"
     inkscape:pagecheckerboard="0"
     inkscape:deskcolor="#d1d1d1"
     inkscape:document-units="px"
     showgrid="true"
     inkscape:zoom="0.55583336"
     inkscape:cx="723.23835"
     inkscape:cy="1226.0869"
     inkscape:window-width="2560"
     inkscape:window-height="1494"
     inkscape:window-x="-11"
     inkscape:window-y="-11"
     inkscape:window-maximized="1"
     inkscape:current-layer="layer1"
     showguides="false"><inkscape:grid
       id="grid1"
       units="px"
       originx="0"
       originy="0"
       spacingx="25"
       spacingy="25"
       empcolor="#0099e5"
       empopacity="0.30196078"
       color="#0099e5"
       opacity="0.14901961"
       empspacing="4"
       dotted="false"
       gridanglex="30"
       gridanglez="30"
       visible="true" /></sodipodi:namedview><defs
     id="defs1" /><g
     inkscape:label="Layer 1"
     inkscape:groupmode="layer"
     id="layer1"><path
       id="path22183-9"
       style="fill:#000000;fill-opacity:0.555319;stroke:none;stroke-width:0.714288px;stroke-linecap:butt;stroke-linejoin:miter;stroke-opacity:1"
       d="m 999.28567,700 3e-5,800 h -200 l 1.42857,100.006 H 1500.7143 L 1499.2857,1500 H 1300 V 700 h 199.2857 l 1.4286,-100 H 299.2857 l -1.4286,100 z"
       sodipodi:nodetypes="ccccccccccccc" /><path
       id="path124467-3-3"
       style="fill:#000000;fill-opacity:0.555319;stroke:none;stroke-width:0.714286px;stroke-linecap:butt;stroke-linejoin:miter;stroke-opacity:1"
       d="M 299.2857,1600 C 477.857,1600 512.80963,1548.7615 550,1400 L 700,800 c 12.5,-50 29.2859,-100 154.2857,-100 h 125 l -1.4286,-99.87328 c -40.3477,0 -42.0044,-0.28528 -125,0 C 615.1765,600.94365 586.60712,650 549.2857,800 L 400,1400 c -25.08372,100.815 -47.23986,100 -100,100 0,0 25,-21.4286 25,-75 0,-50 -53.5715,-75 -125,-75 -71.4285,0 -100,46.4286 -100,100 0,70.6759 74.28584,150 199.2857,150 z"
       sodipodi:nodetypes="ssssccssscssss" /><path
       id="path22183-9-4"
       style="fill:#000000;fill-opacity:0.555319;stroke:none;stroke-width:0.714288px;stroke-linecap:butt;stroke-linejoin:miter;stroke-opacity:1"
       d="m 299.28516,600 -1.42774,100 h 284.04102 c -13.02677,26.77636 -22.56728,59.62372 -32.61328,100 L 400,1400 c -25.08369,100.8149 -47.23991,100 -100,100 0,0 25,-21.4287 25,-75 0,-49.9999 -53.57157,-75 -125,-75 -71.42843,0 -100,46.4287 -100,100 0,70.6758 74.28542,150 199.28516,150 C 477.85628,1600 512.80967,1548.7614 550,1400 L 700,800 c 12.49999,-49.99995 29.28548,-100 154.28516,-100 h 125 20 v 800 h -200 l 1.42968,100.0059 H 1500.7148 L 1499.2852,1500 H 1300 V 700 h 199.2852 l 1.4296,-100 z"
       sodipodi:nodetypes="ccccccssssssscccccccccccc" /></g></svg>
