<?xml version="1.0" encoding="UTF-8" standalone="no"?>
<!-- Created with Inkscape (http://www.inkscape.org/) -->

<svg
   width="2000"
   height="2000"
   viewBox="0 0 2000 2000"
   version="1.1"
   id="svg1"
   inkscape:version="1.3 (0e150ed6c4, 2023-07-21)"
   sodipodi:docname="1092_ef-small.svg"
   xml:space="preserve"
   xmlns:inkscape="http://www.inkscape.org/namespaces/inkscape"
   xmlns:sodipodi="http://sodipodi.sourceforge.net/DTD/sodipodi-0.dtd"
   xmlns="http://www.w3.org/2000/svg"
   xmlns:svg="http://www.w3.org/2000/svg"><sodipodi:namedview
     id="namedview1"
     pagecolor="#ffffff"
     bordercolor="#000000"
     borderopacity="0.25"
     inkscape:showpageshadow="2"
     inkscape:pageopacity="0.0"
     inkscape:pagecheckerboard="0"
     inkscape:deskcolor="#d1d1d1"
     inkscape:document-units="px"
     showgrid="true"
     inkscape:zoom="0.55583335"
     inkscape:cx="717.84106"
     inkscape:cy="1067.7661"
     inkscape:window-width="2560"
     inkscape:window-height="1494"
     inkscape:window-x="-11"
     inkscape:window-y="-11"
     inkscape:window-maximized="1"
     inkscape:current-layer="layer1"
     showguides="false"><inkscape:grid
       id="grid1"
       units="px"
       originx="0"
       originy="0"
       spacingx="10"
       spacingy="10"
       empcolor="#0099e5"
       empopacity="0.30196078"
       color="#0099e5"
       opacity="0.14901961"
       empspacing="10"
       dotted="false"
       gridanglex="30"
       gridanglez="30"
       visible="true" /></sodipodi:namedview><defs
     id="defs1" /><g
     inkscape:label="Layer 1"
     inkscape:groupmode="layer"
     id="layer1"><path
       style="fill:#000000;fill-opacity:0.555319;stroke:none;stroke-width:1px;stroke-linecap:butt;stroke-linejoin:miter;stroke-opacity:1"
       d="m 1300,200 v 1700 h 200 v 100 H 800 v -100 h 200 V 300 H 800 V 200 Z"
       id="path123739"
       sodipodi:nodetypes="ccccccccccc" /><path
       style="fill:#000000;fill-opacity:0.555319;stroke:none;stroke-width:1px;stroke-linecap:butt;stroke-linejoin:miter;stroke-opacity:1"
       d="m 1300,1500 c 0,0 150.0032,100.9717 300,100 392.753,-2.5443 600,-200 600,-500 0,-300 -200,-500 -600,-500 -150,0 -300,100 -300,100 v 100 c 0,0 150,-100 300,-100 150,0 300,134.33284 300,400 0,265.6672 -150,400 -300,400 -150,0 -300,-100 -300,-100 z"
       id="path124467"
       sodipodi:nodetypes="cszsccszscc" /><path
       style="fill:#000000;fill-opacity:0.555319;stroke:none;stroke-width:1px;stroke-linecap:butt;stroke-linejoin:miter;stroke-opacity:1"
       d="m 1000,1500 c 0,0 -150.0031,100.9717 -300,100 -392.753,-2.5443 -600,-200 -600,-500 0,-300 200,-500 600,-500 150,0 300,100 300,100 v 100 c 0,0 -150,-100 -300,-100 -150,0 -300,134.33284 -300,400 0,265.6672 150,400 300,400 150,0 300,-100 300,-100 z"
       id="path124467-9"
       sodipodi:nodetypes="cszsccszscc" /><path
       id="path123739-7"
       style="fill:#000000;fill-opacity:0.555319;stroke:none;stroke-width:1px;stroke-linecap:butt;stroke-linejoin:miter;stroke-opacity:1"
       d="M 800 200 L 800 300 L 1000 300 L 1000 700 C 1000 700 849.99985 600 700 600 C 300.0004 600 100 800.0003 100 1100 C 100 1399.9997 307.24739 1597.4557 700 1600 C 849.99675 1600.9717 1000 1500 1000 1500 L 1000 1900 L 800 1900 L 800 2000 L 1500 2000 L 1500 1900 L 1300 1900 L 1300 1500 C 1300 1500 1450.0033 1600.9717 1600 1600 C 1992.7526 1597.4557 2200 1399.9997 2200 1100 C 2200 800.0003 1999.9996 600 1600 600 C 1450.0002 600 1300 700 1300 700 L 1300 200 L 800 200 z M 700 700 C 849.99985 700 1000 800 1000 800 L 1000 1400 C 1000 1400 849.99985 1500 700 1500 C 550.00015 1500 400 1365.6669 400 1100 C 400 834.33311 550.00015 700 700 700 z M 1600 700 C 1749.9998 700 1900 834.33311 1900 1100 C 1900 1365.6669 1749.9998 1500 1600 1500 C 1450.0002 1500 1300 1400 1300 1400 L 1300 800 C 1300 800 1450.0002 700 1600 700 z " /></g></svg>
