<?xml version="1.0" encoding="UTF-8" standalone="no"?>
<!-- Created with Inkscape (http://www.inkscape.org/) -->

<svg
   width="2000"
   height="2000"
   viewBox="0 0 2000 2000"
   version="1.1"
   id="svg1"
   inkscape:version="1.3 (0e150ed6c4, 2023-07-21)"
   sodipodi:docname="1095_che-small.svg"
   xml:space="preserve"
   xmlns:inkscape="http://www.inkscape.org/namespaces/inkscape"
   xmlns:sodipodi="http://sodipodi.sourceforge.net/DTD/sodipodi-0.dtd"
   xmlns="http://www.w3.org/2000/svg"
   xmlns:svg="http://www.w3.org/2000/svg"><sodipodi:namedview
     id="namedview1"
     pagecolor="#ffffff"
     bordercolor="#000000"
     borderopacity="0.25"
     inkscape:showpageshadow="2"
     inkscape:pageopacity="0.0"
     inkscape:pagecheckerboard="0"
     inkscape:deskcolor="#d1d1d1"
     inkscape:document-units="px"
     showgrid="true"
     inkscape:zoom="0.78606706"
     inkscape:cx="712.40741"
     inkscape:cy="939.48727"
     inkscape:window-width="2560"
     inkscape:window-height="1494"
     inkscape:window-x="-11"
     inkscape:window-y="-11"
     inkscape:window-maximized="1"
     inkscape:current-layer="g1"
     showguides="false"><inkscape:grid
       id="grid1"
       units="px"
       originx="0"
       originy="0"
       spacingx="25"
       spacingy="25"
       empcolor="#0099e5"
       empopacity="0.30196078"
       color="#0099e5"
       opacity="0.14901961"
       empspacing="4"
       dotted="false"
       gridanglex="30"
       gridanglez="30"
       visible="true" /></sodipodi:namedview><defs
     id="defs1" /><g
     inkscape:label="Layer 1"
     inkscape:groupmode="layer"
     id="layer1"><g
       id="g2"
       transform="matrix(-1,0,0,1,1625,0)"><g
         id="g1"><path
           id="path8529"
           style="fill:#000000;fill-opacity:0.555319;fill-rule:evenodd;stroke:none;stroke-width:0.845154px;stroke-linecap:butt;stroke-linejoin:miter;stroke-opacity:1"
           d="m 825,1500 v 100 H 125 V 1500 H 325 V 700 H 125 V 600 H 825 V 700 H 625 v 800 z"
           sodipodi:nodetypes="ccccccccccccc" /><path
           style="fill:#000000;fill-opacity:0.555319;stroke:none;stroke-width:0.716514px;stroke-linecap:butt;stroke-linejoin:miter;stroke-opacity:1"
           d="m 1000,600 h 525 v 100 h -225 v 414.2857 C 1304.4631,1195.7495 1225,1325 950,1325 700,1325 625,1117.8572 625,1117.8572 V 1025 c 0,0 58.91169,215.1945 233.75,214.2857 C 959.3736,1238.7627 1000,1171.4286 1000,1100 Z"
           id="path124467"
           sodipodi:nodetypes="cccccsccscc" /><path
           id="path8529-6"
           style="fill:#000000;fill-opacity:0.555319;fill-rule:evenodd;stroke:none;stroke-width:0.845154px;stroke-linecap:butt;stroke-linejoin:miter;stroke-opacity:1"
           d="M 1525 600 L 1525 700 L 1300 700 L 1300 1114.2852 C 1304.4631 1195.7489 1224.9997 1325 950 1325 C 700.00025 1325 625 1117.8574 625 1117.8574 L 625 1500 L 825 1500 L 825 1600 L 125 1600 L 125 1500 L 325 1500 L 325 700 L 125 700 L 125 600 L 825 600 L 825 700 L 625 700 L 625 1025 C 625 1025 683.91186 1240.194 858.75 1239.2852 C 959.3735 1238.7622 1000 1171.4285 1000 1100 L 1000 600 L 1525 600 z " /></g></g></g></svg>
