<?xml version="1.0" encoding="UTF-8" standalone="no"?>
<!-- Created with Inkscape (http://www.inkscape.org/) -->

<svg
   width="2000"
   height="2000"
   viewBox="0 0 2000 2000"
   version="1.1"
   id="svg1"
   inkscape:version="1.3 (0e150ed6c4, 2023-07-21)"
   sodipodi:docname="1101_e-small.svg"
   xml:space="preserve"
   xmlns:inkscape="http://www.inkscape.org/namespaces/inkscape"
   xmlns:sodipodi="http://sodipodi.sourceforge.net/DTD/sodipodi-0.dtd"
   xmlns="http://www.w3.org/2000/svg"
   xmlns:svg="http://www.w3.org/2000/svg"><sodipodi:namedview
     id="namedview1"
     pagecolor="#ffffff"
     bordercolor="#000000"
     borderopacity="0.25"
     inkscape:showpageshadow="2"
     inkscape:pageopacity="0.0"
     inkscape:pagecheckerboard="0"
     inkscape:deskcolor="#d1d1d1"
     inkscape:document-units="px"
     showgrid="true"
     inkscape:zoom="1.1116667"
     inkscape:cx="528.03597"
     inkscape:cy="1057.4213"
     inkscape:window-width="2560"
     inkscape:window-height="1494"
     inkscape:window-x="-11"
     inkscape:window-y="-11"
     inkscape:window-maximized="1"
     inkscape:current-layer="g2"
     showguides="false"><inkscape:grid
       id="grid1"
       units="px"
       originx="0"
       originy="0"
       spacingx="25"
       spacingy="25"
       empcolor="#0099e5"
       empopacity="0.30196078"
       color="#0099e5"
       opacity="0.14901961"
       empspacing="4"
       dotted="false"
       gridanglex="30"
       gridanglez="30"
       visible="true" /></sodipodi:namedview><defs
     id="defs1" /><g
     inkscape:label="Layer 1"
     inkscape:groupmode="layer"
     id="layer1"><g
       id="g2"
       transform="matrix(0.71428571,0,0,0.71428571,28.571429,457.14286)"><path
         style="fill:#000000;fill-opacity:0.555319;stroke:none;stroke-width:1px;stroke-linecap:butt;stroke-linejoin:miter;stroke-opacity:1"
         d="m 100,1370 c 50,60 202,244 602,244 300,0 798,-264 798,-714 C 1500,450 1002,186 702,186 402,186 240,354 240,354 V 202 l -140,-2 0,420 h 70 C 320,470 407.991,342.69865 660,340 c 349.9799,-3.74778 420,210 420,560 0,350 -70,560 -420,560 -350,0 -510,-174 -560,-224 z"
         id="path53405"
         sodipodi:nodetypes="cszscccccszscc" /><path
         id="path8529"
         style="fill:#000000;fill-opacity:0.555319;fill-rule:evenodd;stroke:none;stroke-width:1px;stroke-linecap:butt;stroke-linejoin:miter;stroke-opacity:1"
         d="m 520,620 h 70 c 99.9999,99.9999 145.00011,140 245.00001,140 H 1185 l 0,140 H 835.00001 C 735.00011,900 689.9999,940.0001 590,1040 h -70 z"
         sodipodi:nodetypes="ccsccsccc" /><path
         id="path53405-0"
         style="fill:#000000;fill-opacity:0.555319;stroke:none;stroke-width:1px;stroke-linecap:butt;stroke-linejoin:miter;stroke-opacity:1"
         d="M 702 186 C 402.0003 186 240 354 240 354 L 240 201.99883 L 100 200 L 100 620 L 170 620 C 319.99985 470.00015 407.99126 342.69865 660 340 C 960.38951 336.78326 1054.3034 494.13437 1074.9523 760 L 835 760 C 735.0002 760 689.9998 719.9998 590 620 L 520 620 L 520 1040 L 590 1040 C 689.9998 940.0002 735.0002 900 835 900 L 1080 900 C 1080 1249.9997 1009.9997 1460 660 1460 C 310.00035 1460 149.99995 1286 100 1236 L 100 1370.0008 C 149.99995 1430.0007 302.0004 1614 702 1614 C 1001.9997 1614 1500 1349.9996 1500 900 C 1500 450.00045 1001.9997 186 702 186 z " /></g></g></svg>
