<?xml version="1.0" encoding="UTF-8" standalone="no"?>
<!-- Created with Inkscape (http://www.inkscape.org/) -->

<svg
   width="2000"
   height="2000"
   viewBox="0 0 2000 2000"
   version="1.1"
   id="svg1"
   inkscape:version="1.3 (0e150ed6c4, 2023-07-21)"
   sodipodi:docname="1102_yu-small.svg"
   xml:space="preserve"
   xmlns:inkscape="http://www.inkscape.org/namespaces/inkscape"
   xmlns:sodipodi="http://sodipodi.sourceforge.net/DTD/sodipodi-0.dtd"
   xmlns="http://www.w3.org/2000/svg"
   xmlns:svg="http://www.w3.org/2000/svg"><sodipodi:namedview
     id="namedview1"
     pagecolor="#ffffff"
     bordercolor="#000000"
     borderopacity="0.25"
     inkscape:showpageshadow="2"
     inkscape:pageopacity="0.0"
     inkscape:pagecheckerboard="0"
     inkscape:deskcolor="#d1d1d1"
     inkscape:document-units="px"
     showgrid="true"
     inkscape:zoom="0.78606706"
     inkscape:cx="746.75562"
     inkscape:cy="849.16419"
     inkscape:window-width="2560"
     inkscape:window-height="1494"
     inkscape:window-x="-11"
     inkscape:window-y="-11"
     inkscape:window-maximized="1"
     inkscape:current-layer="layer1"
     showguides="false"><inkscape:grid
       id="grid1"
       units="px"
       originx="0"
       originy="0"
       spacingx="25"
       spacingy="25"
       empcolor="#0099e5"
       empopacity="0.30196078"
       color="#0099e5"
       opacity="0.14901961"
       empspacing="4"
       dotted="false"
       gridanglex="30"
       gridanglez="30"
       visible="true" /></sodipodi:namedview><defs
     id="defs1" /><g
     inkscape:label="Layer 1"
     inkscape:groupmode="layer"
     id="layer1"><path
       id="path124467"
       style="fill:#000000;fill-opacity:0.555319;stroke:none;stroke-width:1px;stroke-linecap:butt;stroke-linejoin:miter;stroke-opacity:1"
       d="m 1350,600 c -399.9996,0 -550,200.00033 -550,500 0,299.9997 157.24739,497.4557 550,500 392.7526,-2.5443 550,-200.0003 550,-500 0,-299.99967 -150.0004,-500 -550,-500 z m 0,100 c 149.9999,0 250,134.33314 250,400 0,265.6669 -100.0001,400 -250,400 -149.9998,0 -250,-134.3331 -250,-400 0,-265.66686 100.0002,-400 250,-400 z" /><path
       id="rect28838"
       style="opacity:0.52809;fill:#000000;fill-opacity:0.555319;fill-rule:evenodd;stroke:none;stroke-width:100;stroke-linecap:round;stroke-linejoin:round;stroke-miterlimit:4.5;stop-color:#000000"
       d="m 100,600 v 100 h 200 v 800 H 100 v 100 H 800 V 1500 H 600 V 700 H 800 V 600 Z"
       sodipodi:nodetypes="ccccccccccccc" /><rect
       style="opacity:0.453441;fill:#000000;fill-opacity:0.555319;fill-rule:evenodd"
       id="rect1"
       width="300"
       height="150"
       x="600"
       y="1025" /><path
       id="path124467-6"
       style="fill:#000000;fill-opacity:0.555319;stroke:none;stroke-width:1px;stroke-linecap:butt;stroke-linejoin:miter;stroke-opacity:1"
       d="M 100 600 L 100 700 L 300 700 L 300 1500 L 100 1500 L 100 1600 L 800 1600 L 800 1500 L 600 1500 L 600 1175 L 803.62695 1175 C 828.87447 1432.458 991.02155 1597.6745 1350 1600 C 1742.7522 1597.4557 1900 1399.9994 1900 1100 C 1900 800.00063 1749.9992 600 1350 600 C 984.37319 600 827.71174 767.16416 803.47266 1025 L 600 1025 L 600 700 L 800 700 L 800 600 L 100 600 z M 1350 700 C 1499.9998 700 1600 834.33341 1600 1100 C 1600 1365.6666 1499.9998 1500 1350 1500 C 1200.0003 1500 1100 1365.6666 1100 1100 C 1100 834.33341 1200.0003 700 1350 700 z " /></g></svg>
