<?xml version="1.0" encoding="UTF-8" standalone="no"?>
<!-- Created with Inkscape (http://www.inkscape.org/) -->

<svg
   width="2000"
   height="2000"
   viewBox="0 0 2000 2000"
   version="1.1"
   id="svg1"
   inkscape:version="1.3 (0e150ed6c4, 2023-07-21)"
   sodipodi:docname="1103_ya-small.svg"
   xml:space="preserve"
   xmlns:inkscape="http://www.inkscape.org/namespaces/inkscape"
   xmlns:sodipodi="http://sodipodi.sourceforge.net/DTD/sodipodi-0.dtd"
   xmlns="http://www.w3.org/2000/svg"
   xmlns:svg="http://www.w3.org/2000/svg"><sodipodi:namedview
     id="namedview1"
     pagecolor="#ffffff"
     bordercolor="#000000"
     borderopacity="0.25"
     inkscape:showpageshadow="2"
     inkscape:pageopacity="0.0"
     inkscape:pagecheckerboard="0"
     inkscape:deskcolor="#d1d1d1"
     inkscape:document-units="px"
     showgrid="true"
     inkscape:zoom="0.78606706"
     inkscape:cx="982.1045"
     inkscape:cy="916.58847"
     inkscape:window-width="2560"
     inkscape:window-height="1494"
     inkscape:window-x="-11"
     inkscape:window-y="-11"
     inkscape:window-maximized="1"
     inkscape:current-layer="g1"
     showguides="false"><inkscape:grid
       id="grid1"
       units="px"
       originx="0"
       originy="0"
       spacingx="25"
       spacingy="25"
       empcolor="#0099e5"
       empopacity="0.30196078"
       color="#0099e5"
       opacity="0.14901961"
       empspacing="4"
       dotted="false"
       gridanglex="30"
       gridanglez="30"
       visible="true" /></sodipodi:namedview><defs
     id="defs1" /><g
     inkscape:label="Layer 1"
     inkscape:groupmode="layer"
     id="layer1"><g
       inkscape:label="Layer 1"
       id="layer1-3"
       transform="translate(1800,-400)"><g
         id="g1"
         transform="matrix(0.71428571,0,0,0.71428571,-485.71429,571.42857)"><path
           style="fill:#000000;fill-opacity:0.555319;stroke:none;stroke-width:1px;stroke-linecap:butt;stroke-linejoin:miter;stroke-opacity:1"
           d="m -1700,2000 h 100 c 250,0 360,-10 460,-210 l 140,-280 c 37.9708,-75.9416 55.53175,-110 200,-110 h 100 v -100 c -56.4869,0 -58.8061,-0.3994 -175,0 -332.7532,1.1437 -412.6579,85.3158 -475,210 l -140,280 c -35,70 -136.1357,70 -210,70 z"
           id="path69743-7"
           sodipodi:nodetypes="cssssccssscc" /><path
           id="path48264-2"
           style="fill:#000000;fill-opacity:0.555319;fill-rule:evenodd;stroke:none;stroke-width:1px;stroke-linecap:butt;stroke-linejoin:miter;stroke-opacity:1"
           d="m -1070,1400 c -250,0 -485.5022,-120.7346 -490,-380 -4.4978,-259.26536 240,-419.99999 490,-419.99999 l 1190.00001,0 v 140 l -280,10e-6 V 1860 h 280 v 140 H -860 v -140 l 280,0 v -460 z m 490,-659.99999 h -350 c -120,0 -210,120.00001 -210,279.99999 0,160 90,280 210,280 h 350 z"
           sodipodi:nodetypes="czsccccccccccccszscc" /><path
           id="path69743-7-1"
           style="fill:#000000;fill-opacity:0.555319;stroke:none;stroke-width:1px;stroke-linecap:butt;stroke-linejoin:miter;stroke-opacity:1"
           d="M -1070 600.00001 C -1319.9998 600.00001 -1564.4978 760.73492 -1560 1020 C -1556.5909 1216.5097 -1420.3896 1333.2737 -1245.8367 1378.3645 C -1294.9263 1413.1732 -1324.0255 1458.0509 -1350 1510 L -1490 1790 C -1525 1859.9999 -1626.1358 1860 -1700 1860 L -1700 2000 L -1600.0012 2000 C -1350.0014 2000 -1239.9999 1989.9998 -1140 1790 L -1000 1510 C -962.02924 1434.0585 -944.46771 1399.9988 -799.99961 1399.9988 L -700.00078 1399.9988 L -580 1399.9988 L -580 1860 L -860 1860 L -860 2000 L 120.00001 2000 L 120.00001 1860 L -159.99999 1860 L -159.99999 740.00001 L 120.00001 740.00001 L 120.00001 600.00001 L -1070 600.00001 z M -930 740.00001 L -580 740.00001 L -580 1300 L -700.00078 1300 L -875.00078 1300 L -930 1300 C -1049.9999 1300 -1140 1179.9998 -1140 1020 C -1140 860.0002 -1049.9999 740.00001 -930 740.00001 z " /></g></g></g></svg>
