<?xml version="1.0" encoding="UTF-8" standalone="no"?>
<!-- Created with Inkscape (http://www.inkscape.org/) -->

<svg
   width="2000"
   height="2000"
   viewBox="0 0 2000 2000"
   version="1.1"
   id="svg1"
   inkscape:version="1.2.2 (732a01da63, 2022-12-09)"
   sodipodi:docname="1108_ukr-ie-small.svg"
   xml:space="preserve"
   xmlns:inkscape="http://www.inkscape.org/namespaces/inkscape"
   xmlns:sodipodi="http://sodipodi.sourceforge.net/DTD/sodipodi-0.dtd"
   xmlns="http://www.w3.org/2000/svg"
   xmlns:svg="http://www.w3.org/2000/svg"><sodipodi:namedview
     id="namedview1"
     pagecolor="#ffffff"
     bordercolor="#000000"
     borderopacity="0.25"
     inkscape:showpageshadow="2"
     inkscape:pageopacity="0.0"
     inkscape:pagecheckerboard="0"
     inkscape:deskcolor="#d1d1d1"
     inkscape:document-units="px"
     showgrid="true"
     inkscape:zoom="1.1116667"
     inkscape:cx="529.38529"
     inkscape:cy="1057.871"
     inkscape:window-width="3840"
     inkscape:window-height="2066"
     inkscape:window-x="5749"
     inkscape:window-y="-11"
     inkscape:window-maximized="1"
     inkscape:current-layer="g2"
     showguides="false"><inkscape:grid
       id="grid1"
       units="px"
       originx="0"
       originy="0"
       spacingx="25"
       spacingy="25"
       empcolor="#0099e5"
       empopacity="0.30196078"
       color="#0099e5"
       opacity="0.14901961"
       empspacing="4"
       dotted="false"
       gridanglex="30"
       gridanglez="30"
       visible="true" /></sodipodi:namedview><defs
     id="defs1" /><g
     inkscape:label="Layer 1"
     inkscape:groupmode="layer"
     id="layer1"><g
       id="g2"
       transform="matrix(0.71428571,0,0,0.71428571,28.571429,457.14286)"><path
         style="fill:#000000;fill-opacity:0.555319;stroke:none;stroke-width:1px;stroke-linecap:butt;stroke-linejoin:miter;stroke-opacity:1"
         d="m 1500,1370 c -50,60 -202,244 -601.99999,244 -300,0 -798,-264 -798,-714 0,-450 498,-714 798,-714 C 1198,186 1360,354 1360,354 V 202 l 140,-2 v 420 h -70 C 1280,470 1192.009,342.69865 940.00001,340 c -349.9799,-3.74778 -420,210 -420,560 0,350 70,560 420,560 C 1290,1460 1450,1286 1500,1236 Z"
         id="path53405"
         sodipodi:nodetypes="cszscccccszscc" /><path
         id="path8529"
         style="fill:#000000;fill-opacity:0.555319;fill-rule:evenodd;stroke:none;stroke-width:1px;stroke-linecap:butt;stroke-linejoin:miter;stroke-opacity:1"
         d="m 1080,620 h -70 C 910.00011,719.9999 864.9999,760 765,760 H 415.00001 V 900 H 765 c 99.9999,0 145.00011,40.0001 245,140 h 70 z"
         sodipodi:nodetypes="ccsccsccc" /><path
         id="path53405-0"
         style="fill:#000000;fill-opacity:0.555319;stroke:none;stroke-width:1px;stroke-linecap:butt;stroke-linejoin:miter;stroke-opacity:1"
         d="M 898.00001,186 C 1197.9997,186 1360,354 1360,354 V 201.99883 L 1500,200 v 420 h -70 C 1280.0002,470.00015 1192.0087,342.69865 940.00001,340 639.6105,336.78326 545.69661,494.13437 525.04771,760 h 239.9523 C 864.99981,760 910.00021,719.9998 1010,620 h 70 v 420 h -70 C 910.00021,940.0002 864.99981,900 765.00001,900 h -245 c 0,349.9997 70.0003,560 420,560 349.99969,0 510.00009,-174 559.99999,-224 v 134.0008 C 1450.0001,1430.0007 1297.9996,1614 898.00001,1614 c -299.9997,0 -798,-264.0004 -798,-714 0,-449.99955 498.0003,-714 798,-714 z" /></g></g></svg>
