<?xml version="1.0" encoding="UTF-8" standalone="no"?>
<!-- Created with Inkscape (http://www.inkscape.org/) -->

<svg
   width="2000"
   height="2000"
   viewBox="0 0 2000 2000"
   version="1.1"
   id="svg1"
   inkscape:version="1.2.2 (732a01da63, 2022-12-09)"
   sodipodi:docname="ascii_115_s.svg"
   xml:space="preserve"
   xmlns:inkscape="http://www.inkscape.org/namespaces/inkscape"
   xmlns:sodipodi="http://sodipodi.sourceforge.net/DTD/sodipodi-0.dtd"
   xmlns="http://www.w3.org/2000/svg"
   xmlns:svg="http://www.w3.org/2000/svg"><sodipodi:namedview
     id="namedview1"
     pagecolor="#ffffff"
     bordercolor="#000000"
     borderopacity="0.25"
     inkscape:showpageshadow="2"
     inkscape:pageopacity="0.0"
     inkscape:pagecheckerboard="0"
     inkscape:deskcolor="#d1d1d1"
     inkscape:document-units="px"
     showgrid="true"
     inkscape:zoom="0.39303353"
     inkscape:cx="-685.69213"
     inkscape:cy="821.81283"
     inkscape:window-width="3840"
     inkscape:window-height="2066"
     inkscape:window-x="-11"
     inkscape:window-y="-11"
     inkscape:window-maximized="1"
     inkscape:current-layer="layer1"
     showguides="false"><inkscape:grid
       id="grid1"
       units="px"
       originx="0"
       originy="0"
       spacingx="10"
       spacingy="10"
       empcolor="#0099e5"
       empopacity="0.30196078"
       color="#0099e5"
       opacity="0.14901961"
       empspacing="10"
       dotted="false"
       gridanglex="30"
       gridanglez="30"
       visible="true" /></sodipodi:namedview><defs
     id="defs1" /><g
     inkscape:label="Layer 1"
     inkscape:groupmode="layer"
     id="layer1"><path
       style="fill:#000000;fill-opacity:0.555319;stroke:none;stroke-width:0.733958px;stroke-linecap:butt;stroke-linejoin:miter;stroke-opacity:1"
       d="M 200,1200 H 100 v 400 h 100 v -180 c 0,0 200,190 400,190 260,0 500,-160 500,-310 0,-150 -137.79649,-193.2257 -390,-260 -307.69095,-81.46535 -310,-80 -310,-240 0,-55.42703 20,-100 200,-100 220,0 312.41119,149.7673 350,185.59539 l 52.1314,0.67719 V 599.64786 H 900 V 700 c 0,0 -80,-100 -300,-100 -290,0 -500,156.68764 -500,300 0,157.6436 144.88631,191.7642 350,250 353.3348,100.3187 350,100 350,250 0,71.6562 -31.84605,99.1004 -200,100 -187.94135,1.0054 -354.89343,-164.1719 -400,-200 z"
       id="path73468"
       sodipodi:nodetypes="cccccssssscccccssssscc" /></g></svg>
