<?xml version="1.0" encoding="UTF-8" standalone="no"?>
<!-- Created with Inkscape (http://www.inkscape.org/) -->

<svg
   width="2000"
   height="2000"
   viewBox="0 0 2000 2000"
   version="1.1"
   id="svg1"
   inkscape:version="1.3 (0e150ed6c4, 2023-07-21)"
   sodipodi:docname="1113_lje-small.svg"
   xml:space="preserve"
   xmlns:inkscape="http://www.inkscape.org/namespaces/inkscape"
   xmlns:sodipodi="http://sodipodi.sourceforge.net/DTD/sodipodi-0.dtd"
   xmlns="http://www.w3.org/2000/svg"
   xmlns:svg="http://www.w3.org/2000/svg"><sodipodi:namedview
     id="namedview1"
     pagecolor="#ffffff"
     bordercolor="#000000"
     borderopacity="0.25"
     inkscape:showpageshadow="2"
     inkscape:pageopacity="0.0"
     inkscape:pagecheckerboard="0"
     inkscape:deskcolor="#d1d1d1"
     inkscape:document-units="px"
     showgrid="true"
     inkscape:zoom="0.78606706"
     inkscape:cx="848.52811"
     inkscape:cy="1028.5382"
     inkscape:window-width="2560"
     inkscape:window-height="1494"
     inkscape:window-x="-11"
     inkscape:window-y="-11"
     inkscape:window-maximized="1"
     inkscape:current-layer="layer1"
     showguides="false"><inkscape:grid
       id="grid1"
       units="px"
       originx="0"
       originy="0"
       spacingx="25"
       spacingy="25"
       empcolor="#0099e5"
       empopacity="0.30196078"
       color="#0099e5"
       opacity="0.14901961"
       empspacing="4"
       dotted="false"
       gridanglex="30"
       gridanglez="30"
       visible="true" /></sodipodi:namedview><defs
     id="defs1" /><g
     inkscape:label="Layer 1"
     inkscape:groupmode="layer"
     id="layer1"><path
       id="path8529"
       style="fill:#000000;fill-opacity:0.555319;fill-rule:evenodd;stroke:none;stroke-width:0.714286px;stroke-linecap:butt;stroke-linejoin:miter;stroke-opacity:1"
       d="m 800,700 h 200 v 800 H 800 v 100 h 785.7143 C 1764.2852,1600 2000,1525 2000,1300 c 0,-225 -235.7148,-300 -414.2857,-300 H 1300 V 700 h 200 V 600 H 800 Z m 500,800 v -400 h 250 c 85.7141,0 150,85.7147 150,200 0,114.2853 -64.2859,200 -150,200 z"
       sodipodi:nodetypes="ccccccssccccccccsscc" /><path
       id="path22183-9"
       style="fill:#000000;fill-opacity:0.555319;stroke:none;stroke-width:0.714288px;stroke-linecap:butt;stroke-linejoin:miter;stroke-opacity:1"
       d="m 1000.0005,700 0,800 H 800.00054 l 1.42857,100.006 H 1501.4291 L 1500.0005,1500 H 1300 V 700 h 200.0005 l 1.4286,-100 H 300.00054 l -1.4286,100 z"
       sodipodi:nodetypes="ccccccccccccc" /><path
       id="path124467-3-3"
       style="fill:#000000;fill-opacity:0.555319;stroke:none;stroke-width:0.714286px;stroke-linecap:butt;stroke-linejoin:miter;stroke-opacity:1"
       d="m 300.00054,1600 c 178.5713,0 213.52393,-51.2385 250.7143,-200 l 150,-600 c 12.5,-50 29.2859,-100 154.2857,-100 h 125 l -1.4286,-99.87328 c -40.3477,0 -42.0044,-0.28528 -125,0 C 615.89134,600.94365 587.32196,650 550.00054,800 l -149.2857,600 c -25.08372,100.815 -47.23986,100 -100,100 0,0 25,-21.4286 25,-75 0,-50 -53.5715,-75 -125,-75 -71.4285,0 -100,46.4286 -100,100 0,70.6759 74.28584,150 199.2857,150 z"
       sodipodi:nodetypes="ssssccssscssss" /><path
       id="path8529-6"
       style="fill:#000000;fill-opacity:0.555319;fill-rule:evenodd;stroke:none;stroke-width:0.714286px;stroke-linecap:butt;stroke-linejoin:miter;stroke-opacity:1"
       d="M 300 600 L 298.57227 700 L 582.61328 700 C 569.58651 726.77636 560.046 759.62372 550 800 L 400.71484 1400 C 375.63115 1500.8149 353.47493 1500 300.71484 1500 C 300.71484 1500 325.71484 1478.5713 325.71484 1425 C 325.71484 1375.0001 272.14327 1350 200.71484 1350 C 129.28642 1350 100.71484 1396.4287 100.71484 1450 C 100.71484 1520.6758 175.00026 1600 300 1600 C 478.57112 1600 513.52451 1548.7614 550.71484 1400 L 700.71484 800 C 713.21483 750.00005 730.00032 700 855 700 L 1000 700 L 1000 1500 L 800 1500 L 800 1600 L 801.42969 1600 L 801.42969 1600.0059 L 1501.4297 1600.0059 L 1501.4297 1600 L 1585.7148 1600 C 1764.2856 1600 2000 1524.9998 2000 1300 C 2000 1075.0002 1764.2856 1000 1585.7148 1000 L 1300 1000 L 1300 700 L 1500 700 L 1501.4297 600 L 1500 600 L 800 600 L 300 600 z M 1300 1100 L 1550 1100 C 1635.714 1100 1700 1185.7148 1700 1300 C 1700 1414.2852 1635.714 1500 1550 1500 L 1500 1500 L 1300 1500 L 1300 1100 z " /></g></svg>
