<?xml version="1.0" encoding="UTF-8" standalone="no"?>
<!-- Created with Inkscape (http://www.inkscape.org/) -->

<svg
   width="1200"
   height="1200"
   viewBox="0 0 1200 1200"
   version="1.1"
   id="svg1"
   inkscape:version="1.2.1 (9c6d41e410, 2022-07-14)"
   sodipodi:docname="665_B-smallcaps.svg"
   xml:space="preserve"
   xmlns:inkscape="http://www.inkscape.org/namespaces/inkscape"
   xmlns:sodipodi="http://sodipodi.sourceforge.net/DTD/sodipodi-0.dtd"
   xmlns="http://www.w3.org/2000/svg"
   xmlns:svg="http://www.w3.org/2000/svg"><sodipodi:namedview
     id="namedview1"
     pagecolor="#ffffff"
     bordercolor="#000000"
     borderopacity="0.25"
     inkscape:showpageshadow="2"
     inkscape:pageopacity="0.0"
     inkscape:pagecheckerboard="0"
     inkscape:deskcolor="#d1d1d1"
     inkscape:document-units="px"
     showgrid="true"
     inkscape:zoom="0.55583335"
     inkscape:cx="259.97001"
     inkscape:cy="799.70013"
     inkscape:window-width="1080"
     inkscape:window-height="1394"
     inkscape:window-x="2128"
     inkscape:window-y="0"
     inkscape:window-maximized="0"
     inkscape:current-layer="layer1"
     showguides="false"><inkscape:grid
       id="grid1"
       units="px"
       originx="0"
       originy="0"
       spacingx="25"
       spacingy="25"
       empcolor="#0099e5"
       empopacity="0.30196078"
       color="#0099e5"
       opacity="0.14901961"
       empspacing="4"
       dotted="false"
       gridanglex="30"
       gridanglez="30"
       visible="true" /></sodipodi:namedview><defs
     id="defs1" /><g
     inkscape:label="Layer 1"
     inkscape:groupmode="layer"
     id="layer1"><path
       id="path2-8-6"
       style="fill:#000000;fill-opacity:0.555319;fill-rule:evenodd;stroke-width:0.999873"
       d="m 499.99998,650 c 50,-25 75,-43.76371 75,-100 0,-82.18972 -50.0002,-150 -225,-150 H 200 3e-6 v 600 H 200 349.99998 c 174.9998,0 250,-100 250,-200 0,-59.77979 -46.1434,-133.6563 -100,-150 z M 200,500 h 75 c 48.28475,0 97.43628,0.0658 99.99998,50 2.5443,49.55683 -50.00003,50 -99.99998,50 H 200 Z M 300,900 H 200 V 700 h 100 c 48.28478,0 99.99998,25.00008 99.99998,100 0,74.99994 -50,100 -99.99998,100 z"
       sodipodi:nodetypes="cssccccssccsssccsccsss" /></g></svg>
