<?xml version="1.0" encoding="UTF-8" standalone="no"?>
<!-- Created with Inkscape (http://www.inkscape.org/) -->

<svg
   width="2000"
   height="2000"
   viewBox="0 0 2000 2000"
   version="1.1"
   id="svg1"
   inkscape:version="1.2.2 (732a01da63, 2022-12-09)"
   sodipodi:docname="916_delta-capital.svg"
   xml:space="preserve"
   xmlns:inkscape="http://www.inkscape.org/namespaces/inkscape"
   xmlns:sodipodi="http://sodipodi.sourceforge.net/DTD/sodipodi-0.dtd"
   xmlns="http://www.w3.org/2000/svg"
   xmlns:svg="http://www.w3.org/2000/svg"><sodipodi:namedview
     id="namedview1"
     pagecolor="#ffffff"
     bordercolor="#000000"
     borderopacity="0.25"
     inkscape:showpageshadow="2"
     inkscape:pageopacity="0.0"
     inkscape:pagecheckerboard="0"
     inkscape:deskcolor="#d1d1d1"
     inkscape:document-units="px"
     showgrid="true"
     inkscape:zoom="0.55371508"
     inkscape:cx="887.64063"
     inkscape:cy="1500.7718"
     inkscape:window-width="1920"
     inkscape:window-height="2066"
     inkscape:window-x="0"
     inkscape:window-y="0"
     inkscape:window-maximized="0"
     inkscape:current-layer="layer1"
     showguides="true"><inkscape:grid
       id="grid1"
       units="px"
       originx="0"
       originy="0"
       spacingx="25"
       spacingy="25"
       empcolor="#0099e5"
       empopacity="0.30196078"
       color="#0099e5"
       opacity="0.14901961"
       empspacing="4"
       dotted="false"
       gridanglex="30"
       gridanglez="30"
       visible="true" /></sodipodi:namedview><defs
     id="defs1" /><g
     inkscape:label="Layer 1"
     inkscape:groupmode="layer"
     id="layer1"><path
       id="path124467-4"
       style="fill:#000000;fill-opacity:0.555319;stroke:none;stroke-width:1px;stroke-linecap:butt;stroke-linejoin:miter;stroke-opacity:1"
       d="m 650,600 c -399.9996,0 -550,200.00033 -550,500 0,299.9997 157.24739,497.4557 550,500 392.7526,-2.5443 550,-200.0003 550,-500 0,-299.99967 -150.0004,-500 -550,-500 z m 0,100 c 149.9998,0 250,134.33314 250,400 0,265.6669 -100.0002,400 -250,400 -149.99985,0 -250,-134.3331 -250,-400 0,-265.66686 100.00015,-400 250,-400 z" /><path
       id="path124467"
       style="fill:#000000;fill-opacity:0.555319;stroke:none;stroke-width:1px;stroke-linecap:butt;stroke-linejoin:miter;stroke-opacity:1"
       d="M 650,600 C 554.17949,596.38803 500,575 500,450 500,325 600,300 750,300 c 150,0 215.8746,10.26149 275,25 0,0 -120,-9.99988 -120,105 0,49.99995 32.2161,100 150,100 74.9999,0 145,-30.0001 145,-130 0,-150 -225.0002,-200 -450,-200 -300,0 -550,50 -550,250 0,200 200.00028,250 450,250"
       sodipodi:nodetypes="csscsssssc" /><path
       id="path124467-4-2"
       style="fill:#000000;fill-opacity:0.555319;stroke:none;stroke-width:1px;stroke-linecap:butt;stroke-linejoin:miter;stroke-opacity:1"
       d="M 750 200 C 450.0003 200 200 250.0002 200 450 C 200 555.37623 255.56405 619.07736 344.66602 655.79883 C 170.76721 735.10512 100 893.96327 100 1100 C 100 1399.9994 257.24778 1597.4557 650 1600 C 1042.7522 1597.4557 1200 1399.9994 1200 1100 C 1200 800.00063 1049.9992 600 650 600 C 554.17959 596.38803 500 574.99987 500 450 C 500 325.00013 600.00015 300 750 300 C 899.99985 300 965.87466 310.2615 1025 325 C 1025 325 905 315.00023 905 430 C 905 479.9999 937.21622 530 1055 530 C 1129.9998 530 1200 499.9998 1200 400 C 1200 250.00015 974.99958 200 750 200 z M 650 700 C 799.99965 700 900 834.33341 900 1100 C 900 1365.6666 799.99965 1500 650 1500 C 500.0003 1500 400 1365.6666 400 1100 C 400 834.33341 500.0003 700 650 700 z " /></g></svg>
