<?xml version="1.0" encoding="UTF-8" standalone="no"?>
<!-- Created with Inkscape (http://www.inkscape.org/) -->

<svg
   width="2000"
   height="2000"
   viewBox="0 0 2000 2000"
   version="1.1"
   id="svg1"
   inkscape:version="1.3 (0e150ed6c4, 2023-07-21)"
   sodipodi:docname="936_psi-capital.svg"
   xml:space="preserve"
   xmlns:inkscape="http://www.inkscape.org/namespaces/inkscape"
   xmlns:sodipodi="http://sodipodi.sourceforge.net/DTD/sodipodi-0.dtd"
   xmlns="http://www.w3.org/2000/svg"
   xmlns:svg="http://www.w3.org/2000/svg"><sodipodi:namedview
     id="namedview1"
     pagecolor="#ffffff"
     bordercolor="#000000"
     borderopacity="0.25"
     inkscape:showpageshadow="2"
     inkscape:pageopacity="0.0"
     inkscape:pagecheckerboard="0"
     inkscape:deskcolor="#d1d1d1"
     inkscape:document-units="px"
     showgrid="true"
     inkscape:zoom="0.78606706"
     inkscape:cx="929.9461"
     inkscape:cy="863.15791"
     inkscape:window-width="2560"
     inkscape:window-height="1494"
     inkscape:window-x="-11"
     inkscape:window-y="-11"
     inkscape:window-maximized="1"
     inkscape:current-layer="layer1"
     showguides="false"><inkscape:grid
       id="grid1"
       units="px"
       originx="0"
       originy="0"
       spacingx="10"
       spacingy="10"
       empcolor="#0099e5"
       empopacity="0.30196078"
       color="#0099e5"
       opacity="0.14901961"
       empspacing="10"
       dotted="false"
       gridanglex="30"
       gridanglez="30"
       visible="true" /></sodipodi:namedview><defs
     id="defs1" /><g
     inkscape:label="Layer 1"
     inkscape:groupmode="layer"
     id="layer1"><path
       id="rect28838"
       style="opacity:0.52809;fill:#000000;fill-opacity:0.555319;fill-rule:evenodd;stroke:none;stroke-width:100;stroke-linecap:round;stroke-linejoin:round;stroke-miterlimit:4.5;stop-color:#000000"
       d="M 600,200 V 300 H 900 V 1500 H 600 v 100 h 900 V 1500 H 1200 V 300 h 300 V 200 Z" /><path
       style="fill:#000000;fill-opacity:0.555319;stroke:none;stroke-width:1px;stroke-linecap:butt;stroke-linejoin:miter;stroke-opacity:1"
       d="m 2000,200 h -300 c -90,0 -201.1538,100.0033 -200,300 0.8996,155.922 -50,300 -200,300 v 100 c 150,0 500,-60 500,-400 0,-200 100,-200 200,-200 z"
       id="path69743"
       sodipodi:nodetypes="cssccscc" /><path
       style="fill:#000000;fill-opacity:0.555319;stroke:none;stroke-width:1px;stroke-linecap:butt;stroke-linejoin:miter;stroke-opacity:1"
       d="m 100,200 h 300 c 90,0 201.1538,100.0033 200,300 -0.8996,155.922 50,300 200,300 V 900 C 650,900 300,840 300,500 300,300 200,300 100,300 Z"
       id="path69743-8"
       sodipodi:nodetypes="cssccscc" /><rect
       style="fill:#000000;fill-opacity:0.555319;fill-rule:evenodd"
       id="rect1"
       width="500"
       height="100"
       x="800"
       y="800" /><path
       id="rect28838-4"
       style="opacity:0.52809;fill:#000000;fill-opacity:0.555319;fill-rule:evenodd;stroke:none;stroke-width:100;stroke-linecap:round;stroke-linejoin:round;stroke-miterlimit:4.5;stop-color:#000000"
       d="M 100 200 L 100 300 C 199.9999 300 300 300.0002 300 500 C 300 839.99966 650.00015 900 800 900 L 900 900 L 900 1500 L 600 1500 L 600 1600 L 1500 1600 L 1500 1500 L 1200 1500 L 1200 900 L 1300 900 C 1449.9998 900 1800 839.99966 1800 500 C 1800 300.0002 1900.0001 300 2000 300 L 2000 200 L 1700 200 C 1610.0001 200 1498.8462 300.0035 1500 500 C 1500.8996 655.92184 1449.9999 800 1300 800 L 1200 800 L 1200 300 L 1500 300 L 1500 200 L 600 200 L 600 300 L 900 300 L 900 800 L 800 800 C 650.00015 800 599.1004 655.92184 600 500 C 601.1538 300.0035 489.99991 200 400 200 L 100 200 z " /></g></svg>
