<?xml version="1.0" encoding="UTF-8" standalone="no"?>
<!-- Created with Inkscape (http://www.inkscape.org/) -->

<svg
   width="2000"
   height="2000"
   viewBox="0 0 2000 2000"
   version="1.1"
   id="svg1"
   inkscape:version="1.3 (0e150ed6c4, 2023-07-21)"
   sodipodi:docname="937_omega-capital.svg"
   xml:space="preserve"
   xmlns:inkscape="http://www.inkscape.org/namespaces/inkscape"
   xmlns:sodipodi="http://sodipodi.sourceforge.net/DTD/sodipodi-0.dtd"
   xmlns="http://www.w3.org/2000/svg"
   xmlns:svg="http://www.w3.org/2000/svg"><sodipodi:namedview
     id="namedview1"
     pagecolor="#ffffff"
     bordercolor="#000000"
     borderopacity="0.25"
     inkscape:showpageshadow="2"
     inkscape:pageopacity="0.0"
     inkscape:pagecheckerboard="0"
     inkscape:deskcolor="#d1d1d1"
     inkscape:document-units="px"
     showgrid="true"
     inkscape:zoom="0.39303353"
     inkscape:cx="1501.1442"
     inkscape:cy="1303.96"
     inkscape:window-width="2560"
     inkscape:window-height="1494"
     inkscape:window-x="-11"
     inkscape:window-y="-11"
     inkscape:window-maximized="1"
     inkscape:current-layer="layer1"
     showguides="false"><inkscape:grid
       id="grid1"
       units="px"
       originx="0"
       originy="0"
       spacingx="10"
       spacingy="10"
       empcolor="#0099e5"
       empopacity="0.30196078"
       color="#0099e5"
       opacity="0.14901961"
       empspacing="10"
       dotted="false"
       gridanglex="30"
       gridanglez="30"
       visible="true" /></sodipodi:namedview><defs
     id="defs1" /><g
     inkscape:label="Layer 1"
     inkscape:groupmode="layer"
     id="layer1"><path
       id="path8529-4-3"
       style="fill:#000000;fill-opacity:0.555319;fill-rule:evenodd;stroke:none;stroke-width:1px;stroke-linecap:butt;stroke-linejoin:miter;stroke-opacity:1"
       d="m 800,1350 v 250 H 100 v -400 h 50 c 199.9996,199.9996 350,300 450,300 v -300 z"
       sodipodi:nodetypes="cccccccc" /><path
       id="path48264"
       style="fill:#000000;fill-opacity:0.555319;fill-rule:evenodd;stroke:none;stroke-width:0.94571px;stroke-linecap:butt;stroke-linejoin:miter;stroke-opacity:1"
       d="M 1000 190 C 550.37576 191.40792 200 511.97234 200 825 C 200 1089.7828 450.45292 1360.9134 800 1438.2148 L 800 1309.209 C 652.97351 1218.2104 600 1021.6763 600 825 C 600 556.69056 700.0006 288.37891 1000 288.37891 C 1299.9994 288.37891 1400 556.69056 1400 825 C 1400 1021.6762 1347.0265 1218.2104 1200 1309.209 L 1200 1438.2148 C 1549.5471 1360.9134 1800 1089.7828 1800 825 C 1800 511.97234 1449.6243 188.59208 1000 190 z " /><path
       id="path8529-4-3-1"
       style="fill:#000000;fill-opacity:0.555319;fill-rule:evenodd;stroke:none;stroke-width:1px;stroke-linecap:butt;stroke-linejoin:miter;stroke-opacity:1"
       d="m 1200,1350 v 250 h 700 v -400 h -50 c -199.9996,199.9996 -350,300 -450,300 v -300 z"
       sodipodi:nodetypes="cccccccc" /><path
       id="path8529-4-3-19"
       style="fill:#000000;fill-opacity:0.555319;fill-rule:evenodd;stroke:none;stroke-width:1px;stroke-linecap:butt;stroke-linejoin:miter;stroke-opacity:1"
       d="M 1000 190 C 550.37621 191.40792 200 511.97265 200 825 C 200 1035.8169 358.86109 1250.5468 600 1368.3789 L 600 1500 C 500.0001 1500 349.9994 1399.9994 150 1200 L 100 1200 L 100 1600 L 800 1600 L 800 1438.2148 L 800 1350 L 800 1309.209 C 652.97366 1218.2105 600 1021.6761 600 825 C 600 556.69083 700.0009 288.37891 1000 288.37891 C 1299.9991 288.37891 1400 556.69083 1400 825 C 1400 1021.676 1347.0264 1218.2105 1200 1309.209 L 1200 1438.2148 L 1200 1600 L 1900 1600 L 1900 1200 L 1850 1200 C 1650.0006 1399.9994 1499.9999 1500 1400 1500 L 1400 1368.3789 C 1641.1389 1250.5468 1800 1035.8169 1800 825 C 1800 511.97265 1449.6239 188.59208 1000 190 z " /></g></svg>
