<?xml version="1.0" encoding="UTF-8" standalone="no"?>
<!-- Created with Inkscape (http://www.inkscape.org/) -->

<svg
   width="2000"
   height="2000"
   viewBox="0 0 2000 2000"
   version="1.1"
   id="svg1"
   inkscape:version="1.2.2 (732a01da63, 2022-12-09)"
   sodipodi:docname="945_alpha-small.svg"
   xml:space="preserve"
   xmlns:inkscape="http://www.inkscape.org/namespaces/inkscape"
   xmlns:sodipodi="http://sodipodi.sourceforge.net/DTD/sodipodi-0.dtd"
   xmlns="http://www.w3.org/2000/svg"
   xmlns:svg="http://www.w3.org/2000/svg"><sodipodi:namedview
     id="namedview1"
     pagecolor="#ffffff"
     bordercolor="#000000"
     borderopacity="0.25"
     inkscape:showpageshadow="2"
     inkscape:pageopacity="0.0"
     inkscape:pagecheckerboard="0"
     inkscape:deskcolor="#d1d1d1"
     inkscape:document-units="px"
     showgrid="true"
     inkscape:zoom="0.55371508"
     inkscape:cx="887.64063"
     inkscape:cy="1500.7718"
     inkscape:window-width="1920"
     inkscape:window-height="2066"
     inkscape:window-x="0"
     inkscape:window-y="0"
     inkscape:window-maximized="0"
     inkscape:current-layer="layer1"
     showguides="true"><inkscape:grid
       id="grid1"
       units="px"
       originx="0"
       originy="0"
       spacingx="25"
       spacingy="25"
       empcolor="#0099e5"
       empopacity="0.30196078"
       color="#0099e5"
       opacity="0.14901961"
       empspacing="4"
       dotted="false"
       gridanglex="30"
       gridanglez="30"
       visible="true" /></sodipodi:namedview><defs
     id="defs1" /><g
     inkscape:label="Layer 1"
     inkscape:groupmode="layer"
     id="layer1"><path
       id="path124467"
       style="fill:#000000;fill-opacity:0.555319;stroke:none;stroke-width:1px;stroke-linecap:butt;stroke-linejoin:miter;stroke-opacity:1"
       d="M 900,1100 C 853.24465,912.97861 799.9999,700 650,700 c -149.9998,0 -250,134.33315 -250,400.0001 0,265.6668 100.0002,400 250,400 149.9999,0 298.24226,-192.9692 350,-400.0001 l 50,-200 c 27.1163,-108.46516 100,-300 250,-300 v 100 c -31.6897,-1.80598 -61.9018,47.60701 -100,200 l -50,200 c -54.2326,216.9305 -225.002,501.0479 -500,500.0001 -392.758,-1.4964 -550,-200.0003 -550,-500 C 100,800.00035 250.0004,600 650,600 c 399.9996,0 445.7674,283.06954 500,500 l 25,100 c 38.0982,152.393 93.3103,201.806 125,200 v 200 c -150,0 -297.8837,-91.5349 -325,-200 z"
       sodipodi:nodetypes="ssssssccsssssssccss" /><path
       id="path124467-6"
       style="fill:#000000;fill-opacity:0.555319;stroke:none;stroke-width:1px;stroke-linecap:butt;stroke-linejoin:miter;stroke-opacity:1"
       d="M 650 600 C 250.0008 600 100 800.00056 100 1100 C 100 1399.9994 257.24239 1598.5036 650 1600 C 788.95846 1600.5295 901.25847 1528.203 985.40234 1428.5684 C 1028.8966 1524.0343 1163.413 1600 1300 1600 L 1300 1400 C 1268.3103 1401.806 1213.0982 1352.3928 1175 1200 L 1150 1100 L 1200 900 C 1238.0982 747.60716 1268.3103 698.19402 1300 700 L 1300 600 C 1176.3057 600 1105.1452 730.17616 1068.752 836.68164 C 1006.0374 705.33039 893.93937 600 650 600 z M 650 700 C 799.99975 700 853.2447 912.97881 900 1100 L 939.73047 1258.9258 C 868.98083 1395.9994 760.04335 1500 650 1500 C 500.00035 1500 400 1365.6665 400 1100 C 400 834.33333 500.00035 700 650 700 z " /></g></svg>
