<?xml version="1.0" encoding="UTF-8" standalone="no"?>
<!-- Created with Inkscape (http://www.inkscape.org/) -->

<svg
   width="2000"
   height="2000"
   viewBox="0 0 2000 2000"
   version="1.1"
   id="svg1"
   inkscape:version="1.3 (0e150ed6c4, 2023-07-21)"
   sodipodi:docname="946_beta-small.svg"
   xml:space="preserve"
   xmlns:inkscape="http://www.inkscape.org/namespaces/inkscape"
   xmlns:sodipodi="http://sodipodi.sourceforge.net/DTD/sodipodi-0.dtd"
   xmlns="http://www.w3.org/2000/svg"
   xmlns:svg="http://www.w3.org/2000/svg"><sodipodi:namedview
     id="namedview1"
     pagecolor="#ffffff"
     bordercolor="#000000"
     borderopacity="0.25"
     inkscape:showpageshadow="2"
     inkscape:pageopacity="0.0"
     inkscape:pagecheckerboard="0"
     inkscape:deskcolor="#d1d1d1"
     inkscape:document-units="px"
     showgrid="true"
     inkscape:zoom="0.39303353"
     inkscape:cx="-22.89881"
     inkscape:cy="1301.4157"
     inkscape:window-width="1920"
     inkscape:window-height="1544"
     inkscape:window-x="0"
     inkscape:window-y="0"
     inkscape:window-maximized="0"
     inkscape:current-layer="layer1"
     showguides="false"><inkscape:grid
       id="grid1"
       units="px"
       originx="0"
       originy="0"
       spacingx="25"
       spacingy="25"
       empcolor="#0099e5"
       empopacity="0.30196078"
       color="#0099e5"
       opacity="0.14901961"
       empspacing="4"
       dotted="false"
       gridanglex="30"
       gridanglez="30"
       visible="true" /></sodipodi:namedview><defs
     id="defs1" /><g
     inkscape:label="Layer 1"
     inkscape:groupmode="layer"
     id="layer1"><path
       id="path8529-0"
       style="fill:#000000;fill-opacity:0.555319;fill-rule:evenodd;stroke:none;stroke-width:0.688846px;stroke-linecap:butt;stroke-linejoin:miter;stroke-opacity:1"
       d="M 600,200 C 245.6839,200.63608 100,370.00038 100,560 v 1440 h 300 v -500 c 99.9998,49.9999 171.08937,92.5847 300,100 149.7745,0 500,-80.0006 500,-400 0,-319.99936 -330,-350 -330,-350 0,0 230,-100.00038 230,-290 0,-189.99962 -250.0005,-360 -500,-360 z m 0,100 c 119.99976,0 200,140.00022 200,250 0,109.99978 -80.00024,250 -200,250 H 500 v 100 h 100 100 c 119.99976,0 200,130.0004 200,300 0,169.9996 -80.00024,300 -200,300 -100.1394,0.8995 -200.0002,-50.0001 -300,-100 V 550 c 0,-109.99978 -9.99958,-250 200,-250 z"
       sodipodi:nodetypes="csccccscscssscccssccss" /></g></svg>
