<?xml version="1.0" encoding="UTF-8" standalone="no"?>
<!-- Created with Inkscape (http://www.inkscape.org/) -->

<svg
   width="2000"
   height="2000"
   viewBox="0 0 2000 2000"
   version="1.1"
   id="svg1"
   inkscape:version="1.2.2 (732a01da63, 2022-12-09)"
   sodipodi:docname="947_gamma-small.svg"
   xml:space="preserve"
   xmlns:inkscape="http://www.inkscape.org/namespaces/inkscape"
   xmlns:sodipodi="http://sodipodi.sourceforge.net/DTD/sodipodi-0.dtd"
   xmlns="http://www.w3.org/2000/svg"
   xmlns:svg="http://www.w3.org/2000/svg"><sodipodi:namedview
     id="namedview1"
     pagecolor="#ffffff"
     bordercolor="#000000"
     borderopacity="0.25"
     inkscape:showpageshadow="2"
     inkscape:pageopacity="0.0"
     inkscape:pagecheckerboard="0"
     inkscape:deskcolor="#d1d1d1"
     inkscape:document-units="px"
     showgrid="true"
     inkscape:zoom="0.55371508"
     inkscape:cx="887.64063"
     inkscape:cy="1500.7718"
     inkscape:window-width="1920"
     inkscape:window-height="2066"
     inkscape:window-x="0"
     inkscape:window-y="0"
     inkscape:window-maximized="0"
     inkscape:current-layer="layer1"
     showguides="true"><inkscape:grid
       id="grid1"
       units="px"
       originx="0"
       originy="0"
       spacingx="25"
       spacingy="25"
       empcolor="#0099e5"
       empopacity="0.30196078"
       color="#0099e5"
       opacity="0.14901961"
       empspacing="4"
       dotted="false"
       gridanglex="30"
       gridanglez="30"
       visible="true" /></sodipodi:namedview><defs
     id="defs1" /><g
     inkscape:label="Layer 1"
     inkscape:groupmode="layer"
     id="layer1"><path
       id="path2480"
       style="fill:#000000;fill-opacity:0.56;stroke:none;stroke-width:1px;stroke-linecap:butt;stroke-linejoin:miter;stroke-opacity:0.56"
       d="M 1000,1500 600,700 H 700 V 600 H 100 v 100 h 200 l 450,900 h 250 z"
       sodipodi:nodetypes="cccccccccc" /><path
       id="path2483"
       style="fill:#000000;fill-opacity:0.56;stroke:none;stroke-width:1px;stroke-linecap:butt;stroke-linejoin:miter;stroke-opacity:0.56"
       d="m 1000,1600 c 100,-200 600,-350.0004 600,-700 0,-200 -200.0001,-300 -300,-300 h -200 v 100 c 0,0 196.388,3.04444 200,200 5.5008,299.9493 -450,500 -550,700"
       sodipodi:nodetypes="cssccsc" /><path
       style="fill:#000000;stroke:none;stroke-width:1px;stroke-linecap:butt;stroke-linejoin:miter;stroke-opacity:1;fill-opacity:0.56"
       d="m 1000,1500 c 100,200 100,500 -100,500 -200,0 -250,-200 -150,-400"
       id="path2486"
       sodipodi:nodetypes="csc" /><path
       id="path2480-4"
       style="fill:#000000;fill-opacity:0.56;stroke:none;stroke-width:1px;stroke-linecap:butt;stroke-linejoin:miter;stroke-opacity:0.56"
       d="M 100 600 L 100 700 L 300 700 L 750 1600 C 650.0001 1799.9998 700.0002 2000 900 2000 C 1080.8719 2000 1098.1521 1754.6487 1025.8418 1559.7871 C 1165.8985 1378.6659 1600 1226.1741 1600 900 C 1600 700.0002 1399.9998 600 1300 600 L 1100 600 L 1100 700 C 1100 700 1296.388 703.04464 1300 900 C 1303.6172 1097.2412 1108.1102 1251.1843 945.21094 1390.4219 L 600 700 L 700 700 L 700 600 L 100 600 z " /></g></svg>
