<?xml version="1.0" encoding="UTF-8" standalone="no"?>
<!-- Created with Inkscape (http://www.inkscape.org/) -->

<svg
   width="2000"
   height="2000"
   viewBox="0 0 2000 2000"
   version="1.1"
   id="svg1"
   inkscape:version="1.3 (0e150ed6c4, 2023-07-21)"
   sodipodi:docname="948_delta-small.svg"
   xml:space="preserve"
   xmlns:inkscape="http://www.inkscape.org/namespaces/inkscape"
   xmlns:sodipodi="http://sodipodi.sourceforge.net/DTD/sodipodi-0.dtd"
   xmlns="http://www.w3.org/2000/svg"
   xmlns:svg="http://www.w3.org/2000/svg"><sodipodi:namedview
     id="namedview1"
     pagecolor="#ffffff"
     bordercolor="#000000"
     borderopacity="0.25"
     inkscape:showpageshadow="2"
     inkscape:pageopacity="0.0"
     inkscape:pagecheckerboard="0"
     inkscape:deskcolor="#d1d1d1"
     inkscape:document-units="px"
     showgrid="true"
     inkscape:zoom="0.55583335"
     inkscape:cx="708.84556"
     inkscape:cy="819.49023"
     inkscape:window-width="1920"
     inkscape:window-height="1544"
     inkscape:window-x="0"
     inkscape:window-y="0"
     inkscape:window-maximized="0"
     inkscape:current-layer="layer1"
     showguides="false"><inkscape:grid
       id="grid1"
       units="px"
       originx="0"
       originy="0"
       spacingx="25"
       spacingy="25"
       empcolor="#0099e5"
       empopacity="0.30196078"
       color="#0099e5"
       opacity="0.14901961"
       empspacing="4"
       dotted="false"
       gridanglex="30"
       gridanglez="30"
       visible="true" /></sodipodi:namedview><defs
     id="defs1" /><g
     inkscape:label="Layer 1"
     inkscape:groupmode="layer"
     id="layer1"><path
       id="path124467"
       style="fill:#000000;fill-opacity:0.555319;stroke:none;stroke-width:1px;stroke-linecap:butt;stroke-linejoin:miter;stroke-opacity:1"
       d="M 650,600.00003 C 300,700 100,900 100,1100 c 0,299.9997 157.24739,497.4557 550,500 392.7526,-2.5443 550,-200.0003 550,-500 0,-200 -150.0004,-499.99997 -550,-499.99997 z m 0,100 C 799.9998,700.00003 900,900 900,1100 c 0,265.6669 -100.0002,400 -250,400 -149.99985,0 -250,-134.3331 -250,-400 0,-200 100,-300 250,-399.99997 z"
       sodipodi:nodetypes="cscsccsssc" /><path
       id="path124467-0"
       style="fill:#000000;fill-opacity:0.555319;stroke:none;stroke-width:1px;stroke-linecap:butt;stroke-linejoin:miter;stroke-opacity:1"
       d="m 800,200 c -399.9996,0 -646.16893,98.52707 -650,250 -5.0568,199.9359 200.0003,250 500,250 V 600 c -149.99985,0 -200,-50.0001 -200,-150 0,-99.9999 100.00286,-151.14251 350,-150 97.97103,0.44774 165.8747,10.2615 225,25 0,0 -120,-9.99977 -120,105 0,49.9999 32.21624,100 150,100 74.9998,0 145.6428,-30.00227 145,-130 -0.6361,-98.94445 -175.0004,-200 -400,-200 z"
       sodipodi:nodetypes="ssccsscssss" /><path
       id="path124467-03"
       style="fill:#000000;fill-opacity:0.555319;stroke:none;stroke-width:1px;stroke-linecap:butt;stroke-linejoin:miter;stroke-opacity:1"
       d="M 800 200 C 400.0008 200 153.83107 298.52722 150 450 C 146.32806 595.18146 253.79647 661.1237 427.60547 686.4707 C 216.69686 794.66319 100 947.30422 100 1100 C 100 1399.9994 257.24778 1597.4557 650 1600 C 1042.7522 1597.4557 1200 1399.9994 1200 1100 C 1200 900.0002 1049.9992 600 650 600 C 500.0003 600 450 549.9998 450 450 C 450 350.0002 550.00311 298.85749 800 300 C 897.97093 300.44774 965.87476 310.26151 1025 325 C 1025 325 905 315.00034 905 430 C 905 479.99985 937.21636 530 1055 530 C 1129.9997 530 1200.6428 499.99763 1200 400 C 1199.3639 301.05565 1024.9994 200 800 200 z M 650 700 C 799.99965 700 900 900.0002 900 1100 C 900 1365.6666 799.99965 1500 650 1500 C 500.0003 1500 400 1365.6666 400 1100 C 400 900.0002 500.00015 799.99987 650 700 z " /></g></svg>
