<?xml version="1.0" encoding="UTF-8" standalone="no"?>
<!-- Created with Inkscape (http://www.inkscape.org/) -->

<svg
   width="2000"
   height="2000"
   viewBox="0 0 2000 2000"
   version="1.1"
   id="svg1"
   inkscape:version="1.2.2 (732a01da63, 2022-12-09)"
   sodipodi:docname="949_epsilon-small.svg"
   xml:space="preserve"
   xmlns:inkscape="http://www.inkscape.org/namespaces/inkscape"
   xmlns:sodipodi="http://sodipodi.sourceforge.net/DTD/sodipodi-0.dtd"
   xmlns="http://www.w3.org/2000/svg"
   xmlns:svg="http://www.w3.org/2000/svg"><sodipodi:namedview
     id="namedview1"
     pagecolor="#ffffff"
     bordercolor="#000000"
     borderopacity="0.25"
     inkscape:showpageshadow="2"
     inkscape:pageopacity="0.0"
     inkscape:pagecheckerboard="0"
     inkscape:deskcolor="#d1d1d1"
     inkscape:document-units="px"
     showgrid="true"
     inkscape:zoom="0.78307138"
     inkscape:cx="589.34602"
     inkscape:cy="1065.037"
     inkscape:window-width="1920"
     inkscape:window-height="2066"
     inkscape:window-x="0"
     inkscape:window-y="0"
     inkscape:window-maximized="0"
     inkscape:current-layer="layer1"
     showguides="true"><inkscape:grid
       id="grid1"
       units="px"
       originx="0"
       originy="0"
       spacingx="25"
       spacingy="25"
       empcolor="#0099e5"
       empopacity="0.30196078"
       color="#0099e5"
       opacity="0.14901961"
       empspacing="4"
       dotted="false"
       gridanglex="30"
       gridanglez="30"
       visible="true" /></sodipodi:namedview><defs
     id="defs1" /><g
     inkscape:label="Layer 1"
     inkscape:groupmode="layer"
     id="layer1"><path
       id="path124467"
       style="fill:#000000;fill-opacity:0.555319;stroke:none;stroke-width:1px;stroke-linecap:butt;stroke-linejoin:miter;stroke-opacity:1"
       d="m 600,1000 c -299.9997,0 -499.03515,150.0033 -500,300 -1.277023,198.5267 175.00288,298.4294 700,300 225.0639,0.6733 400,-100 400,-100 v -100 c 0,0 -175.0004,100 -400,100 -224.99977,0 -400,-50.0002 -400,-200 0,-149.9998 50.00015,-200 200,-200 h 300 v -100 z"
       sodipodi:nodetypes="sssccsssccs" /><path
       id="path124467-0"
       style="fill:#000000;fill-opacity:0.555319;stroke:none;stroke-width:1px;stroke-linecap:butt;stroke-linejoin:miter;stroke-opacity:1"
       d="m 800,600 c -399.9996,0 -696.16893,98.52707 -700,250 -5.056798,199.9359 200.0003,250 500,250 H 900 V 1000 H 600 c -149.99985,0 -200,-50.0001 -200,-150 0,-99.9999 150.00286,-151.14251 400,-150 97.97103,0.44774 165.87467,10.2615 225,25 0,0 -120,-9.99977 -120,105 0,49.9999 32.21624,100 150,100 74.9998,0 145.6428,-30.00227 145,-130 -0.6361,-98.94445 -175.0004,-200 -400,-200 z"
       sodipodi:nodetypes="sssccssscssss" /><path
       id="path124467-3"
       style="fill:#000000;fill-opacity:0.555319;stroke:none;stroke-width:1px;stroke-linecap:butt;stroke-linejoin:miter;stroke-opacity:1"
       d="M 800 600 C 400.0008 600 103.83107 698.52722 100 850 C 97.033326 967.29645 166.45833 1032.9628 284.87109 1067.2461 C 168.68189 1124.9714 100.5631 1212.4593 100 1300 C 98.722978 1498.5265 275.0034 1598.4294 800 1600 C 1025.0637 1600.6733 1200 1500 1200 1500 L 1200 1400 C 1200 1400 1024.9994 1500 800 1500 C 575.00045 1500 400 1449.9997 400 1300 C 400 1150.0003 450.0003 1100 600 1100 L 900 1100 L 900 1000 L 600 1000 C 450.0003 1000 400 949.9998 400 850 C 400 750.0002 550.00311 698.85749 800 700 C 897.97093 700.44774 965.87473 710.26151 1025 725 C 1025 725 905 715.00034 905 830 C 905 879.99985 937.21636 930 1055 930 C 1129.9997 930 1200.6428 899.99763 1200 800 C 1199.3639 701.05565 1024.9994 600 800 600 z " /></g></svg>
