<?xml version="1.0" encoding="UTF-8" standalone="no"?>
<!-- Created with Inkscape (http://www.inkscape.org/) -->

<svg
   width="2000"
   height="2000"
   viewBox="0 0 2000 2000"
   version="1.1"
   id="svg1"
   inkscape:version="1.2.2 (732a01da63, 2022-12-09)"
   sodipodi:docname="952_theta-small.svg"
   xml:space="preserve"
   xmlns:inkscape="http://www.inkscape.org/namespaces/inkscape"
   xmlns:sodipodi="http://sodipodi.sourceforge.net/DTD/sodipodi-0.dtd"
   xmlns="http://www.w3.org/2000/svg"
   xmlns:svg="http://www.w3.org/2000/svg"><sodipodi:namedview
     id="namedview1"
     pagecolor="#ffffff"
     bordercolor="#000000"
     borderopacity="0.25"
     inkscape:showpageshadow="2"
     inkscape:pageopacity="0.0"
     inkscape:pagecheckerboard="0"
     inkscape:deskcolor="#d1d1d1"
     inkscape:document-units="px"
     showgrid="true"
     inkscape:zoom="0.55371508"
     inkscape:cx="1026.7013"
     inkscape:cy="922.85729"
     inkscape:window-width="1920"
     inkscape:window-height="2066"
     inkscape:window-x="0"
     inkscape:window-y="0"
     inkscape:window-maximized="0"
     inkscape:current-layer="layer1"
     showguides="false"><inkscape:grid
       id="grid1"
       units="px"
       originx="0"
       originy="0"
       spacingx="25"
       spacingy="25"
       empcolor="#0099e5"
       empopacity="0.30196078"
       color="#0099e5"
       opacity="0.14901961"
       empspacing="4"
       dotted="false"
       gridanglex="30"
       gridanglez="30"
       visible="true" /></sodipodi:namedview><defs
     id="defs1" /><g
     inkscape:label="Layer 1"
     inkscape:groupmode="layer"
     id="layer1"><path
       id="path124467"
       style="fill:#000000;fill-opacity:0.555319;stroke:none;stroke-width:1.18322px;stroke-linecap:butt;stroke-linejoin:miter;stroke-opacity:1"
       d="M 650,200 C 250.0004,200 100,480.00047 100,899.99998 100,1319.9996 257.24739,1596.438 650,1600 1042.7526,1596.438 1200,1319.9996 1200,899.99998 1200,480.00047 1049.9996,200 650,200 Z m 0,100 C 799.99975,300 900,528.06641 900,899.99998 900,1271.9337 799.99975,1500 650,1500 500.00015,1500 400,1271.9337 400,899.99998 400,528.06641 500.00015,300 650,300 Z"
       sodipodi:nodetypes="sscsssssss" /><rect
       style="opacity:0.489888;fill:#000000;fill-opacity:0.56;fill-rule:evenodd;stroke-width:100;stroke-linecap:round;stroke-linejoin:round;stroke-miterlimit:4.5;stroke-opacity:0.56;stop-color:#000000"
       id="rect746"
       width="700"
       height="150"
       x="300"
       y="825" /><path
       id="path124467-2"
       style="fill:#000000;fill-opacity:0.555319;stroke:none;stroke-width:1.18322px;stroke-linecap:butt;stroke-linejoin:miter;stroke-opacity:1"
       d="M 650 200 C 250.0008 200 100 480.00091 100 900 C 100 1319.9992 257.24778 1596.438 650 1600 C 1042.7522 1596.438 1200 1319.9992 1200 900 C 1200 480.00091 1049.9992 200 650 200 z M 650 300 C 789.61227 300 885.80118 497.74412 898.46875 825 L 401.53125 825 C 414.19881 497.74412 510.38763 300 650 300 z M 401.53125 975 L 898.46875 975 C 885.80118 1302.256 789.61227 1500 650 1500 C 510.38763 1500 414.19881 1302.256 401.53125 975 z " /></g></svg>
