<?xml version="1.0" encoding="UTF-8" standalone="no"?>
<!-- Created with Inkscape (http://www.inkscape.org/) -->

<svg
   width="2000"
   height="2000"
   viewBox="0 0 2000 2000"
   version="1.1"
   id="svg1"
   inkscape:version="1.2.2 (732a01da63, 2022-12-09)"
   sodipodi:docname="956_mu-small.svg"
   xml:space="preserve"
   xmlns:inkscape="http://www.inkscape.org/namespaces/inkscape"
   xmlns:sodipodi="http://sodipodi.sourceforge.net/DTD/sodipodi-0.dtd"
   xmlns="http://www.w3.org/2000/svg"
   xmlns:svg="http://www.w3.org/2000/svg"><sodipodi:namedview
     id="namedview1"
     pagecolor="#ffffff"
     bordercolor="#000000"
     borderopacity="0.25"
     inkscape:showpageshadow="2"
     inkscape:pageopacity="0.0"
     inkscape:pagecheckerboard="0"
     inkscape:deskcolor="#d1d1d1"
     inkscape:document-units="px"
     showgrid="true"
     inkscape:zoom="0.55583335"
     inkscape:cx="707.94601"
     inkscape:cy="1581.4093"
     inkscape:window-width="1920"
     inkscape:window-height="2066"
     inkscape:window-x="0"
     inkscape:window-y="0"
     inkscape:window-maximized="0"
     inkscape:current-layer="layer1"
     showguides="false"><inkscape:grid
       id="grid1"
       units="px"
       originx="0"
       originy="0"
       spacingx="25"
       spacingy="25"
       empcolor="#0099e5"
       empopacity="0.30196078"
       color="#0099e5"
       opacity="0.14901961"
       empspacing="4"
       dotted="false"
       gridanglex="30"
       gridanglez="30"
       visible="true" /></sodipodi:namedview><defs
     id="defs1" /><g
     inkscape:label="Layer 1"
     inkscape:groupmode="layer"
     id="layer1"><path
       style="fill:#000000;fill-opacity:0.555319;stroke:none;stroke-width:1px;stroke-linecap:butt;stroke-linejoin:miter;stroke-opacity:1"
       d="m 1400,1400 h 200 v 100 H 1300 L 1100,1400 V 600 H 900 V 500 h 500"
       id="path123739"
       sodipodi:nodetypes="ccccccccc" /><path
       style="fill:#000000;fill-opacity:0.555319;stroke:none;stroke-width:1px;stroke-linecap:butt;stroke-linejoin:miter;stroke-opacity:1"
       d="M 600,500 H 100 v 100 h 200 v 400 c 0,300 193.5532,498.2009 500,500 149.99742,0.8806 300,-100 300,-100 v -100 c 0,0 -150,100 -300,100 -150,0 -200,-134.3328 -200,-400 z"
       id="path124467-3"
       sodipodi:nodetypes="cccccsccscc" /><path
       style="fill:#000000;fill-opacity:0.555319;stroke:none;stroke-width:1px;stroke-linecap:butt;stroke-linejoin:miter;stroke-opacity:1"
       d="M 300,1900 V 600 H 100 V 500 h 500 v 1400 z"
       id="path123739-7"
       sodipodi:nodetypes="ccccccc" /><path
       id="path123739-1"
       style="fill:#000000;fill-opacity:0.555319;stroke:none;stroke-width:1px;stroke-linecap:butt;stroke-linejoin:miter;stroke-opacity:1"
       d="M 100 500 L 100 600 L 300 600 L 300 1000 L 300 1900 L 600 1900 L 600 1465.9395 C 659.4428 1487.704 726.4262 1499.5681 800 1500 C 949.99727 1500.8806 1100 1400 1100 1400 L 1300 1500 L 1600 1500 L 1600 1400 L 1400 1400 L 1400 500 L 900 500 L 900 600 L 1100 600 L 1100 1300 C 1100 1300 949.99985 1400 800 1400 C 650.00015 1400 600 1265.6669 600 1000 L 600 500 L 100 500 z " /></g></svg>
