<?xml version="1.0" encoding="UTF-8" standalone="no"?>
<!-- Created with Inkscape (http://www.inkscape.org/) -->

<svg
   width="2000"
   height="2000"
   viewBox="0 0 2000 2000"
   version="1.1"
   id="svg1"
   inkscape:version="1.2.2 (732a01da63, 2022-12-09)"
   sodipodi:docname="957_nu-small.svg"
   xml:space="preserve"
   xmlns:inkscape="http://www.inkscape.org/namespaces/inkscape"
   xmlns:sodipodi="http://sodipodi.sourceforge.net/DTD/sodipodi-0.dtd"
   xmlns="http://www.w3.org/2000/svg"
   xmlns:svg="http://www.w3.org/2000/svg"><sodipodi:namedview
     id="namedview1"
     pagecolor="#ffffff"
     bordercolor="#000000"
     borderopacity="0.25"
     inkscape:showpageshadow="2"
     inkscape:pageopacity="0.0"
     inkscape:pagecheckerboard="0"
     inkscape:deskcolor="#d1d1d1"
     inkscape:document-units="px"
     showgrid="true"
     inkscape:zoom="0.55371508"
     inkscape:cx="905.70046"
     inkscape:cy="922.85729"
     inkscape:window-width="1920"
     inkscape:window-height="2066"
     inkscape:window-x="0"
     inkscape:window-y="0"
     inkscape:window-maximized="0"
     inkscape:current-layer="layer1"
     showguides="true"><inkscape:grid
       id="grid1"
       units="px"
       originx="0"
       originy="0"
       spacingx="25"
       spacingy="25"
       empcolor="#0099e5"
       empopacity="0.30196078"
       color="#0099e5"
       opacity="0.14901961"
       empspacing="4"
       dotted="false"
       gridanglex="30"
       gridanglez="30"
       visible="true" /></sodipodi:namedview><defs
     id="defs1" /><g
     inkscape:label="Layer 1"
     inkscape:groupmode="layer"
     id="layer1"><path
       id="path111890"
       style="fill:#000000;fill-opacity:0.56;stroke:none;stroke-width:1px;stroke-linecap:butt;stroke-linejoin:miter;stroke-opacity:0.56"
       d="M 1000,1500 600,700 H 700 V 600 H 100 v 100 h 200 l 450,900 h 250 z"
       sodipodi:nodetypes="cccccccccc" /><path
       id="path111890-2"
       style="fill:#000000;fill-opacity:0.56;stroke:none;stroke-width:1px;stroke-linecap:butt;stroke-linejoin:miter;stroke-opacity:0.56"
       d="m 1000,1600 c 100,-200 600,-350.0004 600,-700 0,-200 -200.0001,-300 -300,-300 h -200 v 100 c 0,0 196.388,3.04444 200,200 5.5008,299.9493 -300,400 -400,600"
       sodipodi:nodetypes="cssccsc" /><path
       id="path111890-9"
       style="fill:#000000;fill-opacity:0.56;stroke:none;stroke-width:1px;stroke-linecap:butt;stroke-linejoin:miter;stroke-opacity:0.56"
       d="M 100 600 L 100 700 L 300 700 L 750 1600 L 1000 1600 C 1099.9999 1400.0002 1600 1249.9993 1600 900 C 1600 700.0002 1399.9998 600 1300 600 L 1100 600 L 1100 700 C 1100 700 1296.388 703.04464 1300 900 C 1304.6703 1154.664 1085.2109 1265.2561 957.62109 1415.2402 L 600 700 L 700 700 L 700 600 L 100 600 z " /></g></svg>
