<?xml version="1.0" encoding="UTF-8" standalone="no"?>
<!-- Created with Inkscape (http://www.inkscape.org/) -->

<svg
   width="2000"
   height="2000"
   viewBox="0 0 2000 2000"
   version="1.1"
   id="svg1"
   inkscape:version="1.2.2 (732a01da63, 2022-12-09)"
   sodipodi:docname="958_xi-small.svg"
   xml:space="preserve"
   xmlns:inkscape="http://www.inkscape.org/namespaces/inkscape"
   xmlns:sodipodi="http://sodipodi.sourceforge.net/DTD/sodipodi-0.dtd"
   xmlns="http://www.w3.org/2000/svg"
   xmlns:svg="http://www.w3.org/2000/svg"><sodipodi:namedview
     id="namedview1"
     pagecolor="#ffffff"
     bordercolor="#000000"
     borderopacity="0.25"
     inkscape:showpageshadow="2"
     inkscape:pageopacity="0.0"
     inkscape:pagecheckerboard="0"
     inkscape:deskcolor="#d1d1d1"
     inkscape:document-units="px"
     showgrid="true"
     inkscape:zoom="0.55371508"
     inkscape:cx="1084.4928"
     inkscape:cy="922.85729"
     inkscape:window-width="1920"
     inkscape:window-height="2066"
     inkscape:window-x="0"
     inkscape:window-y="0"
     inkscape:window-maximized="0"
     inkscape:current-layer="layer1"
     showguides="true"><inkscape:grid
       id="grid1"
       units="px"
       originx="0"
       originy="0"
       spacingx="25"
       spacingy="25"
       empcolor="#0099e5"
       empopacity="0.30196078"
       color="#0099e5"
       opacity="0.14901961"
       empspacing="4"
       dotted="false"
       gridanglex="30"
       gridanglez="30"
       visible="true" /></sodipodi:namedview><defs
     id="defs1" /><g
     inkscape:label="Layer 1"
     inkscape:groupmode="layer"
     id="layer1"><path
       id="path124467"
       style="fill:#000000;fill-opacity:0.555319;stroke:none;stroke-width:1px;stroke-linecap:butt;stroke-linejoin:miter;stroke-opacity:1"
       d="m 1000,800 c -600,0 -900,100.00034 -900,400 0,299.9997 250.0003,400 500,400 h 200 c 75,0 200,25.0001 200,100 0,100 -50,200 -150,200 -99.9999,0 -250,-100 -250,-100 v 100 c 0,0 150.0001,100 250,100 99.9999,0 350,-3e-4 350,-300 0,-149.9998 -75,-200 -300,-200 H 700 c -150,0 -300,-34.3331 -300,-300 0,-265.66685 200,-300 600,-300"
       sodipodi:nodetypes="csssssccsssssc" /><path
       id="path124467-7"
       style="fill:#000000;fill-opacity:0.555319;stroke:none;stroke-width:1px;stroke-linecap:butt;stroke-linejoin:miter;stroke-opacity:1"
       d="M 1200,200 C 800,400 303.61197,402.37385 300,650 296.3538,899.97341 750.0003,900 1000,900 V 800 c -150,0 -400,0 -400,-150 0,-150 200,-150 600,-350"
       sodipodi:nodetypes="csccsc" /><rect
       style="opacity:0.489888;fill:#000000;fill-opacity:0.56;fill-rule:evenodd;stroke-width:100;stroke-linecap:round;stroke-linejoin:round;stroke-miterlimit:4.5;stroke-opacity:0.56;stop-color:#000000"
       id="rect837"
       width="1100"
       height="100"
       x="100"
       y="200" /><path
       id="path124467-3"
       style="fill:#000000;fill-opacity:0.555319;stroke:none;stroke-width:1px;stroke-linecap:butt;stroke-linejoin:miter;stroke-opacity:1"
       d="M 100 200 L 100 300 L 952.07617 300 C 620.49267 410.64862 302.8863 452.12344 300 650 C 298.56743 748.21308 367.86866 807.73343 467.53125 843.9375 C 222.65514 898.41427 100 1008.3459 100 1200 C 100 1499.9994 350.00055 1600 600 1600 L 800 1600 C 874.99992 1600 1000 1625.0002 1000 1700 C 1000 1799.9999 949.9999 1900 850 1900 C 750.0002 1900 600 1800 600 1800 L 600 1900 C 600 1900 750.0002 2000 850 2000 C 949.9998 2000 1200 1999.9994 1200 1700 C 1200 1550.0003 1124.9998 1500 900 1500 L 700 1500 C 550.00015 1500 400 1465.6666 400 1200 C 400 934.33342 600.0004 900 1000 900 L 1000 800 C 850.00015 800 600 799.99985 600 650 C 600 500.00015 800.0004 499.9998 1200 300 L 1200 200 L 100 200 z " /></g></svg>
