<?xml version="1.0" encoding="UTF-8" standalone="no"?>
<!-- Created with Inkscape (http://www.inkscape.org/) -->

<svg
   width="2000"
   height="2000"
   viewBox="0 0 2000 2000"
   version="1.1"
   id="svg1"
   inkscape:version="1.2.2 (732a01da63, 2022-12-09)"
   sodipodi:docname="961_rho-small.svg"
   xml:space="preserve"
   xmlns:inkscape="http://www.inkscape.org/namespaces/inkscape"
   xmlns:sodipodi="http://sodipodi.sourceforge.net/DTD/sodipodi-0.dtd"
   xmlns="http://www.w3.org/2000/svg"
   xmlns:svg="http://www.w3.org/2000/svg"><sodipodi:namedview
     id="namedview1"
     pagecolor="#ffffff"
     bordercolor="#000000"
     borderopacity="0.25"
     inkscape:showpageshadow="2"
     inkscape:pageopacity="0.0"
     inkscape:pagecheckerboard="0"
     inkscape:deskcolor="#d1d1d1"
     inkscape:document-units="px"
     showgrid="true"
     inkscape:zoom="0.55583335"
     inkscape:cx="707.94601"
     inkscape:cy="1581.4093"
     inkscape:window-width="1920"
     inkscape:window-height="2066"
     inkscape:window-x="0"
     inkscape:window-y="0"
     inkscape:window-maximized="0"
     inkscape:current-layer="layer1"
     showguides="false"><inkscape:grid
       id="grid1"
       units="px"
       originx="0"
       originy="0"
       spacingx="25"
       spacingy="25"
       empcolor="#0099e5"
       empopacity="0.30196078"
       color="#0099e5"
       opacity="0.14901961"
       empspacing="4"
       dotted="false"
       gridanglex="30"
       gridanglez="30"
       visible="true" /></sodipodi:namedview><defs
     id="defs1" /><g
     inkscape:label="Layer 1"
     inkscape:groupmode="layer"
     id="layer1"><path
       id="path124467"
       style="fill:#000000;fill-opacity:0.555319;stroke:none;stroke-width:1px;stroke-linecap:butt;stroke-linejoin:miter;stroke-opacity:1"
       d="m 650,500 c -399.9996,0 -550,200.00033 -550,500 0,299.9997 157.24739,497.4557 550,500 392.7526,-2.5443 550,-200.0003 550,-500 0,-299.99967 -150.0004,-500 -550,-500 z m 0,100 c 149.99985,0 250,134.33314 250,400 0,265.6669 -100.00015,400 -250,400 -149.99985,0 -250,-134.3331 -250,-400 0,-265.66686 100.00015,-400 250,-400 z" /><rect
       style="opacity:0.489888;fill:#000000;fill-opacity:0.555319;fill-rule:evenodd;stroke-width:100;stroke-linecap:round;stroke-linejoin:round;stroke-miterlimit:4.5;stop-color:#000000"
       id="rect111672"
       width="300"
       height="900"
       x="100"
       y="1000" /><path
       id="path124467-2"
       style="fill:#000000;fill-opacity:0.555319;stroke:none;stroke-width:1px;stroke-linecap:butt;stroke-linejoin:miter;stroke-opacity:1"
       d="M 650 500 C 250.0008 500 100 700.00063 100 1000 L 100 1900 L 400 1900 L 400 1463.4941 C 469.64518 1486.7104 552.5568 1499.3688 650 1500 C 1042.7522 1497.4557 1200 1299.9994 1200 1000 C 1200 700.00063 1049.9992 500 650 500 z M 650 600 C 799.9997 600 900 734.33341 900 1000 C 900 1265.6666 799.9997 1400 650 1400 C 500.0003 1400 400 1265.6666 400 1000 C 400 734.33341 500.0003 600 650 600 z " /></g></svg>
