<?xml version="1.0" encoding="UTF-8" standalone="no"?>
<!-- Created with Inkscape (http://www.inkscape.org/) -->

<svg
   width="2000"
   height="2000"
   viewBox="0 0 2000 2000"
   version="1.1"
   id="svg1"
   inkscape:version="1.2.2 (732a01da63, 2022-12-09)"
   sodipodi:docname="962_sigma-final-small.svg"
   xml:space="preserve"
   xmlns:inkscape="http://www.inkscape.org/namespaces/inkscape"
   xmlns:sodipodi="http://sodipodi.sourceforge.net/DTD/sodipodi-0.dtd"
   xmlns="http://www.w3.org/2000/svg"
   xmlns:svg="http://www.w3.org/2000/svg"><sodipodi:namedview
     id="namedview1"
     pagecolor="#ffffff"
     bordercolor="#000000"
     borderopacity="0.25"
     inkscape:showpageshadow="2"
     inkscape:pageopacity="0.0"
     inkscape:pagecheckerboard="0"
     inkscape:deskcolor="#d1d1d1"
     inkscape:document-units="px"
     showgrid="true"
     inkscape:zoom="0.55583335"
     inkscape:cx="707.94601"
     inkscape:cy="1581.4093"
     inkscape:window-width="1920"
     inkscape:window-height="2066"
     inkscape:window-x="0"
     inkscape:window-y="0"
     inkscape:window-maximized="0"
     inkscape:current-layer="layer1"
     showguides="false"><inkscape:grid
       id="grid1"
       units="px"
       originx="0"
       originy="0"
       spacingx="25"
       spacingy="25"
       empcolor="#0099e5"
       empopacity="0.30196078"
       color="#0099e5"
       opacity="0.14901961"
       empspacing="4"
       dotted="false"
       gridanglex="30"
       gridanglez="30"
       visible="true" /></sodipodi:namedview><defs
     id="defs1" /><g
     inkscape:label="Layer 1"
     inkscape:groupmode="layer"
     id="layer1"><path
       id="path124467"
       style="fill:#000000;fill-opacity:0.555319;stroke:none;stroke-width:1px;stroke-linecap:butt;stroke-linejoin:miter;stroke-opacity:1"
       d="m 800,500 c -399.9996,0 -700,200.0003 -700,500 0,299.9997 250.00025,500 500,500 h 200 c 74.99992,0 200,25.0001 200,100 0,100 -50,200 -150,200 -99.9999,0 -250,-100 -250,-100 v 100 c 0,0 150.0001,100 250,100 99.9999,0 350,-3e-4 350,-300 0,-149.9998 -75,-200 -300,-200 H 700 c -150,0 -300,-134.3331 -300,-400 0,-265.66689 250.01991,-402.43466 400,-400 97.95925,1.5902 165.87461,10.26149 225,25 0,0 -120,-9.99988 -120,105 0,49.99995 32.21612,100 150,100 74.9999,0 145.6428,-30.00217 145,-130 -0.6361,-98.94455 -175.0002,-200 -400,-200 z"
       sodipodi:nodetypes="ssssssccsssssscssss" /></g></svg>
