<?xml version="1.0" encoding="UTF-8" standalone="no"?>
<!-- Created with Inkscape (http://www.inkscape.org/) -->

<svg
   width="2000"
   height="2000"
   viewBox="0 0 2000 2000"
   version="1.1"
   id="svg1"
   inkscape:version="1.2.2 (732a01da63, 2022-12-09)"
   sodipodi:docname="967_chi-small.svg"
   xml:space="preserve"
   xmlns:inkscape="http://www.inkscape.org/namespaces/inkscape"
   xmlns:sodipodi="http://sodipodi.sourceforge.net/DTD/sodipodi-0.dtd"
   xmlns="http://www.w3.org/2000/svg"
   xmlns:svg="http://www.w3.org/2000/svg"><sodipodi:namedview
     id="namedview1"
     pagecolor="#ffffff"
     bordercolor="#000000"
     borderopacity="0.25"
     inkscape:showpageshadow="2"
     inkscape:pageopacity="0.0"
     inkscape:pagecheckerboard="0"
     inkscape:deskcolor="#d1d1d1"
     inkscape:document-units="px"
     showgrid="true"
     inkscape:zoom="0.55371508"
     inkscape:cx="887.64063"
     inkscape:cy="1500.7718"
     inkscape:window-width="1920"
     inkscape:window-height="2066"
     inkscape:window-x="0"
     inkscape:window-y="0"
     inkscape:window-maximized="0"
     inkscape:current-layer="layer1"
     showguides="true"><inkscape:grid
       id="grid1"
       units="px"
       originx="0"
       originy="0"
       spacingx="25"
       spacingy="25"
       empcolor="#0099e5"
       empopacity="0.30196078"
       color="#0099e5"
       opacity="0.14901961"
       empspacing="4"
       dotted="false"
       gridanglex="30"
       gridanglez="30"
       visible="true" /></sodipodi:namedview><defs
     id="defs1" /><g
     inkscape:label="Layer 1"
     inkscape:groupmode="layer"
     id="layer1"><path
       id="path2480"
       style="fill:#000000;fill-opacity:0.56;stroke:none;stroke-width:1px;stroke-linecap:butt;stroke-linejoin:miter;stroke-opacity:0.56"
       d="m 1400,600 v 100 h -200 l -200,400 -250,500 -150,300 h 100 v 100 H 100 V 1900 H 300 L 500,1500 750,1000 900,700 H 800 V 600 Z" /><path
       id="path2483"
       style="fill:#000000;fill-opacity:0.56;stroke:none;stroke-width:1px;stroke-linecap:butt;stroke-linejoin:miter;stroke-opacity:0.56"
       d="m 700,1400 c 65.08599,130.172 141.36545,282.731 200,400 49.99995,99.9999 119.0883,200 300,200 99.9999,0 100.0001,-10e-5 200,-50 v -100 c -99.9999,49.9999 -100.0001,50 -200,50 -49.7496,0 -129.7503,-59.5006 -200,-200 L 825,1350 M 800,1200 C 734.91401,1069.828 658.63455,917.26908 600,800 550.00005,700.0001 480.91169,600 300,600 c -99.9999,0 -100.0001,5e-5 -200,50 v 100 c 99.9999,-49.99995 100.0001,-50 200,-50 49.74953,0 129.75031,59.50061 200,200 l 175,350"
       sodipodi:nodetypes="cssccssccssccssc" /><path
       id="path2480-3"
       style="fill:#000000;fill-opacity:0.56;stroke:none;stroke-width:1px;stroke-linecap:butt;stroke-linejoin:miter;stroke-opacity:0.56"
       d="M 300 600 C 200.0002 600 199.9998 600.0001 100 650 L 100 750 C 199.9998 700.0001 200.0002 700 300 700 C 349.74948 700 429.75038 759.50075 500 900 L 650 1200 L 500 1500 L 300 1900 L 100 1900 L 100 2000 L 700 2000 L 700 1900 L 600 1900 L 750 1600 L 775 1550 C 818.39102 1636.7821 863.35344 1726.7069 900 1800 C 949.9999 1899.9998 1019.0885 2000 1200 2000 C 1299.9998 2000 1300.0002 1999.9999 1400 1950 L 1400 1850 C 1300.0002 1899.9999 1299.9998 1900 1200 1900 C 1150.2504 1900 1070.2496 1840.4993 1000 1700 L 850 1400 L 1000 1100 L 1200 700 L 1400 700 L 1400 600 L 800 600 L 800 700 L 900 700 L 750 1000 L 725 1050 C 681.60898 963.21796 636.64656 873.2931 600 800 C 550.0001 700.0002 480.91151 600 300 600 z " /></g></svg>
