<?xml version="1.0" encoding="UTF-8" standalone="no"?>
<!-- Created with Inkscape (http://www.inkscape.org/) -->

<svg
   width="2000"
   height="2000"
   viewBox="0 0 2000 2000"
   version="1.1"
   id="svg1"
   inkscape:version="1.2.2 (732a01da63, 2022-12-09)"
   sodipodi:docname="969_omega-small.svg"
   xml:space="preserve"
   xmlns:inkscape="http://www.inkscape.org/namespaces/inkscape"
   xmlns:sodipodi="http://sodipodi.sourceforge.net/DTD/sodipodi-0.dtd"
   xmlns="http://www.w3.org/2000/svg"
   xmlns:svg="http://www.w3.org/2000/svg"><sodipodi:namedview
     id="namedview1"
     pagecolor="#ffffff"
     bordercolor="#000000"
     borderopacity="0.25"
     inkscape:showpageshadow="2"
     inkscape:pageopacity="0.0"
     inkscape:pagecheckerboard="0"
     inkscape:deskcolor="#d1d1d1"
     inkscape:document-units="px"
     showgrid="true"
     inkscape:zoom="0.55371508"
     inkscape:cx="846.10302"
     inkscape:cy="922.85729"
     inkscape:window-width="1920"
     inkscape:window-height="2066"
     inkscape:window-x="0"
     inkscape:window-y="0"
     inkscape:window-maximized="0"
     inkscape:current-layer="layer1"
     showguides="false"><inkscape:grid
       id="grid1"
       units="px"
       originx="0"
       originy="0"
       spacingx="25"
       spacingy="25"
       empcolor="#0099e5"
       empopacity="0.30196078"
       color="#0099e5"
       opacity="0.14901961"
       empspacing="4"
       dotted="false"
       gridanglex="30"
       gridanglez="30"
       visible="true" /></sodipodi:namedview><defs
     id="defs1" /><g
     inkscape:label="Layer 1"
     inkscape:groupmode="layer"
     id="layer1"><path
       style="fill:#000000;fill-opacity:0.56;stroke:none;stroke-width:1px;stroke-linecap:butt;stroke-linejoin:miter;stroke-opacity:0.56"
       d="m 900,800 v 300 c 0,300 193.5489,499.2196 500,500 399.9987,1.0187 600,-200 600,-550 0,-350 -200,-450 -300,-450 h -200 v 100 c 0,0 200,50 200,350 0,300 -56.5779,450 -300,450 -138.2094,0 -207.2239,-88.5123 -200,-300 V 800 Z"
       id="path111890"
       sodipodi:nodetypes="ccszscczsccc" /><path
       style="fill:#000000;fill-opacity:0.56;stroke:none;stroke-width:1px;stroke-linecap:butt;stroke-linejoin:miter;stroke-opacity:0.56"
       d="m 1200,800 v 300 c 0,300 -193.5489,499.2195 -500,500 -399.9987,1.0187 -600,-200 -600,-550 0,-350 200,-450 300,-450 h 200 v 100 c 0,0 -200,50 -200,350 0,300 56.73475,458.7371 300,450 150.85128,-5.4179 207.2239,-88.5123 200,-300 V 800 Z"
       id="path111890-3"
       sodipodi:nodetypes="ccszscczsccc" /><path
       id="path111890-4"
       style="fill:#000000;fill-opacity:0.56;stroke:none;stroke-width:1px;stroke-linecap:butt;stroke-linejoin:miter;stroke-opacity:0.56"
       d="m 400,600 c -99.9999,0 -300,100.00035 -300,450 0,349.9996 200.0017,551.0187 600,550 144.67137,-0.3685 264.13769,-45.0047 350,-123.5488 85.8623,78.5441 205.3286,123.1804 350,123.5488 399.9983,1.0187 600,-200.0004 600,-550 0,-349.99965 -200.0001,-450 -300,-450 h -200 v 100 c 0,0 200,50.0003 200,350 0,299.9997 -56.5781,450 -300,450 -138.2093,0 -207.2239,-88.5125 -200,-300 V 1100 800 H 900 v 300 100 c 7.22389,211.4875 -49.14887,294.5821 -200,300 -243.26501,8.7371 -300,-150.0003 -300,-450 0,-299.9997 200,-350 200,-350 V 600 Z" /></g></svg>
