<?xml version="1.0" encoding="UTF-8" standalone="no"?>
<!-- Created with Inkscape (http://www.inkscape.org/) -->

<svg
   width="2000"
   height="2000"
   viewBox="0 0 2000 2000"
   version="1.1"
   id="svg1"
   inkscape:version="1.2.2 (732a01da63, 2022-12-09)"
   sodipodi:docname="976_beta-symbol.svg"
   xml:space="preserve"
   xmlns:inkscape="http://www.inkscape.org/namespaces/inkscape"
   xmlns:sodipodi="http://sodipodi.sourceforge.net/DTD/sodipodi-0.dtd"
   xmlns="http://www.w3.org/2000/svg"
   xmlns:svg="http://www.w3.org/2000/svg"><sodipodi:namedview
     id="namedview1"
     pagecolor="#ffffff"
     bordercolor="#000000"
     borderopacity="0.25"
     inkscape:showpageshadow="2"
     inkscape:pageopacity="0.0"
     inkscape:pagecheckerboard="0"
     inkscape:deskcolor="#d1d1d1"
     inkscape:document-units="px"
     showgrid="true"
     inkscape:zoom="0.78606706"
     inkscape:cx="501.86558"
     inkscape:cy="1017.7249"
     inkscape:window-width="1920"
     inkscape:window-height="2066"
     inkscape:window-x="-11"
     inkscape:window-y="-11"
     inkscape:window-maximized="0"
     inkscape:current-layer="layer1"
     showguides="false"><inkscape:grid
       id="grid1"
       units="px"
       originx="0"
       originy="0"
       spacingx="25"
       spacingy="25"
       empcolor="#0099e5"
       empopacity="0.30196078"
       color="#0099e5"
       opacity="0.14901961"
       empspacing="4"
       dotted="false"
       gridanglex="30"
       gridanglez="30"
       visible="true" /></sodipodi:namedview><defs
     id="defs1" /><g
     inkscape:label="Layer 1"
     inkscape:groupmode="layer"
     id="layer1"><path
       id="path8529-0"
       style="fill:#000000;fill-opacity:0.555319;fill-rule:evenodd;stroke:none;stroke-width:0.688846px;stroke-linecap:butt;stroke-linejoin:miter;stroke-opacity:1"
       d="M 600 200 C 245.6839 200.63608 100 370.00038 100 560 L 100 1600 L 200 1600 L 400 1500 C 499.9998 1549.9999 571.08937 1592.5847 700 1600 C 849.7745 1600 1200 1519.9994 1200 1200 C 1200 880.00064 870 850 870 850 C 870 850 1100 749.99962 1100 560 C 1100 370.00038 849.9995 200 600 200 z M 600 300 C 719.99976 300 800 440.00022 800 550 C 800 659.99978 719.99976 800 600 800 L 500 800 L 500 900 L 600 900 L 700 900 C 819.99976 900 900 1030.0004 900 1200 C 900 1369.9996 819.99976 1500 700 1500 C 599.8606 1500.8995 499.9998 1449.9999 400 1400 L 400 550 C 400 440.00022 390.00042 300 600 300 z " /></g></svg>
