<?xml version="1.0" encoding="UTF-8" standalone="no"?>
<!-- Created with Inkscape (http://www.inkscape.org/) -->

<svg
   width="2000"
   height="2000"
   viewBox="0 0 2000 2000"
   version="1.1"
   id="svg1"
   inkscape:version="1.2.2 (732a01da63, 2022-12-09)"
   sodipodi:docname="977_theta-symbol.svg"
   xml:space="preserve"
   xmlns:inkscape="http://www.inkscape.org/namespaces/inkscape"
   xmlns:sodipodi="http://sodipodi.sourceforge.net/DTD/sodipodi-0.dtd"
   xmlns="http://www.w3.org/2000/svg"
   xmlns:svg="http://www.w3.org/2000/svg"><sodipodi:namedview
     id="namedview1"
     pagecolor="#ffffff"
     bordercolor="#000000"
     borderopacity="0.25"
     inkscape:showpageshadow="2"
     inkscape:pageopacity="0.0"
     inkscape:pagecheckerboard="0"
     inkscape:deskcolor="#d1d1d1"
     inkscape:document-units="px"
     showgrid="true"
     inkscape:zoom="0.55371508"
     inkscape:cx="1006.8355"
     inkscape:cy="1645.2505"
     inkscape:window-width="1920"
     inkscape:window-height="2066"
     inkscape:window-x="0"
     inkscape:window-y="0"
     inkscape:window-maximized="0"
     inkscape:current-layer="layer1-0"
     showguides="true"><inkscape:grid
       id="grid1"
       units="px"
       originx="0"
       originy="0"
       spacingx="25"
       spacingy="25"
       empcolor="#0099e5"
       empopacity="0.30196078"
       color="#0099e5"
       opacity="0.14901961"
       empspacing="4"
       dotted="false"
       gridanglex="30"
       gridanglez="30"
       visible="true" /></sodipodi:namedview><defs
     id="defs1" /><g
     inkscape:label="Layer 1"
     inkscape:groupmode="layer"
     id="layer1"><g
       inkscape:label="Layer 1"
       id="layer1-0"><path
         id="path124467-8"
         style="fill:#000000;fill-opacity:0.555319;stroke:none;stroke-width:1.18322px;stroke-linecap:butt;stroke-linejoin:miter;stroke-opacity:1"
         d="m 100,1100 c 0,200 157.24778,496.438 550,500 392.7522,-3.562 550,-280.0008 550,-700 H 900 c 0,371.9333 -100.0004,600 -250,600 -149.9997,0 -242.77607,-259.2325 -250,-400 z"
         sodipodi:nodetypes="ccccscc" /><path
         id="path124467-6"
         style="fill:#000000;fill-opacity:0.555319;stroke:none;stroke-width:1.18322px;stroke-linecap:butt;stroke-linejoin:miter;stroke-opacity:1"
         d="m 400,600 c 0,-150 100.0003,-300 250,-300 149.9996,0 250,228.0668 250,600 h 300 c 0,-419.99909 -150.0008,-700 -550,-700 -399.9992,0 -550,200 -550,400 0,250 275,375 500,375 225,0 700,0 700,0 V 825 c 0,0 -450,0 -650,0 -200,0 -250,-75 -250,-225 z"
         sodipodi:nodetypes="csccsc" /><path
         id="path124467-8-8"
         style="fill:#000000;fill-opacity:0.555319;stroke:none;stroke-width:1.18322px;stroke-linecap:butt;stroke-linejoin:miter;stroke-opacity:1"
         d="M 650 200 C 250.0012 200 100 400.0002 100 600 C 100 849.99975 375.00023 975 600 975 L 898.46875 975 C 885.80116 1302.2557 789.61213 1500 650 1500 C 500.00045 1500 407.22392 1240.7674 400 1100 L 100 1100 C 100 1299.9998 257.24817 1596.438 650 1600 C 1018.8607 1596.6547 1179.9739 1352.5977 1198.2129 975 L 1300 975 L 1300 825 L 1198.2891 825 C 1180.811 447.01157 1025.6791 200 650 200 z M 650 300 C 789.61213 300 885.80116 497.74437 898.46875 825 L 650 825 C 450.0002 825 400 749.99985 400 600 C 400 450.00015 500.00045 300 650 300 z " /></g></g></svg>
