<?xml version="1.0" encoding="UTF-8" standalone="no"?>
<!-- Created with Inkscape (http://www.inkscape.org/) -->

<svg
   width="2000"
   height="2000"
   viewBox="0 0 2000 2000"
   version="1.1"
   id="svg1"
   inkscape:version="1.2.2 (732a01da63, 2022-12-09)"
   sodipodi:docname="982_pi-symbol.svg"
   xml:space="preserve"
   xmlns:inkscape="http://www.inkscape.org/namespaces/inkscape"
   xmlns:sodipodi="http://sodipodi.sourceforge.net/DTD/sodipodi-0.dtd"
   xmlns="http://www.w3.org/2000/svg"
   xmlns:svg="http://www.w3.org/2000/svg"><sodipodi:namedview
     id="namedview1"
     pagecolor="#ffffff"
     bordercolor="#000000"
     borderopacity="0.25"
     inkscape:showpageshadow="2"
     inkscape:pageopacity="0.0"
     inkscape:pagecheckerboard="0"
     inkscape:deskcolor="#d1d1d1"
     inkscape:document-units="px"
     showgrid="true"
     inkscape:zoom="0.55371508"
     inkscape:cx="1026.7013"
     inkscape:cy="922.85729"
     inkscape:window-width="1920"
     inkscape:window-height="2066"
     inkscape:window-x="0"
     inkscape:window-y="0"
     inkscape:window-maximized="0"
     inkscape:current-layer="layer1"
     showguides="false"><inkscape:grid
       id="grid1"
       units="px"
       originx="0"
       originy="0"
       spacingx="25"
       spacingy="25"
       empcolor="#0099e5"
       empopacity="0.30196078"
       color="#0099e5"
       opacity="0.14901961"
       empspacing="4"
       dotted="false"
       gridanglex="30"
       gridanglez="30"
       visible="true" /></sodipodi:namedview><defs
     id="defs1" /><g
     inkscape:label="Layer 1"
     inkscape:groupmode="layer"
     id="layer1"><path
       style="fill:#000000;fill-opacity:0.56;stroke:none;stroke-width:1px;stroke-linecap:butt;stroke-linejoin:miter;stroke-opacity:0.56"
       d="m 1000,525 v 475 c 0,300 193.5489,499.2196 500,500 399.9987,1.0187 600,-200 600,-550 0,-350 -200,-450 -300,-450 h -200 v 100 c 0,0 200,50 200,350 0,300 -56.5779,450 -300,450 -138.2094,0 -207.2239,-88.5123 -200,-300 V 525 Z"
       id="path111890"
       sodipodi:nodetypes="ccszscczsccc" /><path
       style="fill:#000000;fill-opacity:0.56;stroke:none;stroke-width:1px;stroke-linecap:butt;stroke-linejoin:miter;stroke-opacity:0.56"
       d="M 1300,525 V 999.99995 C 1300,1300 1106.4511,1499.2195 800,1500 400.0013,1501.0187 200,1300 200,950 200,600 400,500 500,500 h 200 v 100 c 0,0 -200,50 -200,350 0,300 56.73475,458.7371 300,450 150.85128,-5.4179 207.2239,-88.5123 200,-300 V 525 Z"
       id="path111890-3"
       sodipodi:nodetypes="ccszscczsccc" /><rect
       style="opacity:0.489888;fill:#000000;fill-opacity:0.56;fill-rule:evenodd;stroke-width:100;stroke-linecap:round;stroke-linejoin:round;stroke-miterlimit:4.5;stroke-opacity:0.56;stop-color:#000000"
       id="rect602"
       width="2100"
       height="100"
       x="100"
       y="500" /><path
       id="path111890-5"
       style="fill:#000000;fill-opacity:0.56;stroke:none;stroke-width:1px;stroke-linecap:butt;stroke-linejoin:miter;stroke-opacity:0.56"
       d="M 100 500 L 100 600 L 307.10938 600 C 247.16848 669.2374 200 780.09888 200 950 C 200 1299.9996 400.0017 1501.0187 800 1500 C 944.67137 1499.6315 1064.1377 1454.9953 1150 1376.4512 C 1235.8623 1454.9953 1355.3286 1499.6316 1500 1500 C 1899.9983 1501.0187 2100 1299.9996 2100 950 C 2100 780.09888 2052.8315 669.2374 1992.8906 600 L 2200 600 L 2200 500 L 1800 500 L 1600 500 L 100 500 z M 700 600 L 1000 600 L 1000 1000 L 1000 1100 C 1007.2239 1311.4875 950.85113 1394.5821 800 1400 C 556.73499 1408.7371 500 1249.9997 500 950 C 500 650.0003 700 600 700 600 z M 1300 600 L 1600 600 C 1600 600 1800 650.0003 1800 950 C 1800 1249.9997 1743.4219 1400 1500 1400 C 1361.7907 1400 1292.7761 1311.4875 1300 1100 L 1300 1000 L 1300 600 z " /></g></svg>
