<?xml version="1.0" encoding="UTF-8" standalone="no"?>
<!-- Created with Inkscape (http://www.inkscape.org/) -->

<svg
   width="2000"
   height="2000"
   viewBox="0 0 2000 2000"
   version="1.1"
   id="svg1"
   inkscape:version="1.2.2 (732a01da63, 2022-12-09)"
   sodipodi:docname="983_kai-symbol.svg"
   xml:space="preserve"
   xmlns:inkscape="http://www.inkscape.org/namespaces/inkscape"
   xmlns:sodipodi="http://sodipodi.sourceforge.net/DTD/sodipodi-0.dtd"
   xmlns="http://www.w3.org/2000/svg"
   xmlns:svg="http://www.w3.org/2000/svg"><sodipodi:namedview
     id="namedview1"
     pagecolor="#ffffff"
     bordercolor="#000000"
     borderopacity="0.25"
     inkscape:showpageshadow="2"
     inkscape:pageopacity="0.0"
     inkscape:pagecheckerboard="0"
     inkscape:deskcolor="#d1d1d1"
     inkscape:document-units="px"
     showgrid="true"
     inkscape:zoom="0.55371508"
     inkscape:cx="936.40217"
     inkscape:cy="1462.8462"
     inkscape:window-width="1920"
     inkscape:window-height="2066"
     inkscape:window-x="0"
     inkscape:window-y="0"
     inkscape:window-maximized="0"
     inkscape:current-layer="layer1-0"
     showguides="true"><inkscape:grid
       id="grid1"
       units="px"
       originx="0"
       originy="0"
       spacingx="25"
       spacingy="25"
       empcolor="#0099e5"
       empopacity="0.30196078"
       color="#0099e5"
       opacity="0.14901961"
       empspacing="4"
       dotted="false"
       gridanglex="30"
       gridanglez="30"
       visible="true" /></sodipodi:namedview><defs
     id="defs1" /><g
     inkscape:label="Layer 1"
     inkscape:groupmode="layer"
     id="layer1"><g
       inkscape:label="Layer 1"
       id="layer1-0"><path
         id="path111890-3"
         style="fill:#000000;fill-opacity:0.56;stroke:none;stroke-width:1px;stroke-linecap:butt;stroke-linejoin:miter;stroke-opacity:0.56"
         d="m 300,600 c 99.9999,0 300,100.00035 300,450 0,335.0577 -183.4254,533.4483 -550,548.8945 v -99.7383 C 251.096,1484.8222 300,1328.2062 300,1050 300,750.0003 100,700 100,700 V 600 Z" /><path
         id="path111890-3-2"
         style="fill:#000000;fill-opacity:0.56;stroke:none;stroke-width:1px;stroke-linecap:butt;stroke-linejoin:miter;stroke-opacity:0.56"
         d="m 1100,1600 c -99.9999,0 -300,-100.0003 -300,-450 0,-335.0577 133.4254,-534.2921 500,-549.7383 V 700 c -201.096,14.334 -200,171.7938 -200,450 0,299.9997 200,350 200,350 v 100 z"
         sodipodi:nodetypes="ssccsccs" /><path
         id="path124467"
         style="fill:#000000;fill-opacity:0.555319;stroke:none;stroke-width:1px;stroke-linecap:butt;stroke-linejoin:miter;stroke-opacity:1"
         d="M 1100 1600 C 1100 1699.9998 1049.9998 1800 950 1800 C 850.0003 1800 700 1700 700 1700 L 700 1800 C 700 1800 850.0003 1900 950 1900 C 1049.9997 1900 1300 1899.9991 1300 1600 L 1100 1600 z " /><path
         style="fill:#000000;stroke:none;stroke-width:1px;stroke-linecap:butt;stroke-linejoin:miter;stroke-opacity:1;fill-opacity:0.56"
         d="M 50,1500 C 50,1400 1300,600.2617 1300,600.2617 v 100 C 1300,800.2617 50,1600 50,1600 Z"
         id="path21140"
         sodipodi:nodetypes="scscs" /><path
         id="path111890-3-6"
         style="fill:#000000;fill-opacity:0.56;stroke:none;stroke-width:1px;stroke-linecap:butt;stroke-linejoin:miter;stroke-opacity:0.56"
         d="M 100 600 L 100 700 C 100 700 300 750.0006 300 1050 C 300 1145.4421 294.24014 1226.5665 278.55859 1292.5527 C 145.21434 1392.1434 51.883479 1471.2343 50.150391 1499.1426 C 50.099098 1499.1463 50.051313 1499.1526 50 1499.1562 L 50 1500 L 50 1598.8945 L 50 1600 C 50 1600 51.862565 1598.7944 51.876953 1598.7852 C 333.49851 1586.4099 506.56072 1465.6645 571.11133 1257.7754 C 647.32148 1206.5795 725.35156 1153.542 801.10156 1101.0977 C 800.42862 1117.0907 800 1133.3285 800 1150 C 800 1499.9994 1000.0002 1600 1100 1600 C 1100 1699.9997 1049.9997 1800 950 1800 C 850.0004 1800 700 1700 700 1700 L 700 1800 C 700 1800 850.0004 1900 950 1900 C 1049.9996 1900 1300 1899.9988 1300 1600 L 1300 1500 C 1300 1500 1100 1449.9994 1100 1150 C 1100 1039.5393 1099.8751 948.19271 1112.2539 877.20312 C 1225.0672 791.07316 1300 724.69923 1300 700.26172 L 1300 700 L 1300 600.26172 C 1033.5223 611.49018 890.3413 719.92497 831.9668 906.9707 C 755.97258 957.74879 677.49246 1010.7997 599.75391 1064.1914 C 599.82894 1059.4557 600 1054.7918 600 1050 C 600 700.0007 399.9998 600 300 600 L 100 600 z " /></g></g></svg>
