<?xml version="1.0" encoding="UTF-8" standalone="no"?>
<!-- Created with Inkscape (http://www.inkscape.org/) -->

<svg
   width="1200"
   height="1200"
   viewBox="0 0 1200 1200"
   version="1.1"
   id="svg1"
   inkscape:version="1.2.2 (732a01da63, 2022-12-09)"
   sodipodi:docname="cyrillic_de-capital.svg"
   xml:space="preserve"
   xmlns:inkscape="http://www.inkscape.org/namespaces/inkscape"
   xmlns:sodipodi="http://sodipodi.sourceforge.net/DTD/sodipodi-0.dtd"
   xmlns="http://www.w3.org/2000/svg"
   xmlns:svg="http://www.w3.org/2000/svg"><sodipodi:namedview
     id="namedview1"
     pagecolor="#ffffff"
     bordercolor="#000000"
     borderopacity="0.25"
     inkscape:showpageshadow="2"
     inkscape:pageopacity="0.0"
     inkscape:pagecheckerboard="0"
     inkscape:deskcolor="#d1d1d1"
     inkscape:document-units="px"
     showgrid="true"
     inkscape:zoom="1.1116667"
     inkscape:cx="318.89055"
     inkscape:cy="774.51272"
     inkscape:window-width="1648"
     inkscape:window-height="1544"
     inkscape:window-x="6999"
     inkscape:window-y="43"
     inkscape:window-maximized="0"
     inkscape:current-layer="layer1-6-2"
     showguides="false"><inkscape:grid
       id="grid1"
       units="px"
       originx="0"
       originy="0"
       spacingx="12.5"
       spacingy="12.5"
       empcolor="#0099e5"
       empopacity="0.30196078"
       color="#0099e5"
       opacity="0.14901961"
       empspacing="8"
       dotted="false"
       gridanglex="30"
       gridanglez="30"
       visible="true" /></sodipodi:namedview><defs
     id="defs1" /><g
     inkscape:label="Layer 1"
     inkscape:groupmode="layer"
     id="layer1"><g
       inkscape:label="Layer 1"
       id="layer1-6"><path
         id="rect1"
         style="opacity:0.453441;fill:#000000;fill-opacity:0.576596;fill-rule:evenodd"
         d="M 225,400 100,775 C 67.671366,871.9859 49.99995,900 0,900 v 100 h 50 c 149.99985,0 192.40402,-102.21206 225,-200 L 375,500 h 125 v 500 H 700 V 500 400 Z"
         sodipodi:nodetypes="cscccsccccccc" /><path
         style="opacity:0.453441;fill:#000000;fill-opacity:0.576596;fill-rule:evenodd"
         d="M 800,1125 V 900 H 0 v 225 h 100 v -125 h 600 v 125 z"
         id="path2"
         sodipodi:nodetypes="ccccccccc" /></g><g
       inkscape:label="Layer 1"
       id="layer1-6-2"><path
         id="rect1-9"
         style="opacity:0.453441;fill:#000000;fill-opacity:0.576596;fill-rule:evenodd"
         d="M 225 400 L 100 775 C 67.671398 871.9858 49.9999 900 0 900 L 0 1000 L 0 1125 L 100 1125 L 100 1000 L 500 1000 L 700 1000 L 700 1125 L 800 1125 L 800 900 L 700 900 L 700 500 L 700 400 L 225 400 z M 375 500 L 500 500 L 500 900 L 232.64648 900 C 250.76295 869.17433 263.54703 834.3589 275 800 L 375 500 z " /></g></g></svg>
