<?xml version="1.0" encoding="UTF-8" standalone="no"?>
<!-- Created with Inkscape (http://www.inkscape.org/) -->

<svg
   width="1200"
   height="1200"
   viewBox="0 0 1200 1200"
   version="1.1"
   id="svg1"
   inkscape:version="1.2.2 (732a01da63, 2022-12-09)"
   sodipodi:docname="cyrillic_ze-capital.svg"
   xml:space="preserve"
   xmlns:inkscape="http://www.inkscape.org/namespaces/inkscape"
   xmlns:sodipodi="http://sodipodi.sourceforge.net/DTD/sodipodi-0.dtd"
   xmlns="http://www.w3.org/2000/svg"
   xmlns:svg="http://www.w3.org/2000/svg"><sodipodi:namedview
     id="namedview1"
     pagecolor="#ffffff"
     bordercolor="#000000"
     borderopacity="0.25"
     inkscape:showpageshadow="2"
     inkscape:pageopacity="0.0"
     inkscape:pagecheckerboard="0"
     inkscape:deskcolor="#d1d1d1"
     inkscape:document-units="px"
     showgrid="true"
     inkscape:zoom="1.1116667"
     inkscape:cx="496.55171"
     inkscape:cy="720.53971"
     inkscape:window-width="2373"
     inkscape:window-height="1866"
     inkscape:window-x="6799"
     inkscape:window-y="73"
     inkscape:window-maximized="0"
     inkscape:current-layer="layer1-6"
     showguides="true"><inkscape:grid
       id="grid1"
       units="px"
       originx="0"
       originy="0"
       spacingx="12.5"
       spacingy="12.5"
       empcolor="#0099e5"
       empopacity="0.30196078"
       color="#0099e5"
       opacity="0.14901961"
       empspacing="8"
       dotted="false"
       gridanglex="30"
       gridanglez="30"
       visible="true" /></sodipodi:namedview><defs
     id="defs1" /><g
     inkscape:label="Layer 1"
     inkscape:groupmode="layer"
     id="layer1"><g
       inkscape:label="Layer 1"
       id="layer1-6"><path
         id="path19625-9"
         style="fill:#000000;fill-opacity:0.555319;stroke:none;stroke-width:1.26492px;stroke-linecap:butt;stroke-linejoin:miter;stroke-opacity:1"
         d="M 266.66602,400.00001 C 66.666221,400.00001 0,425.00049 0,425.00049 v 99.99999 C 0,525.00048 66.666798,500 200,500 333.33319,500 400,518.75006 400,568.75001 400,606.24997 366.66592,625 266.66602,625 H 100 V 775 H 266.66602 C 366.66592,775 400,793.75004 400,831.25 400,881.24995 333.33319,900 200,900 66.666798,900 0,874.99952 0,874.99952 v 100 C 0,974.99952 66.666221,1000 266.66602,1000 466.66581,1000 600,931.2499 600,831.25 600,783.31076 545.4041,735.40403 475.41406,700 545.4041,664.59598 600,616.68925 600,568.75001 c 0,-99.99991 -133.33419,-168.75 -333.33398,-168.75 z"
         sodipodi:nodetypes="sccsssccsssccsscss" /></g></g></svg>
