<?xml version="1.0" encoding="UTF-8" standalone="no"?>
<!-- Created with Inkscape (http://www.inkscape.org/) -->

<svg
   width="1200"
   height="1200"
   viewBox="0 0 1200 1200"
   version="1.1"
   id="svg1"
   inkscape:version="1.2.2 (732a01da63, 2022-12-09)"
   sodipodi:docname="cyrillic_e-capital.svg"
   xml:space="preserve"
   xmlns:inkscape="http://www.inkscape.org/namespaces/inkscape"
   xmlns:sodipodi="http://sodipodi.sourceforge.net/DTD/sodipodi-0.dtd"
   xmlns="http://www.w3.org/2000/svg"
   xmlns:svg="http://www.w3.org/2000/svg"><sodipodi:namedview
     id="namedview1"
     pagecolor="#ffffff"
     bordercolor="#000000"
     borderopacity="0.25"
     inkscape:showpageshadow="2"
     inkscape:pageopacity="0.0"
     inkscape:pagecheckerboard="0"
     inkscape:deskcolor="#d1d1d1"
     inkscape:document-units="px"
     showgrid="true"
     inkscape:zoom="1.1116667"
     inkscape:cx="502.39879"
     inkscape:cy="774.51272"
     inkscape:window-width="2372"
     inkscape:window-height="1866"
     inkscape:window-x="6275"
     inkscape:window-y="43"
     inkscape:window-maximized="0"
     inkscape:current-layer="layer1"
     showguides="false"><inkscape:grid
       id="grid1"
       units="px"
       originx="0"
       originy="0"
       spacingx="12.5"
       spacingy="12.5"
       empcolor="#0099e5"
       empopacity="0.30196078"
       color="#0099e5"
       opacity="0.14901961"
       empspacing="8"
       dotted="false"
       gridanglex="30"
       gridanglez="30"
       visible="true" /></sodipodi:namedview><defs
     id="defs1" /><g
     inkscape:label="Layer 1"
     inkscape:groupmode="layer"
     id="layer1"><path
       id="path2-3"
       style="fill:#000000;fill-opacity:0.555319;fill-rule:evenodd;stroke-width:0.865915"
       d="m 0,800 h 100 c 0,25 73.01349,95.50225 200,100 124.91886,4.42452 200,-87.5 200,-200 C 500,587.5 425,500 300,500 175,500 100,575 100,600 H 0 V 500 C 65.4982,458.47302 154.1665,400 300,400 500,400 700,531.25 700,700 700,868.75 491.9282,1000 300,1000 150,1000 65.66,941.0832 0,900 Z"
       sodipodi:nodetypes="ccszscccszscc" /><rect
       style="opacity:0.453441;fill:#000000;fill-opacity:0.576596;fill-rule:evenodd"
       id="rect1-0"
       width="375"
       height="100"
       x="200"
       y="600" /><path
       id="path2-3-5"
       style="fill:#000000;fill-opacity:0.555319;fill-rule:evenodd;stroke-width:0.865915"
       d="M 300 400 C 154.16665 400 65.498135 458.47306 0 500 L 0 600 L 100 600 C 100 575.00003 175.00012 500 300 500 C 384.18297 500 445.64076 539.71885 476.83203 600 L 200 600 L 200 700 L 500 700 C 500 812.49989 424.91874 904.42452 300 900 C 173.01362 895.50225 100 824.99997 100 800 L 0 800 L 0 900 C 65.659934 941.08316 150.00015 1000 300 1000 C 491.92801 1000 700 868.74983 700 700 C 700 531.25017 499.9998 400 300 400 z " /></g></svg>
