<?xml version="1.0" encoding="UTF-8" standalone="no"?>
<!-- Created with Inkscape (http://www.inkscape.org/) -->

<svg
   width="1200"
   height="1200"
   viewBox="0 0 1200 1200"
   version="1.1"
   id="svg1"
   inkscape:version="1.2.2 (732a01da63, 2022-12-09)"
   sodipodi:docname="cyrillic_yu-capital.svg"
   xml:space="preserve"
   xmlns:inkscape="http://www.inkscape.org/namespaces/inkscape"
   xmlns:sodipodi="http://sodipodi.sourceforge.net/DTD/sodipodi-0.dtd"
   xmlns="http://www.w3.org/2000/svg"
   xmlns:svg="http://www.w3.org/2000/svg"><sodipodi:namedview
     id="namedview1"
     pagecolor="#ffffff"
     bordercolor="#000000"
     borderopacity="0.25"
     inkscape:showpageshadow="2"
     inkscape:pageopacity="0.0"
     inkscape:pagecheckerboard="0"
     inkscape:deskcolor="#d1d1d1"
     inkscape:document-units="px"
     showgrid="true"
     inkscape:zoom="1.1116667"
     inkscape:cx="496.55171"
     inkscape:cy="720.53971"
     inkscape:window-width="2373"
     inkscape:window-height="1866"
     inkscape:window-x="6799"
     inkscape:window-y="73"
     inkscape:window-maximized="0"
     inkscape:current-layer="layer1-6"
     showguides="true"><inkscape:grid
       id="grid1"
       units="px"
       originx="0"
       originy="0"
       spacingx="12.5"
       spacingy="12.5"
       empcolor="#0099e5"
       empopacity="0.30196078"
       color="#0099e5"
       opacity="0.14901961"
       empspacing="8"
       dotted="false"
       gridanglex="30"
       gridanglez="30"
       visible="true" /></sodipodi:namedview><defs
     id="defs1" /><g
     inkscape:label="Layer 1"
     inkscape:groupmode="layer"
     id="layer1"><g
       inkscape:label="Layer 1"
       id="layer1-6"><path
         id="rect365"
         style="opacity:0.504444;fill:#000000;fill-opacity:0.56;stroke-width:4;stroke-linecap:square;paint-order:stroke markers fill"
         d="m 0,400 v 600 H 200 V 775 H 375 V 625 H 200 V 400 Z"
         sodipodi:nodetypes="ccccccccc" /><path
         id="path2-8-6"
         style="fill:#000000;fill-opacity:0.555319;fill-rule:evenodd;stroke-width:0.999873"
         d="m 700,400 c -224.99977,0 -400,100.0002 -400,300 0,199.9998 175.00023,300 400,300 224.99977,0 400,-100.0002 400,-300 0,-199.9998 -175.00023,-300 -400,-300 z m 0,100 c 124.99987,0 200,75.00013 200,200 0,124.99988 -75.00664,198.7234 -200,200 C 575.00664,898.7234 500,824.99987 500,700 500,575.00013 575.00013,500 700,500 Z" /><path
         id="rect365-0"
         style="opacity:0.504444;fill:#000000;fill-opacity:0.56;stroke-width:4;stroke-linecap:square;paint-order:stroke markers fill"
         d="M 0 400 L 0 1000 L 200 1000 L 200 775 L 309.23438 775 C 347.927 924.95931 505.17095 1000 700 1000 C 924.99955 1000 1100 899.9996 1100 700 C 1100 500.0004 924.99955 400 700 400 C 505.17095 400 347.927 475.04069 309.23438 625 L 200 625 L 200 400 L 0 400 z M 700 500 C 824.99975 500 900 575.00025 900 700 C 900 824.99976 824.99324 898.7234 700 900 C 575.00676 898.7234 500 824.99975 500 700 C 500 575.00025 575.00025 500 700 500 z " /></g></g></svg>
