<?xml version="1.0" encoding="UTF-8" standalone="no"?>
<!-- Created with Inkscape (http://www.inkscape.org/) -->

<svg
   width="1200"
   height="1200"
   viewBox="0 0 1200 1200"
   version="1.1"
   id="svg1"
   inkscape:version="1.2.2 (732a01da63, 2022-12-09)"
   sodipodi:docname="cyrillic_ya-capital.svg"
   xml:space="preserve"
   xmlns:inkscape="http://www.inkscape.org/namespaces/inkscape"
   xmlns:sodipodi="http://sodipodi.sourceforge.net/DTD/sodipodi-0.dtd"
   xmlns="http://www.w3.org/2000/svg"
   xmlns:svg="http://www.w3.org/2000/svg"><sodipodi:namedview
     id="namedview1"
     pagecolor="#ffffff"
     bordercolor="#000000"
     borderopacity="0.25"
     inkscape:showpageshadow="2"
     inkscape:pageopacity="0.0"
     inkscape:pagecheckerboard="0"
     inkscape:deskcolor="#d1d1d1"
     inkscape:document-units="px"
     showgrid="true"
     inkscape:zoom="1.1116667"
     inkscape:cx="496.55171"
     inkscape:cy="720.53971"
     inkscape:window-width="2373"
     inkscape:window-height="1866"
     inkscape:window-x="6799"
     inkscape:window-y="73"
     inkscape:window-maximized="0"
     inkscape:current-layer="layer1-6"
     showguides="true"><inkscape:grid
       id="grid1"
       units="px"
       originx="0"
       originy="0"
       spacingx="12.5"
       spacingy="12.5"
       empcolor="#0099e5"
       empopacity="0.30196078"
       color="#0099e5"
       opacity="0.14901961"
       empspacing="8"
       dotted="false"
       gridanglex="30"
       gridanglez="30"
       visible="true" /></sodipodi:namedview><defs
     id="defs1" /><g
     inkscape:label="Layer 1"
     inkscape:groupmode="layer"
     id="layer1"><g
       inkscape:label="Layer 1"
       id="layer1-6"><g
         inkscape:label="Layer 1"
         id="layer1-7"
         transform="matrix(-1,0,0,1,600,0)"><path
           style="fill:#000000;fill-opacity:0.555319;fill-rule:evenodd;stroke:none;stroke-width:1px;stroke-linecap:butt;stroke-linejoin:miter;stroke-opacity:1"
           d="m 275,800 200,200 H 600 V 925 L 375,700 Z"
           id="path18005" /><path
           id="path2-8-0"
           style="fill:#000000;fill-opacity:0.555319;fill-rule:evenodd;stroke-width:0.999873"
           d="m 0,400 v 600 H 200 V 800 H 300 C 474.99982,800 600,749.99993 600,600 600,450.00007 474.99982,400 300,400 H 200 Z m 250,100 c 50,-3e-5 150,6.36081 150,100 0,100.00003 -100,100 -150,100 H 200 V 500 Z"
           sodipodi:nodetypes="ccccszscccscccc" /><path
           id="path18005-4"
           style="fill:#000000;fill-opacity:0.555319;fill-rule:evenodd;stroke:none;stroke-width:1px;stroke-linecap:butt;stroke-linejoin:miter;stroke-opacity:1"
           d="m 0,400 v 600 H 200 V 800 h 75 l 200,200 H 600 V 925 L 456.23242,781.23242 C 544.7007,755.21665 600,699.72931 600,600 600,450.00022 474.99965,400 300,400 H 200 Z m 200,100 h 50 c 49.99995,-3e-5 150,6.3609 150,100 0,99.99993 -100.00005,100 -150,100 h -50 z" /></g></g></g></svg>
