<?xml version="1.0" encoding="UTF-8" standalone="no"?>
<!-- Created with Inkscape (http://www.inkscape.org/) -->

<svg
   width="2000"
   height="2000"
   viewBox="0 0 2000 2000"
   version="1.1"
   id="svg1"
   inkscape:version="1.2.2 (732a01da63, 2022-12-09)"
   sodipodi:docname="ascii_35_dollar-sign.svg"
   xml:space="preserve"
   xmlns:inkscape="http://www.inkscape.org/namespaces/inkscape"
   xmlns:sodipodi="http://sodipodi.sourceforge.net/DTD/sodipodi-0.dtd"
   xmlns="http://www.w3.org/2000/svg"
   xmlns:svg="http://www.w3.org/2000/svg"><sodipodi:namedview
     id="namedview1"
     pagecolor="#ffffff"
     bordercolor="#000000"
     borderopacity="0.25"
     inkscape:showpageshadow="2"
     inkscape:pageopacity="0.0"
     inkscape:pagecheckerboard="0"
     inkscape:deskcolor="#d1d1d1"
     inkscape:document-units="px"
     showgrid="true"
     inkscape:zoom="0.78606708"
     inkscape:cx="643.07489"
     inkscape:cy="596.6412"
     inkscape:window-width="3840"
     inkscape:window-height="2066"
     inkscape:window-x="-11"
     inkscape:window-y="-11"
     inkscape:window-maximized="1"
     inkscape:current-layer="layer1"
     showguides="false"><inkscape:grid
       id="grid1"
       units="px"
       originx="0"
       originy="0"
       spacingx="10"
       spacingy="10"
       empcolor="#0099e5"
       empopacity="0.30196078"
       color="#0099e5"
       opacity="0.14901961"
       empspacing="10"
       dotted="false"
       gridanglex="30"
       gridanglez="30"
       visible="true" /></sodipodi:namedview><defs
     id="defs1" /><g
     inkscape:label="Layer 1"
     inkscape:groupmode="layer"
     id="layer1"><path
       style="fill:#000000;fill-opacity:0.555319;stroke:none;stroke-width:1px;stroke-linecap:butt;stroke-linejoin:miter;stroke-opacity:1"
       d="M 200,1100 H 100 v 500 h 100 v -200 c 0,0 279.31035,212.2489 550,210 349.9879,-2.9077 650,-220 650,-460 C 1400,880 1087.0387,786.76231 750,700 440.0297,620.20578 300,530 300,450 c 0,-77.35136 100,-150 400,-150 390,0 500,250 550,300 h 50 V 200 h -100 v 150 c 0,0 -180,-160 -500,-160 -380,0 -600,160 -600,360 0,220 187.16123,268.72888 460,350 470,140 640,240 640,380 0,100 -200,220 -450,220 -250,0 -490,-200 -550,-250 z"
       id="path73468"
       sodipodi:nodetypes="cccccssssscccccssssscc" /><rect
       style="opacity:0.510112;fill:#000000;fill-opacity:0.555319;fill-rule:evenodd;stroke-width:100;stroke-linecap:round;stroke-linejoin:round;stroke-miterlimit:4.5;stop-color:#000000"
       id="rect79886"
       width="200"
       height="1800"
       x="600"
       y="0" /><path
       id="path73468-4"
       style="fill:#000000;fill-opacity:0.555319;stroke:none;stroke-width:1px;stroke-linecap:butt;stroke-linejoin:miter;stroke-opacity:1"
       d="M 600 0 L 600 194.38086 C 281.9752 220.12395 100 368.34555 100 550 C 100 769.99978 287.1615 818.72896 560 900 C 573.88223 904.13513 586.63787 908.12596 600 912.19336 L 600 1477.7773 C 409.7912 1424.4572 247.77701 1289.8142 200 1250 L 200 1100 L 100 1100 L 100 1600 L 200 1600 L 200 1400 C 200 1400 385.1251 1540.6264 600 1591.7148 L 600 1800 L 800 1800 L 800 1607.9707 C 1128.0637 1586.0406 1400 1378.4753 1400 1150 C 1400 893.53302 1117.1636 796.73728 800 713.30078 L 800 305.96094 C 1109.5457 344.05666 1204.5683 554.56833 1250 600 L 1300 600 L 1300 200 L 1200 200 L 1200 350 C 1200 350 1057.0543 223.49043 800 195.64258 L 800 0 L 600 0 z M 600 303.10938 L 600 656.2793 C 394.63334 588.24458 300 515.68655 300 450 C 300 381.99263 377.43925 317.66911 600 303.10938 z M 800 977.40625 C 1089.1921 1080.2153 1200 1167.1169 1200 1280 C 1200 1373.2277 1026.1145 1483.743 800 1498.2969 L 800 977.40625 z " /></g></svg>
