<?xml version="1.0" encoding="UTF-8" standalone="no"?>
<!-- Created with Inkscape (http://www.inkscape.org/) -->

<svg
   width="2000"
   height="2000"
   viewBox="0 0 2000 2000"
   version="1.1"
   id="svg1"
   inkscape:version="1.2.1 (9c6d41e410, 2022-07-14)"
   sodipodi:docname="ascii_57_9.svg"
   xml:space="preserve"
   xmlns:inkscape="http://www.inkscape.org/namespaces/inkscape"
   xmlns:sodipodi="http://sodipodi.sourceforge.net/DTD/sodipodi-0.dtd"
   xmlns="http://www.w3.org/2000/svg"
   xmlns:svg="http://www.w3.org/2000/svg"><sodipodi:namedview
     id="namedview1"
     pagecolor="#ffffff"
     bordercolor="#000000"
     borderopacity="0.25"
     inkscape:showpageshadow="2"
     inkscape:pageopacity="0.0"
     inkscape:pagecheckerboard="0"
     inkscape:deskcolor="#d1d1d1"
     inkscape:document-units="px"
     showgrid="true"
     inkscape:zoom="0.39303354"
     inkscape:cx="180.64616"
     inkscape:cy="552.11573"
     inkscape:window-width="2560"
     inkscape:window-height="1377"
     inkscape:window-x="1072"
     inkscape:window-y="-8"
     inkscape:window-maximized="1"
     inkscape:current-layer="layer1"
     showguides="false"><inkscape:grid
       id="grid1"
       units="px"
       originx="0"
       originy="0"
       spacingx="10"
       spacingy="10"
       empcolor="#0099e5"
       empopacity="0.30196078"
       color="#0099e5"
       opacity="0.14901961"
       empspacing="10"
       dotted="false"
       gridanglex="30"
       gridanglez="30"
       visible="true" /></sodipodi:namedview><defs
     id="defs1" /><g
     inkscape:label="Layer 1"
     inkscape:groupmode="layer"
     id="layer1"><path
       id="path403-1"
       style="fill:#000000;fill-opacity:0.555319;fill-rule:evenodd;stroke:none;stroke-width:0.842234px;stroke-linecap:butt;stroke-linejoin:miter;stroke-opacity:1"
       d="m 1100,950 c -100,100 -199.99996,150 -399.99996,150 -353.56632,0.6361 -600.899516,-273.31332 -600.00002,-450 1.1201,-219.9972 300,-460 650.00002,-460 C 1100,190 1410,300 1410,900 c 0,600 -426.43366,709.3639 -779.99998,710 -240,0 -480,-110 -480,-260 0,-90 100,-150 200,-150 100,0 170,60 170,130 0,50 -45,100 -120,100 -75,0 -100,-25 -125,-75 0,125 195,145 355,145 C 905.00004,1500 1100,1425 1100,1250 V 550 c 0,-200 -83.7331,-251.7991 -349.99996,-250 -266.26692,1.7991 -350.00002,50 -350.00002,250 v 200 c 0,175 25,249.99998 300.00002,249.99998 260,0 345.39726,-172.90853 399.99996,-259.99998 z"
       sodipodi:nodetypes="cszssccsssscszscsscc" /></g></svg>
