<?xml version="1.0" encoding="UTF-8" standalone="no"?>
<!-- Created with Inkscape (http://www.inkscape.org/) -->

<svg
   width="2000"
   height="2000"
   viewBox="0 0 2000 2000"
   version="1.1"
   id="svg1"
   inkscape:version="1.2.2 (732a01da63, 2022-12-09)"
   sodipodi:docname="ascii_81_Q.svg"
   xml:space="preserve"
   xmlns:inkscape="http://www.inkscape.org/namespaces/inkscape"
   xmlns:sodipodi="http://sodipodi.sourceforge.net/DTD/sodipodi-0.dtd"
   xmlns="http://www.w3.org/2000/svg"
   xmlns:svg="http://www.w3.org/2000/svg"><sodipodi:namedview
     id="namedview1"
     pagecolor="#ffffff"
     bordercolor="#000000"
     borderopacity="0.25"
     inkscape:showpageshadow="2"
     inkscape:pageopacity="0.0"
     inkscape:pagecheckerboard="0"
     inkscape:deskcolor="#d1d1d1"
     inkscape:document-units="px"
     showgrid="true"
     inkscape:zoom="0.78606706"
     inkscape:cx="519.67576"
     inkscape:cy="985.92097"
     inkscape:window-width="3840"
     inkscape:window-height="2066"
     inkscape:window-x="-11"
     inkscape:window-y="-11"
     inkscape:window-maximized="1"
     inkscape:current-layer="layer1"
     showguides="false"><inkscape:grid
       id="grid1"
       units="px"
       originx="0"
       originy="0"
       spacingx="10"
       spacingy="10"
       empcolor="#0099e5"
       empopacity="0.30196078"
       color="#0099e5"
       opacity="0.14901961"
       empspacing="10"
       dotted="false"
       gridanglex="30"
       gridanglez="30"
       visible="true" /></sodipodi:namedview><defs
     id="defs1" /><g
     inkscape:label="Layer 1"
     inkscape:groupmode="layer"
     id="layer1"><path
       id="path48264"
       style="fill:#000000;fill-opacity:0.555319;fill-rule:evenodd;stroke:none;stroke-width:1px;stroke-linecap:butt;stroke-linejoin:miter;stroke-opacity:1"
       d="m 900,190 c -446.02649,4.49775 -800,360.00037 -800,710 0,349.9996 350,710 800,710 450,0 800,-360.0004 800,-710 0,-349.99963 -353.9735,-714.49775 -800,-710 z m 0,110 c 299.9997,0 400,300.0003 400,600 0,299.9997 -98.3511,600 -400,600 -301.6489,0 -400,-300.0003 -400,-600 0,-299.9997 100.0003,-600 400,-600 z"
       sodipodi:nodetypes="zzzzzzzzzz" /><path
       style="fill:#000000;fill-opacity:0.555319;stroke:none;stroke-width:1px;stroke-linecap:butt;stroke-linejoin:miter;stroke-opacity:1"
       d="m 1350,1800 c 250,0 350,-130 350,-130 v -100 c 0,0 -104.6394,130 -300,130 -170,0 -200,-90 -200,-200 0,-240 -160,-300 -350,-300 -150,0 -250,170 -250,170 v 100 c 0,0 100,-170 250,-170 120,0 150,40 150,200 0,145.5321 0,300 350,300 z"
       id="path64542"
       sodipodi:nodetypes="sccsssccsss" /><path
       id="path48264-1"
       style="fill:#000000;fill-opacity:0.555319;fill-rule:evenodd;stroke:none;stroke-width:1px;stroke-linecap:butt;stroke-linejoin:miter;stroke-opacity:1"
       d="M 900 190 C 453.97396 194.49775 100 550.00072 100 900 C 100 1249.9993 450.00045 1610 900 1610 C 935.65099 1610 970.588 1607.4992 1004.8594 1603.1641 C 1019.9636 1710.2524 1083.2913 1800 1350 1800 C 1599.9997 1800 1700 1670 1700 1670 L 1700 1570 C 1700 1570 1595.3604 1700 1400 1700 C 1258.2354 1700 1213.952 1637.3315 1203.1113 1552.752 C 1497.7145 1437.6325 1700 1166.0147 1700 900 C 1700 550.00072 1346.0261 185.50225 900 190 z M 900 300 C 1199.9994 300 1300 600.0006 1300 900 C 1300 1075.4312 1266.2732 1250.758 1178.0234 1366.1992 C 1127.9395 1236.4754 998.09207 1200 850 1200 C 728.76803 1200 641.2527 1309.8123 611.73828 1352.4062 C 531.05065 1237.061 500 1068.536 500 900 C 500 600.0006 600.0006 300 900 300 z M 850 1300 C 966.71627 1300 998.19927 1338.1802 999.83984 1487.4727 C 969.33627 1495.5813 936.168 1500 900 1500 C 793.86609 1500 712.99141 1462.7533 652.62109 1401.543 C 696.42717 1354.3121 765.20515 1300 850 1300 z " /></g></svg>
