<?xml version="1.0" encoding="UTF-8" standalone="no"?>
<!-- Created with Inkscape (http://www.inkscape.org/) -->

<svg
   width="2000"
   height="2000"
   viewBox="0 0 2000 2000"
   version="1.1"
   id="svg1"
   inkscape:version="1.2.2 (732a01da63, 2022-12-09)"
   sodipodi:docname="ascii_82_R.svg"
   xml:space="preserve"
   xmlns:inkscape="http://www.inkscape.org/namespaces/inkscape"
   xmlns:sodipodi="http://sodipodi.sourceforge.net/DTD/sodipodi-0.dtd"
   xmlns="http://www.w3.org/2000/svg"
   xmlns:svg="http://www.w3.org/2000/svg"><sodipodi:namedview
     id="namedview1"
     pagecolor="#ffffff"
     bordercolor="#000000"
     borderopacity="0.25"
     inkscape:showpageshadow="2"
     inkscape:pageopacity="0.0"
     inkscape:pagecheckerboard="0"
     inkscape:deskcolor="#d1d1d1"
     inkscape:document-units="px"
     showgrid="true"
     inkscape:zoom="0.78606706"
     inkscape:cx="568.0177"
     inkscape:cy="1010.0919"
     inkscape:window-width="3840"
     inkscape:window-height="2066"
     inkscape:window-x="-11"
     inkscape:window-y="-11"
     inkscape:window-maximized="1"
     inkscape:current-layer="layer1"
     showguides="false"><inkscape:grid
       id="grid1"
       units="px"
       originx="0"
       originy="0"
       spacingx="10"
       spacingy="10"
       empcolor="#0099e5"
       empopacity="0.30196078"
       color="#0099e5"
       opacity="0.14901961"
       empspacing="10"
       dotted="false"
       gridanglex="30"
       gridanglez="30"
       visible="true" /></sodipodi:namedview><defs
     id="defs1" /><g
     inkscape:label="Layer 1"
     inkscape:groupmode="layer"
     id="layer1"><path
       id="path48264-2"
       style="fill:#000000;fill-opacity:0.555319;fill-rule:evenodd;stroke:none;stroke-width:1px;stroke-linecap:butt;stroke-linejoin:miter;stroke-opacity:1"
       d="m 1000,1000 c 250,0 495.5022,-130.73462 500,-390 4.4978,-259.26538 -250,-410 -500,-410 H 99.99996 V 300 H 300 V 1500 H 99.99996 v 100 H 900 V 1500 H 600 V 1000 Z M 600,300 h 400 c 120,0 200,140 200,300 0,160 -80,300.00001 -200,300.00001 H 600 Z"
       sodipodi:nodetypes="czsccccccccccccszscc" /><path
       style="fill:#000000;stroke:none;stroke-width:1px;stroke-linecap:butt;stroke-linejoin:miter;stroke-opacity:1;fill-opacity:0.55531901"
       d="m 1700,1600 h -300 c -90,0 -201.1538,-100.0033 -200,-300 0.8996,-155.922 -50,-300 -200,-300 V 900 c 150,0 500,60 500,400 0,200 100,200 200,200 z"
       id="path69743"
       sodipodi:nodetypes="cssccscc" /><path
       id="path48264-2-8"
       style="fill:#000000;fill-opacity:0.555319;fill-rule:evenodd;stroke:none;stroke-width:1px;stroke-linecap:butt;stroke-linejoin:miter;stroke-opacity:1"
       d="M 100 200 L 100 300 L 300 300 L 300 1500 L 100 1500 L 100 1600 L 900 1600 L 900 1500 L 600 1500 L 600 1000 L 1000 1000 C 1149.9998 1000 1200.8996 1144.0782 1200 1300 C 1198.8462 1499.9965 1310.0001 1600 1400 1600 L 1700 1600 L 1700 1500 C 1600.0001 1500 1500 1499.9998 1500 1300 C 1500 1104.0879 1383.7696 1001.2514 1256.5781 949.18164 C 1395.1169 889.17213 1497.1183 776.10858 1500 610 C 1504.4978 350.73488 1249.9997 200 1000 200 L 100 200 z M 600 300 L 1000 300 C 1119.9999 300 1200 440.00016 1200 600 C 1200 759.99984 1119.9999 900 1000 900 L 600 900 L 600 300 z " /></g></svg>
