<?xml version="1.0" encoding="UTF-8" standalone="no"?>
<!-- Created with Inkscape (http://www.inkscape.org/) -->

<svg
   width="2000"
   height="2000"
   viewBox="0 0 2000 2000"
   version="1.1"
   id="svg1"
   inkscape:version="1.2.2 (732a01da63, 2022-12-09)"
   sodipodi:docname="ascii_121_y.svg"
   xml:space="preserve"
   xmlns:inkscape="http://www.inkscape.org/namespaces/inkscape"
   xmlns:sodipodi="http://sodipodi.sourceforge.net/DTD/sodipodi-0.dtd"
   xmlns="http://www.w3.org/2000/svg"
   xmlns:svg="http://www.w3.org/2000/svg"><sodipodi:namedview
     id="namedview1"
     pagecolor="#ffffff"
     bordercolor="#000000"
     borderopacity="0.25"
     inkscape:showpageshadow="2"
     inkscape:pageopacity="0.0"
     inkscape:pagecheckerboard="0"
     inkscape:deskcolor="#d1d1d1"
     inkscape:document-units="px"
     showgrid="true"
     inkscape:zoom="1.1116667"
     inkscape:cx="371.06446"
     inkscape:cy="1757.7211"
     inkscape:window-width="3840"
     inkscape:window-height="2066"
     inkscape:window-x="-11"
     inkscape:window-y="-11"
     inkscape:window-maximized="1"
     inkscape:current-layer="layer1"
     showguides="false"><inkscape:grid
       id="grid1"
       units="px"
       originx="0"
       originy="0"
       spacingx="25"
       spacingy="25"
       empcolor="#0099e5"
       empopacity="0.30196078"
       color="#0099e5"
       opacity="0.14901961"
       empspacing="4"
       dotted="false"
       gridanglex="30"
       gridanglez="30"
       visible="true" /></sodipodi:namedview><defs
     id="defs1" /><g
     inkscape:label="Layer 1"
     inkscape:groupmode="layer"
     id="layer1"><path
       style="fill:#000000;fill-opacity:0.555319;stroke:none;stroke-width:1px;stroke-linecap:butt;stroke-linejoin:miter;stroke-opacity:1"
       d="M 750,1600 300,700 H 100 V 600 H 800 V 700 H 600 l 375,750 375,-750 H 1100 V 600 h 600 V 700 H 1450 L 950,1700 Z"
       id="path157102"
       sodipodi:nodetypes="cccccccccccccccc" /><path
       style="fill:#000000;fill-opacity:0.555319;fill-rule:evenodd;stroke:none;stroke-width:0.688846px;stroke-linecap:butt;stroke-linejoin:miter;stroke-opacity:1"
       d="m 950,1700 c -50,100 -248.7257,300.4498 -550,300 -249.9997,-0.3732 -300,-128.5688 -300,-225 0,-97.8289 75,-125 150,-125 117.784,0 150,50 150,100 0,115 -120,105 -120,105 v 0 c 0,0 19.8603,45.8995 120,45 179.9927,-1.6169 425,-150 350,-300 z"
       id="path8529-7"
       sodipodi:nodetypes="cssssccscc" /><path
       id="path157102-9"
       style="fill:#000000;fill-opacity:0.555319;stroke:none;stroke-width:1px;stroke-linecap:butt;stroke-linejoin:miter;stroke-opacity:1"
       d="m 100,600 v 100 h 200 l 450,900 c 74.99992,149.9998 -170.00748,298.3831 -350,300 -100.1396,0.8995 -120,-45 -120,-45 0,0 120,9.9999 120,-105 0,-49.9999 -32.21612,-100 -150,-100 -74.99993,0 -150,27.1712 -150,125 0,96.4311 50.00055,224.6268 300,225 301.274,0.4498 500.00005,-200.0001 550,-300 L 1450,700 h 250 V 600 h -600 v 100 h 250 L 975,1450 600,700 H 800 V 600 Z"
       sodipodi:nodetypes="cccsscsssssccccccccccc" /></g></svg>
