<?xml version="1.0" encoding="UTF-8" standalone="no"?>
<!-- Created with Inkscape (http://www.inkscape.org/) -->

<svg
   width="2000"
   height="2000"
   viewBox="0 0 2000 2000"
   version="1.1"
   id="svg1"
   inkscape:version="1.3 (0e150ed6c4, 2023-07-21)"
   sodipodi:docname="ascii_97_a.svg"
   xml:space="preserve"
   xmlns:inkscape="http://www.inkscape.org/namespaces/inkscape"
   xmlns:sodipodi="http://sodipodi.sourceforge.net/DTD/sodipodi-0.dtd"
   xmlns="http://www.w3.org/2000/svg"
   xmlns:svg="http://www.w3.org/2000/svg"><sodipodi:namedview
     id="namedview1"
     pagecolor="#ffffff"
     bordercolor="#000000"
     borderopacity="0.25"
     inkscape:showpageshadow="2"
     inkscape:pageopacity="0.0"
     inkscape:pagecheckerboard="0"
     inkscape:deskcolor="#d1d1d1"
     inkscape:document-units="px"
     showgrid="true"
     inkscape:zoom="0.55583335"
     inkscape:cx="664.7676"
     inkscape:cy="1067.7661"
     inkscape:window-width="2560"
     inkscape:window-height="1494"
     inkscape:window-x="-11"
     inkscape:window-y="-11"
     inkscape:window-maximized="1"
     inkscape:current-layer="layer1"
     showguides="false"><inkscape:grid
       id="grid1"
       units="px"
       originx="0"
       originy="0"
       spacingx="10"
       spacingy="10"
       empcolor="#0099e5"
       empopacity="0.30196078"
       color="#0099e5"
       opacity="0.14901961"
       empspacing="10"
       dotted="false"
       gridanglex="30"
       gridanglez="30"
       visible="true" /></sodipodi:namedview><defs
     id="defs1" /><g
     inkscape:label="Layer 1"
     inkscape:groupmode="layer"
     id="layer1"><path
       style="fill:#000000;fill-opacity:0.555319;stroke:none;stroke-width:1px;stroke-linecap:butt;stroke-linejoin:miter;stroke-opacity:1"
       d="m 1200.0001,1025 c 0,-320 -300,-430 -600.0001,-425 -224.96876,3.74948 -399.3639,101.05535 -400,200 -0.6428,99.99793 70,130 145,130 117.784,0 150,-50 150,-100 0,-115 -120,-105 -120,-105 59.12545,-14.73852 127.02774,-25 225,-25 175.0001,0 300.0001,25 300.0001,175 L 900,1210 c -5e-5,175 140,390 300,390 160,0 200,-150 200,-150 v -110 c 0,0 -70,160 -150,160 -30,0 -50,-20 -50,-50 0,-30 10e-5,-425 10e-5,-425 z"
       id="path124467-2"
       sodipodi:nodetypes="csssscscssccssc" /><path
       style="fill:#ff00ff;fill-opacity:0.555319;stroke:none;stroke-width:0.774597px;stroke-linecap:butt;stroke-linejoin:miter;stroke-opacity:1"
       d="m 980,1340 c 0,0 -60,260.0002 -350,260.0001 C 250,1600 100,1459.9999 100,1290 c 0,-180.0001 303.44827,-286.4018 600,-290 149.98896,-1.81989 300,40 300,40 v 80 c 0,0 -150,-20 -300,-20 -150,0 -300,40.5997 -300,200.0001 0,159.4004 80,199.9999 230,199.9999 170,0 270,-180 270,-280 z"
       id="path124467-22"
       sodipodi:nodetypes="csssccszscc" /><path
       id="path124467-2-9"
       style="fill:#000000;fill-opacity:0.555319;stroke:none;stroke-width:1px;stroke-linecap:butt;stroke-linejoin:miter;stroke-opacity:1"
       d="M 600 600 C 375.03146 603.74948 200.6361 701.05545 200 800 C 199.3572 899.99783 270.00007 930 345 930 C 462.78388 930 495 879.99995 495 830 C 495 715.00012 375 725 375 725 C 434.12539 710.26149 502.02784 700 600 700 C 774.99992 700 900 725.00015 900 875 L 900 1018.293 C 844.45931 1008.4445 772.41562 999.12135 700 1000 C 403.44857 1003.5982 100 1110.0001 100 1290 C 100 1459.9997 250.00038 1599.9999 630 1600 C 821.73438 1600.0001 912.59239 1486.5818 952.38086 1409.5605 C 1007.4144 1515.616 1099.7703 1600 1200 1600 C 1359.9998 1600 1400 1450 1400 1450 L 1400 1340 C 1400 1340 1329.9999 1500 1250 1500 C 1220 1500 1200 1480 1200 1450 L 1200 1025 C 1200 705.00032 899.9998 595 600 600 z M 700 1100 C 772.41927 1100 844.46106 1104.6719 900 1109.4941 L 900 1210 C 900 1213.438 900.1487 1216.9159 900.25586 1220.3828 L 900 1220 C 900 1319.9999 799.99983 1500 630 1500 C 480.00015 1500 400 1459.4002 400 1300 C 400 1140.5998 550.00015 1100 700 1100 z " /></g></svg>
