<?xml version="1.0" encoding="UTF-8" standalone="no"?>
<!-- Created with Inkscape (http://www.inkscape.org/) -->

<svg
   width="2000"
   height="2000"
   viewBox="0 0 2000 2000"
   version="1.1"
   id="svg1"
   inkscape:version="1.2.1 (9c6d41e410, 2022-07-14)"
   sodipodi:docname="ascii_51_3.svg"
   xml:space="preserve"
   xmlns:inkscape="http://www.inkscape.org/namespaces/inkscape"
   xmlns:sodipodi="http://sodipodi.sourceforge.net/DTD/sodipodi-0.dtd"
   xmlns="http://www.w3.org/2000/svg"
   xmlns:svg="http://www.w3.org/2000/svg"><sodipodi:namedview
     id="namedview1"
     pagecolor="#ffffff"
     bordercolor="#000000"
     borderopacity="0.25"
     inkscape:showpageshadow="2"
     inkscape:pageopacity="0.0"
     inkscape:pagecheckerboard="0"
     inkscape:deskcolor="#d1d1d1"
     inkscape:document-units="px"
     showgrid="true"
     inkscape:zoom="0.39303354"
     inkscape:cx="-83.9623"
     inkscape:cy="1134.7632"
     inkscape:window-width="2560"
     inkscape:window-height="1377"
     inkscape:window-x="1072"
     inkscape:window-y="-8"
     inkscape:window-maximized="1"
     inkscape:current-layer="layer1"
     showguides="false"><inkscape:grid
       id="grid1"
       units="px"
       originx="0"
       originy="0"
       spacingx="10"
       spacingy="10"
       empcolor="#0099e5"
       empopacity="0.30196078"
       color="#0099e5"
       opacity="0.14901961"
       empspacing="10"
       dotted="false"
       gridanglex="30"
       gridanglez="30"
       visible="true" /></sodipodi:namedview><defs
     id="defs1" /><g
     inkscape:label="Layer 1"
     inkscape:groupmode="layer"
     id="layer1"><path
       style="fill:#000000;fill-opacity:0.555319;fill-rule:evenodd;stroke:none;stroke-width:1px;stroke-linecap:butt;stroke-linejoin:miter;stroke-opacity:1"
       d="m 600,900 c 393.17841,-2.88606 710,-175 710,-350 0,-200 -260,-360 -610,-360 -360,0 -600,160 -600,310 0,152.17391 150,225 250,225 100,0 175,-75 175,-125 0,-50 -50,-125 -125,-125 -75,0 -100,25 -125,75 0,-125 95,-250 425,-250 225,0 300,125 300,250 0,125 -6.66665,245.39496 -400,250"
       id="path8529-7"
       sodipodi:nodetypes="csssssscssc" /><path
       style="fill:#000000;fill-opacity:0.555319;fill-rule:evenodd;stroke:none;stroke-width:1px;stroke-linecap:butt;stroke-linejoin:miter;stroke-opacity:1"
       d="m 600,800 c 331.04123,-7.88576 800,75 800,350 0,225 -300,460 -700,460 -350,0 -600,-160 -600,-310 0,-152.1739 150,-225 250,-225 100,0 175,75 175,125 0,50 -50,125 -125,125 -75,0 -100,-25 -125,-75 0,125 97.31907,250 425,250 275,0 400,-75 400,-250 v -75 C 1100,1075 950,900 600,900"
       id="path8529-6-7"
       sodipodi:nodetypes="csssssscsssc" /><path
       id="path8529-7-1"
       style="fill:#000000;fill-opacity:0.555319;fill-rule:evenodd;stroke:none;stroke-width:1px;stroke-linecap:butt;stroke-linejoin:miter;stroke-opacity:1"
       d="M 700 190 C 340.00036 190 100 350.00015 100 500 C 100 652.17376 250.0001 725 350 725 C 449.9999 725 525 649.99995 525 600 C 525 550.00005 474.99993 475 400 475 C 325.00007 475 299.99998 500.00005 275 550 C 275 425.00013 370.00033 300 700 300 C 924.99977 300 1000 425.00013 1000 550 C 1000 674.99987 993.33296 795.39496 600 800 L 600 900 C 949.99965 900 1100 1075.0001 1100 1175 L 1100 1250 C 1100 1424.9998 974.99973 1500 700 1500 C 372.3194 1500 275 1374.9999 275 1250 C 299.99998 1299.9999 325.00007 1325 400 1325 C 474.99993 1325 525 1249.9999 525 1200 C 525 1150.0001 449.9999 1075 350 1075 C 250.0001 1075 100 1147.8263 100 1300 C 100 1449.9998 350.00035 1610 700 1610 C 1099.9996 1610 1400 1374.9998 1400 1150 C 1400 977.62529 1215.732 880.75247 996.68359 834.38281 C 1185.9072 767.89565 1310 659.51688 1310 550 C 1310 350.0002 1049.9996 190 700 190 z " /></g></svg>
