<?xml version="1.0" encoding="UTF-8" standalone="no"?>
<!-- Created with Inkscape (http://www.inkscape.org/) -->

<svg
   width="2000"
   height="2000"
   viewBox="0 0 2000 2000"
   version="1.1"
   id="svg1"
   inkscape:version="1.2.2 (732a01da63, 2022-12-09)"
   sodipodi:docname="ascii_38_ampersand.svg"
   xml:space="preserve"
   xmlns:inkscape="http://www.inkscape.org/namespaces/inkscape"
   xmlns:sodipodi="http://sodipodi.sourceforge.net/DTD/sodipodi-0.dtd"
   xmlns="http://www.w3.org/2000/svg"
   xmlns:svg="http://www.w3.org/2000/svg"><sodipodi:namedview
     id="namedview1"
     pagecolor="#ffffff"
     bordercolor="#000000"
     borderopacity="0.25"
     inkscape:showpageshadow="2"
     inkscape:pageopacity="0.0"
     inkscape:pagecheckerboard="0"
     inkscape:deskcolor="#d1d1d1"
     inkscape:document-units="px"
     showgrid="true"
     inkscape:zoom="0.39303354"
     inkscape:cx="545.75495"
     inkscape:cy="1132.2189"
     inkscape:window-width="3840"
     inkscape:window-height="2066"
     inkscape:window-x="-11"
     inkscape:window-y="-11"
     inkscape:window-maximized="1"
     inkscape:current-layer="layer1"
     showguides="false"><inkscape:grid
       id="grid1"
       units="px"
       originx="0"
       originy="0"
       spacingx="25"
       spacingy="25"
       empcolor="#0099e5"
       empopacity="0.30196078"
       color="#0099e5"
       opacity="0.14901961"
       empspacing="4"
       dotted="false"
       gridanglex="30"
       gridanglez="30"
       visible="true" /></sodipodi:namedview><defs
     id="defs1" /><g
     inkscape:label="Layer 1"
     inkscape:groupmode="layer"
     id="layer1"><path
       style="fill:#000000;fill-opacity:0.555319;stroke:none;stroke-width:1px;stroke-linecap:butt;stroke-linejoin:miter;stroke-opacity:1"
       d="m 1200,800 h 700 v 100 h -150 l -450,450 c -100,100 -200,250 -550,250 -400,0 -650,-150 -650,-350 0,-400 900,-450 900,-750 0,-100 -100,-200 -200,-200 -100,0 -200,100 -200,200 0,100 150,200 250,300 l 400,400 c 100,100 150,200 300,200 150,0 350,-125 350,-125 v 100 c 0,0 -200,225 -400,225 -200,0 -450,-200 -550,-300 L 550,900 C 450,800 300,700 300,550 300,325 550,200 750,200 c 300,0 450,150 450,300 0,250 -700,475 -700,750 0,150 100,250 350,250 250,0 350,-150 450,-250 l 250,-250 -100,-100 h -250 z"
       id="path28522"
       sodipodi:nodetypes="ccccsssssssssccssssssssscccc" /><path
       id="path28522-4"
       style="fill:#000000;fill-opacity:0.555319;stroke:none;stroke-width:1px;stroke-linecap:butt;stroke-linejoin:miter;stroke-opacity:1"
       d="M 750 200 C 550.0002 200 300 325.00023 300 550 C 300 678.97881 410.82582 770.94712 505.48438 857.77734 C 296.3242 953.00304 100 1063.2591 100 1250 C 100 1449.9998 350.0004 1600 750 1600 C 965.30474 1600 1085.8501 1543.1907 1170.1426 1476.2227 C 1274.3784 1543.8216 1394.1145 1600 1500 1600 C 1699.9998 1600 1900 1375 1900 1375 L 1900 1275 C 1900 1275 1699.9998 1400 1550 1400 C 1454.3667 1400 1399.3786 1359.2123 1346.168 1303.832 L 1750 900 L 1900 900 L 1900 800 L 1200 800 L 1200 900 L 1450 900 L 1550 1000 L 1300 1250 C 1299.4671 1250.5329 1298.9216 1251.146 1298.3887 1251.6816 C 1283.168 1234.7415 1267.4737 1217.4737 1250 1200 L 888.64648 838.64648 C 1049.8095 726.17073 1200 615.75023 1200 500 C 1200 350.00015 1049.9997 200 750 200 z M 800 300 C 899.9999 300 1000 400.0001 1000 500 C 1000 597.10296 905.205 667.93207 777.66406 732.99805 C 690.40036 655.33218 600 577.66587 600 500 C 600 400.0001 700.0001 300 800 300 z M 658.16211 1008.1621 L 950 1300 C 985.47022 1335.4702 1040.0195 1383.5108 1104.3086 1430.7559 C 1039.8336 1471.3512 959.24212 1500 850 1500 C 600.00025 1500 500 1399.9998 500 1250 C 500 1165.3779 566.38921 1085.5006 658.16211 1008.1621 z " /></g></svg>
