<?xml version="1.0" encoding="UTF-8" standalone="no"?>
<!-- Created with Inkscape (http://www.inkscape.org/) -->

<svg
   width="2000"
   height="2000"
   viewBox="0 0 2000 2000"
   version="1.1"
   id="svg1"
   inkscape:version="1.2.2 (732a01da63, 2022-12-09)"
   sodipodi:docname="ascii_112_p.svg"
   xml:space="preserve"
   xmlns:inkscape="http://www.inkscape.org/namespaces/inkscape"
   xmlns:sodipodi="http://sodipodi.sourceforge.net/DTD/sodipodi-0.dtd"
   xmlns="http://www.w3.org/2000/svg"
   xmlns:svg="http://www.w3.org/2000/svg"><sodipodi:namedview
     id="namedview1"
     pagecolor="#ffffff"
     bordercolor="#000000"
     borderopacity="0.25"
     inkscape:showpageshadow="2"
     inkscape:pageopacity="0.0"
     inkscape:pagecheckerboard="0"
     inkscape:deskcolor="#d1d1d1"
     inkscape:document-units="px"
     showgrid="true"
     inkscape:zoom="0.78606706"
     inkscape:cx="513.31498"
     inkscape:cy="1516.4101"
     inkscape:window-width="3840"
     inkscape:window-height="2066"
     inkscape:window-x="-11"
     inkscape:window-y="-11"
     inkscape:window-maximized="1"
     inkscape:current-layer="layer1"
     showguides="false"><inkscape:grid
       id="grid1"
       units="px"
       originx="0"
       originy="0"
       spacingx="10"
       spacingy="10"
       empcolor="#0099e5"
       empopacity="0.30196078"
       color="#0099e5"
       opacity="0.14901961"
       empspacing="10"
       dotted="false"
       gridanglex="30"
       gridanglez="30"
       visible="true" /></sodipodi:namedview><defs
     id="defs1" /><g
     inkscape:label="Layer 1"
     inkscape:groupmode="layer"
     id="layer1"><path
       style="fill:#000000;fill-opacity:0.555319;stroke:none;stroke-width:1px;stroke-linecap:butt;stroke-linejoin:miter;stroke-opacity:1"
       d="m 600,600 v 1300 h 200 v 100 H 100 V 1900 H 300 V 700 H 100 V 600 Z"
       id="path123739"
       sodipodi:nodetypes="ccccccccccc" /><path
       style="fill:#000000;fill-opacity:0.555319;stroke:none;stroke-width:1px;stroke-linecap:butt;stroke-linejoin:miter;stroke-opacity:1"
       d="m 600,1500 c 0,0 150.00315,100.9717 300,100 392.753,-2.5443 600,-200 600,-500 0,-300 -200,-500 -600,-500 -150,0 -300,100 -300,100 v 100 c 0,0 150,-100 300,-100 150,0 300,134.33284 300,400 0,265.6672 -150,400 -300,400 -150,0 -300,-100 -300,-100 z"
       id="path124467"
       sodipodi:nodetypes="cszsccszscc" /><path
       id="path123739-3"
       style="fill:#000000;fill-opacity:0.555319;stroke:none;stroke-width:1px;stroke-linecap:butt;stroke-linejoin:miter;stroke-opacity:1"
       d="M 100 600 L 100 700 L 300 700 L 300 1900 L 100 1900 L 100 2000 L 800 2000 L 800 1900 L 600 1900 L 600 1500 C 600 1500 750.0033 1600.9717 900 1600 C 1292.7526 1597.4557 1500 1399.9997 1500 1100 C 1500 800.0003 1299.9996 600 900 600 C 750.00015 600 600 700 600 700 L 600 600 L 100 600 z M 900 700 C 1049.9998 700 1200 834.33311 1200 1100 C 1200 1365.6669 1049.9998 1500 900 1500 C 750.00015 1500 600 1400 600 1400 L 600 800 C 600 800 750.00015 700 900 700 z " /></g></svg>
