<?xml version="1.0" encoding="UTF-8" standalone="no"?>
<!-- Created with Inkscape (http://www.inkscape.org/) -->

<svg
   width="2000"
   height="2000"
   viewBox="0 0 2000 2000"
   version="1.1"
   id="svg1"
   inkscape:version="1.2.2 (732a01da63, 2022-12-09)"
   sodipodi:docname="ascii_109_m.svg"
   xml:space="preserve"
   xmlns:inkscape="http://www.inkscape.org/namespaces/inkscape"
   xmlns:sodipodi="http://sodipodi.sourceforge.net/DTD/sodipodi-0.dtd"
   xmlns="http://www.w3.org/2000/svg"
   xmlns:svg="http://www.w3.org/2000/svg"><sodipodi:namedview
     id="namedview1"
     pagecolor="#ffffff"
     bordercolor="#000000"
     borderopacity="0.25"
     inkscape:showpageshadow="2"
     inkscape:pageopacity="0.0"
     inkscape:pagecheckerboard="0"
     inkscape:deskcolor="#d1d1d1"
     inkscape:document-units="px"
     showgrid="true"
     inkscape:zoom="0.39303353"
     inkscape:cx="657.7047"
     inkscape:cy="1066.0668"
     inkscape:window-width="3840"
     inkscape:window-height="2066"
     inkscape:window-x="-11"
     inkscape:window-y="-11"
     inkscape:window-maximized="1"
     inkscape:current-layer="layer1"
     showguides="false"><inkscape:grid
       id="grid1"
       units="px"
       originx="0"
       originy="0"
       spacingx="10"
       spacingy="10"
       empcolor="#0099e5"
       empopacity="0.30196078"
       color="#0099e5"
       opacity="0.14901961"
       empspacing="10"
       dotted="false"
       gridanglex="30"
       gridanglez="30"
       visible="true" /></sodipodi:namedview><defs
     id="defs1" /><g
     inkscape:label="Layer 1"
     inkscape:groupmode="layer"
     id="layer1"><path
       style="fill:#000000;fill-opacity:0.555319;stroke:none;stroke-width:1px;stroke-linecap:butt;stroke-linejoin:miter;stroke-opacity:1"
       d="m 600,600 v 900 h 200 v 100 H 100 V 1500 H 300 V 700 H 100 V 600 Z"
       id="path123739"
       sodipodi:nodetypes="ccccccccccc" /><path
       style="fill:#000000;fill-opacity:0.555319;stroke:none;stroke-width:1px;stroke-linecap:butt;stroke-linejoin:miter;stroke-opacity:1"
       d="m 1100,1600 h 500 V 1500 H 1400 V 880 C 1400.8996,799.7901 1300,600 960,600 700,600 600,870 600,870 v 130 c 0,0 116.74669,-301.27216 360,-300 139.9981,0.73216 140,100 140,200 z"
       id="path124467"
       sodipodi:nodetypes="cccccsccscc" /><path
       style="fill:#000000;fill-opacity:0.555319;stroke:none;stroke-width:1px;stroke-linecap:butt;stroke-linejoin:miter;stroke-opacity:1"
       d="m 1900,1600 h 500 V 1500 H 2200 V 880 c 0.8996,-80.2099 -100,-280 -440,-280 -260,0 -360,270 -360,270 v 130 c 0,0 116.7467,-301.27216 360,-300 139.9981,0.73216 140,100 140,200 z"
       id="path124467-5"
       sodipodi:nodetypes="cccccsccscc" /><path
       id="path123739-2"
       style="fill:#000000;fill-opacity:0.555319;stroke:none;stroke-width:1px;stroke-linecap:butt;stroke-linejoin:miter;stroke-opacity:1"
       d="M 100 600 L 100 700 L 300 700 L 300 1500 L 100 1500 L 100 1600 L 800 1600 L 800 1500 L 600 1500 L 600 1000 C 600 1000 716.74693 698.72784 960 700 C 1099.998 700.73216 1100 800.0001 1100 900 L 1100 1600 L 1600 1600 L 1600 1500 L 1400 1500 L 1400 1000 C 1400 1000 1516.7469 698.72784 1760 700 C 1899.998 700.73216 1900 800.0001 1900 900 L 1900 1600 L 2400 1600 L 2400 1500 L 2200 1500 L 2200 880 C 2200.8996 799.79018 2099.9997 600 1760 600 C 1500.0003 600 1400 870 1400 870 L 1400 880 C 1400.8996 799.79018 1299.9997 600 960 600 C 700.00026 600 600 870 600 870 L 600 600 L 100 600 z " /></g></svg>
