<?xml version="1.0" encoding="UTF-8" standalone="no"?>
<!-- Created with Inkscape (http://www.inkscape.org/) -->

<svg
   width="2000"
   height="2000"
   viewBox="0 0 2000 2000"
   version="1.1"
   id="svg1"
   inkscape:version="1.2.2 (732a01da63, 2022-12-09)"
   sodipodi:docname="ascii_103_g.svg"
   xml:space="preserve"
   xmlns:inkscape="http://www.inkscape.org/namespaces/inkscape"
   xmlns:sodipodi="http://sodipodi.sourceforge.net/DTD/sodipodi-0.dtd"
   xmlns="http://www.w3.org/2000/svg"
   xmlns:svg="http://www.w3.org/2000/svg"><sodipodi:namedview
     id="namedview1"
     pagecolor="#ffffff"
     bordercolor="#000000"
     borderopacity="0.25"
     inkscape:showpageshadow="2"
     inkscape:pageopacity="0.0"
     inkscape:pagecheckerboard="0"
     inkscape:deskcolor="#d1d1d1"
     inkscape:document-units="px"
     showgrid="true"
     inkscape:zoom="0.78606706"
     inkscape:cx="312.31432"
     inkscape:cy="1204.7318"
     inkscape:window-width="3840"
     inkscape:window-height="2066"
     inkscape:window-x="-11"
     inkscape:window-y="-11"
     inkscape:window-maximized="1"
     inkscape:current-layer="layer1"
     showguides="false"><inkscape:grid
       id="grid1"
       units="px"
       originx="0"
       originy="0"
       spacingx="10"
       spacingy="10"
       empcolor="#0099e5"
       empopacity="0.30196078"
       color="#0099e5"
       opacity="0.14901961"
       empspacing="10"
       dotted="false"
       gridanglex="30"
       gridanglez="30"
       visible="true" /></sodipodi:namedview><defs
     id="defs1" /><g
     inkscape:label="Layer 1"
     inkscape:groupmode="layer"
     id="layer1"><path
       id="path23564-4"
       style="fill:#000000;fill-opacity:0.555319;stroke:none;stroke-width:0.836662px;stroke-linecap:butt;stroke-linejoin:miter;stroke-opacity:1"
       d="M 750.00002,1500 C 959.99989,1500 1100,1567.1666 1100,1700 1100,1832.8334 959.99989,1900 750.00002,1900 540.00015,1900 400,1832.8334 400,1700 400,1567.1666 540.00015,1500 750.00002,1500 Z M 750,1400 c -350,0 -650,120.0002 -650,300 0,179.9998 278.7027,296.1835 650,300 371.2973,3.8165 650,-120.0002 650,-300 0,-179.9998 -300,-300 -650,-300 z m 0,-700 c 149.9999,0 250,83.95822 250,250 0,166.0418 -100.0001,250 -250,250 -149.9999,0 -250,-83.9582 -250,-250 0,-166.04178 100.0001,-250 250,-250 z m 0,-100 c -250,0 -550,140.00023 -550,350 0,209.9998 302.26915,346.1835 550,350 247.73085,3.8165 550,-140.0002 550,-350 0,-209.99977 -150.0004,-350 -550,-350 z" /><path
       style="fill:#000000;stroke:none;stroke-width:1px;stroke-linecap:butt;stroke-linejoin:miter;stroke-opacity:1;fill-opacity:0.55531901"
       d="m 500,1200 c 0,0 -200,50 -200,150 0,100 200,150 200,150 l 150,-50 c 0,0 -100,-50 -100,-100 0,-50 100,-100 100,-100 z"
       id="path23594" /><path
       style="fill:#000000;stroke:none;stroke-width:1px;stroke-linecap:butt;stroke-linejoin:miter;stroke-opacity:1;fill-opacity:0.55531901"
       d="m 1050,700 c 0,0 -10,-100 100,-100 110,0 150,-10 150,-60 0,-50 -70,-60 -150,-60 -150,0 -200,170 -200,170 z"
       id="path25078"
       sodipodi:nodetypes="cszscc" /><path
       id="path23564-4-9"
       style="fill:#000000;fill-opacity:0.555319;stroke:none;stroke-width:0.836662px;stroke-linecap:butt;stroke-linejoin:miter;stroke-opacity:1"
       d="M 1150 480 C 1042.3384 480 986.37949 567.35891 963.26172 616.79688 C 901.8527 605.85544 831.15602 600 750 600 C 500.00025 600 200 740.00044 200 950 C 200 1069.1104 297.31934 1164.3863 426.69727 1225.3184 C 369.59094 1249.5023 300 1290.9669 300 1350 C 300 1392.9775 336.95814 1426.6924 379.08789 1451.1992 C 212.22294 1502.7024 100 1590.061 100 1700 C 100 1879.9996 378.70307 1996.1835 750 2000 C 1121.2969 2003.8165 1400 1879.9996 1400 1700 C 1400 1520.0004 1099.9996 1400 750 1400 C 694.33843 1400 640.20108 1403.3569 588.07422 1409.1855 C 567.64215 1391.9015 550 1370.9756 550 1350 C 550 1325.4457 574.12344 1300.9256 598.66992 1282.293 C 649.41238 1293.0486 700.76496 1299.2415 750 1300 C 997.7306 1303.8165 1300 1159.9996 1300 950 C 1300 807.96762 1231.2365 698.03435 1063.0645 641.70117 C 1075.9596 619.7551 1101.1145 600 1150 600 C 1259.9999 600 1300 589.99995 1300 540 C 1300 490.00005 1229.9999 480 1150 480 z M 750 700 C 899.99975 700 1000 783.95839 1000 950 C 1000 1116.0417 899.99975 1200 750 1200 C 600.00025 1200 500 1116.0417 500 950 C 500 783.95839 600.00025 700 750 700 z M 750 1500 C 959.99966 1500 1100 1567.1667 1100 1700 C 1100 1832.8333 959.99966 1900 750 1900 C 540.00034 1900 400 1832.8333 400 1700 C 400 1567.1667 540.00034 1500 750 1500 z " /></g></svg>
