<?xml version="1.0" encoding="UTF-8" standalone="no"?>
<!-- Created with Inkscape (http://www.inkscape.org/) -->

<svg
   width="2000"
   height="2000"
   viewBox="0 0 2000 2000"
   version="1.1"
   id="svg1"
   inkscape:version="1.2.2 (732a01da63, 2022-12-09)"
   sodipodi:docname="ascii_114_r.svg"
   xml:space="preserve"
   xmlns:inkscape="http://www.inkscape.org/namespaces/inkscape"
   xmlns:sodipodi="http://sodipodi.sourceforge.net/DTD/sodipodi-0.dtd"
   xmlns="http://www.w3.org/2000/svg"
   xmlns:svg="http://www.w3.org/2000/svg"><sodipodi:namedview
     id="namedview1"
     pagecolor="#ffffff"
     bordercolor="#000000"
     borderopacity="0.25"
     inkscape:showpageshadow="2"
     inkscape:pageopacity="0.0"
     inkscape:pagecheckerboard="0"
     inkscape:deskcolor="#d1d1d1"
     inkscape:document-units="px"
     showgrid="true"
     inkscape:zoom="1.5721341"
     inkscape:cx="634.48785"
     inkscape:cy="846.61988"
     inkscape:window-width="3840"
     inkscape:window-height="2066"
     inkscape:window-x="-11"
     inkscape:window-y="-11"
     inkscape:window-maximized="1"
     inkscape:current-layer="layer1"
     showguides="false"><inkscape:grid
       id="grid1"
       units="px"
       originx="0"
       originy="0"
       spacingx="10"
       spacingy="10"
       empcolor="#0099e5"
       empopacity="0.30196078"
       color="#0099e5"
       opacity="0.14901961"
       empspacing="10"
       dotted="false"
       gridanglex="30"
       gridanglez="30"
       visible="true" /></sodipodi:namedview><defs
     id="defs1" /><g
     inkscape:label="Layer 1"
     inkscape:groupmode="layer"
     id="layer1"><path
       style="fill:#000000;fill-opacity:0.555319;fill-rule:evenodd;stroke:none;stroke-width:0.688846px;stroke-linecap:butt;stroke-linejoin:miter;stroke-opacity:1"
       d="m 480,1010 c 0,-110 118.72564,-410.44978 420,-410 249.9997,0.37323 300,123.5688 300,220 0,97.8289 -75,125 -150,125 -117.784,0 -150,-50 -150,-100 0,-115 120,-105 120,-105 v 0 c 0,0 -19.8603,-20.89955 -120,-20 -179.99274,1.61687 -301.7991,260.62969 -300,420 z"
       id="path8529"
       sodipodi:nodetypes="cssssccscc" /><path
       style="fill:#000000;stroke:none;stroke-width:1px;stroke-linecap:butt;stroke-linejoin:miter;stroke-opacity:1;fill-opacity:0.55531901"
       d="M 600,600 H 100 v 100 h 200 v 800 H 100 v 100 H 800 V 1500 H 600 Z"
       id="path176602" /><path
       id="path8529-3"
       style="fill:#000000;fill-opacity:0.555319;fill-rule:evenodd;stroke:none;stroke-width:0.688846px;stroke-linecap:butt;stroke-linejoin:miter;stroke-opacity:1"
       d="M 100 600 L 100 700 L 300 700 L 300 1500 L 100 1500 L 100 1600 L 800 1600 L 800 1500 L 600 1500 L 600 1140 C 598.2009 980.62985 720.00744 721.61687 900 720 C 1000.1396 719.10045 1020 740 1020 740 C 1020 740 900 730.00012 900 845 C 900 894.99995 932.21612 945 1050 945 C 1124.9999 945 1200 917.8288 1200 820 C 1200 723.5689 1149.9995 600.37323 900 600 C 765.4575 599.79914 667.41457 659.65628 600 735.71289 L 600 600 L 100 600 z " /></g></svg>
