<?xml version="1.0" encoding="UTF-8" standalone="no"?>
<!-- Created with Inkscape (http://www.inkscape.org/) -->

<svg
   width="2000"
   height="2000"
   viewBox="0 0 2000 2000"
   version="1.1"
   id="svg1"
   inkscape:version="1.2.2 (732a01da63, 2022-12-09)"
   sodipodi:docname="ascii_64_at.svg"
   xml:space="preserve"
   xmlns:inkscape="http://www.inkscape.org/namespaces/inkscape"
   xmlns:sodipodi="http://sodipodi.sourceforge.net/DTD/sodipodi-0.dtd"
   xmlns="http://www.w3.org/2000/svg"
   xmlns:svg="http://www.w3.org/2000/svg"><sodipodi:namedview
     id="namedview1"
     pagecolor="#ffffff"
     bordercolor="#000000"
     borderopacity="0.25"
     inkscape:showpageshadow="2"
     inkscape:pageopacity="0.0"
     inkscape:pagecheckerboard="0"
     inkscape:deskcolor="#d1d1d1"
     inkscape:document-units="px"
     showgrid="true"
     inkscape:zoom="1.1116667"
     inkscape:cx="1098.8006"
     inkscape:cy="1322.3388"
     inkscape:window-width="3840"
     inkscape:window-height="2066"
     inkscape:window-x="5749"
     inkscape:window-y="-11"
     inkscape:window-maximized="1"
     inkscape:current-layer="layer1"
     showguides="true"><inkscape:grid
       id="grid1"
       units="px"
       originx="0"
       originy="0"
       spacingx="10"
       spacingy="10"
       empcolor="#0099e5"
       empopacity="0.30196078"
       color="#0099e5"
       opacity="0.14901961"
       empspacing="10"
       dotted="false"
       gridanglex="30"
       gridanglez="30"
       visible="true" /></sodipodi:namedview><defs
     id="defs1" /><g
     inkscape:label="Layer 1"
     inkscape:groupmode="layer"
     id="layer1"><path
       id="path124467-0"
       style="fill:#000000;fill-opacity:0.555319;stroke:none;stroke-width:1px;stroke-linecap:butt;stroke-linejoin:miter;stroke-opacity:1"
       d="m 1000,190 c -499.9995,0 -900,410.0005 -900,910 0,499.9995 400.0005,910 900,910 379.9996,0 600,-240 600,-240 v -100 c 0,0 -177.6019,226.1835 -600,230 -499.97909,4.5174 -700,-400.0004 -700,-800 0,-399.9996 100.0006,-800 700,-800 599.9994,0 701.7991,375.56264 700,800 0,199.9998 -20.0001,400.0001 -150,400 -30,0 -50,-20 -50,-50 v -425 c 0,-319.99968 -250.0002,-430 -550,-425 -399.9996,0 -550,200.00033 -550,500 0,299.9997 207.24739,497.4556 600,500 133.1825,-10e-5 217.0469,-127.5311 255.4043,-203.9355 C 1318.1201,1508.3104 1421.6943,1600 1500,1600 c 299.9997,10e-5 399.4996,-295.51 400,-500 0,-499.9995 -400.0005,-910 -900,-910 z m -50,510 c 174.9999,0 250,25.00015 250,175 v 335 c 0,3.4755 0.19,6.991 0.3301,10.4961 L 1200,1220 c 0,99.9999 -80.0001,280 -200,280 -149.99985,0 -300,-134.3331 -300,-400 0,-265.66686 100.00015,-400 250,-400 z"
       sodipodi:nodetypes="sssccssscssscsccscssssccsss" /></g></svg>
