<?xml version="1.0" encoding="UTF-8" standalone="no"?>
<!-- Created with Inkscape (http://www.inkscape.org/) -->

<svg
   width="2000"
   height="2000"
   viewBox="0 0 2000 2000"
   version="1.1"
   id="svg1"
   inkscape:version="1.2.1 (9c6d41e410, 2022-07-14)"
   sodipodi:docname="ascii_55_8.svg"
   xml:space="preserve"
   xmlns:inkscape="http://www.inkscape.org/namespaces/inkscape"
   xmlns:sodipodi="http://sodipodi.sourceforge.net/DTD/sodipodi-0.dtd"
   xmlns="http://www.w3.org/2000/svg"
   xmlns:svg="http://www.w3.org/2000/svg"><sodipodi:namedview
     id="namedview1"
     pagecolor="#ffffff"
     bordercolor="#000000"
     borderopacity="0.25"
     inkscape:showpageshadow="2"
     inkscape:pageopacity="0.0"
     inkscape:pagecheckerboard="0"
     inkscape:deskcolor="#d1d1d1"
     inkscape:document-units="px"
     showgrid="true"
     inkscape:zoom="0.55583335"
     inkscape:cx="476.7616"
     inkscape:cy="935.53221"
     inkscape:window-width="2560"
     inkscape:window-height="1377"
     inkscape:window-x="1072"
     inkscape:window-y="-8"
     inkscape:window-maximized="1"
     inkscape:current-layer="layer1"
     showguides="false"><inkscape:grid
       id="grid1"
       units="px"
       originx="0"
       originy="0"
       spacingx="10"
       spacingy="10"
       empcolor="#0099e5"
       empopacity="0.30196078"
       color="#0099e5"
       opacity="0.14901961"
       empspacing="10"
       dotted="false"
       gridanglex="30"
       gridanglez="30"
       visible="true" /></sodipodi:namedview><defs
     id="defs1" /><g
     inkscape:label="Layer 1"
     inkscape:groupmode="layer"
     id="layer1"><path
       style="fill:#000000;fill-rule:nonzero;stroke:none;stroke-width:1px;stroke-linecap:butt;stroke-linejoin:miter;stroke-opacity:1;fill-opacity:0.55531901"
       d="m 700,300 c -160,0 -300,60 -300,150 0,160 900,320 900,700 0,220 -340,460 -650,460 C 350,1610 100.41137,1439.9996 100,1200 99.10045,675.18741 1000,850 1000,500 1000,390 900,300 700,300 Z m 500,200 c 0,300 -900,400 -900,700 0,150 160,300 400,300 220,0 300,-130 300,-250 0,-450 -800,-300 -800,-690 0,-200 280,-360 500,-360 220,0 500,125 500,300 z"
       id="path7656"
       sodipodi:nodetypes="cssssscsssssss" /><path
       id="path7656-2"
       style="fill:#000000;fill-opacity:0.555319;fill-rule:nonzero;stroke:none;stroke-width:1px;stroke-linecap:butt;stroke-linejoin:miter;stroke-opacity:1"
       d="M 700 200 C 480.00022 200 200 360.0002 200 560 C 200 698.60287 301.19883 768.91079 431.46484 822.27734 C 252.03292 886.61848 99.629824 984.03303 100 1200 C 100.41137 1439.9994 350.0003 1610 650 1610 C 959.99969 1610 1300 1369.9998 1300 1150 C 1300 985.3341 1130.9561 862.0218 939.42383 762.07617 C 1086.0586 688.00115 1200 606.66052 1200 500 C 1200 325.00018 919.99978 200 700 200 z M 700 300 C 899.9998 300 1000 390.00011 1000 500 C 1000 601.50904 924.00246 658.77659 816.42188 701.86719 C 603.20786 602.29035 400 525.99947 400 450 C 400 360.00009 540.00016 300 700 300 z M 644.19727 897.86719 C 828.37212 962.12085 1000 1041.661 1000 1250 C 1000 1369.9999 919.99978 1500 700 1500 C 460.00024 1500 300 1349.9998 300 1200 C 300 1073.7933 459.65038 983.06347 644.19727 897.86719 z " /></g></svg>
