<?xml version="1.0" encoding="UTF-8" standalone="no"?>
<!-- Created with Inkscape (http://www.inkscape.org/) -->

<svg
   width="2000"
   height="2000"
   viewBox="0 0 2000 2000"
   version="1.1"
   id="svg1"
   inkscape:version="1.2.2 (732a01da63, 2022-12-09)"
   sodipodi:docname="ascii_34_number-sign.svg"
   xml:space="preserve"
   xmlns:inkscape="http://www.inkscape.org/namespaces/inkscape"
   xmlns:sodipodi="http://sodipodi.sourceforge.net/DTD/sodipodi-0.dtd"
   xmlns="http://www.w3.org/2000/svg"
   xmlns:svg="http://www.w3.org/2000/svg"><sodipodi:namedview
     id="namedview1"
     pagecolor="#ffffff"
     bordercolor="#000000"
     borderopacity="0.25"
     inkscape:showpageshadow="2"
     inkscape:pageopacity="0.0"
     inkscape:pagecheckerboard="0"
     inkscape:deskcolor="#d1d1d1"
     inkscape:document-units="px"
     showgrid="true"
     inkscape:zoom="0.55583336"
     inkscape:cx="175.41229"
     inkscape:cy="818.59067"
     inkscape:window-width="3840"
     inkscape:window-height="2066"
     inkscape:window-x="-11"
     inkscape:window-y="-11"
     inkscape:window-maximized="1"
     inkscape:current-layer="layer1"
     showguides="false"><inkscape:grid
       id="grid1"
       units="px"
       originx="0"
       originy="0"
       spacingx="25"
       spacingy="25"
       empcolor="#0099e5"
       empopacity="0.30196078"
       color="#0099e5"
       opacity="0.14901961"
       empspacing="4"
       dotted="false"
       gridanglex="30"
       gridanglez="30"
       visible="true" /></sodipodi:namedview><defs
     id="defs1" /><g
     inkscape:label="Layer 1"
     inkscape:groupmode="layer"
     id="layer1"><path
       style="fill:#000000;fill-opacity:0.555319;stroke:none;stroke-width:1px;stroke-linecap:butt;stroke-linejoin:miter;stroke-opacity:1"
       d="M 250,1600 950,200 H 800 L 100,1600 Z"
       id="path577"
       sodipodi:nodetypes="ccccc" /><path
       style="fill:#000000;fill-opacity:0.555319;stroke:none;stroke-width:1px;stroke-linecap:butt;stroke-linejoin:miter;stroke-opacity:1"
       d="M 750,1600 1450,200 H 1300 L 600,1600 Z"
       id="path577-1"
       sodipodi:nodetypes="ccccc" /><rect
       style="opacity:0.476405;fill:#000000;fill-opacity:0.555319;fill-rule:evenodd;stroke-width:110.554;stroke-linecap:round;stroke-linejoin:round;stroke-miterlimit:4.5;stop-color:#000000"
       id="rect343"
       width="1100"
       height="200"
       x="100"
       y="1100" /><rect
       style="opacity:0.476405;fill:#000000;fill-opacity:0.555319;fill-rule:evenodd;stroke-width:110.554;stroke-linecap:round;stroke-linejoin:round;stroke-miterlimit:4.5;stop-color:#000000"
       id="rect343-4"
       width="1100"
       height="200"
       x="400"
       y="500" /><path
       id="path577-6"
       style="fill:#000000;fill-opacity:0.555319;stroke:none;stroke-width:1px;stroke-linecap:butt;stroke-linejoin:miter;stroke-opacity:1"
       d="M 800 200 L 650 500 L 400 500 L 400 700 L 550 700 L 350 1100 L 100 1100 L 100 1300 L 250 1300 L 100 1600 L 250 1600 L 400 1300 L 750 1300 L 600 1600 L 750 1600 L 900 1300 L 1200 1300 L 1200 1100 L 1000 1100 L 1200 700 L 1500 700 L 1500 500 L 1300 500 L 1450 200 L 1300 200 L 1150 500 L 800 500 L 950 200 L 800 200 z M 700 700 L 1050 700 L 850 1100 L 500 1100 L 700 700 z " /></g></svg>
