<?xml version="1.0" encoding="UTF-8" standalone="no"?>
<!-- Created with Inkscape (http://www.inkscape.org/) -->

<svg
   width="2000"
   height="2000"
   viewBox="0 0 2000 2000"
   version="1.1"
   id="svg1"
   inkscape:version="1.2.2 (732a01da63, 2022-12-09)"
   sodipodi:docname="ascii_83_S.svg"
   xml:space="preserve"
   xmlns:inkscape="http://www.inkscape.org/namespaces/inkscape"
   xmlns:sodipodi="http://sodipodi.sourceforge.net/DTD/sodipodi-0.dtd"
   xmlns="http://www.w3.org/2000/svg"
   xmlns:svg="http://www.w3.org/2000/svg"><sodipodi:namedview
     id="namedview1"
     pagecolor="#ffffff"
     bordercolor="#000000"
     borderopacity="0.25"
     inkscape:showpageshadow="2"
     inkscape:pageopacity="0.0"
     inkscape:pagecheckerboard="0"
     inkscape:deskcolor="#d1d1d1"
     inkscape:document-units="px"
     showgrid="true"
     inkscape:zoom="0.27791668"
     inkscape:cx="494.75261"
     inkscape:cy="17.991004"
     inkscape:window-width="2880"
     inkscape:window-height="1526"
     inkscape:window-x="4246"
     inkscape:window-y="3229"
     inkscape:window-maximized="1"
     inkscape:current-layer="layer1"
     showguides="false"><inkscape:grid
       id="grid1"
       units="px"
       originx="0"
       originy="0"
       spacingx="10"
       spacingy="10"
       empcolor="#0099e5"
       empopacity="0.30196078"
       color="#0099e5"
       opacity="0.14901961"
       empspacing="10"
       dotted="false"
       gridanglex="30"
       gridanglez="30"
       visible="true" /></sodipodi:namedview><defs
     id="defs1" /><g
     inkscape:label="Layer 1"
     inkscape:groupmode="layer"
     id="layer1"><path
       style="fill:#000000;fill-opacity:0.555319;stroke:none;stroke-width:1px;stroke-linecap:butt;stroke-linejoin:miter;stroke-opacity:1"
       d="M 200,1100 H 100 v 500 h 100 v -200 c 0,0 279.31035,212.2489 550,210 349.9879,-2.9077 650,-220 650,-460 C 1400,880 1087.0387,786.76231 750,700 440.0297,620.20578 300,530 300,450 c 0,-77.35136 100,-150 400,-150 390,0 500,250 550,300 h 50 V 200 h -100 v 150 c 0,0 -180,-160 -500,-160 -380,0 -600,160 -600,360 0,220 187.16123,268.72888 460,350 470,140 640,240 640,380 0,100 -200,220 -450,220 -250,0 -490,-200 -550,-250 z"
       id="path73468"
       sodipodi:nodetypes="cccccssssscccccssssscc" /></g></svg>
