<?xml version="1.0" encoding="UTF-8" standalone="no"?>
<!-- Created with Inkscape (http://www.inkscape.org/) -->

<svg
   width="2000"
   height="2000"
   viewBox="0 0 2000 2000"
   version="1.1"
   id="svg1"
   inkscape:version="1.2.2 (732a01da63, 2022-12-09)"
   sodipodi:docname="42801_S-smallcaps.svg"
   xml:space="preserve"
   xmlns:inkscape="http://www.inkscape.org/namespaces/inkscape"
   xmlns:sodipodi="http://sodipodi.sourceforge.net/DTD/sodipodi-0.dtd"
   xmlns="http://www.w3.org/2000/svg"
   xmlns:svg="http://www.w3.org/2000/svg"><sodipodi:namedview
     id="namedview1"
     pagecolor="#ffffff"
     bordercolor="#000000"
     borderopacity="0.25"
     inkscape:showpageshadow="2"
     inkscape:pageopacity="0.0"
     inkscape:pagecheckerboard="0"
     inkscape:deskcolor="#d1d1d1"
     inkscape:document-units="px"
     showgrid="true"
     inkscape:zoom="1.1116667"
     inkscape:cx="490.70462"
     inkscape:cy="987.7061"
     inkscape:window-width="3840"
     inkscape:window-height="2066"
     inkscape:window-x="-11"
     inkscape:window-y="-11"
     inkscape:window-maximized="1"
     inkscape:current-layer="layer1"
     showguides="false"><inkscape:grid
       id="grid1"
       units="px"
       originx="0"
       originy="0"
       spacingx="10"
       spacingy="10"
       empcolor="#0099e5"
       empopacity="0.30196078"
       color="#0099e5"
       opacity="0.14901961"
       empspacing="10"
       dotted="false"
       gridanglex="30"
       gridanglez="30"
       visible="true" /></sodipodi:namedview><defs
     id="defs1" /><g
     inkscape:label="Layer 1"
     inkscape:groupmode="layer"
     id="layer1"><path
       style="fill:#000000;fill-opacity:0.555319;stroke:none;stroke-width:0.926907px;stroke-linecap:butt;stroke-linejoin:miter;stroke-opacity:1"
       d="M 200,1100 H 100 v 501.411 h 100 v -171.8314 c 0,0 279.31035,182.355 550,180.4229 349.9879,-2.4982 650,-189.0145 650,-395.2121 C 1400,982.81811 1087.0387,884.54242 750,810 440.0297,741.44426 300,682.11328 300,613.38074 300,546.9238 400,500 700,500 c 390,0 500,257.04217 550,300 h 50 V 398.59157 h -100 v 128.8735 C 1200,527.46507 1020,390 700,390 320,390 100,527.46507 100,699.29641 100,888.31088 287.16123,950.17542 560,1020 c 470,120.2819 640,186.1989 640,306.4808 C 1200,1412.3965 1000,1500 750,1500 500,1500 260,1343.6639 200,1300.7061 Z"
       id="path73468"
       sodipodi:nodetypes="cccccssssscccccssssscc" /></g></svg>
