<?xml version="1.0" encoding="UTF-8" standalone="no"?>
<!-- Created with Inkscape (http://www.inkscape.org/) -->

<svg
   width="2000"
   height="2000"
   viewBox="0 0 2000 2000"
   version="1.1"
   id="svg1"
   inkscape:version="1.2.1 (9c6d41e410, 2022-07-14)"
   sodipodi:docname="42927_Q-smallcaps.svg"
   xml:space="preserve"
   xmlns:inkscape="http://www.inkscape.org/namespaces/inkscape"
   xmlns:sodipodi="http://sodipodi.sourceforge.net/DTD/sodipodi-0.dtd"
   xmlns="http://www.w3.org/2000/svg"
   xmlns:svg="http://www.w3.org/2000/svg"><sodipodi:namedview
     id="namedview1"
     pagecolor="#ffffff"
     bordercolor="#000000"
     borderopacity="0.25"
     inkscape:showpageshadow="2"
     inkscape:pageopacity="0.0"
     inkscape:pagecheckerboard="0"
     inkscape:deskcolor="#d1d1d1"
     inkscape:document-units="px"
     showgrid="true"
     inkscape:zoom="0.55583335"
     inkscape:cx="761.01947"
     inkscape:cy="1036.2818"
     inkscape:window-width="2560"
     inkscape:window-height="1377"
     inkscape:window-x="1072"
     inkscape:window-y="-8"
     inkscape:window-maximized="1"
     inkscape:current-layer="layer1"
     showguides="false"><inkscape:grid
       id="grid1"
       units="px"
       originx="0"
       originy="0"
       spacingx="10"
       spacingy="10"
       empcolor="#0099e5"
       empopacity="0.30196078"
       color="#0099e5"
       opacity="0.14901961"
       empspacing="10"
       dotted="false"
       gridanglex="30"
       gridanglez="30"
       visible="true" /></sodipodi:namedview><defs
     id="defs1" /><g
     inkscape:label="Layer 1"
     inkscape:groupmode="layer"
     id="layer1"><path
       style="fill:#000000;fill-opacity:0.555319;stroke:none;stroke-width:1px;stroke-linecap:butt;stroke-linejoin:miter;stroke-opacity:1"
       d="m 1250,1800 c 250,0 350,-130 350,-130 v -100 c 0,0 -104.6394,130 -300,130 -170,0 -200,-90 -200,-200 0,-240 -160,-300 -350,-300 -150,0 -250,170 -250,170 v 100 c 0,0 100,-170 250,-170 120,0 150,40 150,200 0,145.5321 0,300 350,300 z"
       id="path64542"
       sodipodi:nodetypes="sccsssccsss" /><path
       id="path48264-16"
       style="fill:#000000;fill-opacity:0.555319;fill-rule:evenodd;stroke:none;stroke-width:0.926906px;stroke-linecap:butt;stroke-linejoin:miter;stroke-opacity:1"
       d="M 800,390 C 353.97351,393.86426 0,699.29609 0,1000 c 0,300.7039 350,610 800,610 450,0 800,-309.2961 800,-610 0,-300.70391 -353.9735,-613.86426 -800,-610 z m 0,110 c 299.9997,0 400,242.25378 400,500 0,257.7462 -98.3511,500 -400,500 -301.6489,0 -400,-242.2538 -400,-500 0,-257.74622 100.0003,-500 400,-500 z"
       sodipodi:nodetypes="zzzzzzzzzz" /><path
       id="path64542-2"
       style="fill:#000000;fill-opacity:0.555319;stroke:none;stroke-width:1px;stroke-linecap:butt;stroke-linejoin:miter;stroke-opacity:1"
       d="M 800 390 C 353.97396 393.86426 0 699.29639 0 1000 C 0 1300.7036 350.00045 1610 800 1610 C 835.69093 1610 870.66653 1607.8479 904.97461 1604.1152 C 920.31925 1710.7862 984.0753 1800 1250 1800 C 1499.9997 1800 1600 1670 1600 1670 L 1600 1570 C 1600 1570 1495.3604 1700 1300 1700 C 1162.5604 1700 1116.6645 1641.1499 1104.1113 1560.4883 C 1398.1747 1461.3915 1600 1228.2905 1600 1000 C 1600 699.29639 1246.0261 386.13574 800 390 z M 800 500 C 1099.9994 500 1200 742.25404 1200 1000 C 1200 1147.1477 1167.8536 1289.163 1084.2148 1384.0176 C 1039.4286 1239.7785 904.66219 1200 750 1200 C 607.34355 1200 510.99477 1352.0835 501.79688 1367.1387 C 428.53806 1272.7528 400 1138.6522 400 1000 C 400 742.25404 500.0006 500 800 500 z M 750 1300 C 867.33981 1300 898.53976 1338.5622 899.86914 1489.8516 C 869.35769 1496.4301 836.17939 1500 800 1500 C 688.37396 1500 604.65201 1466.7633 543.38672 1411.9062 C 586.39653 1362.6565 658.87822 1300 750 1300 z " /></g></svg>
