<?xml version="1.0" encoding="UTF-8" standalone="no"?>
<!-- Created with Inkscape (http://www.inkscape.org/) -->

<svg
   width="1200"
   height="1200"
   viewBox="0 0 1200 1200"
   version="1.1"
   id="svg1"
   inkscape:version="1.2.2 (732a01da63, 2022-12-09)"
   sodipodi:docname="339_oe.svg"
   xml:space="preserve"
   xmlns:inkscape="http://www.inkscape.org/namespaces/inkscape"
   xmlns:sodipodi="http://sodipodi.sourceforge.net/DTD/sodipodi-0.dtd"
   xmlns="http://www.w3.org/2000/svg"
   xmlns:svg="http://www.w3.org/2000/svg"><sodipodi:namedview
     id="namedview1"
     pagecolor="#ffffff"
     bordercolor="#000000"
     borderopacity="0.25"
     inkscape:showpageshadow="2"
     inkscape:pageopacity="0.0"
     inkscape:pagecheckerboard="0"
     inkscape:deskcolor="#d1d1d1"
     inkscape:document-units="px"
     showgrid="true"
     inkscape:zoom="0.78606704"
     inkscape:cx="439.52994"
     inkscape:cy="639.89453"
     inkscape:window-width="1920"
     inkscape:window-height="2066"
     inkscape:window-x="-11"
     inkscape:window-y="-11"
     inkscape:window-maximized="0"
     inkscape:current-layer="layer1"
     showguides="false"><inkscape:grid
       id="grid1"
       units="px"
       originx="0"
       originy="0"
       spacingx="25"
       spacingy="25"
       empcolor="#0099e5"
       empopacity="0.30196078"
       color="#0099e5"
       opacity="0.14901961"
       empspacing="4"
       dotted="false"
       gridanglex="30"
       gridanglez="30"
       visible="true" /></sodipodi:namedview><defs
     id="defs1" /><g
     inkscape:label="Layer 1"
     inkscape:groupmode="layer"
     id="layer1"><path
       id="path2"
       style="fill:#000000;fill-opacity:0.555319;fill-rule:evenodd;stroke-width:0.999873"
       d="M 250 400 C 75.000445 400.18455 0 525.0002 0 625 L 0 775 C 0 874.9998 75.000345 1000 250 1000 C 319.96995 1000 371.52904 984.66799 409.0625 960.49219 C 442.89885 984.66749 488.77705 1000 550 1000 C 749.99958 1000 800 874.99985 800 800 L 650 800 C 650 874.61394 599.99112 900.66495 575 900 C 541.19198 899.10045 500 849.99985 500 775 L 500 700 L 800 700 L 800 600 C 800 525.00015 724.99961 400 550 400 C 485.60051 400.06791 438.17812 417.04991 403.89648 443.42578 C 365.32074 416.99753 314.46766 400 250 400 z M 250 500 C 299.99995 500 325 550.00015 325 625 L 325 775 C 325 849.61394 274.99112 900.66495 250 900 C 216.19198 899.10045 175 849.99985 175 775 L 175 625 C 175 550.00015 200.0001 500 250 500 z M 575 500 C 624.99995 500 650 525.00015 650 600 L 500 600 C 500 525.00015 525.0001 500 575 500 z " /></g></svg>
