<?xml version="1.0" encoding="UTF-8" standalone="no"?>
<!-- Created with Inkscape (http://www.inkscape.org/) -->

<svg
   width="2000"
   height="2000"
   viewBox="0 0 2000 2000"
   version="1.1"
   id="svg1"
   inkscape:version="1.2.2 (732a01da63, 2022-12-09)"
   sodipodi:docname="640_R-smallcaps.svg"
   xml:space="preserve"
   xmlns:inkscape="http://www.inkscape.org/namespaces/inkscape"
   xmlns:sodipodi="http://sodipodi.sourceforge.net/DTD/sodipodi-0.dtd"
   xmlns="http://www.w3.org/2000/svg"
   xmlns:svg="http://www.w3.org/2000/svg"><sodipodi:namedview
     id="namedview1"
     pagecolor="#ffffff"
     bordercolor="#000000"
     borderopacity="0.25"
     inkscape:showpageshadow="2"
     inkscape:pageopacity="0.0"
     inkscape:pagecheckerboard="0"
     inkscape:deskcolor="#d1d1d1"
     inkscape:document-units="px"
     showgrid="true"
     inkscape:zoom="0.55583335"
     inkscape:cx="549.62517"
     inkscape:cy="1327.7361"
     inkscape:window-width="3840"
     inkscape:window-height="2066"
     inkscape:window-x="-11"
     inkscape:window-y="-11"
     inkscape:window-maximized="1"
     inkscape:current-layer="layer1"
     showguides="false"><inkscape:grid
       id="grid1"
       units="px"
       originx="0"
       originy="0"
       spacingx="10"
       spacingy="10"
       empcolor="#0099e5"
       empopacity="0.30196078"
       color="#0099e5"
       opacity="0.14901961"
       empspacing="10"
       dotted="false"
       gridanglex="30"
       gridanglez="30"
       visible="true" /></sodipodi:namedview><defs
     id="defs1" /><g
     inkscape:label="Layer 1"
     inkscape:groupmode="layer"
     id="layer1"><path
       id="path48264-2"
       style="fill:#000000;fill-opacity:0.555319;fill-rule:evenodd;stroke:none;stroke-width:1px;stroke-linecap:butt;stroke-linejoin:miter;stroke-opacity:1"
       d="m 1000,1100 c 250,0 495.5022,-80.7346 500,-340.00001 4.4978,-259.26538 -250,-360 -500,-360 H 100 v 100 H 300.00004 L 300,1500 H 99.99996 v 100 H 900 V 1500 H 600 V 1100 Z M 600.00004,499.99999 H 1000 c 120,0 200,90 200,250 0,160 -80,250.00001 -200,250.00001 H 600 Z"
       sodipodi:nodetypes="czsccccccccccccszscc" /><path
       style="fill:#000000;fill-opacity:0.555319;stroke:none;stroke-width:1px;stroke-linecap:butt;stroke-linejoin:miter;stroke-opacity:1"
       d="m 1700,1600 h -300 c -90,0 -201.1538,-100.0033 -200,-300 0.8996,-155.922 -50,-200 -200,-200 V 999.99999 c 150,0 500,-39.99999 500,300.00001 0,200 100,200 200,200 z"
       id="path69743"
       sodipodi:nodetypes="cssccscc" /><path
       id="path48264-2-3"
       style="fill:#000000;fill-opacity:0.555319;fill-rule:evenodd;stroke:none;stroke-width:1px;stroke-linecap:butt;stroke-linejoin:miter;stroke-opacity:1"
       d="M 100 400 L 100 500 L 300 500 L 300 1500 L 100 1500 L 100 1600 L 900 1600 L 900 1500 L 600 1500 L 600 1100 L 1000 1100 C 1149.9998 1100 1200.8996 1144.0782 1200 1300 C 1198.8462 1499.9965 1310.0001 1600 1400 1600 L 1700 1600 L 1700 1500 C 1600.0001 1500 1500 1499.9998 1500 1300 C 1500 1144.6108 1426.8253 1068.7231 1333.1172 1031.9844 C 1431.1833 979.8274 1497.6806 893.69867 1500 760 C 1504.4978 500.73488 1249.9997 400 1000 400 L 100 400 z M 600 500 L 1000 500 C 1119.9999 500 1200 590.00016 1200 750 C 1200 909.99984 1119.9999 1000 1000 1000 L 600 1000 L 600 500 z " /></g></svg>
