<?xml version="1.0" encoding="UTF-8" standalone="no"?>
<!-- Created with Inkscape (http://www.inkscape.org/) -->

<svg
   width="2000"
   height="2000"
   viewBox="0 0 2000 2000"
   version="1.1"
   id="svg1"
   inkscape:version="1.2.2 (732a01da63, 2022-12-09)"
   sodipodi:docname="295_h-stroke.svg"
   xml:space="preserve"
   xmlns:inkscape="http://www.inkscape.org/namespaces/inkscape"
   xmlns:sodipodi="http://sodipodi.sourceforge.net/DTD/sodipodi-0.dtd"
   xmlns="http://www.w3.org/2000/svg"
   xmlns:svg="http://www.w3.org/2000/svg"><sodipodi:namedview
     id="namedview1"
     pagecolor="#ffffff"
     bordercolor="#000000"
     borderopacity="0.25"
     inkscape:showpageshadow="2"
     inkscape:pageopacity="0.0"
     inkscape:pagecheckerboard="0"
     inkscape:deskcolor="#d1d1d1"
     inkscape:document-units="px"
     showgrid="true"
     inkscape:zoom="0.55583335"
     inkscape:cx="103.44827"
     inkscape:cy="1147.8261"
     inkscape:window-width="3840"
     inkscape:window-height="2066"
     inkscape:window-x="-11"
     inkscape:window-y="-11"
     inkscape:window-maximized="1"
     inkscape:current-layer="layer1"
     showguides="false"><inkscape:grid
       id="grid1"
       units="px"
       originx="0"
       originy="0"
       spacingx="10"
       spacingy="10"
       empcolor="#0099e5"
       empopacity="0.30196078"
       color="#0099e5"
       opacity="0.14901961"
       empspacing="10"
       dotted="false"
       gridanglex="30"
       gridanglez="30"
       visible="true" /></sodipodi:namedview><defs
     id="defs1" /><g
     inkscape:label="Layer 1"
     inkscape:groupmode="layer"
     id="layer1"><path
       id="path123739"
       style="fill:#000000;fill-opacity:0.555319;stroke:none;stroke-width:1px;stroke-linecap:butt;stroke-linejoin:miter;stroke-opacity:1"
       d="M 100 200 L 100 300 L 300 300 L 300 400 L 100 400 L 100 500 L 300 500 L 300 1500 L 100 1500 L 100 1600 L 800 1600 L 800 1500 L 600 1500 L 600 800 C 600 800 750.0003 700 900 700 C 1049.9997 700 1100 834.33338 1100 1100 L 1100 1600 L 1600 1600 L 1600 1500 L 1400 1500 L 1400 1100 C 1400 912.50102 1324.3932 764.76579 1192.873 679.89258 L 1192.8711 679.89258 C 1166.5674 662.91828 1138.0274 648.45806 1107.4082 636.69727 L 1107.4062 636.69727 C 1046.1666 613.17543 976.61155 600.44977 900 600 C 843.75108 599.66977 787.50198 613.65 739.16211 631.25391 C 723.04943 637.12165 707.81213 643.39265 693.75 649.66992 C 665.62563 662.22469 642.18736 674.80836 625.78125 684.25195 C 609.37481 693.69574 600 700 600 700 L 600 500 L 1000 500 L 1000 400 L 600 400 L 600 200 L 100 200 z " /></g></svg>
