<?xml version="1.0" encoding="UTF-8" standalone="no"?>
<!-- Created with Inkscape (http://www.inkscape.org/) -->

<svg
   width="2000"
   height="2000"
   viewBox="0 0 2000 2000"
   version="1.1"
   id="svg1"
   inkscape:version="1.2.2 (732a01da63, 2022-12-09)"
   sodipodi:docname="309_j-circumflex.svg"
   xml:space="preserve"
   xmlns:inkscape="http://www.inkscape.org/namespaces/inkscape"
   xmlns:sodipodi="http://sodipodi.sourceforge.net/DTD/sodipodi-0.dtd"
   xmlns="http://www.w3.org/2000/svg"
   xmlns:svg="http://www.w3.org/2000/svg"><sodipodi:namedview
     id="namedview1"
     pagecolor="#ffffff"
     bordercolor="#000000"
     borderopacity="0.25"
     inkscape:showpageshadow="2"
     inkscape:pageopacity="0.0"
     inkscape:pagecheckerboard="0"
     inkscape:deskcolor="#d1d1d1"
     inkscape:document-units="px"
     showgrid="true"
     inkscape:zoom="1.1116667"
     inkscape:cx="220.83957"
     inkscape:cy="1256.6716"
     inkscape:window-width="3840"
     inkscape:window-height="2066"
     inkscape:window-x="-11"
     inkscape:window-y="-11"
     inkscape:window-maximized="1"
     inkscape:current-layer="layer1"
     showguides="false"><inkscape:grid
       id="grid1"
       units="px"
       originx="0"
       originy="0"
       spacingx="25"
       spacingy="25"
       empcolor="#0099e5"
       empopacity="0.30196078"
       color="#0099e5"
       opacity="0.14901961"
       empspacing="4"
       dotted="false"
       gridanglex="30"
       gridanglez="30"
       visible="true" /></sodipodi:namedview><defs
     id="defs1" /><g
     inkscape:label="Layer 1"
     inkscape:groupmode="layer"
     id="layer1"><path
       id="path8529"
       style="fill:#000000;fill-opacity:0.555319;fill-rule:evenodd;stroke:none;stroke-width:0.688846px;stroke-linecap:butt;stroke-linejoin:miter;stroke-opacity:1"
       d="M 500 600 L 500 700 L 700 700 L 700 1600 L 1000 1600 L 1000 600 L 500 600 z " /><path
       style="fill:#000000;fill-opacity:0.555319;fill-rule:evenodd;stroke:none;stroke-width:0.688846px;stroke-linecap:butt;stroke-linejoin:miter;stroke-opacity:1"
       d="m 1000,1600 c 0,300 -298.81342,407.2835 -600,400 -201.42399,-4.871 -300,-178.5688 -300,-275 0,-97.8289 75,-125 150,-125 117.784,0 150,50 150,100 0,115 -120,105 -120,105 v 0 c 0,0 19.8603,95.8995 120,95 179.9927,-1.6169 300,-50 300,-300 z"
       id="path8529-7"
       sodipodi:nodetypes="cssssccscc" /><path
       id="path8529-0"
       style="fill:#000000;fill-opacity:0.555319;fill-rule:evenodd;stroke:none;stroke-width:0.688846px;stroke-linecap:butt;stroke-linejoin:miter;stroke-opacity:1"
       d="M 500 600 L 500 700 L 700 700 L 700 1600 C 700 1849.9997 579.99252 1898.3831 400 1900 C 299.8604 1900.8995 280 1805 280 1805 C 280 1805 400 1814.9999 400 1700 C 400 1650.0001 367.78388 1600 250 1600 C 175.00007 1600 100 1627.1712 100 1725 C 100 1821.4311 198.57621 1995.129 400 2000 C 701.18628 2007.2835 1000 1899.9997 1000 1600 L 1000 600 L 500 600 z " /></g></svg>
