<?xml version="1.0" encoding="UTF-8" standalone="no"?>
<!-- Created with Inkscape (http://www.inkscape.org/) -->

<svg
   width="2000"
   height="2000"
   viewBox="0 0 2000 2000"
   version="1.1"
   id="svg1"
   inkscape:version="1.2.2 (732a01da63, 2022-12-09)"
   sodipodi:docname="330_capital-eng.svg"
   xml:space="preserve"
   xmlns:inkscape="http://www.inkscape.org/namespaces/inkscape"
   xmlns:sodipodi="http://sodipodi.sourceforge.net/DTD/sodipodi-0.dtd"
   xmlns="http://www.w3.org/2000/svg"
   xmlns:svg="http://www.w3.org/2000/svg"><sodipodi:namedview
     id="namedview1"
     pagecolor="#ffffff"
     bordercolor="#000000"
     borderopacity="0.25"
     inkscape:showpageshadow="2"
     inkscape:pageopacity="0.0"
     inkscape:pagecheckerboard="0"
     inkscape:deskcolor="#d1d1d1"
     inkscape:document-units="px"
     showgrid="true"
     inkscape:zoom="2.2233334"
     inkscape:cx="1008.1709"
     inkscape:cy="1747.826"
     inkscape:window-width="3840"
     inkscape:window-height="2066"
     inkscape:window-x="5749"
     inkscape:window-y="-11"
     inkscape:window-maximized="1"
     inkscape:current-layer="layer1-4-8"
     showguides="false"><inkscape:grid
       id="grid1"
       units="px"
       originx="0"
       originy="0"
       spacingx="25"
       spacingy="25"
       empcolor="#0099e5"
       empopacity="0.30196078"
       color="#0099e5"
       opacity="0.14901961"
       empspacing="4"
       dotted="false"
       gridanglex="30"
       gridanglez="30"
       visible="true" /></sodipodi:namedview><defs
     id="defs1" /><g
     inkscape:label="Layer 1"
     inkscape:groupmode="layer"
     id="layer1"><g
       inkscape:label="Layer 1"
       id="layer1-4-8"
       transform="translate(950,-900)"><path
         id="path8529-0-3"
         style="fill:#000000;fill-opacity:0.555319;fill-rule:evenodd;stroke:none;stroke-width:0.688846px;stroke-linecap:butt;stroke-linejoin:miter;stroke-opacity:1"
         d="M 750,1200 H 950 V 1100 H 350 v 100 h 200 v 850 l -950,-950 h -450 v 100 h 200 v 1200 h -200 v 100 h 600 v -100 h -200 v -950 l 900,900 v 150 c 0,170 -80.001,299.5097 -200,300 -100.1428,0.4092 -120,-20 -120,-20 0,0 120,9.9999 120,-105 0,-49.9999 -32.21612,-100 -150,-100 -74.99993,0 -150,27.1712 -150,125 0,96.4311 100,200 300,200 149.7748,0 500,-80 500,-400 z"
         sodipodi:nodetypes="ccccccccccccccccccccscsssscc" /></g></g></svg>
