<?xml version="1.0" encoding="UTF-8" standalone="no"?>
<!-- Created with Inkscape (http://www.inkscape.org/) -->

<svg
   width="2000"
   height="2000"
   viewBox="0 0 2000 2000"
   version="1.1"
   id="svg1"
   inkscape:version="1.2.2 (732a01da63, 2022-12-09)"
   sodipodi:docname="339_oe.svg"
   xml:space="preserve"
   xmlns:inkscape="http://www.inkscape.org/namespaces/inkscape"
   xmlns:sodipodi="http://sodipodi.sourceforge.net/DTD/sodipodi-0.dtd"
   xmlns="http://www.w3.org/2000/svg"
   xmlns:svg="http://www.w3.org/2000/svg"><sodipodi:namedview
     id="namedview1"
     pagecolor="#ffffff"
     bordercolor="#000000"
     borderopacity="0.25"
     inkscape:showpageshadow="2"
     inkscape:pageopacity="0.0"
     inkscape:pagecheckerboard="0"
     inkscape:deskcolor="#d1d1d1"
     inkscape:document-units="px"
     showgrid="true"
     inkscape:zoom="0.78606706"
     inkscape:cx="868.24653"
     inkscape:cy="1279.789"
     inkscape:window-width="3840"
     inkscape:window-height="2066"
     inkscape:window-x="-11"
     inkscape:window-y="-11"
     inkscape:window-maximized="1"
     inkscape:current-layer="layer1"
     showguides="false"><inkscape:grid
       id="grid1"
       units="px"
       originx="0"
       originy="0"
       spacingx="10"
       spacingy="10"
       empcolor="#0099e5"
       empopacity="0.30196078"
       color="#0099e5"
       opacity="0.14901961"
       empspacing="10"
       dotted="false"
       gridanglex="30"
       gridanglez="30"
       visible="true" /></sodipodi:namedview><defs
     id="defs1" /><g
     inkscape:label="Layer 1"
     inkscape:groupmode="layer"
     id="layer1"><path
       style="fill:#000000;fill-opacity:0.555319;stroke:none;stroke-width:1px;stroke-linecap:butt;stroke-linejoin:miter;stroke-opacity:1"
       d="m 900,1100 c 0,300 300.0155,496.7076 650,500 382.4866,3.5982 525,-200 525,-200 v -100 c 0,0 -175,200 -525,200 -250,0 -350,-100 -350,-400 0,-300 100,-400 350,-400 250,0 250,300 250,300 h -700 v 100 c 0,0 675,0 1000,0 0,-200 -100,-500 -550,-500 -350,0 -650,200 -650,500 z"
       id="path124467"
       sodipodi:nodetypes="zsccszsccccsz" /><path
       id="path124467-0"
       style="fill:#000000;fill-opacity:0.555319;stroke:none;stroke-width:1px;stroke-linecap:butt;stroke-linejoin:miter;stroke-opacity:1"
       d="m 650,600 c -399.9996,0 -550,200.00033 -550,500 0,299.9997 157.2474,497.4557 550,500 392.7526,-2.5443 550,-200.0003 550,-500 0,-299.99967 -150.0004,-500 -550,-500 z m 0,100 c 149.9999,0 250,134.33314 250,400 0,265.6669 -100.0001,400 -250,400 -149.9998,0 -250,-134.3331 -250,-400 0,-265.66686 100.0002,-400 250,-400 z" /><path
       id="path124467-9"
       style="fill:#000000;fill-opacity:0.555319;stroke:none;stroke-width:1px;stroke-linecap:butt;stroke-linejoin:miter;stroke-opacity:1"
       d="m 650,600 c -399.9992,0 -550,200.00059 -550,500 0,299.9994 157.24779,497.4557 550,500 203.47186,-1.3181 343.5958,-55.0557 431.5332,-148.1562 119.7019,92.8307 287.3273,146.4522 468.4668,148.1562 382.4862,3.5982 525,-200 525,-200 v -100 c 0,0 -175.0004,200 -525,200 -249.9997,0 -350,-100.0003 -350,-400 h 900 c 0,-199.9998 -100.0005,-500 -550,-500 -180.4589,0 -347.4953,53.27679 -467.1035,145.90625 C 995.87121,653.27684 856.23839,600 650,600 Z m 0,100 c 149.99975,0 250,134.33337 250,400 0,265.6666 -100.00025,400 -250,400 -149.99965,0 -250,-134.3334 -250,-400 0,-265.66663 100.00035,-400 250,-400 z m 900,0 c 249.9997,0 250,300 250,300 H 1204.543 C 1226.4256,777.43912 1330.1998,700 1550,700 Z" /></g></svg>
