<?xml version="1.0" encoding="UTF-8" standalone="no"?>
<!-- Created with Inkscape (http://www.inkscape.org/) -->

<svg
   width="2000"
   height="2000"
   viewBox="0 0 2000 2000"
   version="1.1"
   id="svg1"
   inkscape:version="1.2.2 (732a01da63, 2022-12-09)"
   sodipodi:docname="8470_numero-sign.svg"
   xml:space="preserve"
   xmlns:inkscape="http://www.inkscape.org/namespaces/inkscape"
   xmlns:sodipodi="http://sodipodi.sourceforge.net/DTD/sodipodi-0.dtd"
   xmlns="http://www.w3.org/2000/svg"
   xmlns:svg="http://www.w3.org/2000/svg"><sodipodi:namedview
     id="namedview1"
     pagecolor="#ffffff"
     bordercolor="#000000"
     borderopacity="0.25"
     inkscape:showpageshadow="2"
     inkscape:pageopacity="0.0"
     inkscape:pagecheckerboard="0"
     inkscape:deskcolor="#d1d1d1"
     inkscape:document-units="px"
     showgrid="true"
     inkscape:zoom="0.39303353"
     inkscape:cx="2591.382"
     inkscape:cy="1580.0179"
     inkscape:window-width="3840"
     inkscape:window-height="2066"
     inkscape:window-x="-11"
     inkscape:window-y="-11"
     inkscape:window-maximized="1"
     inkscape:current-layer="layer1"
     showguides="false"><inkscape:grid
       id="grid1"
       units="px"
       originx="0"
       originy="0"
       spacingx="10"
       spacingy="10"
       empcolor="#0099e5"
       empopacity="0.30196078"
       color="#0099e5"
       opacity="0.14901961"
       empspacing="10"
       dotted="false"
       gridanglex="30"
       gridanglez="30"
       visible="true" /></sodipodi:namedview><defs
     id="defs1" /><g
     inkscape:label="Layer 1"
     inkscape:groupmode="layer"
     id="layer1"><path
       id="path22183"
       style="fill:#000000;fill-opacity:0.555319;stroke:none;stroke-width:1px;stroke-linecap:butt;stroke-linejoin:miter;stroke-opacity:1"
       d="m 300,200 v 100 h 200 v 900 c 0,249.9995 -0.004,299.3271 -60,300 -80.20982,0.8996 -80,-45 -80,-45 0,0 40,-15.0001 40,-70 0,-49.9999 -32.21624,-85 -150,-85 -74.99986,0 -150,27.1713 -150,125 0,96.431 160.00014,175 300,175 199.9998,0 300,-100.0006 300,-400 V 550 l 1050,1050 h 150 V 600 c 0,-249.99945 10e-5,-299.3271 60,-300 80.2098,-0.8996 80,45 80,45 0,0 -40,15.00005 -40,70 0,49.99985 32.2162,85 150,85 74.9998,0 150,-27.1713 150,-125 0,-96.431 -160.0001,-175 -300,-175 -199.9998,0 -300,100.0006 -300,400 v 550 L 750,200 Z m 2200,400 c -290.9085,0 -400,140.00044 -400,350 0,209.9996 114.362,348.219 400,350 285.6379,-1.781 400,-140.0004 400,-350 0,-209.99956 -109.0915,-350 -400,-350 z m 0,100 c 119.9997,0 200,83.95839 200,250 0,166.0416 -80.0003,250 -200,250 -119.9998,0 -200,-83.9584 -200,-250 0,-166.04161 80.0002,-250 200,-250 z m -400,700 v 100 h 800 v -100 z"
       sodipodi:nodetypes="cccsscssssscccsscssssscccsscsssssssccccc" /></g></svg>
