<?xml version="1.0" encoding="UTF-8" standalone="no"?>
<!-- Created with Inkscape (http://www.inkscape.org/) -->

<svg
   width="1200"
   height="1200"
   viewBox="0 0 1200 1200"
   version="1.1"
   id="svg1"
   inkscape:version="1.2.1 (9c6d41e410, 2022-07-14)"
   sodipodi:docname="42801_S-smallcaps.svg"
   xml:space="preserve"
   xmlns:inkscape="http://www.inkscape.org/namespaces/inkscape"
   xmlns:sodipodi="http://sodipodi.sourceforge.net/DTD/sodipodi-0.dtd"
   xmlns="http://www.w3.org/2000/svg"
   xmlns:svg="http://www.w3.org/2000/svg"><sodipodi:namedview
     id="namedview1"
     pagecolor="#ffffff"
     bordercolor="#000000"
     borderopacity="0.25"
     inkscape:showpageshadow="2"
     inkscape:pageopacity="0.0"
     inkscape:pagecheckerboard="0"
     inkscape:deskcolor="#d1d1d1"
     inkscape:document-units="px"
     showgrid="true"
     inkscape:zoom="0.78606705"
     inkscape:cx="247.43436"
     inkscape:cy="613.81532"
     inkscape:window-width="1649"
     inkscape:window-height="1416"
     inkscape:window-x="1740"
     inkscape:window-y="0"
     inkscape:window-maximized="0"
     inkscape:current-layer="layer1"
     showguides="true"><inkscape:grid
       id="grid1"
       units="px"
       originx="0"
       originy="0"
       spacingx="25"
       spacingy="25"
       empcolor="#0099e5"
       empopacity="0.30196078"
       color="#0099e5"
       opacity="0.14901961"
       empspacing="4"
       dotted="false"
       gridanglex="30"
       gridanglez="30"
       visible="true" /></sodipodi:namedview><defs
     id="defs1" /><g
     inkscape:label="Layer 1"
     inkscape:groupmode="layer"
     id="layer1"><path
       id="path2-5-1"
       style="fill:#000000;fill-opacity:0.555319;fill-rule:evenodd;stroke-width:0.865915"
       d="M 300,400 C 175.00012,400 -3e-6,437.21068 -3e-6,550 -3e-6,774.99977 400,700.00015 400,850 400,875 375.40998,900 300,900 200,900 75,875 75,825 H 0 l -3e-6,81.25 C 82.683195,958.22906 150,1000 300,999.99999 424.99987,999.99998 600,962.49989 600,850 600,625.00022 200,699.99985 200,550 c 0,-25 24.57814,-48.98017 100,-50 94.08227,-1.27216 225,25 225,75 h 75 V 493.75 C 517.27503,442.48578 458.68683,400 300,400 Z"
       sodipodi:nodetypes="sssscccsssscccs" /></g></svg>
