<?xml version="1.0" encoding="UTF-8" standalone="no"?>
<!-- Created with Inkscape (http://www.inkscape.org/) -->

<svg
   width="1200"
   height="1200"
   viewBox="0 0 1200 1200"
   version="1.1"
   id="svg1"
   inkscape:version="1.2.1 (9c6d41e410, 2022-07-14)"
   sodipodi:docname="42927_Q-smallcaps.svg"
   xml:space="preserve"
   xmlns:inkscape="http://www.inkscape.org/namespaces/inkscape"
   xmlns:sodipodi="http://sodipodi.sourceforge.net/DTD/sodipodi-0.dtd"
   xmlns="http://www.w3.org/2000/svg"
   xmlns:svg="http://www.w3.org/2000/svg"><sodipodi:namedview
     id="namedview1"
     pagecolor="#ffffff"
     bordercolor="#000000"
     borderopacity="0.25"
     inkscape:showpageshadow="2"
     inkscape:pageopacity="0.0"
     inkscape:pagecheckerboard="0"
     inkscape:deskcolor="#d1d1d1"
     inkscape:document-units="px"
     showgrid="true"
     inkscape:zoom="0.78606703"
     inkscape:cx="419.17545"
     inkscape:cy="637.35023"
     inkscape:window-width="2560"
     inkscape:window-height="1377"
     inkscape:window-x="1072"
     inkscape:window-y="-8"
     inkscape:window-maximized="1"
     inkscape:current-layer="layer1"
     showguides="false"><inkscape:grid
       id="grid1"
       units="px"
       originx="0"
       originy="0"
       spacingx="25"
       spacingy="25"
       empcolor="#0099e5"
       empopacity="0.30196078"
       color="#0099e5"
       opacity="0.14901961"
       empspacing="4"
       dotted="false"
       gridanglex="30"
       gridanglez="30"
       visible="true" /></sodipodi:namedview><defs
     id="defs1" /><g
     inkscape:label="Layer 1"
     inkscape:groupmode="layer"
     id="layer1"><path
       id="path2-8-4-2"
       style="fill:#000000;fill-opacity:0.555319;fill-rule:evenodd;stroke-width:0.999873"
       d="M 300 400 C 75.000245 400 0 525.00015 0 675 L 0 725 C -3.7895575e-14 874.1136 75.000245 1000 300 1000 C 333.93525 1000 364.39932 997.11141 391.76758 991.76758 L 500 1100 L 600 1100 L 600 1000 L 526.57617 926.57617 C 579.15115 876.05291 600 804.00804 600 725 L 600 675 C 600 525.00015 524.99979 400 300 400 z M 300 500 C 399.99992 500 400 600.00008 400 675 L 400 725 C 400 747.89941 399.9655 773.1165 397.11914 797.11914 L 350 750 L 250 750 L 250 850 L 300 900 C 200.00012 900 200 799.99992 200 725 L 200 675 C 200 600.00008 200.00012 500 300 500 z " /></g></svg>
