<?xml version="1.0" encoding="UTF-8" standalone="no"?>
<!-- Created with Inkscape (http://www.inkscape.org/) -->

<svg
   width="1200"
   height="1200"
   viewBox="0 0 1200 1200"
   version="1.1"
   id="svg1"
   inkscape:version="1.3 (0e150ed6c4, 2023-07-21)"
   sodipodi:docname="8353_colon-sign.svg"
   xml:space="preserve"
   xmlns:inkscape="http://www.inkscape.org/namespaces/inkscape"
   xmlns:sodipodi="http://sodipodi.sourceforge.net/DTD/sodipodi-0.dtd"
   xmlns="http://www.w3.org/2000/svg"
   xmlns:svg="http://www.w3.org/2000/svg"><sodipodi:namedview
     id="namedview1"
     pagecolor="#ffffff"
     bordercolor="#000000"
     borderopacity="0.25"
     inkscape:showpageshadow="2"
     inkscape:pageopacity="0.0"
     inkscape:pagecheckerboard="0"
     inkscape:deskcolor="#d1d1d1"
     inkscape:document-units="px"
     showgrid="true"
     inkscape:zoom="0.78606706"
     inkscape:cx="337.12136"
     inkscape:cy="667.24587"
     inkscape:window-width="1350"
     inkscape:window-height="1230"
     inkscape:window-x="1188"
     inkscape:window-y="93"
     inkscape:window-maximized="0"
     inkscape:current-layer="layer1"
     showguides="false"><inkscape:grid
       id="grid1"
       units="px"
       originx="0"
       originy="0"
       spacingx="25"
       spacingy="25"
       empcolor="#0099e5"
       empopacity="0.30196078"
       color="#0099e5"
       opacity="0.14901961"
       empspacing="4"
       dotted="false"
       gridanglex="30"
       gridanglez="30"
       visible="true" /></sodipodi:namedview><defs
     id="defs1" /><g
     inkscape:label="Layer 1"
     inkscape:groupmode="layer"
     id="layer1"><path
       style="fill:#000000;fill-opacity:0.56;stroke:none;stroke-width:1px;stroke-linecap:butt;stroke-linejoin:miter;stroke-opacity:1"
       d="m 0,950 v 150 H 50 L 400,300 V 200 h -75 z"
       id="path424"
       sodipodi:nodetypes="ccccccc" /><path
       style="fill:#000000;fill-opacity:0.56;stroke:none;stroke-width:1px;stroke-linecap:butt;stroke-linejoin:miter;stroke-opacity:1"
       d="m 200,950 v 150 h 50 L 600,300 V 200 h -75 z"
       id="path424-3"
       sodipodi:nodetypes="ccccccc" /><path
       id="path2-8-5"
       style="fill:#000000;fill-opacity:0.555319;fill-rule:evenodd;stroke-width:0.935296"
       d="M 400,803.125 C 400,825 400,900 300,900 200,900 200,784.37489 200,675 v -50 c 0,-109.37489 0,-225 100,-225 100,0 100,75 100,96.875 H 600 C 600,453.125 574.99973,300 300,300 75.00023,300 0,450.00018 0,625 v 50 c 0,174.99983 75.00023,325 300,325 274.99973,0 300,-153.125 300,-196.875 z"
       sodipodi:nodetypes="cssssccsssscc" /><path
       id="path424-9"
       style="fill:#000000;fill-opacity:0.56;stroke:none;stroke-width:1px;stroke-linecap:butt;stroke-linejoin:miter;stroke-opacity:1"
       d="M 325 200 L 281.49805 300.39062 C 70.901499 308.45765 0 454.89875 0 625 L 0 675 C 0 743.19306 11.464824 807.53581 38.679688 860.74023 L 0 950 L 0 1100 L 50 1100 L 115.58594 950.08984 C 139.36217 966.62077 167.36255 979.51881 200 988.06445 L 200 1100 L 250 1100 L 293.80664 999.86914 C 295.88854 999.89538 297.89182 1000 300 1000 C 574.99946 1000 600 846.87496 600 803.125 L 400 803.125 C 400 821.57324 399.75359 877.64545 339.77148 894.81055 L 513.86719 496.875 L 600 496.875 C 600 476.38777 594.51231 431.91665 560.44336 390.41602 L 600 300 L 600 200 L 525 200 L 469.81055 327.35938 C 448.91717 319.09809 424.7313 312.29312 396.69922 307.54297 L 400 300 L 400 200 L 325 200 z M 352.07031 409.55469 C 393.87901 427.82045 399.21154 467.62415 399.84961 488.81055 L 233.98047 871.58398 C 211.83128 844.81492 204.12282 801.74464 201.45117 753.82812 L 352.07031 409.55469 z " /></g></svg>
