<?xml version="1.0" encoding="UTF-8" standalone="no"?>
<!-- Created with Inkscape (http://www.inkscape.org/) -->

<svg
   width="1200"
   height="1200"
   viewBox="0 0 1200 1200"
   version="1.1"
   id="svg1"
   inkscape:version="1.2.1 (9c6d41e410, 2022-07-14)"
   sodipodi:docname="8354_cruzeiro-sign.svg"
   xml:space="preserve"
   xmlns:inkscape="http://www.inkscape.org/namespaces/inkscape"
   xmlns:sodipodi="http://sodipodi.sourceforge.net/DTD/sodipodi-0.dtd"
   xmlns="http://www.w3.org/2000/svg"
   xmlns:svg="http://www.w3.org/2000/svg"><sodipodi:namedview
     id="namedview1"
     pagecolor="#ffffff"
     bordercolor="#000000"
     borderopacity="0.25"
     inkscape:showpageshadow="2"
     inkscape:pageopacity="0.0"
     inkscape:pagecheckerboard="0"
     inkscape:deskcolor="#d1d1d1"
     inkscape:document-units="px"
     showgrid="true"
     inkscape:zoom="1.1116667"
     inkscape:cx="228.48575"
     inkscape:cy="558.62067"
     inkscape:window-width="2560"
     inkscape:window-height="1377"
     inkscape:window-x="1072"
     inkscape:window-y="-8"
     inkscape:window-maximized="1"
     inkscape:current-layer="layer1"
     showguides="false"><inkscape:grid
       id="grid1"
       units="px"
       originx="0"
       originy="0"
       spacingx="25"
       spacingy="25"
       empcolor="#0099e5"
       empopacity="0.30196078"
       color="#0099e5"
       opacity="0.14901961"
       empspacing="4"
       dotted="false"
       gridanglex="30"
       gridanglez="30"
       visible="true" /></sodipodi:namedview><defs
     id="defs1" /><g
     inkscape:label="Layer 1"
     inkscape:groupmode="layer"
     id="layer1"><path
       id="path2-8"
       style="fill:#000000;fill-opacity:0.555319;fill-rule:evenodd;stroke-width:0.999873"
       d="M 500,775 C 500,800 449.99691,900.78635 350,900 235.6072,899.10045 175,749.99988 175,625 v -50 c 0,-124.99987 50,-275 175,-275 100,0 150,100 150,125 H 600 C 600,375 574.99973,200 300,200 75.00023,200 0,375.0002 0,575 v 50 c 0,199.9998 75.00023,375 300,375 274.99973,0 300,-175 300,-225 z"
       sodipodi:nodetypes="cssssccsssscc" /><path
       id="path2-6"
       style="fill:#000000;fill-opacity:0.555319;fill-rule:evenodd;stroke-width:0.999873"
       d="M 300,975 H 400 V 700 c 0,-74.99985 25.03638,-98.09303 75,-100 66.6628,-2.54431 125,25 125,25 V 525 c 0,0 -50.44312,-25 -150,-25 -125,0 -150,100.0002 -150,200 z"
       sodipodi:nodetypes="cccsccscc" /><path
       id="path2-8-6"
       style="fill:#000000;fill-opacity:0.555319;fill-rule:evenodd;stroke-width:0.999873"
       d="M 300 200 C 75.000455 200 0 375.0004 0 575 L 0 625 C 0 824.9996 75.000455 1000 300 1000 C 574.99946 1000 600 824.99995 600 775 L 500 775 C 500 795.41055 466.65366 866.31341 400 891.23828 L 400 700 C 400 625.00022 425.03643 601.90697 475 600 C 541.66273 597.45569 600 625 600 625 L 600 525 C 600 525 549.55678 500 450 500 C 325.00013 500 300 600.0003 300 700 L 300 889.21289 C 218.03076 852.73379 175 730.31887 175 625 L 175 575 C 175 450.00025 225.00012 300 350 300 C 449.9999 300 500 400.00002 500 425 L 600 425 C 600 375.00005 574.99946 200 300 200 z " /></g></svg>
