<?xml version="1.0" encoding="UTF-8" standalone="no"?>
<!-- Created with Inkscape (http://www.inkscape.org/) -->

<svg
   width="1200"
   height="1200"
   viewBox="0 0 1200 1200"
   version="1.1"
   id="svg1"
   inkscape:version="1.2.1 (9c6d41e410, 2022-07-14)"
   sodipodi:docname="8357_mill-sign.svg"
   xml:space="preserve"
   xmlns:inkscape="http://www.inkscape.org/namespaces/inkscape"
   xmlns:sodipodi="http://sodipodi.sourceforge.net/DTD/sodipodi-0.dtd"
   xmlns="http://www.w3.org/2000/svg"
   xmlns:svg="http://www.w3.org/2000/svg"><sodipodi:namedview
     id="namedview1"
     pagecolor="#ffffff"
     bordercolor="#000000"
     borderopacity="0.25"
     inkscape:showpageshadow="2"
     inkscape:pageopacity="0.0"
     inkscape:pagecheckerboard="0"
     inkscape:deskcolor="#d1d1d1"
     inkscape:document-units="px"
     showgrid="true"
     inkscape:zoom="1.1116667"
     inkscape:cx="-2.6986506"
     inkscape:cy="629.68514"
     inkscape:window-width="2560"
     inkscape:window-height="1377"
     inkscape:window-x="1072"
     inkscape:window-y="-8"
     inkscape:window-maximized="1"
     inkscape:current-layer="layer1"
     showguides="false"><inkscape:grid
       id="grid1"
       units="px"
       originx="0"
       originy="0"
       spacingx="25"
       spacingy="25"
       empcolor="#0099e5"
       empopacity="0.30196078"
       color="#0099e5"
       opacity="0.14901961"
       empspacing="4"
       dotted="false"
       gridanglex="30"
       gridanglez="30"
       visible="true" /></sodipodi:namedview><defs
     id="defs1" /><g
     inkscape:label="Layer 1"
     inkscape:groupmode="layer"
     id="layer1"><path
       style="fill:#000000;fill-opacity:0.555319;stroke:none;stroke-width:1px;stroke-linecap:butt;stroke-linejoin:miter;stroke-opacity:1"
       d="m 475,300 h 75 v 50 l -375,750 h -75 v -50 z"
       id="path11314"
       sodipodi:nodetypes="ccccccc" /><path
       id="path2-4"
       style="fill:#000000;fill-opacity:0.555319;fill-rule:evenodd;stroke-width:0.935296"
       d="M 175,400 0,400.0527 v 600 H 175 V 500.05273 c 42.24909,0 100,50.00008 100,125 V 1000.0527 H 425 V 625.05273 c 0,-37.23309 3.38516,-77.89927 -15.93921,-114.29883 9.88915,-6.49526 19.61234,-10.6811 28.43922,-10.67578 43.74995,0.0263 87.49999,50.00008 87.49999,125 V 1000.0781 H 700.00001 V 625.07812 c 0,-99.9999 -65.62524,-224.81545 -218.75001,-225 -53.23287,1.18884 -91.35534,18.20833 -127.56884,43.68945 C 319.89525,417.22382 275.30855,400.1209 218.75,400.05273 Z"
       sodipodi:nodetypes="cccccsccscssccsccsc" /><path
       id="path11314-9"
       style="fill:#000000;fill-opacity:0.555319;stroke:none;stroke-width:1px;stroke-linecap:butt;stroke-linejoin:miter;stroke-opacity:1"
       d="M 475 300 L 420.02539 409.95117 C 395.69624 417.6123 374.32482 429.2423 353.68164 443.76758 C 319.89576 417.22385 275.30849 400.1209 218.75 400.05273 L 175 400 L 0 400.05273 L 0 1000.0527 L 124.97266 1000.0527 L 100 1050 L 100 1100 L 175 1100 L 275 900 L 275 1000.0527 L 425 1000.0527 L 425 625.05273 C 425 616.72227 425.15647 608.18169 425.20312 599.59375 L 470.25781 509.48242 C 500.72027 527.28071 525 569.21868 525 625.07812 L 525 1000.0781 L 700 1000.0781 L 700 625.07812 C 700 534.75393 646.43816 424.21052 523.23828 403.52344 L 550 350 L 550 300 L 475 300 z M 175 500.05273 C 217.24905 500.05273 275 550.05289 275 625.05273 L 275 700 L 175 900 L 175 500.05273 z " /></g></svg>
