<?xml version="1.0" encoding="UTF-8" standalone="no"?>
<!-- Created with Inkscape (http://www.inkscape.org/) -->

<svg
   width="1200"
   height="1200"
   viewBox="0 0 1200 1200"
   version="1.1"
   id="svg1"
   inkscape:version="1.2.1 (9c6d41e410, 2022-07-14)"
   sodipodi:docname="8360_rupees-sign.svg"
   xml:space="preserve"
   xmlns:inkscape="http://www.inkscape.org/namespaces/inkscape"
   xmlns:sodipodi="http://sodipodi.sourceforge.net/DTD/sodipodi-0.dtd"
   xmlns="http://www.w3.org/2000/svg"
   xmlns:svg="http://www.w3.org/2000/svg"><sodipodi:namedview
     id="namedview1"
     pagecolor="#ffffff"
     bordercolor="#000000"
     borderopacity="0.25"
     inkscape:showpageshadow="2"
     inkscape:pageopacity="0.0"
     inkscape:pagecheckerboard="0"
     inkscape:deskcolor="#d1d1d1"
     inkscape:document-units="px"
     showgrid="true"
     inkscape:zoom="0.55583335"
     inkscape:cx="91.75412"
     inkscape:cy="573.91303"
     inkscape:window-width="2560"
     inkscape:window-height="1377"
     inkscape:window-x="1072"
     inkscape:window-y="-8"
     inkscape:window-maximized="1"
     inkscape:current-layer="layer1"
     showguides="false"><inkscape:grid
       id="grid1"
       units="px"
       originx="0"
       originy="0"
       spacingx="25"
       spacingy="25"
       empcolor="#0099e5"
       empopacity="0.30196078"
       color="#0099e5"
       opacity="0.14901961"
       empspacing="4"
       dotted="false"
       gridanglex="30"
       gridanglez="30"
       visible="true" /></sodipodi:namedview><defs
     id="defs1" /><g
     inkscape:label="Layer 1"
     inkscape:groupmode="layer"
     id="layer1"><path
       style="fill:#000000;fill-opacity:0.555319;fill-rule:evenodd;stroke:none;stroke-width:1px;stroke-linecap:butt;stroke-linejoin:miter;stroke-opacity:1"
       d="m 75,800 200,200 H 400 V 925 L 175,700 Z"
       id="path18005"
       sodipodi:nodetypes="cccccc" /><path
       id="path2-8"
       style="fill:#000000;fill-opacity:0.555319;fill-rule:evenodd;stroke-width:0.999873"
       d="m 0,200 v 800 H 100 V 800 h 50 C 324.99982,800 400,649.99995 400,550 V 450 C 400,350.0001 324.99982,200 150,200 h -50 z m 150,100 c 50,0 150,50 150,150 V 550 C 300,650 200,700 150,700 H 100 V 300 Z"
       sodipodi:nodetypes="ccccsssscccsscccc" /><path
       id="path2-1"
       style="fill:#000000;fill-opacity:0.555319;fill-rule:evenodd;stroke-width:0.999873"
       d="M 550,1000 C 425,1000 400,900 400,825 h 100 c 0,50 25,75 50,75 25,0 50,-25 50,-50 0,-99.99995 -200,-124.99995 -200,-299.99995 0,-75 49.47526,-149.99994 150,-150 C 675,399.99998 700,500 700,575 H 600 C 600,525 575,500.0001 550,500.00005 525,500 500,525 500,550 500,650 700,675 700,849.99995 700,924.99995 650,1000 550,1000 Z"
       sodipodi:nodetypes="sccssssccssss" /><path
       id="path18005-9"
       style="fill:#000000;fill-opacity:0.555319;fill-rule:evenodd;stroke:none;stroke-width:1px;stroke-linecap:butt;stroke-linejoin:miter;stroke-opacity:1"
       d="M 0 200 L 0 1000 L 100 1000 L 100 825 L 275 1000 L 400 1000 L 400 925 L 254.04883 779.04883 C 355.15834 734.34882 400 627.27569 400 550 L 400 450 C 400 350.0002 324.99965 200 150 200 L 100 200 L 0 200 z M 400 550 C 400 724.99982 600 750.00015 600 850 C 600 874.99997 574.99997 900 550 900 C 525.00003 900 500 874.99995 500 825 L 400 825 C 400 899.99992 425.00013 1000 550 1000 C 649.9999 1000 700 924.99992 700 850 C 700 675.00022 500 649.9999 500 550 C 500 525.00002 525.00003 499.99995 550 500 C 574.99997 500.00005 600 525.00005 600 575 L 700 575 C 700 500.00007 674.99987 399.99993 550 400 C 449.47536 400.00006 400 475.00007 400 550 z M 100 300 L 150 300 C 199.99995 300 300 350.0001 300 450 L 300 550 C 300 649.9999 199.99995 700 150 700 L 100 700 L 100 300 z " /></g></svg>
