<?xml version="1.0" encoding="UTF-8" standalone="no"?>
<!-- Created with Inkscape (http://www.inkscape.org/) -->

<svg
   width="1200"
   height="1200"
   viewBox="0 0 1200 1200"
   version="1.1"
   id="svg1"
   inkscape:version="1.2.1 (9c6d41e410, 2022-07-14)"
   sodipodi:docname="8361_won-sign.svg"
   xml:space="preserve"
   xmlns:inkscape="http://www.inkscape.org/namespaces/inkscape"
   xmlns:sodipodi="http://sodipodi.sourceforge.net/DTD/sodipodi-0.dtd"
   xmlns="http://www.w3.org/2000/svg"
   xmlns:svg="http://www.w3.org/2000/svg"><sodipodi:namedview
     id="namedview1"
     pagecolor="#ffffff"
     bordercolor="#000000"
     borderopacity="0.25"
     inkscape:showpageshadow="2"
     inkscape:pageopacity="0.0"
     inkscape:pagecheckerboard="0"
     inkscape:deskcolor="#d1d1d1"
     inkscape:document-units="px"
     showgrid="true"
     inkscape:zoom="0.55583335"
     inkscape:cx="129.53523"
     inkscape:cy="532.53372"
     inkscape:window-width="2560"
     inkscape:window-height="1377"
     inkscape:window-x="1072"
     inkscape:window-y="-8"
     inkscape:window-maximized="1"
     inkscape:current-layer="layer1"
     showguides="false"><inkscape:grid
       id="grid1"
       units="px"
       originx="0"
       originy="0"
       spacingx="25"
       spacingy="25"
       empcolor="#0099e5"
       empopacity="0.30196078"
       color="#0099e5"
       opacity="0.14901961"
       empspacing="4"
       dotted="false"
       gridanglex="30"
       gridanglez="30"
       visible="true" /></sodipodi:namedview><defs
     id="defs1" /><g
     inkscape:label="Layer 1"
     inkscape:groupmode="layer"
     id="layer1"><rect
       style="fill:#000000;fill-opacity:0.555319;fill-rule:evenodd;stroke:none;stroke-width:3.19089;stroke-linecap:square;stroke-linejoin:bevel;stroke-miterlimit:4.5;stroke-opacity:0.56;stop-color:#000000"
       id="rect24329"
       width="700"
       height="100"
       x="0"
       y="400" /><path
       id="path1-7-7"
       style="opacity:0.511111;fill:#999999;fill-rule:evenodd;stroke:none;stroke-width:3.7"
       d="M 675,200 H 550 v 200 c 0,100 -87.5,300 -87.5,300 L 406.25,475 400,300 H 300 L 293.75,475 237.5,700 C 237.5,700 150,500 150,400 V 200 H 25 v 300 c 0,171.79607 100,500 100,500 h 150 l 75,-300 75,300 h 150 c 0,0 100,-328.20393 100,-500 z"
       sodipodi:nodetypes="ccsccccccsccscccccsc" /><path
       id="rect24329-1"
       style="fill:#000000;fill-opacity:0.555319;fill-rule:evenodd;stroke:none;stroke-width:3.19089;stroke-linecap:square;stroke-linejoin:bevel;stroke-miterlimit:4.5;stroke-opacity:0.56;stop-color:#000000"
       d="M 25 200 L 25 400 L 0 400 L 0 500 L 25 500 C 25 671.7959 125 1000 125 1000 L 275 1000 L 350 700 L 425 1000 L 575 1000 C 575 1000 675 671.7959 675 500 L 700 500 L 700 400 L 675 400 L 675 200 L 550 200 L 550 400 L 403.57227 400 L 400 300 L 300 300 L 296.42773 400 L 150 400 L 150 200 L 25 200 z M 166.58984 500 L 287.5 500 L 237.5 700 C 237.5 700 191.94045 595.65395 166.58984 500 z M 412.5 500 L 533.41016 500 C 508.05955 595.65395 462.5 700 462.5 700 L 412.5 500 z " /></g></svg>
