<?xml version="1.0" encoding="UTF-8" standalone="no"?>
<!-- Created with Inkscape (http://www.inkscape.org/) -->

<svg
   width="1200"
   height="1200"
   viewBox="0 0 1200 1200"
   version="1.1"
   id="svg1"
   inkscape:version="1.3 (0e150ed6c4, 2023-07-21)"
   sodipodi:docname="8364_euro-sign.svg"
   xml:space="preserve"
   xmlns:inkscape="http://www.inkscape.org/namespaces/inkscape"
   xmlns:sodipodi="http://sodipodi.sourceforge.net/DTD/sodipodi-0.dtd"
   xmlns="http://www.w3.org/2000/svg"
   xmlns:svg="http://www.w3.org/2000/svg"><sodipodi:namedview
     id="namedview1"
     pagecolor="#ffffff"
     bordercolor="#000000"
     borderopacity="0.25"
     inkscape:showpageshadow="2"
     inkscape:pageopacity="0.0"
     inkscape:pagecheckerboard="0"
     inkscape:deskcolor="#d1d1d1"
     inkscape:document-units="px"
     showgrid="true"
     inkscape:zoom="1.1116667"
     inkscape:cx="380.50973"
     inkscape:cy="630.13491"
     inkscape:window-width="1278"
     inkscape:window-height="1368"
     inkscape:window-x="1073"
     inkscape:window-y="0"
     inkscape:window-maximized="0"
     inkscape:current-layer="layer1"
     showguides="false"><inkscape:grid
       id="grid1"
       units="px"
       originx="0"
       originy="0"
       spacingx="25"
       spacingy="25"
       empcolor="#0099e5"
       empopacity="0.30196078"
       color="#0099e5"
       opacity="0.14901961"
       empspacing="4"
       dotted="false"
       gridanglex="30"
       gridanglez="30"
       visible="true" /></sodipodi:namedview><defs
     id="defs1" /><g
     inkscape:label="Layer 1"
     inkscape:groupmode="layer"
     id="layer1"><rect
       style="fill:#000000;fill-opacity:0.555319;fill-rule:evenodd;stroke:none;stroke-width:3.26599;stroke-linecap:square;stroke-linejoin:bevel;stroke-miterlimit:4.5;stroke-opacity:0.56;stop-color:#000000"
       id="rect31771"
       width="400"
       height="100"
       x="0"
       y="600" /><rect
       style="fill:#000000;fill-opacity:0.555319;fill-rule:evenodd;stroke:none;stroke-width:3.38062;stroke-linecap:square;stroke-linejoin:bevel;stroke-miterlimit:4.5;stroke-opacity:0.56;stop-color:#000000"
       id="rect31773"
       width="500"
       height="100"
       x="0"
       y="400" /><path
       id="path2-8"
       style="fill:#000000;fill-opacity:0.555319;fill-rule:evenodd;stroke-width:0.999873"
       d="m 450,850 c 0,25 -25,50 -75,50 -75,0 -75,-150.00012 -75,-275 v -50 c 0,-124.99987 0.0452,-272.39665 75,-275 51.7991,-1.7991 75,0 75,25 H 600 C 600,275 575,200 375,200 150.00023,200 99.999997,375.0002 99.999997,575 v 50 C 99.999997,824.9998 150.00244,999.00311 375,999.99996 578.03571,1000.8995 600,900 600,850 Z"
       sodipodi:nodetypes="cssssccsssscc" /><path
       id="rect31771-1"
       style="fill:#000000;fill-opacity:0.555319;fill-rule:evenodd;stroke:none;stroke-width:3.26599;stroke-linecap:square;stroke-linejoin:bevel;stroke-miterlimit:4.5;stroke-opacity:0.56;stop-color:#000000"
       d="M 375,200 C 220.05217,200 148.10735,283.00196 118.32227,400 H 0 V 500 H 102.73242 C 100.84485,524.39253 100,549.48196 100,575 v 25 H 0 V 700 H 102.73828 C 115.65274,866.58579 178.72733,999.13042 375,1000 578.03551,1000.8996 600,899.99995 600,850 H 450 c 0,24.99997 -25.00005,50 -75,50 -60.29368,0 -71.95132,-97.03801 -74.26953,-200 H 400 V 600 H 300 v -25 c 0,-24.59351 0.16461,-49.94586 0.73828,-75 H 500 V 400 H 308.12305 C 317.00053,342.90212 335.60126,301.36841 375,300 c 51.79905,-1.7991 75,2e-5 75,25 H 600 C 600,275.00005 574.9998,200 375,200 Z"
       sodipodi:nodetypes="sccccsccccsccsccccsccccsccs" /></g></svg>
