<?xml version="1.0" encoding="UTF-8" standalone="no"?>
<!-- Created with Inkscape (http://www.inkscape.org/) -->

<svg
   width="1200"
   height="1200"
   viewBox="0 0 1200 1200"
   version="1.1"
   id="svg1"
   inkscape:version="1.2.1 (9c6d41e410, 2022-07-14)"
   sodipodi:docname="8367_drachma-sign.svg"
   xml:space="preserve"
   xmlns:inkscape="http://www.inkscape.org/namespaces/inkscape"
   xmlns:sodipodi="http://sodipodi.sourceforge.net/DTD/sodipodi-0.dtd"
   xmlns="http://www.w3.org/2000/svg"
   xmlns:svg="http://www.w3.org/2000/svg"><sodipodi:namedview
     id="namedview1"
     pagecolor="#ffffff"
     bordercolor="#000000"
     borderopacity="0.25"
     inkscape:showpageshadow="2"
     inkscape:pageopacity="0.0"
     inkscape:pagecheckerboard="0"
     inkscape:deskcolor="#d1d1d1"
     inkscape:document-units="px"
     showgrid="true"
     inkscape:zoom="0.78606706"
     inkscape:cx="498.68519"
     inkscape:cy="650.07176"
     inkscape:window-width="2560"
     inkscape:window-height="1377"
     inkscape:window-x="1072"
     inkscape:window-y="-8"
     inkscape:window-maximized="1"
     inkscape:current-layer="layer1"
     showguides="false"><inkscape:grid
       id="grid1"
       units="px"
       originx="0"
       originy="0"
       spacingx="25"
       spacingy="25"
       empcolor="#0099e5"
       empopacity="0.30196078"
       color="#0099e5"
       opacity="0.14901961"
       empspacing="4"
       dotted="false"
       gridanglex="30"
       gridanglez="30"
       visible="true" /></sodipodi:namedview><defs
     id="defs1" /><g
     inkscape:label="Layer 1"
     inkscape:groupmode="layer"
     id="layer1"><path
       id="path892"
       style="fill:#1a1a1a;fill-rule:evenodd;stroke:none;stroke-width:1px;stroke-linecap:butt;stroke-linejoin:miter;stroke-opacity:1"
       d="m 200,450 c -33.33333,150 -66.66667,300 -100,450 66.66667,0 133.33333,0 200,0 C 266.66667,750 233.33333,600 200,450 Z m 50,-250 c -33.33333,0 -66.66667,0 -100,0 C 100,433.33333 50,666.66667 0,900 c 0,33.33333 0,66.66667 0,100 133.33333,0 266.66667,0 400,0 -0.72767,-35.0451 1.46967,-70.40007 -1.12445,-105.24744 C 349.25037,663.16837 299.62518,431.58419 250,200 Z" /><path
       id="path2"
       style="fill:#000000;fill-opacity:0.555319;fill-rule:evenodd;stroke-width:0.999873"
       d="M 550,400 C 450,400 400,525.00014 400,624.99994 v 75 75 V 1200 l 100,10e-5 V 991.36131 c 22.60948,5.5626 22.5748,8.63869 50,8.63869 100,0 150,-125.0001 150,-225 V 625 C 700,525.0001 650,400 550,400 Z m 0,100 c 25,0 50,50.00015 50,125 v 150 c 0,74.61394 -25,125 -50,125 -25,0 -50,-50.00015 -50,-125 v -75 -75 c 0,-74.99985 17.09155,-125 50,-125 z"
       sodipodi:nodetypes="cscccccssscssssscss" /></g></svg>
