<?xml version="1.0" encoding="UTF-8" standalone="no"?>
<!-- Created with Inkscape (http://www.inkscape.org/) -->

<svg
   width="1200"
   height="1200"
   viewBox="0 0 1200 1200"
   version="1.1"
   id="svg1"
   inkscape:version="1.2.1 (9c6d41e410, 2022-07-14)"
   sodipodi:docname="8368_peso-sign.svg"
   xml:space="preserve"
   xmlns:inkscape="http://www.inkscape.org/namespaces/inkscape"
   xmlns:sodipodi="http://sodipodi.sourceforge.net/DTD/sodipodi-0.dtd"
   xmlns="http://www.w3.org/2000/svg"
   xmlns:svg="http://www.w3.org/2000/svg"><sodipodi:namedview
     id="namedview1"
     pagecolor="#ffffff"
     bordercolor="#000000"
     borderopacity="0.25"
     inkscape:showpageshadow="2"
     inkscape:pageopacity="0.0"
     inkscape:pagecheckerboard="0"
     inkscape:deskcolor="#d1d1d1"
     inkscape:document-units="px"
     showgrid="true"
     inkscape:zoom="1.1116667"
     inkscape:cx="151.12443"
     inkscape:cy="536.13192"
     inkscape:window-width="2560"
     inkscape:window-height="1377"
     inkscape:window-x="1072"
     inkscape:window-y="-8"
     inkscape:window-maximized="1"
     inkscape:current-layer="layer1"
     showguides="false"><inkscape:grid
       id="grid1"
       units="px"
       originx="0"
       originy="0"
       spacingx="25"
       spacingy="25"
       empcolor="#0099e5"
       empopacity="0.30196078"
       color="#0099e5"
       opacity="0.14901961"
       empspacing="4"
       dotted="false"
       gridanglex="30"
       gridanglez="30"
       visible="true" /></sodipodi:namedview><defs
     id="defs1" /><g
     inkscape:label="Layer 1"
     inkscape:groupmode="layer"
     id="layer1"><path
       id="path2-8-8"
       style="fill:#000000;fill-opacity:0.555319;fill-rule:evenodd;stroke-width:0.999873"
       d="m 50,200 v 800 h 150 l -1e-4,-100 H 300 c 174.9998,0 249.99996,-125.0001 250,-225 l 10e-5,-250 c 4e-5,-99.9999 -75.0002,-225 -250,-225 H 200 Z m 150,100 h 100 c 48.2847,0 100.00003,50.00007 100,125 l -10e-5,250 c -3e-5,74.9999 -50.0001,125 -100,125 h -100 z"
       sodipodi:nodetypes="ccccsssscccsssscc" /><rect
       style="fill:#000000;fill-opacity:0.555319;fill-rule:evenodd;stroke:none;stroke-width:4;stroke-linecap:square;stroke-linejoin:bevel;stroke-miterlimit:4.5;stroke-opacity:0.56;stop-color:#000000"
       id="rect47428"
       width="600"
       height="100"
       x="0"
       y="400" /><rect
       style="fill:#000000;fill-opacity:0.555319;fill-rule:evenodd;stroke:none;stroke-width:4;stroke-linecap:square;stroke-linejoin:bevel;stroke-miterlimit:4.5;stroke-opacity:0.56;stop-color:#000000"
       id="rect47430"
       width="600"
       height="100"
       x="0"
       y="600" /><path
       id="path2-8-8-1"
       style="fill:#000000;fill-opacity:0.555319;fill-rule:evenodd;stroke-width:0.999873"
       d="M 50 200 L 50 400 L 0 400 L 0 500 L 50 500 L 50 600 L 0 600 L 0 700 L 50 700 L 50 1000 L 200 1000 L 200 900 L 300 900 C 460.67795 900 536.86026 794.65064 548.28516 700 L 600 700 L 600 600 L 550 600 L 550 500 L 600 500 L 600 400 L 548.28516 400 C 536.86031 305.34936 460.67795 200 300 200 L 200 200 L 50 200 z M 200 300 L 300 300 C 342.6864 300 387.98735 339.1179 397.93359 400 L 200 400 L 200 300 z M 200 500 L 400 500 L 400 600 L 200 600 L 200 500 z M 200 700 L 397.99609 700 C 388.34027 760.88208 344.20273 800 300 800 L 200 800 L 200 700 z " /></g></svg>
