<?xml version="1.0" encoding="UTF-8" standalone="no"?>
<!-- Created with Inkscape (http://www.inkscape.org/) -->

<svg
   width="1200"
   height="1200"
   viewBox="0 0 1200 1200"
   version="1.1"
   id="svg1"
   inkscape:version="1.2.1 (9c6d41e410, 2022-07-14)"
   sodipodi:docname="8370_guarani-sign.svg"
   xml:space="preserve"
   xmlns:inkscape="http://www.inkscape.org/namespaces/inkscape"
   xmlns:sodipodi="http://sodipodi.sourceforge.net/DTD/sodipodi-0.dtd"
   xmlns="http://www.w3.org/2000/svg"
   xmlns:svg="http://www.w3.org/2000/svg"><sodipodi:namedview
     id="namedview1"
     pagecolor="#ffffff"
     bordercolor="#000000"
     borderopacity="0.25"
     inkscape:showpageshadow="2"
     inkscape:pageopacity="0.0"
     inkscape:pagecheckerboard="0"
     inkscape:deskcolor="#d1d1d1"
     inkscape:document-units="px"
     showgrid="true"
     inkscape:zoom="0.78606706"
     inkscape:cx="-142.48148"
     inkscape:cy="680.60351"
     inkscape:window-width="2560"
     inkscape:window-height="1377"
     inkscape:window-x="1072"
     inkscape:window-y="-8"
     inkscape:window-maximized="1"
     inkscape:current-layer="layer1"
     showguides="false"><inkscape:grid
       id="grid1"
       units="px"
       originx="0"
       originy="0"
       spacingx="25"
       spacingy="25"
       empcolor="#0099e5"
       empopacity="0.30196078"
       color="#0099e5"
       opacity="0.14901961"
       empspacing="4"
       dotted="false"
       gridanglex="30"
       gridanglez="30"
       visible="true" /></sodipodi:namedview><defs
     id="defs1" /><g
     inkscape:label="Layer 1"
     inkscape:groupmode="layer"
     id="layer1"><rect
       style="fill:#000000;fill-opacity:0.555319;fill-rule:evenodd;stroke:none;stroke-width:4;stroke-linecap:square;stroke-linejoin:bevel;stroke-miterlimit:4.5;stroke-opacity:0.56;stop-color:#000000"
       id="rect50392"
       width="200"
       height="900"
       x="200"
       y="200" /><path
       id="path2-8-6"
       style="fill:#000000;fill-opacity:0.555319;fill-rule:evenodd;stroke-width:0.935296"
       d="M 475,800.00002 C 475,843.75002 450,900 300,900 150,900 125,778.12488 125,668.75 V 625 c 0,-109.3749 30.47855,-224.62381 175,-225 141.98637,-0.36959 175,81.25004 175,125 H 600 C 598.72784,438.9509 574.99973,300 300,300 75.00023,300 0,453.12518 0,628.12502 v 43.75 C 0,846.87482 75.00023,1000 300,1000 574.99973,1000 600,865.62491 600,778.12503 V 700 H 450 v 100.00002 z"
       sodipodi:nodetypes="cssssccssssccccc" /><path
       id="rect50392-9"
       style="fill:#000000;fill-opacity:0.555319;fill-rule:evenodd;stroke:none;stroke-width:4;stroke-linecap:square;stroke-linejoin:bevel;stroke-miterlimit:4.5;stroke-opacity:0.56;stop-color:#000000"
       d="M 200 200 L 200 312.16602 C 52.232286 351.57876 0 482.20647 0 628.125 L 0 671.875 C 0 817.79349 52.232286 948.42124 200 987.83398 L 200 1100 L 400 1100 L 400 992.72266 C 581.26766 963.72926 600 853.55017 600 778.125 L 600 700 L 450 700 L 450 800 L 475 800 C 475 831.25219 461.96471 868.77746 400 887.72656 L 400 418.44141 C 458.69507 445.0295 475 494.31346 475 525 L 600 525 C 598.90352 450.83413 580.96792 337.44951 400 307.52539 L 400 200 L 200 200 z M 200 427.13672 L 200 873.44141 C 137.81872 831.59353 125 746.98578 125 668.75 L 125 625 C 125 547.80025 140.24726 467.73012 200 427.13672 z " /></g></svg>
