<?xml version="1.0" encoding="UTF-8" standalone="no"?>
<!-- Created with Inkscape (http://www.inkscape.org/) -->

<svg
   width="1200"
   height="1200"
   viewBox="0 0 1200 1200"
   version="1.1"
   id="svg1"
   inkscape:version="1.2.1 (9c6d41e410, 2022-07-14)"
   sodipodi:docname="8371_austral-sign.svg"
   xml:space="preserve"
   xmlns:inkscape="http://www.inkscape.org/namespaces/inkscape"
   xmlns:sodipodi="http://sodipodi.sourceforge.net/DTD/sodipodi-0.dtd"
   xmlns="http://www.w3.org/2000/svg"
   xmlns:svg="http://www.w3.org/2000/svg"><sodipodi:namedview
     id="namedview1"
     pagecolor="#ffffff"
     bordercolor="#000000"
     borderopacity="0.25"
     inkscape:showpageshadow="2"
     inkscape:pageopacity="0.0"
     inkscape:pagecheckerboard="0"
     inkscape:deskcolor="#d1d1d1"
     inkscape:document-units="px"
     showgrid="true"
     inkscape:zoom="1.1116667"
     inkscape:cx="312.14392"
     inkscape:cy="557.72112"
     inkscape:window-width="2560"
     inkscape:window-height="1377"
     inkscape:window-x="1072"
     inkscape:window-y="-8"
     inkscape:window-maximized="1"
     inkscape:current-layer="layer1"
     showguides="false"><inkscape:grid
       id="grid1"
       units="px"
       originx="0"
       originy="0"
       spacingx="25"
       spacingy="25"
       empcolor="#0099e5"
       empopacity="0.30196078"
       color="#0099e5"
       opacity="0.14901961"
       empspacing="4"
       dotted="false"
       gridanglex="30"
       gridanglez="30"
       visible="true" /></sodipodi:namedview><defs
     id="defs1" /><g
     inkscape:label="Layer 1"
     inkscape:groupmode="layer"
     id="layer1"><rect
       style="fill:#000000;fill-opacity:0.555319;fill-rule:evenodd;stroke:none;stroke-width:3.26599;stroke-linecap:square;stroke-linejoin:bevel;stroke-miterlimit:4.5;stroke-opacity:0.56;stop-color:#000000"
       id="rect54139"
       width="600"
       height="100"
       x="0"
       y="500" /><rect
       style="fill:#000000;fill-opacity:0.555319;fill-rule:evenodd;stroke:none;stroke-width:3.26599;stroke-linecap:square;stroke-linejoin:bevel;stroke-miterlimit:4.5;stroke-opacity:0.56;stop-color:#000000"
       id="rect54139-8"
       width="600"
       height="100"
       x="0"
       y="700" /><path
       id="path357-7"
       style="fill:#000000;fill-opacity:0.56;fill-rule:evenodd;stroke:none;stroke-width:1px;stroke-linecap:butt;stroke-linejoin:miter;stroke-opacity:1"
       d="M 200,700 V 575 c 0,-117.81019 50,-225 100,-275 50,50 100,150 100,275 V 700 Z M 50,999.99999 H 200 V 800 H 400 V 999.99999 L 550,1000 V 575.00001 C 550,408.80695 450,250 400,200 H 200 C 150,250 50,400 50,575 Z"
       sodipodi:nodetypes="cscsccccccccsccsc" /><path
       id="rect54139-7"
       style="fill:#000000;fill-opacity:0.555319;fill-rule:evenodd;stroke:none;stroke-width:3.26599;stroke-linecap:square;stroke-linejoin:bevel;stroke-miterlimit:4.5;stroke-opacity:0.56;stop-color:#000000"
       d="M 200 200 C 157.32058 242.67942 78.260035 358.24309 56.009766 500 L 0 500 L 0 600 L 50 600 L 50 700 L 0 700 L 0 800 L 50 800 L 50 1000 L 200 1000 L 200 800 L 400 800 L 400 1000 L 550 1000 L 550 800 L 600 800 L 600 700 L 550 700 L 550 600 L 600 600 L 600 500 L 543.55469 500 C 520.69464 362.99752 442.39048 242.39048 400 200 L 200 200 z M 300 300 C 339.51909 339.51909 378.93429 410.3544 393.76562 500 L 206.72656 500 C 221.91713 413.22829 260.90145 339.09855 300 300 z M 200 600 L 400 600 L 400 700 L 200 700 L 200 600 z " /></g></svg>
