<?xml version="1.0" encoding="UTF-8" standalone="no"?>
<!-- Created with Inkscape (http://www.inkscape.org/) -->

<svg
   width="1200"
   height="1200"
   viewBox="0 0 1200 1200"
   version="1.1"
   id="svg1"
   inkscape:version="1.3 (0e150ed6c4, 2023-07-21)"
   sodipodi:docname="8372_hryvnia-sign.svg"
   xml:space="preserve"
   xmlns:inkscape="http://www.inkscape.org/namespaces/inkscape"
   xmlns:sodipodi="http://sodipodi.sourceforge.net/DTD/sodipodi-0.dtd"
   xmlns="http://www.w3.org/2000/svg"
   xmlns:svg="http://www.w3.org/2000/svg"><sodipodi:namedview
     id="namedview1"
     pagecolor="#ffffff"
     bordercolor="#000000"
     borderopacity="0.25"
     inkscape:showpageshadow="2"
     inkscape:pageopacity="0.0"
     inkscape:pagecheckerboard="0"
     inkscape:deskcolor="#d1d1d1"
     inkscape:document-units="px"
     showgrid="true"
     inkscape:zoom="1.1116667"
     inkscape:cx="285.60719"
     inkscape:cy="558.1709"
     inkscape:window-width="2560"
     inkscape:window-height="1494"
     inkscape:window-x="-11"
     inkscape:window-y="-11"
     inkscape:window-maximized="1"
     inkscape:current-layer="layer1"
     showguides="false"><inkscape:grid
       id="grid1"
       units="px"
       originx="0"
       originy="0"
       spacingx="25"
       spacingy="25"
       empcolor="#0099e5"
       empopacity="0.30196078"
       color="#0099e5"
       opacity="0.14901961"
       empspacing="4"
       dotted="false"
       gridanglex="30"
       gridanglez="30"
       visible="true" /></sodipodi:namedview><defs
     id="defs1" /><g
     inkscape:label="Layer 1"
     inkscape:groupmode="layer"
     id="layer1"><rect
       style="fill:#000000;fill-opacity:0.555319;fill-rule:evenodd;stroke:none;stroke-width:3.26599;stroke-linecap:square;stroke-linejoin:bevel;stroke-miterlimit:4.5;stroke-opacity:0.56;stop-color:#000000"
       id="rect54139"
       width="600"
       height="100"
       x="0"
       y="400" /><rect
       style="fill:#000000;fill-opacity:0.555319;fill-rule:evenodd;stroke:none;stroke-width:3.26599;stroke-linecap:square;stroke-linejoin:bevel;stroke-miterlimit:4.5;stroke-opacity:0.56;stop-color:#000000"
       id="rect54139-5"
       width="600"
       height="100"
       x="0"
       y="600" /><path
       id="path2-5-4"
       style="fill:#000000;fill-opacity:0.555319;fill-rule:evenodd;stroke-width:0.999873"
       d="m 300,200 c 124.99988,0 250,49.61424 250,200 0,299.9997 -300,200.0002 -300,400 0,49.99995 25,100 100,100 50,0 50,0 75,-25 h 75 v 25 C 450,1000 405.34428,1000 300,1000 175.00013,1000 50,949.99985 50,800 50,500.0003 350,599.9998 350,400 350,350.00005 325.42875,300 250,300 150,300 150,300 125,325 H 50 V 300 C 100,200 194.74373,200 300,200 Z"
       sodipodi:nodetypes="sssscccsssscccs" /><path
       id="rect54139-7"
       style="fill:#000000;fill-opacity:0.555319;fill-rule:evenodd;stroke:none;stroke-width:3.26599;stroke-linecap:square;stroke-linejoin:bevel;stroke-miterlimit:4.5;stroke-opacity:0.56;stop-color:#000000"
       d="M 300 200 C 194.74384 200 99.99995 200.0001 50 300 L 50 325 L 125 325 C 149.99998 300.00002 150.0001 300 250 300 C 325.42867 300 350 350.0001 350 400 L 0 400 L 0 500 L 308.2793 500 C 264.25583 540.07844 193.67566 557.54922 137.32617 600 L 0 600 L 0 700 L 64.646484 700 C 55.434305 727.40569 50 760.07573 50 800 C 50 949.9997 175.00025 1000 300 1000 C 405.34417 1000 450.00005 999.9999 500 900 L 500 875 L 425 875 C 400.00002 899.99997 399.99995 900 350 900 C 275.00007 900 250 849.9999 250 800 C 250 753.19289 266.54831 722.91665 291.7207 700 L 600 700 L 600 600 L 462.67383 600 C 493.45498 576.81108 519.87665 546.04277 535.35352 500 L 600 500 L 600 400 L 550 400 C 550 249.61439 424.99976 200 300 200 z " /></g></svg>
