<?xml version="1.0" encoding="UTF-8" standalone="no"?>
<!-- Created with Inkscape (http://www.inkscape.org/) -->

<svg
   width="1200"
   height="1200"
   viewBox="0 0 1200 1200"
   version="1.1"
   id="svg1"
   inkscape:version="1.2.1 (9c6d41e410, 2022-07-14)"
   sodipodi:docname="8373_cedi-sign.svg"
   xml:space="preserve"
   xmlns:inkscape="http://www.inkscape.org/namespaces/inkscape"
   xmlns:sodipodi="http://sodipodi.sourceforge.net/DTD/sodipodi-0.dtd"
   xmlns="http://www.w3.org/2000/svg"
   xmlns:svg="http://www.w3.org/2000/svg"><sodipodi:namedview
     id="namedview1"
     pagecolor="#ffffff"
     bordercolor="#000000"
     borderopacity="0.25"
     inkscape:showpageshadow="2"
     inkscape:pageopacity="0.0"
     inkscape:pagecheckerboard="0"
     inkscape:deskcolor="#d1d1d1"
     inkscape:document-units="px"
     showgrid="true"
     inkscape:zoom="0.78606706"
     inkscape:cx="108.13327"
     inkscape:cy="675.51489"
     inkscape:window-width="2560"
     inkscape:window-height="1377"
     inkscape:window-x="1072"
     inkscape:window-y="-8"
     inkscape:window-maximized="1"
     inkscape:current-layer="layer1"
     showguides="false"><inkscape:grid
       id="grid1"
       units="px"
       originx="0"
       originy="0"
       spacingx="25"
       spacingy="25"
       empcolor="#0099e5"
       empopacity="0.30196078"
       color="#0099e5"
       opacity="0.14901961"
       empspacing="4"
       dotted="false"
       gridanglex="30"
       gridanglez="30"
       visible="true" /></sodipodi:namedview><defs
     id="defs1" /><g
     inkscape:label="Layer 1"
     inkscape:groupmode="layer"
     id="layer1"><rect
       style="fill:#000000;fill-opacity:0.555319;fill-rule:evenodd;stroke:none;stroke-width:3.79473;stroke-linecap:square;stroke-linejoin:bevel;stroke-miterlimit:4.5;stroke-opacity:0.56;stop-color:#000000"
       id="rect60890"
       width="200"
       height="900"
       x="200"
       y="200" /><path
       id="path2-8"
       style="fill:#000000;fill-opacity:0.555319;fill-rule:evenodd;stroke-width:0.935296"
       d="M 500,800 C 500,875 425,900 300,900 175,900 100,795.93508 100,668.75 V 625 c 0,-125 75,-225 200,-225 125,0 200,27.23876 200,100 H 600 C 600,456.25 574.99973,300 300,300 75.00023,300 -3e-6,453.12518 -3e-6,628.125 v 43.75 C -3e-6,846.87483 75.00023,1000 300,1000 574.99973,1000 600,843.75 600,800 Z"
       sodipodi:nodetypes="cssssccsssscc" /><path
       id="rect60890-1"
       style="fill:#000000;fill-opacity:0.555319;fill-rule:evenodd;stroke:none;stroke-width:3.79473;stroke-linecap:square;stroke-linejoin:bevel;stroke-miterlimit:4.5;stroke-opacity:0.56;stop-color:#000000"
       d="M 200 200 L 200 312.16602 C 52.232285 351.57876 6.3196308e-14 482.20649 0 628.125 L 0 671.875 C 0 817.79352 52.232285 948.42124 200 987.83398 L 200 1100 L 400 1100 L 400 991.69531 C 581.2674 958.93398 600 837.71262 600 800 L 500 800 C 500 852.03024 463.84374 879.96285 400 892.21289 L 400 408.22266 C 463.84376 420.98698 500 449.52286 500 500 L 600 500 C 600 462.28738 581.2674 341.06602 400 308.30469 L 400 200 L 200 200 z M 200 426.00195 L 200 873.02539 C 136.13552 834.07854 100 756.99827 100 668.75 L 100 625 C 100 538.26806 136.13578 463.60854 200 426.00195 z " /></g></svg>
