<?xml version="1.0" encoding="UTF-8" standalone="no"?>
<!-- Created with Inkscape (http://www.inkscape.org/) -->

<svg
   width="1200"
   height="1200"
   viewBox="0 0 1200 1200"
   version="1.1"
   id="svg1"
   inkscape:version="1.3 (0e150ed6c4, 2023-07-21)"
   sodipodi:docname="8375_spesmilo-sign.svg"
   xml:space="preserve"
   xmlns:inkscape="http://www.inkscape.org/namespaces/inkscape"
   xmlns:sodipodi="http://sodipodi.sourceforge.net/DTD/sodipodi-0.dtd"
   xmlns="http://www.w3.org/2000/svg"
   xmlns:svg="http://www.w3.org/2000/svg"><sodipodi:namedview
     id="namedview1"
     pagecolor="#ffffff"
     bordercolor="#000000"
     borderopacity="0.25"
     inkscape:showpageshadow="2"
     inkscape:pageopacity="0.0"
     inkscape:pagecheckerboard="0"
     inkscape:deskcolor="#d1d1d1"
     inkscape:document-units="px"
     showgrid="true"
     inkscape:zoom="0.78606706"
     inkscape:cx="298.3206"
     inkscape:cy="673.60665"
     inkscape:window-width="2560"
     inkscape:window-height="1494"
     inkscape:window-x="-11"
     inkscape:window-y="-11"
     inkscape:window-maximized="1"
     inkscape:current-layer="layer1"
     showguides="false"><inkscape:grid
       id="grid1"
       units="px"
       originx="0"
       originy="0"
       spacingx="25"
       spacingy="25"
       empcolor="#0099e5"
       empopacity="0.30196078"
       color="#0099e5"
       opacity="0.14901961"
       empspacing="4"
       dotted="false"
       gridanglex="30"
       gridanglez="30"
       visible="true" /></sodipodi:namedview><defs
     id="defs1" /><g
     inkscape:label="Layer 1"
     inkscape:groupmode="layer"
     id="layer1"><path
       id="path2-5"
       style="fill:#000000;fill-opacity:0.555319;fill-rule:evenodd;stroke-width:0.999873"
       d="M 300,900.00004 C 373.58681,901.05384 500,850 500,750 500,549.99996 0,700 0,400 0,249.61409 175,200 300,200 500,200 598.7278,301.65807 600,400 H 400 c 0,-50 0,-100 -100,-100 -100,0 -100,50 -100,100 0,200 400,25 400,350.00004 C 600,952.15844 425,1000 300,1000"
       sodipodi:nodetypes="ccssccsscc" /><path
       id="path2"
       style="fill:#000000;fill-opacity:0.555319;fill-rule:evenodd;stroke-width:0.999873"
       d="M 0,699.99997 V 1100 H 100 V 800 c 48.28467,0 100,50.00008 100,125 v 175 H 300 V 925 c 0,-37.23309 -10.41697,-77.89927 -32.50195,-114.29883 11.30188,-6.49526 22.4141,-10.6811 32.50195,-10.67578 49.99995,0.0263 100,50.00008 100,125 V 1100.0254 L 500,1100 V 924.99999 C 500,825.00009 425,700 275,700 250,700 224.10045,716.1919 204.20703,743.71484 165.59457,717.17109 114.63835,700.06817 50,700"
       sodipodi:nodetypes="ccccsccscssccsccc" /><rect
       style="fill:#1a1a1a;fill-opacity:0.555319;stroke-linecap:square;paint-order:stroke markers fill"
       id="rect444"
       width="300"
       height="100"
       x="0"
       y="900" /><path
       id="path2-5-9"
       style="fill:#000000;fill-opacity:0.555319;fill-rule:evenodd;stroke-width:0.999873"
       d="M 300 200 C 175.00012 200 0 249.61424 0 400 C 0 699.9997 500 550.00016 500 750 C 500 777.68956 490.28044 801.60965 474.70117 821.72656 C 441.28327 755.28688 374.74478 700 275 700 C 250.00002 700 224.10043 716.19193 204.20703 743.71484 C 165.59461 717.17112 114.63829 700.06817 50 700 L 0 700 L 0 900 L 0 1000 L 0 1100 L 100 1100 L 100 1000 L 200 1000 L 200 1100 L 300 1100 L 300 1000 C 331.37027 1000 365.88791 996.97295 400 989.26367 L 400 1100.0254 L 500 1100 L 500 948.73047 C 557.75879 911.27473 600 849.27523 600 750 C 600 425.00029 200 599.9998 200 400 C 200 350.00005 200.0001 300 300 300 C 399.9999 300 400 350.00005 400 400 L 600 400 C 598.7278 301.65817 499.9998 200 300 200 z M 100 800 C 142.68637 800 187.98733 839.1179 197.93359 900 L 100 900 L 100 800 z M 300 800.02539 C 339.19143 800.04601 378.27017 830.84287 393.38281 880.23633 C 361.03822 893.69979 326.9764 900.38632 300 900 L 298.38281 900 C 294.76107 870.06892 284.72539 839.09458 267.49805 810.70117 C 278.79992 804.20592 289.91216 800.02007 300 800.02539 z " /></g></svg>
