<?xml version="1.0" encoding="UTF-8" standalone="no"?>
<!-- Created with Inkscape (http://www.inkscape.org/) -->

<svg
   width="1200"
   height="1200"
   viewBox="0 0 1200 1200"
   version="1.1"
   id="svg1"
   inkscape:version="1.2.2 (732a01da63, 2022-12-09)"
   sodipodi:docname="8377_indian-rupee-sign.svg"
   xml:space="preserve"
   xmlns:inkscape="http://www.inkscape.org/namespaces/inkscape"
   xmlns:sodipodi="http://sodipodi.sourceforge.net/DTD/sodipodi-0.dtd"
   xmlns="http://www.w3.org/2000/svg"
   xmlns:svg="http://www.w3.org/2000/svg"><sodipodi:namedview
     id="namedview1"
     pagecolor="#ffffff"
     bordercolor="#000000"
     borderopacity="0.25"
     inkscape:showpageshadow="2"
     inkscape:pageopacity="0.0"
     inkscape:pagecheckerboard="0"
     inkscape:deskcolor="#d1d1d1"
     inkscape:document-units="px"
     showgrid="true"
     inkscape:zoom="1.1116667"
     inkscape:cx="426.38681"
     inkscape:cy="702.54872"
     inkscape:window-width="3840"
     inkscape:window-height="2066"
     inkscape:window-x="-11"
     inkscape:window-y="-11"
     inkscape:window-maximized="1"
     inkscape:current-layer="layer1"
     showguides="false"><inkscape:grid
       id="grid1"
       units="px"
       originx="0"
       originy="0"
       spacingx="25"
       spacingy="25"
       empcolor="#0099e5"
       empopacity="0.30196078"
       color="#0099e5"
       opacity="0.14901961"
       empspacing="4"
       dotted="false"
       gridanglex="30"
       gridanglez="30"
       visible="true" /></sodipodi:namedview><defs
     id="defs1" /><g
     inkscape:label="Layer 1"
     inkscape:groupmode="layer"
     id="layer1"><rect
       style="fill:#000000;fill-opacity:0.555319;fill-rule:evenodd;stroke:none;stroke-width:3.4641;stroke-linecap:square;stroke-linejoin:bevel;stroke-miterlimit:4.5;stroke-opacity:0.56;stop-color:#000000"
       id="rect67578"
       width="600"
       height="100"
       x="0"
       y="200" /><rect
       style="fill:#000000;fill-opacity:0.555319;fill-rule:evenodd;stroke:none;stroke-width:3.4641;stroke-linecap:square;stroke-linejoin:bevel;stroke-miterlimit:4.5;stroke-opacity:0.56;stop-color:#000000"
       id="rect67578-8"
       width="600"
       height="100"
       x="0"
       y="400" /><path
       id="path2-8"
       style="fill:#000000;fill-opacity:0.555319;fill-rule:evenodd;stroke-width:0.999873"
       d="M 0,700.00001 H 75 L 375,1000 h 125 v -74.99999 l -225,-225 C 394.39786,697.05361 500,565.58298 500,475 V 425 C 500,325.0001 424.99982,199.99998 250,200 H 0 v 100 h 200 c 48.28475,0 100,50.00007 100,125 v 50 c 0,74.99994 -50.00005,125 -100,125 H 0 Z"
       sodipodi:nodetypes="ccccccsssccsssccc" /><path
       id="rect67578-7"
       style="fill:#000000;fill-opacity:0.555319;fill-rule:evenodd;stroke:none;stroke-width:3.4641;stroke-linecap:square;stroke-linejoin:bevel;stroke-miterlimit:4.5;stroke-opacity:0.56;stop-color:#000000"
       d="M 0 200 L 0 300 L 200 300 C 242.68645 300 287.98734 339.1179 297.93359 400 L 0 400 L 0 500 L 297.99609 500 C 288.3403 560.8821 244.20277 600 200 600 L 0 600 L 0 700 L 75 700 L 375 1000 L 500 1000 L 500 925 L 275 700 C 383.79091 697.31535 481.08979 587.93689 497.52539 500 L 600 500 L 600 400 L 498.28516 400 C 494.21306 366.26428 482.06215 331.20405 460.61133 300 L 600 300 L 600 200 L 250 200 L 0 200 z " /></g></svg>
