<?xml version="1.0" encoding="UTF-8" standalone="no"?>
<!-- Created with Inkscape (http://www.inkscape.org/) -->

<svg
   width="1200"
   height="1200"
   viewBox="0 0 1200 1200"
   version="1.1"
   id="svg1"
   inkscape:version="1.2.1 (9c6d41e410, 2022-07-14)"
   sodipodi:docname="8380_manat-sign.svg"
   xml:space="preserve"
   xmlns:inkscape="http://www.inkscape.org/namespaces/inkscape"
   xmlns:sodipodi="http://sodipodi.sourceforge.net/DTD/sodipodi-0.dtd"
   xmlns="http://www.w3.org/2000/svg"
   xmlns:svg="http://www.w3.org/2000/svg"><sodipodi:namedview
     id="namedview1"
     pagecolor="#ffffff"
     bordercolor="#000000"
     borderopacity="0.25"
     inkscape:showpageshadow="2"
     inkscape:pageopacity="0.0"
     inkscape:pagecheckerboard="0"
     inkscape:deskcolor="#d1d1d1"
     inkscape:document-units="px"
     showgrid="true"
     inkscape:zoom="0.78606706"
     inkscape:cx="97.956019"
     inkscape:cy="533.0334"
     inkscape:window-width="2560"
     inkscape:window-height="1377"
     inkscape:window-x="1072"
     inkscape:window-y="-8"
     inkscape:window-maximized="1"
     inkscape:current-layer="layer1"
     showguides="false"><inkscape:grid
       id="grid1"
       units="px"
       originx="0"
       originy="0"
       spacingx="25"
       spacingy="25"
       empcolor="#0099e5"
       empopacity="0.30196078"
       color="#0099e5"
       opacity="0.14901961"
       empspacing="4"
       dotted="false"
       gridanglex="30"
       gridanglez="30"
       visible="true" /></sodipodi:namedview><defs
     id="defs1" /><g
     inkscape:label="Layer 1"
     inkscape:groupmode="layer"
     id="layer1"><path
       id="path2-8"
       style="fill:#000000;fill-opacity:0.555319;fill-rule:evenodd;stroke-width:0.935296"
       d="M 350,400 C 153.1252,400 0,575.0002 0,775 v 225 H 175 V 775 c 0,-124.99987 65.62511,-275 175,-275 109.37489,0 175,150.00013 175,275 v 225 H 700 V 775 C 700,575.0002 546.87482,400 350,400 Z"
       sodipodi:nodetypes="ssccsssccss" /><rect
       style="fill:#000000;fill-opacity:0.555319;fill-rule:evenodd;stroke-width:3.74166;stroke-linecap:square;stroke-linejoin:bevel;stroke-miterlimit:4.5;stroke-opacity:0.56;stop-color:#000000"
       id="rect73748"
       width="150"
       height="800"
       x="275"
       y="200" /><path
       id="path2-8-3"
       style="fill:#000000;fill-opacity:0.555319;fill-rule:evenodd;stroke-width:0.935296"
       d="M 275 200 L 275 408.78125 C 115.58712 446.45108 0 601.25605 0 775 L 0 1000 L 175 1000 L 175 775 C 175 681.99587 211.35178 575.19894 275 526.5957 L 275 1000 L 425 1000 L 425 526.5957 C 488.64822 575.19894 525 681.99587 525 775 L 525 1000 L 700 1000 L 700 775 C 700 601.25605 584.41289 446.45108 425 408.78125 L 425 200 L 275 200 z " /></g></svg>
