<?xml version="1.0" encoding="UTF-8" standalone="no"?>
<!-- Created with Inkscape (http://www.inkscape.org/) -->

<svg
   width="1200"
   height="1200"
   viewBox="0 0 1200 1200"
   version="1.1"
   id="svg1"
   inkscape:version="1.3 (0e150ed6c4, 2023-07-21)"
   sodipodi:docname="8382_lari-sign.svg"
   xml:space="preserve"
   xmlns:inkscape="http://www.inkscape.org/namespaces/inkscape"
   xmlns:sodipodi="http://sodipodi.sourceforge.net/DTD/sodipodi-0.dtd"
   xmlns="http://www.w3.org/2000/svg"
   xmlns:svg="http://www.w3.org/2000/svg"><sodipodi:namedview
     id="namedview1"
     pagecolor="#ffffff"
     bordercolor="#000000"
     borderopacity="0.25"
     inkscape:showpageshadow="2"
     inkscape:pageopacity="0.0"
     inkscape:pagecheckerboard="0"
     inkscape:deskcolor="#d1d1d1"
     inkscape:document-units="px"
     showgrid="true"
     inkscape:zoom="0.78606706"
     inkscape:cx="90.959161"
     inkscape:cy="590.91651"
     inkscape:window-width="2560"
     inkscape:window-height="1494"
     inkscape:window-x="-11"
     inkscape:window-y="-11"
     inkscape:window-maximized="1"
     inkscape:current-layer="layer1"
     showguides="false"><inkscape:grid
       id="grid1"
       units="px"
       originx="0"
       originy="0"
       spacingx="25"
       spacingy="25"
       empcolor="#0099e5"
       empopacity="0.30196078"
       color="#0099e5"
       opacity="0.14901961"
       empspacing="4"
       dotted="false"
       gridanglex="30"
       gridanglez="30"
       visible="true" /></sodipodi:namedview><defs
     id="defs1" /><g
     inkscape:label="Layer 1"
     inkscape:groupmode="layer"
     id="layer1"><path
       id="path2-8-5"
       style="fill:#000000;fill-opacity:0.555319;fill-rule:evenodd;stroke-width:0.824854"
       d="M 700,650 C 700,425 625,300 350,300 75,300 0,425 0,649.99999 0,875 136.11129,1000 311.11111,1000 L 400,900 C 225,900 125,775 125,650 c 0,-150 25,-225 225,-225 200,0 225,75 225,225 z"
       sodipodi:nodetypes="cssccsscc" /><rect
       style="fill:#000000;fill-opacity:0.555319;fill-rule:evenodd;stroke-width:5.2915;stroke-linecap:square;stroke-linejoin:bevel;stroke-miterlimit:4.5;stroke-opacity:0.56;stop-color:#000000"
       id="rect73600"
       width="500"
       height="100"
       x="0"
       y="900" /><rect
       style="fill:#000000;fill-opacity:0.555319;fill-rule:evenodd;stroke-width:4.47214;stroke-linecap:square;stroke-linejoin:bevel;stroke-miterlimit:4.5;stroke-opacity:0.56;stop-color:#000000"
       id="rect73605"
       width="100"
       height="400"
       x="200"
       y="200" /><rect
       style="fill:#000000;fill-opacity:0.555319;fill-rule:evenodd;stroke-width:4.47214;stroke-linecap:square;stroke-linejoin:bevel;stroke-miterlimit:4.5;stroke-opacity:0.56;stop-color:#000000"
       id="rect73607"
       width="100"
       height="400"
       x="400"
       y="200" /><path
       id="path2-8-5-8"
       style="fill:#000000;fill-opacity:0.555319;fill-rule:evenodd;stroke-width:0.824854"
       d="M 200 200 L 200 316.91602 C 46.45049 358.01427 0 473.06271 0 650 C 0 756.74811 30.676339 840.93962 81.568359 900 L 0 900 L 0 1000 L 311.11133 1000 L 500 1000 L 500 900 L 400 900 C 225.00018 900 125 774.99987 125 650 C 125 551.41136 135.81145 485.22794 200 451.4375 L 200 600 L 300 600 L 300 426.85742 C 315.32642 425.63239 331.92589 425 350 425 C 368.07411 425 384.67358 425.63239 400 426.85742 L 400 600 L 500 600 L 500 451.4375 C 564.18855 485.22794 575 551.41136 575 650 L 700 650 C 700 473.0627 653.54951 358.01427 500 316.91602 L 500 200 L 400 200 L 400 301.51758 C 384.11337 300.51522 367.46862 300 350 300 C 332.53138 300 315.88663 300.51522 300 301.51758 L 300 200 L 200 200 z " /></g></svg>
