<?xml version="1.0" encoding="UTF-8" standalone="no"?>
<!-- Created with Inkscape (http://www.inkscape.org/) -->

<svg
   width="1200"
   height="1200"
   viewBox="0 0 1200 1200"
   version="1.1"
   id="svg1"
   inkscape:version="1.2.1 (9c6d41e410, 2022-07-14)"
   sodipodi:docname="8383_bitcoin-sign.svg"
   xml:space="preserve"
   xmlns:inkscape="http://www.inkscape.org/namespaces/inkscape"
   xmlns:sodipodi="http://sodipodi.sourceforge.net/DTD/sodipodi-0.dtd"
   xmlns="http://www.w3.org/2000/svg"
   xmlns:svg="http://www.w3.org/2000/svg"><sodipodi:namedview
     id="namedview1"
     pagecolor="#ffffff"
     bordercolor="#000000"
     borderopacity="0.25"
     inkscape:showpageshadow="2"
     inkscape:pageopacity="0.0"
     inkscape:pagecheckerboard="0"
     inkscape:deskcolor="#d1d1d1"
     inkscape:document-units="px"
     showgrid="true"
     inkscape:zoom="0.78606706"
     inkscape:cx="193.36773"
     inkscape:cy="585.1918"
     inkscape:window-width="2560"
     inkscape:window-height="1377"
     inkscape:window-x="1072"
     inkscape:window-y="-8"
     inkscape:window-maximized="1"
     inkscape:current-layer="layer1"
     showguides="false"><inkscape:grid
       id="grid1"
       units="px"
       originx="0"
       originy="0"
       spacingx="25"
       spacingy="25"
       empcolor="#0099e5"
       empopacity="0.30196078"
       color="#0099e5"
       opacity="0.14901961"
       empspacing="4"
       dotted="false"
       gridanglex="30"
       gridanglez="30"
       visible="true" /></sodipodi:namedview><defs
     id="defs1" /><g
     inkscape:label="Layer 1"
     inkscape:groupmode="layer"
     id="layer1"><path
       id="path2-8-0"
       style="fill:#000000;fill-opacity:0.555319;fill-rule:evenodd;stroke-width:0.999873"
       d="m 0,300 v 700 H 200 350 C 524.99982,1000 600,924.99995 600,820.11008 600,715.22021 573.16783,696.52712 514.22266,650.92383 559.18647,612.47242 575,556.23629 575,500 575,400.00009 524.99982,300 350,300 H 200 Z m 200,100 h 75 c 48.28475,0 100,25.00006 100,100 0,74.99995 -50.00005,100 -100,100 h -75 z m 0,300 h 100 c 48.28475,0 100,8e-5 100,100.00001 C 400,899.99994 349.99995,900 300,900 H 200 Z"
       sodipodi:nodetypes="cccsscsscccssscccssscc" /><rect
       style="opacity:0.435556;fill:#000000;fill-opacity:0.555319;stroke-width:4;stroke-linecap:square;paint-order:stroke markers fill"
       id="rect8582"
       width="100"
       height="100"
       x="100"
       y="200" /><rect
       style="opacity:0.435556;fill:#000000;fill-opacity:0.555319;stroke-width:4;stroke-linecap:square;paint-order:stroke markers fill"
       id="rect8584"
       width="100"
       height="125"
       x="300"
       y="200" /><rect
       style="opacity:0.435556;fill:#000000;fill-opacity:0.555319;stroke-width:4;stroke-linecap:square;paint-order:stroke markers fill"
       id="rect8586"
       width="100"
       height="100"
       x="100"
       y="1000" /><rect
       style="opacity:0.435556;fill:#000000;fill-opacity:0.555319;stroke-width:4;stroke-linecap:square;paint-order:stroke markers fill"
       id="rect8588"
       width="100"
       height="125"
       x="300"
       y="975" /><path
       id="path2-8-0-4"
       style="fill:#000000;fill-opacity:0.555319;fill-rule:evenodd;stroke-width:0.999873"
       d="M 100 200 L 100 300 L 0 300 L 0 1000 L 100 1000 L 100 1100 L 200 1100 L 200 1000 L 300 1000 L 300 1100 L 400 1100 L 400 997.70898 C 539.3514 984.48831 600 914.39167 600 820.10938 C 600 715.21961 573.16777 696.52707 514.22266 650.92383 C 559.18642 612.47246 575 556.23623 575 500 C 575 410.27617 534.67728 320.6059 400 303.11328 L 400 200 L 300 200 L 300 300 L 200 300 L 200 200 L 100 200 z M 200 400 L 275 400 C 323.2847 400 375 425.00013 375 500 C 375 574.99988 324.9999 600 275 600 L 200 600 L 200 400 z M 200 700 L 300 700 C 348.2847 700 400 700.00017 400 800 C 400 899.99983 349.9999 900 300 900 L 200 900 L 200 700 z " /></g></svg>
