<?xml version="1.0" encoding="UTF-8" standalone="no"?>
<!-- Created with Inkscape (http://www.inkscape.org/) -->

<svg
   width="800"
   height="800"
   viewBox="0 0 800 800"
   version="1.1"
   id="svg1"
   inkscape:version="1.2.1 (9c6d41e410, 2022-07-14)"
   sodipodi:docname="164_currency-sign.svg"
   xml:space="preserve"
   xmlns:inkscape="http://www.inkscape.org/namespaces/inkscape"
   xmlns:sodipodi="http://sodipodi.sourceforge.net/DTD/sodipodi-0.dtd"
   xmlns="http://www.w3.org/2000/svg"
   xmlns:svg="http://www.w3.org/2000/svg"><sodipodi:namedview
     id="namedview1"
     pagecolor="#ffffff"
     bordercolor="#000000"
     borderopacity="0.25"
     inkscape:showpageshadow="2"
     inkscape:pageopacity="0.0"
     inkscape:pagecheckerboard="0"
     inkscape:deskcolor="#d1d1d1"
     inkscape:document-units="px"
     showgrid="true"
     inkscape:zoom="0.78606706"
     inkscape:cx="274.14964"
     inkscape:cy="393.73231"
     inkscape:window-width="1080"
     inkscape:window-height="1230"
     inkscape:window-x="3667"
     inkscape:window-y="172"
     inkscape:window-maximized="0"
     inkscape:current-layer="layer1"
     showguides="false"><inkscape:grid
       id="grid1"
       units="px"
       originx="0"
       originy="0"
       spacingx="25"
       spacingy="25"
       empcolor="#0099e5"
       empopacity="0.30196078"
       color="#0099e5"
       opacity="0.14901961"
       empspacing="4"
       dotted="false"
       gridanglex="30"
       gridanglez="30"
       visible="true" /></sodipodi:namedview><defs
     id="defs1" /><g
     inkscape:label="Layer 1"
     inkscape:groupmode="layer"
     id="layer1"><path
       id="path6758"
       style="opacity:0.504444;fill-opacity:0.555319;stroke-width:4;stroke-linecap:square;paint-order:stroke markers fill;fill-rule:evenodd"
       d="m 300,350 a 50,50 0 0 1 -50,50 50,50 0 0 1 -50,-50 50,50 0 0 1 50,-50 50,50 0 0 1 50,50 z m 100,0 A 150,150 0 0 1 250,500 150,150 0 0 1 100,350 150,150 0 0 1 250,200 150,150 0 0 1 400,350 Z" /><path
       id="rect6822"
       style="opacity:0.504444;fill-opacity:0.555319;fill-rule:evenodd;stroke-width:4;stroke-linecap:square;paint-order:stroke markers fill"
       d="M 179.28932,350 250,420.71068 73.223305,597.48737 2.5126266,526.7767 Z M 426.7767,102.51263 497.48737,173.2233 320.71068,350 250,279.28932 Z"
       sodipodi:nodetypes="cccccccccc" /><path
       id="rect6822-8"
       style="opacity:0.504444;fill-opacity:0.555319;fill-rule:evenodd;stroke-width:4;stroke-linecap:square;paint-order:stroke markers fill"
       d="M 250,279.28932 179.28932,350 2.5126283,173.22331 73.223298,102.51263 Z M 497.48737,526.7767 426.7767,597.48737 250,420.71068 320.71068,350 Z"
       sodipodi:nodetypes="cccccccccc" /><path
       id="path6758-2"
       style="opacity:0.504444;fill-opacity:0.555319;fill-rule:evenodd;stroke-width:4;stroke-linecap:square;paint-order:stroke markers fill"
       d="M 73.222656 102.51172 L 2.5117188 173.22266 L 114.76367 285.47461 A 150 150 0 0 0 100 350 A 150 150 0 0 0 114.76367 414.52539 L 2.5117188 526.77734 L 73.222656 597.48828 L 185.47461 485.23633 A 150 150 0 0 0 250 500 A 150 150 0 0 0 314.52539 485.23633 L 426.77734 597.48828 L 497.48828 526.77734 L 385.23633 414.52539 A 150 150 0 0 0 400 350 A 150 150 0 0 0 385.3457 285.36523 L 497.48828 173.22266 L 426.77734 102.51172 L 314.63477 214.6543 A 150 150 0 0 0 250 200 A 150 150 0 0 0 185.47461 214.76367 L 73.222656 102.51172 z M 250 300 A 50 50 0 0 1 300 350 A 50 50 0 0 1 250 400 A 50 50 0 0 1 200 350 A 50 50 0 0 1 250 300 z " /></g></svg>
