<?xml version="1.0" encoding="UTF-8" standalone="no"?>
<!-- Created with Inkscape (http://www.inkscape.org/) -->

<svg
   width="800"
   height="800"
   viewBox="0 0 800 800"
   version="1.1"
   id="svg1"
   inkscape:version="1.3 (0e150ed6c4, 2023-07-21)"
   sodipodi:docname="165_yen-sign.svg"
   xml:space="preserve"
   xmlns:inkscape="http://www.inkscape.org/namespaces/inkscape"
   xmlns:sodipodi="http://sodipodi.sourceforge.net/DTD/sodipodi-0.dtd"
   xmlns="http://www.w3.org/2000/svg"
   xmlns:svg="http://www.w3.org/2000/svg"><sodipodi:namedview
     id="namedview1"
     pagecolor="#ffffff"
     bordercolor="#000000"
     borderopacity="0.25"
     inkscape:showpageshadow="2"
     inkscape:pageopacity="0.0"
     inkscape:pagecheckerboard="0"
     inkscape:deskcolor="#d1d1d1"
     inkscape:document-units="px"
     showgrid="true"
     inkscape:zoom="1.602893"
     inkscape:cx="49.909757"
     inkscape:cy="331.58795"
     inkscape:window-width="2560"
     inkscape:window-height="1494"
     inkscape:window-x="-11"
     inkscape:window-y="-11"
     inkscape:window-maximized="1"
     inkscape:current-layer="layer1"
     showguides="false"><inkscape:grid
       id="grid1"
       units="px"
       originx="0"
       originy="0"
       spacingx="25"
       spacingy="25"
       empcolor="#0099e5"
       empopacity="0.30196078"
       color="#0099e5"
       opacity="0.14901961"
       empspacing="4"
       dotted="false"
       gridanglex="30"
       gridanglez="30"
       visible="true" /></sodipodi:namedview><defs
     id="defs1" /><g
     inkscape:label="Layer 1"
     inkscape:groupmode="layer"
     id="layer1"><path
       id="path9691-4"
       style="fill:#000000;fill-opacity:0.555319;fill-rule:evenodd;stroke:none;stroke-width:1px;stroke-linecap:butt;stroke-linejoin:miter;stroke-opacity:1"
       d="M 0 100 C 0 109.37498 0.096368019 118.34908 0.296875 126.96094 C 2.5024459 221.6914 17.213947 272.58506 52.679688 330.92969 C 65.576317 352.14592 81.217928 374.34672 100 400 L 100 600 L 200 600 L 200 400 C 218.78207 374.34672 234.42368 352.14592 247.32031 330.92969 C 250.54447 325.62563 253.59707 320.38152 256.48438 315.16211 C 259.37168 309.94269 262.0934 304.747 264.65625 299.53516 C 267.2191 294.32331 269.62226 289.0958 271.87305 283.81445 C 274.12383 278.53311 276.22271 273.19744 278.17383 267.76953 C 280.12494 262.34162 281.92795 256.82147 283.5918 251.16992 C 285.25564 245.51837 286.779 239.73546 288.16797 233.7832 C 289.55693 227.83094 290.81297 221.70895 291.93945 215.37891 C 293.06594 209.04887 294.06306 202.51145 294.93945 195.72656 C 295.81585 188.94167 296.57028 181.91056 297.20898 174.59375 C 297.84769 167.27694 298.37175 159.67385 298.78516 151.74805 C 299.19856 143.82225 299.50262 135.5728 299.70312 126.96094 C 299.90363 118.34908 300 109.37498 300 100 L 200 100 C 200 109.37498 200 118.75001 199.90234 128.07617 C 199.80469 137.40233 199.60938 146.6797 199.21875 155.85938 C 198.4375 174.21873 196.875 192.18751 193.75 209.375 C 192.96875 213.67187 192.09033 217.92017 191.10156 222.11328 C 190.11279 226.30639 189.01367 230.44434 187.79297 234.52148 C 186.57227 238.59863 185.229 242.61548 183.75195 246.56445 C 182.2749 250.51343 180.66406 254.39453 178.90625 258.20312 C 177.14844 262.01172 175.24463 265.74634 173.18164 269.40234 C 171.11866 273.05835 168.89648 276.63575 166.50391 280.12695 C 161.71876 287.10937 156.24999 293.75001 150 300 C 100.0001 250.0001 100 174.99986 100 100 L 0 100 z " /><rect
       style="fill:#000000;fill-rule:evenodd"
       id="rect1"
       width="300"
       height="75"
       x="0"
       y="300" /><rect
       style="fill:#000000;fill-rule:evenodd"
       id="rect2"
       width="300"
       height="77.105042"
       x="0"
       y="447.89496" /><path
       id="path9691-4-4"
       style="fill:#000000;fill-opacity:0.555319;fill-rule:evenodd;stroke:none;stroke-width:1px;stroke-linecap:butt;stroke-linejoin:miter;stroke-opacity:1"
       d="M 0 100 C 0 109.37497 0.096368221 118.34909 0.296875 126.96094 C 2.1074005 204.72399 12.372023 252.94601 35.599609 300 L 0 300 L 0 375 L 82.013672 375 C 87.69835 383.03476 93.602162 391.26159 100 400 L 100 447.89453 L 0 447.89453 L 0 525 L 100 525 L 100 600 L 200 600 L 200 525 L 300 525 L 300 447.89453 L 200 447.89453 L 200 400 C 206.39784 391.26159 212.30165 383.03476 217.98633 375 L 300 375 L 300 300 L 264.41406 300 C 264.49052 299.84512 264.58008 299.69007 264.65625 299.53516 C 267.2191 294.32331 269.62226 289.0958 271.87305 283.81445 C 274.12382 278.53312 276.22271 273.19744 278.17383 267.76953 C 280.12494 262.34163 281.92795 256.82147 283.5918 251.16992 C 285.25564 245.51838 286.779 239.73546 288.16797 233.7832 C 289.55693 227.83095 290.81297 221.70894 291.93945 215.37891 C 293.06594 209.04887 294.06306 202.51145 294.93945 195.72656 C 295.81585 188.94168 296.57029 181.91055 297.20898 174.59375 C 297.84769 167.27695 298.37175 159.67384 298.78516 151.74805 C 299.19856 143.82225 299.50263 135.57279 299.70312 126.96094 C 299.90363 118.34909 300 109.37497 300 100 L 200 100 C 200 109.37497 200.00004 118.75002 199.90234 128.07617 C 199.80464 137.40232 199.60938 146.6797 199.21875 155.85938 C 198.4375 174.21871 196.875 192.18753 193.75 209.375 C 192.96875 213.67187 192.09033 217.92018 191.10156 222.11328 C 190.11279 226.30639 189.01367 230.44435 187.79297 234.52148 C 186.57227 238.59863 185.229 242.61549 183.75195 246.56445 C 182.2749 250.51343 180.66406 254.39454 178.90625 258.20312 C 177.14844 262.01172 175.24463 265.74635 173.18164 269.40234 C 171.11866 273.05835 168.89647 276.63576 166.50391 280.12695 C 161.7188 287.10937 156.24998 293.75002 150 300 C 100.00015 250.00015 100 174.99979 100 100 L 0 100 z " /></g></svg>
