<?xml version="1.0" encoding="UTF-8" standalone="no"?>
<!-- Created with Inkscape (http://www.inkscape.org/) -->

<svg
   width="800"
   height="800"
   viewBox="0 0 800 800"
   version="1.1"
   id="svg1"
   inkscape:version="1.2.1 (9c6d41e410, 2022-07-14)"
   sodipodi:docname="167_section-sign.svg"
   xml:space="preserve"
   xmlns:inkscape="http://www.inkscape.org/namespaces/inkscape"
   xmlns:sodipodi="http://sodipodi.sourceforge.net/DTD/sodipodi-0.dtd"
   xmlns="http://www.w3.org/2000/svg"
   xmlns:svg="http://www.w3.org/2000/svg"><sodipodi:namedview
     id="namedview1"
     pagecolor="#ffffff"
     bordercolor="#000000"
     borderopacity="0.25"
     inkscape:showpageshadow="2"
     inkscape:pageopacity="0.0"
     inkscape:pagecheckerboard="0"
     inkscape:deskcolor="#d1d1d1"
     inkscape:document-units="px"
     showgrid="true"
     inkscape:zoom="0.78606706"
     inkscape:cx="274.14964"
     inkscape:cy="393.73231"
     inkscape:window-width="1080"
     inkscape:window-height="1230"
     inkscape:window-x="3667"
     inkscape:window-y="172"
     inkscape:window-maximized="0"
     inkscape:current-layer="layer1"
     showguides="false"><inkscape:grid
       id="grid1"
       units="px"
       originx="0"
       originy="0"
       spacingx="25"
       spacingy="25"
       empcolor="#0099e5"
       empopacity="0.30196078"
       color="#0099e5"
       opacity="0.14901961"
       empspacing="4"
       dotted="false"
       gridanglex="30"
       gridanglez="30"
       visible="true" /></sodipodi:namedview><defs
     id="defs1" /><g
     inkscape:label="Layer 1"
     inkscape:groupmode="layer"
     id="layer1"><path
       id="path6758"
       style="opacity:0.504444;fill-opacity:0.555319;fill-rule:evenodd;stroke-width:4;stroke-linecap:square;paint-order:stroke markers fill"
       d="m 200,350 a 50,50 0 0 1 -50,50 50,50 0 0 1 -50,-50 50,50 0 0 1 50,-50 50,50 0 0 1 50,50 z m 100,0 A 150,150 0 0 1 150,500 150,150 0 0 1 0,350 150,150 0 0 1 150,200 150,150 0 0 1 300,350 Z" /><path
       id="path6758-6"
       style="opacity:0.504444;fill-opacity:0.555319;fill-rule:evenodd;stroke-width:4;stroke-linecap:square;paint-order:stroke markers fill"
       d="M 200,0 C 117.15729,0 0,67.157288 0,150 0,232.84271 67.157288,300 150,300 V 200 c -27.61424,0 -50,-22.38576 -50,-50 0,-27.61424 22.38576,-50 50,-50 H 275 V 0 Z"
       sodipodi:nodetypes="ssccssccs" /><path
       id="path6758-6-5"
       style="opacity:0.504444;fill-opacity:0.555319;fill-rule:evenodd;stroke-width:4;stroke-linecap:square;paint-order:stroke markers fill"
       d="m 100,700 c 82.84271,0 200,-67.15729 200,-150 0,-82.84271 -67.15729,-150 -150,-150 v 100 c 27.61424,0 50,22.38576 50,50 0,27.61424 -22.38576,50 -50,50 H 25 v 100 z"
       sodipodi:nodetypes="ssccssccs" /><path
       id="path6758-9"
       style="opacity:0.504444;fill-opacity:0.555319;fill-rule:evenodd;stroke-width:4;stroke-linecap:square;paint-order:stroke markers fill"
       d="M 200,0 C 117.15729,0 0,67.157288 0,150 0.05816422,186.9245 13.733675,222.5302 38.408203,250 13.733675,277.4698 0.05816422,313.0755 0,350 c 0,82.84271 67.157288,150 150,150 27.61424,0 50,22.38576 50,50 0,27.61424 -22.38576,50 -50,50 H 25 v 100 h 75 c 82.84271,0 200,-67.15729 200,-150 -0.006,-36.94571 -13.64731,-72.58949 -38.30859,-100.09961 C 286.30691,422.44142 299.94472,386.87702 300,350 300,267.15729 232.84271,200 150,200 c -27.61424,0 -50,-22.38576 -50,-50 0,-27.61424 22.38576,-50 50,-50 H 275 V 0 Z m -50,300 c 27.61424,0 50,22.38576 50,50 0,27.61424 -22.38576,50 -50,50 -27.61424,0 -50,-22.38576 -50,-50 0,-27.61424 22.38576,-50 50,-50 z"
       sodipodi:nodetypes="scccsssccscccsssccssssss" /></g></svg>
