<?xml version="1.0" encoding="UTF-8" standalone="no"?>
<!-- Created with Inkscape (http://www.inkscape.org/) -->

<svg
   width="800"
   height="800"
   viewBox="0 0 800 800"
   version="1.1"
   id="svg1"
   inkscape:version="1.2.2 (732a01da63, 2022-12-09)"
   sodipodi:docname="191_inverted-question-mark.svg"
   xml:space="preserve"
   xmlns:inkscape="http://www.inkscape.org/namespaces/inkscape"
   xmlns:sodipodi="http://sodipodi.sourceforge.net/DTD/sodipodi-0.dtd"
   xmlns="http://www.w3.org/2000/svg"
   xmlns:svg="http://www.w3.org/2000/svg"><sodipodi:namedview
     id="namedview1"
     pagecolor="#ffffff"
     bordercolor="#000000"
     borderopacity="0.25"
     inkscape:showpageshadow="2"
     inkscape:pageopacity="0.0"
     inkscape:pagecheckerboard="0"
     inkscape:deskcolor="#d1d1d1"
     inkscape:document-units="px"
     showgrid="true"
     inkscape:zoom="1.5721341"
     inkscape:cx="195.594"
     inkscape:cy="396.9127"
     inkscape:window-width="3840"
     inkscape:window-height="2066"
     inkscape:window-x="-11"
     inkscape:window-y="-11"
     inkscape:window-maximized="1"
     inkscape:current-layer="layer1"
     showguides="false"><inkscape:grid
       id="grid1"
       units="px"
       originx="0"
       originy="0"
       spacingx="25"
       spacingy="25"
       empcolor="#0099e5"
       empopacity="0.30196078"
       color="#0099e5"
       opacity="0.14901961"
       empspacing="4"
       dotted="false"
       gridanglex="30"
       gridanglez="30"
       visible="true" /></sodipodi:namedview><defs
     id="defs1" /><g
     inkscape:label="Layer 1"
     inkscape:groupmode="layer"
     id="layer1"><path
       id="path352-3"
       style="fill:#000000;fill-opacity:0.555319;fill-rule:evenodd;stroke:none;stroke-width:3px;stroke-linecap:butt;stroke-linejoin:miter;stroke-opacity:1"
       d="m 150,625 c 75,0 150,-50 150,-125 H 200 c 0,25 -25,25 -50,25 -25,0 -50,-25 -50,-50 0,-25 25,-50 50,-50 V 325 C 75,325 0,400 0,475 0,550 75,625 150,625 Z"
       sodipodi:nodetypes="ccccccccc" /><rect
       style="fill:#000000;fill-opacity:0.555319;fill-rule:evenodd;stroke-width:100;stroke-linecap:round;stroke-linejoin:round;stroke-miterlimit:4.5;stop-color:#000000"
       id="rect9439"
       width="100"
       height="125"
       x="-200"
       y="-425"
       transform="scale(-1)" /><path
       id="path352-3-7"
       style="fill:#000000;fill-opacity:0.555319;fill-rule:evenodd;stroke:none;stroke-width:3px;stroke-linecap:butt;stroke-linejoin:miter;stroke-opacity:1"
       d="m 150,625 c 74.99993,0 150,-50.00007 150,-125 H 200 c 0,24.99998 -25.00002,25 -50,25 -24.99998,0 -50,-25.00002 -50,-50 0,-24.99998 25.00002,-50 50,-50 h 50 V 300 H 100 v 35.66797 C 44.92641,358.94857 0,416.95883 0,475 0,549.99993 75.00007,625 150,625 Z" /></g></svg>
