<?xml version="1.0" encoding="UTF-8" standalone="no"?>
<!-- Created with Inkscape (http://www.inkscape.org/) -->

<svg
   width="800"
   height="800"
   viewBox="0 0 800 800"
   version="1.1"
   id="svg1"
   inkscape:version="1.2.1 (9c6d41e410, 2022-07-14)"
   sodipodi:docname="198_O-with-stroke.svg"
   xml:space="preserve"
   xmlns:inkscape="http://www.inkscape.org/namespaces/inkscape"
   xmlns:sodipodi="http://sodipodi.sourceforge.net/DTD/sodipodi-0.dtd"
   xmlns="http://www.w3.org/2000/svg"
   xmlns:svg="http://www.w3.org/2000/svg"><sodipodi:namedview
     id="namedview1"
     pagecolor="#ffffff"
     bordercolor="#000000"
     borderopacity="0.25"
     inkscape:showpageshadow="2"
     inkscape:pageopacity="0.0"
     inkscape:pagecheckerboard="0"
     inkscape:deskcolor="#d1d1d1"
     inkscape:document-units="px"
     showgrid="true"
     inkscape:zoom="0.55583335"
     inkscape:cx="275.26236"
     inkscape:cy="729.53521"
     inkscape:window-width="1080"
     inkscape:window-height="1230"
     inkscape:window-x="3640"
     inkscape:window-y="172"
     inkscape:window-maximized="0"
     inkscape:current-layer="layer1"
     showguides="true"><inkscape:grid
       id="grid1"
       units="px"
       originx="0"
       originy="0"
       spacingx="25"
       spacingy="25"
       empcolor="#0099e5"
       empopacity="0.30196078"
       color="#0099e5"
       opacity="0.14901961"
       empspacing="4"
       dotted="false"
       gridanglex="30"
       gridanglez="30"
       visible="true" /></sodipodi:namedview><defs
     id="defs1" /><g
     inkscape:label="Layer 1"
     inkscape:groupmode="layer"
     id="layer1"><path
       id="path352-3"
       style="fill:#000000;fill-opacity:0.555319;fill-rule:evenodd;stroke:none;stroke-width:3px;stroke-linecap:butt;stroke-linejoin:miter;stroke-opacity:1"
       d="M 150,100 C 75.00015,100 0,225.00014 0,300 v 100 c 0,74.99985 75.00015,200 150,200 h 100 c 74.99986,0 150,-125.00015 150,-200 V 300 C 400,225.00014 324.99986,100 250,100 Z m 0,100 h 100 c 24.99996,0 50,50.00005 50,100 v 100 c 0,49.99995 -25.00004,100 -50,100 H 150 c -24.99996,0 -50,-53.41087 -50,-100 V 300 c 0,-49.99995 25.00004,-100 50,-100 z"
       sodipodi:nodetypes="ssssssssssssssssss" /><path
       style="fill:#000000;fill-opacity:0.555319;fill-rule:evenodd;stroke:none;stroke-width:1px;stroke-linecap:butt;stroke-linejoin:miter;stroke-opacity:1"
       d="m 0,550 v 50 H 75 L 400,150 v -50 h -75 z"
       id="path45009"
       sodipodi:nodetypes="ccccccc" /><path
       id="path352-3-0"
       style="fill:#000000;fill-opacity:0.555319;fill-rule:evenodd;stroke:none;stroke-width:3px;stroke-linecap:butt;stroke-linejoin:miter;stroke-opacity:1"
       d="M 150 100 C 75.000225 100 0 225.00021 0 300 L 0 400 C 0 430.63094 12.63982 469.54023 32.550781 504.92969 L 0 550 L 0 600 L 75 600 L 91.736328 576.82617 C 110.22951 591.14824 130.10741 600 150 600 L 250 600 C 324.99979 600 400 474.99978 400 400 L 400 300 C 400 269.36905 387.36018 230.45977 367.44922 195.07031 L 400 150 L 400 100 L 325 100 L 308.26367 123.17383 C 289.77049 108.85176 269.89259 100 250 100 L 150 100 z M 150 200 L 250 200 C 250.85131 200 251.70046 200.19852 252.55078 200.3125 L 100.48242 410.87109 C 100.19678 407.22639 100 403.59123 100 400 L 100 300 C 100 250.0001 125.00006 200 150 200 z M 299.57031 289.05664 C 299.82795 292.69366 300 296.34343 300 300 L 300 400 C 300 449.9999 274.99994 500 250 500 L 150 500 C 149.15257 500 148.3074 499.78836 147.46094 499.66797 L 299.57031 289.05664 z " /></g></svg>
