<?xml version="1.0" encoding="UTF-8" standalone="no"?>
<!-- Created with Inkscape (http://www.inkscape.org/) -->

<svg
   width="800"
   height="800"
   viewBox="0 0 800 800"
   version="1.1"
   id="svg1"
   inkscape:version="1.2.1 (9c6d41e410, 2022-07-14)"
   sodipodi:docname="223_sharp-s.svg"
   xml:space="preserve"
   xmlns:inkscape="http://www.inkscape.org/namespaces/inkscape"
   xmlns:sodipodi="http://sodipodi.sourceforge.net/DTD/sodipodi-0.dtd"
   xmlns="http://www.w3.org/2000/svg"
   xmlns:svg="http://www.w3.org/2000/svg"><sodipodi:namedview
     id="namedview1"
     pagecolor="#ffffff"
     bordercolor="#000000"
     borderopacity="0.25"
     inkscape:showpageshadow="2"
     inkscape:pageopacity="0.0"
     inkscape:pagecheckerboard="0"
     inkscape:deskcolor="#d1d1d1"
     inkscape:document-units="px"
     showgrid="true"
     inkscape:zoom="0.78606706"
     inkscape:cx="192.09557"
     inkscape:cy="472.60599"
     inkscape:window-width="1080"
     inkscape:window-height="1230"
     inkscape:window-x="3640"
     inkscape:window-y="172"
     inkscape:window-maximized="0"
     inkscape:current-layer="layer1"
     showguides="true"><inkscape:grid
       id="grid1"
       units="px"
       originx="0"
       originy="0"
       spacingx="25"
       spacingy="25"
       empcolor="#0099e5"
       empopacity="0.30196078"
       color="#0099e5"
       opacity="0.14901961"
       empspacing="4"
       dotted="false"
       gridanglex="30"
       gridanglez="30"
       visible="true" /></sodipodi:namedview><defs
     id="defs1" /><g
     inkscape:label="Layer 1"
     inkscape:groupmode="layer"
     id="layer1"><path
       id="path352-3"
       style="fill:#000000;fill-opacity:0.555319;fill-rule:evenodd;stroke:none;stroke-width:3px;stroke-linecap:butt;stroke-linejoin:miter;stroke-opacity:1"
       d="M 150,400 C 200,400 300,300 300,250 300,200 200,100 150,100 100,100 0,200 0,250 h 100 c 0.19296,-21.62665 25,-50 50,-50 25,0 50,25 50,50 0,25 -25,50 -50,50 z"
       sodipodi:nodetypes="cssccsccc" /><path
       id="path352-3-4"
       style="fill:#000000;fill-opacity:0.555319;fill-rule:evenodd;stroke:none;stroke-width:3px;stroke-linecap:butt;stroke-linejoin:miter;stroke-opacity:1"
       d="m 150,300 v 100 c 24.99998,0 50,25.00002 50,50 0,24.99998 -25.00002,50 -50,50 v 100 c 50,0 150,-87.72164 150,-150 0,-50 -100,-150 -150,-150 z"
       sodipodi:nodetypes="ccsccsc" /><rect
       style="opacity:0.504444;fill:#000000;fill-opacity:0.555319;fill-rule:evenodd;stroke:none;stroke-width:4;stroke-linecap:square;paint-order:stroke markers fill"
       id="rect36105"
       width="100"
       height="350"
       x="0"
       y="250" /><path
       id="path352-3-46"
       style="fill:#000000;fill-opacity:0.555319;fill-rule:evenodd;stroke:none;stroke-width:3px;stroke-linecap:butt;stroke-linejoin:miter;stroke-opacity:1"
       d="M 150 100 C 100.00005 100 0 200.00005 0 250 L 0 600 L 100 600 L 100 250 C 100.19296 228.37337 125.00002 200 150 200 C 174.99998 200 200 225.00002 200 250 C 200 274.99998 174.99998 300 150 300 L 150 400 C 174.99996 400 200 425.00004 200 450 C 200 474.99996 174.99996 500 150 500 L 150 600 C 199.99995 600 300 512.2783 300 450 C 300 423.28879 271.45543 382.31651 237.24609 349.93555 C 271.43166 317.56251 300 276.69728 300 250 C 300 200.00005 199.99995 100 150 100 z " /></g></svg>
