<?xml version="1.0" encoding="UTF-8" standalone="no"?>
<!-- Created with Inkscape (http://www.inkscape.org/) -->

<svg
   width="800"
   height="800"
   viewBox="0 0 800 800"
   version="1.1"
   id="svg1"
   inkscape:version="1.2.1 (9c6d41e410, 2022-07-14)"
   sodipodi:docname="230_ae.svg"
   xml:space="preserve"
   xmlns:inkscape="http://www.inkscape.org/namespaces/inkscape"
   xmlns:sodipodi="http://sodipodi.sourceforge.net/DTD/sodipodi-0.dtd"
   xmlns="http://www.w3.org/2000/svg"
   xmlns:svg="http://www.w3.org/2000/svg"><sodipodi:namedview
     id="namedview1"
     pagecolor="#ffffff"
     bordercolor="#000000"
     borderopacity="0.25"
     inkscape:showpageshadow="2"
     inkscape:pageopacity="0.0"
     inkscape:pagecheckerboard="0"
     inkscape:deskcolor="#d1d1d1"
     inkscape:document-units="px"
     showgrid="true"
     inkscape:zoom="0.78606706"
     inkscape:cx="258.24769"
     inkscape:cy="560.38476"
     inkscape:window-width="1080"
     inkscape:window-height="1230"
     inkscape:window-x="3640"
     inkscape:window-y="172"
     inkscape:window-maximized="0"
     inkscape:current-layer="layer1"
     showguides="true"><inkscape:grid
       id="grid1"
       units="px"
       originx="0"
       originy="0"
       spacingx="25"
       spacingy="25"
       empcolor="#0099e5"
       empopacity="0.30196078"
       color="#0099e5"
       opacity="0.14901961"
       empspacing="4"
       dotted="false"
       gridanglex="30"
       gridanglez="30"
       visible="true" /></sodipodi:namedview><defs
     id="defs1" /><g
     inkscape:label="Layer 1"
     inkscape:groupmode="layer"
     id="layer1"><path
       id="path352-3-2"
       style="fill:#000000;fill-opacity:0.555319;fill-rule:evenodd;stroke:none;stroke-width:3px;stroke-linecap:butt;stroke-linejoin:miter;stroke-opacity:1"
       d="M 200 200 C 75.000125 200 0 275.00013 0 400 C 0 524.99987 75.00012 600 200 600 L 350 600 C 449.99635 600.8431 500 549.99995 500 500 L 400 500 L 350 500 C 325.00006 500 300 474.99988 300 450 L 300 425 L 500 425 L 500 375 C 500.31804 279.96378 424.99993 200 350 200 L 200 200 z M 350 275 C 374.99994 275 400 300.00002 400 325 L 400 350 L 300 350 L 300 325 C 300 300.00002 325.00006 275 350 275 z M 175 300 L 200 300 L 200 375 L 200 425 L 200 500 L 175 500 C 125.00005 500 99.999995 474.99995 100 425 L 100 375 C 100.00001 318.23775 125.00005 300 175 300 z " /></g></svg>
