<?xml version="1.0" encoding="UTF-8" standalone="no"?>
<!-- Created with Inkscape (http://www.inkscape.org/) -->

<svg
   width="800"
   height="800"
   viewBox="0 0 800 800"
   version="1.1"
   id="svg1"
   inkscape:version="1.2.1 (9c6d41e410, 2022-07-14)"
   sodipodi:docname="240_small-eth.svg"
   xml:space="preserve"
   xmlns:inkscape="http://www.inkscape.org/namespaces/inkscape"
   xmlns:sodipodi="http://sodipodi.sourceforge.net/DTD/sodipodi-0.dtd"
   xmlns="http://www.w3.org/2000/svg"
   xmlns:svg="http://www.w3.org/2000/svg"><sodipodi:namedview
     id="namedview1"
     pagecolor="#ffffff"
     bordercolor="#000000"
     borderopacity="0.25"
     inkscape:showpageshadow="2"
     inkscape:pageopacity="0.0"
     inkscape:pagecheckerboard="0"
     inkscape:deskcolor="#d1d1d1"
     inkscape:document-units="px"
     showgrid="true"
     inkscape:zoom="0.78606706"
     inkscape:cx="192.09557"
     inkscape:cy="472.60599"
     inkscape:window-width="1080"
     inkscape:window-height="1230"
     inkscape:window-x="3640"
     inkscape:window-y="172"
     inkscape:window-maximized="0"
     inkscape:current-layer="layer1-5"
     showguides="true"><inkscape:grid
       id="grid1"
       units="px"
       originx="0"
       originy="0"
       spacingx="25"
       spacingy="25"
       empcolor="#0099e5"
       empopacity="0.30196078"
       color="#0099e5"
       opacity="0.14901961"
       empspacing="4"
       dotted="false"
       gridanglex="30"
       gridanglez="30"
       visible="true" /></sodipodi:namedview><defs
     id="defs1" /><g
     inkscape:label="Layer 1"
     inkscape:groupmode="layer"
     id="layer1"><g
       inkscape:label="Layer 1"
       id="layer1-5"><path
         id="path352-3-2"
         style="fill:#000000;fill-opacity:0.555319;fill-rule:evenodd;stroke:none;stroke-width:3px;stroke-linecap:butt;stroke-linejoin:miter;stroke-opacity:1"
         d="M 150,300 C 100.0001,300 0,375.00014 0,450 0,524.99986 100.0001,600 150,600 199.9999,600 300,524.99986 300,450 300,375.00014 199.9999,300 150,300 Z m 0,100 c 24.99996,0 50,25.00004 50,50 0,24.99996 -25.00004,50 -50,50 -24.99996,0 -50.00001,-25.00004 -50,-50 0,-24.99996 25.00004,-50 50,-50 z" /><path
         style="fill:#000000;fill-opacity:0.555319;fill-rule:evenodd;stroke:none;stroke-width:1px;stroke-linecap:butt;stroke-linejoin:miter;stroke-opacity:1"
         d="m 50,100 v 50 l 175,225 75,75 c 0,0 0.4951,-91.00654 -25,-125 C 200,225 100,100 100,100 Z"
         id="path31963"
         sodipodi:nodetypes="ccccscc" /><path
         style="fill:#000000;fill-rule:evenodd;stroke:none;stroke-width:1px;stroke-linecap:butt;stroke-linejoin:miter;stroke-opacity:1;fill-opacity:0.55531901"
         d="m 0,250 v 50 H 50 L 300,150 v -50 h -50 z"
         id="path31967"
         sodipodi:nodetypes="ccccccc" /><path
         id="path352-3-2-3"
         style="fill:#000000;fill-opacity:0.555319;fill-rule:evenodd;stroke:none;stroke-width:3px;stroke-linecap:butt;stroke-linejoin:miter;stroke-opacity:1"
         d="M 50 100 L 50 150 L 87.121094 197.72656 L 0 250 L 0 300 L 50 300 L 129.54492 252.27344 L 168.89844 302.87109 C 162.1026 301.02417 155.71378 300 150 300 C 100.00015 300 9.4738937e-15 375.00021 0 450 C 0 524.99979 100.00015 600 150 600 C 199.99985 600 300 524.99979 300 450 C 300 450 300.49507 358.99343 275 325 C 247.93968 288.91957 218.61024 250.99712 190.91211 215.45312 L 300 150 L 300 100 L 250 100 L 148.32227 161.00586 C 120.75599 126.03321 100 100 100 100 L 50 100 z M 150 400 C 174.99994 400 200 425.00006 200 450 C 200 474.99994 174.99994 500 150 500 C 125.00006 500 99.99999 474.99994 100 450 C 100 425.00006 125.00006 400 150 400 z " /></g></g></svg>
