<?xml version="1.0" encoding="UTF-8" standalone="no"?>
<!-- Created with Inkscape (http://www.inkscape.org/) -->

<svg
   width="800"
   height="800"
   viewBox="0 0 800 800"
   version="1.1"
   id="svg1"
   inkscape:version="1.2.1 (9c6d41e410, 2022-07-14)"
   sodipodi:docname="248_o-with-stroke.svg"
   xml:space="preserve"
   xmlns:inkscape="http://www.inkscape.org/namespaces/inkscape"
   xmlns:sodipodi="http://sodipodi.sourceforge.net/DTD/sodipodi-0.dtd"
   xmlns="http://www.w3.org/2000/svg"
   xmlns:svg="http://www.w3.org/2000/svg"><sodipodi:namedview
     id="namedview1"
     pagecolor="#ffffff"
     bordercolor="#000000"
     borderopacity="0.25"
     inkscape:showpageshadow="2"
     inkscape:pageopacity="0.0"
     inkscape:pagecheckerboard="0"
     inkscape:deskcolor="#d1d1d1"
     inkscape:document-units="px"
     showgrid="true"
     inkscape:zoom="0.55583335"
     inkscape:cx="275.26236"
     inkscape:cy="729.53521"
     inkscape:window-width="1080"
     inkscape:window-height="1230"
     inkscape:window-x="3640"
     inkscape:window-y="172"
     inkscape:window-maximized="0"
     inkscape:current-layer="layer1"
     showguides="true"><inkscape:grid
       id="grid1"
       units="px"
       originx="0"
       originy="0"
       spacingx="25"
       spacingy="25"
       empcolor="#0099e5"
       empopacity="0.30196078"
       color="#0099e5"
       opacity="0.14901961"
       empspacing="4"
       dotted="false"
       gridanglex="30"
       gridanglez="30"
       visible="true" /></sodipodi:namedview><defs
     id="defs1" /><g
     inkscape:label="Layer 1"
     inkscape:groupmode="layer"
     id="layer1"><path
       id="path352-3"
       style="fill:#000000;fill-opacity:0.555319;fill-rule:evenodd;stroke:none;stroke-width:3px;stroke-linecap:butt;stroke-linejoin:miter;stroke-opacity:1"
       d="M 150,600 H 250 C 324.99986,600 400,474.99985 400,400 400,325.00014 324.99986,200 250,200 H 150 C 75.00015,200 0,325.00014 0,400 0,474.99985 75.00015,600 150,600 Z m 0,-300 h 100 c 24.99996,0 50,50.00005 50,100 0,49.99995 -25.00004,100 -50,100 H 150 c -24.99996,0 -50,-53.41087 -50,-100 0,-49.99995 25.00004,-100 50,-100 z"
       sodipodi:nodetypes="sscsscssscsscs" /><path
       style="fill:#000000;fill-opacity:0.555319;fill-rule:evenodd;stroke:none;stroke-width:1px;stroke-linecap:butt;stroke-linejoin:miter;stroke-opacity:1"
       d="m 0,550 v 50 H 50 L 400,250 v -50 h -50 z"
       id="path45009"
       sodipodi:nodetypes="ccccccc" /><path
       id="path352-3-7"
       style="fill:#000000;fill-opacity:0.555319;fill-rule:evenodd;stroke:none;stroke-width:3px;stroke-linecap:butt;stroke-linejoin:miter;stroke-opacity:1"
       d="M 150 200 C 75.000225 200 0 325.00021 0 400 C 0 432.94394 14.47726 475.53058 37.0625 512.9375 L 0 550 L 0 600 L 50 600 L 81.619141 568.38086 C 102.86205 587.64165 126.42895 600 150 600 L 250 600 C 324.99979 600 400 474.99978 400 400 C 400 367.05605 385.52274 324.46942 362.9375 287.0625 L 400 250 L 400 200 L 350 200 L 318.38086 231.61914 C 297.13795 212.35835 273.57106 200 250 200 L 150 200 z M 150 300 L 250 300 L 106.47656 443.52344 C 102.41153 429.55645 100 414.45204 100 400 C 100 350.0001 125.00006 300 150 300 z M 293.83594 356.16406 C 297.6968 369.87014 300 384.92304 300 400 C 300 449.9999 274.99994 500 250 500 L 150 500 L 293.83594 356.16406 z " /></g></svg>
