<?xml version="1.0" encoding="UTF-8" standalone="no"?>
<!-- Created with Inkscape (http://www.inkscape.org/) -->

<svg
   width="800"
   height="800"
   viewBox="0 0 800 800"
   version="1.1"
   id="svg1"
   inkscape:version="1.2.1 (9c6d41e410, 2022-07-14)"
   sodipodi:docname="339_oe.svg"
   xml:space="preserve"
   xmlns:inkscape="http://www.inkscape.org/namespaces/inkscape"
   xmlns:sodipodi="http://sodipodi.sourceforge.net/DTD/sodipodi-0.dtd"
   xmlns="http://www.w3.org/2000/svg"
   xmlns:svg="http://www.w3.org/2000/svg"><sodipodi:namedview
     id="namedview1"
     pagecolor="#ffffff"
     bordercolor="#000000"
     borderopacity="0.25"
     inkscape:showpageshadow="2"
     inkscape:pageopacity="0.0"
     inkscape:pagecheckerboard="0"
     inkscape:deskcolor="#d1d1d1"
     inkscape:document-units="px"
     showgrid="true"
     inkscape:zoom="0.78606706"
     inkscape:cx="283.69081"
     inkscape:cy="471.33383"
     inkscape:window-width="1080"
     inkscape:window-height="1230"
     inkscape:window-x="3640"
     inkscape:window-y="172"
     inkscape:window-maximized="0"
     inkscape:current-layer="layer1-5"
     showguides="false"><inkscape:grid
       id="grid1"
       units="px"
       originx="0"
       originy="0"
       spacingx="25"
       spacingy="25"
       empcolor="#0099e5"
       empopacity="0.30196078"
       color="#0099e5"
       opacity="0.14901961"
       empspacing="4"
       dotted="false"
       gridanglex="30"
       gridanglez="30"
       visible="true" /></sodipodi:namedview><defs
     id="defs1" /><g
     inkscape:label="Layer 1"
     inkscape:groupmode="layer"
     id="layer1"><g
       inkscape:label="Layer 1"
       id="layer1-5"><path
         id="path352-3-2"
         style="fill:#000000;fill-opacity:0.555319;fill-rule:evenodd;stroke:none;stroke-width:3px;stroke-linecap:butt;stroke-linejoin:miter;stroke-opacity:1"
         d="M 150,200 C 75,200 0,300 0,375 v 50 c 0,76.65794 75,175 150,175 75,0 100,-75 100,-75 0,0 25,75 100,75 75,0 150,-50.00005 150,-100 H 400 350 c -24.99994,0 -50,-25.00012 -50,-50 v -25 h 200 v -50 c 0.31804,-95.03622 -75,-175 -150,-175 -75,0 -100,75 -100,75 0,0 -25,-75 -100,-75 z m 200,75 c 24.99994,0 50,25.00002 50,50 v 25 H 300 v -25 c 0,-24.99998 25.00006,-50 50,-50 z M 200,450 c 0,25 -25,50 -50,50 -25,0 -50,-19.08239 -50,-50 V 350 c 0,-25 25,-50 50,-50 25,0 50,15.42295 50,50 z"
         sodipodi:nodetypes="zsszczccssccczczssccssczsszcc" /></g></g></svg>
