<?xml version="1.0" encoding="UTF-8" standalone="no"?>
<!-- Created with Inkscape (http://www.inkscape.org/) -->

<svg
   width="1200"
   height="1200"
   viewBox="0 0 1200 1200"
   version="1.1"
   id="svg1"
   inkscape:version="1.2.2 (732a01da63, 2022-12-09)"
   sodipodi:docname="1489_bet.svg"
   xml:space="preserve"
   xmlns:inkscape="http://www.inkscape.org/namespaces/inkscape"
   xmlns:sodipodi="http://sodipodi.sourceforge.net/DTD/sodipodi-0.dtd"
   xmlns="http://www.w3.org/2000/svg"
   xmlns:svg="http://www.w3.org/2000/svg"><sodipodi:namedview
     id="namedview1"
     pagecolor="#ffffff"
     bordercolor="#000000"
     borderopacity="0.25"
     inkscape:showpageshadow="2"
     inkscape:pageopacity="0.0"
     inkscape:pagecheckerboard="0"
     inkscape:deskcolor="#d1d1d1"
     inkscape:document-units="px"
     showgrid="true"
     inkscape:zoom="0.78606706"
     inkscape:cx="-134.21247"
     inkscape:cy="636.07805"
     inkscape:window-width="1649"
     inkscape:window-height="484"
     inkscape:window-x="228"
     inkscape:window-y="228"
     inkscape:window-maximized="0"
     inkscape:current-layer="layer1"
     showguides="false"><inkscape:grid
       id="grid1"
       units="px"
       originx="0"
       originy="0"
       spacingx="25"
       spacingy="25"
       empcolor="#0099e5"
       empopacity="0.30196078"
       color="#0099e5"
       opacity="0.14901961"
       empspacing="4"
       dotted="false"
       gridanglex="30"
       gridanglez="30"
       visible="true" /></sodipodi:namedview><defs
     id="defs1" /><g
     inkscape:label="Layer 1"
     inkscape:groupmode="layer"
     id="layer1"><path
       style="fill:#000000;fill-opacity:0.560784;stroke:none;stroke-width:1px;stroke-linecap:butt;stroke-linejoin:miter;stroke-opacity:0.560784"
       d="M 250,1000 H 0 V 900 H 200 C 300,900 400,800 400,650 400,500 300,400 200,400 H 0 V 300 h 250 c 150,0 350,150 350,350 0,200 -200,350 -350,350 z"
       id="path17789-5"
       sodipodi:nodetypes="sccszsccszs" /><path
       style="fill:#000000;fill-opacity:0.560784;stroke:none;stroke-width:1px;stroke-linecap:butt;stroke-linejoin:miter;stroke-opacity:0.560784"
       d="m 0,900 v 100 H 600 V 900 Z"
       id="path6544"
       sodipodi:nodetypes="ccccc" /><path
       id="path17789-5-4"
       style="fill:#000000;fill-opacity:0.560784;stroke:none;stroke-width:1px;stroke-linecap:butt;stroke-linejoin:miter;stroke-opacity:0.560784"
       d="M 0 300 L 0 400 L 200 400 C 299.9999 400 400 500.00015 400 650 C 400 799.99985 299.9999 900 200 900 L 0 900 L 0 1000 L 250 1000 L 600 1000 L 600 900 L 481.25 900 C 549.99993 837.50006 600 749.9999 600 650 C 600 450.0002 399.99985 300 250 300 L 0 300 z " /></g></svg>
