<?xml version="1.0" encoding="UTF-8" standalone="no"?>
<!-- Created with Inkscape (http://www.inkscape.org/) -->

<svg
   width="1200"
   height="1200"
   viewBox="0 0 1200 1200"
   version="1.1"
   id="svg1"
   inkscape:version="1.2.2 (732a01da63, 2022-12-09)"
   sodipodi:docname="1502_mem.svg"
   xml:space="preserve"
   xmlns:inkscape="http://www.inkscape.org/namespaces/inkscape"
   xmlns:sodipodi="http://sodipodi.sourceforge.net/DTD/sodipodi-0.dtd"
   xmlns="http://www.w3.org/2000/svg"
   xmlns:svg="http://www.w3.org/2000/svg"><sodipodi:namedview
     id="namedview1"
     pagecolor="#ffffff"
     bordercolor="#000000"
     borderopacity="0.25"
     inkscape:showpageshadow="2"
     inkscape:pageopacity="0.0"
     inkscape:pagecheckerboard="0"
     inkscape:deskcolor="#d1d1d1"
     inkscape:document-units="px"
     showgrid="true"
     inkscape:zoom="1.1116667"
     inkscape:cx="-425.93702"
     inkscape:cy="615.29234"
     inkscape:window-width="3840"
     inkscape:window-height="2066"
     inkscape:window-x="-11"
     inkscape:window-y="-11"
     inkscape:window-maximized="1"
     inkscape:current-layer="layer1"
     showguides="false"><inkscape:grid
       id="grid1"
       units="px"
       originx="0"
       originy="0"
       spacingx="25"
       spacingy="25"
       empcolor="#0099e5"
       empopacity="0.30196078"
       color="#0099e5"
       opacity="0.14901961"
       empspacing="4"
       dotted="false"
       gridanglex="30"
       gridanglez="30"
       visible="true" /></sodipodi:namedview><defs
     id="defs1" /><g
     inkscape:label="Layer 1"
     inkscape:groupmode="layer"
     id="layer1"><rect
       style="fill:#4d4d4d;fill-rule:evenodd;stroke:none;stroke-width:0.25;stroke-linecap:round;stroke-linejoin:round;stroke-miterlimit:2.5;stop-color:#000000"
       id="rect1267"
       width="200"
       height="700"
       x="0"
       y="300" /><path
       id="path25872"
       style="fill:#000000;fill-opacity:0.560784;stroke:none;stroke-width:1px;stroke-linecap:butt;stroke-linejoin:miter;stroke-opacity:0.560784"
       d="M 425,300 C 250,300 -0.8995502,519.7901 0,725 l 200,-75 c 0,-149.99985 100.0001,-250 200,-250 74.99993,0 100,25.00007 100,100 v 150 c 0,149.99985 -100.0001,250 -200,250 v 100 h 50 c 149.99984,0 350,-150.0002 350,-350 V 550 C 699.99997,398.34208 599.99983,300 450,300 Z"
       sodipodi:nodetypes="cccsssccssscc" /><path
       id="rect1267-7"
       style="fill:#4d4d4d;fill-rule:evenodd;stroke:none;stroke-width:0.25;stroke-linecap:round;stroke-linejoin:round;stroke-miterlimit:2.5;stop-color:#000000"
       d="M 0 300 L 0 725 L 0 1000 L 200 1000 L 200 650 C 200 500.0003 300.0002 400 400 400 C 474.99986 400 500 425.00014 500 500 L 500 650 C 500 799.9997 399.9998 900 300 900 L 300 1000 L 350 1000 C 499.99969 1000 700 849.9996 700 650 L 700 550 C 699.99997 398.34223 599.99968 300 450 300 L 425 300 C 355.13746 300 273.20568 335.09288 200 390.23828 L 200 300 L 0 300 z " /></g></svg>
