<?xml version="1.0" encoding="UTF-8" standalone="no"?>
<!-- Created with Inkscape (http://www.inkscape.org/) -->

<svg
   width="1200"
   height="1200"
   viewBox="0 0 1200 1200"
   version="1.1"
   id="svg1"
   inkscape:version="1.2.2 (732a01da63, 2022-12-09)"
   sodipodi:docname="1513_shin.svg"
   xml:space="preserve"
   xmlns:inkscape="http://www.inkscape.org/namespaces/inkscape"
   xmlns:sodipodi="http://sodipodi.sourceforge.net/DTD/sodipodi-0.dtd"
   xmlns="http://www.w3.org/2000/svg"
   xmlns:svg="http://www.w3.org/2000/svg"><sodipodi:namedview
     id="namedview1"
     pagecolor="#ffffff"
     bordercolor="#000000"
     borderopacity="0.25"
     inkscape:showpageshadow="2"
     inkscape:pageopacity="0.0"
     inkscape:pagecheckerboard="0"
     inkscape:deskcolor="#d1d1d1"
     inkscape:document-units="px"
     showgrid="true"
     inkscape:zoom="1.5721341"
     inkscape:cx="-46.751737"
     inkscape:cy="677.42313"
     inkscape:window-width="3840"
     inkscape:window-height="2066"
     inkscape:window-x="-11"
     inkscape:window-y="-11"
     inkscape:window-maximized="1"
     inkscape:current-layer="layer1"
     showguides="false"><inkscape:grid
       id="grid1"
       units="px"
       originx="0"
       originy="0"
       spacingx="25"
       spacingy="25"
       empcolor="#0099e5"
       empopacity="0.30196078"
       color="#0099e5"
       opacity="0.14901961"
       empspacing="4"
       dotted="false"
       gridanglex="30"
       gridanglez="30"
       visible="true" /></sodipodi:namedview><defs
     id="defs1" /><g
     inkscape:label="Layer 1"
     inkscape:groupmode="layer"
     id="layer1"><path
       style="fill:#4d4d4d;fill-opacity:0.521818;stroke:none;stroke-width:1px;stroke-linecap:butt;stroke-linejoin:miter;stroke-opacity:1"
       d="m 249.99996,700 c 35.08986,0 49.99999,-25 50,-100 L 300,300 H 500.00004 L 500,600 c -10e-6,100 -100,200 -200.00004,200 h -100 V 700 Z"
       id="path28990"
       sodipodi:nodetypes="csccscccc" /><path
       id="path17789-5"
       style="fill:#000000;fill-opacity:0.560784;stroke:none;stroke-width:1px;stroke-linecap:butt;stroke-linejoin:miter;stroke-opacity:0.560784"
       d="M 200,650 V 300 H 0 v 350 c 0,199.9998 200.00015,350 350,350 h 100 c 149.99985,0 350,-150.0002 350,-350 V 300 H 600 V 650 C 600,799.99985 499.9999,900 400,900 300.0001,900 200,799.99985 200,650 Z"
       sodipodi:nodetypes="sccsccsccsss" /><path
       id="path28990-6"
       style="fill:#4d4d4d;fill-opacity:0.521818;stroke:none;stroke-width:1px;stroke-linecap:butt;stroke-linejoin:miter;stroke-opacity:1"
       d="M 0 300 L 0 650 C 0 849.9996 200.0003 1000 350 1000 L 450 1000 C 599.9997 1000 800 849.9996 800 650 L 800 300 L 600 300 L 600 650 C 600 799.9997 499.9998 900 400 900 C 339.14206 900 278.41958 862.80401 240.10156 800 L 300 800 C 399.99994 800 499.99999 699.9999 500 600 L 500 300 L 300 300 L 300 600 C 299.99999 674.99992 285.08982 700 250 700 L 203.92383 700 C 201.39587 684.04476 200 667.37461 200 650 L 200 300 L 0 300 z " /></g></svg>
