<?xml version="1.0" encoding="UTF-8" standalone="no"?>
<!-- Created with Inkscape (http://www.inkscape.org/) -->

<svg
   width="800"
   height="800"
   viewBox="0 0 800 800"
   version="1.1"
   id="svg1"
   inkscape:version="1.2.2 (732a01da63, 2022-12-09)"
   sodipodi:docname="8353_colon-sign.svg"
   xml:space="preserve"
   xmlns:inkscape="http://www.inkscape.org/namespaces/inkscape"
   xmlns:sodipodi="http://sodipodi.sourceforge.net/DTD/sodipodi-0.dtd"
   xmlns="http://www.w3.org/2000/svg"
   xmlns:svg="http://www.w3.org/2000/svg"><sodipodi:namedview
     id="namedview1"
     pagecolor="#ffffff"
     bordercolor="#000000"
     borderopacity="0.25"
     inkscape:showpageshadow="2"
     inkscape:pageopacity="0.0"
     inkscape:pagecheckerboard="0"
     inkscape:deskcolor="#d1d1d1"
     inkscape:document-units="px"
     showgrid="true"
     inkscape:zoom="1.602893"
     inkscape:cx="229.27295"
     inkscape:cy="409.88388"
     inkscape:window-width="1918"
     inkscape:window-height="2054"
     inkscape:window-x="0"
     inkscape:window-y="0"
     inkscape:window-maximized="0"
     inkscape:current-layer="layer1"
     showguides="false"><inkscape:grid
       id="grid1"
       units="px"
       originx="0"
       originy="0"
       spacingx="25"
       spacingy="25"
       empcolor="#0099e5"
       empopacity="0.30196078"
       color="#0099e5"
       opacity="0.14901961"
       empspacing="4"
       dotted="false"
       gridanglex="30"
       gridanglez="30"
       visible="true" /></sodipodi:namedview><defs
     id="defs1" /><g
     inkscape:label="Layer 1"
     inkscape:groupmode="layer"
     id="layer1"><path
       id="path352-3-2-2"
       style="fill:#000000;fill-opacity:0.555319;fill-rule:evenodd;stroke:none;stroke-width:3px;stroke-linecap:butt;stroke-linejoin:miter;stroke-opacity:1"
       d="M 150 100 C 75.000235 100 0 175.00021 0 250 L 0 450 C 0 524.99978 75.000235 600 150 600 L 350 600 C 424.99979 600 500 549.99978 500 475 L 400 475 C 400 499.99994 374.99994 500 350 500 L 150 500 C 125.00006 500 100 474.99994 100 450 L 100 250 C 100 225.00006 125.00006 200 150 200 L 350 200 C 374.99994 200 400 200.00006 400 225 L 500 225 C 500 150.00021 424.99979 100 350 100 L 150 100 z " /><rect
       style="opacity:0.489888;fill:#000000;fill-opacity:0.555319;fill-rule:evenodd;stroke-width:100;stroke-linecap:round;stroke-linejoin:round;stroke-miterlimit:4.5;stop-color:#000000"
       id="rect766"
       width="75"
       height="700"
       x="150"
       y="0" /><rect
       style="opacity:0.489888;fill:#000000;fill-opacity:0.555319;fill-rule:evenodd;stroke-width:100;stroke-linecap:round;stroke-linejoin:round;stroke-miterlimit:4.5;stop-color:#000000"
       id="rect766-7"
       width="75"
       height="700"
       x="300"
       y="0" /><path
       id="path352-3-2-2-1"
       style="fill:#000000;fill-opacity:0.555319;fill-rule:evenodd;stroke:none;stroke-width:3px;stroke-linecap:butt;stroke-linejoin:miter;stroke-opacity:1"
       d="M 150 0 L 150 100 C 75.00031 100 0 175.00028 0 250 L 0 450 C 0 524.99971 75.00031 600 150 600 L 150 700 L 225 700 L 225 600 L 300 600 L 300 700 L 375 700 L 375 598.07227 C 440.79648 588.43144 500 541.62679 500 475 L 400 475 C 400 491.29333 389.31718 496.90465 375 498.88086 L 375 201.11914 C 389.31718 203.09535 400 208.70667 400 225 L 500 225 C 500 158.3732 440.79648 111.56856 375 101.92773 L 375 0 L 300 0 L 300 100 L 225 100 L 225 0 L 150 0 z M 150 200 L 150 500 C 125.00008 500 100 474.99992 100 450 L 100 250 C 100 225.00008 125.00008 200 150 200 z M 225 200 L 300 200 L 300 500 L 225 500 L 225 200 z " /></g></svg>
