<?xml version="1.0" encoding="UTF-8" standalone="no"?>
<!-- Created with Inkscape (http://www.inkscape.org/) -->

<svg
   width="1200"
   height="1200"
   viewBox="0 0 1200 1200"
   version="1.1"
   id="svg1"
   inkscape:version="1.2.2 (732a01da63, 2022-12-09)"
   sodipodi:docname="8353_colon-sign.svg"
   xml:space="preserve"
   xmlns:inkscape="http://www.inkscape.org/namespaces/inkscape"
   xmlns:sodipodi="http://sodipodi.sourceforge.net/DTD/sodipodi-0.dtd"
   xmlns="http://www.w3.org/2000/svg"
   xmlns:svg="http://www.w3.org/2000/svg"><sodipodi:namedview
     id="namedview1"
     pagecolor="#ffffff"
     bordercolor="#000000"
     borderopacity="0.25"
     inkscape:showpageshadow="2"
     inkscape:pageopacity="0.0"
     inkscape:pagecheckerboard="0"
     inkscape:deskcolor="#d1d1d1"
     inkscape:document-units="px"
     showgrid="true"
     inkscape:zoom="1.1116667"
     inkscape:cx="135.38231"
     inkscape:cy="484.85757"
     inkscape:window-width="3840"
     inkscape:window-height="2066"
     inkscape:window-x="-11"
     inkscape:window-y="-11"
     inkscape:window-maximized="1"
     inkscape:current-layer="layer1"
     showguides="false"><inkscape:grid
       id="grid1"
       units="px"
       originx="0"
       originy="0"
       spacingx="25"
       spacingy="25"
       empcolor="#0099e5"
       empopacity="0.30196078"
       color="#0099e5"
       opacity="0.14901961"
       empspacing="4"
       dotted="false"
       gridanglex="30"
       gridanglez="30"
       visible="true" /></sodipodi:namedview><defs
     id="defs1" /><g
     inkscape:label="Layer 1"
     inkscape:groupmode="layer"
     id="layer1"><path
       id="path2"
       style="fill:#000000;fill-opacity:0.555319;fill-rule:evenodd;stroke-width:0.999873"
       d="M 800,400 C 798.72784,301.65807 700,200 425,200 200,200 0,375 0,575 v 50 c 0,200 200,375 425,375 275,0 375,-100 375,-200 H 600 C 600,850 549.55688,901.27216 425,900 300.00652,898.72338 200,750 200,625 v -50 c 0,-125 100,-275 225,-275 125,0 175,50 175,100 z"
       sodipodi:nodetypes="cssssccsssscc" /><path
       style="fill:#000000;stroke:none;stroke-width:1px;stroke-linecap:butt;stroke-linejoin:miter;stroke-opacity:1;fill-opacity:0.56"
       d="m 0,1050 v 50 H 100 L 550,200 V 100 h -50 z"
       id="path424"
       sodipodi:nodetypes="ccccccc" /><path
       style="fill:#000000;stroke:none;stroke-width:1px;stroke-linecap:butt;stroke-linejoin:miter;stroke-opacity:1;fill-opacity:0.56"
       d="m 200,1050 v 50 H 300 L 750,200 V 100 h -50 z"
       id="path424-3"
       sodipodi:nodetypes="ccccccc" /><path
       id="path2-8"
       style="fill:#000000;fill-opacity:0.555319;fill-rule:evenodd;stroke-width:0.999873"
       d="M 500 100 L 447.23242 200.25977 C 439.93586 200.10823 432.56146 200 425 200 C 200.00023 200 0 375.0002 0 575 L 0 625 C 0 712.3476 38.157027 794.92128 99.875 860.23633 L 0 1050 L 0 1100 L 100 1100 L 185.05859 929.88477 C 204.43436 942.0958 224.84016 953.00068 246.16016 962.29492 L 200 1050 L 200 1100 L 300 1100 L 353.04102 993.91992 C 376.5966 997.83342 400.63594 1000 425 1000 C 699.99973 1000 800 899.9999 800 800 L 600 800 C 600 849.99995 549.55676 901.27216 425 900 C 416.90054 899.91728 408.91218 899.18845 401.04297 897.91406 L 650 400 L 800 400 C 799.37306 351.53572 775.00701 302.2902 717.60938 264.7793 L 750 200 L 750 100 L 700 100 L 633.40625 226.5293 C 607.77031 218.62261 578.70704 212.27822 546.12305 207.75391 L 550 200 L 550 100 L 500 100 z M 392.96484 303.36523 L 203.28516 663.75781 C 201.29088 650.71956 200 637.72706 200 625 L 200 575 C 200 460.88968 283.3505 326.01097 392.96484 303.36523 z M 496.58789 306.82422 C 530.99896 314.04078 555.97723 326.51425 572.71484 341.84375 L 304.91406 850.66406 C 285.69817 834.11655 268.55268 814.18043 253.88086 792.23633 L 496.58789 306.82422 z " /></g></svg>
