<?xml version="1.0" encoding="UTF-8" standalone="no"?>
<!-- Created with Inkscape (http://www.inkscape.org/) -->

<svg
   width="1200"
   height="1200"
   viewBox="0 0 1200 1200"
   version="1.1"
   id="svg1"
   inkscape:version="1.2.2 (732a01da63, 2022-12-09)"
   sodipodi:docname="8354_cruzeiro-sign.svg"
   xml:space="preserve"
   xmlns:inkscape="http://www.inkscape.org/namespaces/inkscape"
   xmlns:sodipodi="http://sodipodi.sourceforge.net/DTD/sodipodi-0.dtd"
   xmlns="http://www.w3.org/2000/svg"
   xmlns:svg="http://www.w3.org/2000/svg"><sodipodi:namedview
     id="namedview1"
     pagecolor="#ffffff"
     bordercolor="#000000"
     borderopacity="0.25"
     inkscape:showpageshadow="2"
     inkscape:pageopacity="0.0"
     inkscape:pagecheckerboard="0"
     inkscape:deskcolor="#d1d1d1"
     inkscape:document-units="px"
     showgrid="true"
     inkscape:zoom="1.1116667"
     inkscape:cx="135.38231"
     inkscape:cy="484.85757"
     inkscape:window-width="3840"
     inkscape:window-height="2066"
     inkscape:window-x="-11"
     inkscape:window-y="-11"
     inkscape:window-maximized="1"
     inkscape:current-layer="layer1"
     showguides="false"><inkscape:grid
       id="grid1"
       units="px"
       originx="0"
       originy="0"
       spacingx="25"
       spacingy="25"
       empcolor="#0099e5"
       empopacity="0.30196078"
       color="#0099e5"
       opacity="0.14901961"
       empspacing="4"
       dotted="false"
       gridanglex="30"
       gridanglez="30"
       visible="true" /></sodipodi:namedview><defs
     id="defs1" /><g
     inkscape:label="Layer 1"
     inkscape:groupmode="layer"
     id="layer1"><path
       id="path2"
       style="fill:#000000;fill-opacity:0.555319;fill-rule:evenodd;stroke-width:0.999873"
       d="M 800,400 C 798.72784,301.65807 700,200 425,200 200,200 0,375 0,575 v 50 c 0,200 200,375 425,375 275,0 375,-100 375,-200 H 600 C 600,850 549.55688,901.27216 425,900 300.00652,898.72338 200,750 200,625 v -50 c 0,-125 100,-275 225,-275 125,0 175,50 175,100 z"
       sodipodi:nodetypes="cssssccsssscc" /><path
       id="path2-6"
       style="fill:#000000;fill-opacity:0.555319;fill-rule:evenodd;stroke-width:0.999873"
       d="M 300,950 H 500 V 675 c 0,-74.99985 25.03638,-98.09304 75,-100 66.6628,-2.54431 125,25 125,25 V 500 c 0,0 -50.44312,-25 -150,-25 -175,0 -250,100.0002 -250,200 z"
       sodipodi:nodetypes="cccsccscc" /><path
       id="path2-0"
       style="fill:#000000;fill-opacity:0.555319;fill-rule:evenodd;stroke-width:0.999873"
       d="M 425 200 C 200.00023 200 0 375.0002 0 575 L 0 625 C 0 824.9998 200.00023 1000 425 1000 C 699.99973 1000 800 899.9999 800 800 L 600 800 C 600 838.37384 570.12471 877.40113 500 892.94531 L 500 675 C 500 600.00022 525.03643 576.90696 575 575 C 641.66273 572.45569 700 600 700 600 L 700 500 C 700 500 649.55678 475 550 475 C 375.00018 475 300 575.0003 300 675 L 300 846.36719 C 239.56213 791.56448 200 703.60478 200 625 L 200 575 C 200 450.00013 300.00013 300 425 300 C 549.99987 300 600 350.00005 600 400 L 800 400 C 798.72784 301.65817 699.99973 200 425 200 z " /></g></svg>
