<?xml version="1.0" encoding="UTF-8" standalone="no"?>
<!-- Created with Inkscape (http://www.inkscape.org/) -->

<svg
   width="800"
   height="800"
   viewBox="0 0 800 800"
   version="1.1"
   id="svg1"
   inkscape:version="1.2.2 (732a01da63, 2022-12-09)"
   sodipodi:docname="8354_cruzeiro-sign.svg"
   xml:space="preserve"
   xmlns:inkscape="http://www.inkscape.org/namespaces/inkscape"
   xmlns:sodipodi="http://sodipodi.sourceforge.net/DTD/sodipodi-0.dtd"
   xmlns="http://www.w3.org/2000/svg"
   xmlns:svg="http://www.w3.org/2000/svg"><sodipodi:namedview
     id="namedview1"
     pagecolor="#ffffff"
     bordercolor="#000000"
     borderopacity="0.25"
     inkscape:showpageshadow="2"
     inkscape:pageopacity="0.0"
     inkscape:pagecheckerboard="0"
     inkscape:deskcolor="#d1d1d1"
     inkscape:document-units="px"
     showgrid="true"
     inkscape:zoom="1.602893"
     inkscape:cx="291.66014"
     inkscape:cy="409.88388"
     inkscape:window-width="1918"
     inkscape:window-height="2054"
     inkscape:window-x="-10"
     inkscape:window-y="0"
     inkscape:window-maximized="0"
     inkscape:current-layer="layer1"
     showguides="false"><inkscape:grid
       id="grid1"
       units="px"
       originx="0"
       originy="0"
       spacingx="25"
       spacingy="25"
       empcolor="#0099e5"
       empopacity="0.30196078"
       color="#0099e5"
       opacity="0.14901961"
       empspacing="4"
       dotted="false"
       gridanglex="30"
       gridanglez="30"
       visible="true" /></sodipodi:namedview><defs
     id="defs1" /><g
     inkscape:label="Layer 1"
     inkscape:groupmode="layer"
     id="layer1"><path
       id="path352-3-2-2"
       style="fill:#000000;fill-opacity:0.555319;fill-rule:evenodd;stroke:none;stroke-width:3px;stroke-linecap:butt;stroke-linejoin:miter;stroke-opacity:1"
       d="M 150 100 C 75.00031 100 0 175.00028 0 250 L 0 450 C 0 524.99971 75.00031 600 150 600 L 250 600 C 324.99972 600 400 549.99971 400 475 L 300 475 C 300 499.99992 274.99992 500 250 500 L 150 500 C 125.00008 500 100 474.99992 100 450 L 100 250 C 100 225.00008 125.00008 200 150 200 L 250 200 C 274.99992 200 300 200.00008 300 225 L 400 225 C 400 150.00028 324.99972 100 250 100 L 150 100 z " /><path
       id="path352-3-2-9"
       style="fill:#000000;fill-opacity:0.555319;fill-rule:evenodd;stroke:none;stroke-width:3px;stroke-linecap:butt;stroke-linejoin:miter;stroke-opacity:1"
       d="m 300,300 c -74.99955,0 -150,75.00021 -150,150 v 50 50 h 100 v -50 -50 c 0,-24.99988 25.00012,-50 50,-50 H 400 V 300 Z"
       sodipodi:nodetypes="ssccccssccs" /><path
       id="path352-3-2-2-1"
       style="fill:#000000;fill-opacity:0.555319;fill-rule:evenodd;stroke:none;stroke-width:3px;stroke-linecap:butt;stroke-linejoin:miter;stroke-opacity:1"
       d="M 150 100 C 75.000385 100 0 175.00035 0 250 L 0 450 C 0 524.99964 75.000385 600 150 600 L 250 600 C 324.99965 600 400 549.99964 400 475 L 300 475 C 300 499.9999 274.9999 500 250 500 L 250 450 C 250 425.00014 275.00014 400 300 400 L 400 400 L 400 300 L 300 300 C 225.00052 300 150 375.00028 150 450 L 150 500 C 125.0001 500 100 474.9999 100 450 L 100 250 C 100 225.0001 125.0001 200 150 200 L 250 200 C 274.9999 200 300 200.0001 300 225 L 400 225 C 400 150.00035 324.99965 100 250 100 L 150 100 z " /></g></svg>
