<?xml version="1.0" encoding="UTF-8" standalone="no"?>
<!-- Created with Inkscape (http://www.inkscape.org/) -->

<svg
   width="800"
   height="800"
   viewBox="0 0 800 800"
   version="1.1"
   id="svg1"
   inkscape:version="1.2.2 (732a01da63, 2022-12-09)"
   sodipodi:docname="8357_mill-sign.svg"
   xml:space="preserve"
   xmlns:inkscape="http://www.inkscape.org/namespaces/inkscape"
   xmlns:sodipodi="http://sodipodi.sourceforge.net/DTD/sodipodi-0.dtd"
   xmlns="http://www.w3.org/2000/svg"
   xmlns:svg="http://www.w3.org/2000/svg"><sodipodi:namedview
     id="namedview1"
     pagecolor="#ffffff"
     bordercolor="#000000"
     borderopacity="0.25"
     inkscape:showpageshadow="2"
     inkscape:pageopacity="0.0"
     inkscape:pagecheckerboard="0"
     inkscape:deskcolor="#d1d1d1"
     inkscape:document-units="px"
     showgrid="true"
     inkscape:zoom="1.602893"
     inkscape:cx="229.27295"
     inkscape:cy="409.88388"
     inkscape:window-width="1918"
     inkscape:window-height="2054"
     inkscape:window-x="0"
     inkscape:window-y="0"
     inkscape:window-maximized="0"
     inkscape:current-layer="layer1"
     showguides="false"><inkscape:grid
       id="grid1"
       units="px"
       originx="0"
       originy="0"
       spacingx="25"
       spacingy="25"
       empcolor="#0099e5"
       empopacity="0.30196078"
       color="#0099e5"
       opacity="0.14901961"
       empspacing="4"
       dotted="false"
       gridanglex="30"
       gridanglez="30"
       visible="true" /></sodipodi:namedview><defs
     id="defs1" /><g
     inkscape:label="Layer 1"
     inkscape:groupmode="layer"
     id="layer1"><path
       id="path352-3-2"
       style="fill:#000000;fill-opacity:0.555319;fill-rule:evenodd;stroke:none;stroke-width:3px;stroke-linecap:butt;stroke-linejoin:miter;stroke-opacity:1"
       d="M 0,200 V 600 H 100 V 300 h 25 c 49.99985,0 74.99999,18.23784 75,75 V 600 H 300 V 400 C 300,275.00037 224.99964,200 100,200 Z"
       sodipodi:nodetypes="ccccscccscc" /><path
       id="path352-3-2-7"
       style="fill:#000000;fill-opacity:0.555319;fill-rule:evenodd;stroke:none;stroke-width:3px;stroke-linecap:butt;stroke-linejoin:miter;stroke-opacity:1"
       d="M 200,300 V 600 H 300 V 375 c 0,-50 25,-75 50,-75 25,0 49.99999,18.23784 50,75 V 600 H 500 V 400 C 500,275.00037 425,200 300,200 197.57493,201.40307 200,300 200,300 Z"
       sodipodi:nodetypes="cccczcccscc" /><rect
       style="opacity:0.489888;fill:#000000;fill-opacity:0.555319;fill-rule:evenodd;stroke-width:100;stroke-linecap:round;stroke-linejoin:round;stroke-miterlimit:4.5;stop-color:#000000"
       id="rect1388"
       width="500"
       height="100"
       x="0"
       y="400" /><path
       id="path352-3-2-0"
       style="fill:#000000;fill-opacity:0.555319;fill-rule:evenodd;stroke:none;stroke-width:3px;stroke-linecap:butt;stroke-linejoin:miter;stroke-opacity:1"
       d="M 0 200 L 0 400 L 0 500 L 0 600 L 100 600 L 100 500 L 200 500 L 200 600 L 300 600 L 300 500 L 400 500 L 400 600 L 500 600 L 500 400 C 500 275.00049 424.99987 200 300 200 C 260.88513 200.53582 237.09305 215.25764 222.58594 233.23828 C 190.43207 211.61508 149.0934 200 100 200 L 0 200 z M 100 300 L 125 300 C 174.9998 300 199.99999 318.2379 200 375 L 200 400 L 100 400 L 100 300 z M 350 300 C 374.99998 300 399.99999 318.2379 400 375 L 400 400 L 300 400 L 300 375 C 300 325.00005 325.00002 300 350 300 z " /></g></svg>
