<?xml version="1.0" encoding="UTF-8" standalone="no"?>
<!-- Created with Inkscape (http://www.inkscape.org/) -->

<svg
   width="800"
   height="800"
   viewBox="0 0 800 800"
   version="1.1"
   id="svg1"
   inkscape:version="1.2.2 (732a01da63, 2022-12-09)"
   sodipodi:docname="8359_peseta-sign.svg"
   xml:space="preserve"
   xmlns:inkscape="http://www.inkscape.org/namespaces/inkscape"
   xmlns:sodipodi="http://sodipodi.sourceforge.net/DTD/sodipodi-0.dtd"
   xmlns="http://www.w3.org/2000/svg"
   xmlns:svg="http://www.w3.org/2000/svg"><sodipodi:namedview
     id="namedview1"
     pagecolor="#ffffff"
     bordercolor="#000000"
     borderopacity="0.25"
     inkscape:showpageshadow="2"
     inkscape:pageopacity="0.0"
     inkscape:pagecheckerboard="0"
     inkscape:deskcolor="#d1d1d1"
     inkscape:document-units="px"
     showgrid="true"
     inkscape:zoom="1.1334165"
     inkscape:cx="353.35642"
     inkscape:cy="334.38723"
     inkscape:window-width="1918"
     inkscape:window-height="2054"
     inkscape:window-x="-10"
     inkscape:window-y="0"
     inkscape:window-maximized="0"
     inkscape:current-layer="layer1"
     showguides="false"><inkscape:grid
       id="grid1"
       units="px"
       originx="0"
       originy="0"
       spacingx="25"
       spacingy="25"
       empcolor="#0099e5"
       empopacity="0.30196078"
       color="#0099e5"
       opacity="0.14901961"
       empspacing="4"
       dotted="false"
       gridanglex="30"
       gridanglez="30"
       visible="true" /></sodipodi:namedview><defs
     id="defs1" /><g
     inkscape:label="Layer 1"
     inkscape:groupmode="layer"
     id="layer1"><path
       id="path352-3"
       style="fill:#000000;fill-opacity:0.555319;fill-rule:evenodd;stroke:none;stroke-width:3px;stroke-linecap:butt;stroke-linejoin:miter;stroke-opacity:1"
       d="M 100,0 V 150 350 600 H 200 V 500 h 50 c 74.99972,0 150,-75.00028 150,-150 V 150 C 400,75.000285 324.99972,0 250,0 h -50 z m 100,100 h 50 c 24.99992,0 50,25.00008 50,50 v 200 c 0,24.99992 -25.00008,50 -50,50 H 200 V 350 150 Z"
       sodipodi:nodetypes="ccccccsssscccsssscccc" /><rect
       style="opacity:0.489888;fill:#000000;fill-opacity:0.555319;fill-rule:evenodd;stroke-width:115.47;stroke-linecap:round;stroke-linejoin:round;stroke-miterlimit:4.5;stop-color:#000000"
       id="rect3397"
       width="400"
       height="100"
       x="0"
       y="200" /><path
       id="path352-3-5"
       style="fill:#000000;fill-opacity:0.555319;fill-rule:evenodd;stroke:none;stroke-width:3px;stroke-linecap:butt;stroke-linejoin:miter;stroke-opacity:1"
       d="M 100 0 L 100 150 L 100 200 L 0 200 L 0 300 L 100 300 L 100 350 L 100 600 L 200 600 L 200 500 L 250 500 C 324.99965 500 400 424.99965 400 350 L 400 300 L 400 200 L 400 150 C 400 75.00036 324.99965 0 250 0 L 200 0 L 100 0 z M 200 100 L 250 100 C 274.9999 100 300 125.0001 300 150 L 300 200 L 200 200 L 200 150 L 200 100 z M 200 300 L 300 300 L 300 350 C 300 374.9999 274.9999 400 250 400 L 200 400 L 200 350 L 200 300 z " /></g></svg>
