<?xml version="1.0" encoding="UTF-8" standalone="no"?>
<!-- Created with Inkscape (http://www.inkscape.org/) -->

<svg
   width="1200"
   height="1200"
   viewBox="0 0 1200 1200"
   version="1.1"
   id="svg1"
   inkscape:version="1.2.2 (732a01da63, 2022-12-09)"
   sodipodi:docname="8360_rupeea-sign.svg"
   xml:space="preserve"
   xmlns:inkscape="http://www.inkscape.org/namespaces/inkscape"
   xmlns:sodipodi="http://sodipodi.sourceforge.net/DTD/sodipodi-0.dtd"
   xmlns="http://www.w3.org/2000/svg"
   xmlns:svg="http://www.w3.org/2000/svg"><sodipodi:namedview
     id="namedview1"
     pagecolor="#ffffff"
     bordercolor="#000000"
     borderopacity="0.25"
     inkscape:showpageshadow="2"
     inkscape:pageopacity="0.0"
     inkscape:pagecheckerboard="0"
     inkscape:deskcolor="#d1d1d1"
     inkscape:document-units="px"
     showgrid="true"
     inkscape:zoom="1.1116667"
     inkscape:cx="202.3988"
     inkscape:cy="484.85757"
     inkscape:window-width="3840"
     inkscape:window-height="2066"
     inkscape:window-x="-11"
     inkscape:window-y="-11"
     inkscape:window-maximized="1"
     inkscape:current-layer="layer1"
     showguides="false"><inkscape:grid
       id="grid1"
       units="px"
       originx="0"
       originy="0"
       spacingx="25"
       spacingy="25"
       empcolor="#0099e5"
       empopacity="0.30196078"
       color="#0099e5"
       opacity="0.14901961"
       empspacing="4"
       dotted="false"
       gridanglex="30"
       gridanglez="30"
       visible="true" /></sodipodi:namedview><defs
     id="defs1" /><g
     inkscape:label="Layer 1"
     inkscape:groupmode="layer"
     id="layer1"><path
       id="path2-8"
       style="fill:#000000;fill-opacity:0.555319;fill-rule:evenodd;stroke-width:0.999873"
       d="m 0,200 v 799.99995 h 199.99999 v -300 h 75 l 300,300 h 125 v -75 l -225,-225 c 119.3979,-2.9464 225,-134.417 225,-225 v -50 c 0,-99.99985 -75.0002,-224.99997 -250,-224.99995 h -250 z M 199.99999,599.99995 V 300 h 200 c 48.2848,0 100,50.00007 100,124.99995 v 50 c 0,75 -50,125 -100,125 z"
       sodipodi:nodetypes="cccccccccsssccccssscc" /><path
       id="path2-1"
       style="fill:#000000;fill-opacity:0.555319;fill-rule:evenodd;stroke-width:0.999873"
       d="M 1050,1000 C 875,1000 800,900 800,825 h 150 c 0,50 55.9177,75 100,75 50,0 75,-25 75,-50 0,-124.99998 -325,-149.99998 -325,-299.99998 0,-75 100,-150 250,-150 175,0 250,100 250,175 h -150 c 0,-50 -55.9177,-75 -100,-75 -50,0 -75,25 -75,50 0,125 328.8164,147.06977 325,299.99998 -1.7564,70.3786 -100,150 -250,150 z"
       sodipodi:nodetypes="cccssscccsssc" /></g></svg>
