<?xml version="1.0" encoding="UTF-8" standalone="no"?>
<!-- Created with Inkscape (http://www.inkscape.org/) -->

<svg
   width="800"
   height="800"
   viewBox="0 0 800 800"
   version="1.1"
   id="svg1"
   inkscape:version="1.2.2 (732a01da63, 2022-12-09)"
   sodipodi:docname="8364_euro-sign.svg"
   xml:space="preserve"
   xmlns:inkscape="http://www.inkscape.org/namespaces/inkscape"
   xmlns:sodipodi="http://sodipodi.sourceforge.net/DTD/sodipodi-0.dtd"
   xmlns="http://www.w3.org/2000/svg"
   xmlns:svg="http://www.w3.org/2000/svg"><sodipodi:namedview
     id="namedview1"
     pagecolor="#ffffff"
     bordercolor="#000000"
     borderopacity="0.25"
     inkscape:showpageshadow="2"
     inkscape:pageopacity="0.0"
     inkscape:pagecheckerboard="0"
     inkscape:deskcolor="#d1d1d1"
     inkscape:document-units="px"
     showgrid="true"
     inkscape:zoom="1.602893"
     inkscape:cx="167.50962"
     inkscape:cy="409.88388"
     inkscape:window-width="1918"
     inkscape:window-height="2054"
     inkscape:window-x="0"
     inkscape:window-y="0"
     inkscape:window-maximized="0"
     inkscape:current-layer="layer1"
     showguides="false"><inkscape:grid
       id="grid1"
       units="px"
       originx="0"
       originy="0"
       spacingx="25"
       spacingy="25"
       empcolor="#0099e5"
       empopacity="0.30196078"
       color="#0099e5"
       opacity="0.14901961"
       empspacing="4"
       dotted="false"
       gridanglex="30"
       gridanglez="30"
       visible="true" /></sodipodi:namedview><defs
     id="defs1" /><g
     inkscape:label="Layer 1"
     inkscape:groupmode="layer"
     id="layer1"><path
       id="rect18442"
       style="fill:#000000;fill-opacity:0.555319;fill-rule:evenodd;stroke:none;stroke-width:100;stroke-linecap:round;stroke-linejoin:round;stroke-miterlimit:4.5;stop-color:#000000"
       d="m 0,275 350,-10e-6 V 200 l -350,1e-5 z M 0,425 H 300 V 350 H 0 Z"
       sodipodi:nodetypes="cccccccccc" /><path
       id="path352-3-2"
       style="fill:#000000;fill-opacity:0.555319;fill-rule:evenodd;stroke:none;stroke-width:3px;stroke-linecap:butt;stroke-linejoin:miter;stroke-opacity:1"
       d="M 250,1e-5 C 175.00007,1e-5 100,75.00007 100,150 v 300 c 0,74.99992 75.00007,150 150,150 74.99993,0 150,-50.00008 150,-125 H 300 c 0,24.99998 -25.00002,25 -50,25 -24.99998,0 -50,-25.00002 -50,-50 V 150 c 0,-24.99998 25.00002,-50 50,-50 24.99998,0 50,2e-5 50,25 H 400 C 400,50.00007 324.99993,1e-5 250,1e-5 Z"
       sodipodi:nodetypes="ssssccssssccs" /><path
       id="rect18442-2"
       style="fill:#000000;fill-opacity:0.555319;fill-rule:evenodd;stroke:none;stroke-width:100;stroke-linecap:round;stroke-linejoin:round;stroke-miterlimit:4.5;stop-color:#000000"
       d="M 250 0 C 175.00014 0 100 75.000145 100 150 L 100 200 L 0 200 L 0 275 L 100 275 L 100 350 L 0 350 L 0 425 L 100 425 L 100 450 C 100 524.99985 175.00014 600 250 600 C 324.99986 600 400 549.99985 400 475 L 300 475 C 300 499.99996 274.99996 500 250 500 C 225.00004 500 200 474.99996 200 450 L 200 425 L 300 425 L 300 350 L 200 350 L 200 275 L 350 275 L 350 200 L 200 200 L 200 150 C 200 125.00004 225.00004 100 250 100 C 274.99996 100 300 100.00004 300 125 L 400 125 C 400 50.000145 324.99986 1.8947787e-14 250 0 z " /></g></svg>
