<?xml version="1.0" encoding="UTF-8" standalone="no"?>
<!-- Created with Inkscape (http://www.inkscape.org/) -->

<svg
   width="800"
   height="800"
   viewBox="0 0 800 800"
   version="1.1"
   id="svg1"
   inkscape:version="1.2.2 (732a01da63, 2022-12-09)"
   sodipodi:docname="8368_german-penny-sign.svg"
   xml:space="preserve"
   xmlns:inkscape="http://www.inkscape.org/namespaces/inkscape"
   xmlns:sodipodi="http://sodipodi.sourceforge.net/DTD/sodipodi-0.dtd"
   xmlns="http://www.w3.org/2000/svg"
   xmlns:svg="http://www.w3.org/2000/svg"><sodipodi:namedview
     id="namedview1"
     pagecolor="#ffffff"
     bordercolor="#000000"
     borderopacity="0.25"
     inkscape:showpageshadow="2"
     inkscape:pageopacity="0.0"
     inkscape:pagecheckerboard="0"
     inkscape:deskcolor="#d1d1d1"
     inkscape:document-units="px"
     showgrid="true"
     inkscape:zoom="1.1534679"
     inkscape:cx="382.7588"
     inkscape:cy="540.11037"
     inkscape:window-width="1918"
     inkscape:window-height="2054"
     inkscape:window-x="0"
     inkscape:window-y="0"
     inkscape:window-maximized="0"
     inkscape:current-layer="layer1-4"
     showguides="false"><inkscape:grid
       id="grid1"
       units="px"
       originx="0"
       originy="0"
       spacingx="25"
       spacingy="25"
       empcolor="#0099e5"
       empopacity="0.30196078"
       color="#0099e5"
       opacity="0.14901961"
       empspacing="4"
       dotted="false"
       gridanglex="30"
       gridanglez="30"
       visible="true" /></sodipodi:namedview><defs
     id="defs1" /><g
     inkscape:label="Layer 1"
     inkscape:groupmode="layer"
     id="layer1"><g
       inkscape:label="Layer 1"
       id="layer1-4"
       transform="translate(200)"><path
         id="path352-3-3"
         style="fill:#000000;fill-opacity:0.555319;fill-rule:evenodd;stroke:none;stroke-width:3px;stroke-linecap:butt;stroke-linejoin:miter;stroke-opacity:1"
         d="M 50 0 C -24.999855 0 -100 75.000145 -100 150 C -103.08268 322.7724 95.172665 310.00748 100 450 L 100 550 C 100 574.99994 74.99992 600 50 600 C 25.00007 600 0 599.99994 0 575 L -100 575 C -100 649.99978 -24.99978 700 50 700 C 124.99979 700 200 624.99978 200 550 L 200 450 C 203.08268 277.22759 4.8273352 289.99252 0 150 C 0 125.00004 25.000045 100 50 100 C 74.999945 100 99.80704 103.37339 100 125 L 200 125 C 200 50.000145 124.99986 0 50 0 z " /><path
         style="fill:#000000;stroke:none;stroke-width:1px;stroke-linecap:butt;stroke-linejoin:miter;stroke-opacity:1;fill-opacity:0.55531901"
         d="m -200,400 h 50 L 100,150 v -25 h 100 v 75 l -300,300 h -100 z"
         id="path31886" /><path
         id="path352-3-3-7"
         style="fill:#000000;fill-opacity:0.555319;fill-rule:evenodd;stroke:none;stroke-width:3px;stroke-linecap:butt;stroke-linejoin:miter;stroke-opacity:1"
         d="M 50 0 C -24.99978 0 -100 75.00022 -100 150 C -101.18807 216.58652 -72.438533 255.5789 -36.414062 286.41406 L -150 400 L -200 400 L -200 500 L -100 500 L 48.673828 351.32617 C 76.980774 375.95522 98.452167 405.11292 100 450 L 100 550 C 100 574.99992 74.999895 600 50 600 C 25.000095 600 0 599.99992 0 575 L -100 575 C -100 649.99971 -24.999705 700 50 700 C 124.99972 700 200 624.99971 200 550 L 200 450 C 201.48565 366.73513 156.17449 326.62342 108.32227 291.67773 L 200 200 L 200 125 C 200 50.00022 124.99979 0 50 0 z M 50 100 C 74.99992 100 99.80704 103.37341 100 125 L 100 150 L 26.681641 223.31836 C 11.316319 203.80609 1.0530951 180.53971 0 150 C 0 125.00006 25.00007 100 50 100 z " /></g></g></svg>
