<?xml version="1.0" encoding="UTF-8" standalone="no"?>
<!-- Created with Inkscape (http://www.inkscape.org/) -->

<svg
   width="1200"
   height="1200"
   viewBox="0 0 1200 1200"
   version="1.1"
   id="svg1"
   inkscape:version="1.2.2 (732a01da63, 2022-12-09)"
   sodipodi:docname="8372_hryvnia-sign.svg"
   xml:space="preserve"
   xmlns:inkscape="http://www.inkscape.org/namespaces/inkscape"
   xmlns:sodipodi="http://sodipodi.sourceforge.net/DTD/sodipodi-0.dtd"
   xmlns="http://www.w3.org/2000/svg"
   xmlns:svg="http://www.w3.org/2000/svg"><sodipodi:namedview
     id="namedview1"
     pagecolor="#ffffff"
     bordercolor="#000000"
     borderopacity="0.25"
     inkscape:showpageshadow="2"
     inkscape:pageopacity="0.0"
     inkscape:pagecheckerboard="0"
     inkscape:deskcolor="#d1d1d1"
     inkscape:document-units="px"
     showgrid="true"
     inkscape:zoom="1.1116667"
     inkscape:cx="418.29085"
     inkscape:cy="772.71364"
     inkscape:window-width="3840"
     inkscape:window-height="2066"
     inkscape:window-x="-11"
     inkscape:window-y="-11"
     inkscape:window-maximized="1"
     inkscape:current-layer="layer1"
     showguides="false"><inkscape:grid
       id="grid1"
       units="px"
       originx="0"
       originy="0"
       spacingx="25"
       spacingy="25"
       empcolor="#0099e5"
       empopacity="0.30196078"
       color="#0099e5"
       opacity="0.14901961"
       empspacing="4"
       dotted="false"
       gridanglex="30"
       gridanglez="30"
       visible="true" /></sodipodi:namedview><defs
     id="defs1" /><g
     inkscape:label="Layer 1"
     inkscape:groupmode="layer"
     id="layer1"><rect
       style="fill:#000000;fill-opacity:0.555319;fill-rule:evenodd;stroke:none;stroke-width:3.77124;stroke-linecap:square;stroke-linejoin:bevel;stroke-miterlimit:4.5;stroke-opacity:0.56;stop-color:#000000"
       id="rect54139"
       width="800"
       height="100"
       x="0"
       y="400" /><rect
       style="fill:#000000;fill-opacity:0.555319;fill-rule:evenodd;stroke:none;stroke-width:3.77124;stroke-linecap:square;stroke-linejoin:bevel;stroke-miterlimit:4.5;stroke-opacity:0.56;stop-color:#000000"
       id="rect54139-5"
       width="800"
       height="100"
       x="0"
       y="600" /><path
       id="path2-5"
       style="fill:#000000;fill-opacity:0.555319;fill-rule:evenodd;stroke-width:0.999873"
       d="M 700,400 C 700,249.61409 524.99998,200 399.99998,200 199.99998,200 100,275 100,325 h 200 c 0,-25 50,-25 99.99998,-25 75.42882,0 100,50 100,100 0,200 -400,100 -400,400.00001 0,150 175,199.99999 300,199.99999 C 600,1000 701.7991,932.72114 700,875 H 499.99998 c 2e-5,25 -51.12966,24.83116 -100,25.00001 -75.42837,0.26061 -100,-50 -100,-100 C 299.99998,600 700,700.00001 700,400 Z"
       sodipodi:nodetypes="ssccsscsccscs" /><path
       id="rect54139-4"
       style="fill:#000000;fill-opacity:0.555319;fill-rule:evenodd;stroke:none;stroke-width:3.77124;stroke-linecap:square;stroke-linejoin:bevel;stroke-miterlimit:4.5;stroke-opacity:0.56;stop-color:#000000"
       d="M 400 200 C 200.0002 200 100 275.00005 100 325 L 300 325 C 300 300.00002 350.00007 300 400 300 C 475.42874 300 500 350.00005 500 400 L 0 400 L 0 500 L 444.37109 500 C 385.67304 540.07836 291.5662 557.54918 216.43359 600 L 0 600 L 0 700 L 119.36914 700 C 107.11781 727.38266 100 760.1313 100 800 C 100 949.99985 275.00013 1000 400 1000 C 599.99982 1000 701.7991 932.72108 700 875 L 500 875 C 500.00002 899.99997 448.87029 899.83115 400 900 C 324.57171 900.26061 300 849.99995 300 800 C 300 753.19303 322.06399 722.91661 355.62695 700 L 800 700 L 800 600 L 583.56641 600 C 624.64147 576.79195 660.00248 546.10599 680.63086 500 L 800 500 L 800 400 L 700 400 C 700 249.61424 524.99987 200 400 200 z " /></g></svg>
