<?xml version="1.0" encoding="UTF-8" standalone="no"?>
<!-- Created with Inkscape (http://www.inkscape.org/) -->

<svg
   width="800"
   height="800"
   viewBox="0 0 800 800"
   version="1.1"
   id="svg1"
   inkscape:version="1.2.2 (732a01da63, 2022-12-09)"
   sodipodi:docname="8372_hryvnia-sign.svg"
   xml:space="preserve"
   xmlns:inkscape="http://www.inkscape.org/namespaces/inkscape"
   xmlns:sodipodi="http://sodipodi.sourceforge.net/DTD/sodipodi-0.dtd"
   xmlns="http://www.w3.org/2000/svg"
   xmlns:svg="http://www.w3.org/2000/svg"><sodipodi:namedview
     id="namedview1"
     pagecolor="#ffffff"
     bordercolor="#000000"
     borderopacity="0.25"
     inkscape:showpageshadow="2"
     inkscape:pageopacity="0.0"
     inkscape:pagecheckerboard="0"
     inkscape:deskcolor="#d1d1d1"
     inkscape:document-units="px"
     showgrid="true"
     inkscape:zoom="1.1334165"
     inkscape:cx="265.1276"
     inkscape:cy="334.38723"
     inkscape:window-width="1918"
     inkscape:window-height="2054"
     inkscape:window-x="0"
     inkscape:window-y="0"
     inkscape:window-maximized="0"
     inkscape:current-layer="layer1"
     showguides="false"><inkscape:grid
       id="grid1"
       units="px"
       originx="0"
       originy="0"
       spacingx="25"
       spacingy="25"
       empcolor="#0099e5"
       empopacity="0.30196078"
       color="#0099e5"
       opacity="0.14901961"
       empspacing="4"
       dotted="false"
       gridanglex="30"
       gridanglez="30"
       visible="true" /></sodipodi:namedview><defs
     id="defs1" /><g
     inkscape:label="Layer 1"
     inkscape:groupmode="layer"
     id="layer1"><path
       id="path352-3-3"
       style="fill:#000000;fill-opacity:0.555319;fill-rule:evenodd;stroke:none;stroke-width:3px;stroke-linecap:butt;stroke-linejoin:miter;stroke-opacity:1"
       d="m 250,0 c 74.99993,0 150,75.00007 150,150 3.08268,172.77257 -195.17266,160.00734 -200,300 0,24.99998 25.00003,50 50,50 24.99998,0 50,-2e-5 50,-25 h 100 c 0,74.99992 -75.00007,125 -150,125 -74.99993,0 -150,-75.00008 -150,-150 -3.082678,-172.77258 195.17266,-160.00734 200,-300 0,-24.99998 -25.00002,-50 -50,-50 -24.99997,0 -49.80704,3.37337 -50,25 H 100 C 100,50.00007 175.00007,0 250,0 Z"
       sodipodi:nodetypes="sccsccsccsccs" /><path
       style="fill:#000000;fill-opacity:0.555319;fill-rule:evenodd;stroke:none;stroke-width:111.803;stroke-linecap:round;stroke-linejoin:round;stroke-miterlimit:4.5;stop-color:#000000"
       d="M 0,425 H 500 V 350 H 0 Z"
       id="path1724" /><path
       style="fill:#000000;fill-opacity:0.555319;fill-rule:evenodd;stroke:none;stroke-width:111.803;stroke-linecap:round;stroke-linejoin:round;stroke-miterlimit:4.5;stop-color:#000000"
       d="M 0,275 H 500 V 200 H 0 Z"
       id="rect18442" /><path
       id="path352-3-3-0"
       style="fill:#000000;fill-opacity:0.555319;fill-rule:evenodd;stroke:none;stroke-width:3px;stroke-linecap:butt;stroke-linejoin:miter;stroke-opacity:1"
       d="M 250 0 C 175.00014 0 100 50.000145 100 125 L 200 125 C 200.19296 103.37339 225.00005 100 250 100 C 274.99996 100 300 125.00004 300 150 C 299.33452 169.29903 294.89541 185.62089 287.91211 200 L 0 200 L 0 275 L 214.75 275 C 184.20033 297.00703 151.78762 318.65799 129.2207 350 L 0 350 L 0 425 L 101.17969 425 C 100.33562 432.91585 99.842229 441.15752 100 450 C 100 524.99985 175.00014 600 250 600 C 324.99986 600 400 549.99985 400 475 L 300 475 C 300 499.99996 274.99996 500 250 500 C 225.00005 500 200 474.99996 200 450 C 200.30796 441.06924 201.42326 432.77522 203.20312 425 L 500 425 L 500 350 L 252.87695 350 C 282.6323 324.50003 319.52712 303.67057 348.9707 275 L 500 275 L 500 200 L 394.2832 200 C 398.18346 185.19261 400.33441 168.74227 400 150 C 400 75.000145 324.99986 0 250 0 z " /></g></svg>
