<?xml version="1.0" encoding="UTF-8" standalone="no"?>
<!-- Created with Inkscape (http://www.inkscape.org/) -->

<svg
   width="800"
   height="800"
   viewBox="0 0 800 800"
   version="1.1"
   id="svg1"
   inkscape:version="1.2.2 (732a01da63, 2022-12-09)"
   sodipodi:docname="8373_cedi-sign.svg"
   xml:space="preserve"
   xmlns:inkscape="http://www.inkscape.org/namespaces/inkscape"
   xmlns:sodipodi="http://sodipodi.sourceforge.net/DTD/sodipodi-0.dtd"
   xmlns="http://www.w3.org/2000/svg"
   xmlns:svg="http://www.w3.org/2000/svg"><sodipodi:namedview
     id="namedview1"
     pagecolor="#ffffff"
     bordercolor="#000000"
     borderopacity="0.25"
     inkscape:showpageshadow="2"
     inkscape:pageopacity="0.0"
     inkscape:pagecheckerboard="0"
     inkscape:deskcolor="#d1d1d1"
     inkscape:document-units="px"
     showgrid="true"
     inkscape:zoom="1.602893"
     inkscape:cx="229.27295"
     inkscape:cy="409.88388"
     inkscape:window-width="1918"
     inkscape:window-height="2054"
     inkscape:window-x="0"
     inkscape:window-y="0"
     inkscape:window-maximized="0"
     inkscape:current-layer="layer1"
     showguides="false"><inkscape:grid
       id="grid1"
       units="px"
       originx="0"
       originy="0"
       spacingx="25"
       spacingy="25"
       empcolor="#0099e5"
       empopacity="0.30196078"
       color="#0099e5"
       opacity="0.14901961"
       empspacing="4"
       dotted="false"
       gridanglex="30"
       gridanglez="30"
       visible="true" /></sodipodi:namedview><defs
     id="defs1" /><g
     inkscape:label="Layer 1"
     inkscape:groupmode="layer"
     id="layer1"><path
       id="path352-3-2-2"
       style="fill:#000000;fill-opacity:0.555319;fill-rule:evenodd;stroke:none;stroke-width:3px;stroke-linecap:butt;stroke-linejoin:miter;stroke-opacity:1"
       d="M 150,100 C 75.00031,100 0,175.00028 0,250 v 200 c 0,74.99971 75.00031,150 150,150 h 200 c 74.99972,0 150,-50.00029 150,-125 H 400 c 0,24.99992 -25.00008,25 -50,25 H 150 c -24.99992,0 -50,-25.00008 -50,-50 V 250 c 0,-24.99992 25.00008,-50 50,-50 h 200 c 24.99992,0 50,8e-5 50,25 H 500 C 500,150.00028 424.99972,100 350,100 Z"
       sodipodi:nodetypes="sssssccssssssccss" /><rect
       style="opacity:0.489888;fill:#000000;fill-opacity:0.555319;fill-rule:evenodd;stroke-width:100;stroke-linecap:round;stroke-linejoin:round;stroke-miterlimit:4.5;stop-color:#000000"
       id="rect17045"
       width="100"
       height="700"
       x="200"
       y="0" /><path
       id="path352-3-2-2-4"
       style="fill:#000000;fill-opacity:0.555319;fill-rule:evenodd;stroke:none;stroke-width:3px;stroke-linecap:butt;stroke-linejoin:miter;stroke-opacity:1"
       d="M 200 0 L 200 100 L 150 100 C 75.000385 100 0 175.00035 0 250 L 0 450 C 0 524.99964 75.000385 600 150 600 L 200 600 L 200 700 L 300 700 L 300 600 L 350 600 C 424.99965 600 500 549.99964 500 475 L 400 475 C 400 499.9999 374.9999 500 350 500 L 300 500 L 300 200 L 350 200 C 374.9999 200 400 200.0001 400 225 L 500 225 C 500 150.00035 424.99965 100 350 100 L 300 100 L 300 0 L 200 0 z M 150 200 L 200 200 L 200 500 L 150 500 C 125.0001 500 100 474.9999 100 450 L 100 250 C 100 225.0001 125.0001 200 150 200 z " /></g></svg>
