<?xml version="1.0" encoding="UTF-8" standalone="no"?>
<!-- Created with Inkscape (http://www.inkscape.org/) -->

<svg
   width="1200"
   height="1200"
   viewBox="0 0 1200 1200"
   version="1.1"
   id="svg1"
   inkscape:version="1.2.2 (732a01da63, 2022-12-09)"
   sodipodi:docname="8373_cedi-sign.svg"
   xml:space="preserve"
   xmlns:inkscape="http://www.inkscape.org/namespaces/inkscape"
   xmlns:sodipodi="http://sodipodi.sourceforge.net/DTD/sodipodi-0.dtd"
   xmlns="http://www.w3.org/2000/svg"
   xmlns:svg="http://www.w3.org/2000/svg"><sodipodi:namedview
     id="namedview1"
     pagecolor="#ffffff"
     bordercolor="#000000"
     borderopacity="0.25"
     inkscape:showpageshadow="2"
     inkscape:pageopacity="0.0"
     inkscape:pagecheckerboard="0"
     inkscape:deskcolor="#d1d1d1"
     inkscape:document-units="px"
     showgrid="true"
     inkscape:zoom="1.1116667"
     inkscape:cx="418.29085"
     inkscape:cy="772.71364"
     inkscape:window-width="3840"
     inkscape:window-height="2066"
     inkscape:window-x="-11"
     inkscape:window-y="-11"
     inkscape:window-maximized="1"
     inkscape:current-layer="layer1"
     showguides="false"><inkscape:grid
       id="grid1"
       units="px"
       originx="0"
       originy="0"
       spacingx="25"
       spacingy="25"
       empcolor="#0099e5"
       empopacity="0.30196078"
       color="#0099e5"
       opacity="0.14901961"
       empspacing="4"
       dotted="false"
       gridanglex="30"
       gridanglez="30"
       visible="true" /></sodipodi:namedview><defs
     id="defs1" /><g
     inkscape:label="Layer 1"
     inkscape:groupmode="layer"
     id="layer1"><path
       id="path2"
       style="fill:#000000;fill-opacity:0.555319;fill-rule:evenodd;stroke-width:0.999873"
       d="M 800,400 C 798.7278,301.65807 700,200 424.99996,200 c -225,0 -425,175 -425,374.99999 v 50 c 0,200 200,375 425,375 275.00004,0 375.00004,-100 375.00004,-200 H 600 c 0,50 -50.44316,101.2722 -175.00004,100 -124.99348,-1.2766 -225,-150 -225,-275 v -50 C 199.99996,450 299.99996,300 424.99996,300 549.99996,300 600,350 600,400 Z"
       sodipodi:nodetypes="cssssccsssscc" /><rect
       style="fill:#000000;fill-opacity:0.555319;fill-rule:evenodd;stroke:none;stroke-width:4;stroke-linecap:square;stroke-linejoin:bevel;stroke-miterlimit:4.5;stroke-opacity:0.56;stop-color:#000000"
       id="rect60890"
       width="200"
       height="1000"
       x="300"
       y="100" /><path
       id="path2-8"
       style="fill:#000000;fill-opacity:0.555319;fill-rule:evenodd;stroke-width:0.999873"
       d="M 300 100 L 300 218.16602 C 130.88963 267.83435 0 413.21579 0 575 L 0 625 C 0 786.78421 130.88963 932.16565 300 981.83398 L 300 1100 L 500 1100 L 500 997.25391 C 718.38765 980.60726 800 890.31505 800 800 L 600 800 C 600 838.37384 570.12472 877.40113 500 892.94531 L 500 307.53516 C 570.33151 323.28112 600 361.59384 600 400 L 800 400 C 798.85107 311.18681 718.17316 219.6921 500 202.79102 L 500 100 L 300 100 z M 300 353.07031 L 300 846.36719 C 239.56213 791.56448 200 703.60478 200 625 L 200 575 C 200 496.39443 239.56139 407.93018 300 353.07031 z " /></g></svg>
