<?xml version="1.0" encoding="UTF-8" standalone="no"?>
<!-- Created with Inkscape (http://www.inkscape.org/) -->

<svg
   width="1200"
   height="1200"
   viewBox="0 0 1200 1200"
   version="1.1"
   id="svg1"
   inkscape:version="1.2.2 (732a01da63, 2022-12-09)"
   sodipodi:docname="8375_spesmilo-sign.svg"
   xml:space="preserve"
   xmlns:inkscape="http://www.inkscape.org/namespaces/inkscape"
   xmlns:sodipodi="http://sodipodi.sourceforge.net/DTD/sodipodi-0.dtd"
   xmlns="http://www.w3.org/2000/svg"
   xmlns:svg="http://www.w3.org/2000/svg"><sodipodi:namedview
     id="namedview1"
     pagecolor="#ffffff"
     bordercolor="#000000"
     borderopacity="0.25"
     inkscape:showpageshadow="2"
     inkscape:pageopacity="0.0"
     inkscape:pagecheckerboard="0"
     inkscape:deskcolor="#d1d1d1"
     inkscape:document-units="px"
     showgrid="true"
     inkscape:zoom="1.1116667"
     inkscape:cx="426.38681"
     inkscape:cy="630.58471"
     inkscape:window-width="3840"
     inkscape:window-height="2066"
     inkscape:window-x="-11"
     inkscape:window-y="-11"
     inkscape:window-maximized="1"
     inkscape:current-layer="layer1"
     showguides="false"><inkscape:grid
       id="grid1"
       units="px"
       originx="0"
       originy="0"
       spacingx="25"
       spacingy="25"
       empcolor="#0099e5"
       empopacity="0.30196078"
       color="#0099e5"
       opacity="0.14901961"
       empspacing="4"
       dotted="false"
       gridanglex="30"
       gridanglez="30"
       visible="true" /></sodipodi:namedview><defs
     id="defs1" /><g
     inkscape:label="Layer 1"
     inkscape:groupmode="layer"
     id="layer1"><path
       id="path2-5"
       style="fill:#000000;fill-opacity:0.555319;fill-rule:evenodd;stroke-width:0.999873"
       d="m 700,900 c 73.58681,1.0538 100,-50 100,-100 0,-200.00004 -400,-100.00004 -400,-400.00004 0,-150.38591 175,-200 300,-200 200,0 298.7278,101.65807 300,200 H 800 c 0,-50 -25.04268,-102.52985 -100,-100 -75.38591,2.54431 -100,50 -100,100 0,200 400,100 400,400.00004 0,150 -175,199.99996 -300,199.99996"
       sodipodi:nodetypes="ccssccsscc" /><path
       id="path2"
       style="fill:#000000;fill-opacity:0.555319;fill-rule:evenodd;stroke-width:0.999873"
       d="m 200,700 v 400 H 300 V 800.00003 c 48.28467,0 100,50.00008 100,125 V 1100 H 500 V 925.00003 c 0,-37.23309 -10.41697,-77.89927 -32.50195,-114.29883 11.30188,-6.49526 22.4141,-10.6811 32.50195,-10.67578 49.99995,0.0263 100,50.00008 100,125 V 1100.0254 L 700,1100 V 925.00002 c 0,-99.9999 -75,-224.99999 -225,-224.99999 -25,0 -50.89955,16.1919 -70.79297,43.71484 C 365.59457,717.17112 314.63835,700.0682 250,700.00003"
       sodipodi:nodetypes="ccccsccscssccsccc" /><path
       style="fill:#000000;stroke:none;stroke-width:1px;stroke-linecap:butt;stroke-linejoin:miter;stroke-opacity:1;fill-opacity:0.55531901"
       d="M 700,900 H 150 c 0,0 -50,0 -50,-50 0,-50 50,-50 50,-50 h 50 V 700 h -50 c 0,0 -150,0 -150,150 0,150 150,150 150,150 h 550 z"
       id="path66051" /><path
       id="path2-5-7"
       style="fill:#000000;fill-opacity:0.555319;fill-rule:evenodd;stroke-width:0.999873"
       d="M 700 200 C 575.00013 200 400 249.61424 400 400 C 400 699.9997 800 600.00016 800 800 C 800 849.99995 773.58674 901.0538 700 900 L 698.43945 900 C 687.16029 805.35448 612.71449 700 475 700 C 450.00002 700 424.10043 716.19193 404.20703 743.71484 C 365.59461 717.17112 314.63829 700.06817 250 700 L 200 700 L 150 700 C 150 700 0 700.00015 0 850 C 0 999.99985 150 1000 150 1000 L 200 1000 L 200 1100 L 300 1100 L 300 1000 L 400 1000 L 400 1100 L 500 1100 L 500 1000 L 600 1000 L 600 1100.0254 L 700 1100 L 700 1000 C 824.99987 1000 1000 949.99985 1000 800 C 1000 500.00026 600 599.9998 600 400 C 600 350.00005 624.61417 302.54431 700 300 C 774.95725 297.47015 800 350.00005 800 400 L 1000 400 C 998.7278 301.65817 899.9998 200 700 200 z M 150 800 L 200 800 L 200 900 L 150 900 C 150 900 100 899.99995 100 850 C 100 800.00005 150 800 150 800 z M 300 800 C 342.68637 800 387.98733 839.1179 397.93359 900 L 300 900 L 300 800 z M 500 800.02539 C 544.19632 800.04864 588.32772 839.13762 597.99219 900 L 498.38281 900 C 494.76107 870.06892 484.72539 839.09458 467.49805 810.70117 C 478.79992 804.20592 489.91216 800.02007 500 800.02539 z " /></g></svg>
