<?xml version="1.0" encoding="UTF-8" standalone="no"?>
<!-- Created with Inkscape (http://www.inkscape.org/) -->

<svg
   width="800"
   height="800"
   viewBox="0 0 800 800"
   version="1.1"
   id="svg1"
   inkscape:version="1.2.2 (732a01da63, 2022-12-09)"
   sodipodi:docname="8375_spesmilo-sign.svg"
   xml:space="preserve"
   xmlns:inkscape="http://www.inkscape.org/namespaces/inkscape"
   xmlns:sodipodi="http://sodipodi.sourceforge.net/DTD/sodipodi-0.dtd"
   xmlns="http://www.w3.org/2000/svg"
   xmlns:svg="http://www.w3.org/2000/svg"><sodipodi:namedview
     id="namedview1"
     pagecolor="#ffffff"
     bordercolor="#000000"
     borderopacity="0.25"
     inkscape:showpageshadow="2"
     inkscape:pageopacity="0.0"
     inkscape:pagecheckerboard="0"
     inkscape:deskcolor="#d1d1d1"
     inkscape:document-units="px"
     showgrid="true"
     inkscape:zoom="1.63125"
     inkscape:cx="337.47126"
     inkscape:cy="505.1341"
     inkscape:window-width="1918"
     inkscape:window-height="2054"
     inkscape:window-x="0"
     inkscape:window-y="0"
     inkscape:window-maximized="0"
     inkscape:current-layer="layer1"
     showguides="false"><inkscape:grid
       id="grid1"
       units="px"
       originx="0"
       originy="0"
       spacingx="25"
       spacingy="25"
       empcolor="#0099e5"
       empopacity="0.30196078"
       color="#0099e5"
       opacity="0.14901961"
       empspacing="4"
       dotted="false"
       gridanglex="30"
       gridanglez="30"
       visible="true" /></sodipodi:namedview><defs
     id="defs1" /><g
     inkscape:label="Layer 1"
     inkscape:groupmode="layer"
     id="layer1"><path
       id="path2"
       style="fill:#000000;fill-opacity:0.555319;fill-rule:evenodd;stroke-width:0.499936"
       d="m 100,450 v 200 h 50 V 500 c 24.14233,0 50,25 50,62.5 V 650 h 50 v -87.5 c 0,-18.6166 0,-37.5 -25,-62.5 l 25,0.013 c 24.99997,0.013 50,25 50,62.5 v 87.5 L 350,650 V 562.5 C 350,512.5 312.5,450 237.5,450"
       sodipodi:nodetypes="ccccsccsccsccsc" /><path
       style="fill:#000000;fill-opacity:0.555319;stroke:none;stroke-width:0.5px;stroke-linecap:butt;stroke-linejoin:miter;stroke-opacity:1"
       d="m 350,500 -50,50 H 75 c 0,0 -25,0 -25,-25 0,-25 25,-25 25,-25 h 25 V 450 H 75 c 0,0 -75,0 -75,75 0,75 75,75 75,75 h 275 v 0"
       id="path66051"
       sodipodi:nodetypes="ccsccccscccc" /><path
       id="path352-3-3"
       style="fill:#000000;fill-opacity:0.555319;fill-rule:evenodd;stroke:none;stroke-width:3px;stroke-linecap:butt;stroke-linejoin:miter;stroke-opacity:1"
       d="m 350,600 c 74.99993,0 150,-75.00008 150,-150 0,-74.99993 -75.00007,-150 -150,-150 -24.99998,0 -50,-25.00002 -50,-50 0,-24.99998 25.00002,-50 50,-50 24.99997,0 49.80704,3.37337 50,25 h 100 c 0,-74.99993 -75.00007,-125 -150,-125 -74.99993,0 -150,75.00007 -150,150 0,74.99993 75.00007,150 150,150 24.99997,0 50,25.00002 50,50 0,24.99998 -25.00003,50 -50,50"
       sodipodi:nodetypes="cssssccssssc" /><path
       id="path2-8"
       style="fill:#000000;fill-opacity:0.555319;fill-rule:evenodd;stroke-width:0.499936"
       d="M 350 100 C 275.00014 100 200 175.00014 200 250 C 200 324.99986 275.00014 400 350 400 C 374.99995 400 400 425.00004 400 450 C 400 474.99996 374.99995 500 350 500 L 337.93945 512.06055 C 321.43235 478.31063 287.96976 450 237.5 450 L 100 450 L 75 450 C 75 450 0 450.00007 0 525 C 0 599.99992 75 600 75 600 L 100 600 L 100 650 L 150 650 L 150 600 L 200 600 L 200 650 L 250 650 L 250 600 L 300 600 L 300 650.01367 L 350 650 L 350 600 C 424.99986 600 500 524.99985 500 450 C 500 375.00014 424.99986 300 350 300 C 325.00004 300 300 274.99996 300 250 C 300 225.00004 325.00004 200 350 200 C 374.99995 200 399.80704 203.37339 400 225 L 500 225 C 500 150.00014 424.99986 100 350 100 z M 75 500 L 100 500 L 100 550 L 75 550 C 75 550 50 549.99997 50 525 C 50 500.00002 75 500 75 500 z M 150 500 C 171.34334 500 193.99389 519.55854 198.9668 550 L 150 550 L 150 500 z M 225 500 L 250 500.01367 C 272.09835 500.02516 294.16412 519.5683 298.99609 550 L 249.6875 550 C 248.73071 535.19584 244.45601 519.45601 225 500 z " /></g></svg>
