<?xml version="1.0" encoding="UTF-8" standalone="no"?>
<!-- Created with Inkscape (http://www.inkscape.org/) -->

<svg
   width="800"
   height="800"
   viewBox="0 0 800 800"
   version="1.1"
   id="svg1"
   inkscape:version="1.2.2 (732a01da63, 2022-12-09)"
   sodipodi:docname="8377_indian-rupee-sign.svg"
   xml:space="preserve"
   xmlns:inkscape="http://www.inkscape.org/namespaces/inkscape"
   xmlns:sodipodi="http://sodipodi.sourceforge.net/DTD/sodipodi-0.dtd"
   xmlns="http://www.w3.org/2000/svg"
   xmlns:svg="http://www.w3.org/2000/svg"><sodipodi:namedview
     id="namedview1"
     pagecolor="#ffffff"
     bordercolor="#000000"
     borderopacity="0.25"
     inkscape:showpageshadow="2"
     inkscape:pageopacity="0.0"
     inkscape:pagecheckerboard="0"
     inkscape:deskcolor="#d1d1d1"
     inkscape:document-units="px"
     showgrid="true"
     inkscape:zoom="1.63125"
     inkscape:cx="337.47126"
     inkscape:cy="404.5977"
     inkscape:window-width="1918"
     inkscape:window-height="2054"
     inkscape:window-x="0"
     inkscape:window-y="0"
     inkscape:window-maximized="0"
     inkscape:current-layer="layer1"
     showguides="false"><inkscape:grid
       id="grid1"
       units="px"
       originx="0"
       originy="0"
       spacingx="25"
       spacingy="25"
       empcolor="#0099e5"
       empopacity="0.30196078"
       color="#0099e5"
       opacity="0.14901961"
       empspacing="4"
       dotted="false"
       gridanglex="30"
       gridanglez="30"
       visible="true" /></sodipodi:namedview><defs
     id="defs1" /><g
     inkscape:label="Layer 1"
     inkscape:groupmode="layer"
     id="layer1"><path
       id="path9691-5"
       style="fill:#000000;fill-opacity:0.555319;fill-rule:evenodd;stroke:none;stroke-width:1px;stroke-linecap:butt;stroke-linejoin:miter;stroke-opacity:1"
       d="m 100,400 c 75.12844,102.61333 100,100 100,200 H 100 c 0,-50 0,-50 -50,-100 L 25,475 Z"
       sodipodi:nodetypes="cccccc" /><path
       id="path352-3-5"
       style="fill:#000000;fill-opacity:0.555319;fill-rule:evenodd;stroke:none;stroke-width:3px;stroke-linecap:butt;stroke-linejoin:miter;stroke-opacity:1"
       d="m 0,100 h 50 c 24.99992,0 50,25.00008 50,50 v 200 c 0,24.99992 -25.00008,50 -50,50 H 0 v 100 h 50 c 74.99972,0 150,-125.00028 150,-200 V 150 C 200,75.00029 124.99972,0 50,0 H 0 Z"
       sodipodi:nodetypes="cssssccsssscc" /><rect
       style="opacity:0.489888;fill:#000000;fill-opacity:0.555319;fill-rule:evenodd;stroke-width:100;stroke-linecap:round;stroke-linejoin:round;stroke-miterlimit:4.5;stop-color:#000000"
       id="rect17452"
       width="300"
       height="100"
       x="0"
       y="0" /><rect
       style="opacity:0.489888;fill:#000000;fill-opacity:0.555319;fill-rule:evenodd;stroke-width:100;stroke-linecap:round;stroke-linejoin:round;stroke-miterlimit:4.5;stop-color:#000000"
       id="rect17454"
       width="300"
       height="100"
       x="0"
       y="200" /><path
       id="path9691-5-5"
       style="fill:#000000;fill-opacity:0.555319;fill-rule:evenodd;stroke:none;stroke-width:1px;stroke-linecap:butt;stroke-linejoin:miter;stroke-opacity:1"
       d="M 0 0 L 0 100 L 50 100 C 74.999895 100 100 125.0001 100 150 L 100 200 L 0 200 L 0 300 L 100 300 L 100 350 C 100 374.9999 74.999895 400 50 400 L 0 400 L 0 500 L 50 500 C 99.99995 549.99995 100 550.00005 100 600 L 200 600 C 200 518.98903 183.65922 505.29369 137.51758 448.46875 C 174.09067 405.37606 200 344.06847 200 300 L 300 300 L 300 200 L 200 200 L 200 150 C 200 133.04131 196.13429 116.09165 189.33203 100 L 300 100 L 300 0 L 0 0 z " /></g></svg>
