<?xml version="1.0" encoding="UTF-8" standalone="no"?>
<!-- Created with Inkscape (http://www.inkscape.org/) -->

<svg
   width="800"
   height="800"
   viewBox="0 0 800 800"
   version="1.1"
   id="svg1"
   inkscape:version="1.2.2 (732a01da63, 2022-12-09)"
   sodipodi:docname="8378_turkish-lira-sign.svg"
   xml:space="preserve"
   xmlns:inkscape="http://www.inkscape.org/namespaces/inkscape"
   xmlns:sodipodi="http://sodipodi.sourceforge.net/DTD/sodipodi-0.dtd"
   xmlns="http://www.w3.org/2000/svg"
   xmlns:svg="http://www.w3.org/2000/svg"><sodipodi:namedview
     id="namedview1"
     pagecolor="#ffffff"
     bordercolor="#000000"
     borderopacity="0.25"
     inkscape:showpageshadow="2"
     inkscape:pageopacity="0.0"
     inkscape:pagecheckerboard="0"
     inkscape:deskcolor="#d1d1d1"
     inkscape:document-units="px"
     showgrid="true"
     inkscape:zoom="1.63125"
     inkscape:cx="337.47126"
     inkscape:cy="404.5977"
     inkscape:window-width="1918"
     inkscape:window-height="2054"
     inkscape:window-x="0"
     inkscape:window-y="0"
     inkscape:window-maximized="0"
     inkscape:current-layer="layer1"
     showguides="false"><inkscape:grid
       id="grid1"
       units="px"
       originx="0"
       originy="0"
       spacingx="25"
       spacingy="25"
       empcolor="#0099e5"
       empopacity="0.30196078"
       color="#0099e5"
       opacity="0.14901961"
       empspacing="4"
       dotted="false"
       gridanglex="30"
       gridanglez="30"
       visible="true" /></sodipodi:namedview><defs
     id="defs1" /><g
     inkscape:label="Layer 1"
     inkscape:groupmode="layer"
     id="layer1"><path
       id="rect17578"
       style="opacity:0.489888;fill:#000000;fill-opacity:0.555319;fill-rule:evenodd;stroke-width:100;stroke-linecap:round;stroke-linejoin:round;stroke-miterlimit:4.5;stop-color:#000000"
       d="m 100,0 v 600 h 100 50 c 74.99977,0 150,-75.00022 150,-150 V 400 H 300 v 50 c 0,24.99994 -25.00007,50 -50,50 H 200 V 0 Z"
       sodipodi:nodetypes="cccssccssccc" /><path
       style="fill:#000000;fill-opacity:0.555319;fill-rule:evenodd;stroke:none;stroke-width:86.6025;stroke-linecap:round;stroke-linejoin:round;stroke-miterlimit:4.5;stop-color:#000000"
       d="M 0,425 300,275 V 200 L 0,350 Z"
       id="path1724"
       sodipodi:nodetypes="ccccc" /><path
       style="fill:#000000;fill-opacity:0.555319;fill-rule:evenodd;stroke:none;stroke-width:86.6025;stroke-linecap:round;stroke-linejoin:round;stroke-miterlimit:4.5;stop-color:#000000"
       d="M 0,275 300,125 V 50 L 0,200 Z"
       id="rect18442"
       sodipodi:nodetypes="ccccc" /><path
       id="rect17578-5"
       style="opacity:0.489888;fill:#000000;fill-opacity:0.555319;fill-rule:evenodd;stroke-width:100;stroke-linecap:round;stroke-linejoin:round;stroke-miterlimit:4.5;stop-color:#000000"
       d="M 100 0 L 100 150 L 0 200 L 0 275 L 100 225 L 100 300 L 0 350 L 0 425 L 100 375 L 100 600 L 200 600 L 250 600 C 324.9997 600 400 524.99971 400 450 L 400 400 L 300 400 L 300 450 C 300 474.99992 274.99991 500 250 500 L 200 500 L 200 325 L 300 275 L 300 200 L 200 250 L 200 175 L 300 125 L 300 50 L 200 100 L 200 0 L 100 0 z " /></g></svg>
