<?xml version="1.0" encoding="UTF-8" standalone="no"?>
<!-- Created with Inkscape (http://www.inkscape.org/) -->

<svg
   width="800"
   height="800"
   viewBox="0 0 800 800"
   version="1.1"
   id="svg1"
   inkscape:version="1.2.2 (732a01da63, 2022-12-09)"
   sodipodi:docname="8380_nordic-mark-sign.svg"
   xml:space="preserve"
   xmlns:inkscape="http://www.inkscape.org/namespaces/inkscape"
   xmlns:sodipodi="http://sodipodi.sourceforge.net/DTD/sodipodi-0.dtd"
   xmlns="http://www.w3.org/2000/svg"
   xmlns:svg="http://www.w3.org/2000/svg"><sodipodi:namedview
     id="namedview1"
     pagecolor="#ffffff"
     bordercolor="#000000"
     borderopacity="0.25"
     inkscape:showpageshadow="2"
     inkscape:pageopacity="0.0"
     inkscape:pagecheckerboard="0"
     inkscape:deskcolor="#d1d1d1"
     inkscape:document-units="px"
     showgrid="true"
     inkscape:zoom="1.63125"
     inkscape:cx="237.54789"
     inkscape:cy="415.01916"
     inkscape:window-width="1918"
     inkscape:window-height="2054"
     inkscape:window-x="0"
     inkscape:window-y="0"
     inkscape:window-maximized="0"
     inkscape:current-layer="layer1"
     showguides="false"><inkscape:grid
       id="grid1"
       units="px"
       originx="0"
       originy="0"
       spacingx="25"
       spacingy="25"
       empcolor="#0099e5"
       empopacity="0.30196078"
       color="#0099e5"
       opacity="0.14901961"
       empspacing="4"
       dotted="false"
       gridanglex="30"
       gridanglez="30"
       visible="true" /></sodipodi:namedview><defs
     id="defs1" /><g
     inkscape:label="Layer 1"
     inkscape:groupmode="layer"
     id="layer1"><path
       id="path17828"
       style="fill:#000000;stroke:none;stroke-width:0.25px;stroke-linecap:butt;stroke-linejoin:miter;stroke-opacity:1;fill-opacity:0.55531901"
       d="m 100,100 c 0,0 -12.5,0 -25,0 C 62.5,100 50,87.5 50,75 50,62.5 62.5,50 75,50 c 12.5,0 25,12.5 25,25 0,12.5 0,25 0,25 z M 100,0 C 19.348709,1.8390805 0,25 0,100 0,149.99995 50.00005,200 100,200 V 300 H 25 v 100 h 75 c 0,149.99985 50.00015,200 200,200 h 75 V 500 H 300 C 225.00007,500 200,474.99993 200,400 h 150 c 74.99993,0 150,-75.00007 150,-150 0,-99.9999 -75.00007,-150 -150,-150 H 200 C 200,50.00005 149.98696,-1.1398458 100,0 Z m 100,200 h 150 c 24.99998,0 50,25.00002 50,50 0,24.99998 -25.00002,50 -50,50 H 200 Z" /></g></svg>
