<?xml version="1.0" encoding="UTF-8" standalone="no"?>
<!-- Created with Inkscape (http://www.inkscape.org/) -->

<svg
   width="800"
   height="800"
   viewBox="0 0 800 800"
   version="1.1"
   id="svg1"
   inkscape:version="1.2.2 (732a01da63, 2022-12-09)"
   sodipodi:docname="8382_lari-sign.svg"
   xml:space="preserve"
   xmlns:inkscape="http://www.inkscape.org/namespaces/inkscape"
   xmlns:sodipodi="http://sodipodi.sourceforge.net/DTD/sodipodi-0.dtd"
   xmlns="http://www.w3.org/2000/svg"
   xmlns:svg="http://www.w3.org/2000/svg"><sodipodi:namedview
     id="namedview1"
     pagecolor="#ffffff"
     bordercolor="#000000"
     borderopacity="0.25"
     inkscape:showpageshadow="2"
     inkscape:pageopacity="0.0"
     inkscape:pagecheckerboard="0"
     inkscape:deskcolor="#d1d1d1"
     inkscape:document-units="px"
     showgrid="true"
     inkscape:zoom="1.1534679"
     inkscape:cx="382.7588"
     inkscape:cy="540.11037"
     inkscape:window-width="1918"
     inkscape:window-height="2054"
     inkscape:window-x="0"
     inkscape:window-y="0"
     inkscape:window-maximized="0"
     inkscape:current-layer="layer1-4"
     showguides="false"><inkscape:grid
       id="grid1"
       units="px"
       originx="0"
       originy="0"
       spacingx="25"
       spacingy="25"
       empcolor="#0099e5"
       empopacity="0.30196078"
       color="#0099e5"
       opacity="0.14901961"
       empspacing="4"
       dotted="false"
       gridanglex="30"
       gridanglez="30"
       visible="true" /></sodipodi:namedview><defs
     id="defs1" /><g
     inkscape:label="Layer 1"
     inkscape:groupmode="layer"
     id="layer1"><g
       inkscape:label="Layer 1"
       id="layer1-4"
       transform="translate(200)"><rect
         style="opacity:0.489888;fill:#000000;fill-opacity:0.555319;fill-rule:evenodd;stroke:none;stroke-width:100;stroke-linecap:round;stroke-linejoin:round;stroke-miterlimit:4.5;stop-color:#000000"
         id="rect27108"
         width="75"
         height="300"
         x="-25"
         y="0" /><rect
         style="opacity:0.489888;fill:#000000;fill-opacity:0.555319;fill-rule:evenodd;stroke:none;stroke-width:100;stroke-linecap:round;stroke-linejoin:round;stroke-miterlimit:4.5;stop-color:#000000"
         id="rect27110"
         width="75"
         height="300"
         x="100"
         y="0" /><rect
         style="opacity:0.489888;fill:#000000;fill-opacity:0.555319;fill-rule:evenodd;stroke:none;stroke-width:100;stroke-linecap:round;stroke-linejoin:round;stroke-miterlimit:4.5;stop-color:#000000"
         id="rect27112"
         width="400"
         height="100"
         x="-200"
         y="500" /><path
         id="path352-3-2-2"
         style="fill:#000000;fill-opacity:0.555319;fill-rule:evenodd;stroke:none;stroke-width:3px;stroke-linecap:butt;stroke-linejoin:miter;stroke-opacity:1"
         d="M 100,600 C -50,600 -200,450 -200,300 v -50 c 0,-74.99972 75.00031,-150 150,-150 h 200 c 74.99972,0 150,50.00028 150,125 H 200 c 0,-24.99992 -25.00008,-25 -50,-25 H -50 c -24.99992,0 -50,25.00008 -50,50 v 50 c 0,100 100,200 200,200 z"
         sodipodi:nodetypes="cscssccsscscc" /><path
         id="rect27108-7"
         style="opacity:0.489888;fill:#000000;fill-opacity:0.555319;fill-rule:evenodd;stroke:none;stroke-width:100;stroke-linecap:round;stroke-linejoin:round;stroke-miterlimit:4.5;stop-color:#000000"
         d="M -25 0 L -25 100 L -50 100 C -124.99962 100 -200 175.00035 -200 250 L -200 300 C -200 372.27774 -165.11696 444.50381 -112.24414 500 L -200 500 L -200 600 L 200 600 L 200 500 L 100 500 C 0.0001 500 -100 399.9999 -100 300 L -100 250 C -100 225.0001 -74.999895 200 -50 200 L -25 200 L -25 300 L 50 300 L 50 200 L 100 200 L 100 300 L 175 300 L 175 201.11914 C 189.31718 203.09535 200 208.70668 200 225 L 300 225 C 300 158.37327 240.79644 111.56857 175 101.92773 L 175 0 L 100 0 L 100 100 L 50 100 L 50 0 L -25 0 z " /></g></g></svg>
