<?xml version="1.0" encoding="UTF-8" standalone="no"?>
<!-- Created with Inkscape (http://www.inkscape.org/) -->

<svg
   width="800"
   height="800"
   viewBox="0 0 800 800"
   version="1.1"
   id="svg1"
   inkscape:version="1.2.2 (732a01da63, 2022-12-09)"
   sodipodi:docname="8383_bitcoin-sign.svg"
   xml:space="preserve"
   xmlns:inkscape="http://www.inkscape.org/namespaces/inkscape"
   xmlns:sodipodi="http://sodipodi.sourceforge.net/DTD/sodipodi-0.dtd"
   xmlns="http://www.w3.org/2000/svg"
   xmlns:svg="http://www.w3.org/2000/svg"><sodipodi:namedview
     id="namedview1"
     pagecolor="#ffffff"
     bordercolor="#000000"
     borderopacity="0.25"
     inkscape:showpageshadow="2"
     inkscape:pageopacity="0.0"
     inkscape:pagecheckerboard="0"
     inkscape:deskcolor="#d1d1d1"
     inkscape:document-units="px"
     showgrid="true"
     inkscape:zoom="1.1534679"
     inkscape:cx="382.7588"
     inkscape:cy="540.11037"
     inkscape:window-width="1918"
     inkscape:window-height="2054"
     inkscape:window-x="0"
     inkscape:window-y="0"
     inkscape:window-maximized="0"
     inkscape:current-layer="layer1-4"
     showguides="false"><inkscape:grid
       id="grid1"
       units="px"
       originx="0"
       originy="0"
       spacingx="25"
       spacingy="25"
       empcolor="#0099e5"
       empopacity="0.30196078"
       color="#0099e5"
       opacity="0.14901961"
       empspacing="4"
       dotted="false"
       gridanglex="30"
       gridanglez="30"
       visible="true" /></sodipodi:namedview><defs
     id="defs1" /><g
     inkscape:label="Layer 1"
     inkscape:groupmode="layer"
     id="layer1"><g
       inkscape:label="Layer 1"
       id="layer1-4"
       transform="translate(200)"><path
         id="path352-3"
         style="fill:#000000;fill-opacity:0.555319;fill-rule:evenodd;stroke:none;stroke-width:3px;stroke-linecap:butt;stroke-linejoin:miter;stroke-opacity:1"
         d="m -100,300 v 100 h 250 c 24.99998,0 50,25.00002 50,50 0,24.99998 -25.00002,50 -50,50 h -250 v 100 h 250 c 74.99993,0 150,-75.00008 150,-150 0,-74.99993 -75.00007,-150 -150,-150 z"
         sodipodi:nodetypes="ccsssccsssc" /><path
         id="path352-3-1"
         style="fill:#000000;fill-opacity:0.555319;fill-rule:evenodd;stroke:none;stroke-width:3px;stroke-linecap:butt;stroke-linejoin:miter;stroke-opacity:1"
         d="m -100,100 v 100 h 225 c 24.99998,0 50,25.00002 50,50 0,24.99998 -25.00002,50 -50,50 h -225 v 100 h 225 c 74.99993,0 150,-75.00008 150,-150 0,-74.99993 -75.00007,-150 -150,-150 z"
         sodipodi:nodetypes="ccsssccsssc" /><rect
         style="fill:#000000;fill-opacity:0.555319;fill-rule:evenodd;stroke:none;stroke-width:100;stroke-linecap:round;stroke-linejoin:round;stroke-miterlimit:4.5;stop-color:#000000"
         id="rect11692"
         width="100"
         height="500"
         x="-200"
         y="100" /><rect
         style="opacity:0.489888;fill:#000000;fill-opacity:0.555319;fill-rule:evenodd;stroke:none;stroke-width:100;stroke-linecap:round;stroke-linejoin:round;stroke-miterlimit:4.5;stop-color:#000000"
         id="rect24115"
         width="100"
         height="125"
         x="-100"
         y="0" /><rect
         style="opacity:0.489888;fill:#000000;fill-opacity:0.555319;fill-rule:evenodd;stroke:none;stroke-width:100;stroke-linecap:round;stroke-linejoin:round;stroke-miterlimit:4.5;stop-color:#000000"
         id="rect24117"
         width="100"
         height="150"
         x="100"
         y="0" /><rect
         style="opacity:0.489888;fill:#000000;fill-opacity:0.555319;fill-rule:evenodd;stroke:none;stroke-width:100;stroke-linecap:round;stroke-linejoin:round;stroke-miterlimit:4.5;stop-color:#000000"
         id="rect24119"
         width="100"
         height="100"
         x="-100"
         y="600" /><rect
         style="opacity:0.489888;fill:#000000;fill-opacity:0.555319;fill-rule:evenodd;stroke:none;stroke-width:100;stroke-linecap:round;stroke-linejoin:round;stroke-miterlimit:4.5;stop-color:#000000"
         id="rect24121"
         width="100"
         height="150"
         x="100"
         y="550" /><path
         id="path352-3-6"
         style="fill:#000000;fill-opacity:0.555319;fill-rule:evenodd;stroke:none;stroke-width:3px;stroke-linecap:butt;stroke-linejoin:miter;stroke-opacity:1"
         d="M -100 0 L -100 100 L -200 100 L -200 600 L -100 600 L -100 700 L 0 700 L 0 600 L 100 600 L 100 700 L 200 700 L 200 589.33203 C 255.07358 566.05141 300 508.04111 300 450 C 300 407.91229 276.3774 365.82795 242.39453 336.99414 C 262.40536 311.42857 275 280.71903 275 250 C 275 201.0506 243.04394 152.11629 200 124.01758 L 200 0 L 100 0 L 100 100 L 0 100 L 0 0 L -100 0 z M -100 200 L 125 200 C 149.99996 200 175 225.00004 175 250 C 175 274.99996 149.99996 300 125 300 L -100 300 L -100 200 z M -100 400 L 125 400 L 150 400 C 174.99996 400 200 425.00004 200 450 C 200 474.99996 174.99996 500 150 500 L -100 500 L -100 400 z " /></g></g></svg>
