<?xml version="1.0" encoding="UTF-8" standalone="no"?>
<!-- Created with Inkscape (http://www.inkscape.org/) -->

<svg
   width="1200"
   height="1200"
   viewBox="0 0 1200 1200"
   version="1.1"
   id="svg1"
   inkscape:version="1.2.2 (732a01da63, 2022-12-09)"
   sodipodi:docname="42927_Q-smallcaps.svg"
   xml:space="preserve"
   xmlns:inkscape="http://www.inkscape.org/namespaces/inkscape"
   xmlns:sodipodi="http://sodipodi.sourceforge.net/DTD/sodipodi-0.dtd"
   xmlns="http://www.w3.org/2000/svg"
   xmlns:svg="http://www.w3.org/2000/svg"><sodipodi:namedview
     id="namedview1"
     pagecolor="#ffffff"
     bordercolor="#000000"
     borderopacity="0.25"
     inkscape:showpageshadow="2"
     inkscape:pageopacity="0.0"
     inkscape:pagecheckerboard="0"
     inkscape:deskcolor="#d1d1d1"
     inkscape:document-units="px"
     showgrid="true"
     inkscape:zoom="0.78606703"
     inkscape:cx="417.26721"
     inkscape:cy="636.07807"
     inkscape:window-width="1649"
     inkscape:window-height="1486"
     inkscape:window-x="7199"
     inkscape:window-y="341"
     inkscape:window-maximized="0"
     inkscape:current-layer="layer1"
     showguides="false"><inkscape:grid
       id="grid1"
       units="px"
       originx="0"
       originy="0"
       spacingx="25"
       spacingy="25"
       empcolor="#0099e5"
       empopacity="0.30196078"
       color="#0099e5"
       opacity="0.14901961"
       empspacing="4"
       dotted="false"
       gridanglex="30"
       gridanglez="30"
       visible="true" /></sodipodi:namedview><defs
     id="defs1" /><g
     inkscape:label="Layer 1"
     inkscape:groupmode="layer"
     id="layer1"><path
       id="path2-8-4"
       style="fill:#000000;fill-opacity:0.555319;fill-rule:evenodd;stroke-width:0.999873"
       d="M 400 400 C 175.00045 400 0 500.0004 0 700 C 0 899.9996 175.00045 1000 400 1000 C 432.4128 1000 463.74119 997.85558 493.70508 993.70508 L 600 1100 L 700 1100 L 700 1000 L 647.24805 947.24805 C 740.8647 898.55861 800 816.18959 800 700 C 800 500.0004 624.99955 400 400 400 z M 400 500 C 524.99975 500 600 575.00025 600 700 C 600 762.64463 581.15489 812.40412 546.62695 846.62695 L 450 750 L 350 750 L 350 850 L 400 900 C 275.00676 898.7234 200 824.99975 200 700 C 200 575.00025 275.00025 500 400 500 z " /></g></svg>
