<?xml version="1.0" encoding="UTF-8" standalone="no"?>
<!-- Created with Inkscape (http://www.inkscape.org/) -->

<svg
   width="1200"
   height="1200"
   viewBox="0 0 1200 1200"
   version="1.1"
   id="svg1"
   inkscape:version="1.2.2 (732a01da63, 2022-12-09)"
   sodipodi:docname="58039_aeroplane.svg"
   xml:space="preserve"
   xmlns:inkscape="http://www.inkscape.org/namespaces/inkscape"
   xmlns:sodipodi="http://sodipodi.sourceforge.net/DTD/sodipodi-0.dtd"
   xmlns="http://www.w3.org/2000/svg"
   xmlns:svg="http://www.w3.org/2000/svg"><sodipodi:namedview
     id="namedview1"
     pagecolor="#ffffff"
     bordercolor="#000000"
     borderopacity="0.25"
     inkscape:showpageshadow="2"
     inkscape:pageopacity="0.0"
     inkscape:pagecheckerboard="0"
     inkscape:deskcolor="#d1d1d1"
     inkscape:document-units="px"
     showgrid="true"
     inkscape:zoom="1.1116667"
     inkscape:cx="411.54422"
     inkscape:cy="716.04196"
     inkscape:window-width="3840"
     inkscape:window-height="2066"
     inkscape:window-x="-11"
     inkscape:window-y="-11"
     inkscape:window-maximized="1"
     inkscape:current-layer="layer1"
     showguides="false"><inkscape:grid
       id="grid1"
       units="px"
       originx="0"
       originy="0"
       spacingx="25"
       spacingy="25"
       empcolor="#0099e5"
       empopacity="0.30196078"
       color="#0099e5"
       opacity="0.14901961"
       empspacing="4"
       dotted="false"
       gridanglex="30"
       gridanglez="30"
       visible="true" /></sodipodi:namedview><defs
     id="defs1" /><g
     inkscape:label="Layer 1"
     inkscape:groupmode="layer"
     id="layer1"><path
       style="opacity:0.489879;fill:#000000;fill-opacity:0.555319;fill-rule:evenodd"
       d="m 525,500 c 0,0 95.9247,-95.9247 150,-150 25,-25 63.586,-50 75,-50 h 50 l -25,200 z"
       id="path3"
       sodipodi:nodetypes="cssccc" /><path
       id="path4-0"
       style="opacity:0.489879;fill:#000000;fill-opacity:0.555319;fill-rule:evenodd"
       d="m 900,650 v -25 c 0,-25 25,-50 50,-50 25,0 50,25 50,50 v 25 c 0,25 -25,50 -50,50 -25,0 -50,-25 -50,-50 z m -200,0 v -25 c 0,-25 25,-50 50,-50 25,0 50,25 50,50 v 25 c 0,25 -25,50 -50,50 -25,0 -50,-25 -50,-50 z m -200,0 v -25 c 0,-25 25,-50 50,-50 25,0 50,25 50,50 v 25 c 0,25 -25,50 -50,50 -25,0 -50,-25 -50,-50 z m -400,0 v -25 c 0,-25 25,-50 50,-50 25,0 50,25 50,50 v 25 c 0,25 -25,50 -50,50 -25,0 -50,-25 -50,-50 z m 200,0 v -25 c 0,-25 25,-50 50,-50 25,0 50,25 50,50 v 25 c 0,25 -25,50 -50,50 -25,0 -50,-25 -50,-50 z M 0,700 c 0,50 50,100 100,100 h 325 l 225,225 c 25,25 50,75 100,75 h 50 L 775,800 h 75 c 50,0 125,-50 200,-100 L 1200,600 V 300 h -25 c -25,0 -50,25 -75,50 -25,25 -125,150 -200,150 H 200 C 100,500 0,600 0,700 Z"
       sodipodi:nodetypes="sssssssssssssssssssssssssssssssssssssccsccssccsssss" /><path
       id="path3-3"
       style="opacity:0.489879;fill:#000000;fill-opacity:0.555319;fill-rule:evenodd"
       d="m 750,300 c -11.41399,0 -50.00003,25.00002 -75,50 L 525,500 H 200 C 100.0001,500 0,600.0001 0,700 0,749.99995 50.00005,800 100,800 h 325 l 225,225 c 24.99997,25 50.00005,75 100,75 h 50 L 775,800 h 75 c 49.99995,0 125.00008,-50.00005 200,-100 L 1200,600 V 300 h -25 c -25,0 -50,25.00002 -75,50 -25,24.99998 -125.00008,150 -200,150 H 775 L 800,300 Z M 150,575 c 24.99998,0 50,25.00003 50,50 v 25 c 0,24.99997 -25.00002,50 -50,50 -24.99998,0 -50,-25.00003 -50,-50 v -25 c 0,-24.99997 25.00002,-50 50,-50 z m 200,0 c 24.99998,0 50,25.00003 50,50 v 25 c 0,24.99997 -25.00002,50 -50,50 -24.99998,0 -50,-25.00003 -50,-50 v -25 c 0,-24.99997 25.00002,-50 50,-50 z m 200,0 c 24.99997,0 50,25.00003 50,50 v 25 c 0,24.99997 -25.00003,50 -50,50 -24.99997,0 -50,-25.00003 -50,-50 v -25 c 0,-24.99997 25.00003,-50 50,-50 z m 200,0 c 24.99997,0 50,25.00003 50,50 v 25 c 0,24.99997 -25.00003,50 -50,50 -24.99997,0 -50,-25.00003 -50,-50 v -25 c 0,-24.99997 25.00003,-50 50,-50 z m 200,0 c 24.99997,0 50,25.00003 50,50 v 25 c 0,24.99997 -25.00003,50 -50,50 -24.99997,0 -50,-25.00003 -50,-50 v -25 c 0,-24.99997 25.00003,-50 50,-50 z" /></g></svg>
