<?xml version="1.0" encoding="UTF-8" standalone="no"?>
<!-- Created with Inkscape (http://www.inkscape.org/) -->

<svg
   width="1200"
   height="1200"
   viewBox="0 0 1200 1200"
   version="1.1"
   id="svg1"
   inkscape:version="1.3 (0e150ed6c4, 2023-07-21)"
   sodipodi:docname="58039_aeroplane.svg"
   xml:space="preserve"
   xmlns:inkscape="http://www.inkscape.org/namespaces/inkscape"
   xmlns:sodipodi="http://sodipodi.sourceforge.net/DTD/sodipodi-0.dtd"
   xmlns="http://www.w3.org/2000/svg"
   xmlns:svg="http://www.w3.org/2000/svg"><sodipodi:namedview
     id="namedview1"
     pagecolor="#ffffff"
     bordercolor="#000000"
     borderopacity="0.25"
     inkscape:showpageshadow="2"
     inkscape:pageopacity="0.0"
     inkscape:pagecheckerboard="0"
     inkscape:deskcolor="#d1d1d1"
     inkscape:document-units="px"
     showgrid="true"
     inkscape:zoom="1.1116667"
     inkscape:cx="501.04946"
     inkscape:cy="716.49173"
     inkscape:window-width="2560"
     inkscape:window-height="1494"
     inkscape:window-x="-11"
     inkscape:window-y="-11"
     inkscape:window-maximized="1"
     inkscape:current-layer="layer1"
     showguides="false"><inkscape:grid
       id="grid1"
       units="px"
       originx="0"
       originy="0"
       spacingx="25"
       spacingy="25"
       empcolor="#0099e5"
       empopacity="0.30196078"
       color="#0099e5"
       opacity="0.14901961"
       empspacing="4"
       dotted="false"
       gridanglex="30"
       gridanglez="30"
       visible="true" /></sodipodi:namedview><defs
     id="defs1" /><g
     inkscape:label="Layer 1"
     inkscape:groupmode="layer"
     id="layer1"><path
       style="opacity:0.489879;fill:#000000;fill-opacity:0.555319;fill-rule:evenodd"
       d="m 525,600 c 0,0 95.9247,-95.9247 150,-150 25,-25 63.586,-50 75,-50 h 50 l -25,200 z"
       id="path3"
       sodipodi:nodetypes="cssccc" /><path
       id="path4-0"
       style="opacity:0.489879;fill:#000000;fill-opacity:0.555319;fill-rule:evenodd"
       d="m 900,750 v -25 c 0,-25 25,-50 50,-50 25,0 50,25 50,50 v 25 c 0,25 -25,50 -50,50 -25,0 -50,-25 -50,-50 z m -200,0 v -25 c 0,-25 25,-50 50,-50 25,0 50,25 50,50 v 25 c 0,25 -25,50 -50,50 -25,0 -50,-25 -50,-50 z m -200,0 v -25 c 0,-25 25,-50 50,-50 25,0 50,25 50,50 v 25 c 0,25 -25,50 -50,50 -25,0 -50,-25 -50,-50 z m -400,0 v -25 c 0,-25 25,-50 50,-50 25,0 50,25 50,50 v 25 c 0,25 -25,50 -50,50 -25,0 -50,-25 -50,-50 z m 200,0 v -25 c 0,-25 25,-50 50,-50 25,0 50,25 50,50 v 25 c 0,25 -25,50 -50,50 -25,0 -50,-25 -50,-50 z M 0,800 c 0,50 50,100 100,100 h 325 l 225,225 c 25,25 50,75 100,75 h 50 L 775,900 h 75 c 50,0 125,-50 200,-100 L 1200,700 V 400 h -25 c -25,0 -50,25 -75,50 -25,25 -125,150 -200,150 H 200 C 100,600 0,700 0,800 Z"
       sodipodi:nodetypes="sssssssssssssssssssssssssssssssssssssccsccssccsssss" /><path
       id="path3-3"
       style="opacity:0.489879;fill:#000000;fill-opacity:0.555319;fill-rule:evenodd"
       d="M 750 400 C 738.58601 400 699.99997 425.00002 675 450 L 525 600 L 200 600 C 100.0001 600 0 700.0001 0 800 C 0 849.99995 50.00005 900 100 900 L 425 900 L 650 1125 C 674.99997 1150 700.00005 1200 750 1200 L 800 1200 L 775 900 L 850 900 C 899.99995 900 975.00008 849.99995 1050 800 L 1200 700 L 1200 400 L 1175 400 C 1150 400 1125 425.00002 1100 450 C 1075 474.99998 974.99992 600 900 600 L 775 600 L 800 400 L 750 400 z M 150 675 C 174.99998 675 200 700.00003 200 725 L 200 750 C 200 774.99997 174.99998 800 150 800 C 125.00002 800 100 774.99997 100 750 L 100 725 C 100 700.00003 125.00002 675 150 675 z M 350 675 C 374.99998 675 400 700.00003 400 725 L 400 750 C 400 774.99997 374.99998 800 350 800 C 325.00002 800 300 774.99997 300 750 L 300 725 C 300 700.00003 325.00002 675 350 675 z M 550 675 C 574.99997 675 600 700.00003 600 725 L 600 750 C 600 774.99997 574.99997 800 550 800 C 525.00003 800 500 774.99997 500 750 L 500 725 C 500 700.00003 525.00003 675 550 675 z M 750 675 C 774.99997 675 800 700.00003 800 725 L 800 750 C 800 774.99997 774.99997 800 750 800 C 725.00003 800 700 774.99997 700 750 L 700 725 C 700 700.00003 725.00003 675 750 675 z M 950 675 C 974.99997 675 1000 700.00003 1000 725 L 1000 750 C 1000 774.99997 974.99997 800 950 800 C 925.00003 800 900 774.99997 900 750 L 900 725 C 900 700.00003 925.00003 675 950 675 z " /></g></svg>
