<?xml version="1.0" encoding="UTF-8" standalone="no"?>
<!-- Created with Inkscape (http://www.inkscape.org/) -->

<svg
   width="1200"
   height="1200"
   viewBox="0 0 1200 1200"
   version="1.1"
   id="svg1"
   inkscape:version="1.3 (0e150ed6c4, 2023-07-21)"
   sodipodi:docname="58038_bus.svg"
   xml:space="preserve"
   xmlns:inkscape="http://www.inkscape.org/namespaces/inkscape"
   xmlns:sodipodi="http://sodipodi.sourceforge.net/DTD/sodipodi-0.dtd"
   xmlns="http://www.w3.org/2000/svg"
   xmlns:svg="http://www.w3.org/2000/svg"><sodipodi:namedview
     id="namedview1"
     pagecolor="#ffffff"
     bordercolor="#000000"
     borderopacity="0.25"
     inkscape:showpageshadow="2"
     inkscape:pageopacity="0.0"
     inkscape:pagecheckerboard="0"
     inkscape:deskcolor="#d1d1d1"
     inkscape:document-units="px"
     showgrid="true"
     inkscape:zoom="1.4953896"
     inkscape:cx="536.98381"
     inkscape:cy="753.31539"
     inkscape:window-width="2560"
     inkscape:window-height="1494"
     inkscape:window-x="-11"
     inkscape:window-y="-11"
     inkscape:window-maximized="1"
     inkscape:current-layer="layer1"
     showguides="false"><inkscape:grid
       id="grid1"
       units="px"
       originx="0"
       originy="0"
       spacingx="25"
       spacingy="25"
       empcolor="#0099e5"
       empopacity="0.30196078"
       color="#0099e5"
       opacity="0.14901961"
       empspacing="4"
       dotted="false"
       gridanglex="30"
       gridanglez="30"
       visible="true" /></sodipodi:namedview><defs
     id="defs1" /><g
     inkscape:label="Layer 1"
     inkscape:groupmode="layer"
     id="layer1"><circle
       style="opacity:0.461538;fill:#000000;fill-opacity:0.555319;fill-rule:evenodd"
       id="path3"
       cx="200"
       cy="900"
       r="100" /><circle
       style="opacity:0.461538;fill:#000000;fill-opacity:0.555319;fill-rule:evenodd"
       id="path3-9"
       cx="900"
       cy="900"
       r="100" /><path
       id="rect1"
       style="opacity:0.453441;fill-opacity:0.555319;fill-rule:evenodd"
       d="m 150,500 h 50 V 700 H 100 V 550 c 0,-25 25,-50 50,-50 z m 750,0 h 100 V 625 H 900 Z m -200,0 H 800 V 625 H 700 Z m -200,0 H 600 V 625 H 500 Z m -200,0 H 400 V 625 H 300 Z m 800,400 v -75 h -25 v -25 h 25 V 450 c 0,-25 -25,-50 -50,-50 H 100 C 50,400 0,450 0,500 H 25 V 700 L 0,725 v 125 c 0,25 25,50 50,50 h 25 v -25 h 25 v 25 h 200 v -25 h 25 v 25 h 450 v -25 h 25 v 25 h 200 v -25 h 25 v 25 z"
       sodipodi:nodetypes="zccczzcccccccccccccccccccccccccsssscccssccccccccccccccccc" /><path
       id="path3-3"
       style="opacity:0.461538;fill:#000000;fill-opacity:0.555319;fill-rule:evenodd"
       d="M 100 400 C 50.00005 400 0 450.00005 0 500 L 25 500 L 25 700 L 0 725 L 0 850 C 0 874.99997 25.000025 900 50 900 L 75 900 L 75 875 L 100 875 L 100 900 A 100 100 0 0 0 200 1000 A 100 100 0 0 0 300 900 L 300 875 L 325 875 L 325 900 L 775 900 L 775 875 L 800 875 L 800 900 A 100 100 0 0 0 900 1000 A 100 100 0 0 0 1000 900 L 1000 875 L 1025 875 L 1025 900 L 1100 900 L 1100 825 L 1075 825 L 1075 800 L 1100 800 L 1100 450 C 1100 425.00002 1075 400 1050 400 L 100 400 z M 150 500 L 200 500 L 200 700 L 100 700 L 100 550 C 100 525.00003 125.00002 500 150 500 z M 300 500 L 400 500 L 400 625 L 300 625 L 300 500 z M 500 500 L 600 500 L 600 625 L 500 625 L 500 500 z M 700 500 L 800 500 L 800 625 L 700 625 L 700 500 z M 900 500 L 1000 500 L 1000 625 L 900 625 L 900 500 z " /></g></svg>
