<?xml version="1.0" encoding="UTF-8" standalone="no"?>
<!-- Created with Inkscape (http://www.inkscape.org/) -->

<svg
   width="1200"
   height="1200"
   viewBox="0 0 1200 1200"
   version="1.1"
   id="svg1"
   inkscape:version="1.3 (0e150ed6c4, 2023-07-21)"
   sodipodi:docname="58036_train.svg"
   xml:space="preserve"
   xmlns:inkscape="http://www.inkscape.org/namespaces/inkscape"
   xmlns:sodipodi="http://sodipodi.sourceforge.net/DTD/sodipodi-0.dtd"
   xmlns="http://www.w3.org/2000/svg"
   xmlns:svg="http://www.w3.org/2000/svg"><sodipodi:namedview
     id="namedview1"
     pagecolor="#ffffff"
     bordercolor="#000000"
     borderopacity="0.25"
     inkscape:showpageshadow="2"
     inkscape:pageopacity="0.0"
     inkscape:pagecheckerboard="0"
     inkscape:deskcolor="#d1d1d1"
     inkscape:document-units="px"
     showgrid="true"
     inkscape:zoom="1.1116667"
     inkscape:cx="439.88005"
     inkscape:cy="671.51422"
     inkscape:window-width="2560"
     inkscape:window-height="1494"
     inkscape:window-x="-11"
     inkscape:window-y="-11"
     inkscape:window-maximized="1"
     inkscape:current-layer="layer1"
     showguides="false"><inkscape:grid
       id="grid1"
       units="px"
       originx="0"
       originy="0"
       spacingx="25"
       spacingy="25"
       empcolor="#0099e5"
       empopacity="0.30196078"
       color="#0099e5"
       opacity="0.14901961"
       empspacing="4"
       dotted="false"
       gridanglex="30"
       gridanglez="30"
       visible="true" /></sodipodi:namedview><defs
     id="defs1" /><g
     inkscape:label="Layer 1"
     inkscape:groupmode="layer"
     id="layer1"><path
       id="path2"
       style="opacity:0.461538;fill:#000000;fill-opacity:0.555319;fill-rule:evenodd"
       d="M 800,650 V 475 H 900 V 650 Z M 175,400 v 25 h 25 v 75 H 100 v 275 h 50 v 25 h -50 v 25 H 75 V 800 H 25 v 100 h 50 v -25 h 25 v 25 h 900 v -25 h 25 v 25 h 50 V 800 h -50 v 25 h -25 V 475 h 75 V 400 H 700 V 500 H 300 v -75 h 25 v -25 z"
       sodipodi:nodetypes="cccccccccccccccccccccccccccccccccccccccccc" /><circle
       style="opacity:0.461538;fill:#000000;fill-opacity:0.555319;fill-rule:evenodd"
       id="path3"
       cx="250"
       cy="900"
       r="100" /><circle
       style="opacity:0.461538;fill:#000000;fill-opacity:0.555319;fill-rule:evenodd"
       id="path3-9"
       cx="550"
       cy="900"
       r="100" /><circle
       style="opacity:0.461538;fill:#000000;fill-opacity:0.555319;fill-rule:evenodd;stroke-width:0.5"
       id="path3-9-9"
       cx="750"
       cy="950"
       r="50" /><circle
       style="opacity:0.461538;fill:#000000;fill-opacity:0.555319;fill-rule:evenodd;stroke-width:0.5"
       id="path3-9-9-5"
       cx="850"
       cy="950"
       r="50" /><path
       style="opacity:0.461538;fill:#000000;fill-opacity:0.555319;fill-rule:evenodd"
       d="m 650,900 50,50 h 250 l 50,-50 z"
       id="path4" /><path
       id="path2-7"
       style="opacity:0.461538;fill:#000000;fill-opacity:0.555319;fill-rule:evenodd"
       d="M 175 400 L 175 425 L 200 425 L 200 500 L 100 500 L 100 775 L 150 775 L 150 800 L 100 800 L 100 825 L 75 825 L 75 800 L 25 800 L 25 900 L 75 900 L 75 875 L 100 875 L 100 900 L 150 900 A 100 100 0 0 0 250 1000 A 100 100 0 0 0 350 900 L 450 900 A 100 100 0 0 0 550 1000 A 100 100 0 0 0 650 900 L 700 950 A 50 50 0 0 0 750 1000 A 50 50 0 0 0 800 950 A 50 50 0 0 0 850 1000 A 50 50 0 0 0 900 950 L 950 950 L 1000 900 L 1000 875 L 1025 875 L 1025 900 L 1075 900 L 1075 800 L 1025 800 L 1025 825 L 1000 825 L 1000 475 L 1075 475 L 1075 400 L 700 400 L 700 500 L 300 500 L 300 425 L 325 425 L 325 400 L 175 400 z M 800 475 L 900 475 L 900 650 L 800 650 L 800 475 z " /></g></svg>
