<?xml version="1.0" encoding="UTF-8" standalone="no"?>
<!-- Created with Inkscape (http://www.inkscape.org/) -->

<svg
   width="1200"
   height="1200"
   viewBox="0 0 1200 1200"
   version="1.1"
   id="svg1"
   inkscape:version="1.3 (0e150ed6c4, 2023-07-21)"
   sodipodi:docname="58037_lorry.svg"
   xml:space="preserve"
   xmlns:inkscape="http://www.inkscape.org/namespaces/inkscape"
   xmlns:sodipodi="http://sodipodi.sourceforge.net/DTD/sodipodi-0.dtd"
   xmlns="http://www.w3.org/2000/svg"
   xmlns:svg="http://www.w3.org/2000/svg"><sodipodi:namedview
     id="namedview1"
     pagecolor="#ffffff"
     bordercolor="#000000"
     borderopacity="0.25"
     inkscape:showpageshadow="2"
     inkscape:pageopacity="0.0"
     inkscape:pagecheckerboard="0"
     inkscape:deskcolor="#d1d1d1"
     inkscape:document-units="px"
     showgrid="true"
     inkscape:zoom="1.4953896"
     inkscape:cx="224.02189"
     inkscape:cy="584.79743"
     inkscape:window-width="2560"
     inkscape:window-height="1494"
     inkscape:window-x="-11"
     inkscape:window-y="-11"
     inkscape:window-maximized="1"
     inkscape:current-layer="layer1"
     showguides="false"><inkscape:grid
       id="grid1"
       units="px"
       originx="0"
       originy="0"
       spacingx="25"
       spacingy="25"
       empcolor="#0099e5"
       empopacity="0.30196078"
       color="#0099e5"
       opacity="0.14901961"
       empspacing="4"
       dotted="false"
       gridanglex="30"
       gridanglez="30"
       visible="true" /></sodipodi:namedview><defs
     id="defs1" /><g
     inkscape:label="Layer 1"
     inkscape:groupmode="layer"
     id="layer1"><path
       id="path5-1"
       style="opacity:0.461538;fill:#000000;fill-opacity:0.555319;fill-rule:evenodd"
       d="M 200,675 V 500 h -31.9445 c -25,0 -36.50675,14.54272 -50,50 -13.49326,35.45729 -50.000004,125 -50.000004,125 z m 800,225 V 800 h -50 v -25 h 50 V 400 H 400 v 375 h 50 v 25 H 325 V 450 H 125 C 100,450 88.493253,464.54272 75,500 61.506747,535.45729 0,700 0,700 v 150 c 0,25 25,50 50,50 z"
       sodipodi:nodetypes="ccssccccccccccccccsscssc" /><circle
       style="opacity:0.461538;fill:#000000;fill-opacity:0.555319;fill-rule:evenodd"
       id="path3"
       cx="200"
       cy="900"
       r="100" /><circle
       style="opacity:0.461538;fill:#000000;fill-opacity:0.555319;fill-rule:evenodd"
       id="path3-9"
       cx="800"
       cy="900"
       r="100" /><path
       id="path5-1-5"
       style="opacity:0.461538;fill:#000000;fill-opacity:0.555319;fill-rule:evenodd"
       d="m 400,400 v 375 h 50 v 25 H 325 V 450 H 125 C 100.00002,450 88.49324,464.54276 75,500 61.50676,535.45725 0,700 0,700 v 150 c 0,24.99997 25.000025,50 50,50 h 50 c 0,55.22847 44.77153,100 100,100 55.22847,0 100,-44.77153 100,-100 h 400 c 0,55.22847 44.77153,100 100,100 55.22847,0 100,-44.77153 100,-100 h 100 V 800 h -50 v -25 h 50 V 400 Z M 168.05469,500 H 200 V 675 H 68.054688 c 0,0 36.506752,-89.54275 50.000002,-125 13.49323,-35.45724 25.00002,-50 50,-50 z"
       sodipodi:nodetypes="ccccccsscsscsccsccccccccscccss" /></g></svg>
