<?xml version="1.0" encoding="UTF-8" standalone="no"?>
<!-- Created with Inkscape (http://www.inkscape.org/) -->

<svg
   width="1200"
   height="1200"
   viewBox="0 0 1200 1200"
   version="1.1"
   id="svg1"
   inkscape:version="1.2.2 (732a01da63, 2022-12-09)"
   sodipodi:docname="58040_ship.svg"
   xml:space="preserve"
   xmlns:inkscape="http://www.inkscape.org/namespaces/inkscape"
   xmlns:sodipodi="http://sodipodi.sourceforge.net/DTD/sodipodi-0.dtd"
   xmlns="http://www.w3.org/2000/svg"
   xmlns:svg="http://www.w3.org/2000/svg"><sodipodi:namedview
     id="namedview1"
     pagecolor="#ffffff"
     bordercolor="#000000"
     borderopacity="0.25"
     inkscape:showpageshadow="2"
     inkscape:pageopacity="0.0"
     inkscape:pagecheckerboard="0"
     inkscape:deskcolor="#d1d1d1"
     inkscape:document-units="px"
     showgrid="true"
     inkscape:zoom="1.1116667"
     inkscape:cx="411.54422"
     inkscape:cy="535.23237"
     inkscape:window-width="3840"
     inkscape:window-height="2066"
     inkscape:window-x="-11"
     inkscape:window-y="-11"
     inkscape:window-maximized="1"
     inkscape:current-layer="layer1"
     showguides="false"><inkscape:grid
       id="grid1"
       units="px"
       originx="0"
       originy="0"
       spacingx="25"
       spacingy="25"
       empcolor="#0099e5"
       empopacity="0.30196078"
       color="#0099e5"
       opacity="0.14901961"
       empspacing="4"
       dotted="false"
       gridanglex="30"
       gridanglez="30"
       visible="true" /></sodipodi:namedview><defs
     id="defs1" /><g
     inkscape:label="Layer 1"
     inkscape:groupmode="layer"
     id="layer1"><path
       style="opacity:0.453441;fill:#000000;fill-opacity:0.555319;fill-rule:evenodd"
       d="M 725,700 675,500 H 800 V 400 h 100 v 100 h 200 V 700 H 900 V 600 H 775 l 25,100 z"
       id="path6"
       sodipodi:nodetypes="ccccccccccccc" /><path
       style="opacity:0.453441;fill:#000000;fill-opacity:0.555319;fill-rule:evenodd"
       d="m 400,700 c 0,0 0,-325 0,-350 0,-25 -25,-50 -50,-50 -25,0 -50,25 -50,50 0,25 0,350 0,350 z"
       id="path7" /><path
       style="opacity:0.453441;fill:#000000;fill-opacity:0.555319;fill-rule:evenodd"
       d="M 300,500 175,375 c -25,-25 -50,-25 -75,0 -25,25 0,50 25,75 l 175,175 z"
       id="path8"
       sodipodi:nodetypes="cssscc" /><path
       id="path5"
       style="opacity:0.453441;fill-opacity:0.555319;fill-rule:evenodd"
       d="m 450,725 a 25,25 0 0 1 -25,25 25,25 0 0 1 -25,-25 25,25 0 0 1 25,-25 25,25 0 0 1 25,25 z m -100,0 a 25,25 0 0 1 -25,25 25,25 0 0 1 -25,-25 25,25 0 0 1 25,-25 25,25 0 0 1 25,25 z m -100,0 a 25,25 0 0 1 -25,25 25,25 0 0 1 -25,-25 25,25 0 0 1 25,-25 25,25 0 0 1 25,25 z m -100,0 a 25,25 0 0 1 -25,25 25,25 0 0 1 -25,-25 25,25 0 0 1 25,-25 25,25 0 0 1 25,25 z M 0,700 c 0,50 50,100 100,150 100,100 150,150 200,150 h 800 L 1200,800 V 700 H 600 L 500,650 H 0 Z" /><path
       id="path6-0"
       style="opacity:0.453441;fill:#000000;fill-opacity:0.555319;fill-rule:evenodd"
       d="m 350,300 c -24.99998,0 -50,25.00002 -50,50 V 500 L 175,375 c -24.99998,-24.99998 -50.00002,-24.99998 -75,0 -24.999975,24.99998 2e-5,50.00002 25,75 l 175,175 v 25 H 0 v 50 c 0,49.99995 50.00005,100.00005 100,150 99.9999,99.9999 150.00005,150 200,150 h 800 L 1200,800 V 700 H 1100 V 500 H 900 V 400 H 800 V 500 H 675 l 50,200 H 600 L 500,650 H 400 V 350 c 0,-24.99998 -25.00002,-50 -50,-50 z M 775,600 H 900 V 700 H 800 Z M 125,700 a 25,25 0 0 1 25,25 25,25 0 0 1 -25,25 25,25 0 0 1 -25,-25 25,25 0 0 1 25,-25 z m 100,0 a 25,25 0 0 1 25,25 25,25 0 0 1 -25,25 25,25 0 0 1 -25,-25 25,25 0 0 1 25,-25 z m 100,0 a 25,25 0 0 1 25,25 25,25 0 0 1 -25,25 25,25 0 0 1 -25,-25 25,25 0 0 1 25,-25 z m 100,0 a 25,25 0 0 1 25,25 25,25 0 0 1 -25,25 25,25 0 0 1 -25,-25 25,25 0 0 1 25,-25 z" /></g></svg>
