<?xml version="1.0" encoding="UTF-8" standalone="no"?>
<!-- Created with Inkscape (http://www.inkscape.org/) -->

<svg
   width="1200"
   height="1200"
   viewBox="0 0 1200 1200"
   version="1.1"
   id="svg1"
   inkscape:version="1.3 (0e150ed6c4, 2023-07-21)"
   sodipodi:docname="58040_ship.svg"
   xml:space="preserve"
   xmlns:inkscape="http://www.inkscape.org/namespaces/inkscape"
   xmlns:sodipodi="http://sodipodi.sourceforge.net/DTD/sodipodi-0.dtd"
   xmlns="http://www.w3.org/2000/svg"
   xmlns:svg="http://www.w3.org/2000/svg"><sodipodi:namedview
     id="namedview1"
     pagecolor="#ffffff"
     bordercolor="#000000"
     borderopacity="0.25"
     inkscape:showpageshadow="2"
     inkscape:pageopacity="0.0"
     inkscape:pagecheckerboard="0"
     inkscape:deskcolor="#d1d1d1"
     inkscape:document-units="px"
     showgrid="true"
     inkscape:zoom="1.1116667"
     inkscape:cx="501.04946"
     inkscape:cy="535.68214"
     inkscape:window-width="2560"
     inkscape:window-height="1494"
     inkscape:window-x="-11"
     inkscape:window-y="-11"
     inkscape:window-maximized="1"
     inkscape:current-layer="layer1"
     showguides="false"><inkscape:grid
       id="grid1"
       units="px"
       originx="0"
       originy="0"
       spacingx="25"
       spacingy="25"
       empcolor="#0099e5"
       empopacity="0.30196078"
       color="#0099e5"
       opacity="0.14901961"
       empspacing="4"
       dotted="false"
       gridanglex="30"
       gridanglez="30"
       visible="true" /></sodipodi:namedview><defs
     id="defs1" /><g
     inkscape:label="Layer 1"
     inkscape:groupmode="layer"
     id="layer1"><path
       style="opacity:0.453441;fill:#000000;fill-opacity:0.555319;fill-rule:evenodd"
       d="M 725,600 675,400 H 800 V 300 h 100 v 100 h 200 V 600 H 900 V 500 H 775 l 25,100 z"
       id="path6"
       sodipodi:nodetypes="ccccccccccccc" /><path
       style="opacity:0.453441;fill:#000000;fill-opacity:0.555319;fill-rule:evenodd"
       d="m 400,600 c 0,0 0,-325 0,-350 0,-25 -25,-50 -50,-50 -25,0 -50,25 -50,50 0,25 0,350 0,350 z"
       id="path7" /><path
       style="opacity:0.453441;fill:#000000;fill-opacity:0.555319;fill-rule:evenodd"
       d="M 300,400 175,275 c -25,-25 -50,-25 -75,0 -25,25 0,50 25,75 l 175,175 z"
       id="path8"
       sodipodi:nodetypes="cssscc" /><path
       id="path5"
       style="opacity:0.453441;fill-opacity:0.555319;fill-rule:evenodd"
       d="m 450,625 a 25,25 0 0 1 -25,25 25,25 0 0 1 -25,-25 25,25 0 0 1 25,-25 25,25 0 0 1 25,25 z m -100,0 a 25,25 0 0 1 -25,25 25,25 0 0 1 -25,-25 25,25 0 0 1 25,-25 25,25 0 0 1 25,25 z m -100,0 a 25,25 0 0 1 -25,25 25,25 0 0 1 -25,-25 25,25 0 0 1 25,-25 25,25 0 0 1 25,25 z m -100,0 a 25,25 0 0 1 -25,25 25,25 0 0 1 -25,-25 25,25 0 0 1 25,-25 25,25 0 0 1 25,25 z M 0,600 c 0,50 50,100 100,150 100,100 150,150 200,150 h 800 L 1200,700 V 600 H 600 L 500,550 H 0 Z" /><path
       id="path6-0"
       style="opacity:0.453441;fill:#000000;fill-opacity:0.555319;fill-rule:evenodd"
       d="M 350 200 C 325.00002 200 300 225.00002 300 250 L 300 400 L 175 275 C 150.00002 250.00002 124.99998 250.00002 100 275 C 75.000025 299.99998 100.00002 325.00002 125 350 L 300 525 L 300 550 L 0 550 L 0 600 C 0 649.99995 50.00005 700.00005 100 750 C 199.9999 849.9999 250.00005 900 300 900 L 1100 900 L 1200 700 L 1200 600 L 1100 600 L 1100 400 L 900 400 L 900 300 L 800 300 L 800 400 L 675 400 L 725 600 L 600 600 L 500 550 L 400 550 L 400 250 C 400 225.00002 374.99998 200 350 200 z M 775 500 L 900 500 L 900 600 L 800 600 L 775 500 z M 125 600 A 25 25 0 0 1 150 625 A 25 25 0 0 1 125 650 A 25 25 0 0 1 100 625 A 25 25 0 0 1 125 600 z M 225 600 A 25 25 0 0 1 250 625 A 25 25 0 0 1 225 650 A 25 25 0 0 1 200 625 A 25 25 0 0 1 225 600 z M 325 600 A 25 25 0 0 1 350 625 A 25 25 0 0 1 325 650 A 25 25 0 0 1 300 625 A 25 25 0 0 1 325 600 z M 425 600 A 25 25 0 0 1 450 625 A 25 25 0 0 1 425 650 A 25 25 0 0 1 400 625 A 25 25 0 0 1 425 600 z " /></g></svg>
