<?xml version="1.0" encoding="UTF-8" standalone="no"?>
<!-- Created with Inkscape (http://www.inkscape.org/) -->

<svg
   width="800"
   height="800"
   viewBox="0 0 800 800"
   version="1.1"
   id="svg1"
   inkscape:version="1.2.1 (9c6d41e410, 2022-07-14)"
   sodipodi:docname="399_schwa-capital.svg"
   xml:space="preserve"
   xmlns:inkscape="http://www.inkscape.org/namespaces/inkscape"
   xmlns:sodipodi="http://sodipodi.sourceforge.net/DTD/sodipodi-0.dtd"
   xmlns="http://www.w3.org/2000/svg"
   xmlns:svg="http://www.w3.org/2000/svg"><sodipodi:namedview
     id="namedview1"
     pagecolor="#ffffff"
     bordercolor="#000000"
     borderopacity="0.25"
     inkscape:showpageshadow="2"
     inkscape:pageopacity="0.0"
     inkscape:pagecheckerboard="0"
     inkscape:deskcolor="#d1d1d1"
     inkscape:document-units="px"
     showgrid="true"
     inkscape:zoom="0.78606706"
     inkscape:cx="220.083"
     inkscape:cy="422.9919"
     inkscape:window-width="1080"
     inkscape:window-height="1230"
     inkscape:window-x="3640"
     inkscape:window-y="172"
     inkscape:window-maximized="0"
     inkscape:current-layer="layer1-5"
     showguides="false"><inkscape:grid
       id="grid1"
       units="px"
       originx="0"
       originy="0"
       spacingx="25"
       spacingy="25"
       empcolor="#0099e5"
       empopacity="0.30196078"
       color="#0099e5"
       opacity="0.14901961"
       empspacing="4"
       dotted="false"
       gridanglex="30"
       gridanglez="30"
       visible="true" /></sodipodi:namedview><defs
     id="defs1" /><g
     inkscape:label="Layer 1"
     inkscape:groupmode="layer"
     id="layer1"><g
       inkscape:label="Layer 1"
       id="layer1-5"><path
         id="path352-3-2-9"
         style="fill:#000000;fill-opacity:0.555319;fill-rule:evenodd;stroke:none;stroke-width:3px;stroke-linecap:butt;stroke-linejoin:miter;stroke-opacity:1"
         d="m 0,425 c -0.31804001,77.22613 75.000001,175 150,175 74.99999,0 149.99999,-100 149.99999,-175 L 300,275 C 300,200 225.44312,100.63608 150,100 50.003551,99.15691 1.075e-6,150 1.075e-6,200 H 99.999999 150 c 24.99996,0 49.99999,25.00004 49.99999,50 L 200,300 H 1.1075e-5 Z m 150,100 c -24.99996,0 -50.000001,-25.00004 -50.000001,-50 l 1.1e-5,-75 H 200 l -1e-5,75 c 0,24.99996 -25.00003,50 -49.99999,50 z"
         sodipodi:nodetypes="czsssccsscccssccss" /></g></g></svg>
