<?xml version="1.0" encoding="UTF-8" standalone="no"?>
<!-- Created with Inkscape (http://www.inkscape.org/) -->

<svg
   width="1200"
   height="1200"
   viewBox="0 0 1200 1200"
   version="1.1"
   id="svg1"
   inkscape:version="1.3 (0e150ed6c4, 2023-07-21)"
   sodipodi:docname="1028_ukr-ie-capital.svg"
   xml:space="preserve"
   xmlns:inkscape="http://www.inkscape.org/namespaces/inkscape"
   xmlns:sodipodi="http://sodipodi.sourceforge.net/DTD/sodipodi-0.dtd"
   xmlns="http://www.w3.org/2000/svg"
   xmlns:svg="http://www.w3.org/2000/svg"><sodipodi:namedview
     id="namedview1"
     pagecolor="#ffffff"
     bordercolor="#000000"
     borderopacity="0.25"
     inkscape:showpageshadow="2"
     inkscape:pageopacity="0.0"
     inkscape:pagecheckerboard="0"
     inkscape:deskcolor="#d1d1d1"
     inkscape:document-units="px"
     showgrid="true"
     inkscape:zoom="0.78606706"
     inkscape:cx="290.05159"
     inkscape:cy="652.61607"
     inkscape:window-width="1276"
     inkscape:window-height="1481"
     inkscape:window-x="1262"
     inkscape:window-y="0"
     inkscape:window-maximized="0"
     inkscape:current-layer="layer1"
     showguides="false"><inkscape:grid
       id="grid1"
       units="px"
       originx="0"
       originy="0"
       spacingx="25"
       spacingy="25"
       empcolor="#0099e5"
       empopacity="0.30196078"
       color="#0099e5"
       opacity="0.14901961"
       empspacing="4"
       dotted="false"
       gridanglex="30"
       gridanglez="30"
       visible="true" /></sodipodi:namedview><defs
     id="defs1" /><g
     inkscape:label="Layer 1"
     inkscape:groupmode="layer"
     id="layer1"><path
       id="path2"
       style="fill:#000000;fill-opacity:0.555319;fill-rule:evenodd;stroke-width:0.999873"
       d="M 700,725 H 600 C 600,775 524.55688,901.27216 400,900 275.00652,898.72338 200,750 200,625 v -50 c 0,-125 75,-275 200,-275 125,0 200,125 200,175 H 700 L 699.996,298.35733 C 634.50183,242.98803 535.65622,200 400,200 175,200 0,375 0,575 v 50 c 0,200 175,375 400,375 135.01144,0 233.868,-42.1807 299.52804,-96.95833 z"
       sodipodi:nodetypes="ccsssscccsssscc" /><rect
       style="opacity:0.453441;fill:#000000;fill-opacity:0.576596;fill-rule:evenodd"
       id="rect1"
       width="375"
       height="100"
       x="-500"
       y="500"
       transform="scale(-1,1)" /><path
       id="path2-7"
       style="fill:#000000;fill-opacity:0.555319;fill-rule:evenodd;stroke-width:0.999873"
       d="m 400,200 c 135.65608,0 234.50199,42.98818 299.99609,98.35742 L 700,475 H 600 C 600,425.00005 524.99988,300 400,300 299.48497,300 231.39622,397.00872 208.54102,500 H 500 V 600 H 200 v 25 c 0,124.99988 75.00664,273.72338 200,275 124.55676,1.27216 200,-125.00005 200,-175 h 100 l -0.47266,178.04102 C 633.86737,957.81859 535.0113,1000 400,1000 175.00023,1000 0,824.9998 0,625 V 575 C 0,375.0002 175.00023,200 400,200 Z" /></g></svg>
