<?xml version="1.0" encoding="UTF-8" standalone="no"?>
<!-- Created with Inkscape (http://www.inkscape.org/) -->

<svg
   width="1200"
   height="1200"
   viewBox="0 0 1200 1200"
   version="1.1"
   id="svg1"
   inkscape:version="1.2.2 (732a01da63, 2022-12-09)"
   sodipodi:docname="1044_de-capital.svg"
   xml:space="preserve"
   xmlns:inkscape="http://www.inkscape.org/namespaces/inkscape"
   xmlns:sodipodi="http://sodipodi.sourceforge.net/DTD/sodipodi-0.dtd"
   xmlns="http://www.w3.org/2000/svg"
   xmlns:svg="http://www.w3.org/2000/svg"><sodipodi:namedview
     id="namedview1"
     pagecolor="#ffffff"
     bordercolor="#000000"
     borderopacity="0.25"
     inkscape:showpageshadow="2"
     inkscape:pageopacity="0.0"
     inkscape:pagecheckerboard="0"
     inkscape:deskcolor="#d1d1d1"
     inkscape:document-units="px"
     showgrid="true"
     inkscape:zoom="1.1116667"
     inkscape:cx="147.07646"
     inkscape:cy="645.87704"
     inkscape:window-width="3840"
     inkscape:window-height="2066"
     inkscape:window-x="-11"
     inkscape:window-y="-11"
     inkscape:window-maximized="1"
     inkscape:current-layer="layer1"
     showguides="false"><inkscape:grid
       id="grid1"
       units="px"
       originx="0"
       originy="0"
       spacingx="25"
       spacingy="25"
       empcolor="#0099e5"
       empopacity="0.30196078"
       color="#0099e5"
       opacity="0.14901961"
       empspacing="4"
       dotted="false"
       gridanglex="30"
       gridanglez="30"
       visible="true" /></sodipodi:namedview><defs
     id="defs1" /><g
     inkscape:label="Layer 1"
     inkscape:groupmode="layer"
     id="layer1"><path
       id="rect1"
       style="opacity:0.453441;fill:#000000;fill-opacity:0.576596;fill-rule:evenodd"
       d="m 225,200 v 50 L 100,750 C 75.205069,849.17972 49.99995,900 0,900 v 100 h 50 c 149.99985,0 175.00002,-100.0001 200,-200 L 375,300 h 125 v 700 H 700 V 300 200 Z"
       sodipodi:nodetypes="ccscccsccccccc" /><path
       style="opacity:0.453441;fill:#000000;fill-opacity:0.576596;fill-rule:evenodd"
       d="M 800,1125 V 900 H 0 v 225 h 100 v -125 h 600 v 125 z"
       id="path2"
       sodipodi:nodetypes="ccccccccc" /><path
       id="rect1-1"
       style="opacity:0.453441;fill:#000000;fill-opacity:0.576596;fill-rule:evenodd"
       d="M 225 200 L 225 250 L 100 750 C 75.205094 849.17962 49.9999 900 0 900 L 0 1000 L 0 1125 L 100 1125 L 100 1000 L 500 1000 L 700 1000 L 700 1125 L 800 1125 L 800 900 L 700 900 L 700 300 L 700 200 L 225 200 z M 375 300 L 500 300 L 500 900 L 218.54688 900 C 232.49204 869.43515 241.30814 834.76744 250 800 L 375 300 z " /></g></svg>
