<?xml version="1.0" encoding="UTF-8" standalone="no"?>
<!-- Created with Inkscape (http://www.inkscape.org/) -->

<svg
   width="1200"
   height="1200"
   viewBox="0 0 1200 1200"
   version="1.1"
   id="svg1"
   inkscape:version="1.3 (0e150ed6c4, 2023-07-21)"
   sodipodi:docname="1069_e-capital.svg"
   xml:space="preserve"
   xmlns:inkscape="http://www.inkscape.org/namespaces/inkscape"
   xmlns:sodipodi="http://sodipodi.sourceforge.net/DTD/sodipodi-0.dtd"
   xmlns="http://www.w3.org/2000/svg"
   xmlns:svg="http://www.w3.org/2000/svg"><sodipodi:namedview
     id="namedview1"
     pagecolor="#ffffff"
     bordercolor="#000000"
     borderopacity="0.25"
     inkscape:showpageshadow="2"
     inkscape:pageopacity="0.0"
     inkscape:pagecheckerboard="0"
     inkscape:deskcolor="#d1d1d1"
     inkscape:document-units="px"
     showgrid="true"
     inkscape:zoom="0.78606706"
     inkscape:cx="290.05159"
     inkscape:cy="652.61607"
     inkscape:window-width="1276"
     inkscape:window-height="1481"
     inkscape:window-x="1262"
     inkscape:window-y="0"
     inkscape:window-maximized="0"
     inkscape:current-layer="layer1"
     showguides="false"><inkscape:grid
       id="grid1"
       units="px"
       originx="0"
       originy="0"
       spacingx="25"
       spacingy="25"
       empcolor="#0099e5"
       empopacity="0.30196078"
       color="#0099e5"
       opacity="0.14901961"
       empspacing="4"
       dotted="false"
       gridanglex="30"
       gridanglez="30"
       visible="true" /></sodipodi:namedview><defs
     id="defs1" /><g
     inkscape:label="Layer 1"
     inkscape:groupmode="layer"
     id="layer1"><path
       id="path2"
       style="fill:#000000;fill-opacity:0.555319;fill-rule:evenodd;stroke-width:0.999873"
       d="m 0,725 h 100 c 0,50 75.44312,176.27216 200,175 124.99348,-1.27662 200,-150 200,-275 V 575 C 500,450 425,300 300,300 175,300 100,425 100,475 H 0 L 0.004,298.35733 C 65.49817,242.98803 164.34378,200 300,200 c 225,0 400,175 400,375 v 50 C 700,825 525,1000 300,1000 164.98856,1000 66.132,957.8193 0.47196,903.04167 Z"
       sodipodi:nodetypes="ccsssscccsssscc" /><rect
       style="opacity:0.453441;fill:#000000;fill-opacity:0.576596;fill-rule:evenodd"
       id="rect1"
       width="375"
       height="100"
       x="200"
       y="500" /><path
       id="path2-7"
       style="fill:#000000;fill-opacity:0.555319;fill-rule:evenodd;stroke-width:0.999873"
       d="M 300 200 C 164.34392 200 65.498011 242.98818 0.00390625 298.35742 L 0 475 L 100 475 C 100 425.00005 175.00012 300 300 300 C 400.51503 300 468.60378 397.00872 491.45898 500 L 200 500 L 200 600 L 500 600 L 500 625 C 500 749.99988 424.99336 898.72338 300 900 C 175.44324 901.27216 100 774.99995 100 725 L 0 725 L 0.47265625 903.04102 C 66.132631 957.81859 164.9887 1000 300 1000 C 524.99977 1000 700 824.9998 700 625 L 700 575 C 700 375.0002 524.99977 200 300 200 z " /></g></svg>
