<?xml version="1.0" encoding="UTF-8" standalone="no"?>
<!-- Created with Inkscape (http://www.inkscape.org/) -->

<svg
   width="1200"
   height="1200"
   viewBox="0 0 1200 1200"
   version="1.1"
   id="svg1"
   inkscape:version="1.3 (0e150ed6c4, 2023-07-21)"
   sodipodi:docname="1070_yu-capital.svg"
   xml:space="preserve"
   xmlns:inkscape="http://www.inkscape.org/namespaces/inkscape"
   xmlns:sodipodi="http://sodipodi.sourceforge.net/DTD/sodipodi-0.dtd"
   xmlns="http://www.w3.org/2000/svg"
   xmlns:svg="http://www.w3.org/2000/svg"><sodipodi:namedview
     id="namedview1"
     pagecolor="#ffffff"
     bordercolor="#000000"
     borderopacity="0.25"
     inkscape:showpageshadow="2"
     inkscape:pageopacity="0.0"
     inkscape:pagecheckerboard="0"
     inkscape:deskcolor="#d1d1d1"
     inkscape:document-units="px"
     showgrid="true"
     inkscape:zoom="0.78606706"
     inkscape:cx="220.083"
     inkscape:cy="652.61607"
     inkscape:window-width="1276"
     inkscape:window-height="1481"
     inkscape:window-x="1262"
     inkscape:window-y="0"
     inkscape:window-maximized="0"
     inkscape:current-layer="layer1"
     showguides="false"><inkscape:grid
       id="grid1"
       units="px"
       originx="0"
       originy="0"
       spacingx="25"
       spacingy="25"
       empcolor="#0099e5"
       empopacity="0.30196078"
       color="#0099e5"
       opacity="0.14901961"
       empspacing="4"
       dotted="false"
       gridanglex="30"
       gridanglez="30"
       visible="true" /></sodipodi:namedview><defs
     id="defs1" /><g
     inkscape:label="Layer 1"
     inkscape:groupmode="layer"
     id="layer1"><path
       id="path2-8"
       style="fill:#000000;fill-opacity:0.555319;fill-rule:evenodd;stroke-width:0.999873"
       d="M 900,625 V 575 C 900,450 825,300 700,300 575,300 500,450 500,575 v 50 c 0,125 75.00652,273.72338 200,275 124.99348,-1.27662 200,-150 200,-275 z m -600,0 v -50 c 0,-200 175,-375 400,-375 225,0 400,175 400,375 v 50 c 0,200 -175,375 -400,375 -225,0 -400,-175 -400,-375 z"
       sodipodi:nodetypes="ssssscssssssss" /><path
       id="rect365"
       style="opacity:0.504444;fill:#000000;fill-opacity:0.56;stroke-width:4;stroke-linecap:square;paint-order:stroke markers fill"
       d="M 0 200 L 0 1000 L 200 1000 L 200 675 L 375 675 L 375 525 L 200 525 L 200 200 L 0 200 z " /><path
       id="path2-8-3"
       style="fill:#000000;fill-opacity:0.555319;fill-rule:evenodd;stroke-width:0.999873"
       d="M 0 200 L 0 1000 L 200 1000 L 200 675 L 303.76758 675 C 330.00269 853.2742 493.99316 1000 700 1000 C 924.99977 1000 1100 824.9998 1100 625 L 1100 575 C 1100 375.0002 924.99977 200 700 200 C 493.99316 200 330.00269 346.7258 303.76758 525 L 200 525 L 200 200 L 0 200 z M 700 300 C 824.99987 300 900 450.00013 900 575 L 900 625 C 900 749.99988 824.99336 898.72338 700 900 C 575.00664 898.72338 500 749.99987 500 625 L 500 575 C 500 450.00013 575.00013 300 700 300 z " /></g></svg>
