<?xml version="1.0" encoding="UTF-8" standalone="no"?>
<!-- Created with Inkscape (http://www.inkscape.org/) -->

<svg
   width="1200"
   height="1200"
   viewBox="0 0 1200 1200"
   version="1.1"
   id="svg1"
   inkscape:version="1.2.2 (732a01da63, 2022-12-09)"
   sodipodi:docname="1073_be-small.svg"
   xml:space="preserve"
   xmlns:inkscape="http://www.inkscape.org/namespaces/inkscape"
   xmlns:sodipodi="http://sodipodi.sourceforge.net/DTD/sodipodi-0.dtd"
   xmlns="http://www.w3.org/2000/svg"
   xmlns:svg="http://www.w3.org/2000/svg"><sodipodi:namedview
     id="namedview1"
     pagecolor="#ffffff"
     bordercolor="#000000"
     borderopacity="0.25"
     inkscape:showpageshadow="2"
     inkscape:pageopacity="0.0"
     inkscape:pagecheckerboard="0"
     inkscape:deskcolor="#d1d1d1"
     inkscape:document-units="px"
     showgrid="true"
     inkscape:zoom="1.5721341"
     inkscape:cx="103.36268"
     inkscape:cy="681.23959"
     inkscape:window-width="3840"
     inkscape:window-height="2066"
     inkscape:window-x="-11"
     inkscape:window-y="-11"
     inkscape:window-maximized="1"
     inkscape:current-layer="layer1"
     showguides="false"><inkscape:grid
       id="grid1"
       units="px"
       originx="0"
       originy="0"
       spacingx="25"
       spacingy="25"
       empcolor="#0099e5"
       empopacity="0.30196078"
       color="#0099e5"
       opacity="0.14901961"
       empspacing="4"
       dotted="false"
       gridanglex="30"
       gridanglez="30"
       visible="true" /></sodipodi:namedview><defs
     id="defs1" /><g
     inkscape:label="Layer 1"
     inkscape:groupmode="layer"
     id="layer1"><path
       id="path2"
       style="fill:#000000;fill-opacity:0.555319;fill-rule:evenodd;stroke-width:0.999873"
       d="M 500,625 C 500,525 424.99982,400 250,400 75.000271,400.18455 1e-6,525.0001 1e-6,625 v 150 c 0,99.9999 75.00017,225 249.999999,225 199.9998,0 250,-125 250,-225 z m -300,0 c 0,-74.99992 5e-5,-125 50,-125 50,0 50,50.00008 50,125 v 150 c 0,74.61401 0,125 -50,125 -50.99412,0 -50,-50.00008 -50,-125 z"
       sodipodi:nodetypes="ccssscccsccscc" /><path
       style="fill:#000000;fill-opacity:0.555319;stroke:none;stroke-width:1px;stroke-linecap:butt;stroke-linejoin:miter;stroke-opacity:1"
       d="M 0,700 V 500 C 0,300 100,225 200,225 h 100 c 50,0 75,-25 75,-25 h 100 c 0,0 0,125 -125,125 H 250 c -75,0 -125,50 -125,175 v 200 z"
       id="path486"
       sodipodi:nodetypes="csssccssscc" /><path
       id="path2-9"
       style="fill:#000000;fill-opacity:0.555319;fill-rule:evenodd;stroke-width:0.999873"
       d="m 375,200 c 0,0 -25.00005,25 -75,25 H 200 C 100.0001,225 0,300.0002 0,500 v 125 75 75 c 0,99.9998 75.000346,225 250,225 199.9996,0 250,-125.0001 250,-225 V 625 c 0,-99.9999 -75.00035,-225 -250,-225 -45.53295,0.048 -84.2362,8.5887 -116.66992,22.87891 C 150.45109,354.03637 192.95853,325 250,325 H 350 C 474.99987,325 475,200 475,200 Z M 250,500 c 49.99995,0 50,50.00015 50,125 v 150 c 0,74.61394 -0.0187,123.63382 -50,125 -46.54155,1.27216 -50,-50.00015 -50,-125 V 625 c 0,-74.99985 1e-4,-125 50,-125 z"
       sodipodi:nodetypes="csssccssssccssccsssssss" /></g></svg>
