<?xml version="1.0" encoding="UTF-8" standalone="no"?>
<!-- Created with Inkscape (http://www.inkscape.org/) -->

<svg
   width="1200"
   height="1200"
   viewBox="0 0 1200 1200"
   version="1.1"
   id="svg1"
   inkscape:version="1.2.2 (732a01da63, 2022-12-09)"
   sodipodi:docname="1073_be-small.svg"
   xml:space="preserve"
   xmlns:inkscape="http://www.inkscape.org/namespaces/inkscape"
   xmlns:sodipodi="http://sodipodi.sourceforge.net/DTD/sodipodi-0.dtd"
   xmlns="http://www.w3.org/2000/svg"
   xmlns:svg="http://www.w3.org/2000/svg"><sodipodi:namedview
     id="namedview1"
     pagecolor="#ffffff"
     bordercolor="#000000"
     borderopacity="0.25"
     inkscape:showpageshadow="2"
     inkscape:pageopacity="0.0"
     inkscape:pagecheckerboard="0"
     inkscape:deskcolor="#d1d1d1"
     inkscape:document-units="px"
     showgrid="true"
     inkscape:zoom="0.78606706"
     inkscape:cx="209.26968"
     inkscape:cy="652.61608"
     inkscape:window-width="3840"
     inkscape:window-height="2066"
     inkscape:window-x="5749"
     inkscape:window-y="-11"
     inkscape:window-maximized="1"
     inkscape:current-layer="layer1"
     showguides="false"><inkscape:grid
       id="grid1"
       units="px"
       originx="0"
       originy="0"
       spacingx="25"
       spacingy="25"
       empcolor="#0099e5"
       empopacity="0.30196078"
       color="#0099e5"
       opacity="0.14901961"
       empspacing="4"
       dotted="false"
       gridanglex="30"
       gridanglez="30"
       visible="true" /></sodipodi:namedview><defs
     id="defs1" /><g
     inkscape:label="Layer 1"
     inkscape:groupmode="layer"
     id="layer1"><path
       id="path2"
       style="fill:#000000;fill-opacity:0.555319;fill-rule:evenodd;stroke-width:0.999873"
       d="M 500,625 C 500,525 424.99982,400 250,400 75.000271,400.18455 10e-7,525.0001 10e-7,625 v 150 c 0,99.9999 75.00017,225 249.999999,225 199.9998,0 250,-125 250,-225 z m -325,0 c 0,-74.99992 25.00005,-125 75,-125 50,0 75,50.00008 75,125 v 150 c 0,74.61401 -50.00886,125.66495 -75,125 -33.80805,-0.89955 -75,-50.00008 -75,-125 z"
       sodipodi:nodetypes="ccssscccsccscc" /><path
       style="fill:#000000;stroke:none;stroke-width:1px;stroke-linecap:butt;stroke-linejoin:miter;stroke-opacity:1;fill-opacity:0.55531901"
       d="M 0,700 V 500 C 0,300 100,225 200,225 h 100 c 50,0 75,-25 75,-25 h 100 c 0,0 0,125 -125,125 -28.34638,0 -75.09713,0 -100,0 -75,0 -125,50 -125,175 v 200 z"
       id="path486"
       sodipodi:nodetypes="csssccssscc" /><path
       id="path2-9"
       style="fill:#000000;fill-opacity:0.555319;fill-rule:evenodd;stroke-width:0.999873"
       d="M 375 200 C 375 200 349.99995 225 300 225 L 200 225 C 100.0001 225 6.938887e-16 300.0002 0 500 L 0 625 L 0 700 L 0 775 C 0 874.9998 75.000346 1000 250 1000 C 449.9996 1000 500 874.9999 500 775 L 500 625 C 500 525.0001 424.99965 400 250 400 C 204.46705 400.04802 165.7638 408.5887 133.33008 422.87891 C 150.45109 354.03637 192.95853 325 250 325 L 350 325 C 474.99987 325 475 200 475 200 L 375 200 z M 250 500 C 299.99995 500 325 550.00015 325 625 L 325 775 C 325 849.61394 274.99112 900.66495 250 900 C 216.19198 899.10045 175 849.99985 175 775 L 175 625 C 175 550.00015 200.0001 500 250 500 z " /></g></svg>
