<?xml version="1.0" encoding="UTF-8" standalone="no"?>
<!-- Created with Inkscape (http://www.inkscape.org/) -->

<svg
   width="1200"
   height="1200"
   viewBox="0 0 1200 1200"
   version="1.1"
   id="svg1"
   inkscape:version="1.3 (0e150ed6c4, 2023-07-21)"
   sodipodi:docname="1076_de-small.svg"
   xml:space="preserve"
   xmlns:inkscape="http://www.inkscape.org/namespaces/inkscape"
   xmlns:sodipodi="http://sodipodi.sourceforge.net/DTD/sodipodi-0.dtd"
   xmlns="http://www.w3.org/2000/svg"
   xmlns:svg="http://www.w3.org/2000/svg"><sodipodi:namedview
     id="namedview1"
     pagecolor="#ffffff"
     bordercolor="#000000"
     borderopacity="0.25"
     inkscape:showpageshadow="2"
     inkscape:pageopacity="0.0"
     inkscape:pagecheckerboard="0"
     inkscape:deskcolor="#d1d1d1"
     inkscape:document-units="px"
     showgrid="true"
     inkscape:zoom="0.78606706"
     inkscape:cx="209.90576"
     inkscape:cy="653.25215"
     inkscape:window-width="2560"
     inkscape:window-height="1494"
     inkscape:window-x="-11"
     inkscape:window-y="-11"
     inkscape:window-maximized="1"
     inkscape:current-layer="layer1-7"
     showguides="false"><inkscape:grid
       id="grid1"
       units="px"
       originx="0"
       originy="0"
       spacingx="25"
       spacingy="25"
       empcolor="#0099e5"
       empopacity="0.30196078"
       color="#0099e5"
       opacity="0.14901961"
       empspacing="4"
       dotted="false"
       gridanglex="30"
       gridanglez="30"
       visible="true" /></sodipodi:namedview><defs
     id="defs1" /><g
     inkscape:label="Layer 1"
     inkscape:groupmode="layer"
     id="layer1"><g
       inkscape:label="Layer 1"
       id="layer1-7"><path
         style="opacity:0.453441;fill:#000000;fill-opacity:0.576596;fill-rule:evenodd;stroke-width:0.75"
         d="M 700,1100 V 900 H 0 v 200 h 100 v -100 h 500 v 100 z"
         id="path2"
         sodipodi:nodetypes="ccccccccc" /><path
         id="rect1"
         style="opacity:0.453441;fill:#000000;fill-opacity:0.576596;fill-rule:evenodd;stroke-width:0.75"
         d="M 175,400 75,800 C 56.403802,874.38479 37.49996,900 0,900 v 100 h 81.25 c 112.49989,0 137.5,-75 168.75,-200 l 75,-300 h 75 v 500 H 600 V 475 400 Z"
         sodipodi:nodetypes="cscccsccccccc" /><path
         id="path2-4"
         style="opacity:0.453441;fill:#000000;fill-opacity:0.576596;fill-rule:evenodd;stroke-width:0.75"
         d="M 175 400 L 75 800 C 56.403821 874.38472 37.499923 900 0 900 L 0 1000 L 0 1100 L 100 1100 L 100 1000 L 400 1000 L 600 1000 L 600 1100 L 700 1100 L 700 900 L 600 900 L 600 475 L 600 400 L 175 400 z M 325 500 L 400 500 L 400 900 L 220.33203 900 C 231.4234 871.81502 240.42929 838.28284 250 800 L 325 500 z " /></g></g></svg>
