<?xml version="1.0" encoding="UTF-8" standalone="no"?>
<!-- Created with Inkscape (http://www.inkscape.org/) -->

<svg
   width="1200"
   height="1200"
   viewBox="0 0 1200 1200"
   version="1.1"
   id="svg1"
   inkscape:version="1.3 (0e150ed6c4, 2023-07-21)"
   sodipodi:docname="1079_ze-small.svg"
   xml:space="preserve"
   xmlns:inkscape="http://www.inkscape.org/namespaces/inkscape"
   xmlns:sodipodi="http://sodipodi.sourceforge.net/DTD/sodipodi-0.dtd"
   xmlns="http://www.w3.org/2000/svg"
   xmlns:svg="http://www.w3.org/2000/svg"><sodipodi:namedview
     id="namedview1"
     pagecolor="#ffffff"
     bordercolor="#000000"
     borderopacity="0.25"
     inkscape:showpageshadow="2"
     inkscape:pageopacity="0.0"
     inkscape:pagecheckerboard="0"
     inkscape:deskcolor="#d1d1d1"
     inkscape:document-units="px"
     showgrid="true"
     inkscape:zoom="0.55583335"
     inkscape:cx="12.593703"
     inkscape:cy="252.77361"
     inkscape:window-width="2560"
     inkscape:window-height="1494"
     inkscape:window-x="-11"
     inkscape:window-y="-11"
     inkscape:window-maximized="1"
     inkscape:current-layer="layer1"
     showguides="false"><inkscape:grid
       id="grid1"
       units="px"
       originx="0"
       originy="0"
       spacingx="25"
       spacingy="25"
       empcolor="#0099e5"
       empopacity="0.30196078"
       color="#0099e5"
       opacity="0.14901961"
       empspacing="4"
       dotted="false"
       gridanglex="30"
       gridanglez="30"
       visible="true" /></sodipodi:namedview><defs
     id="defs1" /><g
     inkscape:label="Layer 1"
     inkscape:groupmode="layer"
     id="layer1"><path
       style="fill:#000000;fill-opacity:0.555319;stroke:none;stroke-width:1.09545px;stroke-linecap:butt;stroke-linejoin:miter;stroke-opacity:1"
       d="m 0,425 c 0,0 50,-25 200,-25 150,0 298.83954,50.00673 300,150 0.89955,77.51125 -206.48426,225 -300,225 H 100 V 625 h 100 c 75,0 100,-25 100,-50 0,-50 -50,-75 -150,-75 C 50,500 0,525 0,525 Z"
       id="path19625"
       sodipodi:nodetypes="csssccssscc" /><path
       style="fill:#000000;fill-opacity:0.555319;stroke:none;stroke-width:1.09545px;stroke-linecap:butt;stroke-linejoin:miter;stroke-opacity:1"
       d="m 0,975 c 0,0 50,25 200,25 150,0 298.83954,-50.00673 300,-150 C 500.89955,772.48875 293.51574,625 200,625 H 100 v 150 h 100 c 75,0 100,25 100,50 0,50 -50,75 -150,75 C 50,900 0,875 0,875 Z"
       id="path19625-2"
       sodipodi:nodetypes="csssccssscc" /><path
       id="path19625-8"
       style="fill:#000000;fill-opacity:0.555319;stroke:none;stroke-width:1.09545px;stroke-linecap:butt;stroke-linejoin:miter;stroke-opacity:1"
       d="m 200,400 c 149.99985,0 298.83954,50.00683 300,150 0.47731,41.12827 -57.69001,101.9555 -126.36914,150 C 442.30999,748.0445 500.47731,808.87173 500,850 498.83954,949.99317 349.99985,1000 200,1000 50.00015,1000 0,975 0,975 V 875 c 0,0 50.0001,25 150,25 99.9999,0 150,-25.00005 150,-75 0,-24.99997 -25.00007,-50 -100,-50 H 100 V 625 h 100 c 74.99993,0 100,-25.00003 100,-50 0,-49.99995 -50.0001,-75 -150,-75 C 50.0001,500 0,525 0,525 V 425 c 0,0 50.00015,-25 200,-25 z" /></g></svg>
