<?xml version="1.0" encoding="UTF-8" standalone="no"?>
<!-- Created with Inkscape (http://www.inkscape.org/) -->

<svg
   width="1200"
   height="1200"
   viewBox="0 0 1200 1200"
   version="1.1"
   id="svg1"
   inkscape:version="1.3 (0e150ed6c4, 2023-07-21)"
   sodipodi:docname="1101_e-small.svg"
   xml:space="preserve"
   xmlns:inkscape="http://www.inkscape.org/namespaces/inkscape"
   xmlns:sodipodi="http://sodipodi.sourceforge.net/DTD/sodipodi-0.dtd"
   xmlns="http://www.w3.org/2000/svg"
   xmlns:svg="http://www.w3.org/2000/svg"><sodipodi:namedview
     id="namedview1"
     pagecolor="#ffffff"
     bordercolor="#000000"
     borderopacity="0.25"
     inkscape:showpageshadow="2"
     inkscape:pageopacity="0.0"
     inkscape:pagecheckerboard="0"
     inkscape:deskcolor="#d1d1d1"
     inkscape:document-units="px"
     showgrid="true"
     inkscape:zoom="0.78606706"
     inkscape:cx="283.69081"
     inkscape:cy="652.61608"
     inkscape:window-width="1276"
     inkscape:window-height="1481"
     inkscape:window-x="1262"
     inkscape:window-y="0"
     inkscape:window-maximized="0"
     inkscape:current-layer="layer1"
     showguides="false"><inkscape:grid
       id="grid1"
       units="px"
       originx="0"
       originy="0"
       spacingx="25"
       spacingy="25"
       empcolor="#0099e5"
       empopacity="0.30196078"
       color="#0099e5"
       opacity="0.14901961"
       empspacing="4"
       dotted="false"
       gridanglex="30"
       gridanglez="30"
       visible="true" /></sodipodi:namedview><defs
     id="defs1" /><g
     inkscape:label="Layer 1"
     inkscape:groupmode="layer"
     id="layer1"><path
       id="path2"
       style="fill:#000000;fill-opacity:0.555319;fill-rule:evenodd;stroke-width:0.749905"
       d="m 0,793.75 h 100 c 0,37.5 56.58234,132.20412 150,131.25 93.74511,-0.95746 150,-112.5 150,-225 0,-112.5 -56.25,-225 -150,-225 -93.75,0 -150,93.75 -150,131.25 H 0 L 0.003,473.768 C 49.123627,432.24102 148.25784,400 250,400 418.75,400 600,525 600,700 600,875 418.75,1000 250,1000 148.74142,1000 49.599,968.36447 0.35397,927.28125 Z"
       sodipodi:nodetypes="ccszscccszscc" /><rect
       style="opacity:0.453441;fill:#000000;fill-opacity:0.576596;fill-rule:evenodd;stroke-width:0.75"
       id="rect1"
       width="231.25"
       height="100"
       x="200"
       y="600" /><path
       id="path2-8"
       style="fill:#000000;fill-opacity:0.555319;fill-rule:evenodd;stroke-width:0.749905"
       d="M 250 400 C 148.25794 400 49.124484 432.24064 0.00390625 473.76758 L 0 606.25 L 100 606.25 C 100 568.75004 156.25009 475 250 475 C 315.0671 475 362.01297 529.22825 384.68359 600 L 200 600 L 200 700 L 400 700 C 400 812.49989 343.74502 924.04254 250 925 C 156.58243 925.95412 100 831.24996 100 793.75 L 0 793.75 L 0.35351562 927.28125 C 49.598496 968.36443 148.74152 1000 250 1000 C 418.74983 1000 600 874.99982 600 700 C 600 525.00018 418.74983 400 250 400 z " /></g></svg>
