<?xml version="1.0" encoding="UTF-8" standalone="no"?>
<!-- Created with Inkscape (http://www.inkscape.org/) -->

<svg
   width="1200"
   height="1200"
   viewBox="0 0 1200 1200"
   version="1.1"
   id="svg1"
   inkscape:version="1.3 (0e150ed6c4, 2023-07-21)"
   sodipodi:docname="1102_yu-small.svg"
   xml:space="preserve"
   xmlns:inkscape="http://www.inkscape.org/namespaces/inkscape"
   xmlns:sodipodi="http://sodipodi.sourceforge.net/DTD/sodipodi-0.dtd"
   xmlns="http://www.w3.org/2000/svg"
   xmlns:svg="http://www.w3.org/2000/svg"><sodipodi:namedview
     id="namedview1"
     pagecolor="#ffffff"
     bordercolor="#000000"
     borderopacity="0.25"
     inkscape:showpageshadow="2"
     inkscape:pageopacity="0.0"
     inkscape:pagecheckerboard="0"
     inkscape:deskcolor="#d1d1d1"
     inkscape:document-units="px"
     showgrid="true"
     inkscape:zoom="0.78606706"
     inkscape:cx="226.44378"
     inkscape:cy="302.77315"
     inkscape:window-width="1276"
     inkscape:window-height="1481"
     inkscape:window-x="1262"
     inkscape:window-y="0"
     inkscape:window-maximized="0"
     inkscape:current-layer="layer1"
     showguides="false"><inkscape:grid
       id="grid1"
       units="px"
       originx="0"
       originy="0"
       spacingx="25"
       spacingy="25"
       empcolor="#0099e5"
       empopacity="0.30196078"
       color="#0099e5"
       opacity="0.14901961"
       empspacing="4"
       dotted="false"
       gridanglex="30"
       gridanglez="30"
       visible="true" /></sodipodi:namedview><defs
     id="defs1" /><g
     inkscape:label="Layer 1"
     inkscape:groupmode="layer"
     id="layer1"><path
       id="rect1"
       style="opacity:0.453441;fill:#000000;fill-opacity:0.576596;fill-rule:evenodd;stroke-width:0.716305"
       d="M 0 400 L 0 1000 L 200 1000 L 200 775 L 340.625 775 L 340.625 625 L 200 625 L 200 400 L 0 400 z " /><path
       id="path2-1"
       style="fill:#000000;fill-opacity:0.555319;fill-rule:evenodd;stroke-width:0.999873"
       d="M 800,625 C 800,525 724.99982,400 550,400 375.00027,400.18455 300,525.0001 300,625 v 150 c 0,99.9999 75.00017,225 250,225 199.9998,0 250,-125 250,-225 z m -325,0 c 0,-74.99992 25.00005,-125 75,-125 50,0 75,50.00008 75,125 v 150 c 0,74.61401 -50.00886,125.66495 -75,125 -33.80805,-0.89955 -75,-50.00008 -75,-125 z"
       sodipodi:nodetypes="ccssscccsccscc" /><path
       id="rect1-0"
       style="opacity:0.453441;fill:#000000;fill-opacity:0.576596;fill-rule:evenodd;stroke-width:0.716305"
       d="M 0 400 L 0 1000 L 200 1000 L 200 775 L 300 775 C 300 874.9998 375.00034 1000 550 1000 C 749.9996 1000 800 874.9999 800 775 L 800 625 C 800 525.0001 724.99965 400 550 400 C 375.00044 400.18455 300 525.0002 300 625 L 200 625 L 200 400 L 0 400 z M 550 500 C 599.99995 500 625 550.00015 625 625 L 625 775 C 625 849.61394 574.99112 900.66495 550 900 C 516.19198 899.10045 475 849.99985 475 775 L 475 625 C 475 550.00015 500.0001 500 550 500 z " /></g></svg>
