<?xml version="1.0" encoding="UTF-8" standalone="no"?>
<!-- Created with Inkscape (http://www.inkscape.org/) -->

<svg
   width="2000"
   height="2000"
   viewBox="0 0 2000 2000"
   version="1.1"
   id="svg1"
   inkscape:version="1.2.2 (732a01da63, 2022-12-09)"
   sodipodi:docname="162_cent-sign.svg"
   xml:space="preserve"
   xmlns:inkscape="http://www.inkscape.org/namespaces/inkscape"
   xmlns:sodipodi="http://sodipodi.sourceforge.net/DTD/sodipodi-0.dtd"
   xmlns="http://www.w3.org/2000/svg"
   xmlns:svg="http://www.w3.org/2000/svg"><sodipodi:namedview
     id="namedview1"
     pagecolor="#ffffff"
     bordercolor="#000000"
     borderopacity="0.25"
     inkscape:showpageshadow="2"
     inkscape:pageopacity="0.0"
     inkscape:pagecheckerboard="0"
     inkscape:deskcolor="#d1d1d1"
     inkscape:document-units="px"
     showgrid="true"
     inkscape:zoom="0.78606706"
     inkscape:cx="597.27729"
     inkscape:cy="983.37666"
     inkscape:window-width="3840"
     inkscape:window-height="2066"
     inkscape:window-x="-11"
     inkscape:window-y="-11"
     inkscape:window-maximized="1"
     inkscape:current-layer="layer1"
     showguides="false"><inkscape:grid
       id="grid1"
       units="px"
       originx="0"
       originy="0"
       spacingx="25"
       spacingy="25"
       empcolor="#0099e5"
       empopacity="0.30196078"
       color="#0099e5"
       opacity="0.14901961"
       empspacing="4"
       dotted="false"
       gridanglex="30"
       gridanglez="30"
       visible="true" /></sodipodi:namedview><defs
     id="defs1" /><g
     inkscape:label="Layer 1"
     inkscape:groupmode="layer"
     id="layer1"><path
       style="fill:#000000;fill-opacity:0.555319;stroke:none;stroke-width:1px;stroke-linecap:butt;stroke-linejoin:miter;stroke-opacity:1"
       d="m 800,700 c -149.98024,-2.43466 -400,134.33284 -400,400 0,265.6672 250,400 400,400 225,0 400,-100 400,-100 v 100 c 0,0 -174.9459,102.2439 -400,100 -392.74172,-3.9158 -700,-200 -700,-500 0,-300 300,-500 700,-500 225,0 399.3639,101.05535 400,200 0.6428,99.99793 -70,130 -145,130 C 937.216,930 905,880 905,830 905,715 1025,725 1025,725 965.87455,710.26148 897.95935,701.5902 800,700 Z"
       id="path124467"
       sodipodi:nodetypes="szsccszsssscs" /><rect
       style="opacity:0.523596;fill:#000000;fill-opacity:0.555319;fill-rule:evenodd;stroke-width:100;stroke-linecap:round;stroke-linejoin:round;stroke-miterlimit:4.5;stop-color:#000000"
       id="rect6643"
       width="200"
       height="1200"
       x="600"
       y="500" /><path
       id="path124467-8"
       style="fill:#000000;fill-opacity:0.555319;stroke:none;stroke-width:1px;stroke-linecap:butt;stroke-linejoin:miter;stroke-opacity:1"
       d="M 600 500 L 600 618.03125 C 304.1193 673.33144 100 852.59871 100 1100 C 100 1346.6757 307.81584 1522.983 600 1580.082 L 600 1700 L 800 1700 L 800 1600 C 1025.0539 1602.2439 1200 1500 1200 1500 L 1200 1400 C 1200 1400 1024.9998 1500 800 1500 L 800 700 C 897.95925 701.5902 965.87461 710.26149 1025 725 C 1025 725 905 715.00012 905 830 C 905 879.99995 937.21612 930 1055 930 C 1129.9999 930 1200.6428 899.99783 1200 800 C 1199.3639 701.05545 1024.9998 600 800 600 L 800 500 L 600 500 z M 600 759.95703 L 600 1438.9883 C 493.25078 1375.3889 400 1262.2298 400 1100 C 400 937.77407 493.25267 823.70981 600 759.95703 z " /></g></svg>
