<?xml version="1.0" encoding="UTF-8" standalone="no"?>
<!-- Created with Inkscape (http://www.inkscape.org/) -->

<svg
   width="2000"
   height="2000"
   viewBox="0 0 2000 2000"
   version="1.1"
   id="svg1"
   inkscape:version="1.2.2 (732a01da63, 2022-12-09)"
   sodipodi:docname="164_currency-sign.svg"
   xml:space="preserve"
   xmlns:inkscape="http://www.inkscape.org/namespaces/inkscape"
   xmlns:sodipodi="http://sodipodi.sourceforge.net/DTD/sodipodi-0.dtd"
   xmlns="http://www.w3.org/2000/svg"
   xmlns:svg="http://www.w3.org/2000/svg"><sodipodi:namedview
     id="namedview1"
     pagecolor="#ffffff"
     bordercolor="#000000"
     borderopacity="0.25"
     inkscape:showpageshadow="2"
     inkscape:pageopacity="0.0"
     inkscape:pagecheckerboard="0"
     inkscape:deskcolor="#d1d1d1"
     inkscape:document-units="px"
     showgrid="true"
     inkscape:zoom="0.78606706"
     inkscape:cx="621.44825"
     inkscape:cy="720.04035"
     inkscape:window-width="3840"
     inkscape:window-height="2066"
     inkscape:window-x="-11"
     inkscape:window-y="-11"
     inkscape:window-maximized="1"
     inkscape:current-layer="layer1-5"
     showguides="false"><inkscape:grid
       id="grid1"
       units="px"
       originx="0"
       originy="0"
       spacingx="25"
       spacingy="25"
       empcolor="#0099e5"
       empopacity="0.30196078"
       color="#0099e5"
       opacity="0.14901961"
       empspacing="4"
       dotted="false"
       gridanglex="30"
       gridanglez="30"
       visible="true" /></sodipodi:namedview><defs
     id="defs1" /><g
     inkscape:label="Layer 1"
     inkscape:groupmode="layer"
     id="layer1"><g
       id="g851"
       transform="matrix(1.5,0,0,1,-1050.0001,0)"><g
         inkscape:label="Layer 1"
         id="layer1-5"
         transform="matrix(0.66666667,0,0,1,633.33337,0)"><path
           id="path8202"
           style="fill:#000000;fill-opacity:0.555319;stroke:none;stroke-width:0.5px;stroke-linecap:butt;stroke-linejoin:miter;stroke-opacity:1"
           d="m 800,500.00015 c 273.4629,-0.89955 350,200.00037 350,399.99994 C 1150,1099.9997 1074.9974,1301.1294 800,1300 525.0026,1298.8707 450.00005,1099.9997 450.00005,900.00009 450.00005,700.00052 526.53707,500.8997 800,500.00015 Z M 800,400 c -277.77722,0 -500,222.22278 -500,500 0,277.7772 222.22278,500 500,500 277.7772,0 500,-222.2228 500,-500 0,-277.77722 -222.2228,-500 -500,-500 z" /><path
           id="rect8205-5"
           style="opacity:0.489888;stroke-width:100;stroke-linecap:round;stroke-linejoin:round;stroke-miterlimit:4.5;stop-color:#000000"
           d="M 446.4466,1112.132 587.86795,1253.5534 340.38059,1501.0407 198.95924,1359.6194 Z M 1259.6194,298.95924 1401.0407,440.38057 1153.5534,687.86797 1012.132,546.4466 Z"
           sodipodi:nodetypes="cccccccccc" /><path
           id="rect8205-5-2"
           style="opacity:0.489888;stroke-width:100;stroke-linecap:round;stroke-linejoin:round;stroke-miterlimit:4.5;stop-color:#000000"
           d="M 587.86798,546.44662 446.44658,687.86798 198.9593,440.38059 340.3806,298.95924 Z m 813.17282,813.17278 -141.4215,141.4213 -247.4873,-247.4873 141.4214,-141.4214 z"
           sodipodi:nodetypes="cccccccccc" /><path
           id="path8202-0"
           style="fill:#000000;fill-opacity:0.555319;stroke:none;stroke-width:0.5px;stroke-linecap:butt;stroke-linejoin:miter;stroke-opacity:1"
           d="M 340.38086 298.95898 L 198.95899 440.38086 L 382.36719 623.78711 C 330.29187 702.7513 300 797.57171 300 900 C 300 1002.4283 330.29187 1097.2487 382.36719 1176.2129 L 198.95899 1359.6191 L 340.38086 1501.041 L 523.78711 1317.6328 C 602.7513 1369.7081 697.57171 1400 800 1400 C 902.42829 1400 997.2487 1369.7081 1076.2129 1317.6328 L 1259.6191 1501.041 L 1401.041 1359.6191 L 1217.6328 1176.2129 C 1269.7081 1097.2487 1300 1002.4283 1300 900 C 1300 797.57171 1269.7081 702.7513 1217.6328 623.78711 L 1401.041 440.38086 L 1259.6191 298.95898 L 1076.2129 482.36719 C 997.2487 430.29187 902.42829 400 800 400 C 697.57171 400 602.7513 430.29187 523.78711 482.36719 L 340.38086 298.95898 z M 800 500 C 1073.4626 499.10045 1150 700.00063 1150 900 C 1150 1099.9994 1074.9971 1301.1294 800 1300 C 525.00288 1298.8707 450 1099.9994 450 900 C 450 700.00063 526.53735 500.89955 800 500 z " /></g></g></g></svg>
