<?xml version="1.0" encoding="UTF-8" standalone="no"?>
<!-- Created with Inkscape (http://www.inkscape.org/) -->

<svg
   width="2000"
   height="2000"
   viewBox="0 0 2000 2000"
   version="1.1"
   id="svg1"
   inkscape:version="1.2.2 (732a01da63, 2022-12-09)"
   sodipodi:docname="165_yen-sign.svg"
   xml:space="preserve"
   xmlns:inkscape="http://www.inkscape.org/namespaces/inkscape"
   xmlns:sodipodi="http://sodipodi.sourceforge.net/DTD/sodipodi-0.dtd"
   xmlns="http://www.w3.org/2000/svg"
   xmlns:svg="http://www.w3.org/2000/svg"><sodipodi:namedview
     id="namedview1"
     pagecolor="#ffffff"
     bordercolor="#000000"
     borderopacity="0.25"
     inkscape:showpageshadow="2"
     inkscape:pageopacity="0.0"
     inkscape:pagecheckerboard="0"
     inkscape:deskcolor="#d1d1d1"
     inkscape:document-units="px"
     showgrid="true"
     inkscape:zoom="0.78606706"
     inkscape:cx="705.41055"
     inkscape:cy="915.95239"
     inkscape:window-width="1920"
     inkscape:window-height="2066"
     inkscape:window-x="5749"
     inkscape:window-y="-11"
     inkscape:window-maximized="0"
     inkscape:current-layer="layer1"
     showguides="false"><inkscape:grid
       id="grid1"
       units="px"
       originx="0"
       originy="0"
       spacingx="25"
       spacingy="25"
       empcolor="#0099e5"
       empopacity="0.30196078"
       color="#0099e5"
       opacity="0.14901961"
       empspacing="4"
       dotted="false"
       gridanglex="30"
       gridanglez="30"
       visible="true" /></sodipodi:namedview><defs
     id="defs1" /><g
     inkscape:label="Layer 1"
     inkscape:groupmode="layer"
     id="layer1"><path
       style="fill:#000000;fill-opacity:0.555319;stroke:none;stroke-width:1px;stroke-linecap:butt;stroke-linejoin:miter;stroke-opacity:1"
       d="m 100,200 v 100 h 150 l 350,700 v 500 H 400 v 100 h 700 V 1500 H 900 v -400 l 400,-800 h 200 V 200 h -500 v 100 h 150 L 850,900 550,300 H 700 V 200 Z"
       id="path34002"
       sodipodi:nodetypes="cccccccccccccccccccccc" /><rect
       style="opacity:0.489888;fill:#000000;fill-rule:evenodd;stroke-width:100;stroke-linecap:round;stroke-linejoin:round;stroke-miterlimit:4.5;stop-color:#000000"
       id="rect5426"
       width="1100"
       height="100"
       x="200"
       y="1000" /><rect
       style="opacity:0.489888;fill:#000000;fill-rule:evenodd;stroke-width:100;stroke-linecap:round;stroke-linejoin:round;stroke-miterlimit:4.5;stop-color:#000000"
       id="rect5428"
       width="1100"
       height="100"
       x="200"
       y="1200" /><path
       id="path34002-5"
       style="fill:#000000;fill-opacity:0.555319;stroke:none;stroke-width:1px;stroke-linecap:butt;stroke-linejoin:miter;stroke-opacity:1"
       d="M 100 200 L 100 300 L 250 300 L 600 1000 L 200 1000 L 200 1100 L 600 1100 L 600 1200 L 200 1200 L 200 1300 L 600 1300 L 600 1500 L 400 1500 L 400 1600 L 1100 1600 L 1100 1500 L 900 1500 L 900 1300 L 1300 1300 L 1300 1200 L 900 1200 L 900 1100 L 1300 1100 L 1300 1000 L 950 1000 L 1300 300 L 1500 300 L 1500 200 L 1000 200 L 1000 300 L 1150 300 L 850 900 L 550 300 L 700 300 L 700 200 L 100 200 z " /></g></svg>
