<?xml version="1.0" encoding="UTF-8" standalone="no"?>
<!-- Created with Inkscape (http://www.inkscape.org/) -->

<svg
   width="2000"
   height="2000"
   viewBox="0 0 2000 2000"
   version="1.1"
   id="svg1"
   inkscape:version="1.2.2 (732a01da63, 2022-12-09)"
   sodipodi:docname="167_section-sign.svg"
   xml:space="preserve"
   xmlns:inkscape="http://www.inkscape.org/namespaces/inkscape"
   xmlns:sodipodi="http://sodipodi.sourceforge.net/DTD/sodipodi-0.dtd"
   xmlns="http://www.w3.org/2000/svg"
   xmlns:svg="http://www.w3.org/2000/svg"><sodipodi:namedview
     id="namedview1"
     pagecolor="#ffffff"
     bordercolor="#000000"
     borderopacity="0.25"
     inkscape:showpageshadow="2"
     inkscape:pageopacity="0.0"
     inkscape:pagecheckerboard="0"
     inkscape:deskcolor="#d1d1d1"
     inkscape:document-units="px"
     showgrid="true"
     inkscape:zoom="0.78606706"
     inkscape:cx="1240.9883"
     inkscape:cy="1063.5225"
     inkscape:window-width="3840"
     inkscape:window-height="2066"
     inkscape:window-x="-11"
     inkscape:window-y="-11"
     inkscape:window-maximized="1"
     inkscape:current-layer="layer1"
     showguides="false"><inkscape:grid
       id="grid1"
       units="px"
       originx="0"
       originy="0"
       spacingx="10"
       spacingy="10"
       empcolor="#0099e5"
       empopacity="0.30196078"
       color="#0099e5"
       opacity="0.14901961"
       empspacing="10"
       dotted="false"
       gridanglex="30"
       gridanglez="30"
       visible="true" /></sodipodi:namedview><defs
     id="defs1" /><g
     inkscape:label="Layer 1"
     inkscape:groupmode="layer"
     id="layer1"><path
       id="path8529-2"
       style="fill:#000000;fill-opacity:0.555319;fill-rule:evenodd;stroke:none;stroke-width:1px;stroke-linecap:butt;stroke-linejoin:miter;stroke-opacity:1"
       d="m 1200,1000 c -2.5443,309.4054 -500,400 -500,400 L 600,1300 c 0,0 300,2.5443 300,-200 0,-200.57285 -700,-200 -700,-550 0,-210 250,-350 500,-350 250,0 400,75 400,250 0,50 -30,150 -150,150 -157.7811,0 -130,-180 -50,-180 0,-40 -70,-110 -200,-110 -130,0 -198.72241,115.00653 -200,240 -2.54431,248.92426 702.4669,150.01014 700,450 z"
       sodipodi:nodetypes="sccsszssczss" /><path
       id="path8529-2-4"
       style="fill:#000000;fill-opacity:0.555319;fill-rule:evenodd;stroke:none;stroke-width:1px;stroke-linecap:butt;stroke-linejoin:miter;stroke-opacity:1"
       d="M 100,1200 C 102.5443,890.59456 600,799.99996 600,799.99996 l 100,100 c 0,0 -300.00004,-2.5443 -300.00004,200.00004 0,200.5728 700.00004,200 700.00004,550 0,210 -250,350 -500,350 -249.99996,0 -399.99996,-75 -399.99996,-250 0,-50 30,-150 150,-150 157.78106,0 129.99996,180 50,180 0,40 69.99996,110 199.99996,110 130,0 198.72241,-115.0066 200,-240 2.54431,-248.9243 -702.4669,-150.0102 -700,-450 z"
       sodipodi:nodetypes="sccsszssczss" /><path
       id="path8529-2-2"
       style="fill:#000000;fill-opacity:0.555319;fill-rule:evenodd;stroke:none;stroke-width:1px;stroke-linecap:butt;stroke-linejoin:miter;stroke-opacity:1"
       d="M 700 200 C 450.00025 200 200 340.00021 200 550 C 200 692.819 316.57499 777.24611 454.56445 840.80469 C 307.50727 892.90702 101.6359 1001.0621 100 1200 C 97.533102 1499.9895 802.54431 1401.0759 800 1650 C 798.72241 1774.9933 729.99987 1890 600 1890 C 470.00013 1890 400 1820 400 1780 C 479.99988 1780 507.7809 1600 350 1600 C 230.00012 1600 200 1700.0001 200 1750 C 200 1924.9998 350.00029 2000 600 2000 C 849.99975 2000 1100 1859.9998 1100 1650 C 1100 1507.181 983.42502 1422.7539 845.43555 1359.1953 C 992.49273 1307.093 1198.3641 1198.9378 1200 1000 C 1202.4669 700.01044 497.45569 798.92401 500 550 C 501.27759 425.00665 570.00013 310 700 310 C 829.99987 310 900 380.00004 900 420 C 820.00008 420 792.21906 600 950 600 C 1069.9999 600 1100 499.99995 1100 450 C 1100 275.00018 949.99975 200 700 200 z M 619.24414 907.48242 C 767.92389 963.63835 900 1013.2223 900 1100 C 900 1233.6664 769.61767 1277.8137 680.75586 1292.5176 C 532.0761 1236.3616 400 1186.7777 400 1100 C 400 966.33362 530.38232 922.18634 619.24414 907.48242 z " /></g></svg>
