<?xml version="1.0" encoding="UTF-8" standalone="no"?>
<!-- Created with Inkscape (http://www.inkscape.org/) -->

<svg
   width="2000"
   height="2000"
   viewBox="0 0 2000 2000"
   version="1.1"
   id="svg1"
   inkscape:version="1.2.2 (732a01da63, 2022-12-09)"
   sodipodi:docname="169_copyright-sign.svg"
   xml:space="preserve"
   xmlns:inkscape="http://www.inkscape.org/namespaces/inkscape"
   xmlns:sodipodi="http://sodipodi.sourceforge.net/DTD/sodipodi-0.dtd"
   xmlns="http://www.w3.org/2000/svg"
   xmlns:svg="http://www.w3.org/2000/svg"><sodipodi:namedview
     id="namedview1"
     pagecolor="#ffffff"
     bordercolor="#000000"
     borderopacity="0.25"
     inkscape:showpageshadow="2"
     inkscape:pageopacity="0.0"
     inkscape:pagecheckerboard="0"
     inkscape:deskcolor="#d1d1d1"
     inkscape:document-units="px"
     showgrid="true"
     inkscape:zoom="0.78606706"
     inkscape:cx="562.92907"
     inkscape:cy="961.75001"
     inkscape:window-width="3840"
     inkscape:window-height="2066"
     inkscape:window-x="5749"
     inkscape:window-y="-11"
     inkscape:window-maximized="1"
     inkscape:current-layer="layer1"
     showguides="true"><inkscape:grid
       id="grid1"
       units="px"
       originx="0"
       originy="0"
       spacingx="10"
       spacingy="10"
       empcolor="#0099e5"
       empopacity="0.30196078"
       color="#0099e5"
       opacity="0.14901961"
       empspacing="10"
       dotted="false"
       gridanglex="30"
       gridanglez="30"
       visible="true" /></sodipodi:namedview><defs
     id="defs1" /><g
     inkscape:label="Layer 1"
     inkscape:groupmode="layer"
     id="layer1"><path
       id="path124467-0"
       style="fill:#000000;fill-opacity:0.555319;stroke:none;stroke-width:1px;stroke-linecap:butt;stroke-linejoin:miter;stroke-opacity:1"
       d="m 1000,190 c -499.999,0 -900,410.001 -900,910 0,499.999 400.001,900 900,900 499.999,0 900,-400.001 900,-900 0,-499.999 -400.001,-910 -900,-910 z m 0,110 c 546.9259,-1.7991 700,400.0008 700,800 0,399.9992 -150.0051,792.2587 -700,790 -549.99487,-2.2587 -700,-390.0008 -700,-790 0,-399.9992 153.07406,-798.2009 700,-800 z"
       sodipodi:nodetypes="zzzzzzzzzz" /><path
       style="fill:#000000;fill-opacity:0.555319;stroke:none;stroke-width:0.692px;stroke-linecap:butt;stroke-linejoin:miter;stroke-opacity:1"
       d="M 1438.5714,1435.7143 C 1405.051,1478.5714 1304.4898,1600 1036.3265,1600 835.20408,1600 500,1421.4287 500,1099.9999 500,778.57144 835.20408,599.99998 1036.3265,599.99999 1210,600 1300,680 1300,680 v -80 h 100 v 300 h -50 C 1276.1541,782.67989 1238.9488,701.92759 1070,700 835.37064,697.323 800,850.00009 800,1100 c 0,250 35.35718,400 270,400 234.6429,0 335.2041,-128.5713 368.7245,-164.2855 z"
       id="path53405"
       sodipodi:nodetypes="cszscccccszscc" /></g></svg>
