<?xml version="1.0" encoding="UTF-8" standalone="no"?>
<!-- Created with Inkscape (http://www.inkscape.org/) -->

<svg
   width="2000"
   height="2000"
   viewBox="0 0 2000 2000"
   version="1.1"
   id="svg1"
   inkscape:version="1.2.2 (732a01da63, 2022-12-09)"
   sodipodi:docname="170_female-ordinal.svg"
   xml:space="preserve"
   xmlns:inkscape="http://www.inkscape.org/namespaces/inkscape"
   xmlns:sodipodi="http://sodipodi.sourceforge.net/DTD/sodipodi-0.dtd"
   xmlns="http://www.w3.org/2000/svg"
   xmlns:svg="http://www.w3.org/2000/svg"><sodipodi:namedview
     id="namedview1"
     pagecolor="#ffffff"
     bordercolor="#000000"
     borderopacity="0.25"
     inkscape:showpageshadow="2"
     inkscape:pageopacity="0.0"
     inkscape:pagecheckerboard="0"
     inkscape:deskcolor="#d1d1d1"
     inkscape:document-units="px"
     showgrid="true"
     inkscape:zoom="1.1116667"
     inkscape:cx="487.10643"
     inkscape:cy="673.7631"
     inkscape:window-width="3840"
     inkscape:window-height="2066"
     inkscape:window-x="-11"
     inkscape:window-y="-11"
     inkscape:window-maximized="1"
     inkscape:current-layer="layer1"
     showguides="true"><inkscape:grid
       id="grid1"
       units="px"
       originx="0"
       originy="0"
       spacingx="10"
       spacingy="10"
       empcolor="#0099e5"
       empopacity="0.30196078"
       color="#0099e5"
       opacity="0.14901961"
       empspacing="10"
       dotted="false"
       gridanglex="30"
       gridanglez="30"
       visible="true" /></sodipodi:namedview><defs
     id="defs1" /><g
     inkscape:label="Layer 1"
     inkscape:groupmode="layer"
     id="layer1"><path
       style="fill:#000000;fill-opacity:0.555319;stroke:none;stroke-width:0.7px;stroke-linecap:butt;stroke-linejoin:miter;stroke-opacity:1"
       d="m 100,549.95138 c 0,-209.99998 105,-350 385,-350 C 695.00007,196.45138 900,276 900,500 c 0,0 0,219 0,240 0,21 14,35 35,35 21,0 75,-107.04862 75,-107.04862 v 127 c 0,0 -46.07197,105 -140,105 C 786,899.95138 700,752.5 700,630 V 450 c 0,-105 -97.49993,-150 -220,-150 -105,0 -180,64.033 -180,250 0,185.96704 115,250 220,250 84,0 180,-93 180,-163 l 45.99993,83.5 C 745.99993,720.5 653,899.95138 520,899.95145 245.0729,898.17037 100,759.95138 100,549.95138 Z"
       id="path124467-0"
       sodipodi:nodetypes="zccssccsscczccccz" /><path
       id="path124467-0-3"
       style="fill:#000000;fill-opacity:0.555319;stroke:none;stroke-width:0.7px;stroke-linecap:butt;stroke-linejoin:miter;stroke-opacity:1"
       d="M 485 199.95117 C 205.00028 199.95117 100 339.9514 100 549.95117 C 100 759.95096 245.07317 898.17009 520 899.95117 C 616.20705 899.95112 691.26055 806.27981 725.54688 754.32812 C 757.24928 834.32105 813.99624 899.95117 870 899.95117 C 963.92794 899.95117 1010 794.95117 1010 794.95117 L 1010 667.95117 C 1010 667.95117 955.99998 775 935 775 C 914.00002 775 900 760.99998 900 740 L 900 500 C 900 276.00022 694.99986 196.45118 485 199.95117 z M 480 300 C 602.49995 300 700 345.00011 700 450 L 700 630 C 700 632.50077 700.25133 635.06388 700.32227 637.58398 L 700 637 C 700 706.99993 603.99992 800 520 800 C 415.00011 800 300 735.96685 300 550 C 300 364.03319 375.00011 300 480 300 z " /></g></svg>
