<?xml version="1.0" encoding="UTF-8" standalone="no"?>
<!-- Created with Inkscape (http://www.inkscape.org/) -->

<svg
   width="2000"
   height="2000"
   viewBox="0 0 2000 2000"
   version="1.1"
   id="svg1"
   inkscape:version="1.2.2 (732a01da63, 2022-12-09)"
   sodipodi:docname="178_2-superscript.svg"
   xml:space="preserve"
   xmlns:inkscape="http://www.inkscape.org/namespaces/inkscape"
   xmlns:sodipodi="http://sodipodi.sourceforge.net/DTD/sodipodi-0.dtd"
   xmlns="http://www.w3.org/2000/svg"
   xmlns:svg="http://www.w3.org/2000/svg"><sodipodi:namedview
     id="namedview1"
     pagecolor="#ffffff"
     bordercolor="#000000"
     borderopacity="0.25"
     inkscape:showpageshadow="2"
     inkscape:pageopacity="0.0"
     inkscape:pagecheckerboard="0"
     inkscape:deskcolor="#d1d1d1"
     inkscape:document-units="px"
     showgrid="true"
     inkscape:zoom="1.1116667"
     inkscape:cx="282.90854"
     inkscape:cy="698.05095"
     inkscape:window-width="3840"
     inkscape:window-height="2066"
     inkscape:window-x="-11"
     inkscape:window-y="-11"
     inkscape:window-maximized="1"
     inkscape:current-layer="layer1"
     showguides="false"><inkscape:grid
       id="grid1"
       units="px"
       originx="0"
       originy="0"
       spacingx="10"
       spacingy="10"
       empcolor="#0099e5"
       empopacity="0.30196078"
       color="#0099e5"
       opacity="0.14901961"
       empspacing="10"
       dotted="false"
       gridanglex="30"
       gridanglez="30"
       visible="true" /></sodipodi:namedview><defs
     id="defs1" /><g
     inkscape:label="Layer 1"
     inkscape:groupmode="layer"
     id="layer1"><path
       style="fill:#000000;fill-opacity:0.555319;fill-rule:evenodd;stroke:none;stroke-width:0.5px;stroke-linecap:butt;stroke-linejoin:miter;stroke-opacity:1"
       d="M 625,700 C 575,750.00001 525,800.00001 475,800.00001 L 225,800 c 0,0 62.49996,-87.5 225,-150 C 554.3512,609.86492 700,475 700,375 700,260 575.00004,200 400,200 c -175,0 -300,85 -300,160 0,76.08696 75,112.5 125,112.5 50,0 87.5,-37.5 87.5,-62.5 0,-25 -25,-62.5 -62.5,-62.5 -37.5,0 -50,12.5 -62.5,37.5 0,-62.5 50.00886,-85.44978 212.5,-85 114.99954,0.31832 150,40 150.00004,74.99999 7e-5,62.5 -48.6857,127.71997 -150.00004,175 C 212.5,637.49999 100,775 100,775 V 900 H 700.00004 V 699.99999 Z"
       id="path8529"
       sodipodi:nodetypes="cscssssssscsssccccc" /></g></svg>
