<?xml version="1.0" encoding="UTF-8" standalone="no"?>
<!-- Created with Inkscape (http://www.inkscape.org/) -->

<svg
   width="2000"
   height="2000"
   viewBox="0 0 2000 2000"
   version="1.1"
   id="svg1"
   inkscape:version="1.2.2 (732a01da63, 2022-12-09)"
   sodipodi:docname="179_3-superscript.svg"
   xml:space="preserve"
   xmlns:inkscape="http://www.inkscape.org/namespaces/inkscape"
   xmlns:sodipodi="http://sodipodi.sourceforge.net/DTD/sodipodi-0.dtd"
   xmlns="http://www.w3.org/2000/svg"
   xmlns:svg="http://www.w3.org/2000/svg"><sodipodi:namedview
     id="namedview1"
     pagecolor="#ffffff"
     bordercolor="#000000"
     borderopacity="0.25"
     inkscape:showpageshadow="2"
     inkscape:pageopacity="0.0"
     inkscape:pagecheckerboard="0"
     inkscape:deskcolor="#d1d1d1"
     inkscape:document-units="px"
     showgrid="true"
     inkscape:zoom="1.1116667"
     inkscape:cx="25.637181"
     inkscape:cy="455.1724"
     inkscape:window-width="3840"
     inkscape:window-height="2066"
     inkscape:window-x="-11"
     inkscape:window-y="-11"
     inkscape:window-maximized="1"
     inkscape:current-layer="layer1"
     showguides="false"><inkscape:grid
       id="grid1"
       units="px"
       originx="0"
       originy="0"
       spacingx="10"
       spacingy="10"
       empcolor="#0099e5"
       empopacity="0.30196078"
       color="#0099e5"
       opacity="0.14901961"
       empspacing="10"
       dotted="false"
       gridanglex="30"
       gridanglez="30"
       visible="true" /></sodipodi:namedview><defs
     id="defs1" /><g
     inkscape:label="Layer 1"
     inkscape:groupmode="layer"
     id="layer1"><path
       style="fill:#000000;fill-opacity:0.555319;fill-rule:evenodd;stroke:none;stroke-width:0.5px;stroke-linecap:butt;stroke-linejoin:miter;stroke-opacity:1"
       d="M 350,580 C 546.58919,578.55697 704.99998,462.49998 704.99998,374.99998 704.99998,274.99998 574.99999,200 400,200 c -180,0 -300,85 -300,160 0,76.08695 74.99999,112.5 124.99999,112.5 50,0 87.5,-37.5 87.5,-62.5 0,-25 -25,-62.5 -62.5,-62.5 -37.5,0 -50,12.5 -62.5,37.5 0,-62.5 47.50001,-85 212.50001,-85 112.49999,0 150,30 149.99998,74.99998 -3e-5,62.5 -3.33329,102.6975 -199.99998,105.00002"
       id="path8529-7"
       sodipodi:nodetypes="csssssscssc" /><path
       style="fill:#000000;fill-opacity:0.555319;fill-rule:evenodd;stroke:none;stroke-width:0.5px;stroke-linecap:butt;stroke-linejoin:miter;stroke-opacity:1"
       d="M 350,480 C 515.52069,476.05712 749.99998,537.49998 749.99998,674.99998 749.99998,787.5 599.99999,900 400,900 225,900 100,815 100,740 c 0,-76.08697 74.99999,-112.50002 124.99999,-112.50002 50,0 87.5,37.5 87.5,62.50002 0,25 -25,62.5 -62.5,62.5 -37.5,0 -50,-12.5 -62.5,-37.5 0,62.5 48.65955,85 212.50001,85 137.49999,0 200,-22.5 200,-110 0,-50 -75.00001,-110 -250,-110"
       id="path8529-6-7"
       sodipodi:nodetypes="csssssscscc" /><path
       id="path8529-7-2"
       style="fill:#000000;fill-opacity:0.555319;fill-rule:evenodd;stroke:none;stroke-width:0.5px;stroke-linecap:butt;stroke-linejoin:miter;stroke-opacity:1"
       d="M 400 200 C 220.00018 200 100 285.00007 100 360 C 100 436.08687 175.00005 472.5 225 472.5 C 274.99995 472.5 312.5 434.99998 312.5 410 C 312.5 385.00002 287.49996 347.5 250 347.5 C 212.50004 347.5 199.99999 360.00002 187.5 385 C 187.5 322.50006 235.00017 300 400 300 C 512.49988 300 550.00002 330.00006 550 375 C 549.99997 437.49994 546.66649 477.69748 350 480 L 350 580 C 524.99982 580 600 640.00005 600 690 C 600 777.49991 537.49985 800 400 800 C 236.1597 800 187.5 777.49994 187.5 715 C 199.99999 739.99997 212.50004 752.5 250 752.5 C 287.49996 752.5 312.5 714.99997 312.5 690 C 312.5 665.00001 274.99995 627.5 225 627.5 C 175.00005 627.5 100 663.91311 100 740 C 100 814.99992 225.00018 900 400 900 C 599.99979 900 750 787.49991 750 675 C 750 600.10483 680.38338 547.8249 590.28516 516.33594 C 660.8523 475.29515 705 421.17766 705 375 C 705 275.0001 574.99982 200 400 200 z " /></g></svg>
