<?xml version="1.0" encoding="UTF-8" standalone="no"?>
<!-- Created with Inkscape (http://www.inkscape.org/) -->

<svg
   width="2000"
   height="2000"
   viewBox="0 0 2000 2000"
   version="1.1"
   id="svg1"
   inkscape:version="1.2.2 (732a01da63, 2022-12-09)"
   sodipodi:docname="198_O-with-stroke.svg"
   xml:space="preserve"
   xmlns:inkscape="http://www.inkscape.org/namespaces/inkscape"
   xmlns:sodipodi="http://sodipodi.sourceforge.net/DTD/sodipodi-0.dtd"
   xmlns="http://www.w3.org/2000/svg"
   xmlns:svg="http://www.w3.org/2000/svg"><sodipodi:namedview
     id="namedview1"
     pagecolor="#ffffff"
     bordercolor="#000000"
     borderopacity="0.25"
     inkscape:showpageshadow="2"
     inkscape:pageopacity="0.0"
     inkscape:pagecheckerboard="0"
     inkscape:deskcolor="#d1d1d1"
     inkscape:document-units="px"
     showgrid="true"
     inkscape:zoom="1.1116667"
     inkscape:cx="856.82156"
     inkscape:cy="931.934"
     inkscape:window-width="3840"
     inkscape:window-height="2066"
     inkscape:window-x="-11"
     inkscape:window-y="-11"
     inkscape:window-maximized="1"
     inkscape:current-layer="layer1"
     showguides="false"><inkscape:grid
       id="grid1"
       units="px"
       originx="0"
       originy="0"
       spacingx="10"
       spacingy="10"
       empcolor="#0099e5"
       empopacity="0.30196078"
       color="#0099e5"
       opacity="0.14901961"
       empspacing="10"
       dotted="false"
       gridanglex="30"
       gridanglez="30"
       visible="true" /></sodipodi:namedview><defs
     id="defs1" /><g
     inkscape:label="Layer 1"
     inkscape:groupmode="layer"
     id="layer1"><path
       id="path48264"
       style="fill:#000000;fill-opacity:0.555319;fill-rule:evenodd;stroke:none;stroke-width:1px;stroke-linecap:butt;stroke-linejoin:miter;stroke-opacity:1"
       d="m 900,190 c -449.62469,1.57421 -800,360.00037 -800,710 0,349.9996 350,710 800,710 450,0 800,-360.0004 800,-710 0,-349.99963 -350.3753,-711.57421 -800,-710 z m 0,110 c 299.9997,0 400,300.0003 400,600 0,299.9997 -98.3511,600 -400,600 -301.6489,0 -400,-300.0003 -400,-600 0,-299.9997 100.0003,-600 400,-600 z"
       sodipodi:nodetypes="zzzzzzzzzz" /><path
       style="fill:#000000;stroke:none;stroke-width:1px;stroke-linecap:butt;stroke-linejoin:miter;stroke-opacity:1;fill-opacity:1;opacity:0.48539326"
       d="m 100,1500 v 100 H 200 L 1700,300 V 200 h -100 z"
       id="path20918" /><path
       id="path48264-6"
       style="fill:#000000;fill-opacity:0.555319;fill-rule:evenodd;stroke:none;stroke-width:1px;stroke-linecap:butt;stroke-linejoin:miter;stroke-opacity:1"
       d="M 900 190 C 450.37576 191.57421 100 550.00072 100 900 C 100 1055.3585 169.07359 1212.6131 285.13086 1339.5527 L 100 1500 L 100 1600 L 200 1600 L 389.61914 1435.6641 C 527.01817 1541.6756 704.00675 1610 900 1610 C 1349.9995 1610 1700 1249.9993 1700 900 C 1700 744.78312 1630.9834 587.35994 1515.0684 460.27344 L 1700 300 L 1700 200 L 1600 200 L 1410.7148 364.04688 C 1273.2195 257.70366 1096.059 189.31357 900 190 z M 900 300 C 1064.463 300 1168.7127 390.26023 1229.4375 521.1543 L 523.08008 1133.3301 C 507.22354 1059.2446 500 979.71346 500 900 C 500 600.0006 600.0006 300 900 300 z M 1276.7051 666.85547 C 1292.6731 740.88803 1300 820.35372 1300 900 C 1300 1199.9994 1201.6486 1500 900 1500 C 734.77701 1500 630.65311 1409.8965 570.16797 1279.1875 L 1276.7051 666.85547 z " /></g></svg>
