<?xml version="1.0" encoding="UTF-8" standalone="no"?>
<!-- Created with Inkscape (http://www.inkscape.org/) -->

<svg
   width="2000"
   height="2000"
   viewBox="0 0 2000 2000"
   version="1.1"
   id="svg1"
   inkscape:version="1.2.2 (732a01da63, 2022-12-09)"
   sodipodi:docname="223_sharp-s.svg"
   xml:space="preserve"
   xmlns:inkscape="http://www.inkscape.org/namespaces/inkscape"
   xmlns:sodipodi="http://sodipodi.sourceforge.net/DTD/sodipodi-0.dtd"
   xmlns="http://www.w3.org/2000/svg"
   xmlns:svg="http://www.w3.org/2000/svg"><sodipodi:namedview
     id="namedview1"
     pagecolor="#ffffff"
     bordercolor="#000000"
     borderopacity="0.25"
     inkscape:showpageshadow="2"
     inkscape:pageopacity="0.0"
     inkscape:pagecheckerboard="0"
     inkscape:deskcolor="#d1d1d1"
     inkscape:document-units="px"
     showgrid="true"
     inkscape:zoom="0.78606706"
     inkscape:cx="700.32193"
     inkscape:cy="1029.1743"
     inkscape:window-width="3840"
     inkscape:window-height="2066"
     inkscape:window-x="-11"
     inkscape:window-y="-11"
     inkscape:window-maximized="1"
     inkscape:current-layer="layer1"
     showguides="false"><inkscape:grid
       id="grid1"
       units="px"
       originx="0"
       originy="0"
       spacingx="10"
       spacingy="10"
       empcolor="#0099e5"
       empopacity="0.30196078"
       color="#0099e5"
       opacity="0.14901961"
       empspacing="10"
       dotted="false"
       gridanglex="30"
       gridanglez="30"
       visible="true" /></sodipodi:namedview><defs
     id="defs1" /><g
     inkscape:label="Layer 1"
     inkscape:groupmode="layer"
     id="layer1"><g
       inkscape:label="Layer 1"
       id="layer1-4"
       transform="translate(450,-400)"><path
         id="path8529-0"
         style="fill:#000000;fill-opacity:0.555319;fill-rule:evenodd;stroke:none;stroke-width:0.688846px;stroke-linecap:butt;stroke-linejoin:miter;stroke-opacity:1"
         d="m 430,1880 c 0,0 120,9.9999 120,-105 0,-49.9999 -32.21612,-100 -150,-100 -74.99993,0 -150,27.1712 -150,125 0,96.4311 98.57621,195.129 300,200 149.7748,0 500,-80 500,-400 0,-320 -330,-350 -330,-350 0,0 230,-100 230,-290 C 950,770 700,600 450,600 95.6832,600.63608 -150,770 -150,960 v 940 h -200 v 100 H 150 V 950 c 0,-110 90,-250 300,-250 120,0 200,140 200,250 0,110 -80,250 -200,250 v 100 h 100 c 120,0 200,130 200,300 0,170 -80,300 -200,300 -100.1396,0.8995 -120,-20 -120,-20 z"
         sodipodi:nodetypes="cssscscscsccccscsccsscc" /></g></g></svg>
