<?xml version="1.0" encoding="UTF-8" standalone="no"?>
<!-- Created with Inkscape (http://www.inkscape.org/) -->

<svg
   width="2000"
   height="2000"
   viewBox="0 0 2000 2000"
   version="1.1"
   id="svg1"
   inkscape:version="1.2.2 (732a01da63, 2022-12-09)"
   sodipodi:docname="230_ae.svg"
   xml:space="preserve"
   xmlns:inkscape="http://www.inkscape.org/namespaces/inkscape"
   xmlns:sodipodi="http://sodipodi.sourceforge.net/DTD/sodipodi-0.dtd"
   xmlns="http://www.w3.org/2000/svg"
   xmlns:svg="http://www.w3.org/2000/svg"><sodipodi:namedview
     id="namedview1"
     pagecolor="#ffffff"
     bordercolor="#000000"
     borderopacity="0.25"
     inkscape:showpageshadow="2"
     inkscape:pageopacity="0.0"
     inkscape:pagecheckerboard="0"
     inkscape:deskcolor="#d1d1d1"
     inkscape:document-units="px"
     showgrid="true"
     inkscape:zoom="1.1116667"
     inkscape:cx="822.63866"
     inkscape:cy="1126.2368"
     inkscape:window-width="3840"
     inkscape:window-height="2066"
     inkscape:window-x="-11"
     inkscape:window-y="-11"
     inkscape:window-maximized="1"
     inkscape:current-layer="layer1"
     showguides="false"><inkscape:grid
       id="grid1"
       units="px"
       originx="0"
       originy="0"
       spacingx="10"
       spacingy="10"
       empcolor="#0099e5"
       empopacity="0.30196078"
       color="#0099e5"
       opacity="0.14901961"
       empspacing="10"
       dotted="false"
       gridanglex="30"
       gridanglez="30"
       visible="true" /></sodipodi:namedview><defs
     id="defs1" /><g
     inkscape:label="Layer 1"
     inkscape:groupmode="layer"
     id="layer1"><path
       style="fill:#000000;fill-opacity:0.555319;stroke:none;stroke-width:1px;stroke-linecap:butt;stroke-linejoin:miter;stroke-opacity:1"
       d="m 1200,1450 c 0,-30 10e-5,-425 10e-5,-425 0,-320 -300,-430 -600.0001,-425 -224.96876,3.74948 -399.3639,101.05535 -400,200 -0.6428,99.99793 70,130 145,130 117.784,0 150,-50 150,-100 0,-115 -120,-105 -120,-105 59.12545,-14.73852 127.02774,-25 225,-25 175.0001,0 300.0001,25 300.0001,175 L 900,1210 c -5e-5,175 51.43929,388.2009 650,390"
       id="path124467-2"
       sodipodi:nodetypes="ccsssscscsc" /><path
       style="fill:#000000;fill-opacity:0.555319;stroke:none;stroke-width:0.774597px;stroke-linecap:butt;stroke-linejoin:miter;stroke-opacity:1"
       d="m 980,1340 c 0,0 -90,260 -280,260.0001 -392.75597,2e-4 -600,-120 -600,-300 C 100,1120 403.44827,1003.5982 700,1000 c 149.98896,-1.81989 300,60 300,60 v 60 c 0,0 -150,-20 -300,-20 -150,0 -300,40.5997 -300,200.0001 C 400,1459.4005 550,1500 700,1500 c 120,0 200,-180 200,-280 z"
       id="path124467"
       sodipodi:nodetypes="cszsccszscc" /><path
       style="fill:#000000;fill-opacity:0.555319;stroke:none;stroke-width:1px;stroke-linecap:butt;stroke-linejoin:miter;stroke-opacity:1"
       d="m 900,1100 c 0,300 300.0155,496.7076 650,500 382.4866,3.5982 525,-200 525,-200 v -100 c 0,0 -175,200 -525,200 -250,0 -350,-100 -350,-400 0,-300 100,-400 350,-400 250,0 250,300 250,300 h -700 v 100 c 0,0 675,0 1000,0 0,-200 -100,-500 -550,-500 -350,0 -650,200 -650,500 z"
       id="path124467-0"
       sodipodi:nodetypes="zsccszsccccsz" /><path
       id="path124467-2-2"
       style="fill:#000000;fill-opacity:0.555319;stroke:none;stroke-width:1px;stroke-linecap:butt;stroke-linejoin:miter;stroke-opacity:1"
       d="M 600 600 C 375.03146 603.74948 200.6361 701.05545 200 800 C 199.3572 899.99783 270.00007 930 345 930 C 462.78388 930 495 879.99995 495 830 C 495 715.00012 375 725 375 725 C 434.12539 710.26149 502.02784 700 600 700 C 774.99992 700 900 725.00015 900 875 L 900 1027.7051 C 844.48651 1013.0543 772.32544 999.12244 700 1000 C 403.44857 1003.5982 100 1120.0001 100 1300 C 100 1479.9998 307.24442 1600.0002 700 1600 C 825.31723 1599.9999 906.86158 1487.1301 948.04297 1410.1191 C 1015.8306 1515.3244 1176.2486 1598.8766 1550 1600 C 1932.4862 1603.5982 2075 1400 2075 1400 L 2075 1300 C 2075 1300 1899.9996 1500 1550 1500 C 1300.0003 1500 1200 1399.9997 1200 1100 L 2100 1100 C 2100 900.00016 1999.9995 600 1550 600 C 1370.4618 600 1204.2065 652.73229 1084.7266 744.48828 C 970.09179 637.70457 785.09697 596.91505 600 600 z M 1550 700 C 1799.9997 700 1800 1000 1800 1000 L 1204.543 1000 C 1226.4256 777.43912 1330.1998 700 1550 700 z M 700 1100 C 772.41933 1100 844.46104 1104.6739 900 1109.4961 L 900 1210 C 900 1213.4058 900.18394 1216.905 900.22656 1220.3379 L 900 1220 C 900 1319.9999 819.99988 1500 700 1500 C 550.00015 1500 400 1459.4002 400 1300 C 400 1140.5998 550.00015 1100 700 1100 z " /></g></svg>
