<?xml version="1.0" encoding="UTF-8" standalone="no"?>
<!-- Created with Inkscape (http://www.inkscape.org/) -->

<svg
   width="2000"
   height="2000"
   viewBox="0 0 2000 2000"
   version="1.1"
   id="svg1"
   inkscape:version="1.2.2 (732a01da63, 2022-12-09)"
   sodipodi:docname="240_small-eth.svg"
   xml:space="preserve"
   xmlns:inkscape="http://www.inkscape.org/namespaces/inkscape"
   xmlns:sodipodi="http://sodipodi.sourceforge.net/DTD/sodipodi-0.dtd"
   xmlns="http://www.w3.org/2000/svg"
   xmlns:svg="http://www.w3.org/2000/svg"><sodipodi:namedview
     id="namedview1"
     pagecolor="#ffffff"
     bordercolor="#000000"
     borderopacity="0.25"
     inkscape:showpageshadow="2"
     inkscape:pageopacity="0.0"
     inkscape:pagecheckerboard="0"
     inkscape:deskcolor="#d1d1d1"
     inkscape:document-units="px"
     showgrid="true"
     inkscape:zoom="0.78606706"
     inkscape:cx="120.21875"
     inkscape:cy="924.85748"
     inkscape:window-width="3840"
     inkscape:window-height="2066"
     inkscape:window-x="-11"
     inkscape:window-y="-11"
     inkscape:window-maximized="1"
     inkscape:current-layer="layer1"
     showguides="false"><inkscape:grid
       id="grid1"
       units="px"
       originx="0"
       originy="0"
       spacingx="10"
       spacingy="10"
       empcolor="#0099e5"
       empopacity="0.30196078"
       color="#0099e5"
       opacity="0.14901961"
       empspacing="10"
       dotted="false"
       gridanglex="30"
       gridanglez="30"
       visible="true" /></sodipodi:namedview><defs
     id="defs1" /><g
     inkscape:label="Layer 1"
     inkscape:groupmode="layer"
     id="layer1"><path
       id="path124467"
       style="fill:#000000;fill-opacity:0.555319;stroke:none;stroke-width:1px;stroke-linecap:butt;stroke-linejoin:miter;stroke-opacity:1"
       d="M 650 600 C 250.0004 600 100 800.00033 100 1100 C 100 1399.9997 257.24739 1597.4557 650 1600 C 1042.7526 1597.4557 1200 1399.9997 1200 1100 C 1200 800.00033 1049.9996 600 650 600 z M 650 700 C 799.99985 700 900 834.33314 900 1100 C 900 1365.6669 799.99985 1500 650 1500 C 500.00015 1500 400 1365.6669 400 1100 C 400 834.33314 500.00015 700 650 700 z " /><path
       style="fill:#000000;stroke:none;stroke-width:1px;stroke-linecap:butt;stroke-linejoin:miter;stroke-opacity:1;fill-opacity:1;opacity:0.48988764"
       d="M 900,1100 C 900,380 200,300 200,300 V 200 c 0,0 1001.7991,59.14543 1000,900 z"
       id="path304"
       sodipodi:nodetypes="ccccc" /><path
       style="fill:#000000;stroke:none;stroke-width:1px;stroke-linecap:butt;stroke-linejoin:miter;stroke-opacity:1;fill-opacity:1;opacity:0.48988764"
       d="M 200,500 V 600 H 350 L 1000,300 V 200 H 850 Z"
       id="path402"
       sodipodi:nodetypes="ccccccc" /><path
       id="path124467-3"
       style="fill:#000000;fill-opacity:0.555319;stroke:none;stroke-width:1px;stroke-linecap:butt;stroke-linejoin:miter;stroke-opacity:1"
       d="M 200 200 L 200 300 C 200 300 319.23256 313.77085 459.23828 380.35156 L 200 500 L 200 600 L 350 600 L 616.81055 476.85742 C 661.97598 512.06533 705.56413 554.11845 744.48438 604.2168 C 714.6263 601.5092 683.25692 600 650 600 C 250.0008 600 100 800.00063 100 1100 C 100 1399.9994 257.24778 1597.4557 650 1600 C 1042.7522 1597.4557 1200 1399.9994 1200 1100 C 1200 1090.4461 1199.8387 1081.0002 1199.5312 1071.6523 C 1190.7926 726.28227 1009.5099 517.05519 803.58789 390.65234 L 1000 300 L 1000 200 L 850 200 L 627.50195 302.69141 C 403.89373 212.31237 200 200 200 200 z M 650 700 C 790.32609 700 886.85865 817.61244 898.73047 1050.2871 C 898.78246 1051.4014 898.83625 1052.5133 898.88477 1053.6309 C 899.59478 1068.6327 900 1084.0508 900 1100 C 900 1365.6666 799.9997 1500 650 1500 C 500.0003 1500 400 1365.6666 400 1100 C 400 834.33341 500.0003 700 650 700 z " /></g></svg>
