<?xml version="1.0" encoding="UTF-8" standalone="no"?>
<!-- Created with Inkscape (http://www.inkscape.org/) -->

<svg
   width="2000"
   height="2000"
   viewBox="0 0 2000 2000"
   version="1.1"
   id="svg1"
   inkscape:version="1.2.2 (732a01da63, 2022-12-09)"
   sodipodi:docname="248_o-with-stroke.svg"
   xml:space="preserve"
   xmlns:inkscape="http://www.inkscape.org/namespaces/inkscape"
   xmlns:sodipodi="http://sodipodi.sourceforge.net/DTD/sodipodi-0.dtd"
   xmlns="http://www.w3.org/2000/svg"
   xmlns:svg="http://www.w3.org/2000/svg"><sodipodi:namedview
     id="namedview1"
     pagecolor="#ffffff"
     bordercolor="#000000"
     borderopacity="0.25"
     inkscape:showpageshadow="2"
     inkscape:pageopacity="0.0"
     inkscape:pagecheckerboard="0"
     inkscape:deskcolor="#d1d1d1"
     inkscape:document-units="px"
     showgrid="true"
     inkscape:zoom="1.1116667"
     inkscape:cx="428.63567"
     inkscape:cy="1056.0719"
     inkscape:window-width="3840"
     inkscape:window-height="2066"
     inkscape:window-x="-11"
     inkscape:window-y="-11"
     inkscape:window-maximized="1"
     inkscape:current-layer="layer1"
     showguides="false"><inkscape:grid
       id="grid1"
       units="px"
       originx="0"
       originy="0"
       spacingx="10"
       spacingy="10"
       empcolor="#0099e5"
       empopacity="0.30196078"
       color="#0099e5"
       opacity="0.14901961"
       empspacing="10"
       dotted="false"
       gridanglex="30"
       gridanglez="30"
       visible="true" /></sodipodi:namedview><defs
     id="defs1" /><g
     inkscape:label="Layer 1"
     inkscape:groupmode="layer"
     id="layer1"><path
       id="path124467"
       style="fill:#000000;fill-opacity:0.555319;stroke:none;stroke-width:1px;stroke-linecap:butt;stroke-linejoin:miter;stroke-opacity:1"
       d="M 650 600 C 250.0004 600 100 800.00033 100 1100 C 100 1399.9997 257.24739 1597.4557 650 1600 C 1042.7526 1597.4557 1200 1399.9997 1200 1100 C 1200 800.00033 1049.9996 600 650 600 z M 650 700 C 799.99985 700 900 834.33314 900 1100 C 900 1365.6669 799.99985 1500 650 1500 C 500.00015 1500 400 1365.6669 400 1100 C 400 834.33314 500.00015 700 650 700 z " /><path
       style="fill:#000000;stroke:none;stroke-width:1px;stroke-linecap:butt;stroke-linejoin:miter;stroke-opacity:1;fill-opacity:1;opacity:0.45168539"
       d="m 100,1500 v 100 H 200 L 1200,700 V 600 h -100 z"
       id="path18478" /><path
       id="path124467-5"
       style="fill:#000000;fill-opacity:0.555319;stroke:none;stroke-width:1px;stroke-linecap:butt;stroke-linejoin:miter;stroke-opacity:1"
       d="M 650 600 C 250.0008 600 100 800.00063 100 1100 C 100 1226.9041 128.27679 1335.3565 190.47656 1418.5703 L 100 1500 L 100 1600 L 200 1600 L 295.04102 1514.4629 C 381.06687 1568.6337 497.77111 1599.0138 650 1600 C 1042.7522 1597.4557 1200 1399.9994 1200 1100 C 1200 972.71945 1172.861 863.54125 1111.2227 779.89844 L 1200 700 L 1200 600 L 1100 600 L 1006.9922 683.70703 C 921.34539 629.88858 804.35623 600 650 600 z M 650 700 C 734.58485 700 803.26091 742.73346 847.08203 827.62695 L 408.45508 1222.3906 C 403.05106 1185.1968 400 1144.6164 400 1100 C 400 834.33341 500.0003 700 650 700 z M 891.54492 977.60938 C 896.94894 1014.8032 900 1055.3836 900 1100 C 900 1365.6666 799.9997 1500 650 1500 C 565.41515 1500 496.73909 1457.2665 452.91797 1372.373 L 891.54492 977.60938 z " /></g></svg>
