<?xml version="1.0" encoding="UTF-8" standalone="no"?>
<!-- Created with Inkscape (http://www.inkscape.org/) -->

<svg
   width="2000"
   height="2000"
   viewBox="0 0 2000 2000"
   version="1.1"
   id="svg1"
   inkscape:version="1.2.2 (732a01da63, 2022-12-09)"
   sodipodi:docname="254_thorn-small.svg"
   xml:space="preserve"
   xmlns:inkscape="http://www.inkscape.org/namespaces/inkscape"
   xmlns:sodipodi="http://sodipodi.sourceforge.net/DTD/sodipodi-0.dtd"
   xmlns="http://www.w3.org/2000/svg"
   xmlns:svg="http://www.w3.org/2000/svg"><sodipodi:namedview
     id="namedview1"
     pagecolor="#ffffff"
     bordercolor="#000000"
     borderopacity="0.25"
     inkscape:showpageshadow="2"
     inkscape:pageopacity="0.0"
     inkscape:pagecheckerboard="0"
     inkscape:deskcolor="#d1d1d1"
     inkscape:document-units="px"
     showgrid="true"
     inkscape:zoom="0.78606706"
     inkscape:cx="386.09937"
     inkscape:cy="1109.3201"
     inkscape:window-width="3840"
     inkscape:window-height="2066"
     inkscape:window-x="-11"
     inkscape:window-y="-11"
     inkscape:window-maximized="1"
     inkscape:current-layer="layer1"
     showguides="false"><inkscape:grid
       id="grid1"
       units="px"
       originx="0"
       originy="0"
       spacingx="10"
       spacingy="10"
       empcolor="#0099e5"
       empopacity="0.30196078"
       color="#0099e5"
       opacity="0.14901961"
       empspacing="10"
       dotted="false"
       gridanglex="30"
       gridanglez="30"
       visible="true" /></sodipodi:namedview><defs
     id="defs1" /><g
     inkscape:label="Layer 1"
     inkscape:groupmode="layer"
     id="layer1"><path
       style="fill:#000000;fill-opacity:0.555319;stroke:none;stroke-width:1px;stroke-linecap:butt;stroke-linejoin:miter;stroke-opacity:1"
       d="m 600,200 v 1700 h 200 v 100 H 100 V 1900 H 300 V 300 H 100 V 200 Z"
       id="path123739"
       sodipodi:nodetypes="ccccccccccc" /><path
       style="fill:#000000;fill-opacity:0.555319;stroke:none;stroke-width:1px;stroke-linecap:butt;stroke-linejoin:miter;stroke-opacity:1"
       d="m 600,1500 c 0,0 150.00315,100.9717 300,100 392.753,-2.5443 600,-200 600,-500 0,-300 -200,-500 -600,-500 -150,0 -300,100 -300,100 v 100 c 0,0 150,-100 300,-100 150,0 300,134.33284 300,400 0,265.6672 -150,400 -300,400 -150,0 -300,-100 -300,-100 z"
       id="path124467"
       sodipodi:nodetypes="cszsccszscc" /><path
       id="path123739-3"
       style="fill:#000000;fill-opacity:0.555319;stroke:none;stroke-width:1px;stroke-linecap:butt;stroke-linejoin:miter;stroke-opacity:1"
       d="M 100,200 V 300 H 300 V 1900 H 100 v 100 H 800 V 1900 H 600 v -400 c 0,0 150.0033,100.9717 300,100 392.7526,-2.5443 600,-200.0003 600,-500 C 1500,800.0003 1299.9996,600 900,600 750.00015,600 600,700 600,700 V 200 Z m 800,500 c 149.9998,0 300,134.33311 300,400 0,265.6669 -150.0002,400 -300,400 -149.99985,0 -300,-100 -300,-100 V 800 c 0,0 150.00015,-100 300,-100 z"
       sodipodi:nodetypes="ccccccccccssscccsssccs" /></g></svg>
