<?xml version="1.0" encoding="UTF-8" standalone="no"?>
<!-- Created with Inkscape (http://www.inkscape.org/) -->

<svg
   width="2000"
   height="2000"
   viewBox="0 0 2000 2000"
   version="1.1"
   id="svg1"
   inkscape:version="1.2.1 (9c6d41e410, 2022-07-14)"
   sodipodi:docname="ascii_54_6.svg"
   xml:space="preserve"
   xmlns:inkscape="http://www.inkscape.org/namespaces/inkscape"
   xmlns:sodipodi="http://sodipodi.sourceforge.net/DTD/sodipodi-0.dtd"
   xmlns="http://www.w3.org/2000/svg"
   xmlns:svg="http://www.w3.org/2000/svg"><sodipodi:namedview
     id="namedview1"
     pagecolor="#ffffff"
     bordercolor="#000000"
     borderopacity="0.25"
     inkscape:showpageshadow="2"
     inkscape:pageopacity="0.0"
     inkscape:pagecheckerboard="0"
     inkscape:deskcolor="#d1d1d1"
     inkscape:document-units="px"
     showgrid="true"
     inkscape:zoom="0.55583336"
     inkscape:cx="323.83806"
     inkscape:cy="922.93848"
     inkscape:window-width="2560"
     inkscape:window-height="1377"
     inkscape:window-x="1072"
     inkscape:window-y="-8"
     inkscape:window-maximized="1"
     inkscape:current-layer="layer1"
     showguides="false"><inkscape:grid
       id="grid1"
       units="px"
       originx="0"
       originy="0"
       spacingx="10"
       spacingy="10"
       empcolor="#0099e5"
       empopacity="0.30196078"
       color="#0099e5"
       opacity="0.14901961"
       empspacing="10"
       dotted="false"
       gridanglex="30"
       gridanglez="30"
       visible="true" /></sodipodi:namedview><defs
     id="defs1" /><g
     inkscape:label="Layer 1"
     inkscape:groupmode="layer"
     id="layer1"><path
       id="path403-1"
       style="fill:#000000;fill-opacity:0.555319;fill-rule:evenodd;stroke:none;stroke-width:0.842234px;stroke-linecap:butt;stroke-linejoin:miter;stroke-opacity:1"
       d="M 400,850 C 500,750 600,700 800,700 c 353.5663,-0.63608 600.8995,273.31332 600,450 -1.1201,219.9972 -300,460 -650,460 C 400,1610 90,1500 90,900 90,300 516.4337,190.63608 870,190 c 240,0 480,110 480,260 0,90 -100,150 -200,150 -100,0 -170,-60 -170,-130 0,-50 45,-100 120,-100 75,0 100,25 125,75 0,-125 -195,-145 -355,-145 -275,0 -470,75 -470,250 v 700 c 0,200 83.73315,251.7991 350,250 266.2669,-1.7991 350,-50 350,-250 v -200 c 0,-175 -25,-250 -300,-250 -260,0 -345.3973,172.90855 -400,260 z"
       sodipodi:nodetypes="cszssccsssscszscsscc" /></g></svg>
