<?xml version="1.0" encoding="UTF-8" standalone="no"?>
<!-- Created with Inkscape (http://www.inkscape.org/) -->

<svg
   width="2000"
   height="2000"
   viewBox="0 0 2000 2000"
   version="1.1"
   id="svg1"
   inkscape:version="1.2.1 (9c6d41e410, 2022-07-14)"
   sodipodi:docname="ascii_57_9.svg"
   xml:space="preserve"
   xmlns:inkscape="http://www.inkscape.org/namespaces/inkscape"
   xmlns:sodipodi="http://sodipodi.sourceforge.net/DTD/sodipodi-0.dtd"
   xmlns="http://www.w3.org/2000/svg"
   xmlns:svg="http://www.w3.org/2000/svg"><sodipodi:namedview
     id="namedview1"
     pagecolor="#ffffff"
     bordercolor="#000000"
     borderopacity="0.25"
     inkscape:showpageshadow="2"
     inkscape:pageopacity="0.0"
     inkscape:pagecheckerboard="0"
     inkscape:deskcolor="#d1d1d1"
     inkscape:document-units="px"
     showgrid="true"
     inkscape:zoom="0.39303354"
     inkscape:cx="499.95733"
     inkscape:cy="707.31877"
     inkscape:window-width="2560"
     inkscape:window-height="1377"
     inkscape:window-x="1072"
     inkscape:window-y="-8"
     inkscape:window-maximized="1"
     inkscape:current-layer="layer1"
     showguides="false"><inkscape:grid
       id="grid1"
       units="px"
       originx="0"
       originy="0"
       spacingx="10"
       spacingy="10"
       empcolor="#0099e5"
       empopacity="0.30196078"
       color="#0099e5"
       opacity="0.14901961"
       empspacing="10"
       dotted="false"
       gridanglex="30"
       gridanglez="30"
       visible="true" /></sodipodi:namedview><defs
     id="defs1" /><g
     inkscape:label="Layer 1"
     inkscape:groupmode="layer"
     id="layer1"><path
       id="path403-1"
       style="fill:#000000;fill-opacity:0.555319;fill-rule:evenodd;stroke:none;stroke-width:0.842234px;stroke-linecap:butt;stroke-linejoin:miter;stroke-opacity:1"
       d="m 1100,1350 c -100.00004,100 -200,150 -400,150 -353.56632,0.6361 -600.899516,-273.3133 -600.00002,-450 1.1201,-219.9972 300,-460 650.00002,-460 350,0 660,110 660,710 0,600 -426.43368,699.3639 -780,700 -240,0 -480.00002,-100 -480.00002,-250 0,-90 100,-150 200,-150 100,0 170,60 170,130 0,50 -45,100 -120,100 -75,0 -100,-25 -125,-75 0,125 195.00002,135 355.00002,135 275.00002,0 470,-65 470,-240 V 950 c 0,-200 -83.7331,-251.7991 -350,-250 -266.26692,1.7991 -350.00002,50 -350.00002,250 v 200 c 0,175 25,250 300.00002,250 260,0 345.3973,-172.9086 400,-260 z"
       sodipodi:nodetypes="cszssccsssscszscsscc" /></g></svg>
