<?xml version="1.0" encoding="UTF-8" standalone="no"?>
<!-- Created with Inkscape (http://www.inkscape.org/) -->

<svg
   width="2000"
   height="2000"
   viewBox="0 0 2000 2000"
   version="1.1"
   id="svg1"
   inkscape:version="1.2.1 (9c6d41e410, 2022-07-14)"
   sodipodi:docname="ascii_51_3.svg"
   xml:space="preserve"
   xmlns:inkscape="http://www.inkscape.org/namespaces/inkscape"
   xmlns:sodipodi="http://sodipodi.sourceforge.net/DTD/sodipodi-0.dtd"
   xmlns="http://www.w3.org/2000/svg"
   xmlns:svg="http://www.w3.org/2000/svg"><sodipodi:namedview
     id="namedview1"
     pagecolor="#ffffff"
     bordercolor="#000000"
     borderopacity="0.25"
     inkscape:showpageshadow="2"
     inkscape:pageopacity="0.0"
     inkscape:pagecheckerboard="0"
     inkscape:deskcolor="#d1d1d1"
     inkscape:document-units="px"
     showgrid="true"
     inkscape:zoom="0.27791668"
     inkscape:cx="232.08395"
     inkscape:cy="946.32679"
     inkscape:window-width="2560"
     inkscape:window-height="1377"
     inkscape:window-x="1072"
     inkscape:window-y="-8"
     inkscape:window-maximized="1"
     inkscape:current-layer="layer1"
     showguides="false"><inkscape:grid
       id="grid1"
       units="px"
       originx="0"
       originy="0"
       spacingx="10"
       spacingy="10"
       empcolor="#0099e5"
       empopacity="0.30196078"
       color="#0099e5"
       opacity="0.14901961"
       empspacing="10"
       dotted="false"
       gridanglex="30"
       gridanglez="30"
       visible="true" /></sodipodi:namedview><defs
     id="defs1" /><g
     inkscape:label="Layer 1"
     inkscape:groupmode="layer"
     id="layer1"><path
       style="fill:#000000;fill-opacity:0.555319;fill-rule:evenodd;stroke:none;stroke-width:1px;stroke-linecap:butt;stroke-linejoin:miter;stroke-opacity:1"
       d="m 600,1300 c 393.17841,-2.8861 710,-175 710,-350 0,-200 -260,-360 -610,-360 -360,0 -600,160 -600,310 0,152.1739 150,225 250,225 100,0 175,-75 175,-125 0,-50 -50,-125 -125,-125 -75,0 -100,25 -125,75 0,-125 95,-250 425,-250 225,0 300,125 300,250 0,125 -6.66665,245.395 -400,250"
       id="path8529-7"
       sodipodi:nodetypes="csssssscssc" /><path
       style="fill:#000000;fill-opacity:0.555319;fill-rule:evenodd;stroke:none;stroke-width:1px;stroke-linecap:butt;stroke-linejoin:miter;stroke-opacity:1"
       d="m 600,1200 c 331.04123,-7.8858 800,75 800,350 0,225 -300,450 -700,450 -350,0 -600,-150 -600,-300 0,-152.1739 150,-225 250,-225 100,0 175,75 175,125 0,50 -50,125 -125,125 -75,0 -100,-25 -125,-75 0,125 97.31907,240 425,240 275,0 400,-65 400,-240 v -75 c 0,-100 -150,-275 -500,-275"
       id="path8529-6-7"
       sodipodi:nodetypes="csssssscsssc" /><path
       id="path8529-7-1"
       style="fill:#000000;fill-opacity:0.555319;fill-rule:evenodd;stroke:none;stroke-width:1px;stroke-linecap:butt;stroke-linejoin:miter;stroke-opacity:1"
       d="m 700,590 c -359.99964,0 -600,160.00015 -600,310 0,152.1738 150.0001,225 250,225 99.9999,0 175,-75 175,-125 0,-49.99995 -50.00007,-125 -125,-125 -74.99993,0 -100.00002,25.00005 -125,75 0,-124.99987 95.00033,-250 425,-250 224.99977,0 300,125.00013 300,250 0,124.9999 -6.66704,245.395 -400,250 v 100 c 349.99965,0 500,175.0001 500,275 v 75 c 0,174.9998 -125.00027,240 -400,240 -327.6806,0 -425,-115.0001 -425,-240 24.99998,49.9999 50.00007,75 125,75 74.99993,0 125,-75.0001 125,-125 0,-49.9999 -75.0001,-125 -175,-125 -99.9999,0 -250,72.8263 -250,225 0,149.9998 250.00035,300 600,300 399.9996,0 700,-225.0002 700,-450 0,-172.3747 -184.268,-269.2475 -403.31641,-315.6172 C 1185.9072,1167.8957 1310,1059.5169 1310,950 1310,750.0002 1049.9996,590 700,590 Z"
       sodipodi:nodetypes="ssssscssccssscsssssscss" /></g></svg>
