<?xml version="1.0" encoding="UTF-8" standalone="no"?>
<!-- Created with Inkscape (http://www.inkscape.org/) -->

<svg
   width="1200"
   height="1200"
   viewBox="0 0 1200 1200"
   version="1.1"
   id="svg1"
   inkscape:version="1.3 (0e150ed6c4, 2023-07-21)"
   sodipodi:docname="945_alpha-small.svg"
   xmlns:inkscape="http://www.inkscape.org/namespaces/inkscape"
   xmlns:sodipodi="http://sodipodi.sourceforge.net/DTD/sodipodi-0.dtd"
   xmlns="http://www.w3.org/2000/svg"
   xmlns:svg="http://www.w3.org/2000/svg">
  <sodipodi:namedview
     id="namedview1"
     pagecolor="#ffffff"
     bordercolor="#000000"
     borderopacity="0.25"
     inkscape:showpageshadow="2"
     inkscape:pageopacity="0.0"
     inkscape:pagecheckerboard="0"
     inkscape:deskcolor="#d1d1d1"
     inkscape:document-units="px"
     showgrid="true"
     inkscape:zoom="0.78606708"
     inkscape:cx="517.13144"
     inkscape:cy="816.08811"
     inkscape:window-width="2560"
     inkscape:window-height="1494"
     inkscape:window-x="-11"
     inkscape:window-y="-11"
     inkscape:window-maximized="1"
     inkscape:current-layer="layer1"
     showguides="false">
    <inkscape:grid
       id="grid1"
       units="px"
       originx="0"
       originy="0"
       spacingx="25"
       spacingy="25"
       empcolor="#0099e5"
       empopacity="0.30196078"
       color="#0099e5"
       opacity="0.14901961"
       empspacing="4"
       dotted="false"
       gridanglex="30"
       gridanglez="30"
       visible="true" />
  </sodipodi:namedview>
  <defs
     id="defs1" />
  <g
     inkscape:label="Layer 1"
     inkscape:groupmode="layer"
     id="layer1">
    <path
       id="path2"
       style="fill:#000000;fill-opacity:0.555319;fill-rule:evenodd;stroke:none;stroke-width:0.999873"
       d="M 225,400 C 50.000447,400.18455 0,525.0002 0,625 v 150 c 0,99.9998 50.00035,225 225,225 V 900 c -25,0 -50,-50.00015 -50,-125 V 625 c 0,-74.99985 25,-125 50,-125 z"
       sodipodi:nodetypes="cssccsscc" />
    <path
       id="path8098"
       style="fill:#000000;fill-opacity:0.555319;stroke:none;stroke-width:1px;stroke-linecap:butt;stroke-linejoin:miter;stroke-opacity:1"
       d="m 225,400 c 125,0 275,200 275,350 0,75 22.8416,152.54431 100,150 v 100 C 425,1000 300,800 300,650 300,525 250,500 225,500"
       sodipodi:nodetypes="csccsc" />
    <path
       id="path8098-0"
       style="fill:#000000;fill-opacity:0.555319;stroke:none;stroke-width:1px;stroke-linecap:butt;stroke-linejoin:miter;stroke-opacity:1"
       d="m 225,1000 c 125,0 275,-200 275,-350 0,-75 22.8416,-152.54431 100,-150 V 400 c -175,0 -300,200 -300,350 0,125 -50,150 -75,150"
       sodipodi:nodetypes="csccsc" />
    <path
       id="path2-4"
       style="fill:#000000;fill-opacity:0.555319;fill-rule:evenodd;stroke:none;stroke-width:0.999873"
       d="M 225,400 C 50.000622,400.18455 0,525.0003 0,625 v 150 c 0,99.9997 50.000525,225 225,225 57.73714,0 120.78031,-42.71272 171.93945,-103.41602 C 449.04564,957.28738 519.16793,1000 600,1000 V 900 c -77.15832,2.54431 -100,-75.00008 -100,-150 0,-16.18361 -1.84094,-32.96632 -5.11328,-50 C 498.15906,682.96632 500,666.18361 500,650 500,575.00008 522.84168,497.45569 600,500 V 400 C 519.16793,400 449.04564,442.71262 396.93945,503.41602 345.78031,442.71272 282.73714,400 225,400 Z m 0,100 c 24.99998,0 75,25.00013 75,150 0,16.18359 1.53956,32.96635 4.35547,50 C 301.53956,717.03365 300,733.81641 300,750 c 0,124.99987 -50.00002,150 -75,150 -24.99998,0 -50,-50.00022 -50,-125 V 625 c 0,-74.99978 25.00002,-125 50,-125 z" />
  </g>
</svg>
