<?xml version="1.0" encoding="UTF-8" standalone="no"?>
<!-- Created with Inkscape (http://www.inkscape.org/) -->

<svg
   width="1200"
   height="1200"
   viewBox="0 0 1200 1200"
   version="1.1"
   id="svg1"
   inkscape:version="1.2.1 (9c6d41e410, 2022-07-14)"
   sodipodi:docname="946_beta-small.svg"
   xml:space="preserve"
   xmlns:inkscape="http://www.inkscape.org/namespaces/inkscape"
   xmlns:sodipodi="http://sodipodi.sourceforge.net/DTD/sodipodi-0.dtd"
   xmlns="http://www.w3.org/2000/svg"
   xmlns:svg="http://www.w3.org/2000/svg"><sodipodi:namedview
     id="namedview1"
     pagecolor="#ffffff"
     bordercolor="#000000"
     borderopacity="0.25"
     inkscape:showpageshadow="2"
     inkscape:pageopacity="0.0"
     inkscape:pagecheckerboard="0"
     inkscape:deskcolor="#d1d1d1"
     inkscape:document-units="px"
     showgrid="true"
     inkscape:zoom="0.78606705"
     inkscape:cx="344.75431"
     inkscape:cy="735.94231"
     inkscape:window-width="1350"
     inkscape:window-height="1230"
     inkscape:window-x="1722"
     inkscape:window-y="67"
     inkscape:window-maximized="0"
     inkscape:current-layer="layer1"
     showguides="false"><inkscape:grid
       id="grid1"
       units="px"
       originx="0"
       originy="0"
       spacingx="25"
       spacingy="25"
       empcolor="#0099e5"
       empopacity="0.30196078"
       color="#0099e5"
       opacity="0.14901961"
       empspacing="4"
       dotted="false"
       gridanglex="30"
       gridanglez="30"
       visible="true" /></sodipodi:namedview><defs
     id="defs1" /><g
     inkscape:label="Layer 1"
     inkscape:groupmode="layer"
     id="layer1"><rect
       style="opacity:0.489888;fill:#000000;fill-opacity:0.56;fill-rule:evenodd;stroke-width:100;stroke-linecap:round;stroke-linejoin:round;stroke-miterlimit:4.5;stop-color:#000000"
       id="rect5285"
       width="200"
       height="800"
       x="0"
       y="400" /><path
       id="path5289"
       style="fill:#000000;fill-opacity:0.555319;stroke:none;stroke-width:1px;stroke-linecap:butt;stroke-linejoin:miter;stroke-opacity:1"
       d="m 200,400 c 0,-75 50,-100 100,-100 48.28472,0 100,25.00013 100,100 0,74.99988 -75.00002,100 -100,100 v 100 c 48.2847,0 100,50.00015 100,125 v 50 c 0,74.99987 -50.0001,125 -100,125 v 100 h 50 c 174.99965,0 250,-125.00015 250,-225 V 725 C 600,665.22027 573.16777,596.52707 514.22266,550.92383 559.18642,512.47246 575,456.23623 575,400 575,300.00019 474.99965,199.99998 300,200 125,200 0,300 0,400 Z"
       sodipodi:nodetypes="cssccssccssscsccc" /><rect
       style="fill:#808080;fill-opacity:0.555319;stroke-linecap:square;paint-order:stroke markers fill"
       id="rect439"
       width="100"
       height="100"
       x="200"
       y="500" /><rect
       style="fill:#808080;fill-opacity:0.555319;stroke-linecap:square;paint-order:stroke markers fill"
       id="rect441"
       width="100"
       height="100"
       x="200"
       y="900" /><path
       id="rect5285-2"
       style="opacity:0.489888;fill:#000000;fill-opacity:0.56;fill-rule:evenodd;stroke-width:100;stroke-linecap:round;stroke-linejoin:round;stroke-miterlimit:4.5;stop-color:#000000"
       d="M 300 200 C 125.00018 200 0 300.0001 0 400 L 0 1200 L 200 1200 L 200 1000 L 300 1000 L 350 1000 C 524.99948 1000 600 874.99975 600 775 L 600 725 C 600 665.22033 573.16771 596.52702 514.22266 550.92383 C 559.18637 512.4725 575 456.23617 575 400 C 575 300.00029 474.99948 199.99998 300 200 z M 300 300 C 348.28467 300 400 325.0002 400 400 C 400 474.99981 324.99996 500 300 500 L 200 500 L 200 400 C 200 325.00007 250.00005 300 300 300 z M 200 600 L 300 600 C 348.28465 600 400 650.00022 400 725 L 400 775 C 400 849.9998 349.99985 900 300 900 L 200 900 L 200 600 z " /></g></svg>
