<?xml version="1.0" encoding="UTF-8" standalone="no"?>
<!-- Created with Inkscape (http://www.inkscape.org/) -->

<svg
   width="1200"
   height="1200"
   viewBox="0 0 1200 1200"
   version="1.1"
   id="svg1"
   inkscape:version="1.2.1 (9c6d41e410, 2022-07-14)"
   sodipodi:docname="948_delta-small.svg"
   xml:space="preserve"
   xmlns:inkscape="http://www.inkscape.org/namespaces/inkscape"
   xmlns:sodipodi="http://sodipodi.sourceforge.net/DTD/sodipodi-0.dtd"
   xmlns="http://www.w3.org/2000/svg"
   xmlns:svg="http://www.w3.org/2000/svg"><sodipodi:namedview
     id="namedview1"
     pagecolor="#ffffff"
     bordercolor="#000000"
     borderopacity="0.25"
     inkscape:showpageshadow="2"
     inkscape:pageopacity="0.0"
     inkscape:pagecheckerboard="0"
     inkscape:deskcolor="#d1d1d1"
     inkscape:document-units="px"
     showgrid="true"
     inkscape:zoom="0.78606708"
     inkscape:cx="326.94411"
     inkscape:cy="511.40674"
     inkscape:window-width="2560"
     inkscape:window-height="1377"
     inkscape:window-x="1072"
     inkscape:window-y="-8"
     inkscape:window-maximized="1"
     inkscape:current-layer="layer1"
     showguides="false"><inkscape:grid
       id="grid1"
       units="px"
       originx="0"
       originy="0"
       spacingx="25"
       spacingy="25"
       empcolor="#0099e5"
       empopacity="0.30196078"
       color="#0099e5"
       opacity="0.14901961"
       empspacing="4"
       dotted="false"
       gridanglex="30"
       gridanglez="30"
       visible="true" /></sodipodi:namedview><defs
     id="defs1" /><g
     inkscape:label="Layer 1"
     inkscape:groupmode="layer"
     id="layer1"><path
       id="path2-1"
       style="fill:#000000;fill-opacity:0.555319;fill-rule:evenodd;stroke-width:0.999873"
       d="M 300,500 C 250,500 27.544312,503.37335 25,350 23.755995,275.01032 125,200 300,200 c 175,0 250,50 250,50 v 100 c 0,0 -95.63601,-50 -250,-50 -100,0 -125,25 -125,50 0,47.89881 75,50 125,50 z"
       sodipodi:nodetypes="cszccsscc" /><path
       id="path2"
       style="fill:#000000;fill-opacity:0.555319;fill-rule:evenodd;stroke-width:0.999873"
       d="M 600,625 C 600,525 474.9998,399.90772 300,400 125.0002,400.0923 0,525.0001 0,625 v 150 c 0,99.9999 125.00018,225 300,225 175,0 300,-125 300,-225 z m -400,0 c 0,-74.99992 50.00005,-125 100,-125 50,0 100,50.00008 100,125 v 150 c 0,74.61401 -50,125 -100,125 -50,0 -100,-50.00008 -100,-125 z"
       sodipodi:nodetypes="csssscccsccscc" /><path
       id="path2-1-9"
       style="fill:#000000;fill-opacity:0.555319;fill-rule:evenodd;stroke-width:0.999873"
       d="M 300 200 C 125.00018 200 23.755996 275.01039 25 350 C 25.943624 406.88249 57.161177 442.1715 98.585938 464.10156 C 36.901084 509.11636 0 570.70968 0 625 L 0 775 C 0 874.9998 125.00035 1000 300 1000 C 474.99982 1000 600 874.9999 600 775 L 600 625 C 600 525.0001 474.99963 399.90772 300 400 C 250.00005 400 175 397.89876 175 350 C 175 325.00002 200.0001 300 300 300 C 454.36384 300 550 350 550 350 L 550 250 C 550 250 474.99982 200 300 200 z M 300 500 C 349.99995 500 400 550.00015 400 625 L 400 775 C 400 849.61394 349.99995 900 300 900 C 250.00005 900 200 849.99985 200 775 L 200 625 C 200 550.00015 250.0001 500 300 500 z " /></g></svg>
