<?xml version="1.0" encoding="UTF-8" standalone="no"?>
<!-- Created with Inkscape (http://www.inkscape.org/) -->

<svg
   width="1200"
   height="1200"
   viewBox="0 0 1200 1200"
   version="1.1"
   id="svg1"
   inkscape:version="1.2.1 (9c6d41e410, 2022-07-14)"
   sodipodi:docname="949_epsilon-small.svg"
   xml:space="preserve"
   xmlns:inkscape="http://www.inkscape.org/namespaces/inkscape"
   xmlns:sodipodi="http://sodipodi.sourceforge.net/DTD/sodipodi-0.dtd"
   xmlns="http://www.w3.org/2000/svg"
   xmlns:svg="http://www.w3.org/2000/svg"><sodipodi:namedview
     id="namedview1"
     pagecolor="#ffffff"
     bordercolor="#000000"
     borderopacity="0.25"
     inkscape:showpageshadow="2"
     inkscape:pageopacity="0.0"
     inkscape:pagecheckerboard="0"
     inkscape:deskcolor="#d1d1d1"
     inkscape:document-units="px"
     showgrid="true"
     inkscape:zoom="0.78606706"
     inkscape:cx="398.82093"
     inkscape:cy="722.58466"
     inkscape:window-width="1080"
     inkscape:window-height="1857"
     inkscape:window-x="-8"
     inkscape:window-y="-8"
     inkscape:window-maximized="1"
     inkscape:current-layer="layer1"
     showguides="false"><inkscape:grid
       id="grid1"
       units="px"
       originx="0"
       originy="0"
       spacingx="25"
       spacingy="25"
       empcolor="#0099e5"
       empopacity="0.30196078"
       color="#0099e5"
       opacity="0.14901961"
       empspacing="4"
       dotted="false"
       gridanglex="30"
       gridanglez="30"
       visible="true" /></sodipodi:namedview><defs
     id="defs1" /><g
     inkscape:label="Layer 1"
     inkscape:groupmode="layer"
     id="layer1"><path
       style="fill:#000000;fill-opacity:0.555319;stroke:none;stroke-width:1.09545px;stroke-linecap:butt;stroke-linejoin:miter;stroke-opacity:1"
       d="M 600,425 C 600,425 500,400 350,400 200,400 0,450 0,550 0,675 256.48426,775 350,775 H 450 V 625 H 350 c -75,0 -150,-25 -150,-50 0,-50 100,-75 200,-75 100,0 200,25 200,25 z"
       id="path19625"
       sodipodi:nodetypes="csssccssscc" /><path
       style="fill:#000000;fill-opacity:0.555319;stroke:none;stroke-width:1.09545px;stroke-linecap:butt;stroke-linejoin:miter;stroke-opacity:1"
       d="m 600,975 c 0,0 -100,25 -250,25 C 200,1000 0.75278824,949.99717 0,850 -0.8995502,730.5076 256.48426,625 350,625 H 450 V 775 H 350 c -75,0 -150,25 -150,50 0,50 100,75 200,75 100,0 200,-25 200,-25 z"
       id="path19625-2"
       sodipodi:nodetypes="csssccssscc" /><path
       id="path19625-7"
       style="fill:#000000;fill-opacity:0.555319;stroke:none;stroke-width:1.09545px;stroke-linecap:butt;stroke-linejoin:miter;stroke-opacity:1"
       d="M 350 400 C 200.00015 400 0 450.0001 0 550 C 0 608.31214 55.829283 661.17106 124.87891 700.98828 C 55.572072 741.38047 -0.42037237 794.15953 0 850 C 0.75278749 949.99707 200.00015 1000 350 1000 C 499.99985 1000 600 975 600 975 L 600 875 C 600 875 499.9999 900 400 900 C 300.0001 900 200 874.99995 200 825 C 200 800.00003 275.00007 775 350 775 L 450 775 L 450 625 L 350 625 C 275.00007 625 200 599.99997 200 575 C 200 525.00005 300.0001 500 400 500 C 499.9999 500 600 525 600 525 L 600 425 C 600 425 499.99985 400 350 400 z " /></g></svg>
