<?xml version="1.0" encoding="UTF-8" standalone="no"?>
<!-- Created with Inkscape (http://www.inkscape.org/) -->

<svg
   width="1200"
   height="1200"
   viewBox="0 0 1200 1200"
   version="1.1"
   id="svg1"
   inkscape:version="1.2.1 (9c6d41e410, 2022-07-14)"
   sodipodi:docname="966_phi-small.svg"
   xml:space="preserve"
   xmlns:inkscape="http://www.inkscape.org/namespaces/inkscape"
   xmlns:sodipodi="http://sodipodi.sourceforge.net/DTD/sodipodi-0.dtd"
   xmlns="http://www.w3.org/2000/svg"
   xmlns:svg="http://www.w3.org/2000/svg"><sodipodi:namedview
     id="namedview1"
     pagecolor="#ffffff"
     bordercolor="#000000"
     borderopacity="0.25"
     inkscape:showpageshadow="2"
     inkscape:pageopacity="0.0"
     inkscape:pagecheckerboard="0"
     inkscape:deskcolor="#d1d1d1"
     inkscape:document-units="px"
     showgrid="true"
     inkscape:zoom="1.1116667"
     inkscape:cx="121.43928"
     inkscape:cy="699.85005"
     inkscape:window-width="2560"
     inkscape:window-height="1377"
     inkscape:window-x="1072"
     inkscape:window-y="-8"
     inkscape:window-maximized="1"
     inkscape:current-layer="layer1"
     showguides="false"><inkscape:grid
       id="grid1"
       units="px"
       originx="0"
       originy="0"
       spacingx="25"
       spacingy="25"
       empcolor="#0099e5"
       empopacity="0.30196078"
       color="#0099e5"
       opacity="0.14901961"
       empspacing="4"
       dotted="false"
       gridanglex="30"
       gridanglez="30"
       visible="true" /></sodipodi:namedview><defs
     id="defs1" /><g
     inkscape:label="Layer 1"
     inkscape:groupmode="layer"
     id="layer1"><path
       style="fill:#000000;fill-opacity:0.555319;stroke:none;stroke-width:0.935416px;stroke-linecap:butt;stroke-linejoin:miter;stroke-opacity:1"
       d="m 275,900 c -43.75014,0 -100.00177,-75 -100.00177,-200 0,-100 43.75015,-200 87.50029,-200 V 400 C 109.37301,400 -1.5765812,498.72564 -0.00236304,700 1.5618255,899.99201 121.87449,1000 275,1000 v -50 z"
       id="path24528"
       sodipodi:nodetypes="csccsccc" /><path
       style="fill:#000000;fill-opacity:0.555319;stroke:none;stroke-width:0.935416px;stroke-linecap:butt;stroke-linejoin:miter;stroke-opacity:1"
       d="m 481.24926,500 c 19.34976,3.5982 43.75015,75 43.75015,200 0,100 -56.24926,200 -99.99941,200 v 100 C 578.12552,1000 701.57422,901.27436 700,700 698.43581,500.00799 634.37478,400 481.24926,400 v 50 z"
       id="path24528-6"
       sodipodi:nodetypes="csccsccc" /><path
       style="fill:#000000;fill-opacity:0.56;stroke:none;stroke-width:0.935416px;stroke-linecap:butt;stroke-linejoin:miter;stroke-opacity:1"
       d="M 425,1200 V 700 c 0,-125 34.37419,-200 56.24926,-200 V 400 C 374.85835,400.89955 275,575 275,775 v 425 z"
       id="path37329"
       sodipodi:nodetypes="csccscc" /><path
       id="path24528-5"
       style="fill:#000000;fill-opacity:0.555319;stroke:none;stroke-width:0.935416px;stroke-linecap:butt;stroke-linejoin:miter;stroke-opacity:1"
       d="M 262.49805 400 C 109.37269 400 -1.5761697 498.72584 -0.001953125 700 C 1.5622339 899.99181 121.87464 1000 275 1000 L 275 1200 L 425 1200 L 425 1000 C 578.12537 1000 701.57422 901.27416 700 700 C 698.43581 500.00819 634.37537 400 481.25 400 C 374.8592 400.89955 275 575.0002 275 775 L 275 900 C 231.2499 900 174.99805 824.99987 174.99805 700 C 174.99805 600.0001 218.74795 500 262.49805 500 L 262.49805 400 z M 481.25 500 C 500.59974 503.5982 525 575.00013 525 700 C 525 799.9999 468.75011 900 425 900 L 425 700 C 425 575.00013 459.37495 500 481.25 500 z " /></g></svg>
