<?xml version="1.0" encoding="UTF-8" standalone="no"?>
<!-- Created with Inkscape (http://www.inkscape.org/) -->

<svg
   width="1200"
   height="1200"
   viewBox="0 0 1200 1200"
   version="1.1"
   id="svg1"
   inkscape:version="1.3 (0e150ed6c4, 2023-07-21)"
   sodipodi:docname="977_theta-symbol.svg"
   xml:space="preserve"
   xmlns:inkscape="http://www.inkscape.org/namespaces/inkscape"
   xmlns:sodipodi="http://sodipodi.sourceforge.net/DTD/sodipodi-0.dtd"
   xmlns="http://www.w3.org/2000/svg"
   xmlns:svg="http://www.w3.org/2000/svg"><sodipodi:namedview
     id="namedview1"
     pagecolor="#ffffff"
     bordercolor="#000000"
     borderopacity="0.25"
     inkscape:showpageshadow="2"
     inkscape:pageopacity="0.0"
     inkscape:pagecheckerboard="0"
     inkscape:deskcolor="#d1d1d1"
     inkscape:document-units="px"
     showgrid="true"
     inkscape:zoom="1.1116667"
     inkscape:cx="409.29534"
     inkscape:cy="584.25785"
     inkscape:window-width="2560"
     inkscape:window-height="1494"
     inkscape:window-x="-11"
     inkscape:window-y="-11"
     inkscape:window-maximized="1"
     inkscape:current-layer="layer1"
     showguides="false"><inkscape:grid
       id="grid1"
       units="px"
       originx="0"
       originy="0"
       spacingx="25"
       spacingy="25"
       empcolor="#0099e5"
       empopacity="0.30196078"
       color="#0099e5"
       opacity="0.14901961"
       empspacing="4"
       dotted="false"
       gridanglex="30"
       gridanglez="30"
       visible="true" /></sodipodi:namedview><defs
     id="defs1" /><g
     inkscape:label="Layer 1"
     inkscape:groupmode="layer"
     id="layer1"><path
       style="fill:#000000;fill-opacity:0.555319;stroke:none;stroke-width:1px;stroke-linecap:butt;stroke-linejoin:miter;stroke-opacity:1"
       d="m 325,675 c 0,125 0,224.966 -75,224.983 C 175,900 175,800 175,700 H 0 C 0,825 25,1000 250,999.983 475,999.966 500,825 500,675 Z"
       id="path24528"
       sodipodi:nodetypes="csccscc" /><path
       style="fill:#000000;fill-opacity:0.555319;stroke:none;stroke-width:1px;stroke-linecap:butt;stroke-linejoin:miter;stroke-opacity:1"
       d="m 175,450 c 0,-50 0,-150 75,-150.017 C 325,299.966 325,400 325,525 H 500 C 500,375 475,199.96114 250,199.983 75,200 0,325 0,450 h 50 z"
       id="path24528-6"
       sodipodi:nodetypes="csccsccc" /><path
       style="fill:#000000;fill-opacity:0.56;stroke:none;stroke-width:1px;stroke-linecap:butt;stroke-linejoin:miter;stroke-opacity:1"
       d="M 600,525 H 325 C 200,525 175,475 175,450 H 0 c 0.8995,121.5892 100,225 300,225 h 300 z"
       id="path37329"
       sodipodi:nodetypes="csccscc" /><path
       id="path24528-1"
       style="fill:#000000;fill-opacity:0.555319;stroke:none;stroke-width:1px;stroke-linecap:butt;stroke-linejoin:miter;stroke-opacity:1"
       d="M 250 199.98242 C 75.000175 199.99942 0 325.00013 0 450 C 0.8994991 571.58908 100.0002 675 300 675 L 325 675 C 325 799.99987 324.99993 899.96542 250 899.98242 C 175.00007 899.99942 175 799.9999 175 700 L 0 700 C 0 824.99987 25.000225 999.99942 250 999.98242 C 474.99977 999.96542 500 824.99985 500 675 L 600 675 L 600 525 L 500 525 C 500 375.00015 474.99977 199.96056 250 199.98242 z M 250 299.98242 C 324.99993 299.96542 325 400.00013 325 525 C 200.00012 525 175 474.99998 175 450 C 175 400.00005 175.00007 299.99942 250 299.98242 z " /></g></svg>
