<?xml version="1.0" encoding="UTF-8" standalone="no"?>
<!-- Created with Inkscape (http://www.inkscape.org/) -->

<svg
   width="1200"
   height="1200"
   viewBox="0 0 1200 1200"
   version="1.1"
   id="svg1"
   inkscape:version="1.2.1 (9c6d41e410, 2022-07-14)"
   sodipodi:docname="982_pi-symbol.svg"
   xml:space="preserve"
   xmlns:inkscape="http://www.inkscape.org/namespaces/inkscape"
   xmlns:sodipodi="http://sodipodi.sourceforge.net/DTD/sodipodi-0.dtd"
   xmlns="http://www.w3.org/2000/svg"
   xmlns:svg="http://www.w3.org/2000/svg"><sodipodi:namedview
     id="namedview1"
     pagecolor="#ffffff"
     bordercolor="#000000"
     borderopacity="0.25"
     inkscape:showpageshadow="2"
     inkscape:pageopacity="0.0"
     inkscape:pagecheckerboard="0"
     inkscape:deskcolor="#d1d1d1"
     inkscape:document-units="px"
     showgrid="true"
     inkscape:zoom="0.78606706"
     inkscape:cx="462.42874"
     inkscape:cy="735.30622"
     inkscape:window-width="1080"
     inkscape:window-height="1857"
     inkscape:window-x="-8"
     inkscape:window-y="-8"
     inkscape:window-maximized="1"
     inkscape:current-layer="layer1"
     showguides="false"><inkscape:grid
       id="grid1"
       units="px"
       originx="0"
       originy="0"
       spacingx="25"
       spacingy="25"
       empcolor="#0099e5"
       empopacity="0.30196078"
       color="#0099e5"
       opacity="0.14901961"
       empspacing="4"
       dotted="false"
       gridanglex="30"
       gridanglez="30"
       visible="true" /></sodipodi:namedview><defs
     id="defs1" /><g
     inkscape:label="Layer 1"
     inkscape:groupmode="layer"
     id="layer1"><path
       id="path2"
       style="fill:#000000;fill-opacity:0.555319;fill-rule:evenodd;stroke-width:0.935296"
       d="M 153.125,600 C 153.125,500 175,400 175,400 H 43.75 C 43.75,400 0,500 0,600 v 175 c 0,99.9999 65.625148,225 218.75,225 136.43161,0 175,-300 175,-400 V 400 H 275 v 375 c 0,74.61401 -34.38275,125.66495 -56.25,125 -29.58204,-0.89955 -65.625,-50.00008 -65.625,-125 z"
       sodipodi:nodetypes="sccsssccccsss" /><path
       id="path2-4"
       style="fill:#000000;fill-opacity:0.555319;fill-rule:evenodd;stroke-width:0.935296"
       d="M 546.875,600 C 546.875,500 525,400 525,400 h 131.25 c 0,0 43.75,100 43.75,200 v 175 c 0,99.9999 -65.62785,223.96041 -218.75,225 -132.49608,0.8996 -175,-300 -175,-400 V 400 H 425 v 375 c 0,74.61401 34.38275,125.66495 56.25,125 29.58204,-0.89955 65.625,-50.00008 65.625,-125 z"
       sodipodi:nodetypes="sccsssccccsss" /><rect
       style="fill:#000000;fill-rule:evenodd;stroke-width:0.935414"
       id="rect1"
       width="700"
       height="100"
       x="0"
       y="400" /><path
       id="path2-7"
       style="fill:#000000;fill-opacity:0.555319;fill-rule:evenodd;stroke-width:0.935296"
       d="M 0 400 L 0 500 L 12.226562 500 C 5.3271495 530.56462 0 565.23289 0 600 L 0 775 C 0 874.9998 65.625301 1000 218.75 1000 C 281.57972 1000 323.6154 936.33432 350.72656 857.91992 C 378.20856 936.58696 420.13837 1000.4149 481.25 1000 C 634.372 998.96041 700 874.9998 700 775 L 700 600 C 700 565.23289 694.67285 530.56462 687.77344 500 L 700 500 L 700 400 L 393.75 400 L 306.25 400 L 275 400 L 175 400 L 43.75 400 L 0 400 z M 159.29688 500 L 275 500 L 275 775 C 275 849.61394 240.61723 900.66495 218.75 900 C 189.16799 899.10045 153.125 849.99985 153.125 775 L 153.125 600 C 153.125 565.17347 155.83852 530.60246 159.29688 500 z M 425 500 L 540.70312 500 C 544.16148 530.60246 546.875 565.17347 546.875 600 L 546.875 775 C 546.875 849.99985 510.83201 899.10045 481.25 900 C 459.38277 900.66495 425 849.61394 425 775 L 425 500 z " /></g></svg>
