<?xml version="1.0" encoding="UTF-8" standalone="no"?>
<!-- Created with Inkscape (http://www.inkscape.org/) -->

<svg
   width="2000"
   height="2000"
   viewBox="0 0 2000 2000"
   version="1.1"
   id="svg1"
   inkscape:version="1.2.2 (732a01da63, 2022-12-09)"
   sodipodi:docname="8353_colon-sign.svg"
   xml:space="preserve"
   xmlns:inkscape="http://www.inkscape.org/namespaces/inkscape"
   xmlns:sodipodi="http://sodipodi.sourceforge.net/DTD/sodipodi-0.dtd"
   xmlns="http://www.w3.org/2000/svg"
   xmlns:svg="http://www.w3.org/2000/svg"><sodipodi:namedview
     id="namedview1"
     pagecolor="#ffffff"
     bordercolor="#000000"
     borderopacity="0.25"
     inkscape:showpageshadow="2"
     inkscape:pageopacity="0.0"
     inkscape:pagecheckerboard="0"
     inkscape:deskcolor="#d1d1d1"
     inkscape:document-units="px"
     showgrid="true"
     inkscape:zoom="0.55583335"
     inkscape:cx="103.44827"
     inkscape:cy="1187.4063"
     inkscape:window-width="3840"
     inkscape:window-height="2066"
     inkscape:window-x="-11"
     inkscape:window-y="-11"
     inkscape:window-maximized="1"
     inkscape:current-layer="layer1"
     showguides="false"><inkscape:grid
       id="grid1"
       units="px"
       originx="0"
       originy="0"
       spacingx="10"
       spacingy="10"
       empcolor="#0099e5"
       empopacity="0.30196078"
       color="#0099e5"
       opacity="0.14901961"
       empspacing="10"
       dotted="false"
       gridanglex="30"
       gridanglez="30"
       visible="true" /></sodipodi:namedview><defs
     id="defs1" /><g
     inkscape:label="Layer 1"
     inkscape:groupmode="layer"
     id="layer1"><path
       style="fill:#000000;fill-opacity:0.555319;stroke:none;stroke-width:1px;stroke-linecap:butt;stroke-linejoin:miter;stroke-opacity:1"
       d="m 1500,1370 c -50,60 -200,240 -600,240 -300,0 -800,-260 -800,-710 0,-450 500,-710 800,-710 300,0 500,190 500,190 V 200 h 100 v 400 h -50 C 1300,450 1202.009,302.69865 950,300 600.02007,296.25222 500,550 500,900 c 0,350 100,600 450,600 350,0 500,-180 550,-230 z"
       id="path53405-5"
       sodipodi:nodetypes="cszscccccszscc" /><path
       id="rect613"
       style="opacity:0.489888;fill-rule:evenodd;stroke-width:100;stroke-linecap:round;stroke-linejoin:round;stroke-miterlimit:4.5;stop-color:#000000"
       d="M 800,100 H 900 L 700,1700 H 600 Z"
       sodipodi:nodetypes="ccccc" /><path
       id="rect613-2"
       style="opacity:0.489888;fill-rule:evenodd;stroke-width:100;stroke-linecap:round;stroke-linejoin:round;stroke-miterlimit:4.5;stop-color:#000000"
       d="m 1000,100 h 100 L 900,1700 H 800 Z"
       sodipodi:nodetypes="ccccc" /><path
       id="path53405-5-3"
       style="fill:#000000;fill-opacity:0.555319;stroke:none;stroke-width:1px;stroke-linecap:butt;stroke-linejoin:miter;stroke-opacity:1"
       d="M 800 100 L 787.4082 200.72852 C 489.66212 253.6544 100 502.70927 100 900 C 100 1224.956 360.72908 1450.7649 618.59961 1551.2051 L 600 1700 L 700 1700 L 714.625 1582.9961 C 747.93626 1592.0373 780.61302 1598.8265 812.08203 1603.3457 L 800 1700 L 900 1700 L 911.26953 1609.8418 C 1302.709 1606.4542 1450.4789 1429.4253 1500 1370 L 1500 1270 C 1450.0001 1319.9999 1299.9996 1500 950 1500 C 941.50142 1500 933.27624 1499.7262 925.07031 1499.4336 L 1073.1211 315.03711 C 1239.1759 356.3865 1327.2283 477.22832 1450 600 L 1500 600 L 1500 200 L 1400 200 L 1400 380 C 1400 380 1279.4571 266.11212 1085.6523 214.78125 L 1100 100 L 1000 100 L 988.00977 195.91406 C 959.67726 192.38442 930.50564 190 900 190 C 896.31166 190 892.46039 190.22036 888.71289 190.29883 L 900 100 L 800 100 z M 950 300 C 958.60314 300.09213 966.59922 300.76007 974.85156 301.18359 L 826.53711 1487.707 C 791.2113 1480.0816 759.31551 1469.0264 730.6582 1454.7324 L 874.53516 303.72461 C 898.3433 301.09748 923.3618 299.71474 950 300 z M 771.68555 326.51172 L 638.99219 1388.0566 C 535.71846 1282.3143 500 1109.0161 500 900 C 500 618.75271 564.71674 399.79101 771.68555 326.51172 z " /></g></svg>
