<?xml version="1.0" encoding="UTF-8" standalone="no"?>
<!-- Created with Inkscape (http://www.inkscape.org/) -->

<svg
   width="2000"
   height="2000"
   viewBox="0 0 2000 2000"
   version="1.1"
   id="svg1"
   inkscape:version="1.2.2 (732a01da63, 2022-12-09)"
   sodipodi:docname="8354_cruzeiro-sign.svg"
   xml:space="preserve"
   xmlns:inkscape="http://www.inkscape.org/namespaces/inkscape"
   xmlns:sodipodi="http://sodipodi.sourceforge.net/DTD/sodipodi-0.dtd"
   xmlns="http://www.w3.org/2000/svg"
   xmlns:svg="http://www.w3.org/2000/svg"><sodipodi:namedview
     id="namedview1"
     pagecolor="#ffffff"
     bordercolor="#000000"
     borderopacity="0.25"
     inkscape:showpageshadow="2"
     inkscape:pageopacity="0.0"
     inkscape:pagecheckerboard="0"
     inkscape:deskcolor="#d1d1d1"
     inkscape:document-units="px"
     showgrid="true"
     inkscape:zoom="0.39303353"
     inkscape:cx="-919.76885"
     inkscape:cy="1233.9914"
     inkscape:window-width="3840"
     inkscape:window-height="2066"
     inkscape:window-x="-11"
     inkscape:window-y="-11"
     inkscape:window-maximized="1"
     inkscape:current-layer="layer1"
     showguides="false"><inkscape:grid
       id="grid1"
       units="px"
       originx="0"
       originy="0"
       spacingx="10"
       spacingy="10"
       empcolor="#0099e5"
       empopacity="0.30196078"
       color="#0099e5"
       opacity="0.14901961"
       empspacing="10"
       dotted="false"
       gridanglex="30"
       gridanglez="30"
       visible="true" /></sodipodi:namedview><defs
     id="defs1" /><g
     inkscape:label="Layer 1"
     inkscape:groupmode="layer"
     id="layer1"><path
       style="fill:#000000;fill-opacity:0.555319;stroke:none;stroke-width:1px;stroke-linecap:butt;stroke-linejoin:miter;stroke-opacity:1"
       d="m 1500,1370 c -50,60 -200,240 -600,240 -300,0 -800,-260 -800,-710 0,-449.99996 500,-709.99996 800,-709.99996 300,0 500,190 500,190 v -180 h 100 v 400 h -50 c -150,-150 -247.991,-297.30135 -500,-300 -349.97993,-3.74778 -450,250 -450,599.99996 0,350 100,600 450,600 350,0 500,-180 550,-230 z"
       id="path53405-7"
       sodipodi:nodetypes="cszscccccszscc" /><path
       style="fill:#000000;fill-opacity:0.555319;fill-rule:evenodd;stroke:none;stroke-width:0.5333px;stroke-linecap:butt;stroke-linejoin:miter;stroke-opacity:1"
       d="m 1007.0968,1117.4193 c 0,-85.1613 89.6586,-317.76752 322.9032,-317.4193 193.5481,0.28895 232.258,102.76294 232.258,177.41934 0,75.73846 -58.0645,96.77416 -116.129,96.77416 -91.1876,0 -116.129,-38.7097 -116.129,-77.41933 0,-89.03223 92.9032,-81.2903 92.9032,-81.2903 v 0 c 0,0 -15.3757,-16.18029 -92.9032,-15.48387 -139.3491,1.25177 -233.6508,201.7778 -232.258,325.1612 z"
       id="path8529-8"
       sodipodi:nodetypes="cssssccscc" /><path
       style="fill:#000000;fill-opacity:0.555319;stroke:none;stroke-width:0.774193px;stroke-linecap:butt;stroke-linejoin:miter;stroke-opacity:1"
       d="M 1100,1550 V 800 H 712.90332 l 2.258,100 H 800 l -2.258,650"
       id="path176602"
       sodipodi:nodetypes="cccccc" /><path
       id="path53405-7-1"
       style="fill:#000000;fill-opacity:0.555319;stroke:none;stroke-width:1px;stroke-linecap:butt;stroke-linejoin:miter;stroke-opacity:1"
       d="M 900 190 C 600.0003 190 100 450.00049 100 900 C 100 1349.9995 600.0003 1610 900 1610 C 1299.9996 1610 1450.0001 1429.9999 1500 1370 L 1500 1270 C 1457.8553 1312.1447 1344.124 1446.2653 1100 1487.4883 L 1100 1187.4395 C 1115.0328 1064.8458 1204.1271 901.13071 1330 900 C 1407.5274 899.30358 1422.9023 915.48438 1422.9023 915.48438 C 1422.9023 915.48437 1330 907.7413 1330 996.77344 C 1330 1035.483 1354.9414 1074.1934 1446.1289 1074.1934 C 1504.1933 1074.1934 1562.2578 1053.1583 1562.2578 977.41992 C 1562.2578 902.7636 1523.5479 800.28895 1330 800 C 1226.7295 799.84582 1151.6559 845.38417 1100 903.54688 L 1100 800 L 712.90234 800 L 715.16211 900 L 800 900 L 797.98438 1480.5332 C 570.11973 1415.5587 500 1192.8391 500 900 C 500 550.00039 600.02042 296.25222 950 300 C 1202.0087 302.69865 1300.0002 450.00015 1450 600 L 1500 600 L 1500 200 L 1400 200 L 1400 380 C 1400 380 1199.9997 190 900 190 z " /></g></svg>
