<?xml version="1.0" encoding="UTF-8" standalone="no"?>
<!-- Created with Inkscape (http://www.inkscape.org/) -->

<svg
   width="2000"
   height="2000"
   viewBox="0 0 2000 2000"
   version="1.1"
   id="svg1"
   inkscape:version="1.2.2 (732a01da63, 2022-12-09)"
   sodipodi:docname="8355_french-franc-sign.svg"
   xml:space="preserve"
   xmlns:inkscape="http://www.inkscape.org/namespaces/inkscape"
   xmlns:sodipodi="http://sodipodi.sourceforge.net/DTD/sodipodi-0.dtd"
   xmlns="http://www.w3.org/2000/svg"
   xmlns:svg="http://www.w3.org/2000/svg"><sodipodi:namedview
     id="namedview1"
     pagecolor="#ffffff"
     bordercolor="#000000"
     borderopacity="0.25"
     inkscape:showpageshadow="2"
     inkscape:pageopacity="0.0"
     inkscape:pagecheckerboard="0"
     inkscape:deskcolor="#d1d1d1"
     inkscape:document-units="px"
     showgrid="true"
     inkscape:zoom="0.39303353"
     inkscape:cx="-919.76885"
     inkscape:cy="1233.9914"
     inkscape:window-width="3840"
     inkscape:window-height="2066"
     inkscape:window-x="-11"
     inkscape:window-y="-11"
     inkscape:window-maximized="1"
     inkscape:current-layer="layer1"
     showguides="false"><inkscape:grid
       id="grid1"
       units="px"
       originx="0"
       originy="0"
       spacingx="10"
       spacingy="10"
       empcolor="#0099e5"
       empopacity="0.30196078"
       color="#0099e5"
       opacity="0.14901961"
       empspacing="10"
       dotted="false"
       gridanglex="30"
       gridanglez="30"
       visible="true" /></sodipodi:namedview><defs
     id="defs1" /><g
     inkscape:label="Layer 1"
     inkscape:groupmode="layer"
     id="layer1"><path
       id="path8529"
       style="fill:#000000;fill-opacity:0.555319;fill-rule:evenodd;stroke:none;stroke-width:1px;stroke-linecap:butt;stroke-linejoin:miter;stroke-opacity:1"
       d="m 1100,600 h -50 C 950.00012,699.9999 849.99992,800 750.00002,800 H 599.99998 V 300 H 1000 c 99.9999,0 250.0002,100.0002 450,300 h 50 V 200 H 99.99998 v 100 h 200 v 1200 h -200 v 100 H 900.00002 V 1500 H 599.99998 V 900 h 150.00004 c 99.9999,0 200.0001,100.0001 299.99998,200 h 50 z"
       sodipodi:nodetypes="ccsccscccccccccccccsccc" /><rect
       style="opacity:0.489888;fill:#000000;fill-rule:evenodd;stroke-width:100;stroke-linecap:round;stroke-linejoin:round;stroke-miterlimit:4.5;stop-color:#000000"
       id="rect1089"
       width="900"
       height="100"
       x="100"
       y="1200" /><path
       id="path8529-7"
       style="fill:#000000;fill-opacity:0.555319;fill-rule:evenodd;stroke:none;stroke-width:1px;stroke-linecap:butt;stroke-linejoin:miter;stroke-opacity:1"
       d="M 100 200 L 100 300 L 300 300 L 300 1200 L 100 1200 L 100 1300 L 300 1300 L 300 1500 L 100 1500 L 100 1600 L 900 1600 L 900 1500 L 600 1500 L 600 1300 L 1000 1300 L 1000 1200 L 600 1200 L 600 900 L 750 900 C 849.9998 900 950.00022 1000.0002 1050 1100 L 1100 1100 L 1100 600 L 1050 600 C 950.00022 699.9998 849.9998 800 750 800 L 600 800 L 600 300 L 1000 300 C 1099.9998 300 1250.0004 400.0004 1450 600 L 1500 600 L 1500 200 L 100 200 z " /></g></svg>
