<?xml version="1.0" encoding="UTF-8" standalone="no"?>
<!-- Created with Inkscape (http://www.inkscape.org/) -->

<svg
   width="2000"
   height="2000"
   viewBox="0 0 2000 2000"
   version="1.1"
   id="svg1"
   inkscape:version="1.2.2 (732a01da63, 2022-12-09)"
   sodipodi:docname="8356_lira-sign.svg"
   xml:space="preserve"
   xmlns:inkscape="http://www.inkscape.org/namespaces/inkscape"
   xmlns:sodipodi="http://sodipodi.sourceforge.net/DTD/sodipodi-0.dtd"
   xmlns="http://www.w3.org/2000/svg"
   xmlns:svg="http://www.w3.org/2000/svg"><sodipodi:namedview
     id="namedview1"
     pagecolor="#ffffff"
     bordercolor="#000000"
     borderopacity="0.25"
     inkscape:showpageshadow="2"
     inkscape:pageopacity="0.0"
     inkscape:pagecheckerboard="0"
     inkscape:deskcolor="#d1d1d1"
     inkscape:document-units="px"
     showgrid="true"
     inkscape:zoom="0.39303353"
     inkscape:cx="-919.76885"
     inkscape:cy="1233.9914"
     inkscape:window-width="3840"
     inkscape:window-height="2066"
     inkscape:window-x="-11"
     inkscape:window-y="-11"
     inkscape:window-maximized="1"
     inkscape:current-layer="layer1-4"
     showguides="false"><inkscape:grid
       id="grid1"
       units="px"
       originx="0"
       originy="0"
       spacingx="10"
       spacingy="10"
       empcolor="#0099e5"
       empopacity="0.30196078"
       color="#0099e5"
       opacity="0.14901961"
       empspacing="10"
       dotted="false"
       gridanglex="30"
       gridanglez="30"
       visible="true" /></sodipodi:namedview><defs
     id="defs1" /><g
     inkscape:label="Layer 1"
     inkscape:groupmode="layer"
     id="layer1"><g
       inkscape:label="Layer 1"
       id="layer1-4"><path
         id="path8529-2"
         style="fill:#000000;fill-opacity:0.555319;fill-rule:evenodd;stroke:none;stroke-width:1px;stroke-linecap:butt;stroke-linejoin:miter;stroke-opacity:1"
         d="M 800,310 C 670,310 600,425 600,550 v 550 c 0,300 -100,400 -100,400 h 700 v 100 H 100 v -100 h 100 c 0,0 97.4557,-102.9593 100,-402.5443 C 301.8534,879.21962 300,550 300,550 300,340 550,200 800,200 c 250,0 400,75 400,250 0,50 -30,150 -150,150 -157.7811,0 -130,-180 -50,-180 0,-40 -70,-110 -200,-110 z"
         sodipodi:nodetypes="zssccccccsszsscz" /><rect
         style="opacity:0.489888;fill:#000000;fill-rule:evenodd;stroke-width:100;stroke-linecap:round;stroke-linejoin:round;stroke-miterlimit:4.5;stop-color:#000000"
         id="rect7335"
         width="800"
         height="100"
         x="100"
         y="1100" /><rect
         style="opacity:0.489888;fill:#000000;fill-rule:evenodd;stroke-width:100;stroke-linecap:round;stroke-linejoin:round;stroke-miterlimit:4.5;stop-color:#000000"
         id="rect7335-4"
         width="800"
         height="100"
         x="100"
         y="800" /><path
         id="path8529-2-7"
         style="fill:#000000;fill-opacity:0.555319;fill-rule:evenodd;stroke:none;stroke-width:1px;stroke-linecap:butt;stroke-linejoin:miter;stroke-opacity:1"
         d="M 800 200 C 550.00025 200 300 340.00021 300 550 C 300 550 300.56271 663.86767 300.72266 800 L 100 800 L 100 900 L 300.77148 900 C 300.70962 968.33813 300.51503 1036.8112 300 1097.4551 C 299.99249 1098.3393 299.93689 1099.1192 299.92773 1100 L 100 1100 L 100 1200 L 295.02734 1200 C 274.7671 1420.9631 200 1500 200 1500 L 100 1500 L 100 1600 L 1200 1600 L 1200 1500 L 500 1500 C 500 1500 577.24071 1422.5607 595.91602 1200 L 900 1200 L 900 1100 L 600 1100 L 600 900 L 900 900 L 900 800 L 600 800 L 600 550 C 600 425.00013 670.00013 310 800 310 C 929.99987 310 1000 380.00004 1000 420 C 920.00008 420 892.21906 600 1050 600 C 1169.9999 600 1200 499.99995 1200 450 C 1200 275.00018 1049.9997 200 800 200 z " /></g></g></svg>
