<?xml version="1.0" encoding="UTF-8" standalone="no"?>
<!-- Created with Inkscape (http://www.inkscape.org/) -->

<svg
   width="2000"
   height="2000"
   viewBox="0 0 2000 2000"
   version="1.1"
   id="svg1"
   inkscape:version="1.2.2 (732a01da63, 2022-12-09)"
   sodipodi:docname="8357_mill-sign.svg"
   xml:space="preserve"
   xmlns:inkscape="http://www.inkscape.org/namespaces/inkscape"
   xmlns:sodipodi="http://sodipodi.sourceforge.net/DTD/sodipodi-0.dtd"
   xmlns="http://www.w3.org/2000/svg"
   xmlns:svg="http://www.w3.org/2000/svg"><sodipodi:namedview
     id="namedview1"
     pagecolor="#ffffff"
     bordercolor="#000000"
     borderopacity="0.25"
     inkscape:showpageshadow="2"
     inkscape:pageopacity="0.0"
     inkscape:pagecheckerboard="0"
     inkscape:deskcolor="#d1d1d1"
     inkscape:document-units="px"
     showgrid="true"
     inkscape:zoom="0.27791668"
     inkscape:cx="-1146.027"
     inkscape:cy="1072.2638"
     inkscape:window-width="3840"
     inkscape:window-height="2066"
     inkscape:window-x="-11"
     inkscape:window-y="-11"
     inkscape:window-maximized="1"
     inkscape:current-layer="layer1-4"
     showguides="false"><inkscape:grid
       id="grid1"
       units="px"
       originx="0"
       originy="0"
       spacingx="10"
       spacingy="10"
       empcolor="#0099e5"
       empopacity="0.30196078"
       color="#0099e5"
       opacity="0.14901961"
       empspacing="10"
       dotted="false"
       gridanglex="30"
       gridanglez="30"
       visible="true" /></sodipodi:namedview><defs
     id="defs1" /><g
     inkscape:label="Layer 1"
     inkscape:groupmode="layer"
     id="layer1"><g
       inkscape:label="Layer 1"
       id="layer1-4"><path
         style="fill:#000000;fill-opacity:0.555319;stroke:none;stroke-width:1px;stroke-linecap:butt;stroke-linejoin:miter;stroke-opacity:1"
         d="m 600,600 v 900 h 200 v 100 H 100 V 1500 H 300 V 700 H 100 V 600 Z"
         id="path123739"
         sodipodi:nodetypes="ccccccccccc" /><path
         style="fill:#000000;fill-opacity:0.555319;stroke:none;stroke-width:1px;stroke-linecap:butt;stroke-linejoin:miter;stroke-opacity:1"
         d="m 1100,1600 h 500 V 1500 H 1400 V 880 C 1400.8996,799.7901 1300,600 960,600 700,600 600,870 600,870 v 130 c 0,0 116.74669,-301.27216 360,-300 139.9981,0.73216 140,100 140,200 z"
         id="path124467"
         sodipodi:nodetypes="cccccsccscc" /><path
         style="fill:#000000;fill-opacity:0.555319;stroke:none;stroke-width:1px;stroke-linecap:butt;stroke-linejoin:miter;stroke-opacity:1"
         d="m 1900,1600 h 500 V 1500 H 2200 V 880 c 0.8996,-80.2099 -100,-280 -440,-280 -260,0 -360,270 -360,270 v 130 c 0,0 116.7467,-301.27216 360,-300 139.9981,0.73216 140,100 140,200 z"
         id="path124467-5"
         sodipodi:nodetypes="cccccsccscc" /><path
         id="path123739-2"
         style="fill:#000000;fill-opacity:0.555319;stroke:none;stroke-width:1px;stroke-linecap:butt;stroke-linejoin:miter;stroke-opacity:1"
         d="m 100,600 v 100 h 200 v 800 H 100 v 100 H 800 V 1500 H 600 v -500 c 0,0 116.74693,-301.27216 360,-300 139.998,0.73216 140,100.0001 140,200 v 700 h 500 v -100 h -200 v -500 c 0,0 116.7469,-301.27216 360,-300 139.998,0.73216 140,100.0001 140,200 v 700 h 500 V 1500 H 2200 V 880 c 0.8996,-80.20982 -100.0003,-280 -440,-280 -259.9997,0 -360,270 -360,270 v 10 C 1400.8996,799.79018 1299.9997,600 960,600 700.00026,600 600,870 600,870 V 600 Z" /><path
         id="rect1218"
         style="opacity:0.489888;fill-rule:evenodd;stroke-width:100;stroke-linecap:round;stroke-linejoin:round;stroke-miterlimit:4.5;stop-color:#000000"
         d="m 1700,300 h 100 V 400 L 700,1900 H 600 v -100 z"
         sodipodi:nodetypes="ccccccc" /><path
         id="path123739-8"
         style="fill:#000000;fill-opacity:0.555319;stroke:none;stroke-width:1px;stroke-linecap:butt;stroke-linejoin:miter;stroke-opacity:1"
         d="M 1700 300 L 1357.9062 766.49219 C 1355.5175 763.04255 1353.4445 759.61431 1350.8242 756.1582 C 1291.6007 678.04353 1172.4998 600 960 600 C 951.87502 600 943.90611 600.26453 936.0918 600.77539 C 928.27813 601.28621 920.61609 602.0426 913.10938 603.03125 C 883.08088 606.9864 855.49356 614.635 830.23047 624.91797 C 779.70318 645.48435 738.47262 676.59769 705.60156 709.82031 C 697.38379 718.12597 689.6875 726.56251 682.5 735 C 668.12501 751.87498 655.78124 768.75002 645.35156 784.57031 C 634.92187 800.39061 626.40625 815.15626 619.6875 827.8125 C 606.25001 853.12497 600 870 600 870 L 600 600 L 100 600 L 100 700 L 300 700 L 300 1500 L 100 1500 L 100 1600 L 746.66602 1600 L 600 1800 L 600 1900 L 700 1900 L 1100 1354.5449 L 1100 1600 L 1600 1600 L 1600 1500 L 1400 1500 L 1400 1000 C 1400 1000 1477.0714 801.11356 1636.4473 727.21289 C 1642.5771 724.37058 1648.8294 721.71387 1655.2031 719.25977 C 1687.0716 706.98926 1721.9917 699.80123 1760 700 C 1899.9979 700.73216 1900 800.0002 1900 900 L 1900 1600 L 2400 1600 L 2400 1500 L 2200 1500 L 2200 880 C 2200.3373 849.92135 2186.3584 803.02701 2150.8242 756.1582 C 2091.6007 678.04353 1972.4998 600 1760 600 C 1751.875 600 1743.9061 600.26453 1736.0918 600.77539 C 1728.2781 601.28621 1720.6161 602.0426 1713.1094 603.03125 C 1690.5882 605.99759 1669.4395 611.04085 1649.6152 617.71484 C 1645.2701 619.17768 1641.0876 620.83628 1636.8691 622.45117 L 1800 400 L 1800 300 L 1700 300 z M 960 700 C 1099.9979 700.73216 1100 800.0002 1100 900 L 1100 1118.1816 L 800 1527.2734 L 800 1500 L 600 1500 L 600 1000 C 600 1000 677.07146 801.11356 836.44727 727.21289 C 842.57715 724.37058 848.82944 721.71387 855.20312 719.25977 C 887.07156 706.98926 921.99175 699.80123 960 700 z " /></g></g></svg>
