<?xml version="1.0" encoding="UTF-8" standalone="no"?>
<!-- Created with Inkscape (http://www.inkscape.org/) -->

<svg
   width="2000"
   height="2000"
   viewBox="0 0 2000 2000"
   version="1.1"
   id="svg1"
   inkscape:version="1.2.2 (732a01da63, 2022-12-09)"
   sodipodi:docname="8358_naira-sign.svg"
   xml:space="preserve"
   xmlns:inkscape="http://www.inkscape.org/namespaces/inkscape"
   xmlns:sodipodi="http://sodipodi.sourceforge.net/DTD/sodipodi-0.dtd"
   xmlns="http://www.w3.org/2000/svg"
   xmlns:svg="http://www.w3.org/2000/svg"><sodipodi:namedview
     id="namedview1"
     pagecolor="#ffffff"
     bordercolor="#000000"
     borderopacity="0.25"
     inkscape:showpageshadow="2"
     inkscape:pageopacity="0.0"
     inkscape:pagecheckerboard="0"
     inkscape:deskcolor="#d1d1d1"
     inkscape:document-units="px"
     showgrid="true"
     inkscape:zoom="0.27791668"
     inkscape:cx="-858.17089"
     inkscape:cy="496.55171"
     inkscape:window-width="3840"
     inkscape:window-height="2066"
     inkscape:window-x="-11"
     inkscape:window-y="-11"
     inkscape:window-maximized="1"
     inkscape:current-layer="layer1-4"
     showguides="false"><inkscape:grid
       id="grid1"
       units="px"
       originx="0"
       originy="0"
       spacingx="10"
       spacingy="10"
       empcolor="#0099e5"
       empopacity="0.30196078"
       color="#0099e5"
       opacity="0.14901961"
       empspacing="10"
       dotted="false"
       gridanglex="30"
       gridanglez="30"
       visible="true" /></sodipodi:namedview><defs
     id="defs1" /><g
     inkscape:label="Layer 1"
     inkscape:groupmode="layer"
     id="layer1"><g
       inkscape:label="Layer 1"
       id="layer1-4"><path
         style="fill:#000000;fill-opacity:0.555319;stroke:none;stroke-width:1px;stroke-linecap:butt;stroke-linejoin:miter;stroke-opacity:1"
         d="m 100,200.00002 v 100 H 300 V 1500 H 100 v 100 H 700 V 1500 H 500 V 550.00002 L 1550,1600 h 150 V 300.00002 h 200 v -100 h -600 v 100 h 200 V 1150 L 550,200.00002 Z"
         id="path22183" /><rect
         style="opacity:0.489888;fill:#000000;fill-rule:evenodd;stroke-width:100;stroke-linecap:round;stroke-linejoin:round;stroke-miterlimit:4.5;stop-color:#000000"
         id="rect1302"
         width="1800"
         height="100"
         x="100"
         y="700" /><rect
         style="opacity:0.489888;fill:#000000;fill-rule:evenodd;stroke-width:100;stroke-linecap:round;stroke-linejoin:round;stroke-miterlimit:4.5;stop-color:#000000"
         id="rect1302-9"
         width="1800"
         height="100"
         x="100"
         y="1000" /><path
         id="path22183-0"
         style="fill:#000000;fill-opacity:0.555319;stroke:none;stroke-width:1px;stroke-linecap:butt;stroke-linejoin:miter;stroke-opacity:1"
         d="M 100 200 L 100 300 L 300 300 L 300 700 L 100 700 L 100 800 L 300 800 L 300 1000 L 100 1000 L 100 1100 L 300 1100 L 300 1500 L 100 1500 L 100 1600 L 700 1600 L 700 1500 L 500 1500 L 500 1100 L 1050 1100 L 1550 1600 L 1700 1600 L 1700 1100 L 1900 1100 L 1900 1000 L 1700 1000 L 1700 800 L 1900 800 L 1900 700 L 1700 700 L 1700 300 L 1900 300 L 1900 200 L 1300 200 L 1300 300 L 1500 300 L 1500 700 L 1050 700 L 550 200 L 100 200 z M 500 550 L 650 700 L 500 700 L 500 550 z M 500 800 L 750 800 L 950 1000 L 500 1000 L 500 800 z M 1150 800 L 1500 800 L 1500 1000 L 1350 1000 L 1150 800 z M 1450 1100 L 1500 1100 L 1500 1150 L 1450 1100 z " /></g></g></svg>
