<?xml version="1.0" encoding="UTF-8" standalone="no"?>
<!-- Created with Inkscape (http://www.inkscape.org/) -->

<svg
   width="1200"
   height="1200"
   viewBox="0 0 1200 1200"
   version="1.1"
   id="svg1"
   inkscape:version="1.2.2 (732a01da63, 2022-12-09)"
   sodipodi:docname="8359_peseta-sign.svg"
   xml:space="preserve"
   xmlns:inkscape="http://www.inkscape.org/namespaces/inkscape"
   xmlns:sodipodi="http://sodipodi.sourceforge.net/DTD/sodipodi-0.dtd"
   xmlns="http://www.w3.org/2000/svg"
   xmlns:svg="http://www.w3.org/2000/svg"><sodipodi:namedview
     id="namedview1"
     pagecolor="#ffffff"
     bordercolor="#000000"
     borderopacity="0.25"
     inkscape:showpageshadow="2"
     inkscape:pageopacity="0.0"
     inkscape:pagecheckerboard="0"
     inkscape:deskcolor="#d1d1d1"
     inkscape:document-units="px"
     showgrid="true"
     inkscape:zoom="1.1116667"
     inkscape:cx="130.43478"
     inkscape:cy="484.85757"
     inkscape:window-width="3840"
     inkscape:window-height="2066"
     inkscape:window-x="-11"
     inkscape:window-y="-11"
     inkscape:window-maximized="1"
     inkscape:current-layer="layer1"
     showguides="false"><inkscape:grid
       id="grid1"
       units="px"
       originx="0"
       originy="0"
       spacingx="25"
       spacingy="25"
       empcolor="#0099e5"
       empopacity="0.30196078"
       color="#0099e5"
       opacity="0.14901961"
       empspacing="4"
       dotted="false"
       gridanglex="30"
       gridanglez="30"
       visible="true" /></sodipodi:namedview><defs
     id="defs1" /><g
     inkscape:label="Layer 1"
     inkscape:groupmode="layer"
     id="layer1"><rect
       style="fill:#000000;fill-opacity:0.555319;fill-rule:evenodd;stroke:none;stroke-width:4;stroke-linecap:square;stroke-linejoin:bevel;stroke-miterlimit:4.5;stroke-opacity:0.56;stop-color:#000000"
       id="rect14744"
       width="900"
       height="100"
       x="0"
       y="400" /><path
       id="path2-8"
       style="fill:#000000;fill-opacity:0.555319;fill-rule:evenodd;stroke-width:0.999873"
       d="m 100,200 v 800 H 300 V 700 H 550 C 724.99982,700 800,574.99995 800,475 V 425 C 800,325.0001 724.99982,199.99998 550,200 H 300 Z m 200,100 h 200 c 48.28475,0 100,50.00007 100,125 v 50 c 0,74.99994 -50.00005,125 -100,125 H 300 Z" /><path
       id="rect14744-0"
       style="fill:#000000;fill-opacity:0.555319;fill-rule:evenodd;stroke:none;stroke-width:4;stroke-linecap:square;stroke-linejoin:bevel;stroke-miterlimit:4.5;stroke-opacity:0.56;stop-color:#000000"
       d="M 100 200 L 100 400 L 0 400 L 0 500 L 100 500 L 100 1000 L 300 1000 L 300 700 L 550 700 C 710.67797 700 786.86029 594.65067 798.28516 500 L 900 500 L 900 400 L 798.28516 400 C 786.86029 305.34936 710.67797 199.99998 550 200 L 300 200 L 100 200 z M 300 300 L 500 300 C 542.68645 300 587.98734 339.1179 597.93359 400 L 300 400 L 300 300 z M 300 500 L 597.99609 500 C 588.3403 560.8821 544.20277 600 500 600 L 300 600 L 300 500 z " /></g></svg>
