<?xml version="1.0" encoding="UTF-8" standalone="no"?>
<!-- Created with Inkscape (http://www.inkscape.org/) -->

<svg
   width="2000"
   height="2000"
   viewBox="0 0 2000 2000"
   version="1.1"
   id="svg1"
   inkscape:version="1.2.2 (732a01da63, 2022-12-09)"
   sodipodi:docname="8360_rupee-sign.svg"
   xml:space="preserve"
   xmlns:inkscape="http://www.inkscape.org/namespaces/inkscape"
   xmlns:sodipodi="http://sodipodi.sourceforge.net/DTD/sodipodi-0.dtd"
   xmlns="http://www.w3.org/2000/svg"
   xmlns:svg="http://www.w3.org/2000/svg"><sodipodi:namedview
     id="namedview1"
     pagecolor="#ffffff"
     bordercolor="#000000"
     borderopacity="0.25"
     inkscape:showpageshadow="2"
     inkscape:pageopacity="0.0"
     inkscape:pagecheckerboard="0"
     inkscape:deskcolor="#d1d1d1"
     inkscape:document-units="px"
     showgrid="true"
     inkscape:zoom="0.78606706"
     inkscape:cx="1580.6539"
     inkscape:cy="1195.8267"
     inkscape:window-width="3840"
     inkscape:window-height="2066"
     inkscape:window-x="-11"
     inkscape:window-y="-11"
     inkscape:window-maximized="1"
     inkscape:current-layer="layer1-4"
     showguides="false"><inkscape:grid
       id="grid1"
       units="px"
       originx="0"
       originy="0"
       spacingx="10"
       spacingy="10"
       empcolor="#0099e5"
       empopacity="0.30196078"
       color="#0099e5"
       opacity="0.14901961"
       empspacing="10"
       dotted="false"
       gridanglex="30"
       gridanglez="30"
       visible="true" /></sodipodi:namedview><defs
     id="defs1" /><g
     inkscape:label="Layer 1"
     inkscape:groupmode="layer"
     id="layer1"><g
       inkscape:label="Layer 1"
       id="layer1-4"><path
         id="path48264-2-8"
         style="fill:#000000;fill-opacity:0.555319;fill-rule:evenodd;stroke:none;stroke-width:1px;stroke-linecap:butt;stroke-linejoin:miter;stroke-opacity:1"
         d="M 100,200 V 300 H 300 V 1500 H 100 v 100 H 900 V 1500 H 600 v -500 h 400 c 149.9998,0 200.8996,144.0782 200,300 -1.1538,199.9965 110.0001,300 200,300 h 300 v -100 c -99.9999,0 -200,-2e-4 -200,-200 0,-195.9121 -116.2304,-298.7486 -243.4219,-350.81836 C 1395.1169,889.17213 1497.1183,776.10858 1500,610 1504.4978,350.73488 1249.9997,200 1000,200 Z m 500,100 h 400 c 119.9999,0 200,140.00016 200,300 0,159.99984 -80.0001,300 -200,300 H 600 Z" /><path
         style="fill:#000000;fill-opacity:0.555319;stroke:none;stroke-width:0.733958px;stroke-linecap:butt;stroke-linejoin:miter;stroke-opacity:1"
         d="m 1900,1200 h -100 v 400 h 100 v -180 c 0,0 200,190 400,190 260,0 500,-160 500,-310 0,-150 -137.7965,-193.2257 -390,-260 -307.6909,-81.46534 -310,-79.99999 -310,-239.99999 0,-55.42703 20,-100 200,-100 220,0 312.4112,149.7673 350,185.59539 l 52.1314,0.67719 V 599.64787 H 2600 v 100.35214 c 0,0 -80,-100 -300,-100 -290,0 -500,156.68764 -500,300 0,157.64359 144.8863,191.76419 350,249.99999 353.3348,100.3187 350,100 350,250 0,71.6562 -31.846,99.1004 -200,100 -187.9413,1.0054 -354.8934,-164.1719 -400,-200 z"
         id="path73468"
         sodipodi:nodetypes="cccccssssscccccssssscc" /></g></g></svg>
