<?xml version="1.0" encoding="UTF-8" standalone="no"?>
<!-- Created with Inkscape (http://www.inkscape.org/) -->

<svg
   width="2000"
   height="2000"
   viewBox="0 0 2000 2000"
   version="1.1"
   id="svg1"
   inkscape:version="1.2.2 (732a01da63, 2022-12-09)"
   sodipodi:docname="8361_won-sign.svg"
   xml:space="preserve"
   xmlns:inkscape="http://www.inkscape.org/namespaces/inkscape"
   xmlns:sodipodi="http://sodipodi.sourceforge.net/DTD/sodipodi-0.dtd"
   xmlns="http://www.w3.org/2000/svg"
   xmlns:svg="http://www.w3.org/2000/svg"><sodipodi:namedview
     id="namedview1"
     pagecolor="#ffffff"
     bordercolor="#000000"
     borderopacity="0.25"
     inkscape:showpageshadow="2"
     inkscape:pageopacity="0.0"
     inkscape:pagecheckerboard="0"
     inkscape:deskcolor="#d1d1d1"
     inkscape:document-units="px"
     showgrid="true"
     inkscape:zoom="0.78606706"
     inkscape:cx="1580.6539"
     inkscape:cy="1094.0542"
     inkscape:window-width="3840"
     inkscape:window-height="2066"
     inkscape:window-x="-11"
     inkscape:window-y="-11"
     inkscape:window-maximized="1"
     inkscape:current-layer="layer1-4"
     showguides="false"><inkscape:grid
       id="grid1"
       units="px"
       originx="0"
       originy="0"
       spacingx="10"
       spacingy="10"
       empcolor="#0099e5"
       empopacity="0.30196078"
       color="#0099e5"
       opacity="0.14901961"
       empspacing="10"
       dotted="false"
       gridanglex="30"
       gridanglez="30"
       visible="true" /></sodipodi:namedview><defs
     id="defs1" /><g
     inkscape:label="Layer 1"
     inkscape:groupmode="layer"
     id="layer1"><g
       inkscape:label="Layer 1"
       id="layer1-4"><path
         id="path37678"
         style="fill:#000000;fill-opacity:0.555319;stroke:none;stroke-width:1px;stroke-linecap:butt;stroke-linejoin:miter;stroke-opacity:1"
         d="m 100,200 v 100 h 150 l 650,1300 h 150 l 325,-650 325,650 h 150 L 2500,300 h 100 V 200 h -500 v 100 h 250 l -475,950 -475,-950 h 200 V 200 H 900 v 100 h 150 L 1300,800 1075,1250 600,300 H 700 V 200 Z" /><rect
         style="opacity:0.489888;fill:#000000;fill-rule:evenodd;stroke-width:100;stroke-linecap:round;stroke-linejoin:round;stroke-miterlimit:4.5;stop-color:#000000"
         id="rect1531"
         width="2300"
         height="100"
         x="200"
         y="800" /><path
         id="path37678-4"
         style="fill:#000000;fill-opacity:0.555319;stroke:none;stroke-width:1px;stroke-linecap:butt;stroke-linejoin:miter;stroke-opacity:1"
         d="M 100 200 L 100 300 L 250 300 L 500 800 L 200 800 L 200 900 L 550 900 L 900 1600 L 1050 1600 L 1375 950 L 1700 1600 L 1850 1600 L 2200 900 L 2500 900 L 2500 800 L 2250 800 L 2500 300 L 2600 300 L 2600 200 L 2100 200 L 2100 300 L 2350 300 L 2100 800 L 1650 800 L 1400 300 L 1600 300 L 1600 200 L 900 200 L 900 300 L 1050 300 L 1300 800 L 850 800 L 600 300 L 700 300 L 700 200 L 100 200 z M 900 900 L 1250 900 L 1075 1250 L 900 900 z M 1700 900 L 2050 900 L 1875 1250 L 1700 900 z " /></g></g></svg>
