<?xml version="1.0" encoding="UTF-8" standalone="no"?>
<!-- Created with Inkscape (http://www.inkscape.org/) -->

<svg
   width="2000"
   height="2000"
   viewBox="0 0 2000 2000"
   version="1.1"
   id="svg1"
   inkscape:version="1.2.2 (732a01da63, 2022-12-09)"
   sodipodi:docname="8363_dong-sign.svg"
   xml:space="preserve"
   xmlns:inkscape="http://www.inkscape.org/namespaces/inkscape"
   xmlns:sodipodi="http://sodipodi.sourceforge.net/DTD/sodipodi-0.dtd"
   xmlns="http://www.w3.org/2000/svg"
   xmlns:svg="http://www.w3.org/2000/svg"><sodipodi:namedview
     id="namedview1"
     pagecolor="#ffffff"
     bordercolor="#000000"
     borderopacity="0.25"
     inkscape:showpageshadow="2"
     inkscape:pageopacity="0.0"
     inkscape:pagecheckerboard="0"
     inkscape:deskcolor="#d1d1d1"
     inkscape:document-units="px"
     showgrid="true"
     inkscape:zoom="0.78606706"
     inkscape:cx="1321.1341"
     inkscape:cy="952.84491"
     inkscape:window-width="3840"
     inkscape:window-height="2066"
     inkscape:window-x="-11"
     inkscape:window-y="-11"
     inkscape:window-maximized="1"
     inkscape:current-layer="layer1-6"
     showguides="false"><inkscape:grid
       id="grid1"
       units="px"
       originx="0"
       originy="0"
       spacingx="10"
       spacingy="10"
       empcolor="#0099e5"
       empopacity="0.30196078"
       color="#0099e5"
       opacity="0.14901961"
       empspacing="10"
       dotted="false"
       gridanglex="30"
       gridanglez="30"
       visible="true" /></sodipodi:namedview><defs
     id="defs1" /><g
     inkscape:label="Layer 1"
     inkscape:groupmode="layer"
     id="layer1"><g
       inkscape:label="Layer 1"
       id="layer1-4"><g
         inkscape:label="Layer 1"
         id="layer1-6"><path
           style="fill:#000000;fill-opacity:0.555319;stroke:none;stroke-width:1px;stroke-linecap:butt;stroke-linejoin:miter;stroke-opacity:1"
           d="m 1300,1300 h 200 v 100 H 1200 L 1000,1300 V 300 H 800 V 200 h 500 z"
           id="path123739"
           sodipodi:nodetypes="cccccccccc" /><path
           style="fill:#000000;fill-opacity:0.555319;stroke:none;stroke-width:1px;stroke-linecap:butt;stroke-linejoin:miter;stroke-opacity:1"
           d="m 1000,1300 c 0,0 -150.00315,100.9717 -300,100 -392.753,-2.5443 -600,-100 -600,-400 0,-300 200,-400 600,-400 150,0 300,100 300,100 v 100 c 0,0 -150,-100 -300,-100 -150,0 -300,34.33284 -300,300 0,265.6672 150,300 300,300 150,0 300,-100 300,-100 z"
           id="path124467"
           sodipodi:nodetypes="cszsccszscc" /><rect
           style="opacity:0.489888;fill:#000000;fill-rule:evenodd;stroke-width:100;stroke-linecap:round;stroke-linejoin:round;stroke-miterlimit:4.5;stop-color:#000000"
           id="rect1582"
           width="1000"
           height="100"
           x="500"
           y="400" /><rect
           style="opacity:0.489888;fill:#000000;fill-rule:evenodd;stroke-width:100;stroke-linecap:round;stroke-linejoin:round;stroke-miterlimit:4.5;stop-color:#000000"
           id="rect1584"
           width="1400"
           height="100"
           x="100"
           y="1500" /><path
           id="path123739-3"
           style="fill:#000000;fill-opacity:0.555319;stroke:none;stroke-width:1px;stroke-linecap:butt;stroke-linejoin:miter;stroke-opacity:1"
           d="M 800 200 L 800 300 L 1000 300 L 1000 400 L 500 400 L 500 500 L 1000 500 L 1000 700 C 1000 700 849.99985 600 700 600 C 300.0004 600 100 700.0003 100 1000 C 100 1299.9997 307.24739 1397.4557 700 1400 C 849.9967 1400.9717 1000 1300 1000 1300 L 1200 1400 L 1500 1400 L 1500 1300 L 1300 1300 L 1300 500 L 1500 500 L 1500 400 L 1300 400 L 1300 200 L 800 200 z M 700 700 C 849.99985 700 1000 800 1000 800 L 1000 1200 C 1000 1200 849.99985 1300 700 1300 C 550.00015 1300 400 1265.6669 400 1000 C 400 734.33311 550.00015 700 700 700 z M 100 1500 L 100 1600 L 1500 1600 L 1500 1500 L 100 1500 z " /></g></g></g></svg>
