<?xml version="1.0" encoding="UTF-8" standalone="no"?>
<!-- Created with Inkscape (http://www.inkscape.org/) -->

<svg
   width="2000"
   height="2000"
   viewBox="0 0 2000 2000"
   version="1.1"
   id="svg1"
   inkscape:version="1.2.2 (732a01da63, 2022-12-09)"
   sodipodi:docname="8364_euro-sign.svg"
   xml:space="preserve"
   xmlns:inkscape="http://www.inkscape.org/namespaces/inkscape"
   xmlns:sodipodi="http://sodipodi.sourceforge.net/DTD/sodipodi-0.dtd"
   xmlns="http://www.w3.org/2000/svg"
   xmlns:svg="http://www.w3.org/2000/svg"><sodipodi:namedview
     id="namedview1"
     pagecolor="#ffffff"
     bordercolor="#000000"
     borderopacity="0.25"
     inkscape:showpageshadow="2"
     inkscape:pageopacity="0.0"
     inkscape:pagecheckerboard="0"
     inkscape:deskcolor="#d1d1d1"
     inkscape:document-units="px"
     showgrid="true"
     inkscape:zoom="0.78606706"
     inkscape:cx="300.86492"
     inkscape:cy="1020.2692"
     inkscape:window-width="3840"
     inkscape:window-height="2066"
     inkscape:window-x="-11"
     inkscape:window-y="-11"
     inkscape:window-maximized="1"
     inkscape:current-layer="layer1-6"
     showguides="false"><inkscape:grid
       id="grid1"
       units="px"
       originx="0"
       originy="0"
       spacingx="10"
       spacingy="10"
       empcolor="#0099e5"
       empopacity="0.30196078"
       color="#0099e5"
       opacity="0.14901961"
       empspacing="10"
       dotted="false"
       gridanglex="30"
       gridanglez="30"
       visible="true" /></sodipodi:namedview><defs
     id="defs1" /><g
     inkscape:label="Layer 1"
     inkscape:groupmode="layer"
     id="layer1"><g
       inkscape:label="Layer 1"
       id="layer1-4"><g
         inkscape:label="Layer 1"
         id="layer1-6"><path
           style="fill:#000000;fill-opacity:0.555319;stroke:none;stroke-width:1px;stroke-linecap:butt;stroke-linejoin:miter;stroke-opacity:1"
           d="m 1700,1370 c -50,60 -200,240 -600,240 -300,0 -800,-260 -800,-710 0,-450 500,-710 800,-710 300,0 500,190 500,190 V 200 h 100 v 400 h -50 C 1500,450 1402.009,302.69865 1150,300 800.02007,296.25222 700,550 700,900 c 0,350 100,600 450,600 350,0 500,-180 550,-230 z"
           id="path53405"
           sodipodi:nodetypes="cszscccccszscc" /><path
           style="fill:#000000;fill-opacity:0.555319;stroke:none;stroke-width:1px;stroke-linecap:butt;stroke-linejoin:miter;stroke-opacity:1"
           d="m 100,750 70,-150 h 1100 l -70,150 z"
           id="path1731"
           sodipodi:nodetypes="ccccc" /><path
           style="fill:#000000;fill-opacity:0.555319;stroke:none;stroke-width:1px;stroke-linecap:butt;stroke-linejoin:miter;stroke-opacity:1"
           d="m 100,1140 70,-140 h 930 l -70,140 z"
           id="path1733"
           sodipodi:nodetypes="ccccc" /><path
           id="path53405-3"
           style="fill:#000000;fill-opacity:0.555319;stroke:none;stroke-width:1px;stroke-linecap:butt;stroke-linejoin:miter;stroke-opacity:1"
           d="M 1100 190 C 874.78153 190 536.86646 336.54884 382.38477 600 L 170 600 L 100 750 L 319.66602 750 C 307.08551 797.35809 300 847.32232 300 900 C 300 934.50866 303.26307 967.75759 308.82812 1000 L 170 1000 L 100 1140 L 351.59375 1140 C 486.78449 1441.0557 858.24397 1610 1100 1610 C 1499.9996 1610 1650.0001 1429.9999 1700 1370 L 1700 1270 C 1650.0001 1319.9999 1499.9996 1500 1150 1500 C 886.95157 1500 765.15407 1358.7479 720.85352 1140 L 1030 1140 L 1100 1000 L 703.37891 1000 C 701.29704 967.62233 700 934.45954 700 900 C 700 847.54377 702.59165 797.58926 707.58984 750 L 1200 750 L 1270 600 L 735.39453 600 C 789.2023 414.49122 911.55118 297.44656 1150 300 C 1402.0087 302.69865 1500.0002 450.00015 1650 600 L 1700 600 L 1700 200 L 1600 200 L 1600 380 C 1600 380 1399.9997 190 1100 190 z " /></g></g></g></svg>
