<?xml version="1.0" encoding="UTF-8" standalone="no"?>
<!-- Created with Inkscape (http://www.inkscape.org/) -->

<svg
   width="1200"
   height="1200"
   viewBox="0 0 1200 1200"
   version="1.1"
   id="svg1"
   inkscape:version="1.2.2 (732a01da63, 2022-12-09)"
   sodipodi:docname="8364_euro-sign.svg"
   xml:space="preserve"
   xmlns:inkscape="http://www.inkscape.org/namespaces/inkscape"
   xmlns:sodipodi="http://sodipodi.sourceforge.net/DTD/sodipodi-0.dtd"
   xmlns="http://www.w3.org/2000/svg"
   xmlns:svg="http://www.w3.org/2000/svg"><sodipodi:namedview
     id="namedview1"
     pagecolor="#ffffff"
     bordercolor="#000000"
     borderopacity="0.25"
     inkscape:showpageshadow="2"
     inkscape:pageopacity="0.0"
     inkscape:pagecheckerboard="0"
     inkscape:deskcolor="#d1d1d1"
     inkscape:document-units="px"
     showgrid="true"
     inkscape:zoom="1.1116667"
     inkscape:cx="418.29085"
     inkscape:cy="628.78561"
     inkscape:window-width="3840"
     inkscape:window-height="2066"
     inkscape:window-x="-11"
     inkscape:window-y="-11"
     inkscape:window-maximized="1"
     inkscape:current-layer="layer1"
     showguides="false"><inkscape:grid
       id="grid1"
       units="px"
       originx="0"
       originy="0"
       spacingx="25"
       spacingy="25"
       empcolor="#0099e5"
       empopacity="0.30196078"
       color="#0099e5"
       opacity="0.14901961"
       empspacing="4"
       dotted="false"
       gridanglex="30"
       gridanglez="30"
       visible="true" /></sodipodi:namedview><defs
     id="defs1" /><g
     inkscape:label="Layer 1"
     inkscape:groupmode="layer"
     id="layer1"><path
       id="path2-5"
       style="fill:#000000;fill-opacity:0.555319;fill-rule:evenodd;stroke-width:0.999873"
       d="m 900,350 c 0.527,-62.35992 -100,-150 -374.99999,-150 -225,0 -425,175 -425,375 v 50 c 0,200 200,374.99998 425,374.99998 C 800,999.99998 903.5982,908.62069 900,850 H 700 c 0,25 -50.4431,51.27216 -174.99999,50 -124.99348,-1.27662 -225,-150 -225,-275 v -50 c 0,-125 100,-275 225,-275 C 650,300 700,325 700,350 Z"
       sodipodi:nodetypes="cssssccsssscc" /><rect
       style="fill:#000000;fill-opacity:0.555319;fill-rule:evenodd;stroke:none;stroke-width:4;stroke-linecap:square;stroke-linejoin:bevel;stroke-miterlimit:4.5;stroke-opacity:0.56;stop-color:#000000"
       id="rect31771"
       width="600"
       height="100"
       x="0"
       y="600" /><rect
       style="fill:#000000;fill-opacity:0.555319;fill-rule:evenodd;stroke:none;stroke-width:4;stroke-linecap:square;stroke-linejoin:bevel;stroke-miterlimit:4.5;stroke-opacity:0.56;stop-color:#000000"
       id="rect31773"
       width="700"
       height="100"
       x="0"
       y="400" /><path
       id="path2-5-4"
       style="fill:#000000;fill-opacity:0.555319;fill-rule:evenodd;stroke-width:0.999873"
       d="M 525 200 C 370.05188 200 226.97563 283.0018 152.89453 400 L 0 400 L 0 500 L 109.43945 500 C 103.29317 524.38879 100 549.4861 100 575 L 100 600 L 0 600 L 0 700 L 109.43945 700 C 151.47302 866.79143 328.70336 1000 525 1000 C 799.99972 1000 903.5982 908.62063 900 850 L 700 850 C 700 874.99997 649.55677 901.27216 525 900 C 424.52915 898.97384 340.32055 802.66256 311.09961 700 L 600 700 L 600 600 L 300 600 L 300 575 C 300 550.51511 303.95244 525.08809 311.0625 500 L 700 500 L 700 400 L 359.03711 400 C 400.06204 342.05163 458.94662 300 525 300 C 649.99987 300 700 325.00002 700 350 L 900 350 C 900.527 287.64014 799.99972 200 525 200 z " /></g></svg>
