<?xml version="1.0" encoding="UTF-8" standalone="no"?>
<!-- Created with Inkscape (http://www.inkscape.org/) -->

<svg
   width="2000"
   height="2000"
   viewBox="0 0 2000 2000"
   version="1.1"
   id="svg1"
   inkscape:version="1.2.2 (732a01da63, 2022-12-09)"
   sodipodi:docname="8365_kip-sign.svg"
   xml:space="preserve"
   xmlns:inkscape="http://www.inkscape.org/namespaces/inkscape"
   xmlns:sodipodi="http://sodipodi.sourceforge.net/DTD/sodipodi-0.dtd"
   xmlns="http://www.w3.org/2000/svg"
   xmlns:svg="http://www.w3.org/2000/svg"><sodipodi:namedview
     id="namedview1"
     pagecolor="#ffffff"
     bordercolor="#000000"
     borderopacity="0.25"
     inkscape:showpageshadow="2"
     inkscape:pageopacity="0.0"
     inkscape:pagecheckerboard="0"
     inkscape:deskcolor="#d1d1d1"
     inkscape:document-units="px"
     showgrid="true"
     inkscape:zoom="0.27791668"
     inkscape:cx="-858.17089"
     inkscape:cy="496.55171"
     inkscape:window-width="3840"
     inkscape:window-height="2066"
     inkscape:window-x="-11"
     inkscape:window-y="-11"
     inkscape:window-maximized="1"
     inkscape:current-layer="layer1-4"
     showguides="false"><inkscape:grid
       id="grid1"
       units="px"
       originx="0"
       originy="0"
       spacingx="10"
       spacingy="10"
       empcolor="#0099e5"
       empopacity="0.30196078"
       color="#0099e5"
       opacity="0.14901961"
       empspacing="10"
       dotted="false"
       gridanglex="30"
       gridanglez="30"
       visible="true" /></sodipodi:namedview><defs
     id="defs1" /><g
     inkscape:label="Layer 1"
     inkscape:groupmode="layer"
     id="layer1"><g
       inkscape:label="Layer 1"
       id="layer1-4"><path
         style="fill:#000000;fill-opacity:0.555319;stroke:none;stroke-width:1px;stroke-linecap:butt;stroke-linejoin:miter;stroke-opacity:1"
         d="M 100,200.00001 V 300 H 300 V 1500 H 100 v 100 H 800 V 1500 H 600 v -250 l 250,-250 500,500 h -250 v 100 h 800 V 1500 H 1750 L 1050,800 1550,300 h 150 V 200 h -500 v 100 h 150 L 600,1050 V 300 H 800 V 200 Z"
         id="path27366" /><rect
         style="opacity:0.489888;fill:#000000;fill-rule:evenodd;stroke-width:100;stroke-linecap:round;stroke-linejoin:round;stroke-miterlimit:4.5;stop-color:#000000"
         id="rect1453"
         width="1500"
         height="100"
         x="100"
         y="800" /><path
         id="path27366-3"
         style="fill:#000000;fill-opacity:0.555319;stroke:none;stroke-width:1px;stroke-linecap:butt;stroke-linejoin:miter;stroke-opacity:1"
         d="M 100 200 L 100 300 L 300 300 L 300 800 L 100 800 L 100 900 L 300 900 L 300 1500 L 100 1500 L 100 1600 L 800 1600 L 800 1500 L 600 1500 L 600 1250 L 850 1000 L 1350 1500 L 1100 1500 L 1100 1600 L 1900 1600 L 1900 1500 L 1750 1500 L 1150 900 L 1600 900 L 1600 800 L 1050 800 L 1550 300 L 1700 300 L 1700 200 L 1200 200 L 1200 300 L 1350 300 L 850 800 L 600 800 L 600 300 L 800 300 L 800 200 L 100 200 z M 600 900 L 750 900 L 600 1050 L 600 900 z " /></g></g></svg>
