<?xml version="1.0" encoding="UTF-8" standalone="no"?>
<!-- Created with Inkscape (http://www.inkscape.org/) -->

<svg
   width="2000"
   height="2000"
   viewBox="0 0 2000 2000"
   version="1.1"
   id="svg1"
   inkscape:version="1.2.2 (732a01da63, 2022-12-09)"
   sodipodi:docname="8366_tugrik-sign.svg"
   xml:space="preserve"
   xmlns:inkscape="http://www.inkscape.org/namespaces/inkscape"
   xmlns:sodipodi="http://sodipodi.sourceforge.net/DTD/sodipodi-0.dtd"
   xmlns="http://www.w3.org/2000/svg"
   xmlns:svg="http://www.w3.org/2000/svg"><sodipodi:namedview
     id="namedview1"
     pagecolor="#ffffff"
     bordercolor="#000000"
     borderopacity="0.25"
     inkscape:showpageshadow="2"
     inkscape:pageopacity="0.0"
     inkscape:pagecheckerboard="0"
     inkscape:deskcolor="#d1d1d1"
     inkscape:document-units="px"
     showgrid="true"
     inkscape:zoom="1.1116667"
     inkscape:cx="748.87554"
     inkscape:cy="872.56369"
     inkscape:window-width="3840"
     inkscape:window-height="2066"
     inkscape:window-x="-11"
     inkscape:window-y="-11"
     inkscape:window-maximized="1"
     inkscape:current-layer="layer1-6"
     showguides="false"><inkscape:grid
       id="grid1"
       units="px"
       originx="0"
       originy="0"
       spacingx="10"
       spacingy="10"
       empcolor="#0099e5"
       empopacity="0.30196078"
       color="#0099e5"
       opacity="0.14901961"
       empspacing="10"
       dotted="false"
       gridanglex="30"
       gridanglez="30"
       visible="true" /></sodipodi:namedview><defs
     id="defs1" /><g
     inkscape:label="Layer 1"
     inkscape:groupmode="layer"
     id="layer1"><g
       inkscape:label="Layer 1"
       id="layer1-4"><g
         inkscape:label="Layer 1"
         id="layer1-6"><path
           id="path8529"
           style="fill:#000000;fill-opacity:0.555319;fill-rule:evenodd;stroke:none;stroke-width:1px;stroke-linecap:butt;stroke-linejoin:miter;stroke-opacity:1"
           d="m 100,200 v 400 h 50 C 349.9996,400.0004 500.0002,300 600,300 V 1500 H 300 v 100 h 900 V 1500 H 900 V 300 c 99.9998,0 250.0004,100.0004 450,300 h 50 V 200 Z" /><path
           id="rect3875"
           style="opacity:0.489888;fill-opacity:0.555319;fill-rule:evenodd;stroke-width:100;stroke-linecap:round;stroke-linejoin:round;stroke-miterlimit:4.5;stop-color:#000000"
           d="M 300,1300 1200,850 V 950 L 300,1400 Z"
           sodipodi:nodetypes="ccccc" /><path
           id="rect3875-8"
           style="opacity:0.489888;fill-opacity:0.555319;fill-rule:evenodd;stroke-width:100;stroke-linecap:round;stroke-linejoin:round;stroke-miterlimit:4.5;stop-color:#000000"
           d="M 300,1000 1200,550 V 650 L 300,1100 Z"
           sodipodi:nodetypes="ccccc" /><path
           id="path8529-1"
           style="fill:#000000;fill-opacity:0.555319;fill-rule:evenodd;stroke:none;stroke-width:1px;stroke-linecap:butt;stroke-linejoin:miter;stroke-opacity:1"
           d="M 100 200 L 100 600 L 150 600 C 349.9994 400.0006 500.0003 300 600 300 L 600 850 L 300 1000 L 300 1100 L 600 950 L 600 1150 L 300 1300 L 300 1400 L 600 1250 L 600 1500 L 300 1500 L 300 1600 L 1200 1600 L 1200 1500 L 900 1500 L 900 1100 L 1200 950 L 1200 850 L 900 1000 L 900 800 L 1200 650 L 1200 550 L 900 700 L 900 300 C 999.9997 300 1150.0006 400.0006 1350 600 L 1400 600 L 1400 200 L 100 200 z " /></g></g></g></svg>
