<?xml version="1.0" encoding="UTF-8" standalone="no"?>
<!-- Created with Inkscape (http://www.inkscape.org/) -->

<svg
   width="2000"
   height="2000"
   viewBox="0 0 2000 2000"
   version="1.1"
   id="svg1"
   inkscape:version="1.2.2 (732a01da63, 2022-12-09)"
   sodipodi:docname="8367_drachma-sign.svg"
   xml:space="preserve"
   xmlns:inkscape="http://www.inkscape.org/namespaces/inkscape"
   xmlns:sodipodi="http://sodipodi.sourceforge.net/DTD/sodipodi-0.dtd"
   xmlns="http://www.w3.org/2000/svg"
   xmlns:svg="http://www.w3.org/2000/svg"><sodipodi:namedview
     id="namedview1"
     pagecolor="#ffffff"
     bordercolor="#000000"
     borderopacity="0.25"
     inkscape:showpageshadow="2"
     inkscape:pageopacity="0.0"
     inkscape:pagecheckerboard="0"
     inkscape:deskcolor="#d1d1d1"
     inkscape:document-units="px"
     showgrid="true"
     inkscape:zoom="0.55583335"
     inkscape:cx="1542.7286"
     inkscape:cy="1088.4557"
     inkscape:window-width="3840"
     inkscape:window-height="2066"
     inkscape:window-x="-11"
     inkscape:window-y="-11"
     inkscape:window-maximized="1"
     inkscape:current-layer="layer1-6"
     showguides="false"><inkscape:grid
       id="grid1"
       units="px"
       originx="0"
       originy="0"
       spacingx="10"
       spacingy="10"
       empcolor="#0099e5"
       empopacity="0.30196078"
       color="#0099e5"
       opacity="0.14901961"
       empspacing="10"
       dotted="false"
       gridanglex="30"
       gridanglez="30"
       visible="true" /></sodipodi:namedview><defs
     id="defs1" /><g
     inkscape:label="Layer 1"
     inkscape:groupmode="layer"
     id="layer1"><g
       inkscape:label="Layer 1"
       id="layer1-4"><g
         inkscape:label="Layer 1"
         id="layer1-6"><path
           id="path31802"
           style="fill:#000000;fill-opacity:0.555319;stroke:none;stroke-width:1px;stroke-linecap:butt;stroke-linejoin:miter;stroke-opacity:1"
           d="M 250,1500 775,450 1300,1500 Z m 1400,100 v -100 0 L 1000,200 H 750 L 100,1500 v 0 100 z"
           sodipodi:nodetypes="ccccccccccccc" /><path
           id="path124467"
           style="fill:#000000;fill-opacity:0.555319;stroke:none;stroke-width:1px;stroke-linecap:butt;stroke-linejoin:miter;stroke-opacity:1"
           d="m 2350,600 c -399.9996,0 -550,200.00033 -550,500 0,299.9997 157.2474,497.4557 550,500 392.7526,-2.5443 550,-200.0003 550,-500 0,-299.99967 -150.0004,-500 -550,-500 z m 0,100 c 149.9998,0 250,134.33314 250,400 0,265.6669 -100.0002,400 -250,400 -149.9999,0 -250,-134.3331 -250,-400 0,-265.66686 100.0001,-400 250,-400 z" /><rect
           style="opacity:0.489888;fill:#000000;fill-opacity:0.555319;fill-rule:evenodd;stroke:none;stroke-width:100;stroke-linecap:round;stroke-linejoin:round;stroke-miterlimit:4.5;stop-color:#000000"
           id="rect7595"
           width="300"
           height="900"
           x="1800"
           y="1100" /><path
           id="path31802-2"
           style="fill:#000000;fill-opacity:0.555319;stroke:none;stroke-width:1px;stroke-linecap:butt;stroke-linejoin:miter;stroke-opacity:1"
           d="M 750 200 L 100 1500 L 100 1600 L 1650 1600 L 1650 1500 L 1000 200 L 750 200 z M 775 450 L 1300 1500 L 250 1500 L 775 450 z M 2350 600 C 1950.0008 600 1800 800.00063 1800 1100 L 1800 2000 L 2100 2000 L 2100 1563.4941 C 2169.6452 1586.7104 2252.5568 1599.3688 2350 1600 C 2742.7522 1597.4557 2900 1399.9994 2900 1100 C 2900 800.00063 2749.9992 600 2350 600 z M 2350 700 C 2499.9997 700 2600 834.33341 2600 1100 C 2600 1365.6666 2499.9997 1500 2350 1500 C 2200.0002 1500 2100 1365.6666 2100 1100 C 2100 834.33341 2200.0002 700 2350 700 z " /></g></g></g></svg>
