<?xml version="1.0" encoding="UTF-8" standalone="no"?>
<!-- Created with Inkscape (http://www.inkscape.org/) -->

<svg
   width="1200"
   height="1200"
   viewBox="0 0 1200 1200"
   version="1.1"
   id="svg1"
   inkscape:version="1.2.2 (732a01da63, 2022-12-09)"
   sodipodi:docname="8368_german-penny-sign.svg"
   xml:space="preserve"
   xmlns:inkscape="http://www.inkscape.org/namespaces/inkscape"
   xmlns:sodipodi="http://sodipodi.sourceforge.net/DTD/sodipodi-0.dtd"
   xmlns="http://www.w3.org/2000/svg"
   xmlns:svg="http://www.w3.org/2000/svg"><sodipodi:namedview
     id="namedview1"
     pagecolor="#ffffff"
     bordercolor="#000000"
     borderopacity="0.25"
     inkscape:showpageshadow="2"
     inkscape:pageopacity="0.0"
     inkscape:pagecheckerboard="0"
     inkscape:deskcolor="#d1d1d1"
     inkscape:document-units="px"
     showgrid="true"
     inkscape:zoom="1.1116667"
     inkscape:cx="320.68965"
     inkscape:cy="628.78559"
     inkscape:window-width="3840"
     inkscape:window-height="2066"
     inkscape:window-x="-11"
     inkscape:window-y="-11"
     inkscape:window-maximized="1"
     inkscape:current-layer="layer1"
     showguides="false"><inkscape:grid
       id="grid1"
       units="px"
       originx="0"
       originy="0"
       spacingx="25"
       spacingy="25"
       empcolor="#0099e5"
       empopacity="0.30196078"
       color="#0099e5"
       opacity="0.14901961"
       empspacing="4"
       dotted="false"
       gridanglex="30"
       gridanglez="30"
       visible="true" /></sodipodi:namedview><defs
     id="defs1" /><g
     inkscape:label="Layer 1"
     inkscape:groupmode="layer"
     id="layer1"><g
       inkscape:label="Layer 1"
       id="layer1-6"
       transform="matrix(-1,0,0,1,700,-200)" /><path
       id="path2-1"
       style="fill:#000000;fill-opacity:0.555319;fill-rule:evenodd;stroke-width:0.999873"
       d="m 350,200 c -149.99985,0 -250,75 -250,250 0,250 325,250 325,500 0,75 -25.00005,150 -75,150 v 100 c 149.99982,0 251.88105,-75.0101 250,-250 -2.69865,-251.04948 -325,-250 -325,-500 0,-75 25.00005,-150 75,-150 44.0823,0 100,25.00005 100,75 H 600 C 600,300.00007 524.9998,200 350,200 Z"
       sodipodi:nodetypes="sssccsssccs" /><path
       style="fill:#000000;stroke:none;stroke-width:1px;stroke-linecap:butt;stroke-linejoin:miter;stroke-opacity:1;fill-opacity:0.55531901"
       d="M 450,375 C 450,575 250,900 250,900 L 200,800 H 100 L 0,1000 h 100 l 50,-100 50,100 h 100 c 0,0 300,-375 300,-625"
       id="path73877"
       sodipodi:nodetypes="cccccccccc" /><path
       id="path2-1-9"
       style="fill:#000000;fill-opacity:0.555319;fill-rule:evenodd;stroke-width:0.999873"
       d="M 350 200 C 200.0003 200 100 275.00018 100 450 C 100 610.38006 233.6865 667.9248 329.58203 754.53906 C 287.25536 839.37597 250 900 250 900 L 200 800 L 100 800 L 0 1000 L 100 1000 L 150 900 L 200 1000 L 300 1000 C 300 1000 347.77556 940.0031 405.06836 852.57812 C 417.55067 880.56073 425 912.41562 425 950 C 425 1024.9999 399.9999 1100 350 1100 L 350 1200 C 499.99967 1200 601.88105 1124.9897 600 950 C 598.88555 846.32479 543.10514 785.7726 478.1875 732.64844 C 542.70069 617.37908 600 484.25532 600 375 C 600 300.00014 524.99963 200 350 200 z M 350 300 C 394.08226 300 450 325.0001 450 375 C 450 456.69187 416.52372 559.06921 377.04688 651.80469 C 320.28528 602.14337 275 543.70853 275 450 C 275 375.00007 300.0001 300 350 300 z " /></g></svg>
