<?xml version="1.0" encoding="UTF-8" standalone="no"?>
<!-- Created with Inkscape (http://www.inkscape.org/) -->

<svg
   width="2000"
   height="2000"
   viewBox="0 0 2000 2000"
   version="1.1"
   id="svg1"
   inkscape:version="1.2.2 (732a01da63, 2022-12-09)"
   sodipodi:docname="8368_german-penny-sign.svg"
   xml:space="preserve"
   xmlns:inkscape="http://www.inkscape.org/namespaces/inkscape"
   xmlns:sodipodi="http://sodipodi.sourceforge.net/DTD/sodipodi-0.dtd"
   xmlns="http://www.w3.org/2000/svg"
   xmlns:svg="http://www.w3.org/2000/svg"><sodipodi:namedview
     id="namedview1"
     pagecolor="#ffffff"
     bordercolor="#000000"
     borderopacity="0.25"
     inkscape:showpageshadow="2"
     inkscape:pageopacity="0.0"
     inkscape:pagecheckerboard="0"
     inkscape:deskcolor="#d1d1d1"
     inkscape:document-units="px"
     showgrid="true"
     inkscape:zoom="0.39303353"
     inkscape:cx="-400.72917"
     inkscape:cy="1457.8909"
     inkscape:window-width="3840"
     inkscape:window-height="2066"
     inkscape:window-x="-11"
     inkscape:window-y="-11"
     inkscape:window-maximized="1"
     inkscape:current-layer="layer1-1"
     showguides="false"><inkscape:grid
       id="grid1"
       units="px"
       originx="0"
       originy="0"
       spacingx="10"
       spacingy="10"
       empcolor="#0099e5"
       empopacity="0.30196078"
       color="#0099e5"
       opacity="0.14901961"
       empspacing="10"
       dotted="false"
       gridanglex="30"
       gridanglez="30"
       visible="true" /></sodipodi:namedview><defs
     id="defs1" /><g
     inkscape:label="Layer 1"
     inkscape:groupmode="layer"
     id="layer1"><g
       inkscape:label="Layer 1"
       id="layer1-1"
       transform="translate(100)"><path
         id="path9518"
         style="fill:#000000;stroke:none;stroke-width:1px;stroke-linecap:butt;stroke-linejoin:miter;stroke-opacity:1;fill-opacity:0.55531901"
         d="m 900,500 c 0,400 -500,940 -500,940 L 200,1240 0,1440 v 160 l 200,-200 200,200 c 0,0 700,-600 700,-1100 C 1100,300 1000,200 700,200 400,200 200,300 200,600.00004 200,899.99998 902.54431,1401.0757 900,1650 c -1.27759,124.9934 -70,240 -200,240 -130,0 -180,-20 -180,-60 60,-20 10,-130 -70,-130 -120,0 -150,50 -150,100 0,100 150.00004,200 400,200 250,0 500,-140 500,-350 C 1200,1300 499.99991,700.57284 499.99996,500.00004 500,350 605.7191,300 700,300 c 100,0 200,50 200,200 z"
         sodipodi:nodetypes="sccccccssssscsssssss" /><path
         id="path9518-3"
         style="fill:#000000;fill-opacity:0.555319;stroke:none;stroke-width:1px;stroke-linecap:butt;stroke-linejoin:miter;stroke-opacity:1"
         d="M 700 200 C 400.0003 200 200 300.00026 200 600 C 200 763.42429 407.6088 985.96804 597.01953 1195.4648 C 492.01957 1340.3832 400 1440 400 1440 L 200 1240 L 0 1440 L 0 1600 L 200 1400 L 400 1600 C 400 1600 539.28186 1480.2973 693.53906 1303.7344 C 809.84882 1437.6912 900.91672 1560.3117 900 1650 C 898.72241 1774.9933 829.99987 1890 700 1890 C 570.00013 1890 520 1870 520 1830 C 579.99994 1810 529.99992 1700 450 1700 C 330.00012 1700 300 1750.0001 300 1800 C 300 1899.9999 450.00029 2000 700 2000 C 949.99975 2000 1200 1859.9998 1200 1650 C 1200 1486.0935 1046.3553 1267.6431 883.10742 1060.9141 C 1003.9685 883.90115 1100 685.12496 1100 500 C 1100 300.0002 999.9997 200 700 200 z M 700 300 C 799.9999 300 900 350.00015 900 500 C 900 633.08927 844.53283 781.62072 770.66211 920.66016 C 626.19579 742.23947 499.99998 584.80867 500 500 C 500.00004 350.00011 605.71919 300 700 300 z " /></g></g></svg>
