<?xml version="1.0" encoding="UTF-8" standalone="no"?>
<!-- Created with Inkscape (http://www.inkscape.org/) -->

<svg
   width="2000"
   height="2000"
   viewBox="0 0 2000 2000"
   version="1.1"
   id="svg1"
   inkscape:version="1.2.2 (732a01da63, 2022-12-09)"
   sodipodi:docname="8368_peso-sign.svg"
   xml:space="preserve"
   xmlns:inkscape="http://www.inkscape.org/namespaces/inkscape"
   xmlns:sodipodi="http://sodipodi.sourceforge.net/DTD/sodipodi-0.dtd"
   xmlns="http://www.w3.org/2000/svg"
   xmlns:svg="http://www.w3.org/2000/svg"><sodipodi:namedview
     id="namedview1"
     pagecolor="#ffffff"
     bordercolor="#000000"
     borderopacity="0.25"
     inkscape:showpageshadow="2"
     inkscape:pageopacity="0.0"
     inkscape:pagecheckerboard="0"
     inkscape:deskcolor="#d1d1d1"
     inkscape:document-units="px"
     showgrid="true"
     inkscape:zoom="0.55583335"
     inkscape:cx="1542.7286"
     inkscape:cy="1088.4557"
     inkscape:window-width="3840"
     inkscape:window-height="2066"
     inkscape:window-x="-11"
     inkscape:window-y="-11"
     inkscape:window-maximized="1"
     inkscape:current-layer="layer1-6"
     showguides="false"><inkscape:grid
       id="grid1"
       units="px"
       originx="0"
       originy="0"
       spacingx="10"
       spacingy="10"
       empcolor="#0099e5"
       empopacity="0.30196078"
       color="#0099e5"
       opacity="0.14901961"
       empspacing="10"
       dotted="false"
       gridanglex="30"
       gridanglez="30"
       visible="true" /></sodipodi:namedview><defs
     id="defs1" /><g
     inkscape:label="Layer 1"
     inkscape:groupmode="layer"
     id="layer1"><g
       inkscape:label="Layer 1"
       id="layer1-4"><g
         inkscape:label="Layer 1"
         id="layer1-6"><path
           id="path48264-2"
           style="fill:#000000;fill-opacity:0.555319;fill-rule:evenodd;stroke:none;stroke-width:1px;stroke-linecap:butt;stroke-linejoin:miter;stroke-opacity:1"
           d="m 1000,1000 c 250,0 495.5022,-130.73462 500,-390 4.4978,-259.26538 -250,-410 -500,-410 H 99.99996 V 300 H 300 V 1500 H 99.99996 v 100 H 900 V 1500 H 600 V 1000 Z M 600,300 h 400 c 120,0 200,140 200,300 0,160 -80,300.00001 -200,300.00001 H 600 Z"
           sodipodi:nodetypes="czsccccccccccccszscc" /><rect
           style="opacity:0.489888;fill:#000000;fill-opacity:0.555319;fill-rule:evenodd;stroke:none;stroke-width:100;stroke-linecap:round;stroke-linejoin:round;stroke-miterlimit:4.5;stop-color:#000000"
           id="rect9106"
           width="1600"
           height="100"
           x="100"
           y="400" /><rect
           style="opacity:0.489888;fill:#000000;fill-opacity:0.555319;fill-rule:evenodd;stroke:none;stroke-width:100;stroke-linecap:round;stroke-linejoin:round;stroke-miterlimit:4.5;stop-color:#000000"
           id="rect9108"
           width="1600"
           height="100"
           x="100"
           y="700" /><path
           id="path48264-2-4"
           style="fill:#000000;fill-opacity:0.555319;fill-rule:evenodd;stroke:none;stroke-width:1px;stroke-linecap:butt;stroke-linejoin:miter;stroke-opacity:1"
           d="M 100 200 L 100 300 L 300 300 L 300 400 L 100 400 L 100 500 L 300 500 L 300 700 L 100 700 L 100 800 L 300 800 L 300 1500 L 100 1500 L 100 1600 L 900 1600 L 900 1500 L 600 1500 L 600 1000 L 1000 1000 C 1178.869 1000 1355.3894 933.04055 1443.0312 800 L 1700 800 L 1700 700 L 1487.7598 700 C 1495.1962 671.9495 1499.4455 641.96119 1500 610 C 1500.6803 570.78674 1495.3493 534.10177 1485.0918 500 L 1700 500 L 1700 400 L 1436.3633 400 C 1345.8543 271.23812 1171.8642 200 1000 200 L 100 200 z M 600 300 L 1000 300 C 1063.4829 300 1115.5924 339.40413 1150.7637 400 L 600 400 L 600 300 z M 600 500 L 1188.8926 500 C 1196.022 531.61786 1200 565.2703 1200 600 C 1200 634.7297 1196.022 668.38214 1188.8926 700 L 600 700 L 600 500 z M 600 800 L 1150.7637 800 C 1115.5924 860.59587 1063.4829 900 1000 900 L 600 900 L 600 800 z " /></g></g></g></svg>
