<?xml version="1.0" encoding="UTF-8" standalone="no"?>
<!-- Created with Inkscape (http://www.inkscape.org/) -->

<svg
   width="2000"
   height="2000"
   viewBox="0 0 2000 2000"
   version="1.1"
   id="svg1"
   inkscape:version="1.2.2 (732a01da63, 2022-12-09)"
   sodipodi:docname="8370_guarani-sign.svg"
   xml:space="preserve"
   xmlns:inkscape="http://www.inkscape.org/namespaces/inkscape"
   xmlns:sodipodi="http://sodipodi.sourceforge.net/DTD/sodipodi-0.dtd"
   xmlns="http://www.w3.org/2000/svg"
   xmlns:svg="http://www.w3.org/2000/svg"><sodipodi:namedview
     id="namedview1"
     pagecolor="#ffffff"
     bordercolor="#000000"
     borderopacity="0.25"
     inkscape:showpageshadow="2"
     inkscape:pageopacity="0.0"
     inkscape:pagecheckerboard="0"
     inkscape:deskcolor="#d1d1d1"
     inkscape:document-units="px"
     showgrid="true"
     inkscape:zoom="0.55583335"
     inkscape:cx="1542.7286"
     inkscape:cy="1088.4557"
     inkscape:window-width="3840"
     inkscape:window-height="2066"
     inkscape:window-x="-11"
     inkscape:window-y="-11"
     inkscape:window-maximized="1"
     inkscape:current-layer="layer1-6"
     showguides="false"><inkscape:grid
       id="grid1"
       units="px"
       originx="0"
       originy="0"
       spacingx="10"
       spacingy="10"
       empcolor="#0099e5"
       empopacity="0.30196078"
       color="#0099e5"
       opacity="0.14901961"
       empspacing="10"
       dotted="false"
       gridanglex="30"
       gridanglez="30"
       visible="true" /></sodipodi:namedview><defs
     id="defs1" /><g
     inkscape:label="Layer 1"
     inkscape:groupmode="layer"
     id="layer1"><g
       inkscape:label="Layer 1"
       id="layer1-4"><g
         inkscape:label="Layer 1"
         id="layer1-6"><path
           id="path53405"
           style="fill:#000000;fill-opacity:0.555319;stroke:none;stroke-width:1px;stroke-linecap:butt;stroke-linejoin:miter;stroke-opacity:1"
           d="m 900,190 c -299.9997,0 -800,260.00045 -800,710 0,449.9995 500.0003,710 800,710 269.9997,0 370,-90 400,-110 l 300,100 v -500 h 300 v -100 h -800 v 100 h 200 v 300 c -29.5412,18.7278 -130.0002,100 -350,100 -349.9996,0 -450.00003,-250.0004 -450.00003,-600 0,-349.99965 100.01923,-603.62534 450.00003,-600 347.361,3.5982 450.0002,150.00015 600,300 h 50 V 200 h -100 v 180 c 0,0 -200.0004,-190 -600,-190 z"
           sodipodi:nodetypes="ssscccccccccssscccccs" /><rect
           style="opacity:0.489888;fill:#000000;fill-opacity:0.555319;fill-rule:evenodd;stroke:none;stroke-width:100;stroke-linecap:round;stroke-linejoin:round;stroke-miterlimit:4.5;stop-color:#000000"
           id="rect10614"
           width="200"
           height="1600"
           x="800"
           y="100" /><path
           id="path53405-5"
           style="fill:#000000;fill-opacity:0.555319;stroke:none;stroke-width:1px;stroke-linecap:butt;stroke-linejoin:miter;stroke-opacity:1"
           d="M 800 100 L 800 198.62305 C 500.77604 246.64516 100 497.07675 100 900 C 100 1302.9232 500.77604 1553.3548 800 1601.377 L 800 1700 L 1000 1700 L 1000 1605.375 C 1195.4656 1586.8862 1274.0474 1517.3017 1300 1500 L 1600 1600 L 1600 1100 L 1900 1100 L 1900 1000 L 1100 1000 L 1100 1100 L 1300 1100 L 1300 1400 C 1272.8093 1417.2377 1185.2693 1487.3032 1000 1498.3691 L 1000 301.85742 C 1307.3364 318.54347 1407.5203 457.52027 1550 600 L 1600 600 L 1600 200 L 1500 200 L 1500 380 C 1500 380 1332.9571 222.2811 1000 194.55859 L 1000 100 L 800 100 z M 800 317.62695 L 800 1481.1465 C 570.50582 1416.9256 500 1193.7148 500 900 C 500 606.28786 570.51762 380.5288 800 317.62695 z " /></g></g></g></svg>
