<?xml version="1.0" encoding="UTF-8" standalone="no"?>
<!-- Created with Inkscape (http://www.inkscape.org/) -->

<svg
   width="2000"
   height="2000"
   viewBox="0 0 2000 2000"
   version="1.1"
   id="svg1"
   inkscape:version="1.2.2 (732a01da63, 2022-12-09)"
   sodipodi:docname="8371_austral-sign.svg"
   xml:space="preserve"
   xmlns:inkscape="http://www.inkscape.org/namespaces/inkscape"
   xmlns:sodipodi="http://sodipodi.sourceforge.net/DTD/sodipodi-0.dtd"
   xmlns="http://www.w3.org/2000/svg"
   xmlns:svg="http://www.w3.org/2000/svg"><sodipodi:namedview
     id="namedview1"
     pagecolor="#ffffff"
     bordercolor="#000000"
     borderopacity="0.25"
     inkscape:showpageshadow="2"
     inkscape:pageopacity="0.0"
     inkscape:pagecheckerboard="0"
     inkscape:deskcolor="#d1d1d1"
     inkscape:document-units="px"
     showgrid="true"
     inkscape:zoom="0.55583335"
     inkscape:cx="1364.6177"
     inkscape:cy="1088.4557"
     inkscape:window-width="3840"
     inkscape:window-height="2066"
     inkscape:window-x="-11"
     inkscape:window-y="-11"
     inkscape:window-maximized="1"
     inkscape:current-layer="layer1-6"
     showguides="false"><inkscape:grid
       id="grid1"
       units="px"
       originx="0"
       originy="0"
       spacingx="10"
       spacingy="10"
       empcolor="#0099e5"
       empopacity="0.30196078"
       color="#0099e5"
       opacity="0.14901961"
       empspacing="10"
       dotted="false"
       gridanglex="30"
       gridanglez="30"
       visible="true" /></sodipodi:namedview><defs
     id="defs1" /><g
     inkscape:label="Layer 1"
     inkscape:groupmode="layer"
     id="layer1"><g
       inkscape:label="Layer 1"
       id="layer1-4"><g
         inkscape:label="Layer 1"
         id="layer1-6"><path
           id="path31802"
           style="fill:#000000;fill-opacity:0.555319;stroke:none;stroke-width:1px;stroke-linecap:butt;stroke-linejoin:miter;stroke-opacity:1"
           d="M 749.99998,1000 1025,450 l 275,550 z m 250,-800 L 350,1500 H 100 v 100 H 799.99998 V 1500 H 500 L 699.99998,1100 H 1350 l 200,400 h -250 v 100 h 800 V 1500 H 1900 L 1250,200 Z"
           sodipodi:nodetypes="ccccccccccccccccccccc" /><rect
           style="opacity:0.489888;fill:#000000;fill-opacity:0.555319;fill-rule:evenodd;stroke:none;stroke-width:103.28;stroke-linecap:round;stroke-linejoin:round;stroke-miterlimit:4.5;stop-color:#000000"
           id="rect12114"
           width="1600"
           height="100"
           x="299.99997"
           y="700" /><rect
           style="opacity:0.489888;fill:#000000;fill-opacity:0.555319;fill-rule:evenodd;stroke:none;stroke-width:103.28;stroke-linecap:round;stroke-linejoin:round;stroke-miterlimit:4.5;stop-color:#000000"
           id="rect12114-9"
           width="1600"
           height="100"
           x="299.99997"
           y="1000" /><path
           id="path31802-4"
           style="fill:#000000;fill-opacity:0.555319;stroke:none;stroke-width:1px;stroke-linecap:butt;stroke-linejoin:miter;stroke-opacity:1"
           d="m 999.99998,200 -250,500 h -450 v 100 h 400 l -100,200 h -300 v 100 h 250 l -200,400 h -250 v 100 h 700 v -100 h -300 l 200,-400 H 1350 l 200,400 h -250 v 100 h 800 v -100 h -200 l -200,-400 h 200 V 1000 H 1650 L 1550,800 h 350 V 700 H 1500 L 1250,200 Z M 1025,450 1150,700 H 899.99998 Z M 849.99998,800 H 1200 l 100,200 H 749.99998 Z" /></g></g></g></svg>
