<?xml version="1.0" encoding="UTF-8" standalone="no"?>
<!-- Created with Inkscape (http://www.inkscape.org/) -->

<svg
   width="1200"
   height="1200"
   viewBox="0 0 1200 1200"
   version="1.1"
   id="svg1"
   inkscape:version="1.2.2 (732a01da63, 2022-12-09)"
   sodipodi:docname="8371_austral-sign.svg"
   xml:space="preserve"
   xmlns:inkscape="http://www.inkscape.org/namespaces/inkscape"
   xmlns:sodipodi="http://sodipodi.sourceforge.net/DTD/sodipodi-0.dtd"
   xmlns="http://www.w3.org/2000/svg"
   xmlns:svg="http://www.w3.org/2000/svg"><sodipodi:namedview
     id="namedview1"
     pagecolor="#ffffff"
     bordercolor="#000000"
     borderopacity="0.25"
     inkscape:showpageshadow="2"
     inkscape:pageopacity="0.0"
     inkscape:pagecheckerboard="0"
     inkscape:deskcolor="#d1d1d1"
     inkscape:document-units="px"
     showgrid="true"
     inkscape:zoom="1.1116667"
     inkscape:cx="418.29085"
     inkscape:cy="772.71364"
     inkscape:window-width="3840"
     inkscape:window-height="2066"
     inkscape:window-x="-11"
     inkscape:window-y="-11"
     inkscape:window-maximized="1"
     inkscape:current-layer="layer1"
     showguides="false"><inkscape:grid
       id="grid1"
       units="px"
       originx="0"
       originy="0"
       spacingx="25"
       spacingy="25"
       empcolor="#0099e5"
       empopacity="0.30196078"
       color="#0099e5"
       opacity="0.14901961"
       empspacing="4"
       dotted="false"
       gridanglex="30"
       gridanglez="30"
       visible="true" /></sodipodi:namedview><defs
     id="defs1" /><g
     inkscape:label="Layer 1"
     inkscape:groupmode="layer"
     id="layer1"><path
       id="path357"
       style="fill:#000000;fill-opacity:0.56;fill-rule:evenodd;stroke:none;stroke-width:1px;stroke-linecap:butt;stroke-linejoin:miter;stroke-opacity:1"
       d="M 300,700 V 575 c 0,-117.8102 100,-225.00001 150,-275.00001 50,50 150,150 150,275.00001 V 700 Z M 100,1000 H 300 V 800 h 300 v 200 H 800 V 575 C 800,408.80693 600,249.99999 550,199.99999 H 350 c -50,50 -250,200 -250,375.00001 z"
       sodipodi:nodetypes="cscsccccccccsccsc" /><rect
       style="fill:#000000;fill-opacity:0.555319;fill-rule:evenodd;stroke:none;stroke-width:4;stroke-linecap:square;stroke-linejoin:bevel;stroke-miterlimit:4.5;stroke-opacity:0.56;stop-color:#000000"
       id="rect54139"
       width="900"
       height="100"
       x="0"
       y="500" /><path
       id="path357-1"
       style="fill:#000000;fill-opacity:0.56;fill-rule:evenodd;stroke:none;stroke-width:1px;stroke-linecap:butt;stroke-linejoin:miter;stroke-opacity:1"
       d="M 350 200 C 307.32058 242.67942 155.44306 358.24307 111.85742 500 L 0 500 L 0 600 L 100 600 L 100 1000 L 300 1000 L 300 800 L 600 800 L 600 1000 L 800 1000 L 800 600 L 900 600 L 900 500 L 787.28711 500 C 742.54873 362.99763 592.39045 242.39045 550 200 L 350 200 z M 450 300 C 489.51904 339.51904 560.0913 410.35453 588.01758 500 L 312.9043 500 C 341.42689 413.2284 410.90148 339.09852 450 300 z M 300 600 L 600 600 L 600 700 L 300 700 L 300 600 z " /></g></svg>
