<?xml version="1.0" encoding="UTF-8" standalone="no"?>
<!-- Created with Inkscape (http://www.inkscape.org/) -->

<svg
   width="2000"
   height="2000"
   viewBox="0 0 2000 2000"
   version="1.1"
   id="svg1"
   inkscape:version="1.2.2 (732a01da63, 2022-12-09)"
   sodipodi:docname="8372_hryvnia-sign.svg"
   xml:space="preserve"
   xmlns:inkscape="http://www.inkscape.org/namespaces/inkscape"
   xmlns:sodipodi="http://sodipodi.sourceforge.net/DTD/sodipodi-0.dtd"
   xmlns="http://www.w3.org/2000/svg"
   xmlns:svg="http://www.w3.org/2000/svg"><sodipodi:namedview
     id="namedview1"
     pagecolor="#ffffff"
     bordercolor="#000000"
     borderopacity="0.25"
     inkscape:showpageshadow="2"
     inkscape:pageopacity="0.0"
     inkscape:pagecheckerboard="0"
     inkscape:deskcolor="#d1d1d1"
     inkscape:document-units="px"
     showgrid="true"
     inkscape:zoom="0.55583335"
     inkscape:cx="535.23237"
     inkscape:cy="1043.4782"
     inkscape:window-width="3840"
     inkscape:window-height="2066"
     inkscape:window-x="-11"
     inkscape:window-y="-11"
     inkscape:window-maximized="1"
     inkscape:current-layer="layer1"
     showguides="false"><inkscape:grid
       id="grid1"
       units="px"
       originx="0"
       originy="0"
       spacingx="10"
       spacingy="10"
       empcolor="#0099e5"
       empopacity="0.30196078"
       color="#0099e5"
       opacity="0.14901961"
       empspacing="10"
       dotted="false"
       gridanglex="30"
       gridanglez="30"
       visible="true" /></sodipodi:namedview><defs
     id="defs1" /><g
     inkscape:label="Layer 1"
     inkscape:groupmode="layer"
     id="layer1"><path
       style="fill:#000000;fill-opacity:0.555319;stroke:none;stroke-width:1px;stroke-linecap:butt;stroke-linejoin:miter;stroke-opacity:1"
       d="m 1400,1200 h 100 v 500 h -100 v -200 c 0,0 -279.3103,212.2489 -550,210 C 500.0121,1707.0923 200,1490 200,1250 200,980 512.9613,886.7623 850,800 1159.9703,720.2057 1300,630 1300,550 1300,472.6486 1200,400 900,400 510,400 400,650 350,700 H 300 V 300 h 100 v 150 c 0,0 180,-160 500,-160 380,0 600,160 600,360 0,220 -187.1612,268.7288 -460,350 -470,140 -640,240 -640,380 0,100 200,220 450,220 250,0 490,-200 550,-250 z"
       id="path73468"
       sodipodi:nodetypes="cccccssssscccccssssscc" /><rect
       style="opacity:0.489888;fill:#000000;fill-rule:evenodd;stroke-width:107.417;stroke-linecap:round;stroke-linejoin:round;stroke-miterlimit:4.5;stop-color:#000000"
       id="rect13105"
       width="1500"
       height="100"
       x="100"
       y="800" /><rect
       style="opacity:0.489888;fill:#000000;fill-rule:evenodd;stroke-width:107.417;stroke-linecap:round;stroke-linejoin:round;stroke-miterlimit:4.5;stop-color:#000000"
       id="rect13107"
       width="1500"
       height="100"
       x="100"
       y="1000" /><path
       id="path73468-6"
       style="fill:#000000;fill-opacity:0.555319;stroke:none;stroke-width:1px;stroke-linecap:butt;stroke-linejoin:miter;stroke-opacity:1"
       d="M 900 290 C 580.00032 290 400 450 400 450 L 400 300 L 300 300 L 300 700 L 350 700 C 399.99995 650.00005 510.00039 400 900 400 C 1199.9997 400 1300 472.64868 1300 550 C 1300 629.99992 1159.97 720.20578 850 800 L 100 800 L 100 900 L 520.16992 900 C 447.96692 928.2664 383.45213 960.59123 331.82617 1000 L 100 1000 L 100 1100 L 239.88477 1100 C 214.29937 1143.1037 200 1192.5143 200 1250 C 200 1489.9998 500.01245 1707.0923 850 1710 C 1120.6894 1712.2489 1400 1500 1400 1500 L 1400 1700 L 1500 1700 L 1500 1200 L 1400 1200 L 1400 1350 C 1340.0001 1399.9999 1099.9997 1600 850 1600 C 600.00025 1600 400 1479.9999 400 1380 C 400 1275.4711 494.92729 1193.2296 738.57422 1100 L 1600 1100 L 1600 1000 L 1040 1000 C 1154.1801 965.98888 1253.0393 937.55041 1329.7715 900 L 1600 900 L 1600 800 L 1457.4805 800 C 1485.0535 760.59693 1500 712.13561 1500 650 C 1500 450.0002 1279.9996 290 900 290 z " /></g></svg>
