<?xml version="1.0" encoding="UTF-8" standalone="no"?>
<!-- Created with Inkscape (http://www.inkscape.org/) -->

<svg
   width="2000"
   height="2000"
   viewBox="0 0 2000 2000"
   version="1.1"
   id="svg1"
   inkscape:version="1.2.2 (732a01da63, 2022-12-09)"
   sodipodi:docname="8373_cedi-sign.svg"
   xml:space="preserve"
   xmlns:inkscape="http://www.inkscape.org/namespaces/inkscape"
   xmlns:sodipodi="http://sodipodi.sourceforge.net/DTD/sodipodi-0.dtd"
   xmlns="http://www.w3.org/2000/svg"
   xmlns:svg="http://www.w3.org/2000/svg"><sodipodi:namedview
     id="namedview1"
     pagecolor="#ffffff"
     bordercolor="#000000"
     borderopacity="0.25"
     inkscape:showpageshadow="2"
     inkscape:pageopacity="0.0"
     inkscape:pagecheckerboard="0"
     inkscape:deskcolor="#d1d1d1"
     inkscape:document-units="px"
     showgrid="true"
     inkscape:zoom="0.55583335"
     inkscape:cx="357.12143"
     inkscape:cy="1039.88"
     inkscape:window-width="3840"
     inkscape:window-height="2066"
     inkscape:window-x="-11"
     inkscape:window-y="-11"
     inkscape:window-maximized="1"
     inkscape:current-layer="layer1"
     showguides="false"><inkscape:grid
       id="grid1"
       units="px"
       originx="0"
       originy="0"
       spacingx="10"
       spacingy="10"
       empcolor="#0099e5"
       empopacity="0.30196078"
       color="#0099e5"
       opacity="0.14901961"
       empspacing="10"
       dotted="false"
       gridanglex="30"
       gridanglez="30"
       visible="true" /></sodipodi:namedview><defs
     id="defs1" /><g
     inkscape:label="Layer 1"
     inkscape:groupmode="layer"
     id="layer1"><path
       style="fill:#000000;fill-opacity:0.555319;stroke:none;stroke-width:1px;stroke-linecap:butt;stroke-linejoin:miter;stroke-opacity:1"
       d="m 1500,1370 c -50,60 -200,240 -600,240 -300,0 -800,-260 -800,-710 0,-450 500,-710 800,-710 300,0 500,190 500,190 V 200 h 100 v 400 h -50 C 1300,450 1202.009,302.69865 950,300 600.02007,296.25222 500,550 500,900 c 0,350 100,600 450,600 350,0 500,-180 550,-230 z"
       id="path53405"
       sodipodi:nodetypes="cszscccccszscc" /><rect
       style="opacity:0.489888;fill:#000000;fill-rule:evenodd;stroke-width:100;stroke-linecap:round;stroke-linejoin:round;stroke-miterlimit:4.5;stop-color:#000000"
       id="rect13175"
       width="200"
       height="1600"
       x="800"
       y="100" /><path
       id="path53405-7"
       style="fill:#000000;fill-opacity:0.555319;stroke:none;stroke-width:1px;stroke-linecap:butt;stroke-linejoin:miter;stroke-opacity:1"
       d="m 800,100 v 98.62305 C 500.77588,246.64509 100,497.07634 100,900 c 0,402.9237 400.77588,653.3549 700,701.377 V 1700 h 200 v -94.0605 C 1325.5779,1579.1174 1454.4098,1424.7083 1500,1370 v -100 c -47.5439,47.5439 -185.6458,212.5118 -500,228.6152 V 302.73633 C 1215.6621,323.23684 1310.3756,460.37556 1450,600 h 50 V 200 h -100 v 180 c 0,0 -156.4714,-148.27697 -400,-182.71094 V 100 Z m 0,217.58594 V 1481.1465 C 570.50568,1416.9257 500,1193.7151 500,900 500,606.28775 570.51828,380.44325 800,317.58594 Z" /></g></svg>
