<?xml version="1.0" encoding="UTF-8" standalone="no"?>
<!-- Created with Inkscape (http://www.inkscape.org/) -->

<svg
   width="2000"
   height="2000"
   viewBox="0 0 2000 2000"
   version="1.1"
   id="svg1"
   inkscape:version="1.2.2 (732a01da63, 2022-12-09)"
   sodipodi:docname="8374_livre-tournois-sign.svg"
   xml:space="preserve"
   xmlns:inkscape="http://www.inkscape.org/namespaces/inkscape"
   xmlns:sodipodi="http://sodipodi.sourceforge.net/DTD/sodipodi-0.dtd"
   xmlns="http://www.w3.org/2000/svg"
   xmlns:svg="http://www.w3.org/2000/svg"><sodipodi:namedview
     id="namedview1"
     pagecolor="#ffffff"
     bordercolor="#000000"
     borderopacity="0.25"
     inkscape:showpageshadow="2"
     inkscape:pageopacity="0.0"
     inkscape:pagecheckerboard="0"
     inkscape:deskcolor="#d1d1d1"
     inkscape:document-units="px"
     showgrid="true"
     inkscape:zoom="0.78606706"
     inkscape:cx="347.93469"
     inkscape:cy="1068.6111"
     inkscape:window-width="3840"
     inkscape:window-height="2066"
     inkscape:window-x="-11"
     inkscape:window-y="-11"
     inkscape:window-maximized="1"
     inkscape:current-layer="layer1"
     showguides="false"><inkscape:grid
       id="grid1"
       units="px"
       originx="0"
       originy="0"
       spacingx="10"
       spacingy="10"
       empcolor="#0099e5"
       empopacity="0.30196078"
       color="#0099e5"
       opacity="0.14901961"
       empspacing="10"
       dotted="false"
       gridanglex="30"
       gridanglez="30"
       visible="true" /></sodipodi:namedview><defs
     id="defs1" /><g
     inkscape:label="Layer 1"
     inkscape:groupmode="layer"
     id="layer1"><path
       style="fill:#000000;fill-opacity:0.555319;stroke:none;stroke-width:1px;stroke-linecap:butt;stroke-linejoin:miter;stroke-opacity:1"
       d="M 600,199.99999 H 100 v 100 H 300 V 1500 H 100 v 100 H 799.99996 V 1500 H 600 Z"
       id="path103033"
       sodipodi:nodetypes="ccccccccccc" /><path
       style="fill:#000000;fill-opacity:0.555319;stroke:none;stroke-width:1px;stroke-linecap:butt;stroke-linejoin:miter;stroke-opacity:1"
       d="M 1000,600 H 100 v 100 h 900 v 600 c 0,300 100.0001,300 400,300 100,0 200,-100 200,-100 v -100 c 0,0 -100.0317,97.4822 -200,100 -101.0219,2.5443 -100,-100 -100,-200 V 699.85005 L 1600,700 V 600 H 1300 V 300 h -50 l -250,250 z"
       id="path124467"
       sodipodi:nodetypes="cccccsccsccccccccc" /><path
       id="path103033-0"
       style="fill:#000000;fill-opacity:0.555319;stroke:none;stroke-width:1px;stroke-linecap:butt;stroke-linejoin:miter;stroke-opacity:1"
       d="M 100 200 L 100 300 L 300 300 L 300 600 L 100 600 L 100 700 L 300 700 L 300 1500 L 100 1500 L 100 1600 L 800 1600 L 800 1500 L 600 1500 L 600 700 L 1000 700 L 1000 1300 C 1000 1599.9997 1100.0004 1600 1400 1600 C 1499.9999 1600 1600 1500 1600 1500 L 1600 1400 C 1600 1400 1499.9682 1497.4822 1400 1500 C 1298.9782 1502.5443 1300 1399.9999 1300 1300 L 1300 699.84961 L 1600 700 L 1600 600 L 1300 600 L 1300 300 L 1250 300 L 1000 550 L 1000 600 L 600 600 L 600 200 L 100 200 z " /></g></svg>
