<?xml version="1.0" encoding="UTF-8" standalone="no"?>
<!-- Created with Inkscape (http://www.inkscape.org/) -->

<svg
   width="2000"
   height="2000"
   viewBox="0 0 2000 2000"
   version="1.1"
   id="svg1"
   inkscape:version="1.2.2 (732a01da63, 2022-12-09)"
   sodipodi:docname="8375_spesmilo-sign.svg"
   xml:space="preserve"
   xmlns:inkscape="http://www.inkscape.org/namespaces/inkscape"
   xmlns:sodipodi="http://sodipodi.sourceforge.net/DTD/sodipodi-0.dtd"
   xmlns="http://www.w3.org/2000/svg"
   xmlns:svg="http://www.w3.org/2000/svg"><sodipodi:namedview
     id="namedview1"
     pagecolor="#ffffff"
     bordercolor="#000000"
     borderopacity="0.25"
     inkscape:showpageshadow="2"
     inkscape:pageopacity="0.0"
     inkscape:pagecheckerboard="0"
     inkscape:deskcolor="#d1d1d1"
     inkscape:document-units="px"
     showgrid="true"
     inkscape:zoom="0.78606706"
     inkscape:cx="347.93469"
     inkscape:cy="1068.6111"
     inkscape:window-width="3840"
     inkscape:window-height="2066"
     inkscape:window-x="-11"
     inkscape:window-y="-11"
     inkscape:window-maximized="1"
     inkscape:current-layer="layer1"
     showguides="false"><inkscape:grid
       id="grid1"
       units="px"
       originx="0"
       originy="0"
       spacingx="10"
       spacingy="10"
       empcolor="#0099e5"
       empopacity="0.30196078"
       color="#0099e5"
       opacity="0.14901961"
       empspacing="10"
       dotted="false"
       gridanglex="30"
       gridanglez="30"
       visible="true" /></sodipodi:namedview><defs
     id="defs1" /><g
     inkscape:label="Layer 1"
     inkscape:groupmode="layer"
     id="layer1"><path
       style="fill:#000000;fill-opacity:0.555319;stroke:none;stroke-width:1px;stroke-linecap:butt;stroke-linejoin:miter;stroke-opacity:1"
       d="m 300,1300 c -100,0 -135.35534,64.6447 -100,100 55.22681,55.2268 300,100 550,100 250,0 450,-120 450,-220 0,-140 -170,-240 -640,-380 C 287.16123,818.72888 100,770 100,550 100,350 320,190 700,190 c 320,0 500,160 500,160 V 200 h 100 v 400 h -50 c -50,-50 -160,-300 -550,-300 -300,0 -400,72.64864 -400,150 0,80 140.0297,170.20578 450,250 337.0387,86.76231 650,180 650,450 0,240 -300.0121,457.0923 -650,460 -270.68965,2.2489 -550,-90 -550,-90 C 20,1450 60,1200 300,1200"
       id="path73468"
       sodipodi:nodetypes="cssssscccccsssssccc" /><path
       style="fill:#000000;fill-opacity:0.555319;stroke:none;stroke-width:0.408248px;stroke-linecap:butt;stroke-linejoin:miter;stroke-opacity:1"
       d="m 300,1300 v -100 h 100 v 500 H 300"
       id="path123739"
       sodipodi:nodetypes="ccccc" /><path
       style="fill:#000000;fill-opacity:0.555319;stroke:none;stroke-width:0.408248px;stroke-linecap:butt;stroke-linejoin:miter;stroke-opacity:1"
       d="m 700,1700 v -360 c 0.29987,-40.105 -33.33333,-140 -146.66667,-140 -86.66667,0 -153.33334,135 -153.33334,135 v 115 c 0,0 72.2489,-150.6361 153.33334,-150 46.66603,0.3661 46.66666,50 46.66666,100 v 300 z"
       id="path124467"
       sodipodi:nodetypes="ccsccsccc" /><path
       style="fill:#000000;fill-opacity:0.555319;stroke:none;stroke-width:0.408248px;stroke-linecap:butt;stroke-linejoin:miter;stroke-opacity:1"
       d="m 1000,1700 v -360 c 0.2999,-40.105 -33.33333,-140 -146.66666,-140 C 766.66667,1200 700,1335 700,1335 v 115 c 0,0 72.2489,-150.6361 153.33334,-150 C 899.99937,1300.3661 900,1350 900,1400 v 300 z"
       id="path124467-5"
       sodipodi:nodetypes="ccsccsccc" /><path
       id="path73468-1"
       style="fill:#000000;fill-opacity:0.555319;stroke:none;stroke-width:1px;stroke-linecap:butt;stroke-linejoin:miter;stroke-opacity:1"
       d="M 700 190 C 320.00038 190 100 350.0002 100 550 C 100 769.99978 287.1615 818.72896 560 900 C 1029.9995 1039.9999 1200 1140.0001 1200 1280 C 1200 1342.8783 1120.8573 1413.617 1000 1457.5059 L 1000 1340 C 1000.2999 1299.895 966.6672 1200 853.33398 1200 C 766.6674 1200 700 1335 700 1335 L 700 1340 C 700.29987 1299.895 666.66721 1200 553.33398 1200 C 466.6674 1200 400 1335 400 1335 L 400 1200 L 300 1200 C 60.00024 1200 20.00018 1450.0001 200 1520 C 200 1520 238.41847 1532.6236 300 1548.3594 L 300 1700 L 400 1700 L 400 1571.1328 C 459.71842 1583.5311 527.56703 1595.385 600 1602.6387 L 600 1700 L 700 1700 L 700 1609.3691 C 716.65472 1609.9029 733.34347 1610.1384 750 1610 C 801.357 1609.5733 851.58524 1604.4192 900 1595.373 L 900 1700 L 1000 1700 L 1000 1570.3828 C 1231.6191 1496.7194 1400 1329.7939 1400 1150 C 1400 880.00027 1087.0384 786.76222 750 700 C 440.03001 620.20586 300 529.99992 300 450 C 300 372.64872 400.0003 300 700 300 C 1089.9996 300 1200.0001 550.00005 1250 600 L 1300 600 L 1300 200 L 1200 200 L 1200 350 C 1200 350 1019.9997 190 700 190 z M 300 1300 L 300 1447.1328 C 252.24984 1433.0866 217.04804 1417.048 200 1400 C 164.6447 1364.6447 200.0001 1300 300 1300 z M 553.33398 1300 C 599.99997 1300.3661 600 1350.0001 600 1400 L 600 1494.3066 C 527.9615 1489.2677 459.38199 1481.2335 400 1470.3242 L 400 1450 C 400 1450 472.24963 1299.3639 553.33398 1300 z M 853.33398 1300 C 899.99997 1300.3661 900 1350.0001 900 1400 L 900 1485.0273 C 853.09324 1494.4051 802.77391 1500 750 1500 C 733.28659 1500 716.61162 1499.7689 700 1499.3789 L 700 1450 C 700 1450 772.24963 1299.3639 853.33398 1300 z " /></g></svg>
