<?xml version="1.0" encoding="UTF-8" standalone="no"?>
<!-- Created with Inkscape (http://www.inkscape.org/) -->

<svg
   width="2000"
   height="2000"
   viewBox="0 0 2000 2000"
   version="1.1"
   id="svg1"
   inkscape:version="1.2.2 (732a01da63, 2022-12-09)"
   sodipodi:docname="8377_indian-rupee-sign.svg"
   xml:space="preserve"
   xmlns:inkscape="http://www.inkscape.org/namespaces/inkscape"
   xmlns:sodipodi="http://sodipodi.sourceforge.net/DTD/sodipodi-0.dtd"
   xmlns="http://www.w3.org/2000/svg"
   xmlns:svg="http://www.w3.org/2000/svg"><sodipodi:namedview
     id="namedview1"
     pagecolor="#ffffff"
     bordercolor="#000000"
     borderopacity="0.25"
     inkscape:showpageshadow="2"
     inkscape:pageopacity="0.0"
     inkscape:pagecheckerboard="0"
     inkscape:deskcolor="#d1d1d1"
     inkscape:document-units="px"
     showgrid="true"
     inkscape:zoom="0.78606706"
     inkscape:cx="347.93469"
     inkscape:cy="1068.6111"
     inkscape:window-width="3840"
     inkscape:window-height="2066"
     inkscape:window-x="-11"
     inkscape:window-y="-11"
     inkscape:window-maximized="1"
     inkscape:current-layer="layer1"
     showguides="false"><inkscape:grid
       id="grid1"
       units="px"
       originx="0"
       originy="0"
       spacingx="10"
       spacingy="10"
       empcolor="#0099e5"
       empopacity="0.30196078"
       color="#0099e5"
       opacity="0.14901961"
       empspacing="10"
       dotted="false"
       gridanglex="30"
       gridanglez="30"
       visible="true" /></sodipodi:namedview><defs
     id="defs1" /><g
     inkscape:label="Layer 1"
     inkscape:groupmode="layer"
     id="layer1"><path
       id="path48264-2"
       style="fill:#000000;fill-opacity:0.555319;fill-rule:evenodd;stroke:none;stroke-width:1px;stroke-linecap:butt;stroke-linejoin:miter;stroke-opacity:1"
       d="m 100,200 v 100 h 300 c 119.9999,0 200,140.00016 200,300 0,159.99984 -80.0001,300 -200,300 H 100 v 100 H 400 C 649.9997,1000 895.5022,869.26512 900,610 904.4978,350.73488 649.9997,200 400,200 Z"
       sodipodi:nodetypes="ccsssccsssc" /><path
       style="fill:#000000;fill-opacity:0.555319;stroke:none;stroke-width:1px;stroke-linecap:butt;stroke-linejoin:miter;stroke-opacity:1"
       d="M 1100,1600 H 800.00002 c -90,0 -201.1538,-100.0033 -200,-300 0.8996,-155.922 -50,-300 -200,-300 V 900 c 150,0 500,60 500,400 0,200 99.99998,200 199.99998,200 z"
       id="path69743"
       sodipodi:nodetypes="cssccscc" /><rect
       style="opacity:0.489888;fill:#000000;fill-rule:evenodd;stroke-width:100;stroke-linecap:round;stroke-linejoin:round;stroke-miterlimit:4.5;stop-color:#000000"
       id="rect13472"
       width="1100"
       height="100"
       x="100"
       y="200" /><rect
       style="opacity:0.489888;fill:#000000;fill-rule:evenodd;stroke-width:100;stroke-linecap:round;stroke-linejoin:round;stroke-miterlimit:4.5;stop-color:#000000"
       id="rect13474"
       width="1100"
       height="100"
       x="100"
       y="500" /><path
       id="path48264-2-0"
       style="fill:#000000;fill-opacity:0.555319;fill-rule:evenodd;stroke:none;stroke-width:1px;stroke-linecap:butt;stroke-linejoin:miter;stroke-opacity:1"
       d="M 100 200 L 100 300 L 400 300 C 493.95253 300 563.17685 385.95432 588.89258 500 L 100 500 L 100 600 L 600 600 C 600 759.99968 519.99978 900 400 900 L 100 900 L 100 1000 L 400 1000 C 549.99985 1000 600.8996 1144.0782 600 1300 C 598.8462 1499.9965 710.00009 1600 800 1600 L 1100 1600 L 1100 1500 C 1000.0001 1500 900 1499.9998 900 1300 C 900 1104.237 783.94703 1001.4063 656.86914 949.29883 C 795.32339 889.27066 897.11946 776.04217 900 610 C 900.0586 606.62223 899.89202 603.34083 899.86328 600 L 1200 600 L 1200 500 L 885.0918 500 C 860.14835 417.07424 805.56279 349.73721 734.44141 300 L 1200 300 L 1200 200 L 400 200 L 100 200 z " /></g></svg>
