<?xml version="1.0" encoding="UTF-8" standalone="no"?>
<!-- Created with Inkscape (http://www.inkscape.org/) -->

<svg
   width="1200"
   height="1200"
   viewBox="0 0 1200 1200"
   version="1.1"
   id="svg1"
   inkscape:version="1.2.2 (732a01da63, 2022-12-09)"
   sodipodi:docname="8378_turkish-lira-sign.svg"
   xml:space="preserve"
   xmlns:inkscape="http://www.inkscape.org/namespaces/inkscape"
   xmlns:sodipodi="http://sodipodi.sourceforge.net/DTD/sodipodi-0.dtd"
   xmlns="http://www.w3.org/2000/svg"
   xmlns:svg="http://www.w3.org/2000/svg"><sodipodi:namedview
     id="namedview1"
     pagecolor="#ffffff"
     bordercolor="#000000"
     borderopacity="0.25"
     inkscape:showpageshadow="2"
     inkscape:pageopacity="0.0"
     inkscape:pagecheckerboard="0"
     inkscape:deskcolor="#d1d1d1"
     inkscape:document-units="px"
     showgrid="true"
     inkscape:zoom="1.1116667"
     inkscape:cx="329.68515"
     inkscape:cy="628.78559"
     inkscape:window-width="3840"
     inkscape:window-height="2066"
     inkscape:window-x="-11"
     inkscape:window-y="-11"
     inkscape:window-maximized="1"
     inkscape:current-layer="layer1"
     showguides="false"><inkscape:grid
       id="grid1"
       units="px"
       originx="0"
       originy="0"
       spacingx="25"
       spacingy="25"
       empcolor="#0099e5"
       empopacity="0.30196078"
       color="#0099e5"
       opacity="0.14901961"
       empspacing="4"
       dotted="false"
       gridanglex="30"
       gridanglez="30"
       visible="true" /></sodipodi:namedview><defs
     id="defs1" /><g
     inkscape:label="Layer 1"
     inkscape:groupmode="layer"
     id="layer1"><path
       id="path31492"
       style="fill:#000000;fill-opacity:0.56;stroke:none;stroke-width:1px;stroke-linecap:butt;stroke-linejoin:miter;stroke-opacity:1"
       d="m 0,600 v 75 H 50 L 600,400 v -75 h -50 z"
       sodipodi:nodetypes="ccccccc" /><path
       id="path31492-8"
       style="fill:#000000;fill-opacity:0.56;stroke:none;stroke-width:1px;stroke-linecap:butt;stroke-linejoin:miter;stroke-opacity:1"
       d="m 0,800 v 75 H 50 L 600,600 v -75 h -50 z"
       sodipodi:nodetypes="ccccccc" /><path
       id="path2-6-6"
       style="fill:#000000;fill-opacity:0.555319;fill-rule:evenodd;stroke-width:0.999873"
       d="m 900,599.99995 v 25 c 0,299.9997 -125.0003,375.09965 -400,375.02725 L 400,1000 H 200 V 200 h 200 v 700 h 100 c 124.9999,0 200,-75.0002 200,-275 v -25 z"
       sodipodi:nodetypes="csccccccsscc" /><path
       id="path31492-5"
       style="fill:#000000;fill-opacity:0.56;stroke:none;stroke-width:1px;stroke-linecap:butt;stroke-linejoin:miter;stroke-opacity:1"
       d="M 200 200 L 200 500 L 0 600 L 0 675 L 50 675 L 200 600 L 200 700 L 0 800 L 0 875 L 50 875 L 200 800 L 200 1000 L 400 1000 L 500 1000.0273 C 774.99943 1000.0997 900 924.9994 900 625 L 900 600 L 700 600 L 700 625 C 700 824.9996 624.99978 900 500 900 L 400 900 L 400 700 L 600 600 L 600 525 L 550 525 L 400 600 L 400 500 L 600 400 L 600 325 L 550 325 L 400 400 L 400 200 L 200 200 z " /></g></svg>
