<?xml version="1.0" encoding="UTF-8" standalone="no"?>
<!-- Created with Inkscape (http://www.inkscape.org/) -->

<svg
   width="2000"
   height="2000"
   viewBox="0 0 2000 2000"
   version="1.1"
   id="svg1"
   inkscape:version="1.2.2 (732a01da63, 2022-12-09)"
   sodipodi:docname="8380_manat-sign.svg"
   xml:space="preserve"
   xmlns:inkscape="http://www.inkscape.org/namespaces/inkscape"
   xmlns:sodipodi="http://sodipodi.sourceforge.net/DTD/sodipodi-0.dtd"
   xmlns="http://www.w3.org/2000/svg"
   xmlns:svg="http://www.w3.org/2000/svg"><sodipodi:namedview
     id="namedview1"
     pagecolor="#ffffff"
     bordercolor="#000000"
     borderopacity="0.25"
     inkscape:showpageshadow="2"
     inkscape:pageopacity="0.0"
     inkscape:pagecheckerboard="0"
     inkscape:deskcolor="#d1d1d1"
     inkscape:document-units="px"
     showgrid="true"
     inkscape:zoom="0.55583335"
     inkscape:cx="8.0959518"
     inkscape:cy="658.47074"
     inkscape:window-width="3840"
     inkscape:window-height="2066"
     inkscape:window-x="-11"
     inkscape:window-y="-11"
     inkscape:window-maximized="1"
     inkscape:current-layer="layer1"
     showguides="false"><inkscape:grid
       id="grid1"
       units="px"
       originx="0"
       originy="0"
       spacingx="10"
       spacingy="10"
       empcolor="#0099e5"
       empopacity="0.30196078"
       color="#0099e5"
       opacity="0.14901961"
       empspacing="10"
       dotted="false"
       gridanglex="30"
       gridanglez="30"
       visible="true" /></sodipodi:namedview><defs
     id="defs1" /><g
     inkscape:label="Layer 1"
     inkscape:groupmode="layer"
     id="layer1"><path
       id="path48264"
       style="fill:#000000;fill-opacity:0.555319;fill-rule:evenodd;stroke:none;stroke-width:1px;stroke-linecap:butt;stroke-linejoin:miter;stroke-opacity:1"
       d="m 1100,590 c -449.62424,1.57421 -800,360.0007 -800,710 h 400 c 0,-299.9994 100.0006,-600 400,-600 299.9994,0 400,300.0006 400,600 h 400 c 0,-349.9993 -350.3757,-711.57421 -800,-710 z" /><rect
       style="opacity:0.489888;fill:#000000;fill-opacity:0.555319;fill-rule:evenodd;stroke-width:100;stroke-linecap:round;stroke-linejoin:round;stroke-miterlimit:4.5;stop-color:#000000"
       id="rect350"
       width="700"
       height="100"
       x="100"
       y="1500" /><rect
       style="opacity:0.489888;fill:#000000;fill-opacity:0.555319;fill-rule:evenodd;stroke-width:100;stroke-linecap:round;stroke-linejoin:round;stroke-miterlimit:4.5;stop-color:#000000"
       id="rect352"
       width="700"
       height="100"
       x="1400"
       y="1500" /><rect
       style="opacity:0.489888;fill:#000000;fill-opacity:0.555319;fill-rule:evenodd;stroke-width:100;stroke-linecap:round;stroke-linejoin:round;stroke-miterlimit:4.5;stop-color:#000000"
       id="rect354"
       width="200"
       height="1400"
       x="1000"
       y="200" /><rect
       style="opacity:0.489888;fill:#000000;fill-opacity:0.555319;fill-rule:evenodd;stroke-width:100;stroke-linecap:round;stroke-linejoin:round;stroke-miterlimit:4.5;stop-color:#000000"
       id="rect356"
       width="400"
       height="200"
       x="300"
       y="1300" /><rect
       style="opacity:0.489888;fill:#000000;fill-opacity:0.555319;fill-rule:evenodd;stroke-width:100;stroke-linecap:round;stroke-linejoin:round;stroke-miterlimit:4.5;stop-color:#000000"
       id="rect358"
       width="400"
       height="200"
       x="1500"
       y="1300" /><rect
       style="opacity:0.489888;fill:#000000;fill-opacity:0.555319;fill-rule:evenodd;stroke-width:100;stroke-linecap:round;stroke-linejoin:round;stroke-miterlimit:4.5;stop-color:#000000"
       id="rect360"
       width="400"
       height="100"
       x="900"
       y="1500" /><path
       id="path48264-7"
       style="fill:#000000;fill-opacity:0.555319;fill-rule:evenodd;stroke:none;stroke-width:1px;stroke-linecap:butt;stroke-linejoin:miter;stroke-opacity:1"
       d="M 1000 200 L 1000 596.54297 C 599.52638 645.91112 300 976.43947 300 1300 L 300 1500 L 100 1500 L 100 1600 L 800 1600 L 800 1500 L 700 1500 L 700 1300 C 700 1036.2111 777.38264 772.51206 1000 712.67578 L 1000 1500 L 900 1500 L 900 1600 L 1300 1600 L 1300 1500 L 1200 1500 L 1200 712.67578 C 1422.6174 772.51206 1500 1036.2111 1500 1300 L 1500 1500 L 1400 1500 L 1400 1600 L 2100 1600 L 2100 1500 L 1900 1500 L 1900 1300 C 1900 976.43948 1600.4736 643.2247 1200 595.9375 L 1200 200 L 1000 200 z " /></g></svg>
