<?xml version="1.0" encoding="UTF-8" standalone="no"?>
<!-- Created with Inkscape (http://www.inkscape.org/) -->

<svg
   width="2000"
   height="2000"
   viewBox="0 0 2000 2000"
   version="1.1"
   id="svg1"
   inkscape:version="1.2.2 (732a01da63, 2022-12-09)"
   sodipodi:docname="8380_nordic-mark-sign.svg"
   xml:space="preserve"
   xmlns:inkscape="http://www.inkscape.org/namespaces/inkscape"
   xmlns:sodipodi="http://sodipodi.sourceforge.net/DTD/sodipodi-0.dtd"
   xmlns="http://www.w3.org/2000/svg"
   xmlns:svg="http://www.w3.org/2000/svg"><sodipodi:namedview
     id="namedview1"
     pagecolor="#ffffff"
     bordercolor="#000000"
     borderopacity="0.25"
     inkscape:showpageshadow="2"
     inkscape:pageopacity="0.0"
     inkscape:pagecheckerboard="0"
     inkscape:deskcolor="#d1d1d1"
     inkscape:document-units="px"
     showgrid="true"
     inkscape:zoom="1.1116667"
     inkscape:cx="531.18439"
     inkscape:cy="998.50072"
     inkscape:window-width="3840"
     inkscape:window-height="2066"
     inkscape:window-x="-11"
     inkscape:window-y="-11"
     inkscape:window-maximized="1"
     inkscape:current-layer="layer1"
     showguides="false"><inkscape:grid
       id="grid1"
       units="px"
       originx="0"
       originy="0"
       spacingx="10"
       spacingy="10"
       empcolor="#0099e5"
       empopacity="0.30196078"
       color="#0099e5"
       opacity="0.14901961"
       empspacing="10"
       dotted="false"
       gridanglex="30"
       gridanglez="30"
       visible="true" /></sodipodi:namedview><defs
     id="defs1" /><g
     inkscape:label="Layer 1"
     inkscape:groupmode="layer"
     id="layer1"><path
       style="fill:#000000;fill-opacity:0.555319;stroke:none;stroke-width:1px;stroke-linecap:butt;stroke-linejoin:miter;stroke-opacity:1"
       d="m 300,1400 v -100 c 0,0 300,-230 550,-230 70,0 100,-100 100,-100 0,0 20,100 100,100 70,0 100,-100 100,-100 0,0 30,100 100,100 100,0 150,-70 150,-170 0,-100 -50,-200 -200,-200 H 400 C 200,700 100,650 100,500 100,350 200,290 500,290 c 200,0 300,110 300,310 v 600 c 0,150 50,200 300,200 300,0 500,-100 500,-100 v 100 c 0,0 -140,110 -500,110 -500.09999,0 -600,-110 -600,-310 V 600 c 0,-100 0,-200 -100,-200 -60,0 -100,40 -100,100 0,70 40,100 100,100 h 800 c 301.6492,0 500,100 500,300 0,200 -250,300 -450,300 -70,0 -100,-60 -100,-60 0,0 -30,60 -100,60 -70,0 -100,-60 -100,-60 0,0 -30,60 -100,60 -250,0 -550,200 -550,200 z"
       id="path3615"
       sodipodi:nodetypes="ccccscsssssssssccssssssssscsccc" /><path
       id="path3615-8"
       style="fill:#000000;fill-opacity:0.555319;stroke:none;stroke-width:1px;stroke-linecap:butt;stroke-linejoin:miter;stroke-opacity:1"
       d="M 500 290 C 200.0003 290 100 350.00015 100 500 C 100 649.99985 200.0002 700 400 700 L 500 700 L 500 1175.2441 C 384.10317 1235.8168 300 1300 300 1300 L 300 1400 C 300 1400 388.45985 1341.2572 509.0332 1287.4297 C 541.81271 1431.6404 678.64532 1510 1100 1510 C 1459.9996 1510 1600 1400 1600 1400 L 1600 1300 C 1600 1300 1399.9997 1400 1100 1400 C 851.4987 1400 800.66169 1350.4969 800.06055 1202.5859 C 816.85331 1200.9663 833.5408 1200 850 1200 C 919.99993 1200 950 1140 950 1140 C 950 1140 980.00007 1200 1050 1200 C 1119.9999 1200 1150 1140 1150 1140 C 1150 1140 1180.0001 1200 1250 1200 C 1449.9998 1200 1700 1099.9998 1700 900 C 1700 700.0002 1501.6489 600 1200 600 L 800 600 C 800 400.0002 699.9998 290 500 290 z M 400 400 C 499.9999 400 500 500.0001 500 600 L 400 600 C 340.00006 600 300 569.99993 300 500 C 300 440.00006 340.00006 400 400 400 z M 800 700 L 1200 700 C 1349.9998 700 1400 800.0001 1400 900 C 1400 999.9999 1349.9999 1070 1250 1070 C 1180.0001 1070 1150 970 1150 970 C 1150 970 1119.9999 1070 1050 1070 C 970.00008 1070 950 970 950 970 C 950 970 919.99993 1070 850 1070 C 833.51934 1070 816.81497 1071.0546 800 1072.9219 L 800 700 z " /></g></svg>
