<?xml version="1.0" encoding="UTF-8" standalone="no"?>
<!-- Created with Inkscape (http://www.inkscape.org/) -->

<svg
   width="2000"
   height="2000"
   viewBox="0 0 2000 2000"
   version="1.1"
   id="svg1"
   inkscape:version="1.2.2 (732a01da63, 2022-12-09)"
   sodipodi:docname="8381_ruble-sign.svg"
   xml:space="preserve"
   xmlns:inkscape="http://www.inkscape.org/namespaces/inkscape"
   xmlns:sodipodi="http://sodipodi.sourceforge.net/DTD/sodipodi-0.dtd"
   xmlns="http://www.w3.org/2000/svg"
   xmlns:svg="http://www.w3.org/2000/svg"><sodipodi:namedview
     id="namedview1"
     pagecolor="#ffffff"
     bordercolor="#000000"
     borderopacity="0.25"
     inkscape:showpageshadow="2"
     inkscape:pageopacity="0.0"
     inkscape:pagecheckerboard="0"
     inkscape:deskcolor="#d1d1d1"
     inkscape:document-units="px"
     showgrid="true"
     inkscape:zoom="0.78606706"
     inkscape:cx="347.93469"
     inkscape:cy="1068.6111"
     inkscape:window-width="3840"
     inkscape:window-height="2066"
     inkscape:window-x="-11"
     inkscape:window-y="-11"
     inkscape:window-maximized="1"
     inkscape:current-layer="layer1"
     showguides="false"><inkscape:grid
       id="grid1"
       units="px"
       originx="0"
       originy="0"
       spacingx="10"
       spacingy="10"
       empcolor="#0099e5"
       empopacity="0.30196078"
       color="#0099e5"
       opacity="0.14901961"
       empspacing="10"
       dotted="false"
       gridanglex="30"
       gridanglez="30"
       visible="true" /></sodipodi:namedview><defs
     id="defs1" /><g
     inkscape:label="Layer 1"
     inkscape:groupmode="layer"
     id="layer1"><rect
       style="opacity:0.489888;fill:#000000;fill-rule:evenodd;stroke-width:100;stroke-linecap:round;stroke-linejoin:round;stroke-miterlimit:4.5;stop-color:#000000"
       id="rect13472"
       width="1100"
       height="100"
       x="100"
       y="1200" /><rect
       style="opacity:0.489888;fill:#000000;fill-rule:evenodd;stroke-width:60.3023;stroke-linecap:round;stroke-linejoin:round;stroke-miterlimit:4.5;stop-color:#000000"
       id="rect13474"
       width="400"
       height="100"
       x="100"
       y="900" /><path
       id="path48264-2-2"
       style="fill:#000000;fill-opacity:0.555319;fill-rule:evenodd;stroke:none;stroke-width:1px;stroke-linecap:butt;stroke-linejoin:miter;stroke-opacity:1"
       d="m 1000,1000 c 250,0 495.5022,-130.73462 500,-390 4.4978,-259.26538 -250,-410 -500,-410 H 99.99996 V 300 H 300 V 1500 H 99.99996 v 100 H 900 V 1500 H 600 V 1000 Z M 600,300 h 400 c 120,0 200,140 200,300 0,160 -80,300.00001 -200,300.00001 H 600 Z"
       sodipodi:nodetypes="czsccccccccccccszscc" /><path
       id="rect13472-3"
       style="opacity:0.489888;fill:#000000;fill-rule:evenodd;stroke-width:100;stroke-linecap:round;stroke-linejoin:round;stroke-miterlimit:4.5;stop-color:#000000"
       d="M 100 200 L 100 300 L 300 300 L 300 900 L 100 900 L 100 1000 L 300 1000 L 300 1200 L 100 1200 L 100 1300 L 300 1300 L 300 1500 L 100 1500 L 100 1600 L 900 1600 L 900 1500 L 600 1500 L 600 1300 L 1200 1300 L 1200 1200 L 600 1200 L 600 1000 L 1000 1000 C 1249.9997 1000 1495.5022 869.26512 1500 610 C 1504.4978 350.73488 1249.9997 200 1000 200 L 100 200 z M 600 300 L 1000 300 C 1119.9999 300 1200 440.00016 1200 600 C 1200 759.99984 1119.9999 900 1000 900 L 600 900 L 600 300 z " /></g></svg>
