<?xml version="1.0" encoding="UTF-8" standalone="no"?>
<!-- Created with Inkscape (http://www.inkscape.org/) -->

<svg
   width="1200"
   height="1200"
   viewBox="0 0 1200 1200"
   version="1.1"
   id="svg1"
   inkscape:version="1.2.2 (732a01da63, 2022-12-09)"
   sodipodi:docname="8382_lari-sign.svg"
   xml:space="preserve"
   xmlns:inkscape="http://www.inkscape.org/namespaces/inkscape"
   xmlns:sodipodi="http://sodipodi.sourceforge.net/DTD/sodipodi-0.dtd"
   xmlns="http://www.w3.org/2000/svg"
   xmlns:svg="http://www.w3.org/2000/svg"><sodipodi:namedview
     id="namedview1"
     pagecolor="#ffffff"
     bordercolor="#000000"
     borderopacity="0.25"
     inkscape:showpageshadow="2"
     inkscape:pageopacity="0.0"
     inkscape:pagecheckerboard="0"
     inkscape:deskcolor="#d1d1d1"
     inkscape:document-units="px"
     showgrid="true"
     inkscape:zoom="1.1116667"
     inkscape:cx="329.68515"
     inkscape:cy="556.82157"
     inkscape:window-width="3840"
     inkscape:window-height="2066"
     inkscape:window-x="-11"
     inkscape:window-y="-11"
     inkscape:window-maximized="1"
     inkscape:current-layer="layer1"
     showguides="false"><inkscape:grid
       id="grid1"
       units="px"
       originx="0"
       originy="0"
       spacingx="25"
       spacingy="25"
       empcolor="#0099e5"
       empopacity="0.30196078"
       color="#0099e5"
       opacity="0.14901961"
       empspacing="4"
       dotted="false"
       gridanglex="30"
       gridanglez="30"
       visible="true" /></sodipodi:namedview><defs
     id="defs1" /><g
     inkscape:label="Layer 1"
     inkscape:groupmode="layer"
     id="layer1"><path
       id="path2-8-5"
       style="fill:#000000;fill-opacity:0.555319;fill-rule:evenodd;stroke-width:0.999873"
       d="M 450,200 C 175,200 0,375.0002 0,575 v 50 c 0,199.99977 175.00023,375 400,375 V 900 C 275.00664,898.7234 200,749.99987 200,625 v -50 c 0,-124.99987 102.51139,-275 250,-275 147.48861,0 250,150.00013 250,275 v 25 H 900 V 575 C 900,375.0002 725,200 450,200 Z"
       sodipodi:nodetypes="zssccsszsccsz" /><rect
       style="fill:#000000;fill-opacity:0.555319;fill-rule:evenodd;stroke-width:5.2915;stroke-linecap:square;stroke-linejoin:bevel;stroke-miterlimit:4.5;stroke-opacity:0.56;stop-color:#000000"
       id="rect73600"
       width="700"
       height="100"
       x="0"
       y="900" /><rect
       style="fill:#000000;fill-opacity:0.555319;fill-rule:evenodd;stroke-width:4;stroke-linecap:square;stroke-linejoin:bevel;stroke-miterlimit:4.5;stroke-opacity:0.56;stop-color:#000000"
       id="rect73605"
       width="100"
       height="400"
       x="300"
       y="100" /><rect
       style="fill:#000000;fill-opacity:0.555319;fill-rule:evenodd;stroke-width:4;stroke-linecap:square;stroke-linejoin:bevel;stroke-miterlimit:4.5;stroke-opacity:0.56;stop-color:#000000"
       id="rect73607"
       width="100"
       height="400"
       x="500"
       y="100" /><path
       id="path2-8-5-5"
       style="fill:#000000;fill-opacity:0.555319;fill-rule:evenodd;stroke-width:0.999873"
       d="M 300 100 L 300 219.25195 C 113.00783 269.88583 0 414.33183 0 575 L 0 625 C 0 731.20306 49.348716 830.35595 129.32422 900 L 0 900 L 0 1000 L 400 1000 L 700 1000 L 700 900 L 400 900 C 275.00676 898.7234 200 749.99975 200 625 L 200 575 C 200 499.32276 237.61974 414.53767 300 359.36719 L 300 500 L 400 500 L 400 305.99805 C 415.99278 302.14101 432.6723 300 450 300 C 467.3277 300 484.00722 302.14101 500 305.99805 L 500 500 L 600 500 L 600 359.36719 C 662.38026 414.53767 700 499.32276 700 575 L 700 600 L 900 600 L 900 575 C 900 414.33183 786.99217 269.88583 600 219.25195 L 600 100 L 500 100 L 500 201.99023 C 483.72884 200.67927 467.05865 200 450 200 C 432.94135 200 416.27116 200.67927 400 201.99023 L 400 100 L 300 100 z " /></g></svg>
