<?xml version="1.0" encoding="UTF-8" standalone="no"?>
<!-- Created with Inkscape (http://www.inkscape.org/) -->

<svg
   width="2000"
   height="2000"
   viewBox="0 0 2000 2000"
   version="1.1"
   id="svg1"
   inkscape:version="1.2.2 (732a01da63, 2022-12-09)"
   sodipodi:docname="8382_lari-sign.svg"
   xml:space="preserve"
   xmlns:inkscape="http://www.inkscape.org/namespaces/inkscape"
   xmlns:sodipodi="http://sodipodi.sourceforge.net/DTD/sodipodi-0.dtd"
   xmlns="http://www.w3.org/2000/svg"
   xmlns:svg="http://www.w3.org/2000/svg"><sodipodi:namedview
     id="namedview1"
     pagecolor="#ffffff"
     bordercolor="#000000"
     borderopacity="0.25"
     inkscape:showpageshadow="2"
     inkscape:pageopacity="0.0"
     inkscape:pagecheckerboard="0"
     inkscape:deskcolor="#d1d1d1"
     inkscape:document-units="px"
     showgrid="true"
     inkscape:zoom="0.78606706"
     inkscape:cx="252.52298"
     inkscape:cy="877.7877"
     inkscape:window-width="3840"
     inkscape:window-height="2066"
     inkscape:window-x="-11"
     inkscape:window-y="-11"
     inkscape:window-maximized="1"
     inkscape:current-layer="layer1"
     showguides="false"><inkscape:grid
       id="grid1"
       units="px"
       originx="0"
       originy="0"
       spacingx="10"
       spacingy="10"
       empcolor="#0099e5"
       empopacity="0.30196078"
       color="#0099e5"
       opacity="0.14901961"
       empspacing="10"
       dotted="false"
       gridanglex="30"
       gridanglez="30"
       visible="true" /></sodipodi:namedview><defs
     id="defs1" /><g
     inkscape:label="Layer 1"
     inkscape:groupmode="layer"
     id="layer1"><path
       id="path48264-9"
       style="fill:#000000;fill-opacity:0.555319;fill-rule:evenodd;stroke:none;stroke-width:1px;stroke-linecap:butt;stroke-linejoin:miter;stroke-opacity:1"
       d="M 900 200 C 450.37576 201.57421 100 550.00072 100 900 C 100 1249.9993 450.00045 1600 900 1600 L 900 1500 C 598.3514 1500 500 1199.9994 500 900 C 500 600.0006 600.0006 300 900 300 C 1199.9994 300 1300 600.0006 1300 900 L 1700 900 C 1700 550.00072 1349.6243 198.42579 900 200 z " /><rect
       style="opacity:0.489888;fill:#000000;fill-rule:evenodd;stroke-width:100;stroke-linecap:round;stroke-linejoin:round;stroke-miterlimit:4.5;stop-color:#000000"
       id="rect13653"
       width="1200"
       height="100"
       x="100"
       y="1500" /><rect
       style="opacity:0.489888;fill:#000000;fill-rule:evenodd;stroke-width:76.3763;stroke-linecap:round;stroke-linejoin:round;stroke-miterlimit:4.5;stop-color:#000000"
       id="rect13655"
       width="100"
       height="700"
       x="700"
       y="100" /><rect
       style="opacity:0.489888;fill:#000000;fill-rule:evenodd;stroke-width:76.3763;stroke-linecap:round;stroke-linejoin:round;stroke-miterlimit:4.5;stop-color:#000000"
       id="rect13657"
       width="100"
       height="700"
       x="1000"
       y="100" /><path
       id="path48264-9-4"
       style="fill:#000000;fill-opacity:0.555319;fill-rule:evenodd;stroke:none;stroke-width:1px;stroke-linecap:butt;stroke-linejoin:miter;stroke-opacity:1"
       d="M 700 100 L 700 224.26367 C 350.66148 309.13453 100 603.97871 100 900 C 100 1135.676 258.82765 1371.183 499.89062 1500 L 100 1500 L 100 1600 L 900 1600 L 1300 1600 L 1300 1500 L 900 1500 C 598.3517 1500 500 1199.9991 500 900 C 500 680.44747 553.68385 461.05135 700 359.08984 L 700 800 L 800 800 L 800 312.67578 C 830.55856 304.46209 863.78984 300 900 300 C 936.21016 300 969.44144 304.46209 1000 312.67578 L 1000 800 L 1100 800 L 1100 359.08984 C 1246.3162 461.05135 1300 680.44747 1300 900 L 1700 900 C 1700 603.97872 1449.3385 306.88334 1100 223.22266 L 1100 100 L 1000 100 L 1000 205.76758 C 967.27694 202.0092 933.96394 199.88109 900 200 C 866.03612 200.11891 832.72301 202.44464 800 206.37305 L 800 100 L 700 100 z " /></g></svg>
