<?xml version="1.0" encoding="UTF-8" standalone="no"?>
<!-- Created with Inkscape (http://www.inkscape.org/) -->

<svg
   width="1200"
   height="1200"
   viewBox="0 0 1200 1200"
   version="1.1"
   id="svg1"
   inkscape:version="1.2.2 (732a01da63, 2022-12-09)"
   sodipodi:docname="8383_bitcoin-sign.svg"
   xml:space="preserve"
   xmlns:inkscape="http://www.inkscape.org/namespaces/inkscape"
   xmlns:sodipodi="http://sodipodi.sourceforge.net/DTD/sodipodi-0.dtd"
   xmlns="http://www.w3.org/2000/svg"
   xmlns:svg="http://www.w3.org/2000/svg"><sodipodi:namedview
     id="namedview1"
     pagecolor="#ffffff"
     bordercolor="#000000"
     borderopacity="0.25"
     inkscape:showpageshadow="2"
     inkscape:pageopacity="0.0"
     inkscape:pagecheckerboard="0"
     inkscape:deskcolor="#d1d1d1"
     inkscape:document-units="px"
     showgrid="true"
     inkscape:zoom="1.1116667"
     inkscape:cx="329.68515"
     inkscape:cy="628.78559"
     inkscape:window-width="3840"
     inkscape:window-height="2066"
     inkscape:window-x="-11"
     inkscape:window-y="-11"
     inkscape:window-maximized="1"
     inkscape:current-layer="layer1"
     showguides="false"><inkscape:grid
       id="grid1"
       units="px"
       originx="0"
       originy="0"
       spacingx="25"
       spacingy="25"
       empcolor="#0099e5"
       empopacity="0.30196078"
       color="#0099e5"
       opacity="0.14901961"
       empspacing="4"
       dotted="false"
       gridanglex="30"
       gridanglez="30"
       visible="true" /></sodipodi:namedview><defs
     id="defs1" /><g
     inkscape:label="Layer 1"
     inkscape:groupmode="layer"
     id="layer1"><path
       id="path2-8"
       style="fill:#000000;fill-opacity:0.555319;fill-rule:evenodd;stroke-width:0.999873"
       d="m 2e-6,200 v 800 H 200 650 c 174.99982,0 250,-125.00005 250,-225 V 725 C 900,665.22021 873.16783,596.52712 814.22266,550.92383 859.18647,512.47242 875,456.23629 875,400 875,300.00009 824.99982,200 650,200 H 200 Z M 200,300 h 375 c 48.28475,0 100,25.00006 100,100 0,74.99995 -50.00005,100 -100,100 H 200 Z m 0,300 h 400 c 48.28475,0 100,50.00008 100,125 v 50 c 0,74.99994 -50.00005,125 -100,125 H 200 Z"
       sodipodi:nodetypes="cccssscsscccssscccsssscc" /><rect
       style="fill:#000000;fill-opacity:0.555319;fill-rule:evenodd;stroke-width:4;stroke-linecap:square;stroke-linejoin:bevel;stroke-miterlimit:4.5;stroke-opacity:0.56;stop-color:#000000"
       id="rect73494"
       width="100"
       height="1000"
       x="300"
       y="100" /><rect
       style="fill:#000000;fill-opacity:0.555319;fill-rule:evenodd;stroke-width:4;stroke-linecap:square;stroke-linejoin:bevel;stroke-miterlimit:4.5;stroke-opacity:0.56;stop-color:#000000"
       id="rect73496"
       width="100"
       height="1000"
       x="500"
       y="100" /><path
       id="path2-8-3"
       style="fill:#000000;fill-opacity:0.555319;fill-rule:evenodd;stroke-width:0.999873"
       d="M 300 100 L 300 200 L 200 200 L 0 200 L 0 1000 L 200 1000 L 300 1000 L 300 1100 L 400 1100 L 400 1000 L 500 1000 L 500 1100 L 600 1100 L 600 1000 L 650 1000 C 824.99965 1000 900 874.99985 900 775 L 900 725 C 900 665.22027 873.16777 596.52707 814.22266 550.92383 C 859.18642 512.47246 875 456.23623 875 400 C 875 300.00019 824.99965 200 650 200 L 600 200 L 600 100 L 500 100 L 500 200 L 400 200 L 400 100 L 300 100 z M 200 300 L 300 300 L 300 500 L 200 500 L 200 300 z M 400 300 L 500 300 L 500 500 L 400 500 L 400 300 z M 600 302.42188 C 639.57655 310.17501 675 337.93831 675 400 C 675 462.37033 640.40116 490.09022 600 497.68164 L 600 302.42188 z M 200 600 L 300 600 L 300 900 L 200 900 L 200 600 z M 400 600 L 500 600 L 500 900 L 400 900 L 400 600 z M 600 600 C 648.2847 600 700 650.00015 700 725 L 700 775 C 700 849.99987 649.9999 900 600 900 L 600 600 z " /></g></svg>
