<?xml version="1.0" encoding="UTF-8" standalone="no"?>
<!-- Created with Inkscape (http://www.inkscape.org/) -->

<svg
   width="2000"
   height="2000"
   viewBox="0 0 2000 2000"
   version="1.1"
   id="svg1"
   inkscape:version="1.2.2 (732a01da63, 2022-12-09)"
   sodipodi:docname="8383_bitcoin-sign.svg"
   xml:space="preserve"
   xmlns:inkscape="http://www.inkscape.org/namespaces/inkscape"
   xmlns:sodipodi="http://sodipodi.sourceforge.net/DTD/sodipodi-0.dtd"
   xmlns="http://www.w3.org/2000/svg"
   xmlns:svg="http://www.w3.org/2000/svg"><sodipodi:namedview
     id="namedview1"
     pagecolor="#ffffff"
     bordercolor="#000000"
     borderopacity="0.25"
     inkscape:showpageshadow="2"
     inkscape:pageopacity="0.0"
     inkscape:pagecheckerboard="0"
     inkscape:deskcolor="#d1d1d1"
     inkscape:document-units="px"
     showgrid="true"
     inkscape:zoom="0.78606706"
     inkscape:cx="347.93469"
     inkscape:cy="1068.6111"
     inkscape:window-width="3840"
     inkscape:window-height="2066"
     inkscape:window-x="-11"
     inkscape:window-y="-11"
     inkscape:window-maximized="1"
     inkscape:current-layer="layer1"
     showguides="false"><inkscape:grid
       id="grid1"
       units="px"
       originx="0"
       originy="0"
       spacingx="10"
       spacingy="10"
       empcolor="#0099e5"
       empopacity="0.30196078"
       color="#0099e5"
       opacity="0.14901961"
       empspacing="10"
       dotted="false"
       gridanglex="30"
       gridanglez="30"
       visible="true" /></sodipodi:namedview><defs
     id="defs1" /><g
     inkscape:label="Layer 1"
     inkscape:groupmode="layer"
     id="layer1"><path
       id="path48264"
       style="fill:#000000;fill-opacity:0.555319;fill-rule:evenodd;stroke:none;stroke-width:1px;stroke-linecap:butt;stroke-linejoin:miter;stroke-opacity:1"
       d="M 100,200 V 300 H 300 V 1500 H 100 v 100 h 1100 c 149.7748,0 500,-80 500,-400 0,-320 -330,-350 -330,-350 0,0 230,-100 230,-290 0,-190 -250,-360 -500,-360 z m 500,100 h 500 c 120,0 200,140 200,250 0,110 -80,250 -200,250 H 600 Z m 0,600 h 600 c 120,0 200,130 200,300 0,170 -80,300 -200,300 H 600 Z"
       sodipodi:nodetypes="ccccccszczsccszscccszscc" /><rect
       style="opacity:0.489888;fill:#000000;fill-rule:evenodd;stroke-width:100;stroke-linecap:round;stroke-linejoin:round;stroke-miterlimit:4.5;stop-color:#000000"
       id="rect13590"
       width="200"
       height="1600"
       x="700"
       y="100" /><rect
       style="opacity:0.489888;fill:#000000;fill-rule:evenodd;stroke-width:100;stroke-linecap:round;stroke-linejoin:round;stroke-miterlimit:4.5;stop-color:#000000"
       id="rect13592"
       width="200"
       height="1600"
       x="1000"
       y="100" /><path
       id="path48264-6"
       style="fill:#000000;fill-opacity:0.555319;fill-rule:evenodd;stroke:none;stroke-width:1px;stroke-linecap:butt;stroke-linejoin:miter;stroke-opacity:1"
       d="M 700 100 L 700 200 L 100 200 L 100 300 L 300 300 L 300 1500 L 100 1500 L 100 1600 L 700 1600 L 700 1700 L 900 1700 L 900 1600 L 1000 1600 L 1000 1700 L 1200 1700 L 1200 1600 C 1349.7747 1600 1700 1519.9997 1700 1200 C 1700 880.00032 1370 850 1370 850 C 1370 850 1600 749.99981 1600 560 C 1600 395.50049 1412.5479 246.20944 1200 209.04102 L 1200 100 L 1000 100 L 1000 200 L 900 200 L 900 100 L 700 100 z M 600 300 L 700 300 L 700 800 L 600 800 L 600 300 z M 900 300 L 1000 300 L 1000 800 L 900 800 L 900 300 z M 1200 336.20898 C 1262.3546 385.03183 1300 474.55863 1300 550 C 1300 625.44137 1262.3546 714.96817 1200 763.79102 L 1200 336.20898 z M 600 900 L 700 900 L 700 1500 L 600 1500 L 600 900 z M 900 900 L 1000 900 L 1000 1500 L 900 1500 L 900 900 z M 1200 900 C 1319.9999 900 1400 1030.0002 1400 1200 C 1400 1369.9998 1319.9999 1500 1200 1500 L 1200 900 z " /></g></svg>
