<?xml version="1.0" encoding="UTF-8" standalone="no"?>
<!-- Created with Inkscape (http://www.inkscape.org/) -->

<svg
   width="2000"
   height="2000"
   viewBox="0 0 2000 2000"
   version="1.1"
   id="svg1"
   inkscape:version="1.2.1 (9c6d41e410, 2022-07-14)"
   sodipodi:docname="1044_de-capital.svg"
   xml:space="preserve"
   xmlns:inkscape="http://www.inkscape.org/namespaces/inkscape"
   xmlns:sodipodi="http://sodipodi.sourceforge.net/DTD/sodipodi-0.dtd"
   xmlns="http://www.w3.org/2000/svg"
   xmlns:svg="http://www.w3.org/2000/svg"><sodipodi:namedview
     id="namedview1"
     pagecolor="#ffffff"
     bordercolor="#000000"
     borderopacity="0.25"
     inkscape:showpageshadow="2"
     inkscape:pageopacity="0.0"
     inkscape:pagecheckerboard="0"
     inkscape:deskcolor="#d1d1d1"
     inkscape:document-units="px"
     showgrid="true"
     inkscape:zoom="0.39303353"
     inkscape:cx="721.3125"
     inkscape:cy="870.15476"
     inkscape:window-width="2560"
     inkscape:window-height="1377"
     inkscape:window-x="1072"
     inkscape:window-y="-8"
     inkscape:window-maximized="1"
     inkscape:current-layer="layer1"
     showguides="false"><inkscape:grid
       id="grid1"
       units="px"
       originx="0"
       originy="0"
       spacingx="10"
       spacingy="10"
       empcolor="#0099e5"
       empopacity="0.30196078"
       color="#0099e5"
       opacity="0.14901961"
       empspacing="10"
       dotted="false"
       gridanglex="30"
       gridanglez="30"
       visible="true" /></sodipodi:namedview><defs
     id="defs1" /><g
     inkscape:label="Layer 1"
     inkscape:groupmode="layer"
     id="layer1"><path
       id="path22183"
       style="fill:#000000;fill-opacity:0.555319;stroke:none;stroke-width:1px;stroke-linecap:butt;stroke-linejoin:miter;stroke-opacity:1"
       d="m 1300,500 v 1000 h -200 v 100 h 700 V 1500 H 1600 V 500 h 200 V 400 H 300 v 100 z"
       sodipodi:nodetypes="ccccccccccccc" /><path
       id="path124467-3"
       style="fill:#000000;fill-opacity:0.555319;stroke:none;stroke-width:1px;stroke-linecap:butt;stroke-linejoin:miter;stroke-opacity:1"
       d="m 250,1600 c 249.99975,0 270.78255,-83.066 325,-300 L 725,699.82249 C 774.98608,499.81901 800.00018,500 975,500 h 175 V 400 c -56.4868,0 -58.8062,-0.3994 -175,0 -332.75289,1.1437 -349.95533,99.82133 -375,200 l -175,700 c -54.23255,216.9302 -126.1358,200 -200,200 z"
       sodipodi:nodetypes="csssccssscc" /><path
       id="path11061"
       style="fill:#000000;fill-opacity:0.555319;stroke:none;stroke-width:1px;stroke-linecap:butt;stroke-linejoin:miter;stroke-opacity:1"
       d="m 100,1900 h 150 c 149.99985,-299.9997 150.0006,-300 350,-300 h 700 c 199.9994,0 200.0002,3e-4 350,300 h 150 V 1500 H 100"
       sodipodi:nodetypes="ccsscccc" /><path
       id="path22183-5"
       style="fill:#000000;fill-opacity:0.555319;stroke:none;stroke-width:1px;stroke-linecap:butt;stroke-linejoin:miter;stroke-opacity:1"
       d="M 300 400 L 300 500 L 637.29492 500 C 616.79674 530.47675 608.72561 565.09757 600 600 L 425 1300 C 381.44922 1474.2031 326.49508 1497.5428 268.28906 1500 L 100 1500 L 100 1900 L 250 1900 C 399.9997 1600.0006 400.0008 1600 600 1600 L 1100 1600 L 1300 1600 C 1499.9992 1600 1500.0003 1600.0006 1650 1900 L 1800 1900 L 1800 1600 L 1800 1500 L 1600 1500 L 1600 500 L 1800 500 L 1800 400 L 1150 400 L 975 400 L 300 400 z M 975 500 L 1150 500 L 1300 500 L 1300 1500 L 1100 1500 L 508.36719 1500 C 536.53038 1452.7368 553.15757 1387.3956 575 1300 L 725 699.82227 C 774.98603 499.81899 800.00035 500 975 500 z " /></g></svg>
