<?xml version="1.0" encoding="UTF-8" standalone="no"?>
<!-- Created with Inkscape (http://www.inkscape.org/) -->

<svg
   width="2000"
   height="2000"
   viewBox="0 0 2000 2000"
   version="1.1"
   id="svg1"
   inkscape:version="1.2.1 (9c6d41e410, 2022-07-14)"
   sodipodi:docname="1046_zhe-capital.svg"
   xml:space="preserve"
   xmlns:inkscape="http://www.inkscape.org/namespaces/inkscape"
   xmlns:sodipodi="http://sodipodi.sourceforge.net/DTD/sodipodi-0.dtd"
   xmlns="http://www.w3.org/2000/svg"
   xmlns:svg="http://www.w3.org/2000/svg"><sodipodi:namedview
     id="namedview1"
     pagecolor="#ffffff"
     bordercolor="#000000"
     borderopacity="0.25"
     inkscape:showpageshadow="2"
     inkscape:pageopacity="0.0"
     inkscape:pagecheckerboard="0"
     inkscape:deskcolor="#d1d1d1"
     inkscape:document-units="px"
     showgrid="true"
     inkscape:zoom="0.27791668"
     inkscape:cx="1858.4707"
     inkscape:cy="1421.2893"
     inkscape:window-width="2560"
     inkscape:window-height="1377"
     inkscape:window-x="1072"
     inkscape:window-y="-8"
     inkscape:window-maximized="1"
     inkscape:current-layer="layer1"
     showguides="false"><inkscape:grid
       id="grid1"
       units="px"
       originx="0"
       originy="0"
       spacingx="25"
       spacingy="25"
       empcolor="#0099e5"
       empopacity="0.30196078"
       color="#0099e5"
       opacity="0.14901961"
       empspacing="4"
       dotted="false"
       gridanglex="30"
       gridanglez="30"
       visible="true" /></sodipodi:namedview><defs
     id="defs1" /><g
     inkscape:label="Layer 1"
     inkscape:groupmode="layer"
     id="layer1"><path
       id="path124467-3-4"
       style="fill:#000000;fill-opacity:0.555319;stroke:none;stroke-width:1px;stroke-linecap:butt;stroke-linejoin:miter;stroke-opacity:1"
       d="m 1100,400 v 100 h 200 v 550 200 250 h -200 v 100 h 700 v -100 h -200 v -500 h 50 100 c 144.4681,0 162.0292,24.0585 200,100 l 100,200 c 99.9999,199.9998 200.0003,300 450,300 h 300 v -100 c -73.8642,0 -300.0001,-2e-4 -400,-200 L 2300,1100 C 2263.4268,1026.8536 2220.3741,971.269 2124.207,937.4375 2160.0874,903.6775 2171.4159,857.1683 2200,800 l 50,-100 c 99.9998,-199.9996 151.1358,-200 225,-200 0,0 -75,25.0001 -75,100 0,49.9998 50.0002,100 150,100 99.9998,0 150,-50.0002 150,-125 0,-98.9462 -75.0003,-175 -250,-175 -249.9995,0 -250.0002,100.0004 -350,300 l -50,100 c -37.9707,75.9414 -50.0003,100 -225,100 -90.3729,-0.3106 -129.8931,-0.092 -175,0 -12.8877,0.026 -37.4474,0 -50,0 V 500 h 200 V 400 Z" /><path
       id="path124467-3-4-1"
       style="fill:#000000;fill-opacity:0.555319;stroke:none;stroke-width:1px;stroke-linecap:butt;stroke-linejoin:miter;stroke-opacity:1"
       d="m 1800,400 v 100 h -200 v 550 200 250 h 200 v 100 h -700 v -100 h 200 v -500 h -50 -100 c -144.4681,0 -162.0292,24.0585 -200,100 l -100,200 c -99.9999,199.9998 -200.0003,300 -450,300 H 100 v -100 c 73.8642,0 300.0001,-2e-4 400,-200 L 600,1100 C 636.5732,1026.8536 679.6259,971.269 775.793,937.4375 739.9126,903.6775 728.5841,857.1683 700,800 L 650,700 C 550.0002,500.0004 498.8642,500 425,500 c 0,0 75,25.0001 75,100 0,49.9998 -50.0002,100 -150,100 -99.9998,0 -150,-50.0002 -150,-125 0,-98.9462 75.0003,-175 250,-175 249.9995,0 250.0002,100.0004 350,300 l 50,100 c 37.9707,75.9414 50.0003,100 225,100 90.3729,-0.3106 129.8931,-0.092 175,0 12.8877,0.026 37.4474,0 50,0 V 500 H 1100 V 400 Z" /><path
       id="path124467-3-4-4"
       style="fill:#000000;fill-opacity:0.555319;stroke:none;stroke-width:1px;stroke-linecap:butt;stroke-linejoin:miter;stroke-opacity:1"
       d="M 450 400 C 275.00047 400 200 476.0539 200 575 C 200 649.99973 250.0003 700 350 700 C 449.9997 700 500 649.99975 500 600 C 500 525.00017 425 500 425 500 C 498.86413 500 550.0003 500.0006 650 700 L 700 800 C 728.58407 857.16824 739.9126 903.67753 775.79297 937.4375 C 679.62596 971.26897 636.57316 1026.8537 600 1100 L 500 1300 C 400.0002 1499.9996 173.86413 1500 100 1500 L 100 1600 L 400 1600 C 649.99945 1600 750.0002 1499.9996 850 1300 L 950 1100 C 987.97076 1024.0586 1005.532 1000 1150 1000 L 1250 1000 L 1300 1000 L 1300 1050 L 1300 1250 L 1300 1500 L 1100 1500 L 1100 1600 L 1800 1600 L 1800 1500 L 1600 1500 L 1600 1250 L 1600 1050 L 1600 1000 L 1650 1000 L 1750 1000 C 1894.468 1000 1912.0292 1024.0586 1950 1100 L 2050 1300 C 2149.9998 1499.9996 2250.0005 1600 2500 1600 L 2800 1600 L 2800 1500 C 2726.1359 1500 2499.9998 1499.9996 2400 1300 L 2300 1100 C 2263.4268 1026.8537 2220.374 971.26897 2124.207 937.4375 C 2160.0874 903.67753 2171.4159 857.16824 2200 800 L 2250 700 C 2349.9997 500.0006 2401.1359 500 2475 500 C 2475 500 2400 525.00017 2400 600 C 2400 649.99975 2450.0003 700 2550 700 C 2649.9997 700 2700 649.99973 2700 575 C 2700 476.0539 2624.9995 400 2450 400 C 2200.0007 400 2199.9997 500.0006 2100 700 L 2050 800 C 2012.0293 875.94132 1999.9995 900 1825 900 C 1734.6272 899.6894 1695.1069 899.908 1650 900 C 1637.1123 900.026 1612.5526 900 1600 900 L 1600 500 L 1800 500 L 1800 400 L 1100 400 L 1100 500 L 1300 500 L 1300 900 C 1287.4474 900 1262.8877 900.026 1250 900 C 1204.8931 899.908 1165.3728 899.6894 1075 900 C 900.00047 900 887.97066 875.94132 850 800 L 800 700 C 700.0003 500.0006 699.99925 400 450 400 z " /></g></svg>
