<?xml version="1.0" encoding="UTF-8" standalone="no"?>
<!-- Created with Inkscape (http://www.inkscape.org/) -->

<svg
   width="2000"
   height="2000"
   viewBox="0 0 2000 2000"
   version="1.1"
   id="svg1"
   inkscape:version="1.2.1 (9c6d41e410, 2022-07-14)"
   sodipodi:docname="1047_ze-capital.svg"
   xml:space="preserve"
   xmlns:inkscape="http://www.inkscape.org/namespaces/inkscape"
   xmlns:sodipodi="http://sodipodi.sourceforge.net/DTD/sodipodi-0.dtd"
   xmlns="http://www.w3.org/2000/svg"
   xmlns:svg="http://www.w3.org/2000/svg"><sodipodi:namedview
     id="namedview1"
     pagecolor="#ffffff"
     bordercolor="#000000"
     borderopacity="0.25"
     inkscape:showpageshadow="2"
     inkscape:pageopacity="0.0"
     inkscape:pagecheckerboard="0"
     inkscape:deskcolor="#d1d1d1"
     inkscape:document-units="px"
     showgrid="true"
     inkscape:zoom="0.39303354"
     inkscape:cx="-24.170965"
     inkscape:cy="994.82604"
     inkscape:window-width="2560"
     inkscape:window-height="1377"
     inkscape:window-x="1072"
     inkscape:window-y="-8"
     inkscape:window-maximized="1"
     inkscape:current-layer="layer1"
     showguides="false"><inkscape:grid
       id="grid1"
       units="px"
       originx="0"
       originy="0"
       spacingx="10"
       spacingy="10"
       empcolor="#0099e5"
       empopacity="0.30196078"
       color="#0099e5"
       opacity="0.14901961"
       empspacing="10"
       dotted="false"
       gridanglex="30"
       gridanglez="30"
       visible="true" /></sodipodi:namedview><defs
     id="defs1" /><g
     inkscape:label="Layer 1"
     inkscape:groupmode="layer"
     id="layer1"><path
       style="fill:#000000;fill-opacity:0.555319;stroke:none;stroke-width:0.926907px;stroke-linecap:butt;stroke-linejoin:miter;stroke-opacity:1"
       d="M 650,900 C 900,900 1001.7991,795.85088 1000,699.29577 998.7619,632.84748 999.99999,500 700,500 310,500 200,707.04225 150,750 h -50 l 1e-5,-351.40845 h 100 v 128.87324 c 0,0 180,-137.46479 500,-137.46479 C 1080,390 1250,527.46479 1250,699.29577 1250,888.30986 950,1000 650.00001,1000"
       id="path73468"
       sodipodi:nodetypes="csscccccssc" /><path
       style="fill:#000000;fill-opacity:0.555319;stroke:none;stroke-width:0.926907px;stroke-linecap:butt;stroke-linejoin:miter;stroke-opacity:1"
       d="M 650.00001,1000 C 905.5272,1002.1901 1000,1103.0986 1000,1214.7888 1000,1326.4789 950,1500 600,1500 250,1500 150,1342.9577 100,1300 v 103.8029 C 150,1455.3521 250,1610 650,1610 c 300,0 647.3014,-129.1566 650,-395.2112 C 1302.6987,948.73407 949.99999,900 650,900"
       id="path53405"
       sodipodi:nodetypes="czsccszc" /><rect
       style="opacity:0.489888;fill:#000000;fill-opacity:0.555319;fill-rule:evenodd;stroke-width:92.6907;stroke-linecap:round;stroke-linejoin:round;stroke-miterlimit:4.5;stroke-opacity:0.56;stop-color:#000000"
       id="rect12237"
       width="250"
       height="100"
       x="-650"
       y="900"
       transform="scale(-1,1)" /><path
       id="path73468-0"
       style="fill:#000000;fill-opacity:0.555319;stroke:none;stroke-width:0.926907px;stroke-linecap:butt;stroke-linejoin:miter;stroke-opacity:1"
       d="M 700 390 C 380.00032 390 200 527.46484 200 527.46484 L 200 398.5918 L 100 398.5918 L 100 750 L 150 750 C 199.99995 707.04229 310.00039 500 700 500 C 999.99969 500 998.7619 632.8467 1000 699.29492 C 1001.7991 795.84994 899.99975 900 650 900 L 400 900 L 400 1000 L 650 1000 C 905.52693 1002.1901 1000 1103.099 1000 1214.7891 C 1000 1326.4791 949.99965 1500 600 1500 C 250.00035 1500 149.99995 1342.9577 100 1300 L 100 1403.8027 C 149.99995 1455.3519 250.0004 1610 650 1610 C 949.9997 1610 1297.3014 1480.8434 1300 1214.7891 C 1301.5772 1059.3034 1181.6995 978.11267 1021.9688 937.42383 C 1156.5982 886.07396 1250 804.7324 1250 699.29492 C 1250 527.46411 1079.9996 390 700 390 z " /></g></svg>
