<?xml version="1.0" encoding="UTF-8" standalone="no"?>
<!-- Created with Inkscape (http://www.inkscape.org/) -->

<svg
   width="2000"
   height="2000"
   viewBox="0 0 2000 2000"
   version="1.1"
   id="svg1"
   inkscape:version="1.2.1 (9c6d41e410, 2022-07-14)"
   sodipodi:docname="1050_ka-capital.svg"
   xml:space="preserve"
   xmlns:inkscape="http://www.inkscape.org/namespaces/inkscape"
   xmlns:sodipodi="http://sodipodi.sourceforge.net/DTD/sodipodi-0.dtd"
   xmlns="http://www.w3.org/2000/svg"
   xmlns:svg="http://www.w3.org/2000/svg"><sodipodi:namedview
     id="namedview1"
     pagecolor="#ffffff"
     bordercolor="#000000"
     borderopacity="0.25"
     inkscape:showpageshadow="2"
     inkscape:pageopacity="0.0"
     inkscape:pagecheckerboard="0"
     inkscape:deskcolor="#d1d1d1"
     inkscape:document-units="px"
     showgrid="true"
     inkscape:zoom="0.39303353"
     inkscape:cx="998.64253"
     inkscape:cy="1236.5357"
     inkscape:window-width="2560"
     inkscape:window-height="1377"
     inkscape:window-x="1072"
     inkscape:window-y="-8"
     inkscape:window-maximized="1"
     inkscape:current-layer="layer1-3"
     showguides="false"><inkscape:grid
       id="grid1"
       units="px"
       originx="0"
       originy="0"
       spacingx="25"
       spacingy="25"
       empcolor="#0099e5"
       empopacity="0.30196078"
       color="#0099e5"
       opacity="0.14901961"
       empspacing="4"
       dotted="false"
       gridanglex="30"
       gridanglez="30"
       visible="true" /></sodipodi:namedview><defs
     id="defs1" /><g
     inkscape:label="Layer 1"
     inkscape:groupmode="layer"
     id="layer1"><g
       inkscape:label="Layer 1"
       id="layer1-3"
       transform="translate(1800,-400)"><path
         id="path124467-3"
         style="fill:#000000;fill-opacity:0.555319;stroke:none;stroke-width:1px;stroke-linecap:butt;stroke-linejoin:miter;stroke-opacity:1"
         d="m -350,800 c -249.99975,0 -250.0001,100.0002 -350,300 l -50,100 c -37.97075,75.9415 -50.00018,100 -225,100 h -175 v 100 c 56.4868,0 58.8062,0.3994 175,0 332.75289,-1.1437 312.65795,-75.3159 375,-200 l 50,-100 c 99.9999,-199.9998 151.13577,-200 225,-200 0,0 -75,25.00007 -75,100 0,49.9998 50.0001,100 150,100 99.9999,0 150,-50.0001 150,-125 0,-98.94629 -75.00018,-175 -250,-175 z"
         sodipodi:nodetypes="ssssccssscssss" /><path
         style="fill:#000000;fill-opacity:0.555319;stroke:none;stroke-width:1px;stroke-linecap:butt;stroke-linejoin:miter;stroke-opacity:1"
         d="M -1500,1450 V 900 h -200 V 800 h 700 v 100 h -200 v 1000 h 200 v 100 h -700 v -100 h 200 v -250"
         id="path11949"
         sodipodi:nodetypes="cccccccccccccc" /><path
         style="fill:#000000;fill-opacity:0.555319;stroke:none;stroke-width:1px;stroke-linecap:butt;stroke-linejoin:miter;stroke-opacity:1"
         d="m 0,2000 h -300 c -250,0 -350,-100 -450,-300 l -100,-200 c -37.9708,-75.9416 -55.53175,-100 -200,-100 h -150 v -100 c 56.4869,0 108.8061,-0.3994 225,0 332.75322,1.1437 412.6579,75.3158 475,200 l 100,200 c 100,200 326.1357,200 400,200 z"
         id="path69743-7"
         sodipodi:nodetypes="cssssccssscc" /><path
         id="path124467-3-4"
         style="fill:#000000;fill-opacity:0.555319;stroke:none;stroke-width:1px;stroke-linecap:butt;stroke-linejoin:miter;stroke-opacity:1"
         d="M -1700 800 L -1700 900 L -1500 900 L -1500 1450 L -1500 1650 L -1500 1900 L -1700 1900 L -1700 2000 L -1000 2000 L -1000 1900 L -1200 1900 L -1200 1400 L -1150 1400 L -1050 1400 C -905.53189 1400 -887.97076 1424.0585 -850 1500 L -750 1700 C -650.0001 1899.9998 -549.99975 2000 -300 2000 L 0 2000 L 0 1900 C -73.864226 1900 -300.0001 1899.9998 -400 1700 L -500 1500 C -536.57318 1426.8536 -579.62591 1371.269 -675.79297 1337.4375 C -639.91258 1303.6775 -628.58414 1257.1683 -600 1200 L -550 1100 C -450.0002 900.0004 -398.86416 900 -325 900 C -325 900 -400 925.00014 -400 1000 C -400 1049.9998 -349.9998 1100 -250 1100 C -150.0002 1100 -100 1049.9998 -100 975 C -100 876.05381 -175.00035 800 -350 800 C -599.9995 800 -600.0002 900.0004 -700 1100 L -750 1200 C -787.97071 1275.9414 -800.00035 1300 -975 1300 C -1065.3729 1299.6894 -1104.8931 1299.908 -1150 1300 C -1162.8877 1300.0263 -1187.4474 1300 -1200 1300 L -1200 900 L -1000 900 L -1000 800 L -1700 800 z " /></g></g></svg>
