<?xml version="1.0" encoding="UTF-8" standalone="no"?>
<!-- Created with Inkscape (http://www.inkscape.org/) -->

<svg
   width="2000"
   height="2000"
   viewBox="0 0 2000 2000"
   version="1.1"
   id="svg1"
   inkscape:version="1.2.1 (9c6d41e410, 2022-07-14)"
   sodipodi:docname="1051_el-capital.svg"
   xml:space="preserve"
   xmlns:inkscape="http://www.inkscape.org/namespaces/inkscape"
   xmlns:sodipodi="http://sodipodi.sourceforge.net/DTD/sodipodi-0.dtd"
   xmlns="http://www.w3.org/2000/svg"
   xmlns:svg="http://www.w3.org/2000/svg"><sodipodi:namedview
     id="namedview1"
     pagecolor="#ffffff"
     bordercolor="#000000"
     borderopacity="0.25"
     inkscape:showpageshadow="2"
     inkscape:pageopacity="0.0"
     inkscape:pagecheckerboard="0"
     inkscape:deskcolor="#d1d1d1"
     inkscape:document-units="px"
     showgrid="true"
     inkscape:zoom="0.55583335"
     inkscape:cx="580.20988"
     inkscape:cy="1108.2458"
     inkscape:window-width="2560"
     inkscape:window-height="1377"
     inkscape:window-x="1072"
     inkscape:window-y="-8"
     inkscape:window-maximized="1"
     inkscape:current-layer="layer1"
     showguides="false"><inkscape:grid
       id="grid1"
       units="px"
       originx="0"
       originy="0"
       spacingx="25"
       spacingy="25"
       empcolor="#0099e5"
       empopacity="0.30196078"
       color="#0099e5"
       opacity="0.14901961"
       empspacing="4"
       dotted="false"
       gridanglex="30"
       gridanglez="30"
       visible="true" /></sodipodi:namedview><defs
     id="defs1" /><g
     inkscape:label="Layer 1"
     inkscape:groupmode="layer"
     id="layer1"><path
       id="path22183"
       style="fill:#000000;fill-opacity:0.555319;stroke:none;stroke-width:1px;stroke-linecap:butt;stroke-linejoin:miter;stroke-opacity:1"
       d="m 1400,500 v 1000 h -200 v 100 h 700 V 1500 H 1700 V 500 h 200 V 400 H 400 v 100 z"
       sodipodi:nodetypes="ccccccccccccc" /><path
       id="path124467-3"
       style="fill:#000000;fill-opacity:0.555319;stroke:none;stroke-width:1px;stroke-linecap:butt;stroke-linejoin:miter;stroke-opacity:1"
       d="m 350,1600 c 249.99975,0 270.78255,-83.066 325,-300 L 825,699.82249 C 874.98608,499.81901 900.00018,500 1075,500 h 175 V 400 c -56.4868,0 -58.8062,-0.3994 -175,0 -332.75289,1.1437 -349.95533,99.82133 -375,200 l -175,700 c -54.23255,216.9302 -126.1358,200 -200,200 0,0 75,-25.0001 75,-100 0,-49.9998 -50.0001,-100 -150,-100 -99.9999,0 -150,50.0001 -150,125 0,98.9463 75.0002,175 250,175 z"
       sodipodi:nodetypes="ssssccssscssss" /><path
       id="path22183-2"
       style="fill:#000000;fill-opacity:0.555319;stroke:none;stroke-width:1px;stroke-linecap:butt;stroke-linejoin:miter;stroke-opacity:1"
       d="M 400 400 L 400 500 L 737.29492 500 C 716.79674 530.47675 708.72561 565.09757 700 600 L 525 1300 C 470.7675 1516.93 398.86413 1500 325 1500 C 325 1500 400 1474.9998 400 1400 C 400 1350.0002 349.9998 1300 250 1300 C 150.0002 1300 100 1350.0002 100 1425 C 100 1523.9462 175.00037 1600 350 1600 C 599.9995 1600 620.7826 1516.9338 675 1300 L 825 699.82227 C 874.98603 499.81899 900.00035 500 1075 500 L 1250 500 L 1400 500 L 1400 1500 L 1200 1500 L 1200 1600 L 1900 1600 L 1900 1500 L 1700 1500 L 1700 500 L 1900 500 L 1900 400 L 1250 400 L 1075 400 L 400 400 z " /></g></svg>
