<?xml version="1.0" encoding="UTF-8" standalone="no"?>
<!-- Created with Inkscape (http://www.inkscape.org/) -->

<svg
   width="2000"
   height="2000"
   viewBox="0 0 2000 2000"
   version="1.1"
   id="svg1"
   inkscape:version="1.2.1 (9c6d41e410, 2022-07-14)"
   sodipodi:docname="1060_ef-capital.svg"
   xml:space="preserve"
   xmlns:inkscape="http://www.inkscape.org/namespaces/inkscape"
   xmlns:sodipodi="http://sodipodi.sourceforge.net/DTD/sodipodi-0.dtd"
   xmlns="http://www.w3.org/2000/svg"
   xmlns:svg="http://www.w3.org/2000/svg"><sodipodi:namedview
     id="namedview1"
     pagecolor="#ffffff"
     bordercolor="#000000"
     borderopacity="0.25"
     inkscape:showpageshadow="2"
     inkscape:pageopacity="0.0"
     inkscape:pagecheckerboard="0"
     inkscape:deskcolor="#d1d1d1"
     inkscape:document-units="px"
     showgrid="true"
     inkscape:zoom="0.39303353"
     inkscape:cx="713.67957"
     inkscape:cy="1045.7123"
     inkscape:window-width="2560"
     inkscape:window-height="1377"
     inkscape:window-x="1072"
     inkscape:window-y="-8"
     inkscape:window-maximized="1"
     inkscape:current-layer="layer1"
     showguides="false"><inkscape:grid
       id="grid1"
       units="px"
       originx="0"
       originy="0"
       spacingx="10"
       spacingy="10"
       empcolor="#0099e5"
       empopacity="0.30196078"
       color="#0099e5"
       opacity="0.14901961"
       empspacing="10"
       dotted="false"
       gridanglex="30"
       gridanglez="30"
       visible="true" /></sodipodi:namedview><defs
     id="defs1" /><g
     inkscape:label="Layer 1"
     inkscape:groupmode="layer"
     id="layer1"><path
       id="path48264"
       style="fill:#000000;fill-opacity:0.555319;fill-rule:evenodd;stroke:none;stroke-width:0.792794px;stroke-linecap:butt;stroke-linejoin:miter;stroke-opacity:1"
       d="m 800,590 c -393.42121,1.13077 -700,158.59206 -700,410 0,251.4079 306.25039,410 700,410 v -110 c -263.94253,0 -350,-84.5074 -350,-300 0,-215.49252 87.50052,-300 350,-300 z"
       sodipodi:nodetypes="csccscc" /><path
       id="path48264-4"
       style="fill:#000000;fill-opacity:0.555319;fill-rule:evenodd;stroke:none;stroke-width:0.792794px;stroke-linecap:butt;stroke-linejoin:miter;stroke-opacity:1"
       d="m 1100,590 c 393.4212,1.13077 700,158.59206 700,410 0,251.4079 -306.2504,410 -700,410 v -110 c 263.9425,0 350,-84.5074 350,-300 0,-215.49252 -87.5005,-300 -350,-300 z"
       sodipodi:nodetypes="csccscc" /><path
       id="rect28838"
       style="opacity:0.52809;fill:#000000;fill-opacity:0.555319;fill-rule:evenodd;stroke:none;stroke-width:100;stroke-linecap:round;stroke-linejoin:round;stroke-miterlimit:4.5;stop-color:#000000"
       d="M 500,400 V 500 H 800 V 1500 H 500 v 100 h 900 V 1500 H 1100 V 500 h 300 V 400 Z"
       sodipodi:nodetypes="ccccccccccccc" /><path
       id="path48264-6"
       style="fill:#000000;fill-opacity:0.555319;fill-rule:evenodd;stroke:none;stroke-width:0.792794px;stroke-linecap:butt;stroke-linejoin:miter;stroke-opacity:1"
       d="m 500,400 v 100 h 300 v 90 c -393.42082,1.13077 -700,158.59231 -700,410 0,251.4076 306.25078,410 700,410 v 90 H 500 v 100 h 900 v -100 h -300 v -90 c 393.7492,0 700,-158.5924 700,-410 0,-251.40769 -306.5792,-408.86923 -700,-410 v -90 h 300 V 400 Z m 300,300 v 600 c -263.94227,0 -350,-84.5076 -350,-300 0,-215.4923 87.50078,-300 350,-300 z m 300,0 c 262.4992,0 350,84.5077 350,300 0,215.4924 -86.0578,300 -350,300 z"
       sodipodi:nodetypes="ccccsccccccccscccccccsccscc" /></g></svg>
