<?xml version="1.0" encoding="UTF-8" standalone="no"?>
<!-- Created with Inkscape (http://www.inkscape.org/) -->

<svg
   width="2000"
   height="2000"
   viewBox="0 0 2000 2000"
   version="1.1"
   id="svg1"
   inkscape:version="1.2.1 (9c6d41e410, 2022-07-14)"
   sodipodi:docname="1069_e-capital.svg"
   xml:space="preserve"
   xmlns:inkscape="http://www.inkscape.org/namespaces/inkscape"
   xmlns:sodipodi="http://sodipodi.sourceforge.net/DTD/sodipodi-0.dtd"
   xmlns="http://www.w3.org/2000/svg"
   xmlns:svg="http://www.w3.org/2000/svg"><sodipodi:namedview
     id="namedview1"
     pagecolor="#ffffff"
     bordercolor="#000000"
     borderopacity="0.25"
     inkscape:showpageshadow="2"
     inkscape:pageopacity="0.0"
     inkscape:pagecheckerboard="0"
     inkscape:deskcolor="#d1d1d1"
     inkscape:document-units="px"
     showgrid="true"
     inkscape:zoom="0.55583335"
     inkscape:cx="664.7676"
     inkscape:cy="786.20687"
     inkscape:window-width="2560"
     inkscape:window-height="1377"
     inkscape:window-x="1072"
     inkscape:window-y="-8"
     inkscape:window-maximized="1"
     inkscape:current-layer="layer1"
     showguides="false"><inkscape:grid
       id="grid1"
       units="px"
       originx="0"
       originy="0"
       spacingx="10"
       spacingy="10"
       empcolor="#0099e5"
       empopacity="0.30196078"
       color="#0099e5"
       opacity="0.14901961"
       empspacing="10"
       dotted="false"
       gridanglex="30"
       gridanglez="30"
       visible="true" /></sodipodi:namedview><defs
     id="defs1" /><g
     inkscape:label="Layer 1"
     inkscape:groupmode="layer"
     id="layer1"><path
       style="fill:#000000;fill-opacity:0.555319;stroke:none;stroke-width:0.926906px;stroke-linecap:butt;stroke-linejoin:miter;stroke-opacity:1"
       d="M 100,1403.8028 C 150,1455.3521 300,1610 700,1610 c 300,0 800,-223.3803 800,-610 C 1500,613.38028 1000,390 700,390 400,390 200,553.23944 200,553.23944 V 398.59155 H 100 V 750 h 50 C 300,621.12676 397.991,502.31856 650,500 c 349.97993,-3.21992 450,199.29577 450,500 0,300.7042 -100,500 -450,500 -350,0 -500,-157.0422 -550,-200 z"
       id="path53405"
       sodipodi:nodetypes="cszscccccszscc" /><path
       id="path8529"
       style="fill:#000000;fill-opacity:0.555319;fill-rule:evenodd;stroke:none;stroke-width:0.926906px;stroke-linecap:butt;stroke-linejoin:miter;stroke-opacity:1"
       d="m 500,700 h 50 c 99.9999,85.91541 200.0001,200 300,200 h 350 v 100 H 850 c -99.9999,0 -200.0001,114.0846 -300,200 h -50 z"
       sodipodi:nodetypes="ccsccsccc" /><path
       id="path53405-0"
       style="fill:#000000;fill-opacity:0.555319;stroke:none;stroke-width:0.926906px;stroke-linecap:butt;stroke-linejoin:miter;stroke-opacity:1"
       d="M 700 390 C 400.0003 390 200 553.24023 200 553.24023 L 200 398.5918 L 100 398.5918 L 100 750 L 150 750 C 299.99985 621.12689 397.99125 502.31856 650 500 C 959.52947 497.15224 1073.3683 655.39525 1095.5879 900 L 850 900 C 750.0002 900 649.9998 785.91532 550 700 L 500 700 L 500 1200 L 550 1200 C 649.9998 1114.0847 750.0002 1000 850 1000 L 1100 1000 C 1100 1300.7039 999.99965 1500 650 1500 C 300.00035 1500 149.99995 1342.9578 100 1300 L 100 1403.8027 C 149.99995 1455.352 300.0004 1610 700 1610 C 999.9997 1610 1500 1386.6193 1500 1000 C 1500 613.38067 999.9997 390 700 390 z " /></g></svg>
