<?xml version="1.0" encoding="UTF-8" standalone="no"?>
<!-- Created with Inkscape (http://www.inkscape.org/) -->

<svg
   width="2000"
   height="2000"
   viewBox="0 0 2000 2000"
   version="1.1"
   id="svg1"
   inkscape:version="1.2.1 (9c6d41e410, 2022-07-14)"
   sodipodi:docname="1070_yu-capital.svg"
   xml:space="preserve"
   xmlns:inkscape="http://www.inkscape.org/namespaces/inkscape"
   xmlns:sodipodi="http://sodipodi.sourceforge.net/DTD/sodipodi-0.dtd"
   xmlns="http://www.w3.org/2000/svg"
   xmlns:svg="http://www.w3.org/2000/svg"><sodipodi:namedview
     id="namedview1"
     pagecolor="#ffffff"
     bordercolor="#000000"
     borderopacity="0.25"
     inkscape:showpageshadow="2"
     inkscape:pageopacity="0.0"
     inkscape:pagecheckerboard="0"
     inkscape:deskcolor="#d1d1d1"
     inkscape:document-units="px"
     showgrid="true"
     inkscape:zoom="0.39303353"
     inkscape:cx="1370.1121"
     inkscape:cy="643.71098"
     inkscape:window-width="2560"
     inkscape:window-height="1377"
     inkscape:window-x="1072"
     inkscape:window-y="-8"
     inkscape:window-maximized="1"
     inkscape:current-layer="layer1"
     showguides="false"><inkscape:grid
       id="grid1"
       units="px"
       originx="0"
       originy="0"
       spacingx="25"
       spacingy="25"
       empcolor="#0099e5"
       empopacity="0.30196078"
       color="#0099e5"
       opacity="0.14901961"
       empspacing="4"
       dotted="false"
       gridanglex="30"
       gridanglez="30"
       visible="true" /></sodipodi:namedview><defs
     id="defs1" /><g
     inkscape:label="Layer 1"
     inkscape:groupmode="layer"
     id="layer1"><path
       id="rect28838"
       style="opacity:0.52809;fill:#000000;fill-opacity:0.555319;fill-rule:evenodd;stroke:none;stroke-width:100;stroke-linecap:round;stroke-linejoin:round;stroke-miterlimit:4.5;stop-color:#000000"
       d="M 100,400 V 500 H 300 V 1500 H 100 v 100 H 800 V 1500 H 600 V 500 H 800 V 400 Z"
       sodipodi:nodetypes="ccccccccccccc" /><rect
       style="opacity:0.453441;fill:#000000;fill-opacity:0.555319;fill-rule:evenodd"
       id="rect1"
       width="325"
       height="150"
       x="600"
       y="925" /><path
       id="path48264-7"
       style="fill:#000000;fill-opacity:0.555319;fill-rule:evenodd;stroke:none;stroke-width:0.926906px;stroke-linecap:butt;stroke-linejoin:miter;stroke-opacity:1"
       d="m 1700,390 c -446.0265,3.86426 -799.99998,309.29609 -799.99998,610 0,300.7039 349.99998,610 799.99998,610 450,0 800,-309.2961 800,-610 0,-300.70391 -353.9735,-613.86426 -800,-610 z m 0,110 c 299.9997,0 400,242.25378 400,500 0,257.7462 -98.3511,500 -400,500 -301.6489,0 -400,-242.2538 -400,-500 0,-257.74622 100.0003,-500 400,-500 z"
       sodipodi:nodetypes="zzzzzzzzzz" /><path
       id="rect28838-3"
       style="opacity:0.52809;fill:#000000;fill-opacity:0.555319;fill-rule:evenodd;stroke:none;stroke-width:100;stroke-linecap:round;stroke-linejoin:round;stroke-miterlimit:4.5;stop-color:#000000"
       d="M 1700 390 C 1291.1007 393.5426 959.78372 650.55069 907.42383 925 L 600 925 L 600 500 L 800 500 L 800 400 L 100 400 L 100 500 L 300 500 L 300 1500 L 100 1500 L 100 1600 L 800 1600 L 800 1500 L 600 1500 L 600 1075 L 907.33398 1075 C 959.11775 1349.993 1287.4206 1610 1700 1610 C 2149.9995 1610 2500 1300.7036 2500 1000 C 2500 699.29639 2146.0261 386.13574 1700 390 z M 1700 500 C 1999.9994 500 2100 742.25404 2100 1000 C 2100 1257.7459 2001.6486 1500 1700 1500 C 1398.3514 1500 1300 1257.7459 1300 1000 C 1300 742.25404 1400.0006 500 1700 500 z " /></g></svg>
