<?xml version="1.0" encoding="UTF-8" standalone="no"?>
<!-- Created with Inkscape (http://www.inkscape.org/) -->

<svg
   width="2000"
   height="2000"
   viewBox="0 0 2000 2000"
   version="1.1"
   id="svg1"
   inkscape:version="1.2.1 (9c6d41e410, 2022-07-14)"
   sodipodi:docname="1071_ya-capital.svg"
   xml:space="preserve"
   xmlns:inkscape="http://www.inkscape.org/namespaces/inkscape"
   xmlns:sodipodi="http://sodipodi.sourceforge.net/DTD/sodipodi-0.dtd"
   xmlns="http://www.w3.org/2000/svg"
   xmlns:svg="http://www.w3.org/2000/svg"><sodipodi:namedview
     id="namedview1"
     pagecolor="#ffffff"
     bordercolor="#000000"
     borderopacity="0.25"
     inkscape:showpageshadow="2"
     inkscape:pageopacity="0.0"
     inkscape:pagecheckerboard="0"
     inkscape:deskcolor="#d1d1d1"
     inkscape:document-units="px"
     showgrid="true"
     inkscape:zoom="0.39303353"
     inkscape:cx="1130.9468"
     inkscape:cy="915.95239"
     inkscape:window-width="2560"
     inkscape:window-height="1377"
     inkscape:window-x="1072"
     inkscape:window-y="-8"
     inkscape:window-maximized="1"
     inkscape:current-layer="layer1-3"
     showguides="false"><inkscape:grid
       id="grid1"
       units="px"
       originx="0"
       originy="0"
       spacingx="25"
       spacingy="25"
       empcolor="#0099e5"
       empopacity="0.30196078"
       color="#0099e5"
       opacity="0.14901961"
       empspacing="4"
       dotted="false"
       gridanglex="30"
       gridanglez="30"
       visible="true" /></sodipodi:namedview><defs
     id="defs1" /><g
     inkscape:label="Layer 1"
     inkscape:groupmode="layer"
     id="layer1"><g
       inkscape:label="Layer 1"
       id="layer1-3"
       transform="translate(1800,-400)"><g
         inkscape:label="Layer 1"
         id="layer1-0"
         transform="matrix(-1,0,0,1,0,400)"><path
           id="path48264-2-1"
           style="fill:#000000;fill-opacity:0.555319;fill-rule:evenodd;stroke:none;stroke-width:1px;stroke-linecap:butt;stroke-linejoin:miter;stroke-opacity:1"
           d="m 1000,1100 c 250,0 495.5022,-80.7346 500,-340.00001 4.4978,-259.26538 -250,-360 -500,-360 H 100 v 100 H 300.00004 L 300,1500 H 99.99996 v 100 H 900 V 1500 H 600 V 1100 Z M 600.00004,499.99999 H 1000 c 120,0 200,90 200,250 0,160 -80,250.00001 -200,250.00001 H 600 Z"
           sodipodi:nodetypes="czsccccccccccccszscc" /><path
           style="fill:#000000;fill-opacity:0.555319;stroke:none;stroke-width:1px;stroke-linecap:butt;stroke-linejoin:miter;stroke-opacity:1"
           d="m 1700,1600 h -300 c -90,0 -201.1538,-100.0033 -200,-300 0.8996,-155.922 -50,-200 -200,-200 V 999.99999 c 150,0 500,-39.99999 500,300.00001 0,200 100,200 200,200 z"
           id="path69743"
           sodipodi:nodetypes="cssccscc" /><path
           id="path48264-2-3"
           style="fill:#000000;fill-opacity:0.555319;fill-rule:evenodd;stroke:none;stroke-width:1px;stroke-linecap:butt;stroke-linejoin:miter;stroke-opacity:1"
           d="M 100,400 V 500 H 300 V 1500 H 100 v 100 H 900 V 1500 H 600 v -400 h 400 c 149.9998,0 200.8996,44.0782 200,200 -1.1538,199.9965 110.0001,300 200,300 h 300 v -100 c -99.9999,0 -200,-2e-4 -200,-200 0,-155.3892 -73.1747,-231.2769 -166.8828,-268.0156 C 1431.1833,979.8274 1497.6806,893.69867 1500,760 1504.4978,500.73488 1249.9997,400 1000,400 Z m 500,100 h 400 c 119.9999,0 200,90.00016 200,250 0,159.99984 -80.0001,250 -200,250 H 600 Z" /></g></g></g></svg>
