<?xml version="1.0" encoding="UTF-8" standalone="no"?>
<!-- Created with Inkscape (http://www.inkscape.org/) -->

<svg
   width="2000"
   height="2000"
   viewBox="0 0 2000 2000"
   version="1.1"
   id="svg1"
   inkscape:version="1.2.2 (732a01da63, 2022-12-09)"
   sodipodi:docname="1488_aleph.svg"
   xml:space="preserve"
   xmlns:inkscape="http://www.inkscape.org/namespaces/inkscape"
   xmlns:sodipodi="http://sodipodi.sourceforge.net/DTD/sodipodi-0.dtd"
   xmlns="http://www.w3.org/2000/svg"
   xmlns:svg="http://www.w3.org/2000/svg"><sodipodi:namedview
     id="namedview1"
     pagecolor="#ffffff"
     bordercolor="#000000"
     borderopacity="0.25"
     inkscape:showpageshadow="2"
     inkscape:pageopacity="0.0"
     inkscape:pagecheckerboard="0"
     inkscape:deskcolor="#d1d1d1"
     inkscape:document-units="px"
     showgrid="true"
     inkscape:zoom="1.1116667"
     inkscape:cx="193.85307"
     inkscape:cy="952.62366"
     inkscape:window-width="3840"
     inkscape:window-height="2066"
     inkscape:window-x="-11"
     inkscape:window-y="-11"
     inkscape:window-maximized="1"
     inkscape:current-layer="layer1"
     showguides="false"><inkscape:grid
       id="grid1"
       units="px"
       originx="0"
       originy="0"
       spacingx="25"
       spacingy="25"
       empcolor="#0099e5"
       empopacity="0.30196078"
       color="#0099e5"
       opacity="0.14901961"
       empspacing="4"
       dotted="false"
       gridanglex="30"
       gridanglez="30"
       visible="true" /></sodipodi:namedview><defs
     id="defs1" /><g
     inkscape:label="Layer 1"
     inkscape:groupmode="layer"
     id="layer1"><path
       id="path8529-3-5"
       style="fill:#000000;fill-opacity:0.555319;fill-rule:evenodd;stroke:none;stroke-width:1px;stroke-linecap:butt;stroke-linejoin:miter;stroke-opacity:1"
       d="M 1500,700 H 900 V 400 h 150 c 154.2022,145.29709 250.0001,200 350,200 h 100 z"
       sodipodi:nodetypes="ccccscc" /><path
       id="path8529-3-5-2"
       style="fill:#000000;fill-opacity:0.555319;fill-rule:evenodd;stroke:none;stroke-width:1px;stroke-linecap:butt;stroke-linejoin:miter;stroke-opacity:1"
       d="M 100,1600 H 700 V 1500 H 100 Z"
       sodipodi:nodetypes="ccccc" /><path
       style="fill:#000000;fill-opacity:0.556863;stroke:none;stroke-width:1px;stroke-linecap:butt;stroke-linejoin:miter;stroke-opacity:1"
       d="M 400,450 1450,1500 1250,1600 200,550 Z"
       id="path504"
       sodipodi:nodetypes="ccccc" /><path
       style="fill:#000000;fill-opacity:0.556863;stroke:none;stroke-width:1px;stroke-linecap:butt;stroke-linejoin:miter;stroke-opacity:1"
       d="m 1050,1000 c 150,0 150,-125 150,-300 h 300 v 100 c 0,100 -60.4198,298.2009 -350,300 H 1050 L 950,1000 Z"
       id="path506"
       sodipodi:nodetypes="cccscccc" /><path
       style="fill:#000000;fill-opacity:0.556863;stroke:none;stroke-width:1px;stroke-linecap:butt;stroke-linejoin:miter;stroke-opacity:1"
       d="M 700,1500 H 400 L 250,1200 C 159.46772,1018.9354 200,900 500,900 h 50 l 100,100 h -50 c -200,0 -92.19544,115.6091 0,300 z"
       id="path506-4"
       sodipodi:nodetypes="ccsccccsc" /><path
       id="path8529-3-5-8"
       style="fill:#000000;fill-opacity:0.555319;fill-rule:evenodd;stroke:none;stroke-width:1px;stroke-linecap:butt;stroke-linejoin:miter;stroke-opacity:1"
       d="m 200,550 350,350 h -50 c -299.9997,0 -340.53219,118.9356 -250,300 l 150,300 H 100 v 100 H 700 V 1500 L 600,1300 c -92.19535,-184.3907 -199.9998,-300 0,-300 h 50 l 600,600 200,-100 -400,-400 h 100 c 289.5799,-1.7991 350,-200.0001 350,-300 V 700 600 h -100 c -99.9998,0 -195.798,-54.70306 -350,-200 H 900 v 300 h 300 c 0,174.99982 -2e-4,300 -150,300 H 950 L 400,450 Z"
       sodipodi:nodetypes="ccsscccccsscccccsccsccccsccc" /></g></svg>
