<?xml version="1.0" encoding="UTF-8" standalone="no"?>
<!-- Created with Inkscape (http://www.inkscape.org/) -->

<svg
   width="2000"
   height="2000"
   viewBox="0 0 2000 2000"
   version="1.1"
   id="svg1"
   inkscape:version="1.2.2 (732a01da63, 2022-12-09)"
   sodipodi:docname="1490_gimlet.svg"
   xml:space="preserve"
   xmlns:inkscape="http://www.inkscape.org/namespaces/inkscape"
   xmlns:sodipodi="http://sodipodi.sourceforge.net/DTD/sodipodi-0.dtd"
   xmlns="http://www.w3.org/2000/svg"
   xmlns:svg="http://www.w3.org/2000/svg"><sodipodi:namedview
     id="namedview1"
     pagecolor="#ffffff"
     bordercolor="#000000"
     borderopacity="0.25"
     inkscape:showpageshadow="2"
     inkscape:pageopacity="0.0"
     inkscape:pagecheckerboard="0"
     inkscape:deskcolor="#d1d1d1"
     inkscape:document-units="px"
     showgrid="true"
     inkscape:zoom="0.78606706"
     inkscape:cx="-365.74488"
     inkscape:cy="1193.2824"
     inkscape:window-width="3840"
     inkscape:window-height="2066"
     inkscape:window-x="-11"
     inkscape:window-y="-11"
     inkscape:window-maximized="1"
     inkscape:current-layer="layer1"
     showguides="false"><inkscape:grid
       id="grid1"
       units="px"
       originx="0"
       originy="0"
       spacingx="25"
       spacingy="25"
       empcolor="#0099e5"
       empopacity="0.30196078"
       color="#0099e5"
       opacity="0.14901961"
       empspacing="4"
       dotted="false"
       gridanglex="30"
       gridanglez="30"
       visible="true" /></sodipodi:namedview><defs
     id="defs1" /><g
     inkscape:label="Layer 1"
     inkscape:groupmode="layer"
     id="layer1"><path
       id="path8529-3"
       style="fill:#000000;fill-opacity:0.555319;fill-rule:evenodd;stroke:none;stroke-width:1px;stroke-linecap:butt;stroke-linejoin:miter;stroke-opacity:1"
       d="m 400,1100 c 0,299.9997 -150.00015,400 -300,400 v 100 c 249.99975,0 500,-5e-4 500,-500 H 700 V 700 H 400 Z"
       sodipodi:nodetypes="cccccccc" /><path
       id="path8529-3-52"
       style="fill:#000000;fill-opacity:0.555319;fill-rule:evenodd;stroke:none;stroke-width:1px;stroke-linecap:butt;stroke-linejoin:miter;stroke-opacity:1"
       d="M 700,700 V 600 H 600 C 500.0003,600 404.20188,545.29679 250,400 H 100 v 300 z"
       sodipodi:nodetypes="ccscccc" /><path
       style="fill:#000000;fill-opacity:0.556863;stroke:none;stroke-width:1px;stroke-linecap:butt;stroke-linejoin:miter;stroke-opacity:1"
       d="m 1000,1600 c -200,0 -300,0 -400,-200 -50,-100 -150,-300 -150,-300 l 225,-100 c 0,0 134.91459,269.8292 200,400 50,100 125,100 125,100 z"
       id="path506-4"
       sodipodi:nodetypes="csccscc" /><path
       id="path8529-3-9"
       style="fill:#000000;fill-opacity:0.555319;fill-rule:evenodd;stroke:none;stroke-width:1px;stroke-linecap:butt;stroke-linejoin:miter;stroke-opacity:1"
       d="M 100 400 L 100 700 L 400 700 L 400 1100 C 400 1399.9994 249.9997 1500 100 1500 L 100 1600 C 299.99917 1600 499.85899 1599.7187 571.85938 1343.7207 L 600 1400 C 699.9999 1599.9998 800.0002 1600 1000 1600 L 1000 1500 C 1000 1500 924.99995 1499.9999 875 1400 C 818.05032 1286.1007 726.71331 1103.4266 700 1050 L 700 700 L 700 600 L 600 600 C 500.0004 600 404.20173 545.29664 250 400 L 100 400 z " /></g></svg>
