<?xml version="1.0" encoding="UTF-8" standalone="no"?>
<!-- Created with Inkscape (http://www.inkscape.org/) -->

<svg
   width="2000"
   height="2000"
   viewBox="0 0 2000 2000"
   version="1.1"
   id="svg1"
   inkscape:version="1.2.2 (732a01da63, 2022-12-09)"
   sodipodi:docname="1495_het.svg"
   xml:space="preserve"
   xmlns:inkscape="http://www.inkscape.org/namespaces/inkscape"
   xmlns:sodipodi="http://sodipodi.sourceforge.net/DTD/sodipodi-0.dtd"
   xmlns="http://www.w3.org/2000/svg"
   xmlns:svg="http://www.w3.org/2000/svg"><sodipodi:namedview
     id="namedview1"
     pagecolor="#ffffff"
     bordercolor="#000000"
     borderopacity="0.25"
     inkscape:showpageshadow="2"
     inkscape:pageopacity="0.0"
     inkscape:pagecheckerboard="0"
     inkscape:deskcolor="#d1d1d1"
     inkscape:document-units="px"
     showgrid="true"
     inkscape:zoom="0.78606706"
     inkscape:cx="-459.88443"
     inkscape:cy="1189.4659"
     inkscape:window-width="3840"
     inkscape:window-height="2066"
     inkscape:window-x="-11"
     inkscape:window-y="-11"
     inkscape:window-maximized="1"
     inkscape:current-layer="layer1"
     showguides="false"><inkscape:grid
       id="grid1"
       units="px"
       originx="0"
       originy="0"
       spacingx="25"
       spacingy="25"
       empcolor="#0099e5"
       empopacity="0.30196078"
       color="#0099e5"
       opacity="0.14901961"
       empspacing="4"
       dotted="false"
       gridanglex="30"
       gridanglez="30"
       visible="true" /></sodipodi:namedview><defs
     id="defs1" /><g
     inkscape:label="Layer 1"
     inkscape:groupmode="layer"
     id="layer1"><path
       style="fill:#000000;fill-opacity:0.555319;fill-rule:evenodd;stroke:none;stroke-width:1px;stroke-linecap:butt;stroke-linejoin:miter;stroke-opacity:1"
       d="M 1097.8707,1600 1300,1500 V 1100 C 1300,600.0005 949.99975,600 700,600 H 600 C 500.0002,600 404.20203,545.29694 250,400 H 100 v 300 h 600 c 149.99985,0 300,100.0003 300,400 v 500 z"
       id="path8529-3"
       sodipodi:nodetypes="ccssscccsscc" /><path
       style="fill:#000000;fill-opacity:0.556863;stroke:none;stroke-width:1px;stroke-linecap:butt;stroke-linejoin:miter;stroke-opacity:0.556863"
       d="M 300,1600 H 0 V 1500 H 200 V 1000 C 200,800 298.44356,600 500,600 H 700 V 700 H 600 c -50,0 -100,49.17097 -100,100 v 700 z"
       id="path399"
       sodipodi:nodetypes="ccccssccsscc" /><path
       id="path8529-3-1"
       style="fill:#000000;fill-opacity:0.555319;fill-rule:evenodd;stroke:none;stroke-width:1px;stroke-linecap:butt;stroke-linejoin:miter;stroke-opacity:1"
       d="M 100 400 L 100 700 L 292.79297 700 C 230.68482 776.85131 200 888.406 200 1000 L 200 1500 L 0 1500 L 0 1600 L 300 1600 L 500 1500 L 500 800 C 500 749.17102 550.00005 700 600 700 L 700 700 C 849.9997 700 1000 800.0006 1000 1100 L 1000 1600 L 1097.8711 1600 L 1300 1500 L 1300 1100 C 1300 600.001 949.9995 600 700 600 L 600 600 C 500.0003 600 404.20188 545.29679 250 400 L 100 400 z " /></g></svg>
