<?xml version="1.0" encoding="UTF-8" standalone="no"?>
<!-- Created with Inkscape (http://www.inkscape.org/) -->

<svg
   width="2000"
   height="2000"
   viewBox="0 0 2000 2000"
   version="1.1"
   id="svg1"
   inkscape:version="1.2.2 (732a01da63, 2022-12-09)"
   sodipodi:docname="1505_samekh.svg"
   xml:space="preserve"
   xmlns:inkscape="http://www.inkscape.org/namespaces/inkscape"
   xmlns:sodipodi="http://sodipodi.sourceforge.net/DTD/sodipodi-0.dtd"
   xmlns="http://www.w3.org/2000/svg"
   xmlns:svg="http://www.w3.org/2000/svg"><sodipodi:namedview
     id="namedview1"
     pagecolor="#ffffff"
     bordercolor="#000000"
     borderopacity="0.25"
     inkscape:showpageshadow="2"
     inkscape:pageopacity="0.0"
     inkscape:pagecheckerboard="0"
     inkscape:deskcolor="#d1d1d1"
     inkscape:document-units="px"
     showgrid="true"
     inkscape:zoom="0.78606706"
     inkscape:cx="-190.18734"
     inkscape:cy="1193.2824"
     inkscape:window-width="3840"
     inkscape:window-height="2066"
     inkscape:window-x="-11"
     inkscape:window-y="-11"
     inkscape:window-maximized="1"
     inkscape:current-layer="layer1"
     showguides="false"><inkscape:grid
       id="grid1"
       units="px"
       originx="0"
       originy="0"
       spacingx="25"
       spacingy="25"
       empcolor="#0099e5"
       empopacity="0.30196078"
       color="#0099e5"
       opacity="0.14901961"
       empspacing="4"
       dotted="false"
       gridanglex="30"
       gridanglez="30"
       visible="true" /></sodipodi:namedview><defs
     id="defs1" /><g
     inkscape:label="Layer 1"
     inkscape:groupmode="layer"
     id="layer1"><path
       id="path8529-3-5"
       style="fill:#000000;fill-opacity:0.555319;fill-rule:evenodd;stroke:none;stroke-width:1px;stroke-linecap:butt;stroke-linejoin:miter;stroke-opacity:1"
       d="M 650,700 600,600 C 500.0005,600 404.20158,545.29649 250,400 H 100 v 300 z"
       sodipodi:nodetypes="cccccc" /><path
       style="fill:#000000;fill-opacity:0.556863;stroke:none;stroke-width:1px;stroke-linecap:butt;stroke-linejoin:miter;stroke-opacity:0.556863"
       d="m 200,1200 c 0,199.9994 98.4442,400 300,400 h 200 c 249.9994,0 600,0 600,-500 0,-499.9985 -350.0006,-500 -600,-500 v 100 c 149.99955,0 300,100.0009 300,400 0,299.9991 -150.00045,400 -300,400 h -50 c -75,0 -150,-100 -150,-300 v -200 c 0,-200 54.83846,-300 150,-300 h 50 V 600 H 500 c -201.5564,0 -300,200 -300,400 z"
       id="path399-1"
       sodipodi:nodetypes="csssccsssccsccscc" /><path
       id="path8529-3-7-8"
       style="fill:#000000;fill-opacity:0.555319;fill-rule:evenodd;stroke:none;stroke-width:1px;stroke-linecap:butt;stroke-linejoin:miter;stroke-opacity:1"
       d="M 100,400 V 700 H 292.79297 C 230.68481,776.85131 200,888.406 200,1000 v 200 c 0,199.9992 98.4444,400 300,400 h 200 c 249.9992,0 600,-5e-4 600,-500 C 1300,600.002 949.9992,600 700,600 H 600 C 500.0006,600 404.20143,545.29634 250,400 Z m 550,300 h 50 c 149.9994,0 300,100.0012 300,400 0,299.9988 -150.0006,400 -300,400 h -50 c -75,0 -150,-100 -150,-300 v -200 c 0,-200 52.2942,-300 150,-300 z"
       sodipodi:nodetypes="cccsssssssccssssssss" /></g></svg>
