<?xml version="1.0" encoding="UTF-8" standalone="no"?>
<!-- Created with Inkscape (http://www.inkscape.org/) -->

<svg
   width="2000"
   height="2000"
   viewBox="0 0 2000 2000"
   version="1.1"
   id="svg1"
   inkscape:version="1.2.2 (732a01da63, 2022-12-09)"
   sodipodi:docname="1506_ayin.svg"
   xml:space="preserve"
   xmlns:inkscape="http://www.inkscape.org/namespaces/inkscape"
   xmlns:sodipodi="http://sodipodi.sourceforge.net/DTD/sodipodi-0.dtd"
   xmlns="http://www.w3.org/2000/svg"
   xmlns:svg="http://www.w3.org/2000/svg"><sodipodi:namedview
     id="namedview1"
     pagecolor="#ffffff"
     bordercolor="#000000"
     borderopacity="0.25"
     inkscape:showpageshadow="2"
     inkscape:pageopacity="0.0"
     inkscape:pagecheckerboard="0"
     inkscape:deskcolor="#d1d1d1"
     inkscape:document-units="px"
     showgrid="true"
     inkscape:zoom="0.78606706"
     inkscape:cx="540.03026"
     inkscape:cy="1194.5546"
     inkscape:window-width="3840"
     inkscape:window-height="2066"
     inkscape:window-x="-11"
     inkscape:window-y="-11"
     inkscape:window-maximized="1"
     inkscape:current-layer="layer1"
     showguides="false"><inkscape:grid
       id="grid1"
       units="px"
       originx="0"
       originy="0"
       spacingx="25"
       spacingy="25"
       empcolor="#0099e5"
       empopacity="0.30196078"
       color="#0099e5"
       opacity="0.14901961"
       empspacing="4"
       dotted="false"
       gridanglex="30"
       gridanglez="30"
       visible="true" /></sodipodi:namedview><defs
     id="defs1" /><g
     inkscape:label="Layer 1"
     inkscape:groupmode="layer"
     id="layer1"><path
       id="path8529-3-52"
       style="fill:#000000;fill-opacity:0.555319;fill-rule:evenodd;stroke:none;stroke-width:1px;stroke-linecap:butt;stroke-linejoin:miter;stroke-opacity:1"
       d="M 700,700 V 600 H 600 C 500.0003,600 404.2019,545.29679 250,400 H 100 v 300 z"
       sodipodi:nodetypes="ccscccc" /><path
       id="path8529-3-52-6"
       style="fill:#000000;fill-opacity:0.555319;fill-rule:evenodd;stroke:none;stroke-width:1px;stroke-linecap:butt;stroke-linejoin:miter;stroke-opacity:1"
       d="M 1400,700 V 600 h -100 c -99.9997,0 -195.7981,-54.70321 -350,-200 H 800 v 300 z"
       sodipodi:nodetypes="ccscccc" /><path
       style="fill:#000000;fill-opacity:0.556863;stroke:none;stroke-width:1px;stroke-linecap:butt;stroke-linejoin:miter;stroke-opacity:0.556863"
       d="m 1100,700 c 0,400 -200,700 -600,800 l -400,100 100,200 400,-100 c 400,-100 803.8165,-392.6386 800,-1000 z"
       id="path394"
       sodipodi:nodetypes="csccscc" /><path
       style="fill:#000000;fill-opacity:0.556863;stroke:none;stroke-width:1px;stroke-linecap:butt;stroke-linejoin:miter;stroke-opacity:0.556863"
       d="M 750,1450 C 550,1250 400,1100 400,700 h 300 c 0,300 7.13261,401.2722 200,600"
       id="path394-9"
       sodipodi:nodetypes="cccc" /><path
       id="path8529-3-52-2"
       style="fill:#000000;fill-opacity:0.555319;fill-rule:evenodd;stroke:none;stroke-width:1px;stroke-linecap:butt;stroke-linejoin:miter;stroke-opacity:1"
       d="M 100 400 L 100 700 L 400 700 C 400 1077.2567 533.47847 1232.171 716.43945 1416.3516 C 652.29404 1451.7021 580.24262 1479.9393 500 1500 L 100 1600 L 200 1800 L 600 1700 C 999.9996 1600.0001 1403.8165 1307.3608 1400 700 L 1400 600 L 1300 600 C 1200.0004 600 1104.2017 545.29664 950 400 L 800 400 L 800 700 L 1100 700 C 1100 938.01605 1029.1624 1140.6076 887.5332 1286.7402 C 707.3019 1096.7722 700 993.13031 700 700 L 700 600 L 600 600 C 500.0004 600 404.20175 545.29664 250 400 L 100 400 z " /></g></svg>
