<?xml version="1.0" encoding="UTF-8" standalone="no"?>
<!-- Created with Inkscape (http://www.inkscape.org/) -->

<svg
   width="2000"
   height="2000"
   viewBox="0 0 2000 2000"
   version="1.1"
   id="svg1"
   inkscape:version="1.2.2 (732a01da63, 2022-12-09)"
   sodipodi:docname="1507_pe-final.svg"
   xml:space="preserve"
   xmlns:inkscape="http://www.inkscape.org/namespaces/inkscape"
   xmlns:sodipodi="http://sodipodi.sourceforge.net/DTD/sodipodi-0.dtd"
   xmlns="http://www.w3.org/2000/svg"
   xmlns:svg="http://www.w3.org/2000/svg"><sodipodi:namedview
     id="namedview1"
     pagecolor="#ffffff"
     bordercolor="#000000"
     borderopacity="0.25"
     inkscape:showpageshadow="2"
     inkscape:pageopacity="0.0"
     inkscape:pagecheckerboard="0"
     inkscape:deskcolor="#d1d1d1"
     inkscape:document-units="px"
     showgrid="true"
     inkscape:zoom="0.78606706"
     inkscape:cx="-82.054068"
     inkscape:cy="1291.2384"
     inkscape:window-width="3840"
     inkscape:window-height="2066"
     inkscape:window-x="-11"
     inkscape:window-y="-11"
     inkscape:window-maximized="1"
     inkscape:current-layer="layer1"
     showguides="false"><inkscape:grid
       id="grid1"
       units="px"
       originx="0"
       originy="0"
       spacingx="25"
       spacingy="25"
       empcolor="#0099e5"
       empopacity="0.30196078"
       color="#0099e5"
       opacity="0.14901961"
       empspacing="4"
       dotted="false"
       gridanglex="30"
       gridanglez="30"
       visible="true" /></sodipodi:namedview><defs
     id="defs1" /><g
     inkscape:label="Layer 1"
     inkscape:groupmode="layer"
     id="layer1"><path
       id="path8529-3-8"
       style="fill:#000000;fill-opacity:0.555319;fill-rule:evenodd;stroke:none;stroke-width:1px;stroke-linecap:butt;stroke-linejoin:miter;stroke-opacity:1"
       d="M 1300,1100 C 1300,600.0015 949.99925,600 700,600 H 600 C 500.0004,600 404.20173,545.29664 250,400 H 100 v 300 h 600 c 149.99955,0 300,100.0009 300,400 v 900 h 100 l 200,-100 z"
       sodipodi:nodetypes="csscccsccccc" /><path
       id="path399-5"
       style="fill:#000000;fill-opacity:0.556863;stroke:none;stroke-width:1px;stroke-linecap:butt;stroke-linejoin:miter;stroke-opacity:0.556863"
       d="M 500 600 C 298.4438 600 200 800.0002 200 1000 L 200 1200 L 500 1200 L 800 1200 L 800 1100 L 500 1100 L 500 800 C 500 749.17102 550.00005 700 600 700 L 700 700 L 700 600 L 500 600 z " /><path
       id="path8529-3-8-8"
       style="fill:#000000;fill-opacity:0.555319;fill-rule:evenodd;stroke:none;stroke-width:1px;stroke-linecap:butt;stroke-linejoin:miter;stroke-opacity:1"
       d="M 100 400 L 100 700 L 292.79297 700 C 230.68479 776.85135 200 888.40612 200 1000 L 200 1200 L 500 1200 L 800 1200 L 800 1100 L 500 1100 L 500 800 C 500 749.17107 550.0001 700 600 700 L 700 700 C 849.9994 700 1000 800.0012 1000 1100 L 1000 2000 L 1100 2000 L 1300 1900 L 1300 1100 C 1300 600.002 949.999 600 700 600 L 600 600 C 500.0005 600 404.20158 545.29649 250 400 L 100 400 z " /></g></svg>
