<?xml version="1.0" encoding="UTF-8" standalone="no"?>
<!-- Created with Inkscape (http://www.inkscape.org/) -->

<svg
   width="2000"
   height="2000"
   viewBox="0 0 2000 2000"
   version="1.1"
   id="svg1"
   inkscape:version="1.2.2 (732a01da63, 2022-12-09)"
   sodipodi:docname="1510_tsadi.svg"
   xml:space="preserve"
   xmlns:inkscape="http://www.inkscape.org/namespaces/inkscape"
   xmlns:sodipodi="http://sodipodi.sourceforge.net/DTD/sodipodi-0.dtd"
   xmlns="http://www.w3.org/2000/svg"
   xmlns:svg="http://www.w3.org/2000/svg"><sodipodi:namedview
     id="namedview1"
     pagecolor="#ffffff"
     bordercolor="#000000"
     borderopacity="0.25"
     inkscape:showpageshadow="2"
     inkscape:pageopacity="0.0"
     inkscape:pagecheckerboard="0"
     inkscape:deskcolor="#d1d1d1"
     inkscape:document-units="px"
     showgrid="true"
     inkscape:zoom="0.78606706"
     inkscape:cx="966.20255"
     inkscape:cy="1194.5546"
     inkscape:window-width="3840"
     inkscape:window-height="2066"
     inkscape:window-x="-11"
     inkscape:window-y="-11"
     inkscape:window-maximized="1"
     inkscape:current-layer="layer1"
     showguides="false"><inkscape:grid
       id="grid1"
       units="px"
       originx="0"
       originy="0"
       spacingx="25"
       spacingy="25"
       empcolor="#0099e5"
       empopacity="0.30196078"
       color="#0099e5"
       opacity="0.14901961"
       empspacing="4"
       dotted="false"
       gridanglex="30"
       gridanglez="30"
       visible="true" /></sodipodi:namedview><defs
     id="defs1" /><g
     inkscape:label="Layer 1"
     inkscape:groupmode="layer"
     id="layer1"><path
       id="path8529-3-52-6"
       style="fill:#000000;fill-opacity:0.555319;fill-rule:evenodd;stroke:none;stroke-width:1px;stroke-linecap:butt;stroke-linejoin:miter;stroke-opacity:1"
       d="m 1200,600 c -99.9997,0 -195.7981,-54.70321 -350,-200 H 700 v 300 h 500 z"
       sodipodi:nodetypes="cccccc" /><path
       id="path8529-3-52-6-8"
       style="fill:#000000;fill-opacity:0.555319;fill-rule:evenodd;stroke:none;stroke-width:1px;stroke-linecap:butt;stroke-linejoin:miter;stroke-opacity:1"
       d="M 500,600 C 400.0003,600 304.2019,545.29679 150,400 H 100 V 700 H 600 V 600 Z"
       sodipodi:nodetypes="ccccccc" /><path
       style="fill:#000000;fill-opacity:0.556863;stroke:none;stroke-width:1px;stroke-linecap:butt;stroke-linejoin:miter;stroke-opacity:0.556863"
       d="M 1200,1500 1000,1600 750,1350 C 550,1150 300,950 300,700 h 300 c 0,200 107.13261,301.2722 300,500 z"
       id="path394-9"
       sodipodi:nodetypes="ccccccc" /><path
       style="fill:#000000;fill-opacity:0.556863;stroke:none;stroke-width:1px;stroke-linecap:butt;stroke-linejoin:miter;stroke-opacity:1"
       d="m 750,1000 c 150,0 150,-125 150,-300 h 300 v 100 c 0,100 -60.4198,298.2009 -350,300 H 600 v -100 z"
       id="path506"
       sodipodi:nodetypes="cccscccc" /><rect
       style="opacity:0.458988;fill:#000000;fill-opacity:0.556863;fill-rule:evenodd;stroke-width:2;stroke-linecap:square;stroke-linejoin:round;stroke-miterlimit:2.5;stroke-opacity:0.556863;stop-color:#000000"
       id="rect465"
       width="1100"
       height="100"
       x="100"
       y="1500" /><path
       id="path8529-3-52-6-9"
       style="fill:#000000;fill-opacity:0.555319;fill-rule:evenodd;stroke:none;stroke-width:1px;stroke-linecap:butt;stroke-linejoin:miter;stroke-opacity:1"
       d="M 100 400 L 100 700 L 300 700 C 300 949.99975 550.0002 1150.0002 750 1350 L 900 1500 L 100 1500 L 100 1600 L 1200 1600 L 1200 1500 L 900 1200 C 864.63003 1163.5553 833.18988 1131.0995 803.71875 1100 L 850 1100 C 1139.5799 1098.2009 1200 899.9999 1200 800 L 1200 700 L 1200 600 C 1100.0004 600 1004.2017 545.29664 850 400 L 700 400 L 700 700 L 900 700 C 900 874.99982 899.99985 1000 750 1000 L 714.6543 1000 C 639.97054 907.08389 600 821.84202 600 700 L 600 600 L 500 600 C 400.0004 600 304.20175 545.29664 150 400 L 100 400 z " /></g></svg>
