<?xml version="1.0" encoding="UTF-8" standalone="no"?>
<!-- Created with Inkscape (http://www.inkscape.org/) -->

<svg
   width="2000"
   height="2000"
   viewBox="0 0 2000 2000"
   version="1.1"
   id="svg1"
   inkscape:version="1.2.2 (732a01da63, 2022-12-09)"
   sodipodi:docname="1513_shin.svg"
   xml:space="preserve"
   xmlns:inkscape="http://www.inkscape.org/namespaces/inkscape"
   xmlns:sodipodi="http://sodipodi.sourceforge.net/DTD/sodipodi-0.dtd"
   xmlns="http://www.w3.org/2000/svg"
   xmlns:svg="http://www.w3.org/2000/svg"><sodipodi:namedview
     id="namedview1"
     pagecolor="#ffffff"
     bordercolor="#000000"
     borderopacity="0.25"
     inkscape:showpageshadow="2"
     inkscape:pageopacity="0.0"
     inkscape:pagecheckerboard="0"
     inkscape:deskcolor="#d1d1d1"
     inkscape:document-units="px"
     showgrid="true"
     inkscape:zoom="0.78606706"
     inkscape:cx="1187.5577"
     inkscape:cy="1194.5546"
     inkscape:window-width="3840"
     inkscape:window-height="2066"
     inkscape:window-x="-11"
     inkscape:window-y="-11"
     inkscape:window-maximized="1"
     inkscape:current-layer="layer1"
     showguides="false"><inkscape:grid
       id="grid1"
       units="px"
       originx="0"
       originy="0"
       spacingx="25"
       spacingy="25"
       empcolor="#0099e5"
       empopacity="0.30196078"
       color="#0099e5"
       opacity="0.14901961"
       empspacing="4"
       dotted="false"
       gridanglex="30"
       gridanglez="30"
       visible="true" /></sodipodi:namedview><defs
     id="defs1" /><g
     inkscape:label="Layer 1"
     inkscape:groupmode="layer"
     id="layer1"><path
       id="path8529-3-52-6"
       style="fill:#000000;fill-opacity:0.555319;fill-rule:evenodd;stroke:none;stroke-width:1px;stroke-linecap:butt;stroke-linejoin:miter;stroke-opacity:1"
       d="M 100 400 L 100 700 L 300 700 L 300 1200 C 300 1399.9998 398.4438 1600 600 1600 L 800 1600 L 1200 1600 C 1449.9996 1600 1800 1599.999 1800 1100 L 1800 700 L 1800 600 C 1700.0004 600 1604.2017 545.29664 1450 400 L 1300 400 L 1300 700 L 1500 700 L 1500 1100 C 1500 1399.9994 1349.9998 1500 1200 1500 L 800 1500 L 700 1500 C 650.00005 1500 600 1450.8289 600 1400 L 600 1100 L 850 1100 C 1139.5799 1098.2009 1200 899.9999 1200 800 L 1200 700 L 1200 600 C 1100.0004 600 1004.2017 545.29664 850 400 L 700 400 L 700 700 L 900 700 C 900 874.99982 899.99985 1000 750 1000 L 600 1000 L 600 700 L 600 600 C 500.0004 600 404.20175 545.29664 250 400 L 100 400 z " /></g></svg>
