<?xml version="1.0" encoding="UTF-8" standalone="no"?>
<!-- Created with Inkscape (http://www.inkscape.org/) -->

<svg
   width="1200"
   height="1200"
   viewBox="0 0 1200 1200"
   version="1.1"
   id="svg1"
   inkscape:version="1.2.2 (732a01da63, 2022-12-09)"
   sodipodi:docname="1028_ukr-ie-capital.svg"
   xml:space="preserve"
   xmlns:inkscape="http://www.inkscape.org/namespaces/inkscape"
   xmlns:sodipodi="http://sodipodi.sourceforge.net/DTD/sodipodi-0.dtd"
   xmlns="http://www.w3.org/2000/svg"
   xmlns:svg="http://www.w3.org/2000/svg"><sodipodi:namedview
     id="namedview1"
     pagecolor="#ffffff"
     bordercolor="#000000"
     borderopacity="0.25"
     inkscape:showpageshadow="2"
     inkscape:pageopacity="0.0"
     inkscape:pagecheckerboard="0"
     inkscape:deskcolor="#d1d1d1"
     inkscape:document-units="px"
     showgrid="true"
     inkscape:zoom="0.55583335"
     inkscape:cx="373.31333"
     inkscape:cy="765.51722"
     inkscape:window-width="1276"
     inkscape:window-height="1481"
     inkscape:window-x="1262"
     inkscape:window-y="0"
     inkscape:window-maximized="0"
     inkscape:current-layer="layer1"
     showguides="false"><inkscape:grid
       id="grid1"
       units="px"
       originx="0"
       originy="0"
       spacingx="25"
       spacingy="25"
       empcolor="#0099e5"
       empopacity="0.30196078"
       color="#0099e5"
       opacity="0.14901961"
       empspacing="4"
       dotted="false"
       gridanglex="30"
       gridanglez="30"
       visible="true" /></sodipodi:namedview><defs
     id="defs1" /><g
     inkscape:label="Layer 1"
     inkscape:groupmode="layer"
     id="layer1"><rect
       style="opacity:0.453441;fill:#000000;fill-opacity:0.576596;fill-rule:evenodd"
       id="rect1"
       width="375"
       height="100"
       x="-500"
       y="500"
       transform="scale(-1,1)" /><path
       id="path2-8"
       style="fill:#000000;fill-opacity:0.555319;fill-rule:evenodd;stroke-width:0.999873"
       d="m 400,775 c 0,25 0,125 -100,125 C 200,900 200,749.99988 200,625 v -50 c 0,-124.99987 0,-275 100,-275 100,0 100,100 100,125 H 600 C 600,375 574.99973,200 300,200 75.00023,200 0,375.0002 0,575 v 50 c 0,199.9998 75.00023,375 300,375 274.99973,0 300,-175 300,-225 z"
       sodipodi:nodetypes="cssssccsssscc" /><path
       id="rect1-7"
       style="opacity:0.453441;fill:#000000;fill-opacity:0.576596;fill-rule:evenodd"
       d="M -300 200 C -75.000455 200 0 375.0004 0 575 L 0 625 C 0 824.9996 -75.000455 1000 -300 1000 C -574.99946 1000 -600 824.99995 -600 775 L -400 775 C -400 799.99997 -399.9999 900 -300 900 C -200.0001 900 -200 749.99976 -200 625 L -200 600 L -500 600 L -500 500 L -200.97266 500 C -204.06361 397.038 -219.60842 300 -300 300 C -399.9999 300 -400 400.00002 -400 425 L -600 425 C -600 375.00005 -574.99946 200 -300 200 z "
       transform="scale(-1,1)" /></g></svg>
