<?xml version="1.0" encoding="UTF-8" standalone="no"?>
<!-- Created with Inkscape (http://www.inkscape.org/) -->

<svg
   width="1200"
   height="1200"
   viewBox="0 0 1200 1200"
   version="1.1"
   id="svg1"
   inkscape:version="1.2.2 (732a01da63, 2022-12-09)"
   sodipodi:docname="1044_de-capital.svg"
   xml:space="preserve"
   xmlns:inkscape="http://www.inkscape.org/namespaces/inkscape"
   xmlns:sodipodi="http://sodipodi.sourceforge.net/DTD/sodipodi-0.dtd"
   xmlns="http://www.w3.org/2000/svg"
   xmlns:svg="http://www.w3.org/2000/svg"><sodipodi:namedview
     id="namedview1"
     pagecolor="#ffffff"
     bordercolor="#000000"
     borderopacity="0.25"
     inkscape:showpageshadow="2"
     inkscape:pageopacity="0.0"
     inkscape:pagecheckerboard="0"
     inkscape:deskcolor="#d1d1d1"
     inkscape:document-units="px"
     showgrid="true"
     inkscape:zoom="1.5721341"
     inkscape:cx="571.19809"
     inkscape:cy="855.20694"
     inkscape:window-width="1649"
     inkscape:window-height="1505"
     inkscape:window-x="727"
     inkscape:window-y="210"
     inkscape:window-maximized="0"
     inkscape:current-layer="layer1"
     showguides="true"><inkscape:grid
       id="grid1"
       units="px"
       originx="0"
       originy="0"
       spacingx="25"
       spacingy="25"
       empcolor="#0099e5"
       empopacity="0.30196078"
       color="#0099e5"
       opacity="0.14901961"
       empspacing="4"
       dotted="false"
       gridanglex="30"
       gridanglez="30"
       visible="true" /></sodipodi:namedview><defs
     id="defs1" /><g
     inkscape:label="Layer 1"
     inkscape:groupmode="layer"
     id="layer1"><path
       id="rect1"
       style="opacity:0.453441;fill:#000000;fill-opacity:0.576596;fill-rule:evenodd"
       d="M 175,200 125,700 C 113.12434,818.75655 106.55371,898.72784 75,900 v 100 h 25 c 149.9994,0 139.74343,-97.43432 150,-200 l 50,-500 h 100 v 700 H 600 V 300 200 Z"
       sodipodi:nodetypes="csccssccccccc" /><path
       style="opacity:0.453441;fill:#000000;fill-opacity:0.576596;fill-rule:evenodd"
       d="M 650,1125 V 900 L 0,900 v 225 h 100 v -125 l 450,0 v 125 z"
       id="path2"
       sodipodi:nodetypes="ccccccccc" /><path
       id="rect1-6"
       style="opacity:0.453441;fill:#000000;fill-opacity:0.576596;fill-rule:evenodd"
       d="M 175,200 125,700 C 113.12435,818.75643 106.55368,898.72784 75,900 H 0 v 225 h 100 v -125 h 300 l 150,0 v 125 H 650 V 900 l -50,0 V 300 200 Z M 300,300 H 400 V 900 H 239.24805 C 245.25213,869.72751 246.47798,835.22018 250,800 Z"
       sodipodi:nodetypes="csccccccccccccccccccsc" /></g></svg>
