<?xml version="1.0" encoding="UTF-8" standalone="no"?>
<!-- Created with Inkscape (http://www.inkscape.org/) -->

<svg
   width="1200"
   height="1200"
   viewBox="0 0 1200 1200"
   version="1.1"
   id="svg1"
   inkscape:version="1.3 (0e150ed6c4, 2023-07-21)"
   sodipodi:docname="1047_ze-capital.svg"
   xml:space="preserve"
   xmlns:inkscape="http://www.inkscape.org/namespaces/inkscape"
   xmlns:sodipodi="http://sodipodi.sourceforge.net/DTD/sodipodi-0.dtd"
   xmlns="http://www.w3.org/2000/svg"
   xmlns:svg="http://www.w3.org/2000/svg"><sodipodi:namedview
     id="namedview1"
     pagecolor="#ffffff"
     bordercolor="#000000"
     borderopacity="0.25"
     inkscape:showpageshadow="2"
     inkscape:pageopacity="0.0"
     inkscape:pagecheckerboard="0"
     inkscape:deskcolor="#d1d1d1"
     inkscape:document-units="px"
     showgrid="true"
     inkscape:zoom="0.78606706"
     inkscape:cx="173.01323"
     inkscape:cy="328.85235"
     inkscape:window-width="2560"
     inkscape:window-height="1494"
     inkscape:window-x="-11"
     inkscape:window-y="-11"
     inkscape:window-maximized="1"
     inkscape:current-layer="layer1"
     showguides="false"><inkscape:grid
       id="grid1"
       units="px"
       originx="0"
       originy="0"
       spacingx="25"
       spacingy="25"
       empcolor="#0099e5"
       empopacity="0.30196078"
       color="#0099e5"
       opacity="0.14901961"
       empspacing="4"
       dotted="false"
       gridanglex="30"
       gridanglez="30"
       visible="true" /></sodipodi:namedview><defs
     id="defs1" /><g
     inkscape:label="Layer 1"
     inkscape:groupmode="layer"
     id="layer1"><path
       style="fill:#000000;fill-opacity:0.555319;stroke:none;stroke-width:1.4606px;stroke-linecap:butt;stroke-linejoin:miter;stroke-opacity:1"
       d="m 0,233.33332 c 0,0 66.666665,-33.33333 266.66666,-33.33333 C 466.66665,199.99999 600,291.66666 600,425 600,550 391.35431,674.99997 266.66666,674.99998 L 100,675 V 525 l 166.66666,-2e-5 C 366.66666,524.99997 400,475 400,425 400,358.33333 333.33332,300 200,300 66.666665,300 0,333.33333 0,333.33333 Z"
       id="path19625"
       sodipodi:nodetypes="csssccssscc" /><path
       style="fill:#000000;fill-opacity:0.555319;stroke:none;stroke-width:1.4606px;stroke-linecap:butt;stroke-linejoin:miter;stroke-opacity:1"
       d="m 0,966.66664 c 0,0 66.666665,33.33333 266.66666,33.33333 C 466.66665,999.99997 600,908.33333 600,775 600,650 391.35431,524.99997 266.66666,524.99998 L 100,525 v 150 l 166.66666,-2e-5 C 366.66666,674.99997 400,725 400,775 400,841.66667 333.33332,900 200,900 66.666665,900 0,866.66667 0,866.66667 Z"
       id="path19625-2"
       sodipodi:nodetypes="csssccssscc" /><path
       id="path19625-9"
       style="fill:#000000;fill-opacity:0.555319;stroke:none;stroke-width:1.4606px;stroke-linecap:butt;stroke-linejoin:miter;stroke-opacity:1"
       d="M 266.66602 200 C 66.666221 200 0 233.33398 0 233.33398 L 0 333.33398 C 0 333.33398 66.666798 300 200 300 C 333.33319 300 400 358.3334 400 425 C 400 474.99995 366.66592 524.99999 266.66602 525 L 100 525 L 100 675 L 266.66602 675 C 366.66592 674.99999 400 725.00005 400 775 C 400 841.6666 333.33319 900 200 900 C 66.666798 900 0 866.66602 0 866.66602 L 0 966.66602 C 0 966.66602 66.666221 1000 266.66602 1000 C 466.66581 1000 600 908.3332 600 775 C 600 711.08101 545.4041 647.20537 475.41406 600 C 545.4041 552.79464 600 488.91899 600 425 C 600 291.66679 466.66581 200 266.66602 200 z " /></g></svg>
