<?xml version="1.0" encoding="UTF-8" standalone="no"?>
<!-- Created with Inkscape (http://www.inkscape.org/) -->

<svg
   width="1200"
   height="1200"
   viewBox="0 0 1200 1200"
   version="1.1"
   id="svg1"
   inkscape:version="1.2.2 (732a01da63, 2022-12-09)"
   sodipodi:docname="1069_e-capital.svg"
   xml:space="preserve"
   xmlns:inkscape="http://www.inkscape.org/namespaces/inkscape"
   xmlns:sodipodi="http://sodipodi.sourceforge.net/DTD/sodipodi-0.dtd"
   xmlns="http://www.w3.org/2000/svg"
   xmlns:svg="http://www.w3.org/2000/svg"><sodipodi:namedview
     id="namedview1"
     pagecolor="#ffffff"
     bordercolor="#000000"
     borderopacity="0.25"
     inkscape:showpageshadow="2"
     inkscape:pageopacity="0.0"
     inkscape:pagecheckerboard="0"
     inkscape:deskcolor="#d1d1d1"
     inkscape:document-units="px"
     showgrid="true"
     inkscape:zoom="0.78606706"
     inkscape:cx="342.84607"
     inkscape:cy="755.02464"
     inkscape:window-width="1276"
     inkscape:window-height="1481"
     inkscape:window-x="1262"
     inkscape:window-y="0"
     inkscape:window-maximized="0"
     inkscape:current-layer="layer1"
     showguides="false"><inkscape:grid
       id="grid1"
       units="px"
       originx="0"
       originy="0"
       spacingx="25"
       spacingy="25"
       empcolor="#0099e5"
       empopacity="0.30196078"
       color="#0099e5"
       opacity="0.14901961"
       empspacing="4"
       dotted="false"
       gridanglex="30"
       gridanglez="30"
       visible="true" /></sodipodi:namedview><defs
     id="defs1" /><g
     inkscape:label="Layer 1"
     inkscape:groupmode="layer"
     id="layer1"><rect
       style="opacity:0.453441;fill:#000000;fill-opacity:0.576596;fill-rule:evenodd"
       id="rect1-2"
       width="375"
       height="100"
       x="100"
       y="500" /><path
       id="path2-8"
       style="fill:#000000;fill-opacity:0.555319;fill-rule:evenodd;stroke-width:0.999873"
       d="m 200,775 c 0,25 0,125 100,125 100,0 100,-150.00012 100,-275 V 575 C 400,450.00013 400,300 300,300 200,300 200,400 200,425 H 0 c 0,-50 25.00027,-225 300,-225 224.99977,0 300,175.0002 300,375 v 50 c 0,199.9998 -75.00023,375 -300,375 C 25.00027,1000 0,825 0,775 Z"
       sodipodi:nodetypes="cssssccsssscc" /><path
       id="rect1-7"
       style="opacity:0.453441;fill:#000000;fill-opacity:0.576596;fill-rule:evenodd"
       d="m 300,200 c 224.99954,0 300,175.0004 300,375 v 50 c 0,199.9996 -75.00046,375 -300,375 C 25.00054,1000 0,824.99995 0,775 h 200 c 0,24.99997 1e-4,125 100,125 99.9999,0 100,-150.00024 100,-275 V 600 H 100 V 500 H 399.02734 C 395.93639,397.038 380.39158,300 300,300 200.0001,300 200,400.00002 200,425 H 0 C 0,375.00005 25.00054,200 300,200 Z" /><rect
       style="opacity:0.453441;fill:#000000;fill-opacity:0.576596;fill-rule:evenodd"
       id="rect1-2-8"
       width="375"
       height="100"
       x="100"
       y="500" /><path
       id="rect1-2-82"
       style="opacity:0.453441;fill:#000000;fill-opacity:0.576596;fill-rule:evenodd"
       d="M 300 200 C 274.2188 200 250.63457 201.53821 229.0625 204.36719 C 185.91838 210.02514 150.82143 220.84596 122.28906 234.85352 C 112.77827 239.5227 103.99761 244.54566 95.890625 249.84961 C 71.569663 265.76146 53.318557 284.20143 39.654297 303.18945 C 37.376923 306.35412 35.226685 309.53272 33.197266 312.71875 C 21.020245 331.83538 13.183737 351.17148 8.203125 368.75 C 6.5429651 374.60937 5.1994664 380.27247 4.1191406 385.66797 C 0.87786016 401.85524 0 415.62468 0 425 L 200 425 C 200 421.875 200 417.57812 200.19531 412.45117 C 201.26953 384.25329 208.25247 330.94456 253.63672 309.39258 C 255.6997 308.41296 257.84363 307.4993 260.06836 306.65625 C 271.192 302.44101 284.37503 300 300 300 C 302.85965 300 305.61602 300.15525 308.31445 300.39648 C 309.18411 300.47434 310.02182 300.60074 310.875 300.70312 C 312.69043 300.92068 314.47656 301.17936 316.21875 301.50586 C 317.1545 301.68148 318.07926 301.87356 318.99414 302.08008 C 320.635 302.44992 322.23552 302.88045 323.81055 303.34766 C 324.65958 303.59995 325.52144 303.83316 326.35156 304.11328 C 328.22233 304.74338 330.0356 305.45852 331.8125 306.22656 C 332.37802 306.47151 332.95754 306.69641 333.51367 306.95508 C 335.46791 307.86211 337.3582 308.86134 339.19922 309.93359 C 340.10888 310.46467 340.97883 311.05258 341.86133 311.62305 C 342.92049 312.30596 343.9713 313.00191 344.99219 313.74023 C 345.97703 314.45445 346.9429 315.1961 347.89258 315.96094 C 348.71327 316.61996 349.51358 317.308 350.30859 318.00391 C 351.3224 318.89405 352.33796 319.78142 353.31055 320.73047 C 353.8318 321.23745 354.32431 321.78509 354.83398 322.30859 C 358.83489 326.43187 362.50734 331.0223 365.82617 336.10547 C 365.83681 336.12169 365.84679 336.13806 365.85742 336.1543 C 370.33731 343.02397 374.16224 350.80357 377.53516 359.18555 C 378.25685 360.96919 378.93555 362.80954 379.61133 364.6543 C 380.93357 368.28489 382.24097 371.93557 383.39453 375.78711 C 383.45534 375.98883 383.50605 376.20395 383.56641 376.40625 C 393.96065 411.46962 397.68125 455.16177 399.02734 499.99414 C 399.0274 499.99609 399.02729 499.99805 399.02734 500 L 100 500 L 100 600 L 400 600 L 400 625 C 400 749.99964 399.9998 900 300 900 C 281.25004 900 266.01463 896.4851 253.63672 890.60742 C 251.57373 889.62781 249.59094 888.58206 247.68359 887.47656 C 199.99995 859.8391 200 794.53121 200 775 L 0 775 C 0 784.37498 0.87814978 798.14357 4.1191406 814.33008 L 4.1191406 814.33203 C 8.4405729 835.91368 16.962332 861.79173 33.197266 887.2793 L 33.197266 887.28125 C 47.403172 909.58302 67.516739 931.58694 95.890625 950.15039 C 103.99761 955.45434 112.77827 960.4773 122.28906 965.14648 C 150.82143 979.15404 185.91838 989.97486 229.0625 995.63281 C 243.44388 997.5188 258.71872 998.83081 274.94336 999.49609 C 283.0563 999.82879 291.40557 1000 300 1000 C 524.99932 1000 600 824.9994 600 625 L 600 575 C 600 375.0006 524.99932 200 300 200 z " /></g></svg>
