<?xml version="1.0" encoding="UTF-8" standalone="no"?>
<!-- Created with Inkscape (http://www.inkscape.org/) -->

<svg
   width="1200"
   height="1200"
   viewBox="0 0 1200 1200"
   version="1.1"
   id="svg1"
   inkscape:version="1.2.2 (732a01da63, 2022-12-09)"
   sodipodi:docname="1070_yu-capital.svg"
   xml:space="preserve"
   xmlns:inkscape="http://www.inkscape.org/namespaces/inkscape"
   xmlns:sodipodi="http://sodipodi.sourceforge.net/DTD/sodipodi-0.dtd"
   xmlns="http://www.w3.org/2000/svg"
   xmlns:svg="http://www.w3.org/2000/svg"><sodipodi:namedview
     id="namedview1"
     pagecolor="#ffffff"
     bordercolor="#000000"
     borderopacity="0.25"
     inkscape:showpageshadow="2"
     inkscape:pageopacity="0.0"
     inkscape:pagecheckerboard="0"
     inkscape:deskcolor="#d1d1d1"
     inkscape:document-units="px"
     showgrid="true"
     inkscape:zoom="0.78606706"
     inkscape:cx="397.54878"
     inkscape:cy="601.09375"
     inkscape:window-width="1276"
     inkscape:window-height="1481"
     inkscape:window-x="1262"
     inkscape:window-y="0"
     inkscape:window-maximized="0"
     inkscape:current-layer="layer1"
     showguides="false"><inkscape:grid
       id="grid1"
       units="px"
       originx="0"
       originy="0"
       spacingx="25"
       spacingy="25"
       empcolor="#0099e5"
       empopacity="0.30196078"
       color="#0099e5"
       opacity="0.14901961"
       empspacing="4"
       dotted="false"
       gridanglex="30"
       gridanglez="30"
       visible="true" /></sodipodi:namedview><defs
     id="defs1" /><g
     inkscape:label="Layer 1"
     inkscape:groupmode="layer"
     id="layer1"><path
       id="rect365"
       style="opacity:0.504444;fill:#000000;fill-opacity:0.56;stroke-width:3.74166;stroke-linecap:square;paint-order:stroke markers fill"
       d="m 0,200 v 800 H 175 V 675 H 328.125 V 525 H 175 V 200 Z"
       sodipodi:nodetypes="ccccccccc" /><path
       id="path2-8-5"
       style="fill:#000000;fill-opacity:0.555319;fill-rule:evenodd;stroke-width:0.935296"
       d="M 525,625 V 575 C 525,450 518.75,299.99996 475,299.99996 431.25,299.99996 425,450 425,575 v 50 c 0,125 6.25,275.00004 50,275 43.75,-4e-5 50,-150 50,-275 z m -250,0 V 575 C 275,375 325,200 475,199.99996 625,199.99992 700,375 700,575 v 50 C 700,825 625,1000 475,999.99996 325,999.99992 275,825 275,625 Z"
       sodipodi:nodetypes="sszsszssssssss" /><path
       id="rect365-2"
       style="opacity:0.504444;fill:#000000;fill-opacity:0.56;stroke-width:3.74166;stroke-linecap:square;paint-order:stroke markers fill"
       d="M 0 200 L 0 1000 L 175 1000 L 175 675 L 276.24805 675 C 284.31545 853.23791 337.68275 999.99996 475 1000 C 624.99985 1000 700 824.9998 700 625 L 700 575 C 700 375.0002 624.99985 199.99996 475 200 C 337.68275 200.00004 284.31545 346.76207 276.24805 525 L 175 525 L 175 200 L 0 200 z M 475 300 C 518.74996 300 525 450.00013 525 575 L 525 625 C 525 749.99987 518.74996 899.99996 475 900 C 431.25004 900.00004 425 749.99987 425 625 L 425 575 C 425 450.00013 431.25004 300 475 300 z " /></g></svg>
