<?xml version="1.0" encoding="UTF-8" standalone="no"?>
<!-- Created with Inkscape (http://www.inkscape.org/) -->

<svg
   width="1200"
   height="1200"
   viewBox="0 0 1200 1200"
   version="1.1"
   id="svg1"
   inkscape:version="1.2.2 (732a01da63, 2022-12-09)"
   sodipodi:docname="1073_be-small.svg"
   xml:space="preserve"
   xmlns:inkscape="http://www.inkscape.org/namespaces/inkscape"
   xmlns:sodipodi="http://sodipodi.sourceforge.net/DTD/sodipodi-0.dtd"
   xmlns="http://www.w3.org/2000/svg"
   xmlns:svg="http://www.w3.org/2000/svg"><sodipodi:namedview
     id="namedview1"
     pagecolor="#ffffff"
     bordercolor="#000000"
     borderopacity="0.25"
     inkscape:showpageshadow="2"
     inkscape:pageopacity="0.0"
     inkscape:pagecheckerboard="0"
     inkscape:deskcolor="#d1d1d1"
     inkscape:document-units="px"
     showgrid="true"
     inkscape:zoom="0.78606706"
     inkscape:cx="84.59838"
     inkscape:cy="655.79647"
     inkscape:window-width="2024"
     inkscape:window-height="1513"
     inkscape:window-x="607"
     inkscape:window-y="61"
     inkscape:window-maximized="0"
     inkscape:current-layer="layer1"
     showguides="false"><inkscape:grid
       id="grid1"
       units="px"
       originx="0"
       originy="0"
       spacingx="25"
       spacingy="25"
       empcolor="#0099e5"
       empopacity="0.30196078"
       color="#0099e5"
       opacity="0.14901961"
       empspacing="4"
       dotted="false"
       gridanglex="30"
       gridanglez="30"
       visible="true" /></sodipodi:namedview><defs
     id="defs1" /><g
     inkscape:label="Layer 1"
     inkscape:groupmode="layer"
     id="layer1"><path
       style="fill:#000000;fill-opacity:0.555319;stroke:none;stroke-width:1px;stroke-linecap:butt;stroke-linejoin:miter;stroke-opacity:1"
       d="M 0,700 V 500 C 0,300 100,225 200,225 h 200 c 50,0 75,-25 75,-25 h 100 c 0,0 0,125 -125,125 H 275 c -75,0 -125,50 -125,175 v 200 z"
       id="path486"
       sodipodi:nodetypes="csssccssscc" /><path
       id="path2-2"
       style="fill:#000000;fill-opacity:0.555319;fill-rule:evenodd;stroke-width:0.999873"
       d="M 600,625 C 600,525 474.9998,399.90772 300,400 125.0002,400.0923 0,525.0001 0,625 v 150 c 0,99.9999 125.00018,225 300,225 175,0 300,-125 300,-225 z m -400,0 c 0,-74.99992 50.00005,-125 100,-125 50,0 100,50.00008 100,125 v 150 c 0,74.61401 -50,125 -100,125 -50,0 -100,-50.00008 -100,-125 z"
       sodipodi:nodetypes="csssscccsccscc" /><path
       id="path486-2"
       style="fill:#000000;fill-opacity:0.555319;stroke:none;stroke-width:1px;stroke-linecap:butt;stroke-linejoin:miter;stroke-opacity:1"
       d="M 475 200 C 475 200 449.99995 225 400 225 L 200 225 C 100.0001 225 6.938887e-16 300.0002 0 500 L 0 625 L 0 700 L 0 775 C 0 874.9998 125.00035 1000 300 1000 C 474.99982 1000 600 874.9999 600 775 L 600 625 C 600 525.0001 474.99963 399.90772 300 400 C 246.90534 400.028 198.45715 411.5947 156.66211 430.41992 C 172.50909 356.2017 215.94001 325 275 325 L 450 325 C 574.99987 325 575 200 575 200 L 475 200 z M 300 500 C 349.99995 500 400 550.00015 400 625 L 400 775 C 400 849.61394 349.99995 900 300 900 C 250.00005 900 200 849.99985 200 775 L 200 625 C 200 550.00015 250.0001 500 300 500 z " /></g></svg>
