<?xml version="1.0" encoding="UTF-8" standalone="no"?>
<!-- Created with Inkscape (http://www.inkscape.org/) -->

<svg
   width="1200"
   height="1200"
   viewBox="0 0 1200 1200"
   version="1.1"
   id="svg1"
   inkscape:version="1.2.2 (732a01da63, 2022-12-09)"
   sodipodi:docname="1079_ze-small.svg"
   xml:space="preserve"
   xmlns:inkscape="http://www.inkscape.org/namespaces/inkscape"
   xmlns:sodipodi="http://sodipodi.sourceforge.net/DTD/sodipodi-0.dtd"
   xmlns="http://www.w3.org/2000/svg"
   xmlns:svg="http://www.w3.org/2000/svg"><sodipodi:namedview
     id="namedview1"
     pagecolor="#ffffff"
     bordercolor="#000000"
     borderopacity="0.25"
     inkscape:showpageshadow="2"
     inkscape:pageopacity="0.0"
     inkscape:pagecheckerboard="0"
     inkscape:deskcolor="#d1d1d1"
     inkscape:document-units="px"
     showgrid="true"
     inkscape:zoom="0.55583335"
     inkscape:cx="-166.41679"
     inkscape:cy="253.67316"
     inkscape:window-width="3840"
     inkscape:window-height="2066"
     inkscape:window-x="-11"
     inkscape:window-y="-11"
     inkscape:window-maximized="1"
     inkscape:current-layer="layer1"
     showguides="false"><inkscape:grid
       id="grid1"
       units="px"
       originx="0"
       originy="0"
       spacingx="25"
       spacingy="25"
       empcolor="#0099e5"
       empopacity="0.30196078"
       color="#0099e5"
       opacity="0.14901961"
       empspacing="4"
       dotted="false"
       gridanglex="30"
       gridanglez="30"
       visible="true" /></sodipodi:namedview><defs
     id="defs1" /><g
     inkscape:label="Layer 1"
     inkscape:groupmode="layer"
     id="layer1"><path
       style="fill:#000000;fill-opacity:0.555319;stroke:none;stroke-width:1.09545px;stroke-linecap:butt;stroke-linejoin:miter;stroke-opacity:1"
       d="m 0,425 c 0,0 100,-25 250,-25 150,0 350,50 350,150 0,125 -256.48426,225 -350,225 H 150 V 625 h 100 c 75,0 150,-25 150,-50 C 400,525 300,500 200,500 100,500 0,525 0,525 Z"
       id="path19625-4"
       sodipodi:nodetypes="csssccssscc" /><path
       style="fill:#000000;fill-opacity:0.555319;stroke:none;stroke-width:1.09545px;stroke-linecap:butt;stroke-linejoin:miter;stroke-opacity:1"
       d="m 0,975 c 0,0 100,25 250,25 150,0 349.24721,-50.00283 350,-150 C 600.89955,730.5076 343.51574,625 250,625 H 150 v 150 h 100 c 75,0 150,25 150,50 0,50 -100,75 -200,75 C 100,900 0,875 0,875 Z"
       id="path19625-2-7"
       sodipodi:nodetypes="csssccssscc" /><path
       id="path19625-7"
       style="fill:#000000;fill-opacity:0.555319;stroke:none;stroke-width:1.09545px;stroke-linecap:butt;stroke-linejoin:miter;stroke-opacity:1"
       d="m 250,400 c 149.99985,0 350,50.0001 350,150 0,58.31214 -55.82928,111.17106 -124.87891,150.98828 C 544.42793,741.38047 600.42037,794.15953 600,850 599.24721,949.99707 399.99985,1000 250,1000 100.00015,1000 0,975 0,975 V 875 c 0,0 100.0001,25 200,25 99.9999,0 200,-25.00005 200,-75 0,-24.99997 -75.00007,-50 -150,-50 H 150 V 625 h 100 c 74.99993,0 150,-25.00003 150,-50 C 400,525.00005 299.9999,500 200,500 100.0001,500 0,525 0,525 V 425 c 0,0 100.00015,-25 250,-25 z" /></g></svg>
