<?xml version="1.0" encoding="UTF-8" standalone="no"?>
<!-- Created with Inkscape (http://www.inkscape.org/) -->

<svg
   width="1200"
   height="1200"
   viewBox="0 0 1200 1200"
   version="1.1"
   id="svg1"
   inkscape:version="1.2.2 (732a01da63, 2022-12-09)"
   sodipodi:docname="1092_ef-small.svg"
   xml:space="preserve"
   xmlns:inkscape="http://www.inkscape.org/namespaces/inkscape"
   xmlns:sodipodi="http://sodipodi.sourceforge.net/DTD/sodipodi-0.dtd"
   xmlns="http://www.w3.org/2000/svg"
   xmlns:svg="http://www.w3.org/2000/svg"><sodipodi:namedview
     id="namedview1"
     pagecolor="#ffffff"
     bordercolor="#000000"
     borderopacity="0.25"
     inkscape:showpageshadow="2"
     inkscape:pageopacity="0.0"
     inkscape:pagecheckerboard="0"
     inkscape:deskcolor="#d1d1d1"
     inkscape:document-units="px"
     showgrid="true"
     inkscape:zoom="0.78606706"
     inkscape:cx="384.82722"
     inkscape:cy="653.25215"
     inkscape:window-width="1276"
     inkscape:window-height="1481"
     inkscape:window-x="1271"
     inkscape:window-y="0"
     inkscape:window-maximized="0"
     inkscape:current-layer="layer1-7"
     showguides="false"
     inkscape:lockguides="false"><inkscape:grid
       id="grid1"
       units="px"
       originx="0"
       originy="0"
       spacingx="25"
       spacingy="25"
       empcolor="#0099e5"
       empopacity="0.30196078"
       color="#0099e5"
       opacity="0.14901961"
       empspacing="4"
       dotted="false"
       gridanglex="30"
       gridanglez="30"
       visible="true" /></sodipodi:namedview><defs
     id="defs1" /><g
     inkscape:label="Layer 1"
     inkscape:groupmode="layer"
     id="layer1"><g
       inkscape:label="Layer 1"
       id="layer1-7"><path
         id="path24528-5"
         style="fill:#000000;fill-opacity:0.555319;stroke:none;stroke-width:0.935416px;stroke-linecap:butt;stroke-linejoin:miter;stroke-opacity:1"
         d="M 275,200 V 400 C 121.87464,400 -1.5765796,498.72584 -0.00236304,700 1.5618239,899.99181 121.87463,1000 275,1000 v 200 H 425 V 1000 C 578.12536,1000 701.57422,901.27416 700,700 698.43581,500.00819 578.12536,400 425,400 V 200 Z m 0,300 V 900 C 231.2499,900 174.99823,824.99987 174.99823,700 174.99823,600.0001 231.2499,500 275,500 Z m 150,0 c 43.75011,0 99.99941,75.00013 99.99941,200 0,99.9999 -56.2493,200 -99.99941,200 z"
         sodipodi:nodetypes="ccsccccscccccsccscc" /></g></g></svg>
