<?xml version="1.0" encoding="UTF-8" standalone="no"?>
<!-- Created with Inkscape (http://www.inkscape.org/) -->

<svg
   width="1200"
   height="1200"
   viewBox="0 0 1200 1200"
   version="1.1"
   id="svg1"
   inkscape:version="1.3 (0e150ed6c4, 2023-07-21)"
   sodipodi:docname="1101_e-small.svg"
   xml:space="preserve"
   xmlns:inkscape="http://www.inkscape.org/namespaces/inkscape"
   xmlns:sodipodi="http://sodipodi.sourceforge.net/DTD/sodipodi-0.dtd"
   xmlns="http://www.w3.org/2000/svg"
   xmlns:svg="http://www.w3.org/2000/svg"><sodipodi:namedview
     id="namedview1"
     pagecolor="#ffffff"
     bordercolor="#000000"
     borderopacity="0.25"
     inkscape:showpageshadow="2"
     inkscape:pageopacity="0.0"
     inkscape:pagecheckerboard="0"
     inkscape:deskcolor="#d1d1d1"
     inkscape:document-units="px"
     showgrid="true"
     inkscape:zoom="0.78606706"
     inkscape:cx="284.32689"
     inkscape:cy="653.25215"
     inkscape:window-width="2560"
     inkscape:window-height="1494"
     inkscape:window-x="-11"
     inkscape:window-y="-11"
     inkscape:window-maximized="1"
     inkscape:current-layer="layer1"
     showguides="false"><inkscape:grid
       id="grid1"
       units="px"
       originx="0"
       originy="0"
       spacingx="25"
       spacingy="25"
       empcolor="#0099e5"
       empopacity="0.30196078"
       color="#0099e5"
       opacity="0.14901961"
       empspacing="4"
       dotted="false"
       gridanglex="30"
       gridanglez="30"
       visible="true" /></sodipodi:namedview><defs
     id="defs1" /><g
     inkscape:label="Layer 1"
     inkscape:groupmode="layer"
     id="layer1"><rect
       style="opacity:0.453441;fill:#000000;fill-opacity:0.576596;fill-rule:evenodd;stroke-width:0.75"
       id="rect1"
       width="231.25"
       height="100"
       x="200"
       y="600" /><path
       id="path2-0"
       style="fill:#000000;fill-opacity:0.555319;fill-rule:evenodd;stroke-width:0.999873"
       d="M 0,600 C 0,525 100,400 300,400 500,400 600,525 600,625 V 775 C 600,875 500,1000 300,1000 100,1000 0,875 0,800 h 175 c 0,74.61408 84.73413,100 125,100 50,0 100,-50 100,-125 V 625 c 0,-75 -50,-125 -100,-125 -44.08234,0 -125,25 -125,100 z"
       sodipodi:nodetypes="czsszccscsscc" /><path
       id="rect1-3"
       style="opacity:0.453441;fill:#000000;fill-opacity:0.576596;fill-rule:evenodd;stroke-width:0.75"
       d="M 300 400 C 100.0002 400 0 525.00008 0 600 L 175 600 C 175 525.00008 255.9177 500 300 500 C 344.20282 500 388.34031 539.11787 397.99609 600 L 200 600 L 200 700 L 400 700 L 400 775 C 400 849.99992 349.99995 900 300 900 C 259.73417 900 175 874.61401 175 800 L 0 800 C 0 874.99992 100.0002 1000 300 1000 C 499.9998 1000 600 874.9999 600 775 L 600 625 C 600 525.0001 499.9998 400 300 400 z " /></g></svg>
