<?xml version="1.0" encoding="UTF-8" standalone="no"?>
<!-- Created with Inkscape (http://www.inkscape.org/) -->

<svg
   width="1200"
   height="1200"
   viewBox="0 0 1200 1200"
   version="1.1"
   id="svg1"
   inkscape:version="1.3 (0e150ed6c4, 2023-07-21)"
   sodipodi:docname="1102_yu-small.svg"
   xml:space="preserve"
   xmlns:inkscape="http://www.inkscape.org/namespaces/inkscape"
   xmlns:sodipodi="http://sodipodi.sourceforge.net/DTD/sodipodi-0.dtd"
   xmlns="http://www.w3.org/2000/svg"
   xmlns:svg="http://www.w3.org/2000/svg"><sodipodi:namedview
     id="namedview1"
     pagecolor="#ffffff"
     bordercolor="#000000"
     borderopacity="0.25"
     inkscape:showpageshadow="2"
     inkscape:pageopacity="0.0"
     inkscape:pagecheckerboard="0"
     inkscape:deskcolor="#d1d1d1"
     inkscape:document-units="px"
     showgrid="true"
     inkscape:zoom="0.78606706"
     inkscape:cx="610.63492"
     inkscape:cy="533.0334"
     inkscape:window-width="1276"
     inkscape:window-height="1481"
     inkscape:window-x="1262"
     inkscape:window-y="0"
     inkscape:window-maximized="0"
     inkscape:current-layer="layer1"
     showguides="false"><inkscape:grid
       id="grid1"
       units="px"
       originx="0"
       originy="0"
       spacingx="25"
       spacingy="25"
       empcolor="#0099e5"
       empopacity="0.30196078"
       color="#0099e5"
       opacity="0.14901961"
       empspacing="4"
       dotted="false"
       gridanglex="30"
       gridanglez="30"
       visible="true" /></sodipodi:namedview><defs
     id="defs1" /><g
     inkscape:label="Layer 1"
     inkscape:groupmode="layer"
     id="layer1"><path
       id="rect1"
       style="opacity:0.453441;fill:#000000;fill-opacity:0.576596;fill-rule:evenodd;stroke-width:0.670042"
       d="m 0,400 v 600 H 175 V 775 H 298.04687 V 625 H 175 V 400 Z"
       sodipodi:nodetypes="ccccccccc" /><path
       id="path2"
       style="fill:#000000;fill-opacity:0.555319;fill-rule:evenodd;stroke-width:0.935296"
       d="M 700,625 C 700,525 628.12483,399.90772 475,400 321.87518,400.09228 275,525.0001 275,625 v 150 c 0,99.9999 46.87517,225 200,225 153.125,0 225,-125 225,-225 z m -275,0 c 0,-74.99992 28.125,-125 50,-125 21.875,0 50,50.00008 50,125 v 150 c 0,74.61401 -28.125,125 -50,125 -21.875,0 -50,-50.00008 -50,-125 z"
       sodipodi:nodetypes="csssscccsccscc" /><path
       id="rect1-8"
       style="opacity:0.453441;fill:#000000;fill-opacity:0.576596;fill-rule:evenodd;stroke-width:0.670042"
       d="M 0 400 L 0 1000 L 175 1000 L 175 775 L 275 775 C 275 874.9998 321.87532 1000 475 1000 C 628.12485 1000 700 874.9999 700 775 L 700 625 C 700 525.0001 628.12468 399.90772 475 400 C 321.87533 400.09228 275 525.0002 275 625 L 175 625 L 175 400 L 0 400 z M 475 500 C 496.87498 500 525 550.00015 525 625 L 525 775 C 525 849.61394 496.87498 900 475 900 C 453.12502 900 425 849.99985 425 775 L 425 625 C 425 550.00015 453.12502 500 475 500 z " /></g></svg>
