<?xml version="1.0" encoding="UTF-8" standalone="no"?>
<!-- Created with Inkscape (http://www.inkscape.org/) -->

<svg
   width="1200"
   height="1200"
   viewBox="0 0 1200 1200"
   version="1.1"
   id="svg1"
   inkscape:version="1.3 (0e150ed6c4, 2023-07-21)"
   sodipodi:docname="1108_ukr-ie-small.svg"
   xml:space="preserve"
   xmlns:inkscape="http://www.inkscape.org/namespaces/inkscape"
   xmlns:sodipodi="http://sodipodi.sourceforge.net/DTD/sodipodi-0.dtd"
   xmlns="http://www.w3.org/2000/svg"
   xmlns:svg="http://www.w3.org/2000/svg"><sodipodi:namedview
     id="namedview1"
     pagecolor="#ffffff"
     bordercolor="#000000"
     borderopacity="0.25"
     inkscape:showpageshadow="2"
     inkscape:pageopacity="0.0"
     inkscape:pagecheckerboard="0"
     inkscape:deskcolor="#d1d1d1"
     inkscape:document-units="px"
     showgrid="true"
     inkscape:zoom="0.78606706"
     inkscape:cx="164.10814"
     inkscape:cy="652.61608"
     inkscape:window-width="1276"
     inkscape:window-height="1481"
     inkscape:window-x="-9"
     inkscape:window-y="0"
     inkscape:window-maximized="0"
     inkscape:current-layer="layer1"
     showguides="false"><inkscape:grid
       id="grid1"
       units="px"
       originx="0"
       originy="0"
       spacingx="25"
       spacingy="25"
       empcolor="#0099e5"
       empopacity="0.30196078"
       color="#0099e5"
       opacity="0.14901961"
       empspacing="4"
       dotted="false"
       gridanglex="30"
       gridanglez="30"
       visible="true" /></sodipodi:namedview><defs
     id="defs1" /><g
     inkscape:label="Layer 1"
     inkscape:groupmode="layer"
     id="layer1"><rect
       style="opacity:0.453441;fill:#000000;fill-opacity:0.576596;fill-rule:evenodd;stroke-width:0.75"
       id="rect1-6"
       width="231.25"
       height="100"
       x="-400"
       y="600"
       transform="scale(-1,1)" /><path
       id="path2-0"
       style="fill:#000000;fill-opacity:0.555319;fill-rule:evenodd;stroke-width:0.999873"
       d="M 600,600 C 600,525 500,400 300,400 100,400 0,525 0,625 v 150 c 0,100 100,225 300,225 200,0 300,-125 300,-200 H 425 c 0,74.61408 -84.73413,100 -125,100 -50,0 -100,-50 -100,-125 V 625 c 0,-75 50,-125 100,-125 44.08234,0 125,25 125,100 z"
       sodipodi:nodetypes="czsszccscsscc" /><path
       id="rect1-3"
       style="opacity:0.453441;fill:#000000;fill-opacity:0.576596;fill-rule:evenodd;stroke-width:0.75"
       d="m 300,400 c 199.9998,0 300,125.00008 300,200 H 425 c 0,-74.99992 -80.9177,-100 -125,-100 -44.20282,0 -88.34031,39.11787 -97.99609,100 H 400 V 700 H 200 v 75 c 0,74.99992 50.00005,125 100,125 40.26583,0 125,-25.38599 125,-100 h 175 c 0,74.99992 -100.0002,200 -300,200 C 100.0002,1000 0,874.9999 0,775 V 625 C 0,525.0001 100.0002,400 300,400 Z" /></g></svg>
