<?xml version="1.0" encoding="UTF-8" standalone="no"?>
<!-- Created with Inkscape (http://www.inkscape.org/) -->

<svg
   width="800"
   height="800"
   viewBox="0 0 800 800"
   version="1.1"
   id="svg1"
   inkscape:version="1.2.1 (9c6d41e410, 2022-07-14)"
   sodipodi:docname="42927_Q-smallcaps.svg"
   xml:space="preserve"
   xmlns:inkscape="http://www.inkscape.org/namespaces/inkscape"
   xmlns:sodipodi="http://sodipodi.sourceforge.net/DTD/sodipodi-0.dtd"
   xmlns="http://www.w3.org/2000/svg"
   xmlns:svg="http://www.w3.org/2000/svg"><sodipodi:namedview
     id="namedview1"
     pagecolor="#ffffff"
     bordercolor="#000000"
     borderopacity="0.25"
     inkscape:showpageshadow="2"
     inkscape:pageopacity="0.0"
     inkscape:pagecheckerboard="0"
     inkscape:deskcolor="#d1d1d1"
     inkscape:document-units="px"
     showgrid="true"
     inkscape:zoom="1.1334165"
     inkscape:cx="126.60836"
     inkscape:cy="407.61715"
     inkscape:window-width="2560"
     inkscape:window-height="1377"
     inkscape:window-x="1072"
     inkscape:window-y="-8"
     inkscape:window-maximized="1"
     inkscape:current-layer="layer1"
     showguides="false"><inkscape:grid
       id="grid1"
       units="px"
       originx="0"
       originy="0"
       spacingx="25"
       spacingy="25"
       empcolor="#0099e5"
       empopacity="0.30196078"
       color="#0099e5"
       opacity="0.14901961"
       empspacing="4"
       dotted="false"
       gridanglex="30"
       gridanglez="30"
       visible="true" /></sodipodi:namedview><defs
     id="defs1" /><g
     inkscape:label="Layer 1"
     inkscape:groupmode="layer"
     id="layer1"><g
       inkscape:label="Layer 1"
       id="layer1-6"><path
         id="path352-3"
         style="fill:#000000;fill-opacity:0.555319;fill-rule:evenodd;stroke:none;stroke-width:3px;stroke-linecap:butt;stroke-linejoin:miter;stroke-opacity:1"
         d="m 0,350 c 0,-75 75,-150 150,-150 75,0 150,75 150,150 V 450 C 300,525 225,600 150,600 75,600 0,525 0,450 Z m 100,0 c 0,-25 25,-50 50,-50 25,0 50,25 50,50 v 100 c 0,25 -25,50 -50,50 -25,0 -50,-25 -50,-50 z"
         sodipodi:nodetypes="ssssssssssssss" /><rect
         style="fill:#000000;fill-opacity:0.555319;fill-rule:evenodd;stroke-width:94.8683;stroke-linecap:round;stroke-linejoin:round;stroke-miterlimit:4.5;stop-color:#000000"
         id="rect30972"
         width="225"
         height="100"
         x="150"
         y="500" /><path
         id="path352-3-4"
         style="fill:#000000;fill-opacity:0.555319;fill-rule:evenodd;stroke:none;stroke-width:3px;stroke-linecap:butt;stroke-linejoin:miter;stroke-opacity:1"
         d="M 150,200 C 75.000075,200 0,275.00007 0,350 v 100 c 0,74.99992 75.000075,150 150,150 H 375 V 500 H 289.33203 C 296.13427,483.90833 300,466.95875 300,450 V 350 C 300,275.00007 224.99993,200 150,200 Z m 0,100 c 24.99998,0 50,25.00002 50,50 v 100 c 0,24.99998 -25.00002,50 -50,50 -24.99998,0 -50,-25.00002 -50,-50 V 350 c 0,-24.99998 25.00002,-50 50,-50 z"
         sodipodi:nodetypes="sssscccssssssssss" /></g></g></svg>
