<?xml version="1.0" encoding="UTF-8" standalone="no"?>
<!-- Created with Inkscape (http://www.inkscape.org/) -->

<svg
   width="800"
   height="800"
   viewBox="0 0 800 800"
   version="1.1"
   id="svg1"
   inkscape:version="1.2.1 (9c6d41e410, 2022-07-14)"
   sodipodi:docname="1040.smallcaps_a-capital.svg"
   xml:space="preserve"
   xmlns:inkscape="http://www.inkscape.org/namespaces/inkscape"
   xmlns:sodipodi="http://sodipodi.sourceforge.net/DTD/sodipodi-0.dtd"
   xmlns="http://www.w3.org/2000/svg"
   xmlns:svg="http://www.w3.org/2000/svg"><sodipodi:namedview
     id="namedview1"
     pagecolor="#ffffff"
     bordercolor="#000000"
     borderopacity="0.25"
     inkscape:showpageshadow="2"
     inkscape:pageopacity="0.0"
     inkscape:pagecheckerboard="0"
     inkscape:deskcolor="#d1d1d1"
     inkscape:document-units="px"
     showgrid="true"
     inkscape:zoom="1.602893"
     inkscape:cx="26.202622"
     inkscape:cy="375.88286"
     inkscape:window-width="1350"
     inkscape:window-height="1230"
     inkscape:window-x="2046"
     inkscape:window-y="107"
     inkscape:window-maximized="0"
     inkscape:current-layer="layer1-0"
     showguides="false"><inkscape:grid
       id="grid1"
       units="px"
       originx="0"
       originy="0"
       spacingx="25"
       spacingy="25"
       empcolor="#0099e5"
       empopacity="0.30196078"
       color="#0099e5"
       opacity="0.14901961"
       empspacing="4"
       dotted="false"
       gridanglex="30"
       gridanglez="30"
       visible="true" /></sodipodi:namedview><defs
     id="defs1" /><g
     inkscape:label="Layer 1"
     inkscape:groupmode="layer"
     id="layer1"><g
       inkscape:label="Layer 1"
       id="layer1-0"
       transform="translate(-350,25)"><path
         style="fill:#000000;fill-opacity:0.555319;stroke:none;stroke-width:1px;stroke-linecap:butt;stroke-linejoin:miter;stroke-opacity:1"
         d="M 650,475 C 650,350 550,175 550,175 H 450 c 0,0 -100,175 -100,300 V 575 H 450 V 475 c 0,-45.05586 19.96163,-171.92576 50,-200 25,25 50,150 50,200 v 100 h 100 z"
         id="path34741"
         sodipodi:nodetypes="sccsccscsccs" /><rect
         style="opacity:0.489888;fill:#000000;fill-opacity:0.56;fill-rule:evenodd;stroke-width:100;stroke-linecap:round;stroke-linejoin:round;stroke-miterlimit:4.5;stop-color:#000000"
         id="rect41026"
         width="100"
         height="100"
         x="450"
         y="375" /><path
         id="path34741-2"
         style="fill:#000000;fill-opacity:0.555319;stroke:none;stroke-width:1px;stroke-linecap:butt;stroke-linejoin:miter;stroke-opacity:1"
         d="M 450 175 C 450 175 350 350.00013 350 475 L 350 575 L 450 575 L 450 475 L 550 475 L 550 575 L 650 575 L 650 475 C 650 350.00013 550 175 550 175 L 450 175 z M 500 275 C 513.45505 288.45505 526.87401 330.89451 536.43164 375 L 462.45117 375 C 471.23672 331.85893 484.20343 289.76367 500 275 z " /></g></g></svg>
