<?xml version="1.0" encoding="UTF-8" standalone="no"?>
<!-- Created with Inkscape (http://www.inkscape.org/) -->

<svg
   width="800"
   height="800"
   viewBox="0 0 800 800"
   version="1.1"
   id="svg1"
   inkscape:version="1.2.1 (9c6d41e410, 2022-07-14)"
   sodipodi:docname="1042.smallcaps_ve-capital.svg"
   xml:space="preserve"
   xmlns:inkscape="http://www.inkscape.org/namespaces/inkscape"
   xmlns:sodipodi="http://sodipodi.sourceforge.net/DTD/sodipodi-0.dtd"
   xmlns="http://www.w3.org/2000/svg"
   xmlns:svg="http://www.w3.org/2000/svg"><sodipodi:namedview
     id="namedview1"
     pagecolor="#ffffff"
     bordercolor="#000000"
     borderopacity="0.25"
     inkscape:showpageshadow="2"
     inkscape:pageopacity="0.0"
     inkscape:pagecheckerboard="0"
     inkscape:deskcolor="#d1d1d1"
     inkscape:document-units="px"
     showgrid="true"
     inkscape:zoom="1.1334165"
     inkscape:cx="-319.82947"
     inkscape:cy="408.49944"
     inkscape:window-width="2560"
     inkscape:window-height="1377"
     inkscape:window-x="1072"
     inkscape:window-y="-8"
     inkscape:window-maximized="1"
     inkscape:current-layer="layer1"
     showguides="false"><inkscape:grid
       id="grid1"
       units="px"
       originx="0"
       originy="0"
       spacingx="25"
       spacingy="25"
       empcolor="#0099e5"
       empopacity="0.30196078"
       color="#0099e5"
       opacity="0.14901961"
       empspacing="4"
       dotted="false"
       gridanglex="30"
       gridanglez="30"
       visible="true" /></sodipodi:namedview><defs
     id="defs1" /><g
     inkscape:label="Layer 1"
     inkscape:groupmode="layer"
     id="layer1"><g
       inkscape:label="Layer 1"
       id="layer1-1-6"
       transform="translate(0,100)"><g
         inkscape:label="Layer 1"
         id="layer1-19-8"
         transform="translate(0,-100)"><path
           id="path352-3"
           style="fill:#000000;fill-opacity:0.555319;fill-rule:evenodd;stroke:none;stroke-width:3px;stroke-linecap:butt;stroke-linejoin:miter;stroke-opacity:1"
           d="m 0,350 v 75 h 150 c 24.99998,0 50,12.50002 50,37.5 0,24.99998 -25.00002,37.5 -50,37.5 H 0 V 600 H 150 C 224.99993,600 300,537.49992 300,462.5 300,387.50007 224.99993,350 150,350 Z"
           sodipodi:nodetypes="ccsssccsssc" /><path
           id="path352-3-1"
           style="fill:#000000;fill-opacity:0.555319;fill-rule:evenodd;stroke:none;stroke-width:3px;stroke-linecap:butt;stroke-linejoin:miter;stroke-opacity:1"
           d="m 0,200 v 75 h 125 c 24.99998,0 50,12.5 50,37.5 0,25 -25.00002,37.5 -50,37.5 H 0 v 75 H 125 C 199.99993,425 275,387.49992 275,312.5 275,237.50007 199.99993,200 125,200 Z"
           sodipodi:nodetypes="ccsssccsssc" /><rect
           style="fill:#000000;fill-opacity:0.555319;fill-rule:evenodd;stroke:none;stroke-width:100;stroke-linecap:round;stroke-linejoin:round;stroke-miterlimit:4.5;stop-color:#000000"
           id="rect11692"
           width="100"
           height="400"
           x="0"
           y="200" /><path
           id="path352-3-9-5"
           style="fill:#000000;fill-opacity:0.555319;fill-rule:evenodd;stroke:none;stroke-width:3px;stroke-linecap:butt;stroke-linejoin:miter;stroke-opacity:1"
           d="m 0,200 v 75 75 75 75 100 h 100 50 c 74.99986,0 150,-62.50015 150,-137.5 0,-38.35742 -19.64211,-66.88091 -48.84375,-85.62109 C 266.00927,359.90694 275,338.45215 275,312.5 275,237.50014 199.99986,200 125,200 h -25 z m 100,75 h 25 c 24.99996,0 50,12.50002 50,37.5 0,24.99998 -25.00004,37.5 -50,37.5 h -25 z m 0,150 h 25 25 c 24.99996,0 50,12.50004 50,37.5 0,24.99996 -25.00004,37.5 -50,37.5 h -50 z" /></g><g
         inkscape:label="Layer 1"
         id="layer1-19-7-1"
         transform="translate(0,-100)" /></g></g></svg>
