<?xml version="1.0" encoding="UTF-8" standalone="no"?>
<!-- Created with Inkscape (http://www.inkscape.org/) -->

<svg
   width="800"
   height="800"
   viewBox="0 0 800 800"
   version="1.1"
   id="svg1"
   inkscape:version="1.2.1 (9c6d41e410, 2022-07-14)"
   sodipodi:docname="1047.smallcaps_ze-capital.svg"
   xml:space="preserve"
   xmlns:inkscape="http://www.inkscape.org/namespaces/inkscape"
   xmlns:sodipodi="http://sodipodi.sourceforge.net/DTD/sodipodi-0.dtd"
   xmlns="http://www.w3.org/2000/svg"
   xmlns:svg="http://www.w3.org/2000/svg"><sodipodi:namedview
     id="namedview1"
     pagecolor="#ffffff"
     bordercolor="#000000"
     borderopacity="0.25"
     inkscape:showpageshadow="2"
     inkscape:pageopacity="0.0"
     inkscape:pagecheckerboard="0"
     inkscape:deskcolor="#d1d1d1"
     inkscape:document-units="px"
     showgrid="true"
     inkscape:zoom="1.602893"
     inkscape:cx="-146.92185"
     inkscape:cy="276.99915"
     inkscape:window-width="2560"
     inkscape:window-height="1377"
     inkscape:window-x="1072"
     inkscape:window-y="-8"
     inkscape:window-maximized="1"
     inkscape:current-layer="layer1"
     showguides="false"><inkscape:grid
       id="grid1"
       units="px"
       originx="0"
       originy="0"
       spacingx="25"
       spacingy="25"
       empcolor="#0099e5"
       empopacity="0.30196078"
       color="#0099e5"
       opacity="0.14901961"
       empspacing="4"
       dotted="false"
       gridanglex="30"
       gridanglez="30"
       visible="true" /></sodipodi:namedview><defs
     id="defs1" /><g
     inkscape:label="Layer 1"
     inkscape:groupmode="layer"
     id="layer1"><path
       id="path352-3-2-9"
       style="fill:#000000;fill-opacity:0.555319;fill-rule:evenodd;stroke:none;stroke-width:3px;stroke-linecap:butt;stroke-linejoin:miter;stroke-opacity:1"
       d="m 25,350 v 75 h 125 c 24.99992,0 50,12.50008 50,37.5 0,24.99992 -25.00008,37.5 -50,37.5 H 0 V 600 H 125 C 199.99992,600 300,537.49971 300,462.5 300,387.50029 199.99992,350 125,350 Z"
       sodipodi:nodetypes="ccsssccsssc" /><path
       id="path352-3-2-9-1"
       style="fill:#000000;fill-opacity:0.555319;fill-rule:evenodd;stroke:none;stroke-width:3px;stroke-linecap:butt;stroke-linejoin:miter;stroke-opacity:1"
       d="m 0,200 v 75 h 150 c 24.99992,0 50,12.50008 50,37.5 0,24.99992 -25.00008,37.5 -50,37.5 H 25 v 75 H 125 C 199.99992,425 300,387.49971 300,312.5 300,237.50029 199.99992,200 125,200 Z"
       sodipodi:nodetypes="ccsssccsssc" /><path
       id="path352-3-2-9-8"
       style="fill:#000000;fill-opacity:0.555319;fill-rule:evenodd;stroke:none;stroke-width:3px;stroke-linecap:butt;stroke-linejoin:miter;stroke-opacity:1"
       d="M 0 200 L 0 275 L 150 275 C 174.9999 275 200 287.5001 200 312.5 C 200 337.4999 174.9999 350 150 350 L 125 350 L 25 350 L 25 425 L 125 425 L 150 425 C 174.9999 425 200 437.5001 200 462.5 C 200 487.4999 174.9999 500 150 500 L 0 500 L 0 600 L 125 600 C 199.99985 600 300 537.49964 300 462.5 C 300 430.78568 282.08402 405.8037 255.77344 387.5 C 282.08402 369.1963 300 344.21432 300 312.5 C 300 237.50036 199.99985 200 125 200 L 0 200 z " /></g></svg>
