<?xml version="1.0" encoding="UTF-8" standalone="no"?>
<!-- Created with Inkscape (http://www.inkscape.org/) -->

<svg
   width="800"
   height="800"
   viewBox="0 0 800 800"
   version="1.1"
   id="svg1"
   inkscape:version="1.2.1 (9c6d41e410, 2022-07-14)"
   sodipodi:docname="1066.smallcaps_capital-hard-sign.svg"
   xml:space="preserve"
   xmlns:inkscape="http://www.inkscape.org/namespaces/inkscape"
   xmlns:sodipodi="http://sodipodi.sourceforge.net/DTD/sodipodi-0.dtd"
   xmlns="http://www.w3.org/2000/svg"
   xmlns:svg="http://www.w3.org/2000/svg"><sodipodi:namedview
     id="namedview1"
     pagecolor="#ffffff"
     bordercolor="#000000"
     borderopacity="0.25"
     inkscape:showpageshadow="2"
     inkscape:pageopacity="0.0"
     inkscape:pagecheckerboard="0"
     inkscape:deskcolor="#d1d1d1"
     inkscape:document-units="px"
     showgrid="true"
     inkscape:zoom="2.0509214"
     inkscape:cx="29.986522"
     inkscape:cy="355.44999"
     inkscape:window-width="2560"
     inkscape:window-height="1377"
     inkscape:window-x="1072"
     inkscape:window-y="-8"
     inkscape:window-maximized="1"
     inkscape:current-layer="layer1"
     showguides="false"><inkscape:grid
       id="grid1"
       units="px"
       originx="0"
       originy="0"
       spacingx="12.5"
       spacingy="12.5"
       empcolor="#0099e5"
       empopacity="0.30196078"
       color="#0099e5"
       opacity="0.14901961"
       empspacing="4"
       dotted="false"
       gridanglex="30"
       gridanglez="30"
       visible="true" /></sodipodi:namedview><defs
     id="defs1" /><g
     inkscape:label="Layer 1"
     inkscape:groupmode="layer"
     id="layer1"><path
       id="path352-3"
       style="fill:#000000;fill-opacity:0.555319;fill-rule:evenodd;stroke:none;stroke-width:3px;stroke-linecap:butt;stroke-linejoin:miter;stroke-opacity:1"
       d="m 100,350 v 75 h 150 c 24.99998,0 50,12.50002 50,37.5 0,24.99998 -25.00002,37.5 -50,37.5 H 100 V 600 H 250 C 324.99993,600 400,537.49992 400,462.5 400,387.50007 299.99993,350 225,350 Z"
       sodipodi:nodetypes="ccsssccsssc" /><rect
       style="fill:#000000;fill-opacity:0.555319;fill-rule:evenodd;stroke:none;stroke-width:89.4427;stroke-linecap:round;stroke-linejoin:round;stroke-miterlimit:4.5;stop-color:#000000"
       id="rect11692"
       width="100"
       height="400"
       x="100"
       y="200" /><rect
       style="opacity:0.51626;fill:#808080;fill-opacity:0.472684;fill-rule:evenodd;stroke-width:86.6025;stroke-linecap:round;stroke-linejoin:round;stroke-miterlimit:4.5;stroke-opacity:0.56;stop-color:#000000"
       id="rect14224"
       width="200"
       height="75"
       x="0"
       y="200" /><path
       id="path352-3-6"
       style="fill:#000000;fill-opacity:0.555319;fill-rule:evenodd;stroke:none;stroke-width:3px;stroke-linecap:butt;stroke-linejoin:miter;stroke-opacity:1"
       d="M 0 200 L 0 275 L 100 275 L 100 350 L 100 425 L 100 500 L 100 600 L 200 600 L 250 600 C 324.99986 600 400 537.49985 400 462.5 C 400 387.50014 299.99986 350 225 350 L 200 350 L 200 200 L 0 200 z M 200 425 L 250 425 C 274.99996 425 300 437.50004 300 462.5 C 300 487.49996 274.99996 500 250 500 L 200 500 L 200 425 z " /></g></svg>
