<?xml version="1.0" encoding="UTF-8" standalone="no"?>
<!-- Created with Inkscape (http://www.inkscape.org/) -->

<svg
   width="800"
   height="800"
   viewBox="0 0 800 800"
   version="1.1"
   id="svg1"
   inkscape:version="1.2.1 (9c6d41e410, 2022-07-14)"
   sodipodi:docname="1067.smallcaps_yeru_capital.svg"
   xml:space="preserve"
   xmlns:inkscape="http://www.inkscape.org/namespaces/inkscape"
   xmlns:sodipodi="http://sodipodi.sourceforge.net/DTD/sodipodi-0.dtd"
   xmlns="http://www.w3.org/2000/svg"
   xmlns:svg="http://www.w3.org/2000/svg"><sodipodi:namedview
     id="namedview1"
     pagecolor="#ffffff"
     bordercolor="#000000"
     borderopacity="0.25"
     inkscape:showpageshadow="2"
     inkscape:pageopacity="0.0"
     inkscape:pagecheckerboard="0"
     inkscape:deskcolor="#d1d1d1"
     inkscape:document-units="px"
     showgrid="true"
     inkscape:zoom="1.1334165"
     inkscape:cx="189.69196"
     inkscape:cy="405.41143"
     inkscape:window-width="1350"
     inkscape:window-height="1230"
     inkscape:window-x="1731"
     inkscape:window-y="89"
     inkscape:window-maximized="0"
     inkscape:current-layer="layer1"
     showguides="false"><inkscape:grid
       id="grid1"
       units="px"
       originx="0"
       originy="0"
       spacingx="25"
       spacingy="25"
       empcolor="#0099e5"
       empopacity="0.30196078"
       color="#0099e5"
       opacity="0.14901961"
       empspacing="4"
       dotted="false"
       gridanglex="30"
       gridanglez="30"
       visible="true" /></sodipodi:namedview><defs
     id="defs1" /><g
     inkscape:label="Layer 1"
     inkscape:groupmode="layer"
     id="layer1"><rect
       style="opacity:0.51626;fill:#808080;fill-opacity:0.472684;fill-rule:evenodd;stroke-width:89.4427;stroke-linecap:round;stroke-linejoin:round;stroke-miterlimit:4.5;stroke-opacity:0.56;stop-color:#000000"
       id="rect14393"
       width="100"
       height="400"
       x="400"
       y="200" /><path
       id="path352-3-3"
       style="fill:#000000;fill-opacity:0.555319;fill-rule:evenodd;stroke:none;stroke-width:3px;stroke-linecap:butt;stroke-linejoin:miter;stroke-opacity:1"
       d="m 0,350 v 75 h 150 c 24.99998,0 50,12.50002 50,37.5 0,24.99998 -25.00002,37.5 -50,37.5 H 0 V 600 H 150 C 224.99993,600 300,537.49992 300,462.5 300,387.50007 199.99993,350 125,350 Z"
       sodipodi:nodetypes="ccsssccsssc" /><rect
       style="fill:#000000;fill-opacity:0.555319;fill-rule:evenodd;stroke:none;stroke-width:89.4427;stroke-linecap:round;stroke-linejoin:round;stroke-miterlimit:4.5;stop-color:#000000"
       id="rect11692-0"
       width="100"
       height="400"
       x="0"
       y="200" /><path
       id="path352-3-3-0"
       style="fill:#000000;fill-opacity:0.555319;fill-rule:evenodd;stroke:none;stroke-width:3px;stroke-linecap:butt;stroke-linejoin:miter;stroke-opacity:1"
       d="M 0 200 L 0 350 L 0 425 L 0 500 L 0 600 L 100 600 L 150 600 C 224.99986 600 300 537.49985 300 462.5 C 300 387.50014 199.99986 350 125 350 L 100 350 L 100 200 L 0 200 z M 100 425 L 150 425 C 174.99996 425 200 437.50004 200 462.5 C 200 487.49996 174.99996 500 150 500 L 100 500 L 100 425 z " /></g></svg>
