<?xml version="1.0" encoding="UTF-8" standalone="no"?>
<!-- Created with Inkscape (http://www.inkscape.org/) -->

<svg
   width="800"
   height="800"
   viewBox="0 0 800 800"
   version="1.1"
   id="svg1"
   inkscape:version="1.2.1 (9c6d41e410, 2022-07-14)"
   sodipodi:docname="ascii_38_ampersand.svg"
   xml:space="preserve"
   xmlns:inkscape="http://www.inkscape.org/namespaces/inkscape"
   xmlns:sodipodi="http://sodipodi.sourceforge.net/DTD/sodipodi-0.dtd"
   xmlns="http://www.w3.org/2000/svg"
   xmlns:svg="http://www.w3.org/2000/svg"><sodipodi:namedview
     id="namedview1"
     pagecolor="#ffffff"
     bordercolor="#000000"
     borderopacity="0.25"
     inkscape:showpageshadow="2"
     inkscape:pageopacity="0.0"
     inkscape:pagecheckerboard="0"
     inkscape:deskcolor="#d1d1d1"
     inkscape:document-units="px"
     showgrid="true"
     inkscape:zoom="0.78606706"
     inkscape:cx="274.14964"
     inkscape:cy="393.73231"
     inkscape:window-width="1080"
     inkscape:window-height="1230"
     inkscape:window-x="3667"
     inkscape:window-y="172"
     inkscape:window-maximized="0"
     inkscape:current-layer="layer1"
     showguides="false"><inkscape:grid
       id="grid1"
       units="px"
       originx="0"
       originy="0"
       spacingx="25"
       spacingy="25"
       empcolor="#0099e5"
       empopacity="0.30196078"
       color="#0099e5"
       opacity="0.14901961"
       empspacing="4"
       dotted="false"
       gridanglex="30"
       gridanglez="30"
       visible="true" /></sodipodi:namedview><defs
     id="defs1" /><g
     inkscape:label="Layer 1"
     inkscape:groupmode="layer"
     id="layer1"><path
       id="path352-3-2-9"
       style="fill:#000000;fill-opacity:0.555319;fill-rule:evenodd;stroke:none;stroke-width:3px;stroke-linecap:butt;stroke-linejoin:miter;stroke-opacity:1"
       d="M 150,300 C 150,300 0,375 0,450 0,525 95.354717,600 150,600 204.64528,600 300,520.54727 300,447.77364 300,375 150,300 150,300 Z m 0,100 c 24.99994,0 50,25 50,50 0,25 -25.00006,50 -50,50 -24.99994,0 -50,-25 -50,-50 0,-25 25.00006,-50 50,-50 z"
       sodipodi:nodetypes="czzzczzzzz" /><path
       id="path352-3-2-9-3"
       style="fill:#000000;fill-opacity:0.555319;fill-rule:evenodd;stroke:none;stroke-width:3px;stroke-linecap:butt;stroke-linejoin:miter;stroke-opacity:1"
       d="M 400,525 150,300 200,450 325,600 h 75 z"
       sodipodi:nodetypes="cccccc" /><path
       id="path352-3-2-9-3-1"
       style="fill:#000000;fill-opacity:0.555319;fill-rule:evenodd;stroke:none;stroke-width:3px;stroke-linecap:butt;stroke-linejoin:miter;stroke-opacity:1"
       d="m 350,475 -200,125 50,-150 75,-50 h 75 z"
       sodipodi:nodetypes="cccccc" /><path
       id="path352-3-2-9-2"
       style="fill:#000000;fill-opacity:0.555319;fill-rule:evenodd;stroke:none;stroke-width:3px;stroke-linecap:butt;stroke-linejoin:miter;stroke-opacity:1"
       d="M 150,100 C 100,100 0,175 0,250 0,325 150,400 150,400 150,400 300,320.54727 300,247.77364 300,175 200,100 150,100 Z m 0,100 c 24.99994,0 50,25 50,50 0,25 -25.00006,50 -50,50 -24.99994,0 -50,-25 -50,-50 0,-25 25.00006,-50 50,-50 z"
       sodipodi:nodetypes="zzczzzzzzz" /><path
       id="path352-3-2-9-8"
       style="fill:#000000;fill-opacity:0.555319;fill-rule:evenodd;stroke:none;stroke-width:3px;stroke-linecap:butt;stroke-linejoin:miter;stroke-opacity:1"
       d="M 150 100 C 100.00005 100 0 175.00007 0 250 C 0 286.16468 34.8968 322.24409 71.015625 350 C 34.8968 377.75591 0 413.83532 0 450 C 0 524.99992 95.354772 600 150 600 C 183.813 600 233.19246 569.56657 265.94336 529.13086 L 325 600 L 400 600 L 400 525 L 346.7207 477.04883 L 350 475 L 350 400 L 281.2168 400 C 267.47664 381.39258 247.82508 363.89918 227.89648 348.84375 C 264.40114 320.18184 300 283.21821 300 247.77344 C 300 174.99987 199.99995 100 150 100 z M 150 200 C 174.99992 200 200 225.00002 200 250 C 200 274.99998 174.99992 300 150 300 C 125.00008 300 100 274.99998 100 250 C 100 225.00002 125.00008 200 150 200 z M 150 400 C 165.97943 400 181.92589 410.23178 191.37695 424.13086 L 200 450 L 191.37695 475.86914 C 181.92589 489.76822 165.97943 500 150 500 C 125.00008 500 100 474.99998 100 450 C 100 425.00002 125.00008 400 150 400 z " /></g></svg>
