<?xml version="1.0" encoding="UTF-8" standalone="no"?>
<!-- Created with Inkscape (http://www.inkscape.org/) -->

<svg
   width="800"
   height="800"
   viewBox="0 0 800 800"
   version="1.1"
   id="svg1"
   inkscape:version="1.2.2 (732a01da63, 2022-12-09)"
   sodipodi:docname="ascii_82_R.svg"
   xml:space="preserve"
   xmlns:inkscape="http://www.inkscape.org/namespaces/inkscape"
   xmlns:sodipodi="http://sodipodi.sourceforge.net/DTD/sodipodi-0.dtd"
   xmlns="http://www.w3.org/2000/svg"
   xmlns:svg="http://www.w3.org/2000/svg"><sodipodi:namedview
     id="namedview1"
     pagecolor="#ffffff"
     bordercolor="#000000"
     borderopacity="0.25"
     inkscape:showpageshadow="2"
     inkscape:pageopacity="0.0"
     inkscape:pagecheckerboard="0"
     inkscape:deskcolor="#d1d1d1"
     inkscape:document-units="px"
     showgrid="true"
     inkscape:zoom="1.602893"
     inkscape:cx="-70.185596"
     inkscape:cy="375.57092"
     inkscape:window-width="3840"
     inkscape:window-height="2066"
     inkscape:window-x="-11"
     inkscape:window-y="-11"
     inkscape:window-maximized="1"
     inkscape:current-layer="layer1"
     showguides="false"><inkscape:grid
       id="grid1"
       units="px"
       originx="0"
       originy="0"
       spacingx="25"
       spacingy="25"
       empcolor="#0099e5"
       empopacity="0.30196078"
       color="#0099e5"
       opacity="0.14901961"
       empspacing="4"
       dotted="false"
       gridanglex="30"
       gridanglez="30"
       visible="true" /></sodipodi:namedview><defs
     id="defs1" /><g
     inkscape:label="Layer 1"
     inkscape:groupmode="layer"
     id="layer1"><path
       id="path352-3"
       style="fill:#000000;fill-opacity:0.555319;fill-rule:evenodd;stroke:none;stroke-width:3px;stroke-linecap:butt;stroke-linejoin:miter;stroke-opacity:1"
       d="M 0,600 H 100 V 400 h 25 c 74.99986,0 150,-75.00014 150,-150 0,-74.99986 -75.00014,-150 -150,-150 H 100 0 Z M 100,200 h 25 c 24.99996,0 50,25.00004 50,50 0,24.99996 -25.00004,50 -50,50 h -25 z"
       sodipodi:nodetypes="cccsssccccssscc" /><path
       id="path9691-5"
       style="fill:#000000;fill-opacity:0.555319;fill-rule:evenodd;stroke:none;stroke-width:1px;stroke-linecap:butt;stroke-linejoin:miter;stroke-opacity:1"
       d="m 200,300 c 75.12844,102.61333 100,150 100,300 H 200 c 0,-75 0,-150 -50,-200 l -25,-25 z"
       sodipodi:nodetypes="cccc" /><path
       id="path352-3-1"
       style="fill:#000000;fill-opacity:0.555319;fill-rule:evenodd;stroke:none;stroke-width:3px;stroke-linecap:butt;stroke-linejoin:miter;stroke-opacity:1"
       d="M 0 100 L 0 600 L 100 600 L 100 400 L 125 400 C 132.60385 400 140.20282 399.19219 147.72852 397.72852 L 150 400 C 199.99995 449.99995 200 525.00008 200 600 L 300 600 C 300 475.09235 282.63529 421.26145 233.48438 347.52148 C 258.60488 320.12207 275 285.06257 275 250 C 275 175.00021 199.99979 100 125 100 L 100 100 L 0 100 z M 100 200 L 125 200 C 149.99994 200 175 225.00006 175 250 C 175 274.99994 149.99994 300 125 300 L 100 300 L 100 200 z " /></g></svg>
