<?xml version="1.0" encoding="UTF-8" standalone="no"?>
<!-- Created with Inkscape (http://www.inkscape.org/) -->

<svg
   width="800"
   height="800"
   viewBox="0 0 800 800"
   version="1.1"
   id="svg1"
   inkscape:version="1.2.2 (732a01da63, 2022-12-09)"
   sodipodi:docname="ascii_56_8.svg"
   xml:space="preserve"
   xmlns:inkscape="http://www.inkscape.org/namespaces/inkscape"
   xmlns:sodipodi="http://sodipodi.sourceforge.net/DTD/sodipodi-0.dtd"
   xmlns="http://www.w3.org/2000/svg"
   xmlns:svg="http://www.w3.org/2000/svg"><sodipodi:namedview
     id="namedview1"
     pagecolor="#ffffff"
     bordercolor="#000000"
     borderopacity="0.25"
     inkscape:showpageshadow="2"
     inkscape:pageopacity="0.0"
     inkscape:pagecheckerboard="0"
     inkscape:deskcolor="#d1d1d1"
     inkscape:document-units="px"
     showgrid="true"
     inkscape:zoom="1.5721341"
     inkscape:cx="7.9509757"
     inkscape:cy="446.52679"
     inkscape:window-width="3840"
     inkscape:window-height="2066"
     inkscape:window-x="-11"
     inkscape:window-y="-11"
     inkscape:window-maximized="1"
     inkscape:current-layer="layer1"
     showguides="false"><inkscape:grid
       id="grid1"
       units="px"
       originx="0"
       originy="0"
       spacingx="25"
       spacingy="25"
       empcolor="#0099e5"
       empopacity="0.30196078"
       color="#0099e5"
       opacity="0.14901961"
       empspacing="4"
       dotted="false"
       gridanglex="30"
       gridanglez="30"
       visible="true" /></sodipodi:namedview><defs
     id="defs1" /><g
     inkscape:label="Layer 1"
     inkscape:groupmode="layer"
     id="layer1"><path
       id="path352-3"
       style="fill:#000000;fill-opacity:0.555319;fill-rule:evenodd;stroke:none;stroke-width:3px;stroke-linecap:butt;stroke-linejoin:miter;stroke-opacity:1"
       d="m 0,450 c 0,74.99992 75.000075,150 150,150 74.99993,0 150,-75.00008 150,-150 C 300,375.00007 224.99993,300 150,300 75,300 0,375 0,450 Z m 150,-50 c 24.99998,0 50,25.00002 50,50 0,24.99998 -25.00002,50 -50,50 -24.99998,0 -50,-25.00002 -50,-50 0,-25 17.80638,-48.65067 50,-50 z"
       sodipodi:nodetypes="csscccsscc" /><path
       id="path352-3-2"
       style="fill:#000000;fill-opacity:0.555319;fill-rule:evenodd;stroke:none;stroke-width:3px;stroke-linecap:butt;stroke-linejoin:miter;stroke-opacity:1"
       d="m 0,250 c 0,74.99992 75.00007,150 150,150 74.99993,0 150,-75.00008 150,-150 C 300,175.00007 224.99993,100 150,100 75,100 0,175 0,250 Z m 150,-50 c 24.99998,0 50,25.00002 50,50 0,24.99998 -25.00002,50 -50,50 -24.99998,0 -50,-25.00002 -50,-50 0,-25 17.80638,-48.65067 50,-50 z"
       sodipodi:nodetypes="csscccsscc" /><path
       id="path352-3-1"
       style="fill:#000000;fill-opacity:0.555319;fill-rule:evenodd;stroke:none;stroke-width:3px;stroke-linecap:butt;stroke-linejoin:miter;stroke-opacity:1"
       d="M 150 100 C 75.000075 100 0 175.00007 0 250 C 0 286.13874 17.440646 322.25192 43.876953 350 C 17.440655 377.74807 0 413.86122 0 450 C 0 524.99985 75.00015 600 150 600 C 224.99986 600 300 524.99985 300 450 C 300 413.86125 282.55935 377.74808 256.12305 350 C 282.55935 322.25192 300 286.13874 300 250 C 300 175.00014 224.99986 100 150 100 z M 150 200 C 174.99996 200 200 225.00004 200 250 C 200 274.99996 174.99996 300 150 300 C 125.00004 300 100 274.99996 100 250 C 100 225.00002 117.80641 201.34933 150 200 z M 150 400 C 174.99996 400 200 425.00004 200 450 C 200 474.99996 174.99996 500 150 500 C 125.00004 500 100 474.99996 100 450 C 100 425.00002 117.80641 401.34933 150 400 z " /></g></svg>
