<?xml version="1.0" encoding="UTF-8" standalone="no"?>
<!-- Created with Inkscape (http://www.inkscape.org/) -->

<svg
   width="800"
   height="800"
   viewBox="0 0 800 800"
   version="1.1"
   id="svg1"
   inkscape:version="1.2.2 (732a01da63, 2022-12-09)"
   sodipodi:docname="ascii_51_3.svg"
   xml:space="preserve"
   xmlns:inkscape="http://www.inkscape.org/namespaces/inkscape"
   xmlns:sodipodi="http://sodipodi.sourceforge.net/DTD/sodipodi-0.dtd"
   xmlns="http://www.w3.org/2000/svg"
   xmlns:svg="http://www.w3.org/2000/svg"><sodipodi:namedview
     id="namedview1"
     pagecolor="#ffffff"
     bordercolor="#000000"
     borderopacity="0.25"
     inkscape:showpageshadow="2"
     inkscape:pageopacity="0.0"
     inkscape:pagecheckerboard="0"
     inkscape:deskcolor="#d1d1d1"
     inkscape:document-units="px"
     showgrid="true"
     inkscape:zoom="1.5721341"
     inkscape:cx="-1.5901951"
     inkscape:cy="437.6217"
     inkscape:window-width="3840"
     inkscape:window-height="2066"
     inkscape:window-x="-11"
     inkscape:window-y="-11"
     inkscape:window-maximized="1"
     inkscape:current-layer="layer1"
     showguides="false"><inkscape:grid
       id="grid1"
       units="px"
       originx="0"
       originy="0"
       spacingx="25"
       spacingy="25"
       empcolor="#0099e5"
       empopacity="0.30196078"
       color="#0099e5"
       opacity="0.14901961"
       empspacing="4"
       dotted="false"
       gridanglex="30"
       gridanglez="30"
       visible="true" /></sodipodi:namedview><defs
     id="defs1" /><g
     inkscape:label="Layer 1"
     inkscape:groupmode="layer"
     id="layer1"><path
       id="path352-3"
       style="fill:#000000;fill-opacity:0.555319;fill-rule:evenodd;stroke:none;stroke-width:3px;stroke-linecap:butt;stroke-linejoin:miter;stroke-opacity:1"
       d="M 150,400 C 225,400 300,325 300,250 300,175 225,100 150,100 75,100 0,150 0,225 h 100 c 0.19296,-21.62665 25,-25 50,-25 25,0 50,25 50,50 0,25 -25,50 -50,50 z"
       sodipodi:nodetypes="ccsccsccc" /><path
       id="path352-3-4"
       style="fill:#000000;fill-opacity:0.555319;fill-rule:evenodd;stroke:none;stroke-width:3px;stroke-linecap:butt;stroke-linejoin:miter;stroke-opacity:1"
       d="m 150,300 c 75,0 150,75 150,150 0,75 -75,150 -150,150 C 75,600 0,550 0,475 h 100 c 0,25 25,25 50,25 25,0 50,-25 50,-50 0,-25 -25,-50 -50,-50 z"
       sodipodi:nodetypes="ccsccsccc" /><rect
       style="fill:#000000;fill-opacity:0.555319;fill-rule:evenodd;stroke-width:100;stroke-linecap:round;stroke-linejoin:round;stroke-miterlimit:4.5;stop-color:#000000"
       id="rect542"
       width="50"
       height="100"
       x="100"
       y="300" /><path
       id="path352-3-5"
       style="fill:#000000;fill-opacity:0.555319;fill-rule:evenodd;stroke:none;stroke-width:3px;stroke-linecap:butt;stroke-linejoin:miter;stroke-opacity:1"
       d="M 150 100 C 75.000075 100 0 150.00007 0 225 L 100 225 C 100.19296 203.37337 125.00002 200 150 200 C 174.99998 200 200 225.00002 200 250 C 200 274.99998 174.99998 300 150 300 L 100 300 L 100 400 L 150 400 C 174.99998 400 200 425.00002 200 450 C 200 474.99998 174.99998 500 150 500 C 125.00002 500 100 499.99998 100 475 L 0 475 C 0 549.99992 75.000075 600 150 600 C 224.99993 600 300 524.99992 300 450 C 300 413.86122 282.55934 377.74807 256.12305 350 C 282.55934 322.25193 300 286.13878 300 250 C 300 175.00007 224.99993 100 150 100 z " /></g></svg>
