<?xml version="1.0" encoding="UTF-8" standalone="no"?>
<!-- Created with Inkscape (http://www.inkscape.org/) -->

<svg
   width="1200"
   height="1200"
   viewBox="0 0 1200 1200"
   version="1.1"
   id="svg1"
   inkscape:version="1.2.1 (9c6d41e410, 2022-07-14)"
   sodipodi:docname="8353_colon-sign.svg"
   xml:space="preserve"
   xmlns:inkscape="http://www.inkscape.org/namespaces/inkscape"
   xmlns:sodipodi="http://sodipodi.sourceforge.net/DTD/sodipodi-0.dtd"
   xmlns="http://www.w3.org/2000/svg"
   xmlns:svg="http://www.w3.org/2000/svg"><sodipodi:namedview
     id="namedview1"
     pagecolor="#ffffff"
     bordercolor="#000000"
     borderopacity="0.25"
     inkscape:showpageshadow="2"
     inkscape:pageopacity="0.0"
     inkscape:pagecheckerboard="0"
     inkscape:deskcolor="#d1d1d1"
     inkscape:document-units="px"
     showgrid="true"
     inkscape:zoom="0.78606706"
     inkscape:cx="153.93089"
     inkscape:cy="666.60979"
     inkscape:window-width="2560"
     inkscape:window-height="1377"
     inkscape:window-x="1072"
     inkscape:window-y="-8"
     inkscape:window-maximized="1"
     inkscape:current-layer="layer1"
     showguides="false"><inkscape:grid
       id="grid1"
       units="px"
       originx="0"
       originy="0"
       spacingx="25"
       spacingy="25"
       empcolor="#0099e5"
       empopacity="0.30196078"
       color="#0099e5"
       opacity="0.14901961"
       empspacing="4"
       dotted="false"
       gridanglex="30"
       gridanglez="30"
       visible="true" /></sodipodi:namedview><defs
     id="defs1" /><g
     inkscape:label="Layer 1"
     inkscape:groupmode="layer"
     id="layer1"><path
       style="fill:#000000;fill-opacity:0.56;stroke:none;stroke-width:1px;stroke-linecap:butt;stroke-linejoin:miter;stroke-opacity:1"
       d="m 0,1050 v 50 H 100 L 500,300 V 200 h -50 z"
       id="path424"
       sodipodi:nodetypes="ccccccc" /><path
       style="fill:#000000;fill-opacity:0.56;stroke:none;stroke-width:1px;stroke-linecap:butt;stroke-linejoin:miter;stroke-opacity:1"
       d="m 200,1050 v 50 H 300 L 700,300 V 200 h -50 z"
       id="path424-3"
       sodipodi:nodetypes="ccccccc" /><path
       id="path2-8"
       style="fill:#000000;fill-opacity:0.555319;fill-rule:evenodd;stroke-width:0.935296"
       d="M 200,628.125 C 200,518.75032 275.00037,400 400,400 c 124.99963,0 200,81.25013 200,125 H 800 C 798.72784,438.95107 674.99919,300 400,300 175.00067,300 0,453.12553 0,628.125 v 43.75 C 0,846.87448 175.00067,1000 400,1000 674.99919,1000 798.72784,861.04893 800,775 H 600 C 600,818.74987 524.99963,900 400,900 275.00037,900 200,781.24968 200,671.875 Z"
       sodipodi:nodetypes="csccsccsccscc" /><path
       id="path424-4"
       style="fill:#000000;fill-opacity:0.56;stroke:none;stroke-width:1px;stroke-linecap:butt;stroke-linejoin:miter;stroke-opacity:1"
       d="M 450 200 L 397.02539 300.0625 C 173.46925 301.41317 0 453.90243 0 628.125 L 0 671.875 C 0 748.73692 33.778254 821.36597 90.705078 878.66797 L 0 1050 L 0 1100 L 100 1100 L 177.93164 944.13672 C 197.71666 955.12069 218.75929 964.72674 240.91797 972.70898 L 200 1050 L 200 1100 L 300 1100 L 351.26367 997.47266 C 367.21904 999.07659 383.45416 1000 400 1000 C 674.99892 1000 798.72784 861.04884 800 775 L 600 775 C 600 818.74983 524.99951 900 400 900 L 596.50195 506.99609 C 598.81356 513.43086 600 519.51122 600 525 L 800 525 C 799.26617 475.36346 757.68398 408.1663 669.92578 360.14844 L 700 300 L 700 200 L 650 200 L 583.94336 324.77344 C 557.47565 316.87738 528.5239 310.52575 496.87109 306.25781 L 500 300 L 500 200 L 450 200 z M 447.86328 404.27344 C 478.37433 409.72129 504.76557 420.08619 526.69141 432.91602 L 296.4375 867.83984 C 275.5007 853.32936 257.75095 834.60275 243.32422 813.34961 L 447.86328 404.27344 z M 338.56445 410.49023 L 200.01367 672.19727 C 200.01353 672.09023 200 671.98201 200 671.875 L 200 628.125 C 200 538.08711 250.86079 441.75873 338.56445 410.49023 z " /></g></svg>
