<?xml version="1.0" encoding="UTF-8" standalone="no"?>
<!-- Created with Inkscape (http://www.inkscape.org/) -->

<svg
   width="1200"
   height="1200"
   viewBox="0 0 1200 1200"
   version="1.1"
   id="svg1"
   inkscape:version="1.2.1 (9c6d41e410, 2022-07-14)"
   sodipodi:docname="8353_colon-sign.svg"
   xml:space="preserve"
   xmlns:inkscape="http://www.inkscape.org/namespaces/inkscape"
   xmlns:sodipodi="http://sodipodi.sourceforge.net/DTD/sodipodi-0.dtd"
   xmlns="http://www.w3.org/2000/svg"
   xmlns:svg="http://www.w3.org/2000/svg"><sodipodi:namedview
     id="namedview1"
     pagecolor="#ffffff"
     bordercolor="#000000"
     borderopacity="0.25"
     inkscape:showpageshadow="2"
     inkscape:pageopacity="0.0"
     inkscape:pagecheckerboard="0"
     inkscape:deskcolor="#d1d1d1"
     inkscape:document-units="px"
     showgrid="true"
     inkscape:zoom="1.1116667"
     inkscape:cx="361.61918"
     inkscape:cy="557.72112"
     inkscape:window-width="2560"
     inkscape:window-height="1377"
     inkscape:window-x="1072"
     inkscape:window-y="-8"
     inkscape:window-maximized="1"
     inkscape:current-layer="layer1"
     showguides="false"><inkscape:grid
       id="grid1"
       units="px"
       originx="0"
       originy="0"
       spacingx="25"
       spacingy="25"
       empcolor="#0099e5"
       empopacity="0.30196078"
       color="#0099e5"
       opacity="0.14901961"
       empspacing="4"
       dotted="false"
       gridanglex="30"
       gridanglez="30"
       visible="true" /></sodipodi:namedview><defs
     id="defs1" /><g
     inkscape:label="Layer 1"
     inkscape:groupmode="layer"
     id="layer1"><path
       style="fill:#000000;stroke:none;stroke-width:1px;stroke-linecap:butt;stroke-linejoin:miter;stroke-opacity:1;fill-opacity:0.56"
       d="m 0,1050 v 50 H 100 L 550,200 V 100 h -50 z"
       id="path424"
       sodipodi:nodetypes="ccccccc" /><path
       style="fill:#000000;stroke:none;stroke-width:1px;stroke-linecap:butt;stroke-linejoin:miter;stroke-opacity:1;fill-opacity:0.56"
       d="m 200,1050 v 50 H 300 L 750,200 V 100 h -50 z"
       id="path424-3"
       sodipodi:nodetypes="ccccccc" /><path
       id="path2-8"
       style="fill:#000000;fill-opacity:0.555319;fill-rule:evenodd;stroke-width:0.999873"
       d="m 200,575 c 0,-124.99963 75.00037,-275 200,-275 124.99963,0 200,125.00015 200,175 H 800 C 798.72784,376.65837 674.99919,200 400,200 175.00067,200 0,375.0006 0,575 v 50 c 0,199.9994 175.00067,375 400,375 274.99919,0 398.72784,-176.65837 400,-275 H 600 C 600,774.99985 524.99963,900 400,900 275.00037,900 200,749.99963 200,625 Z"
       sodipodi:nodetypes="csccsccsccscc" /><path
       id="path424-6"
       style="fill:#000000;fill-opacity:0.56;stroke:none;stroke-width:1px;stroke-linecap:butt;stroke-linejoin:miter;stroke-opacity:1"
       d="M 500 100 L 446.41992 201.80078 C 431.43766 200.65485 416.00083 200 400 200 C 175.00089 200 0 375.0008 0 575 L 0 625 C 0 715.5694 35.975658 800.94392 96.142578 867.33008 L 0 1050 L 0 1100 L 100 1100 L 180.98242 938.0332 C 200.33144 950.07076 220.81825 960.66793 242.39453 969.45117 L 200 1050 L 200 1100 L 300 1100 L 351.43359 997.13281 C 367.33443 998.95306 383.51306 1000 400 1000 C 674.99892 1000 798.72784 823.34153 800 725 L 600 725 C 600 774.9998 524.99951 900 400 900 L 612.5 475 L 800 475 C 799.35735 425.32124 767.40978 355.67694 700.55273 298.89648 L 750 200 L 750 100 L 700 100 L 622.18945 247.83984 C 597.82188 235.83043 570.88906 225.51743 541.19922 217.60156 L 550 200 L 550 100 L 500 100 z M 394.63086 300.20117 L 202.63477 664.99414 C 201.01196 651.52903 200 638.11674 200 625 L 200 575 C 200 451.81286 272.87774 304.45154 394.63086 300.20117 z M 488.53711 322.92383 C 514.733 337.11482 536.71443 356.47844 554.08594 377.23828 L 298.96094 861.97656 C 279.55031 845.8408 262.88665 825.27518 248.89844 802.20508 L 488.53711 322.92383 z " /></g></svg>
