<?xml version="1.0" encoding="UTF-8" standalone="no"?>
<!-- Created with Inkscape (http://www.inkscape.org/) -->

<svg
   width="1200"
   height="1200"
   viewBox="0 0 1200 1200"
   version="1.1"
   id="svg1"
   inkscape:version="1.2.1 (9c6d41e410, 2022-07-14)"
   sodipodi:docname="8354_cruzeiro-sign.svg"
   xml:space="preserve"
   xmlns:inkscape="http://www.inkscape.org/namespaces/inkscape"
   xmlns:sodipodi="http://sodipodi.sourceforge.net/DTD/sodipodi-0.dtd"
   xmlns="http://www.w3.org/2000/svg"
   xmlns:svg="http://www.w3.org/2000/svg"><sodipodi:namedview
     id="namedview1"
     pagecolor="#ffffff"
     bordercolor="#000000"
     borderopacity="0.25"
     inkscape:showpageshadow="2"
     inkscape:pageopacity="0.0"
     inkscape:pagecheckerboard="0"
     inkscape:deskcolor="#d1d1d1"
     inkscape:document-units="px"
     showgrid="true"
     inkscape:zoom="1.1116667"
     inkscape:cx="361.61918"
     inkscape:cy="557.72112"
     inkscape:window-width="2560"
     inkscape:window-height="1377"
     inkscape:window-x="1072"
     inkscape:window-y="-8"
     inkscape:window-maximized="1"
     inkscape:current-layer="layer1"
     showguides="false"><inkscape:grid
       id="grid1"
       units="px"
       originx="0"
       originy="0"
       spacingx="25"
       spacingy="25"
       empcolor="#0099e5"
       empopacity="0.30196078"
       color="#0099e5"
       opacity="0.14901961"
       empspacing="4"
       dotted="false"
       gridanglex="30"
       gridanglez="30"
       visible="true" /></sodipodi:namedview><defs
     id="defs1" /><g
     inkscape:label="Layer 1"
     inkscape:groupmode="layer"
     id="layer1"><path
       id="path2-6"
       style="fill:#000000;fill-opacity:0.555319;fill-rule:evenodd;stroke-width:0.999873"
       d="M 300,950 H 500 V 675 c 0,-74.99985 25.03638,-98.09304 75,-100 66.6628,-2.54431 125,25 125,25 V 500 c 0,0 -50.44312,-25 -150,-25 -175,0 -250,100.0002 -250,200 z"
       sodipodi:nodetypes="cccsccscc" /><path
       id="path2-4"
       style="fill:#000000;fill-opacity:0.555319;fill-rule:evenodd;stroke-width:0.999873"
       d="M 700,400 699.996,298.35733 C 634.50183,242.98803 535.65622,200 400,200 175,200 0,375 0,575 v 50 c 0,200 175,375 400,375 135.01144,0 233.868,-42.1807 299.52804,-96.95833 L 700,725 H 600 C 600,775 524.55688,901.27216 400,900 275.00652,898.72338 200,750 200,625 v -50 c 0,-125 75,-275 200,-275 81.58359,0 142.96459,49.11019 175,100 z"
       sodipodi:nodetypes="ccsssscccsssscc" /><path
       id="path2-6-4"
       style="fill:#000000;fill-opacity:0.555319;fill-rule:evenodd;stroke-width:0.999873"
       d="M 400 200 C 175.00023 200 0 375.0002 0 575 L 0 625 C 0 824.9998 175.00023 1000 400 1000 C 535.0113 1000 633.86737 957.81859 699.52734 903.04102 L 700 725 L 600 725 C 600 759.6579 563.72733 830.93445 500 871.00586 L 500 675 C 500 600.00022 525.03643 576.90696 575 575 C 641.66273 572.45569 700 600 700 600 L 700 500 C 700 500 649.55678 475 550 475 C 375.00018 475 300 575.0003 300 675 L 300 862.23438 C 236.13714 809.83843 200 711.73114 200 625 L 200 575 C 200 450.00013 275.00013 300 400 300 C 481.58351 300 542.96462 349.11024 575 400 L 700 400 L 699.99609 298.35742 C 634.50199 242.98818 535.65608 200 400 200 z " /></g></svg>
