<?xml version="1.0" encoding="UTF-8" standalone="no"?>
<!-- Created with Inkscape (http://www.inkscape.org/) -->

<svg
   width="1200"
   height="1200"
   viewBox="0 0 1200 1200"
   version="1.1"
   id="svg1"
   inkscape:version="1.2.2 (732a01da63, 2022-12-09)"
   sodipodi:docname="8361_won-sign.svg"
   xml:space="preserve"
   xmlns:inkscape="http://www.inkscape.org/namespaces/inkscape"
   xmlns:sodipodi="http://sodipodi.sourceforge.net/DTD/sodipodi-0.dtd"
   xmlns="http://www.w3.org/2000/svg"
   xmlns:svg="http://www.w3.org/2000/svg"><sodipodi:namedview
     id="namedview1"
     pagecolor="#ffffff"
     bordercolor="#000000"
     borderopacity="0.25"
     inkscape:showpageshadow="2"
     inkscape:pageopacity="0.0"
     inkscape:pagecheckerboard="0"
     inkscape:deskcolor="#d1d1d1"
     inkscape:document-units="px"
     showgrid="true"
     inkscape:zoom="1.1116667"
     inkscape:cx="202.3988"
     inkscape:cy="484.85757"
     inkscape:window-width="3840"
     inkscape:window-height="2066"
     inkscape:window-x="-11"
     inkscape:window-y="-11"
     inkscape:window-maximized="1"
     inkscape:current-layer="layer1"
     showguides="false"><inkscape:grid
       id="grid1"
       units="px"
       originx="0"
       originy="0"
       spacingx="25"
       spacingy="25"
       empcolor="#0099e5"
       empopacity="0.30196078"
       color="#0099e5"
       opacity="0.14901961"
       empspacing="4"
       dotted="false"
       gridanglex="30"
       gridanglez="30"
       visible="true" /></sodipodi:namedview><defs
     id="defs1" /><g
     inkscape:label="Layer 1"
     inkscape:groupmode="layer"
     id="layer1"><path
       id="path5358"
       style="fill:#000000;fill-opacity:0.56;fill-rule:evenodd;stroke:none;stroke-width:1px;stroke-linecap:butt;stroke-linejoin:miter;stroke-opacity:1"
       d="m 0,199.99998 v 100 L 350,1000 h 100 l 100,-200 100,200 h 100 l 350,-700.00002 v -100 H 950.00001 L 700,700 450,199.99998 H 300 v 100 l 150,300 L 400,700 150,199.99998 Z"
       sodipodi:nodetypes="cccccccccccccccccc" /><rect
       style="fill:#000000;fill-opacity:0.555319;fill-rule:evenodd;stroke:none;stroke-width:4;stroke-linecap:square;stroke-linejoin:bevel;stroke-miterlimit:4.5;stroke-opacity:0.56;stop-color:#000000"
       id="rect24329"
       width="1100"
       height="100"
       x="0"
       y="500" /><path
       id="path5358-6"
       style="fill:#000000;fill-opacity:0.56;fill-rule:evenodd;stroke:none;stroke-width:1px;stroke-linecap:butt;stroke-linejoin:miter;stroke-opacity:1"
       d="M 0 200 L 0 300 L 100 500 L 0 500 L 0 600 L 150 600 L 350 1000 L 450 1000 L 550 800 L 650 1000 L 750 1000 L 950 600 L 1100 600 L 1100 500 L 1000 500 L 1100 300 L 1100 200 L 950 200 L 800 500 L 600 500 L 450 200 L 300 200 L 300 300 L 400 500 L 300 500 L 150 200 L 0 200 z M 350 600 L 450 600 L 400 700 L 350 600 z M 650 600 L 750 600 L 700 700 L 650 600 z " /></g></svg>
