<?xml version="1.0" encoding="UTF-8" standalone="no"?>
<!-- Created with Inkscape (http://www.inkscape.org/) -->

<svg
   width="1200"
   height="1200"
   viewBox="0 0 1200 1200"
   version="1.1"
   id="svg1"
   inkscape:version="1.2.2 (732a01da63, 2022-12-09)"
   sodipodi:docname="8366_tugrik-sign.svg"
   xml:space="preserve"
   xmlns:inkscape="http://www.inkscape.org/namespaces/inkscape"
   xmlns:sodipodi="http://sodipodi.sourceforge.net/DTD/sodipodi-0.dtd"
   xmlns="http://www.w3.org/2000/svg"
   xmlns:svg="http://www.w3.org/2000/svg"><sodipodi:namedview
     id="namedview1"
     pagecolor="#ffffff"
     bordercolor="#000000"
     borderopacity="0.25"
     inkscape:showpageshadow="2"
     inkscape:pageopacity="0.0"
     inkscape:pagecheckerboard="0"
     inkscape:deskcolor="#d1d1d1"
     inkscape:document-units="px"
     showgrid="true"
     inkscape:zoom="1.1116667"
     inkscape:cx="418.29085"
     inkscape:cy="628.78561"
     inkscape:window-width="3840"
     inkscape:window-height="2066"
     inkscape:window-x="-11"
     inkscape:window-y="-11"
     inkscape:window-maximized="1"
     inkscape:current-layer="layer1"
     showguides="false"><inkscape:grid
       id="grid1"
       units="px"
       originx="0"
       originy="0"
       spacingx="25"
       spacingy="25"
       empcolor="#0099e5"
       empopacity="0.30196078"
       color="#0099e5"
       opacity="0.14901961"
       empspacing="4"
       dotted="false"
       gridanglex="30"
       gridanglez="30"
       visible="true" /></sodipodi:namedview><defs
     id="defs1" /><g
     inkscape:label="Layer 1"
     inkscape:groupmode="layer"
     id="layer1"><path
       id="rect5212"
       style="opacity:0.504444;fill:#000000;fill-opacity:0.56;stroke-width:4;stroke-linecap:square;paint-order:stroke markers fill"
       d="m 0,200 v 100 h 300 v 700 H 500.00004 V 300 H 800 V 200 Z"
       sodipodi:nodetypes="ccccccccc" /><path
       id="path31492"
       style="fill:#000000;fill-opacity:0.56;stroke:none;stroke-width:1px;stroke-linecap:butt;stroke-linejoin:miter;stroke-opacity:1"
       d="m 100,700 v 75 h 50 L 700,500 v -75 h -50 z"
       sodipodi:nodetypes="ccccccc" /><path
       id="path31492-8"
       style="fill:#000000;fill-opacity:0.56;stroke:none;stroke-width:1px;stroke-linecap:butt;stroke-linejoin:miter;stroke-opacity:1"
       d="m 100,900 v 75 h 50 L 700,700 v -75 h -50 z"
       sodipodi:nodetypes="ccccccc" /><path
       id="rect5212-0"
       style="opacity:0.504444;fill:#000000;fill-opacity:0.56;stroke-width:4;stroke-linecap:square;paint-order:stroke markers fill"
       d="M 0 200 L 0 300 L 300 300 L 300 600 L 100 700 L 100 775 L 150 775 L 300 700 L 300 800 L 100 900 L 100 975 L 150 975 L 300 900 L 300 1000 L 500 1000 L 500 800 L 700 700 L 700 625 L 650 625 L 500 700 L 500 600 L 700 500 L 700 425 L 650 425 L 500 500 L 500 300 L 800 300 L 800 200 L 0 200 z " /></g></svg>
