<?xml version="1.0" encoding="UTF-8" standalone="no"?>
<!-- Created with Inkscape (http://www.inkscape.org/) -->

<svg
   width="1200"
   height="1200"
   viewBox="0 0 1200 1200"
   version="1.1"
   id="svg1"
   inkscape:version="1.2.2 (732a01da63, 2022-12-09)"
   sodipodi:docname="8367_drachma-sign.svg"
   xml:space="preserve"
   xmlns:inkscape="http://www.inkscape.org/namespaces/inkscape"
   xmlns:sodipodi="http://sodipodi.sourceforge.net/DTD/sodipodi-0.dtd"
   xmlns="http://www.w3.org/2000/svg"
   xmlns:svg="http://www.w3.org/2000/svg"><sodipodi:namedview
     id="namedview1"
     pagecolor="#ffffff"
     bordercolor="#000000"
     borderopacity="0.25"
     inkscape:showpageshadow="2"
     inkscape:pageopacity="0.0"
     inkscape:pagecheckerboard="0"
     inkscape:deskcolor="#d1d1d1"
     inkscape:document-units="px"
     showgrid="true"
     inkscape:zoom="1.1116667"
     inkscape:cx="418.29085"
     inkscape:cy="772.71364"
     inkscape:window-width="3840"
     inkscape:window-height="2066"
     inkscape:window-x="-11"
     inkscape:window-y="-11"
     inkscape:window-maximized="1"
     inkscape:current-layer="layer1"
     showguides="false"><inkscape:grid
       id="grid1"
       units="px"
       originx="0"
       originy="0"
       spacingx="25"
       spacingy="25"
       empcolor="#0099e5"
       empopacity="0.30196078"
       color="#0099e5"
       opacity="0.14901961"
       empspacing="4"
       dotted="false"
       gridanglex="30"
       gridanglez="30"
       visible="true" /></sodipodi:namedview><defs
     id="defs1" /><g
     inkscape:label="Layer 1"
     inkscape:groupmode="layer"
     id="layer1"><path
       id="path2-8"
       style="fill:#000000;fill-opacity:0.555319;fill-rule:evenodd;stroke-width:0.999873"
       d="M 1150,400 C 975.00027,400.18455 900,525.00013 900,625 v 150 425 h 200 V 996.26172 c 15.6781,2.40167 32.3023,3.73828 50,3.73828 199.9998,0 250,-125.00008 250,-200 V 600 c 0,-74.9999 -75.0002,-200 -250,-200 z m 25,100 c 44.0823,0 75,25.0001 75,100 v 200 c 0,74.61403 -34.7341,100 -75,100 -49.9999,0 -75,-50.00008 -75,-125 v -75 -75 c 0,-74.9999 25.0001,-125 75,-125 z M 400,400 150,900 H 650 Z M 0,1000 V 850 L 325,200 h 150 l 325,650 v 150 z" /></g></svg>
