<?xml version="1.0" encoding="UTF-8" standalone="no"?>
<!-- Created with Inkscape (http://www.inkscape.org/) -->

<svg
   width="1200"
   height="1200"
   viewBox="0 0 1200 1200"
   version="1.1"
   id="svg1"
   inkscape:version="1.2.1 (9c6d41e410, 2022-07-14)"
   sodipodi:docname="8370_guarani-sign.svg"
   xml:space="preserve"
   xmlns:inkscape="http://www.inkscape.org/namespaces/inkscape"
   xmlns:sodipodi="http://sodipodi.sourceforge.net/DTD/sodipodi-0.dtd"
   xmlns="http://www.w3.org/2000/svg"
   xmlns:svg="http://www.w3.org/2000/svg"><sodipodi:namedview
     id="namedview1"
     pagecolor="#ffffff"
     bordercolor="#000000"
     borderopacity="0.25"
     inkscape:showpageshadow="2"
     inkscape:pageopacity="0.0"
     inkscape:pagecheckerboard="0"
     inkscape:deskcolor="#d1d1d1"
     inkscape:document-units="px"
     showgrid="true"
     inkscape:zoom="0.78606706"
     inkscape:cx="47.069775"
     inkscape:cy="679.33135"
     inkscape:window-width="2560"
     inkscape:window-height="1377"
     inkscape:window-x="1072"
     inkscape:window-y="-8"
     inkscape:window-maximized="1"
     inkscape:current-layer="layer1"
     showguides="false"><inkscape:grid
       id="grid1"
       units="px"
       originx="0"
       originy="0"
       spacingx="25"
       spacingy="25"
       empcolor="#0099e5"
       empopacity="0.30196078"
       color="#0099e5"
       opacity="0.14901961"
       empspacing="4"
       dotted="false"
       gridanglex="30"
       gridanglez="30"
       visible="true" /></sodipodi:namedview><defs
     id="defs1" /><g
     inkscape:label="Layer 1"
     inkscape:groupmode="layer"
     id="layer1"><rect
       style="fill:#000000;fill-opacity:0.555319;fill-rule:evenodd;stroke:none;stroke-width:4;stroke-linecap:square;stroke-linejoin:bevel;stroke-miterlimit:4.5;stroke-opacity:0.56;stop-color:#000000"
       id="rect50392"
       width="200"
       height="900"
       x="300"
       y="200" /><path
       id="path2-8"
       style="fill:#000000;fill-opacity:0.555319;fill-rule:evenodd;stroke-width:0.935296"
       d="M 800,700 H 550 v 100 h 50 v 25 c 0,43.74995 -75.44324,76.11314 -200,75 C 275.00664,898.88295 200,781.24989 200,671.875 v -43.75 C 200,518.75011 275.00013,400 400,400 c 124.99987,0 200,81.25004 200,125 H 800 C 798.72784,438.9509 674.99973,300 400,300 175.00023,300 -3.9e-6,453.12517 -3.9e-6,628.125 v 43.75 C -3.9e-6,846.87482 175.00023,999.99996 400,999.99996 674.99973,999.99996 800,887.49991 800,800 Z"
       sodipodi:nodetypes="ccccsssssccsssscc" /><path
       id="rect50392-4"
       style="fill:#000000;fill-opacity:0.555319;fill-rule:evenodd;stroke:none;stroke-width:4;stroke-linecap:square;stroke-linejoin:bevel;stroke-miterlimit:4.5;stroke-opacity:0.56;stop-color:#000000"
       d="M 300 200 L 300 310.45703 C 125.22654 347.74542 -6.4109971e-14 480.09686 0 628.125 L 0 671.875 C 0 819.90313 125.22654 952.25459 300 989.54297 L 300 1100 L 500 1100 L 500 994.51562 C 705.43592 971.01948 800 876.08011 800 800 L 800 700 L 550 700 L 550 800 L 600 800 L 600 825 C 600 855.32101 563.70925 880.14677 500 892.17578 L 500 419.50195 C 563.8435 446.30056 600 494.64911 600 525 L 800 525 C 798.89398 450.18838 705.16348 335.43831 500 306.73047 L 500 200 L 300 200 z M 300 429.75195 L 300 869.75391 C 236.13737 827.59209 200 747.76453 200 671.875 L 200 628.125 C 200 552.23464 236.13582 471.86954 300 429.75195 z " /></g></svg>
