<?xml version="1.0" encoding="UTF-8" standalone="no"?>
<!-- Created with Inkscape (http://www.inkscape.org/) -->

<svg
   width="1200"
   height="1200"
   viewBox="0 0 1200 1200"
   version="1.1"
   id="svg1"
   inkscape:version="1.2.2 (732a01da63, 2022-12-09)"
   sodipodi:docname="8370_guarani-sign.svg"
   xml:space="preserve"
   xmlns:inkscape="http://www.inkscape.org/namespaces/inkscape"
   xmlns:sodipodi="http://sodipodi.sourceforge.net/DTD/sodipodi-0.dtd"
   xmlns="http://www.w3.org/2000/svg"
   xmlns:svg="http://www.w3.org/2000/svg"><sodipodi:namedview
     id="namedview1"
     pagecolor="#ffffff"
     bordercolor="#000000"
     borderopacity="0.25"
     inkscape:showpageshadow="2"
     inkscape:pageopacity="0.0"
     inkscape:pagecheckerboard="0"
     inkscape:deskcolor="#d1d1d1"
     inkscape:document-units="px"
     showgrid="true"
     inkscape:zoom="1.1116667"
     inkscape:cx="418.29085"
     inkscape:cy="772.71364"
     inkscape:window-width="3840"
     inkscape:window-height="2066"
     inkscape:window-x="-11"
     inkscape:window-y="-11"
     inkscape:window-maximized="1"
     inkscape:current-layer="layer1"
     showguides="false"><inkscape:grid
       id="grid1"
       units="px"
       originx="0"
       originy="0"
       spacingx="25"
       spacingy="25"
       empcolor="#0099e5"
       empopacity="0.30196078"
       color="#0099e5"
       opacity="0.14901961"
       empspacing="4"
       dotted="false"
       gridanglex="30"
       gridanglez="30"
       visible="true" /></sodipodi:namedview><defs
     id="defs1" /><g
     inkscape:label="Layer 1"
     inkscape:groupmode="layer"
     id="layer1"><path
       id="path2"
       style="fill:#000000;fill-opacity:0.555319;fill-rule:evenodd;stroke-width:0.999873"
       d="m 424.99998,200 c -224.99977,0 -425,175.0002 -425,375.00003 v 50 c 0,199.9998 200.00023,374.99997 425,374.99997 274.99973,0 375.00004,-100.00007 375.00004,-199.99997 v -200 L 550,600 v 100 h 100 v 100 c 0,49.9999 -100.44326,101.27213 -225.00002,100.00003 -124.99336,-1.2767 -225,-150.0002 -225,-275 v -50 c 0,-124.9999 100.00013,-275.00003 225,-275.00003 124.99987,0 175,50.00005 175,100 H 800.00002 C 798.72782,301.65817 699.99971,200 424.99998,200 Z"
       sodipodi:nodetypes="sssssccccsssssccs" /><rect
       style="fill:#000000;fill-opacity:0.555319;fill-rule:evenodd;stroke:none;stroke-width:4;stroke-linecap:square;stroke-linejoin:bevel;stroke-miterlimit:4.5;stroke-opacity:0.56;stop-color:#000000"
       id="rect50392"
       width="200"
       height="1000"
       x="300"
       y="100" /><path
       id="path2-2"
       style="fill:#000000;fill-opacity:0.555319;fill-rule:evenodd;stroke-width:0.999873"
       d="M 300 100 L 300 218.16602 C 130.8897 267.83439 0 413.21592 0 575 L 0 625 C 0 786.78405 130.8897 932.16562 300 981.83398 L 300 1100 L 500 1100 L 500 997.25391 C 718.38747 980.60725 800 890.31496 800 800 L 800 600 L 550 600 L 550 700 L 650 700 L 650 800 C 650 839.41894 587.45722 879.51488 500 894.14453 L 500 307.53516 C 570.33147 323.28114 600 361.59387 600 400 L 800 400 C 798.85107 311.1869 718.17298 219.69211 500 202.79102 L 500 100 L 300 100 z M 300 353.07031 L 300 846.36719 C 239.56212 791.56444 200 703.60466 200 625 L 200 575 C 200 496.39449 239.56138 407.93021 300 353.07031 z " /></g></svg>
