<?xml version="1.0" encoding="UTF-8" standalone="no"?>
<!-- Created with Inkscape (http://www.inkscape.org/) -->

<svg
   width="1200"
   height="1200"
   viewBox="0 0 1200 1200"
   version="1.1"
   id="svg1"
   inkscape:version="1.2.1 (9c6d41e410, 2022-07-14)"
   sodipodi:docname="8370_guarani-sign.svg"
   xml:space="preserve"
   xmlns:inkscape="http://www.inkscape.org/namespaces/inkscape"
   xmlns:sodipodi="http://sodipodi.sourceforge.net/DTD/sodipodi-0.dtd"
   xmlns="http://www.w3.org/2000/svg"
   xmlns:svg="http://www.w3.org/2000/svg"><sodipodi:namedview
     id="namedview1"
     pagecolor="#ffffff"
     bordercolor="#000000"
     borderopacity="0.25"
     inkscape:showpageshadow="2"
     inkscape:pageopacity="0.0"
     inkscape:pagecheckerboard="0"
     inkscape:deskcolor="#d1d1d1"
     inkscape:document-units="px"
     showgrid="true"
     inkscape:zoom="1.1116667"
     inkscape:cx="285.15741"
     inkscape:cy="629.68514"
     inkscape:window-width="2560"
     inkscape:window-height="1377"
     inkscape:window-x="1072"
     inkscape:window-y="-8"
     inkscape:window-maximized="1"
     inkscape:current-layer="layer1"
     showguides="false"><inkscape:grid
       id="grid1"
       units="px"
       originx="0"
       originy="0"
       spacingx="25"
       spacingy="25"
       empcolor="#0099e5"
       empopacity="0.30196078"
       color="#0099e5"
       opacity="0.14901961"
       empspacing="4"
       dotted="false"
       gridanglex="30"
       gridanglez="30"
       visible="true" /></sodipodi:namedview><defs
     id="defs1" /><g
     inkscape:label="Layer 1"
     inkscape:groupmode="layer"
     id="layer1"><rect
       style="fill:#000000;fill-opacity:0.555319;fill-rule:evenodd;stroke:none;stroke-width:4;stroke-linecap:square;stroke-linejoin:bevel;stroke-miterlimit:4.5;stroke-opacity:0.56;stop-color:#000000"
       id="rect50392"
       width="200"
       height="1000"
       x="300"
       y="100" /><path
       id="path2-8"
       style="fill:#000000;fill-opacity:0.555319;fill-rule:evenodd;stroke-width:0.999873"
       d="M 800,600 H 550 v 100 h 50 v 25 C 600,774.99995 524.55676,901.27216 400,900 275.00664,898.72338 200,749.99988 200,625 v -50 c 0,-124.99987 75.00013,-275 200,-275 124.99987,0 200,125.00005 200,175 H 800 C 798.72784,376.65817 674.99973,200 400,200 175.00023,200 -3.9e-6,375.0002 -3.9e-6,575 v 50 C -3.9e-6,824.9998 175.00023,999.99996 400,999.99996 674.99973,999.99996 800,799.9999 800,700 Z"
       sodipodi:nodetypes="ccccsssssccsssscc" /><path
       id="rect50392-3"
       style="fill:#000000;fill-opacity:0.555319;fill-rule:evenodd;stroke:none;stroke-width:4;stroke-linecap:square;stroke-linejoin:bevel;stroke-miterlimit:4.5;stroke-opacity:0.56;stop-color:#000000"
       d="M 300 100 L 300 211.95117 C 125.22653 254.56647 -6.4109974e-14 405.82498 0 575 L 0 625 C 0 794.17502 125.22653 945.43354 300 988.04883 L 300 1100 L 500 1100 L 500 990.37891 C 705.43591 949.43076 800 786.9487 800 700 L 800 600 L 550 600 L 550 700 L 600 700 L 600 725 C 600 759.65259 563.70927 830.87634 500 870.95117 L 500 329.5 C 563.84348 369.60241 600 440.31328 600 475 L 800 475 C 798.89398 389.50098 705.16358 244.86557 500 208.53125 L 500 100 L 300 100 z M 300 337.20117 L 300 862.23438 C 236.13715 809.8384 200 711.73106 200 625 L 200 575 C 200 488.26806 236.13568 389.54662 300 337.20117 z " /></g></svg>
