<?xml version="1.0" encoding="UTF-8" standalone="no"?>
<!-- Created with Inkscape (http://www.inkscape.org/) -->

<svg
   width="1200"
   height="1200"
   viewBox="0 0 1200 1200"
   version="1.1"
   id="svg1"
   inkscape:version="1.2.1 (9c6d41e410, 2022-07-14)"
   sodipodi:docname="8373_cedi-sign.svg"
   xml:space="preserve"
   xmlns:inkscape="http://www.inkscape.org/namespaces/inkscape"
   xmlns:sodipodi="http://sodipodi.sourceforge.net/DTD/sodipodi-0.dtd"
   xmlns="http://www.w3.org/2000/svg"
   xmlns:svg="http://www.w3.org/2000/svg"><sodipodi:namedview
     id="namedview1"
     pagecolor="#ffffff"
     bordercolor="#000000"
     borderopacity="0.25"
     inkscape:showpageshadow="2"
     inkscape:pageopacity="0.0"
     inkscape:pagecheckerboard="0"
     inkscape:deskcolor="#d1d1d1"
     inkscape:document-units="px"
     showgrid="true"
     inkscape:zoom="0.78606706"
     inkscape:cx="297.68452"
     inkscape:cy="674.24273"
     inkscape:window-width="2560"
     inkscape:window-height="1377"
     inkscape:window-x="1072"
     inkscape:window-y="-8"
     inkscape:window-maximized="1"
     inkscape:current-layer="layer1"
     showguides="false"><inkscape:grid
       id="grid1"
       units="px"
       originx="0"
       originy="0"
       spacingx="25"
       spacingy="25"
       empcolor="#0099e5"
       empopacity="0.30196078"
       color="#0099e5"
       opacity="0.14901961"
       empspacing="4"
       dotted="false"
       gridanglex="30"
       gridanglez="30"
       visible="true" /></sodipodi:namedview><defs
     id="defs1" /><g
     inkscape:label="Layer 1"
     inkscape:groupmode="layer"
     id="layer1"><rect
       style="fill:#000000;fill-opacity:0.555319;fill-rule:evenodd;stroke:none;stroke-width:3.79473;stroke-linecap:square;stroke-linejoin:bevel;stroke-miterlimit:4.5;stroke-opacity:0.56;stop-color:#000000"
       id="rect60890"
       width="200"
       height="900"
       x="300"
       y="200" /><path
       id="path2-8-8"
       style="fill:#000000;fill-opacity:0.555319;fill-rule:evenodd;stroke-width:0.935296"
       d="M 200,628.125 C 200,518.75032 275.00037,400 400,400 c 124.99963,0 200,81.25013 200,125 H 800 C 798.72784,438.95107 674.99919,300 400,300 175.00067,300 0,453.12553 0,628.125 v 43.75 C 0,846.87448 175.00067,1000 400,1000 674.99919,1000 798.72784,861.04893 800,775 H 600 C 600,818.74987 524.99963,900 400,900 275.00037,900 200,781.24968 200,671.875 Z"
       sodipodi:nodetypes="csccsccsccscc" /><path
       id="rect60890-7"
       style="fill:#000000;fill-opacity:0.555319;fill-rule:evenodd;stroke:none;stroke-width:3.79473;stroke-linecap:square;stroke-linejoin:bevel;stroke-miterlimit:4.5;stroke-opacity:0.56;stop-color:#000000"
       d="M 300 200 L 300 310.45703 C 125.22671 347.74549 0 480.09717 0 628.125 L 0 671.875 C 0 819.90284 125.22671 952.25451 300 989.54297 L 300 1100 L 500 1100 L 500 993.26953 C 705.163 964.56158 798.89398 849.81143 800 775 L 600 775 C 600 805.35082 563.84349 853.69941 500 880.49805 L 500 419.50195 C 563.84349 446.30059 600 494.64918 600 525 L 800 525 C 798.89398 450.18857 705.163 335.43842 500 306.73047 L 500 200 L 300 200 z M 300 429.75195 L 300 870.24805 C 236.13583 828.13041 200 747.76521 200 671.875 L 200 628.125 C 200 552.23479 236.13583 471.86959 300 429.75195 z " /></g></svg>
