<?xml version="1.0" encoding="UTF-8" standalone="no"?>
<!-- Created with Inkscape (http://www.inkscape.org/) -->

<svg
   width="1200"
   height="1200"
   viewBox="0 0 1200 1200"
   version="1.1"
   id="svg1"
   inkscape:version="1.2.2 (732a01da63, 2022-12-09)"
   sodipodi:docname="8380_nordic-mark-sign.svg"
   xml:space="preserve"
   xmlns:inkscape="http://www.inkscape.org/namespaces/inkscape"
   xmlns:sodipodi="http://sodipodi.sourceforge.net/DTD/sodipodi-0.dtd"
   xmlns="http://www.w3.org/2000/svg"
   xmlns:svg="http://www.w3.org/2000/svg"><sodipodi:namedview
     id="namedview1"
     pagecolor="#ffffff"
     bordercolor="#000000"
     borderopacity="0.25"
     inkscape:showpageshadow="2"
     inkscape:pageopacity="0.0"
     inkscape:pagecheckerboard="0"
     inkscape:deskcolor="#d1d1d1"
     inkscape:document-units="px"
     showgrid="true"
     inkscape:zoom="1.1116667"
     inkscape:cx="329.68515"
     inkscape:cy="556.82157"
     inkscape:window-width="3840"
     inkscape:window-height="2066"
     inkscape:window-x="-11"
     inkscape:window-y="-11"
     inkscape:window-maximized="1"
     inkscape:current-layer="layer1"
     showguides="false"><inkscape:grid
       id="grid1"
       units="px"
       originx="0"
       originy="0"
       spacingx="25"
       spacingy="25"
       empcolor="#0099e5"
       empopacity="0.30196078"
       color="#0099e5"
       opacity="0.14901961"
       empspacing="4"
       dotted="false"
       gridanglex="30"
       gridanglez="30"
       visible="true" /></sodipodi:namedview><defs
     id="defs1" /><g
     inkscape:label="Layer 1"
     inkscape:groupmode="layer"
     id="layer1"><path
       id="path2"
       style="fill:#000000;fill-opacity:0.555319;fill-rule:evenodd;stroke-width:0.999873"
       d="M 250,200 C 75.00062,200.18455 0,300.0003 0,400 0,499.9997 75.00053,600 250,600 h 50 V 700 H 200 v 100 h 100 c 0,99.9995 75.00052,200 250,200 99.55658,0 150,-25 150,-25 V 875 c 0,0 -58.3374,27.5443 -125,25 -49.96347,-1.907 -75,-25.00008 -75,-100 24.99997,0 50,-25 50,-25 0,0 26.42979,25 50,25 24.99997,0 50,-25 50,-25 0,0 25.00003,25 50,25 99.9999,0 200,-3e-4 200,-150 0,-149.9997 -100.0001,-150 -200,-150 -49.99995,0 -201.17529,-0.25365 -200,0 V 400 C 500,300.0002 424.99945,200 250,200 Z m 0,100 c 24.99996,0 50,25.19317 50,100 v 100 h -50 c -23.90694,2.23891 -75,-25.00022 -75,-100 0,-74.99978 50.00004,-100 75,-100 z m 250,300 h 200 c 0,0 50,10e-5 50,50 0,49.9999 -50,50 -50,50 0,0 -25,0 -50,-25 -25,25 -50,25 -50,25 0,0 -25,0 -50,-25 -28.59817,26.61164 -50,25 -50,25 z"
       sodipodi:nodetypes="csscccccsccsccscssscscssccssccscccccc" /><g
       inkscape:label="Layer 1"
       id="layer1-6"
       transform="matrix(-1,0,0,1,700,-200)" /></g></svg>
