<?xml version="1.0" encoding="UTF-8" standalone="no"?>
<!-- Created with Inkscape (http://www.inkscape.org/) -->

<svg
   width="1200"
   height="1200"
   viewBox="0 0 1200 1200"
   version="1.1"
   id="svg1"
   inkscape:version="1.2.1 (9c6d41e410, 2022-07-14)"
   sodipodi:docname="8382_lari-sign.svg"
   xml:space="preserve"
   xmlns:inkscape="http://www.inkscape.org/namespaces/inkscape"
   xmlns:sodipodi="http://sodipodi.sourceforge.net/DTD/sodipodi-0.dtd"
   xmlns="http://www.w3.org/2000/svg"
   xmlns:svg="http://www.w3.org/2000/svg"><sodipodi:namedview
     id="namedview1"
     pagecolor="#ffffff"
     bordercolor="#000000"
     borderopacity="0.25"
     inkscape:showpageshadow="2"
     inkscape:pageopacity="0.0"
     inkscape:pagecheckerboard="0"
     inkscape:deskcolor="#d1d1d1"
     inkscape:document-units="px"
     showgrid="true"
     inkscape:zoom="0.78606706"
     inkscape:cx="75.057209"
     inkscape:cy="587.73611"
     inkscape:window-width="2560"
     inkscape:window-height="1377"
     inkscape:window-x="1072"
     inkscape:window-y="-8"
     inkscape:window-maximized="1"
     inkscape:current-layer="layer1"
     showguides="false"><inkscape:grid
       id="grid1"
       units="px"
       originx="0"
       originy="0"
       spacingx="25"
       spacingy="25"
       empcolor="#0099e5"
       empopacity="0.30196078"
       color="#0099e5"
       opacity="0.14901961"
       empspacing="4"
       dotted="false"
       gridanglex="30"
       gridanglez="30"
       visible="true" /></sodipodi:namedview><defs
     id="defs1" /><g
     inkscape:label="Layer 1"
     inkscape:groupmode="layer"
     id="layer1"><path
       id="path2-8-5"
       style="fill:#000000;fill-opacity:0.555319;fill-rule:evenodd;stroke-width:0.935296"
       d="M 900,650 C 900,475.00018 725,300 450,300 175,300 0,453.12518 0,649.99999 0,846.8748 175.00023,1000 400,1000 V 900 C 275.00664,898.88297 200,781.24989 200,650 200,518.75011 302.51139,400 450,400 c 147.48861,0 250,140.62511 250,250 z"
       sodipodi:nodetypes="cssccsscc" /><rect
       style="fill:#000000;fill-opacity:0.555319;fill-rule:evenodd;stroke-width:5.2915;stroke-linecap:square;stroke-linejoin:bevel;stroke-miterlimit:4.5;stroke-opacity:0.56;stop-color:#000000"
       id="rect73600"
       width="700"
       height="100"
       x="0"
       y="900" /><rect
       style="fill:#000000;fill-opacity:0.555319;fill-rule:evenodd;stroke-width:4;stroke-linecap:square;stroke-linejoin:bevel;stroke-miterlimit:4.5;stroke-opacity:0.56;stop-color:#000000"
       id="rect73605"
       width="100"
       height="400"
       x="300"
       y="200" /><rect
       style="fill:#000000;fill-opacity:0.555319;fill-rule:evenodd;stroke-width:4;stroke-linecap:square;stroke-linejoin:bevel;stroke-miterlimit:4.5;stroke-opacity:0.56;stop-color:#000000"
       id="rect73607"
       width="100"
       height="400"
       x="500"
       y="200" /><path
       id="path2-8-5-8"
       style="fill:#000000;fill-opacity:0.555319;fill-rule:evenodd;stroke-width:0.935296"
       d="M 300 200 L 300 317.01367 C 113.00765 361.99787 0 491.84218 0 650 C 0 749.06417 44.338733 837.0249 117.03125 900 L 0 900 L 0 1000 L 400 1000 L 700 1000 L 700 900 L 400 900 C 275.00676 898.88297 200 781.24976 200 650 C 200 570.53912 237.62008 495.71267 300 448.99219 L 300 600 L 400 600 L 400 404.80273 C 415.99274 401.6969 432.67235 400 450 400 C 467.32765 400 484.00726 402.00609 500 405.60938 L 500 600 L 600 600 L 600 455.17383 C 662.38016 506.15975 700 583.78247 700 650 L 900 650 C 900 509.41527 786.99237 368.91372 600 319.05664 L 600 200 L 500 200 L 500 301.98438 C 483.72884 300.67938 467.05864 300 450 300 C 432.94133 300 416.27118 300.59573 400 301.74805 L 400 200 L 300 200 z " /></g></svg>
