<?xml version="1.0" encoding="UTF-8" standalone="no"?>
<!-- Created with Inkscape (http://www.inkscape.org/) -->

<svg
   width="1200"
   height="1200"
   viewBox="0 0 1200 1200"
   version="1.1"
   id="svg1"
   inkscape:version="1.2.1 (9c6d41e410, 2022-07-14)"
   sodipodi:docname="164_currency-sign.svg"
   xml:space="preserve"
   xmlns:inkscape="http://www.inkscape.org/namespaces/inkscape"
   xmlns:sodipodi="http://sodipodi.sourceforge.net/DTD/sodipodi-0.dtd"
   xmlns="http://www.w3.org/2000/svg"
   xmlns:svg="http://www.w3.org/2000/svg"><sodipodi:namedview
     id="namedview1"
     pagecolor="#ffffff"
     bordercolor="#000000"
     borderopacity="0.25"
     inkscape:showpageshadow="2"
     inkscape:pageopacity="0.0"
     inkscape:pagecheckerboard="0"
     inkscape:deskcolor="#d1d1d1"
     inkscape:document-units="px"
     showgrid="true"
     inkscape:zoom="0.55583334"
     inkscape:cx="418.29085"
     inkscape:cy="821.28934"
     inkscape:window-width="1350"
     inkscape:window-height="1230"
     inkscape:window-x="1722"
     inkscape:window-y="67"
     inkscape:window-maximized="0"
     inkscape:current-layer="layer1"
     showguides="false"><inkscape:grid
       id="grid1"
       units="px"
       originx="0"
       originy="0"
       spacingx="25"
       spacingy="25"
       empcolor="#0099e5"
       empopacity="0.30196078"
       color="#0099e5"
       opacity="0.14901961"
       empspacing="4"
       dotted="false"
       gridanglex="30"
       gridanglez="30"
       visible="true" /></sodipodi:namedview><defs
     id="defs1" /><g
     inkscape:label="Layer 1"
     inkscape:groupmode="layer"
     id="layer1"><path
       id="path2"
       style="fill:#000000;fill-opacity:0.555319;fill-rule:evenodd;stroke-width:0.999873"
       d="M 600,625 C 600,525 524.99982,400 350,400 175.00027,400.18455 100,525.0001 100,625 v 50 c 0,99.9999 75.00017,225 250,225 199.9998,0 250,-125 250,-225 z m -325,0 c 0,-74.99992 25.00005,-125 75,-125 50,0 75,50.00008 75,125 v 50 c 0,74.61401 -50.00886,125.665 -75,125 -33.80805,-0.8995 -75,-50.00008 -75,-125 z"
       sodipodi:nodetypes="ccssscccsccscc" /><path
       id="path736-3-4"
       style="fill:#000000;fill-rule:evenodd;stroke:none;stroke-width:1px;stroke-linecap:butt;stroke-linejoin:miter;stroke-opacity:1;fill-opacity:0.55531901"
       d="M 700,900 H 600 L 450,750 550,650 700,800 Z M 0,900 H 100 L 250,750 150,650 0,800 Z M 700,400 H 600 L 450,550 550,650 700,500 Z M 0,400 H 100 L 250,550 150,650 0,500 Z" /><path
       id="path2-7"
       style="fill:#000000;fill-opacity:0.555319;fill-rule:evenodd;stroke-width:0.999873"
       d="M 0 400 L 0 500 L 101.41406 601.41406 C 100.5054 609.37524 100 617.26653 100 625 L 100 675 C 100 682.7331 100.50353 690.62515 101.41211 698.58789 L 0 800 L 0 900 L 100 900 L 167.09961 832.90039 C 207.76275 872.46297 267.86497 900 350 900 C 439.91128 900 499.43424 874.69774 537.80078 837.80078 L 600 900 L 700 900 L 700 800 L 598.90234 698.90234 C 599.56338 690.83819 600 682.82963 600 675 L 600 625 C 600 617.26689 599.49647 609.37486 598.58789 601.41211 L 700 500 L 700 400 L 600 400 L 532.90039 467.09961 C 492.23725 427.53704 432.13502 400 350 400 C 267.89047 400.08659 207.79932 427.61258 167.13672 467.13672 L 100 400 L 0 400 z M 350 500 C 399.99995 500 425 550.00015 425 625 L 425 675 C 425 749.61394 374.99112 800.665 350 800 C 316.19198 799.1005 275 749.99985 275 675 L 275 625 C 275 550.00015 300.0001 500 350 500 z " /></g></svg>
