<?xml version="1.0" encoding="UTF-8" standalone="no"?>
<!-- Created with Inkscape (http://www.inkscape.org/) -->

<svg
   width="1200"
   height="1200"
   viewBox="0 0 1200 1200"
   version="1.1"
   id="svg1"
   inkscape:version="1.2.2 (732a01da63, 2022-12-09)"
   sodipodi:docname="167_section-sign.svg"
   xml:space="preserve"
   xmlns:inkscape="http://www.inkscape.org/namespaces/inkscape"
   xmlns:sodipodi="http://sodipodi.sourceforge.net/DTD/sodipodi-0.dtd"
   xmlns="http://www.w3.org/2000/svg"
   xmlns:svg="http://www.w3.org/2000/svg"><sodipodi:namedview
     id="namedview1"
     pagecolor="#ffffff"
     bordercolor="#000000"
     borderopacity="0.25"
     inkscape:showpageshadow="2"
     inkscape:pageopacity="0.0"
     inkscape:pagecheckerboard="0"
     inkscape:deskcolor="#d1d1d1"
     inkscape:document-units="px"
     showgrid="true"
     inkscape:zoom="1.1116667"
     inkscape:cx="233.43328"
     inkscape:cy="662.96851"
     inkscape:window-width="1350"
     inkscape:window-height="1230"
     inkscape:window-x="12"
     inkscape:window-y="325"
     inkscape:window-maximized="0"
     inkscape:current-layer="layer1-8"
     showguides="false"><inkscape:grid
       id="grid1"
       units="px"
       originx="0"
       originy="0"
       spacingx="25"
       spacingy="25"
       empcolor="#0099e5"
       empopacity="0.30196078"
       color="#0099e5"
       opacity="0.14901961"
       empspacing="4"
       dotted="false"
       gridanglex="30"
       gridanglez="30"
       visible="true" /></sodipodi:namedview><defs
     id="defs1" /><g
     inkscape:label="Layer 1"
     inkscape:groupmode="layer"
     id="layer1"><g
       inkscape:label="Layer 1"
       id="layer1-8"
       transform="translate(100,300)"><path
         id="path2"
         style="fill:#000000;fill-opacity:0.555319;fill-rule:evenodd;stroke-width:0.999873"
         d="m 150,500 c 199.9998,0 250,-100 250,-200 0,-100 -75.00018,-200 -250,-200 -174.99973,0.18455 -250,100.0001 -250,200 0,99.9999 75.00018,200 250,200 z M 75,300 c 0,-74.99992 50,-100 75,-100 25,0 75,25.00008 75,99.80705 C 225,374.61401 174.97758,401.05853 150,400 128.77369,399.10045 75,374.99992 75,300 Z"
         sodipodi:nodetypes="sscsssssss" /><path
         id="path2-7-6"
         style="fill:#000000;fill-opacity:0.555319;fill-rule:evenodd;stroke-width:0.999873"
         d="m 100,475 c 33.80805,0.89955 75,25 75,75 0,42.61611 -25,50 -75,50 -89.51027,0 -150,-25 -150,-25 v 100 c 0,0 50,25 150,25 166.66033,0 250,-50.0001 250,-150 0,-99.9999 -75.00018,-150 -250,-150 z"
         sodipodi:nodetypes="cssccsscc" /><path
         id="path2-7-6-8"
         style="fill:#000000;fill-opacity:0.555319;fill-rule:evenodd;stroke-width:0.999873"
         d="M 200,125 C 166.19195,124.10045 125,100 125,50 125,7.38389 150,0 200,0 289.51027,0 350,25 350,25 V -75 c 0,0 -50,-25 -150,-25 -166.66033,0 -250,50.0001 -250,150 0,99.9999 75.00018,150 250,150 z"
         sodipodi:nodetypes="cssccsscc" /><path
         id="path2-8"
         style="fill:#000000;fill-opacity:0.555319;fill-rule:evenodd;stroke-width:0.999873"
         d="M 200 -100 C 33.339837 -100 -50 -49.9998 -50 50 C -50 88.327481 -38.934793 119.2824 -15.492188 142.91992 C -73.572266 181.34958 -100 240.64162 -100 300 C -100 399.9998 -24.999645 500 150 500 C 152.10755 500 154.10143 499.92444 156.17578 499.90234 C 167.43743 512.02167 175 528.6243 175 550 C 175 592.61607 149.99995 600 100 600 C 10.48982 600 -50 575 -50 575 L -50 675 C -50 675 0.0001 700 100 700 C 266.66016 700 350 649.9998 350 550 C 350 513.97664 340.20627 484.47818 319.57227 461.43164 C 380.9469 423.20936 400 361.62296 400 300 C 400 200.0001 324.99965 100 150 100 C 147.90929 100.0022 145.90205 100.08671 143.83984 100.11719 C 132.56881 87.996325 125 71.386418 125 50 C 125 7.3839326 150.00005 -5.6843419e-14 200 0 C 289.51018 0 350 25 350 25 L 350 -75 C 350 -75 299.9999 -100 200 -100 z M 150 200 C 174.99998 200 225 224.99975 225 299.80664 C 225 374.61353 174.97756 401.05853 150 400 C 128.77371 399.10045 75 374.99985 75 300 C 75 225.00015 125.00002 200 150 200 z " /></g></g></svg>
