<?xml version="1.0" encoding="UTF-8" standalone="no"?>
<!-- Created with Inkscape (http://www.inkscape.org/) -->

<svg
   width="1200"
   height="1200"
   viewBox="0 0 1200 1200"
   version="1.1"
   id="svg1"
   inkscape:version="1.2.1 (9c6d41e410, 2022-07-14)"
   sodipodi:docname="169_copyright-sign.svg"
   xml:space="preserve"
   xmlns:inkscape="http://www.inkscape.org/namespaces/inkscape"
   xmlns:sodipodi="http://sodipodi.sourceforge.net/DTD/sodipodi-0.dtd"
   xmlns="http://www.w3.org/2000/svg"
   xmlns:svg="http://www.w3.org/2000/svg"><sodipodi:namedview
     id="namedview1"
     pagecolor="#ffffff"
     bordercolor="#000000"
     borderopacity="0.25"
     inkscape:showpageshadow="2"
     inkscape:pageopacity="0.0"
     inkscape:pagecheckerboard="0"
     inkscape:deskcolor="#d1d1d1"
     inkscape:document-units="px"
     showgrid="true"
     inkscape:zoom="0.55583334"
     inkscape:cx="295.05247"
     inkscape:cy="679.16041"
     inkscape:window-width="1350"
     inkscape:window-height="1230"
     inkscape:window-x="1722"
     inkscape:window-y="67"
     inkscape:window-maximized="0"
     inkscape:current-layer="layer1-8"
     showguides="false"><inkscape:grid
       id="grid1"
       units="px"
       originx="0"
       originy="0"
       spacingx="25"
       spacingy="25"
       empcolor="#0099e5"
       empopacity="0.30196078"
       color="#0099e5"
       opacity="0.14901961"
       empspacing="4"
       dotted="false"
       gridanglex="30"
       gridanglez="30"
       visible="true" /></sodipodi:namedview><defs
     id="defs1" /><g
     inkscape:label="Layer 1"
     inkscape:groupmode="layer"
     id="layer1"><g
       inkscape:label="Layer 1"
       id="layer1-8"
       transform="translate(100,300)"><path
         id="path2-8-0"
         style="fill:#000000;fill-opacity:0.555319;fill-rule:evenodd;stroke-width:1.1179"
         d="m 500,775 c 125,0 300,-187.5 300,-343.75 v -62.5 C 800,212.5 624.99348,26.59578 500,25 H 400 C 275,25 100,212.5 100,368.75 v 62.5 C 100,587.5 275.00652,773.40422 400,775 Z M 400,900 C 175,900 -100,681.25 -100,431.25 v -62.5 C -100,118.75 175,-100 400,-100 h 100 c 225,0 500,218.75 500,468.75 v 62.5 C 1000,681.25 725,900 500,900 Z"
         sodipodi:nodetypes="ssscssscssssssssss" /><path
         id="path2"
         style="fill:#000000;fill-opacity:0.555319;fill-rule:evenodd;stroke-width:0.999873"
         d="M 700,300 C 700,225 625,100 450,100 275.00009,100.18455 200,225 200,325 v 150 c 0,100 75,225 250,225 200,0 250,-125 250,-200 H 550 c 0,74.61408 -34.73413,100 -75,100 -50,0 -75,-50 -75,-125 V 325 c 0,-75 25,-125 75,-125 44.08234,0 75,25 75,100 z"
         sodipodi:nodetypes="ccsssccscsscc" /></g></g></svg>
