<?xml version="1.0" encoding="UTF-8" standalone="no"?>
<!-- Created with Inkscape (http://www.inkscape.org/) -->

<svg
   width="1200"
   height="1200"
   viewBox="0 0 1200 1200"
   version="1.1"
   id="svg1"
   inkscape:version="1.2.2 (732a01da63, 2022-12-09)"
   sodipodi:docname="208_capital-eth.svg"
   xml:space="preserve"
   xmlns:inkscape="http://www.inkscape.org/namespaces/inkscape"
   xmlns:sodipodi="http://sodipodi.sourceforge.net/DTD/sodipodi-0.dtd"
   xmlns="http://www.w3.org/2000/svg"
   xmlns:svg="http://www.w3.org/2000/svg"><sodipodi:namedview
     id="namedview1"
     pagecolor="#ffffff"
     bordercolor="#000000"
     borderopacity="0.25"
     inkscape:showpageshadow="2"
     inkscape:pageopacity="0.0"
     inkscape:pagecheckerboard="0"
     inkscape:deskcolor="#d1d1d1"
     inkscape:document-units="px"
     showgrid="true"
     inkscape:zoom="0.78606705"
     inkscape:cx="493.59657"
     inkscape:cy="781.10385"
     inkscape:window-width="1649"
     inkscape:window-height="1586"
     inkscape:window-x="32"
     inkscape:window-y="22"
     inkscape:window-maximized="0"
     inkscape:current-layer="layer1"
     showguides="false"><inkscape:grid
       id="grid1"
       units="px"
       originx="0"
       originy="0"
       spacingx="25"
       spacingy="25"
       empcolor="#0099e5"
       empopacity="0.30196078"
       color="#0099e5"
       opacity="0.14901961"
       empspacing="4"
       dotted="false"
       gridanglex="30"
       gridanglez="30"
       visible="true" /></sodipodi:namedview><defs
     id="defs1" /><g
     inkscape:label="Layer 1"
     inkscape:groupmode="layer"
     id="layer1"><path
       id="rect1038"
       style="opacity:0.431111;fill:#000000;fill-opacity:0.56;stroke-width:4;stroke-linecap:square;paint-order:stroke markers fill"
       d="M 100 200 L 100 500 L 0 500 L 0 600 L 100 600 L 100 1000 L 300 1000 L 325 1000 C 549.99955 1000 700 874.9996 700 675 L 700 525 C 700 325.0004 549.99955 200 325 200 L 300 200 L 100 200 z M 300 300 L 325 300 C 449.99975 300 500 400.00025 500 525 L 500 675 C 500 799.99976 449.99326 898.72338 325 900 L 300 900 L 300 600 L 400 600 L 400 500 L 300 500 L 300 300 z " /></g></svg>
