<?xml version="1.0" encoding="UTF-8" standalone="no"?>
<!-- Created with Inkscape (http://www.inkscape.org/) -->

<svg
   width="1200"
   height="1200"
   viewBox="0 0 1200 1200"
   version="1.1"
   id="svg1"
   inkscape:version="1.2.2 (732a01da63, 2022-12-09)"
   sodipodi:docname="198_O-with-stroke.svg"
   xml:space="preserve"
   xmlns:inkscape="http://www.inkscape.org/namespaces/inkscape"
   xmlns:sodipodi="http://sodipodi.sourceforge.net/DTD/sodipodi-0.dtd"
   xmlns="http://www.w3.org/2000/svg"
   xmlns:svg="http://www.w3.org/2000/svg"><sodipodi:namedview
     id="namedview1"
     pagecolor="#ffffff"
     bordercolor="#000000"
     borderopacity="0.25"
     inkscape:showpageshadow="2"
     inkscape:pageopacity="0.0"
     inkscape:pagecheckerboard="0"
     inkscape:deskcolor="#d1d1d1"
     inkscape:document-units="px"
     showgrid="true"
     inkscape:zoom="0.78606705"
     inkscape:cx="480.87501"
     inkscape:cy="781.10385"
     inkscape:window-width="1649"
     inkscape:window-height="1586"
     inkscape:window-x="32"
     inkscape:window-y="22"
     inkscape:window-maximized="0"
     inkscape:current-layer="layer1"
     showguides="false"><inkscape:grid
       id="grid1"
       units="px"
       originx="0"
       originy="0"
       spacingx="25"
       spacingy="25"
       empcolor="#0099e5"
       empopacity="0.30196078"
       color="#0099e5"
       opacity="0.14901961"
       empspacing="4"
       dotted="false"
       gridanglex="30"
       gridanglez="30"
       visible="true" /></sodipodi:namedview><defs
     id="defs1" /><g
     inkscape:label="Layer 1"
     inkscape:groupmode="layer"
     id="layer1"><path
       id="path2-8"
       style="fill:#000000;fill-opacity:0.555319;fill-rule:evenodd;stroke-width:0.999873"
       d="M 600,625 V 575 C 600,450 525,300 400,300 275,300 200,450 200,575 v 50 c 0,125 75.00652,273.72338 200,275 124.99348,-1.27662 200,-150 200,-275 z M 3e-6,625 V 575 C 3e-6,375 175,200 400,200 c 225,0 400,175 400,375 v 50 C 800,825 625,1000 400,1000 175,1000 3e-6,825 3e-6,625 Z"
       sodipodi:nodetypes="ssssscssssssss" /><path
       style="fill:#000000;stroke:none;stroke-width:1px;stroke-linecap:butt;stroke-linejoin:miter;stroke-opacity:1;fill-opacity:0.55531901"
       d="m 0,900 v 100 H 100 L 800,300 V 200 H 700 Z"
       id="path27800" /><path
       id="path2-8-9"
       style="fill:#000000;fill-opacity:0.555319;fill-rule:evenodd;stroke-width:0.999873"
       d="M 400 200 C 175.00023 200 0 375.0002 0 575 L 0 625 C -2.8533756e-14 700.29567 24.820258 772.03741 67.757812 832.24219 L 0 900 L 0 1000 L 100 1000 L 169.42188 930.57812 C 234.11542 973.95052 313.31554 1000 400 1000 C 624.99977 1000 800 824.9998 800 625 L 800 575 C 800 499.70433 775.17974 427.96259 732.24219 367.75781 L 800 300 L 800 200 L 700 200 L 630.57812 269.42188 C 565.88458 226.04948 486.68446 200 400 200 z M 400 300 C 453.55167 300 497.889 327.57774 531.12109 368.87891 L 207.07617 692.92383 C 202.47868 670.17142 200 647.21465 200 625 L 200 575 C 200 450.00013 275.00013 300 400 300 z M 592.93945 507.06055 C 597.52542 529.84428 600 552.81291 600 575 L 600 625 C 600 749.99988 524.99336 898.72338 400 900 C 346.57881 899.45438 302.3274 871.92783 269.12109 830.87891 L 592.93945 507.06055 z " /></g></svg>
