<?xml version="1.0" encoding="UTF-8" standalone="no"?>
<!-- Created with Inkscape (http://www.inkscape.org/) -->

<svg
   width="1200"
   height="1200"
   viewBox="0 0 1200 1200"
   version="1.1"
   id="svg1"
   inkscape:version="1.2.2 (732a01da63, 2022-12-09)"
   sodipodi:docname="240_small-eth.svg"
   xmlns:inkscape="http://www.inkscape.org/namespaces/inkscape"
   xmlns:sodipodi="http://sodipodi.sourceforge.net/DTD/sodipodi-0.dtd"
   xmlns="http://www.w3.org/2000/svg"
   xmlns:svg="http://www.w3.org/2000/svg">
  <sodipodi:namedview
     id="namedview1"
     pagecolor="#ffffff"
     bordercolor="#000000"
     borderopacity="0.25"
     inkscape:showpageshadow="2"
     inkscape:pageopacity="0.0"
     inkscape:pagecheckerboard="0"
     inkscape:deskcolor="#d1d1d1"
     inkscape:document-units="px"
     showgrid="true"
     inkscape:zoom="1.1116667"
     inkscape:cx="229.3853"
     inkscape:cy="582.90853"
     inkscape:window-width="1659"
     inkscape:window-height="1622"
     inkscape:window-x="157"
     inkscape:window-y="37"
     inkscape:window-maximized="0"
     inkscape:current-layer="layer1"
     showguides="false">
    <inkscape:grid
       id="grid1"
       units="px"
       originx="0"
       originy="0"
       spacingx="25"
       spacingy="25"
       empcolor="#0099e5"
       empopacity="0.30196078"
       color="#0099e5"
       opacity="0.14901961"
       empspacing="4"
       dotted="false"
       gridanglex="30"
       gridanglez="30"
       visible="true" />
  </sodipodi:namedview>
  <defs
     id="defs1" />
  <g
     inkscape:label="Layer 1"
     inkscape:groupmode="layer"
     id="layer1">
    <path
       id="path2-0"
       style="fill:#000000;fill-opacity:0.555319;fill-rule:evenodd;stroke-width:0.999873"
       d="M 500,725 C 500,625 424.99982,500 250,500 75.00027,500.18455 0,625.0001 0,725 v 50 c 0,99.9999 75.00018,225 250,225 199.9998,0 250,-125 250,-225 z m -325,0 c 0,-74.99992 25.00005,-125 75,-125 50,0 75,50.00008 75,125 v 50 c 0,74.61401 -50.00886,125.66495 -75,125 -33.80805,-0.89955 -75,-50.00008 -75,-125 z"
       sodipodi:nodetypes="ccssscccsccscc" />
    <path
       style="fill:#000000;fill-opacity:0.555319;stroke:none;stroke-width:1px;stroke-linecap:butt;stroke-linejoin:miter;stroke-opacity:1"
       d="m 50,250 c 0,0 275,241.71664 275,475 H 500 C 491.90405,400.52474 100,200 100,200 Z"
       id="path1330"
       sodipodi:nodetypes="ccccc" />
    <path
       style="fill:#000000;stroke:none;stroke-width:1px;stroke-linecap:butt;stroke-linejoin:miter;stroke-opacity:1;fill-opacity:0.55531901"
       d="m 450,200 h 50 v 75 L 50,500 H 0 v -75 z"
       id="path40253" />
    <path
       id="path2-0-5"
       style="fill:#000000;fill-opacity:0.555319;fill-rule:evenodd;stroke-width:0.999873"
       d="M 100 200 L 50 250 C 50 250 94.520207 289.40364 147.61523 351.19141 L 0 425 L 0 500 L 50 500 L 204.42578 422.78711 C 221.97086 446.98571 239.09115 472.92687 254.72266 500.10547 C 253.13658 500.08461 251.60283 500 250 500 C 75.000445 500.18455 0 625.0002 0 725 L 0 775 C 0 874.9998 75.000355 1000 250 1000 C 449.9996 1000 500 874.9999 500 775 L 500 725 C 500 717.95213 499.58392 710.77302 498.83008 703.5293 C 488.00568 564.36577 407.43493 449.20772 321.47852 364.25977 L 500 275 L 500 200 L 450 200 L 249.55078 300.22461 C 168.93895 235.36873 100 200 100 200 z M 250 600 C 293.23113 600 317.73151 637.4254 323.58398 696.02344 C 323.73602 697.65149 323.88829 699.28005 324.01562 700.9082 C 324.17054 702.82643 324.28986 704.78363 324.40625 706.74414 C 324.53151 708.83931 324.66318 710.93461 324.74609 713.0293 C 324.89383 716.95439 325 720.92315 325 725 L 325 775 C 325 849.61394 274.99112 900.66495 250 900 C 216.19198 899.10045 175 849.99985 175 775 L 175 725 C 175 650.00015 200.0001 600 250 600 z " />
  </g>
</svg>
