<?xml version="1.0" encoding="UTF-8" standalone="no"?>
<!-- Created with Inkscape (http://www.inkscape.org/) -->

<svg
   width="1200"
   height="1200"
   viewBox="0 0 1200 1200"
   version="1.1"
   id="svg1"
   inkscape:version="1.2.2 (732a01da63, 2022-12-09)"
   sodipodi:docname="248_o-with-stroke.svg"
   xml:space="preserve"
   xmlns:inkscape="http://www.inkscape.org/namespaces/inkscape"
   xmlns:sodipodi="http://sodipodi.sourceforge.net/DTD/sodipodi-0.dtd"
   xmlns="http://www.w3.org/2000/svg"
   xmlns:svg="http://www.w3.org/2000/svg"><sodipodi:namedview
     id="namedview1"
     pagecolor="#ffffff"
     bordercolor="#000000"
     borderopacity="0.25"
     inkscape:showpageshadow="2"
     inkscape:pageopacity="0.0"
     inkscape:pagecheckerboard="0"
     inkscape:deskcolor="#d1d1d1"
     inkscape:document-units="px"
     showgrid="true"
     inkscape:zoom="0.78606705"
     inkscape:cx="480.87501"
     inkscape:cy="781.10385"
     inkscape:window-width="1649"
     inkscape:window-height="1586"
     inkscape:window-x="32"
     inkscape:window-y="22"
     inkscape:window-maximized="0"
     inkscape:current-layer="layer1"
     showguides="false"><inkscape:grid
       id="grid1"
       units="px"
       originx="0"
       originy="0"
       spacingx="25"
       spacingy="25"
       empcolor="#0099e5"
       empopacity="0.30196078"
       color="#0099e5"
       opacity="0.14901961"
       empspacing="4"
       dotted="false"
       gridanglex="30"
       gridanglez="30"
       visible="true" /></sodipodi:namedview><defs
     id="defs1" /><g
     inkscape:label="Layer 1"
     inkscape:groupmode="layer"
     id="layer1"><path
       id="path2"
       style="fill:#000000;fill-opacity:0.555319;fill-rule:evenodd;stroke-width:0.999873"
       d="M 499.99999,625 C 499.99999,525 424.99982,400 250,400 75.00027,400.18455 0,525.0001 0,625 v 150 c 0,99.9999 75.00017,225 250,225 199.9998,0 249.99999,-125 249.99999,-225 z M 175,625 c 0,-74.99992 25.00005,-125 75,-125 50,0 75,50.00008 75,125 v 150 c 0,74.61401 -50.00886,125.66495 -75,125 -33.80805,-0.89955 -75,-50.00008 -75,-125 z"
       sodipodi:nodetypes="ccssscccsccscc" /><path
       style="fill:#000000;stroke:none;stroke-width:1px;stroke-linecap:butt;stroke-linejoin:miter;stroke-opacity:1;fill-opacity:0.55531901"
       d="m 0,1000 75,0 425,-475 0,-125 -75,0 L 0,875 Z"
       id="path29680"
       sodipodi:nodetypes="ccccccc" /><path
       id="path2-9"
       style="fill:#000000;fill-opacity:0.555319;fill-rule:evenodd;stroke-width:0.999873"
       d="M 250 400 C 75.000445 400.18455 0 525.0002 0 625 L 0 775 C 0 801.45295 5.3064342 829.64516 16.265625 856.82031 L 0 875 L 0 1000 L 75 1000 L 107.39258 963.79688 C 144.44057 986.04475 191.6283 1000 250 1000 C 449.9996 1000 500 874.9999 500 775 L 500 625 C 500 598.54703 494.69357 570.35485 483.73438 543.17969 L 500 525 L 500 400 L 425 400 L 392.60742 436.20312 C 355.55944 413.95526 308.3717 400 250 400 z M 250 500 C 274.61193 500 293.13388 512.16392 305.63086 533.41211 L 175 679.41211 L 175 625 C 175 550.00015 200.0001 500 250 500 z M 325 720.58789 L 325 775 C 325 849.61394 274.99112 900.66495 250 900 C 232.39454 899.53156 212.83448 885.89677 198.08398 862.43555 L 325 720.58789 z " /></g></svg>
