<?xml version="1.0" encoding="UTF-8" standalone="no"?>
<!-- Created with Inkscape (http://www.inkscape.org/) -->

<svg
   width="1200"
   height="1200"
   viewBox="0 0 1200 1200"
   version="1.1"
   id="svg1"
   inkscape:version="1.2.1 (9c6d41e410, 2022-07-14)"
   sodipodi:docname="1044_de-capital.svg"
   xml:space="preserve"
   xmlns:inkscape="http://www.inkscape.org/namespaces/inkscape"
   xmlns:sodipodi="http://sodipodi.sourceforge.net/DTD/sodipodi-0.dtd"
   xmlns="http://www.w3.org/2000/svg"
   xmlns:svg="http://www.w3.org/2000/svg"><sodipodi:namedview
     id="namedview1"
     pagecolor="#ffffff"
     bordercolor="#000000"
     borderopacity="0.25"
     inkscape:showpageshadow="2"
     inkscape:pageopacity="0.0"
     inkscape:pagecheckerboard="0"
     inkscape:deskcolor="#d1d1d1"
     inkscape:document-units="px"
     showgrid="true"
     inkscape:zoom="0.78606705"
     inkscape:cx="478.96677"
     inkscape:cy="572.47025"
     inkscape:window-width="2560"
     inkscape:window-height="1377"
     inkscape:window-x="1072"
     inkscape:window-y="-8"
     inkscape:window-maximized="1"
     inkscape:current-layer="layer1"
     showguides="true"><inkscape:grid
       id="grid1"
       units="px"
       originx="0"
       originy="0"
       spacingx="25"
       spacingy="25"
       empcolor="#0099e5"
       empopacity="0.30196078"
       color="#0099e5"
       opacity="0.14901961"
       empspacing="4"
       dotted="false"
       gridanglex="30"
       gridanglez="30"
       visible="true" /></sodipodi:namedview><defs
     id="defs1" /><g
     inkscape:label="Layer 1"
     inkscape:groupmode="layer"
     id="layer1"><path
       id="rect1"
       style="opacity:0.453441;fill:#000000;fill-opacity:0.576596;fill-rule:evenodd"
       d="M 200,400 150,700 C 125.34212,847.94729 106.55371,898.72784 75,900 v 100 h 25 c 111.19864,0 125.28567,-51.71404 150,-200 l 50,-300 h 100 v 500 H 600 V 500 400 Z"
       sodipodi:nodetypes="csccssccccccc" /><path
       style="opacity:0.453441;fill:#000000;fill-opacity:0.576596;fill-rule:evenodd"
       d="M 650,1125 V 900 L 0,900 v 225 h 100 v -125 l 450,0 v 125 z"
       id="path2"
       sodipodi:nodetypes="ccccccccc" /><path
       id="rect1-8"
       style="opacity:0.453441;fill:#000000;fill-opacity:0.576596;fill-rule:evenodd"
       d="M 200 400 L 150 700 C 125.34214 847.94714 106.55368 898.72784 75 900 L 0 900 L 0 1125 L 100 1125 L 100 1000 L 400 1000 L 550 1000 L 550 1125 L 650 1125 L 650 900 L 600 900 L 600 500 L 600 400 L 200 400 z M 300 500 L 400 500 L 400 900 L 230.04102 900 C 237.32791 873.09774 243.29841 840.20954 250 800 L 300 500 z " /></g></svg>
