<?xml version="1.0" encoding="UTF-8" standalone="no"?>
<!-- Created with Inkscape (http://www.inkscape.org/) -->

<svg
   width="1200"
   height="1200"
   viewBox="0 0 1200 1200"
   version="1.1"
   id="svg1"
   inkscape:version="1.2.1 (9c6d41e410, 2022-07-14)"
   sodipodi:docname="1047_ze-capital.svg"
   xml:space="preserve"
   xmlns:inkscape="http://www.inkscape.org/namespaces/inkscape"
   xmlns:sodipodi="http://sodipodi.sourceforge.net/DTD/sodipodi-0.dtd"
   xmlns="http://www.w3.org/2000/svg"
   xmlns:svg="http://www.w3.org/2000/svg"><sodipodi:namedview
     id="namedview1"
     pagecolor="#ffffff"
     bordercolor="#000000"
     borderopacity="0.25"
     inkscape:showpageshadow="2"
     inkscape:pageopacity="0.0"
     inkscape:pagecheckerboard="0"
     inkscape:deskcolor="#d1d1d1"
     inkscape:document-units="px"
     showgrid="true"
     inkscape:zoom="0.55583335"
     inkscape:cx="112.44377"
     inkscape:cy="762.81857"
     inkscape:window-width="2560"
     inkscape:window-height="1377"
     inkscape:window-x="1072"
     inkscape:window-y="-8"
     inkscape:window-maximized="1"
     inkscape:current-layer="layer1"
     showguides="false"><inkscape:grid
       id="grid1"
       units="px"
       originx="0"
       originy="0"
       spacingx="25"
       spacingy="25"
       empcolor="#0099e5"
       empopacity="0.30196078"
       color="#0099e5"
       opacity="0.14901961"
       empspacing="4"
       dotted="false"
       gridanglex="30"
       gridanglez="30"
       visible="true" /></sodipodi:namedview><defs
     id="defs1" /><g
     inkscape:label="Layer 1"
     inkscape:groupmode="layer"
     id="layer1"><path
       style="fill:#000000;fill-opacity:0.555319;stroke:none;stroke-width:1.26492px;stroke-linecap:butt;stroke-linejoin:miter;stroke-opacity:1"
       d="M 0,425 C 0,425 66.666665,400 266.66666,400 466.66665,400 600,468.75 600,568.75 600,662.5 391.35431,749.99997 266.66666,749.99998 L 100,750 V 650 l 166.66666,-10e-6 C 366.66666,649.99998 400,606.25 400,568.75 400,518.75 333.33332,500 200,500 66.666665,500 0,525 0,525 Z"
       id="path19625"
       sodipodi:nodetypes="csssccssscc" /><path
       style="fill:#000000;fill-opacity:0.555319;stroke:none;stroke-width:1.26492px;stroke-linecap:butt;stroke-linejoin:miter;stroke-opacity:1"
       d="m 0,975 c 0,0 66.666665,24.99997 266.66666,24.99997 C 466.66665,999.99997 600,931.24999 600,831.25 600,737.5 391.35431,649.99998 266.66666,649.99999 L 100,650 v 100 l 166.66666,-2e-5 C 366.66666,749.99997 400,793.75 400,831.25 400,881.25 333.33332,900 200,900 66.666665,900 0,875 0,875 Z"
       id="path19625-2"
       sodipodi:nodetypes="csssccssscc" /><path
       id="path19625-8"
       style="fill:#000000;fill-opacity:0.555319;stroke:none;stroke-width:1.26492px;stroke-linecap:butt;stroke-linejoin:miter;stroke-opacity:1"
       d="M 266.66602 400 C 66.666221 400 0 425 0 425 L 0 525 C 0 525 66.666798 500 200 500 C 333.33319 500 400 518.75005 400 568.75 C 400 606.24996 366.66592 649.99999 266.66602 650 L 100 650 L 100 750 L 266.66602 750 C 366.66592 749.99999 400 793.75004 400 831.25 C 400 881.24995 333.33319 900 200 900 C 66.666798 900 0 875 0 875 L 0 975 C 0 975 66.666221 1000 266.66602 1000 C 466.66581 1000 600 931.24989 600 831.25 C 600 781.77331 541.87104 734.0522 468.65625 700 C 541.87104 665.94781 600 618.22669 600 568.75 C 600 468.7501 466.66581 400 266.66602 400 z " /></g></svg>
