<?xml version="1.0" encoding="UTF-8" standalone="no"?>
<!-- Created with Inkscape (http://www.inkscape.org/) -->

<svg
   width="1200"
   height="1200"
   viewBox="0 0 1200 1200"
   version="1.1"
   id="svg1"
   inkscape:version="1.2.1 (9c6d41e410, 2022-07-14)"
   sodipodi:docname="1069_e-capital.svg"
   xml:space="preserve"
   xmlns:inkscape="http://www.inkscape.org/namespaces/inkscape"
   xmlns:sodipodi="http://sodipodi.sourceforge.net/DTD/sodipodi-0.dtd"
   xmlns="http://www.w3.org/2000/svg"
   xmlns:svg="http://www.w3.org/2000/svg"><sodipodi:namedview
     id="namedview1"
     pagecolor="#ffffff"
     bordercolor="#000000"
     borderopacity="0.25"
     inkscape:showpageshadow="2"
     inkscape:pageopacity="0.0"
     inkscape:pagecheckerboard="0"
     inkscape:deskcolor="#d1d1d1"
     inkscape:document-units="px"
     showgrid="true"
     inkscape:zoom="0.78606706"
     inkscape:cx="183.82656"
     inkscape:cy="755.66072"
     inkscape:window-width="2560"
     inkscape:window-height="1377"
     inkscape:window-x="1072"
     inkscape:window-y="-8"
     inkscape:window-maximized="1"
     inkscape:current-layer="layer1"
     showguides="false"><inkscape:grid
       id="grid1"
       units="px"
       originx="0"
       originy="0"
       spacingx="25"
       spacingy="25"
       empcolor="#0099e5"
       empopacity="0.30196078"
       color="#0099e5"
       opacity="0.14901961"
       empspacing="4"
       dotted="false"
       gridanglex="30"
       gridanglez="30"
       visible="true" /></sodipodi:namedview><defs
     id="defs1" /><g
     inkscape:label="Layer 1"
     inkscape:groupmode="layer"
     id="layer1"><rect
       style="opacity:0.453441;fill:#000000;fill-opacity:0.576596;fill-rule:evenodd;stroke-width:1"
       id="rect1-2-8"
       width="375"
       height="100"
       x="100"
       y="650" /><path
       id="path2-8-8"
       style="fill:#000000;fill-opacity:0.555319;fill-rule:evenodd;stroke-width:0.999873"
       d="m 200,800 c 0,25 0,100 100,100 100,0 100,-104.70283 100,-175 v -50 c 0,-75 0,-175 -100,-175 -100,0 -100,75 -100,100 H 0 c 0,-50 25.00027,-200 300,-200 224.99977,0 300,124.61429 300,275 v 50 c 0,150 -75.00023,275 -300,275 C 25.00027,1000 0,850 0,800 Z"
       sodipodi:nodetypes="cssssccsssscc" /><path
       id="rect1-2-8-2"
       style="opacity:0.453441;fill:#000000;fill-opacity:0.576596;fill-rule:evenodd;stroke-width:1"
       d="M 300 400 C 25.000545 400 3.469481e-16 550.00005 0 600 L 200 600 C 200 575.00003 200.0001 500 300 500 C 389.24361 500 398.7995 579.5583 399.83203 650 L 100 650 L 100 750 L 399.82422 750 C 398.6953 817.68348 388.7196 900 300 900 C 200.0001 900 200 824.99997 200 800 L 0 800 C 0 849.99995 25.000545 1000 300 1000 C 524.99955 1000 600 874.99985 600 725 L 600 675 C 600 524.61444 524.99955 400 300 400 z " /></g></svg>
