<?xml version="1.0" encoding="UTF-8" standalone="no"?>
<!-- Created with Inkscape (http://www.inkscape.org/) -->

<svg
   width="1200"
   height="1200"
   viewBox="0 0 1200 1200"
   version="1.1"
   id="svg1"
   inkscape:version="1.2.1 (9c6d41e410, 2022-07-14)"
   sodipodi:docname="1070_yu-capital.svg"
   xml:space="preserve"
   xmlns:inkscape="http://www.inkscape.org/namespaces/inkscape"
   xmlns:sodipodi="http://sodipodi.sourceforge.net/DTD/sodipodi-0.dtd"
   xmlns="http://www.w3.org/2000/svg"
   xmlns:svg="http://www.w3.org/2000/svg"><sodipodi:namedview
     id="namedview1"
     pagecolor="#ffffff"
     bordercolor="#000000"
     borderopacity="0.25"
     inkscape:showpageshadow="2"
     inkscape:pageopacity="0.0"
     inkscape:pagecheckerboard="0"
     inkscape:deskcolor="#d1d1d1"
     inkscape:document-units="px"
     showgrid="true"
     inkscape:zoom="0.78606706"
     inkscape:cx="238.52927"
     inkscape:cy="601.72983"
     inkscape:window-width="2560"
     inkscape:window-height="1377"
     inkscape:window-x="1072"
     inkscape:window-y="-8"
     inkscape:window-maximized="1"
     inkscape:current-layer="layer1"
     showguides="false"><inkscape:grid
       id="grid1"
       units="px"
       originx="0"
       originy="0"
       spacingx="25"
       spacingy="25"
       empcolor="#0099e5"
       empopacity="0.30196078"
       color="#0099e5"
       opacity="0.14901961"
       empspacing="4"
       dotted="false"
       gridanglex="30"
       gridanglez="30"
       visible="true" /></sodipodi:namedview><defs
     id="defs1" /><g
     inkscape:label="Layer 1"
     inkscape:groupmode="layer"
     id="layer1"><path
       id="rect365"
       style="opacity:0.504444;fill:#000000;fill-opacity:0.56;stroke-width:3.74166;stroke-linecap:square;paint-order:stroke markers fill"
       d="m 0,400 v 600 H 175 V 775 H 328.125 V 625 H 175 V 400 Z"
       sodipodi:nodetypes="ccccccccc" /><path
       id="path2-8-5"
       style="fill:#000000;fill-opacity:0.555319;fill-rule:evenodd;stroke-width:0.935296"
       d="m 425,700 c 0,125 6.25,200.00004 50,200 43.75,-4e-5 50,-75 50,-200 m 0,0 c 0,-125 -6.25,-200 -50,-200 -43.75,0 -50,75 -50,200 m 275,0 C 700,900 625,1000 475,999.99996 325,999.99992 275,900 275,700 m 0,0 c 0,-200 50,-299.99996 200,-300 150,-4e-5 225,100 225,300"
       sodipodi:nodetypes="czcczccsccsc" /><path
       id="rect365-3"
       style="opacity:0.504444;fill:#000000;fill-opacity:0.56;stroke-width:3.74166;stroke-linecap:square;paint-order:stroke markers fill"
       d="M 0 400 L 0 1000 L 175 1000 L 175 775 L 277.85156 775 C 290.24106 924.95958 345.11375 999.99997 475 1000 C 624.99985 1000 700 899.9998 700 700 C 700 500.0002 624.99985 399.99996 475 400 C 345.11375 400.00003 290.24106 475.04041 277.85156 625 L 175 625 L 175 400 L 0 400 z M 475 500 C 518.74996 500 525 575.00013 525 700 C 525 824.99987 518.74996 899.99996 475 900 C 431.25004 900.00004 425 824.99987 425 700 C 425 575.00013 431.25004 500 475 500 z " /></g></svg>
