<?xml version="1.0" encoding="UTF-8" standalone="no"?>
<!-- Created with Inkscape (http://www.inkscape.org/) -->

<svg
   width="2000"
   height="2000"
   viewBox="0 0 2000 2000"
   version="1.1"
   id="svg1"
   inkscape:version="1.2.2 (732a01da63, 2022-12-09)"
   sodipodi:docname="399_schwa-capital.svg"
   xml:space="preserve"
   xmlns:inkscape="http://www.inkscape.org/namespaces/inkscape"
   xmlns:sodipodi="http://sodipodi.sourceforge.net/DTD/sodipodi-0.dtd"
   xmlns="http://www.w3.org/2000/svg"
   xmlns:svg="http://www.w3.org/2000/svg"><sodipodi:namedview
     id="namedview1"
     pagecolor="#ffffff"
     bordercolor="#000000"
     borderopacity="0.25"
     inkscape:showpageshadow="2"
     inkscape:pageopacity="0.0"
     inkscape:pagecheckerboard="0"
     inkscape:deskcolor="#d1d1d1"
     inkscape:document-units="px"
     showgrid="true"
     inkscape:zoom="0.55583335"
     inkscape:cx="1112.7436"
     inkscape:cy="1489.6551"
     inkscape:window-width="3840"
     inkscape:window-height="2066"
     inkscape:window-x="-11"
     inkscape:window-y="-11"
     inkscape:window-maximized="1"
     inkscape:current-layer="layer1"
     showguides="false"><inkscape:grid
       id="grid1"
       units="px"
       originx="0"
       originy="0"
       spacingx="10"
       spacingy="10"
       empcolor="#0099e5"
       empopacity="0.30196078"
       color="#0099e5"
       opacity="0.14901961"
       empspacing="10"
       dotted="false"
       gridanglex="30"
       gridanglez="30"
       visible="true" /></sodipodi:namedview><defs
     id="defs1" /><g
     inkscape:label="Layer 1"
     inkscape:groupmode="layer"
     id="layer1"><path
       id="rect855"
       style="opacity:0.489888;fill-rule:nonzero;stroke-width:100;stroke-linecap:round;stroke-linejoin:round;stroke-miterlimit:4.5;stop-color:#000000"
       d="m 850,1500 c 349.9997,0 450,-250.0004 450,-600 C 1300,550.00035 1199.9809,296.37466 850,300 502.639,303.5982 399.9998,450.00015 250,600 H 200 V 200 h 100 v 180 c 0,0 200.0004,-190 600,-190 299.9997,0 800,260.00045 800,710 0,449.9995 -500.0003,710 -800,710 -480,0 -800,-370 -800,-710 h 1300 v 100 H 500 c 0,300 50,500 350,500 z"
       sodipodi:nodetypes="ssscccccsssccccs" /><path
       id="rect855-6"
       style="opacity:0.489888;fill-rule:nonzero;stroke-width:100;stroke-linecap:round;stroke-linejoin:round;stroke-miterlimit:4.5;stop-color:#000000"
       d="M 900 190 C 500.0008 190 300 380 300 380 L 300 200 L 200 200 L 200 600 L 250 600 C 399.99965 450.0003 502.63935 303.5982 850 300 C 1199.9806 296.37466 1300 550.0007 1300 900 L 100 900 C 100 1239.9997 420.00048 1610 900 1610 C 1199.9994 1610 1700 1349.9991 1700 900 C 1700 450.0009 1199.9994 190 900 190 z M 500 1000 L 1296.6211 1000 C 1277.5577 1296.4766 1165.5398 1500 850 1500 C 550.0003 1500 500 1299.9997 500 1000 z " /></g></svg>
