<?xml version="1.0" encoding="UTF-8" standalone="no"?>
<!-- Created with Inkscape (http://www.inkscape.org/) -->

<svg
   width="2000"
   height="2000"
   viewBox="0 0 2000 2000"
   version="1.1"
   id="svg1"
   inkscape:version="1.2.2 (732a01da63, 2022-12-09)"
   sodipodi:docname="402_f-hook.svg"
   xml:space="preserve"
   xmlns:inkscape="http://www.inkscape.org/namespaces/inkscape"
   xmlns:sodipodi="http://sodipodi.sourceforge.net/DTD/sodipodi-0.dtd"
   xmlns="http://www.w3.org/2000/svg"
   xmlns:svg="http://www.w3.org/2000/svg"><sodipodi:namedview
     id="namedview1"
     pagecolor="#ffffff"
     bordercolor="#000000"
     borderopacity="0.25"
     inkscape:showpageshadow="2"
     inkscape:pageopacity="0.0"
     inkscape:pagecheckerboard="0"
     inkscape:deskcolor="#d1d1d1"
     inkscape:document-units="px"
     showgrid="true"
     inkscape:zoom="0.78606706"
     inkscape:cx="141.8454"
     inkscape:cy="871.42692"
     inkscape:window-width="3840"
     inkscape:window-height="2066"
     inkscape:window-x="-11"
     inkscape:window-y="-11"
     inkscape:window-maximized="1"
     inkscape:current-layer="layer1"
     showguides="false"><inkscape:grid
       id="grid1"
       units="px"
       originx="0"
       originy="0"
       spacingx="25"
       spacingy="25"
       empcolor="#0099e5"
       empopacity="0.30196078"
       color="#0099e5"
       opacity="0.14901961"
       empspacing="4"
       dotted="false"
       gridanglex="30"
       gridanglez="30"
       visible="true" /></sodipodi:namedview><defs
     id="defs1" /><g
     inkscape:label="Layer 1"
     inkscape:groupmode="layer"
     id="layer1"><path
       id="path8529-7"
       style="fill:#000000;fill-opacity:0.555319;fill-rule:evenodd;stroke:none;stroke-width:0.688846px;stroke-linecap:butt;stroke-linejoin:miter;stroke-opacity:1"
       d="M 1200,200 C 898.72595,200 700,300.0006 700,600 H 500 v 100 h 200 v 800 100 c 0,249.9995 -120.00766,298.3831 -300,300 -100.1395,0.8995 -120,-95 -120,-95 0,0 1.875,0.1563 5.15625,0.2051 3.28125,0.049 7.96876,-0.01 13.59375,-0.4395 5.62499,-0.4297 12.18751,-1.2304 19.21875,-2.666 14.06249,-2.8711 30.00001,-8.2812 44.0625,-18.3398 C 383.12498,1768.6719 400,1743.125 400,1700 c 0,-49.9999 -32.21624,-100 -150,-100 -9.37499,0 -18.75001,0.4253 -27.97852,1.3594 -32.29975,3.2691 -62.80592,12.7788 -85.23632,32.1718 -3.20435,2.7705 -6.24317,5.7434 -9.09961,8.9278 C 110.54688,1661.5655 100,1688.3142 100,1725 c 0,72.3233 55.4483,188.1095 168.14844,243.5371 37.5667,18.4759 81.49566,30.2452 131.85156,31.4629 75.29657,1.8209 150.44445,-3.5192 220.8125,-17.2402 17.59201,-3.4303 34.88648,-7.3839 51.80859,-11.8809 16.92212,-4.497 33.47261,-9.5367 49.58008,-15.1387 C 883.2759,1899.7205 1000,1787.4996 1000,1600 V 700 h 300 V 600 h -300 c 0,-249.9995 20.0077,-298.3831 200,-300 100.1395,-0.8995 120,20 120,20 0,0 -120,-9.99978 -120,105 0,49.9999 32.2162,100 150,100 74.9998,0 150,-27.1713 150,-125 0,-96.431 -100.0004,-200 -300,-200 z" /></g></svg>
