<?xml version="1.0" encoding="UTF-8" standalone="no"?>
<!-- Created with Inkscape (http://www.inkscape.org/) -->

<svg
   width="2000"
   height="2000"
   viewBox="0 0 2000 2000"
   version="1.1"
   id="svg1"
   inkscape:version="1.2.2 (732a01da63, 2022-12-09)"
   sodipodi:docname="601_schwa-small.svg"
   xml:space="preserve"
   xmlns:inkscape="http://www.inkscape.org/namespaces/inkscape"
   xmlns:sodipodi="http://sodipodi.sourceforge.net/DTD/sodipodi-0.dtd"
   xmlns="http://www.w3.org/2000/svg"
   xmlns:svg="http://www.w3.org/2000/svg"><sodipodi:namedview
     id="namedview1"
     pagecolor="#ffffff"
     bordercolor="#000000"
     borderopacity="0.25"
     inkscape:showpageshadow="2"
     inkscape:pageopacity="0.0"
     inkscape:pagecheckerboard="0"
     inkscape:deskcolor="#d1d1d1"
     inkscape:document-units="px"
     showgrid="true"
     inkscape:zoom="1.1116667"
     inkscape:cx="678.71062"
     inkscape:cy="1126.2368"
     inkscape:window-width="3840"
     inkscape:window-height="2066"
     inkscape:window-x="-11"
     inkscape:window-y="-11"
     inkscape:window-maximized="1"
     inkscape:current-layer="layer1"
     showguides="false"><inkscape:grid
       id="grid1"
       units="px"
       originx="0"
       originy="0"
       spacingx="25"
       spacingy="25"
       empcolor="#0099e5"
       empopacity="0.30196078"
       color="#0099e5"
       opacity="0.14901961"
       empspacing="4"
       dotted="false"
       gridanglex="30"
       gridanglez="30"
       visible="true" /></sodipodi:namedview><defs
     id="defs1" /><g
     inkscape:label="Layer 1"
     inkscape:groupmode="layer"
     id="layer1"><path
       style="fill:#000000;fill-opacity:0.555319;stroke:none;stroke-width:1px;stroke-linecap:butt;stroke-linejoin:miter;stroke-opacity:1"
       d="m 1300,1100.0471 c 0,-299.99996 -300.01549,-496.70756 -650,-499.99996 -382.4866,-3.5982 -525,200 -525,200 v 100 c 0,0 175,-200 525,-200 250,0 350,100 350,399.99996 0,300 -100,400 -350,400 -250,0 -250,-300 -250,-300 h 700 v -100 c 0,0 -675,0 -1000,0 0,200 100,500 550,500 350,0 650,-200 650,-500 z"
       id="path124467"
       sodipodi:nodetypes="zsccszsccccsz" /><path
       id="path124467-2"
       style="fill:#000000;fill-opacity:0.555319;stroke:none;stroke-width:1px;stroke-linecap:butt;stroke-linejoin:miter;stroke-opacity:1"
       d="M 650 600.04688 C 267.51378 596.44868 125 800.04687 125 800.04688 L 125 900.04688 C 125 900.04688 300.00035 700.04688 650 700.04688 C 899.99975 700.04688 1000 800.04721 1000 1100.0469 L 100 1100.0469 C 100 1300.0467 200.00045 1600.0469 650 1600.0469 C 999.99965 1600.0469 1300 1400.0466 1300 1100.0469 C 1300 800.04721 999.98416 603.33927 650 600.04688 z M 400 1200.0469 L 995.45703 1200.0469 C 973.57437 1422.6077 869.80022 1500.0469 650 1500.0469 C 400.00025 1500.0469 400 1200.0469 400 1200.0469 z " /></g></svg>
