<?xml version="1.0" encoding="UTF-8" standalone="no"?>
<!-- Created with Inkscape (http://www.inkscape.org/) -->

<svg
   width="1200"
   height="1200"
   viewBox="0 0 1200 1200"
   version="1.1"
   id="svg1"
   inkscape:version="1.2.1 (9c6d41e410, 2022-07-14)"
   sodipodi:docname="164_currency-sign.svg"
   xml:space="preserve"
   xmlns:inkscape="http://www.inkscape.org/namespaces/inkscape"
   xmlns:sodipodi="http://sodipodi.sourceforge.net/DTD/sodipodi-0.dtd"
   xmlns="http://www.w3.org/2000/svg"
   xmlns:svg="http://www.w3.org/2000/svg"><sodipodi:namedview
     id="namedview1"
     pagecolor="#ffffff"
     bordercolor="#000000"
     borderopacity="0.25"
     inkscape:showpageshadow="2"
     inkscape:pageopacity="0.0"
     inkscape:pagecheckerboard="0"
     inkscape:deskcolor="#d1d1d1"
     inkscape:document-units="px"
     showgrid="true"
     inkscape:zoom="0.78606705"
     inkscape:cx="282.41866"
     inkscape:cy="626.53689"
     inkscape:window-width="1350"
     inkscape:window-height="1230"
     inkscape:window-x="1722"
     inkscape:window-y="67"
     inkscape:window-maximized="0"
     inkscape:current-layer="layer1"
     showguides="false"><inkscape:grid
       id="grid1"
       units="px"
       originx="0"
       originy="0"
       spacingx="25"
       spacingy="25"
       empcolor="#0099e5"
       empopacity="0.30196078"
       color="#0099e5"
       opacity="0.14901961"
       empspacing="4"
       dotted="false"
       gridanglex="30"
       gridanglez="30"
       visible="true" /></sodipodi:namedview><defs
     id="defs1" /><g
     inkscape:label="Layer 1"
     inkscape:groupmode="layer"
     id="layer1"><path
       id="path736-3-4"
       style="fill:#000000;fill-opacity:0.555319;fill-rule:evenodd;stroke:none;stroke-width:1px;stroke-linecap:butt;stroke-linejoin:miter;stroke-opacity:1"
       d="M 600,900 H 500 L 375,775 475,675 600,800 Z M 0,900 H 100 L 225,775 125,675 0,800 Z M 600,400 H 500 L 375,525 475,625 600,500 Z M 0,400 H 100 L 225,525 125,625 0,500 Z"
       sodipodi:nodetypes="cccccccccccccccccccccccc" /><path
       id="path2-8"
       style="fill:#000000;fill-opacity:0.555319;fill-rule:evenodd;stroke-width:1.11789"
       d="M 300,900 C 450,900 500,775 500,650 500,525 450,400 300,400 150,400 100,525.00013 100,650 c 0,124.99987 50,250 200,250 z M 200,650 c 0,-93.74987 50,-150 100,-150 50,0 100,56.49125 100,150 0,93.50875 -50,150 -100,150 -50,0 -100,-56.25013 -100,-150 z"
       sodipodi:nodetypes="zszszszszs" /><path
       id="path736-3-4-4"
       style="fill:#000000;fill-opacity:0.555319;fill-rule:evenodd;stroke:none;stroke-width:1px;stroke-linecap:butt;stroke-linejoin:miter;stroke-opacity:1"
       d="M 0 400 L 0 500 L 102.54297 602.54297 C 100.82075 618.19136 100 634.09407 100 650 C 100 665.90593 100.82075 681.80864 102.54297 697.45703 L 0 800 L 0 900 L 100 900 L 158.69922 841.30078 C 190.17636 877.15672 235.94436 900 300 900 C 364.05585 900 409.82363 877.15691 441.30078 841.30078 L 500 900 L 600 900 L 600 800 L 497.45703 697.45703 C 499.17925 681.80863 500 665.90595 500 650 C 500 634.09405 499.17925 618.19137 497.45703 602.54297 L 600 500 L 600 400 L 500 400 L 441.30078 458.69922 C 409.82363 422.84309 364.05585 400 300 400 C 235.94436 400 190.17636 422.84328 158.69922 458.69922 L 100 400 L 0 400 z M 300 500 C 349.99995 500 400 556.49134 400 650 C 400 743.50866 349.99995 800 300 800 C 250.00005 800 200 743.74978 200 650 C 200 556.25022 250.00005 500 300 500 z " /></g></svg>
