<?xml version="1.0" encoding="UTF-8" standalone="no"?>
<!-- Created with Inkscape (http://www.inkscape.org/) -->

<svg
   width="1200"
   height="1200"
   viewBox="0 0 1200 1200"
   version="1.1"
   id="svg1"
   inkscape:version="1.2.1 (9c6d41e410, 2022-07-14)"
   sodipodi:docname="167_section-sign.svg"
   xml:space="preserve"
   xmlns:inkscape="http://www.inkscape.org/namespaces/inkscape"
   xmlns:sodipodi="http://sodipodi.sourceforge.net/DTD/sodipodi-0.dtd"
   xmlns="http://www.w3.org/2000/svg"
   xmlns:svg="http://www.w3.org/2000/svg"><sodipodi:namedview
     id="namedview1"
     pagecolor="#ffffff"
     bordercolor="#000000"
     borderopacity="0.25"
     inkscape:showpageshadow="2"
     inkscape:pageopacity="0.0"
     inkscape:pagecheckerboard="0"
     inkscape:deskcolor="#d1d1d1"
     inkscape:document-units="px"
     showgrid="true"
     inkscape:zoom="0.55583335"
     inkscape:cx="301.34932"
     inkscape:cy="303.14842"
     inkscape:window-width="1080"
     inkscape:window-height="1230"
     inkscape:window-x="1901"
     inkscape:window-y="80"
     inkscape:window-maximized="0"
     inkscape:current-layer="layer1-8"
     showguides="false"><inkscape:grid
       id="grid1"
       units="px"
       originx="0"
       originy="0"
       spacingx="25"
       spacingy="25"
       empcolor="#0099e5"
       empopacity="0.30196078"
       color="#0099e5"
       opacity="0.14901961"
       empspacing="4"
       dotted="false"
       gridanglex="30"
       gridanglez="30"
       visible="true" /></sodipodi:namedview><defs
     id="defs1" /><g
     inkscape:label="Layer 1"
     inkscape:groupmode="layer"
     id="layer1"><g
       inkscape:label="Layer 1"
       id="layer1-8"
       transform="translate(100,300)"><path
         id="path2"
         style="fill:#000000;fill-opacity:0.555319;fill-rule:evenodd;stroke-width:0.999873"
         d="M 200,500 C 399.9998,500 500,400 500,300 500,200 374.99982,100 200,100 c -174.99973,0.18455 -300,100.0001 -300,200 0,99.9999 125.00018,200 300,200 z M 100,300 c 0,-74.99992 58.8081,-100 100,-100 50,0 100,25.19303 100,100 0,74.80696 -50,100 -100,100 -50,0 -100,-25.00008 -100,-100 z"
         sodipodi:nodetypes="sscsssssss" /><path
         id="path2-7-6"
         style="fill:#000000;fill-opacity:0.555319;fill-rule:evenodd;stroke-width:0.999873"
         d="m 200,475 c 33.80805,0.89955 75,25 75,75 0,42.61611 -75,50 -125,50 -89.51027,0 -175,-25 -175,-25 v 100 c 0,0 75,25 175,25 166.66033,0 325,-50.0001 325,-150 0,-99.9999 -100.00018,-150 -275,-150 z"
         sodipodi:nodetypes="cssccsscc" /><path
         id="path2-7-6-8"
         style="fill:#000000;fill-opacity:0.555319;fill-rule:evenodd;stroke-width:0.999873"
         d="M 200,125 C 166.19195,124.10045 125,100 125,50 125,7.38389 200,0 250,0 339.51027,0 425,25 425,25 V -75 c 0,0 -75,-25 -175,-25 -166.66033,0 -325,50.0001 -325,150 0,99.9999 100.00018,150 275,150 z"
         sodipodi:nodetypes="cssccsscc" /><path
         id="path2-9"
         style="fill:#000000;fill-opacity:0.555319;fill-rule:evenodd;stroke-width:0.999873"
         d="M 250 -100 C 83.339837 -100 -75 -49.9998 -75 50 C -75 97.53386 -52.361894 133.74637 -9.8574219 158.68555 C -66.443406 196.55728 -100 248.23566 -100 300 C -100 399.9998 25.000355 500 200 500 C 218.79238 500 236.69995 499.11446 253.72656 497.43164 C 266.32484 509.72378 275 527.11796 275 550 C 275 592.61607 199.99995 600 150 600 C 60.48982 600 -25 575 -25 575 L -25 675 C -25 675 50.0001 700 150 700 C 316.66016 700 475 649.9998 475 550 C 475 504.46534 454.2017 469.3338 415.09375 444.5332 C 471.69334 406.39049 500 353.19751 500 300 C 500 200.0001 374.99965 100 200 100 C 181.74903 100.01925 164.08019 101.18015 147.00195 103.25391 C 134.01246 90.928166 125 73.316555 125 50 C 125 7.3839326 200.00005 -5.6843419e-14 250 0 C 339.51018 0 425 25 425 25 L 425 -75 C 425 -75 349.9999 -100 250 -100 z M 200 200 C 249.99995 200 300 225.1931 300 300 C 300 374.80689 249.99995 400 200 400 C 150.00005 400 100 374.99985 100 300 C 100 225.00015 158.80814 200 200 200 z " /></g></g></svg>
