<?xml version="1.0" encoding="UTF-8" standalone="no"?>
<!-- Created with Inkscape (http://www.inkscape.org/) -->

<svg
   width="1200"
   height="1200"
   viewBox="0 0 1200 1200"
   version="1.1"
   id="svg1"
   inkscape:version="1.2.1 (9c6d41e410, 2022-07-14)"
   sodipodi:docname="216_O-with-stroke.svg"
   xml:space="preserve"
   xmlns:inkscape="http://www.inkscape.org/namespaces/inkscape"
   xmlns:sodipodi="http://sodipodi.sourceforge.net/DTD/sodipodi-0.dtd"
   xmlns="http://www.w3.org/2000/svg"
   xmlns:svg="http://www.w3.org/2000/svg"><sodipodi:namedview
     id="namedview1"
     pagecolor="#ffffff"
     bordercolor="#000000"
     borderopacity="0.25"
     inkscape:showpageshadow="2"
     inkscape:pageopacity="0.0"
     inkscape:pagecheckerboard="0"
     inkscape:deskcolor="#d1d1d1"
     inkscape:document-units="px"
     showgrid="true"
     inkscape:zoom="0.55583334"
     inkscape:cx="446.17691"
     inkscape:cy="1035.3823"
     inkscape:window-width="1080"
     inkscape:window-height="1586"
     inkscape:window-x="0"
     inkscape:window-y="22"
     inkscape:window-maximized="0"
     inkscape:current-layer="layer1"
     showguides="true"><inkscape:grid
       id="grid1"
       units="px"
       originx="0"
       originy="0"
       spacingx="25"
       spacingy="25"
       empcolor="#0099e5"
       empopacity="0.30196078"
       color="#0099e5"
       opacity="0.14901961"
       empspacing="4"
       dotted="false"
       gridanglex="30"
       gridanglez="30"
       visible="true" /></sodipodi:namedview><defs
     id="defs1" /><g
     inkscape:label="Layer 1"
     inkscape:groupmode="layer"
     id="layer1"><path
       style="fill:#000000;fill-opacity:0.555319;stroke:none;stroke-width:1px;stroke-linecap:butt;stroke-linejoin:miter;stroke-opacity:1"
       d="m 0,900 v 100 H 100 L 600,300 V 200 H 500 Z"
       id="path27800"
       sodipodi:nodetypes="ccccccc" /><path
       id="path2-8-7"
       style="fill:#000000;fill-opacity:0.555319;fill-rule:evenodd;stroke-width:0.999873"
       d="M 400,625 V 575 C 400,450 400,300 300,300 200,300 200,450 200,575 v 50 c 0,125 0,275 100,275 100,0 100,-150 100,-275 z M -4e-6,625 v -50 c 0,-200 75,-375 300.000004,-375 225,0 300,175 300,375 v 50 c 0,200 -75,375 -300,375 C 74.999996,1000 -4e-6,825 -4e-6,625 Z"
       sodipodi:nodetypes="sszsszssssssss" /><path
       id="path27800-8"
       style="fill:#000000;fill-opacity:0.555319;stroke:none;stroke-width:1px;stroke-linecap:butt;stroke-linejoin:miter;stroke-opacity:1"
       d="M 300 200 C 75.000221 200 1.040833e-15 375.0002 0 575 L 0 625 C 0 704.85677 12.01078 780.68465 40.699219 843.02148 L 0 900 L 0 1000 L 100 1000 L 132.5293 954.45898 C 175.57788 983.32496 230.63981 1000 300 1000 C 524.99977 1000 600 824.9998 600 625 L 600 575 C 600 495.14323 587.98922 419.31535 559.30078 356.97852 L 600 300 L 600 200 L 500 200 L 467.4707 245.54102 C 424.42212 216.67504 369.36019 200 300 200 z M 300 300 C 342.21306 300 366.47986 326.89878 380.57617 367.19336 L 200 620 L 200 575 C 200 450.00013 200.0001 300 300 300 z M 400 580 L 400 625 C 400 749.99987 399.9999 900 300 900 C 257.78694 900 233.52014 873.10122 219.42383 832.80664 L 400 580 z " /></g></svg>
