<?xml version="1.0" encoding="UTF-8" standalone="no"?>
<!-- Created with Inkscape (http://www.inkscape.org/) -->

<svg
   width="1200"
   height="1200"
   viewBox="0 0 1200 1200"
   version="1.1"
   id="svg1"
   inkscape:version="1.2.2 (732a01da63, 2022-12-09)"
   sodipodi:docname="223_sharp-s.svg"
   xml:space="preserve"
   xmlns:inkscape="http://www.inkscape.org/namespaces/inkscape"
   xmlns:sodipodi="http://sodipodi.sourceforge.net/DTD/sodipodi-0.dtd"
   xmlns="http://www.w3.org/2000/svg"
   xmlns:svg="http://www.w3.org/2000/svg"><sodipodi:namedview
     id="namedview1"
     pagecolor="#ffffff"
     bordercolor="#000000"
     borderopacity="0.25"
     inkscape:showpageshadow="2"
     inkscape:pageopacity="0.0"
     inkscape:pagecheckerboard="0"
     inkscape:deskcolor="#d1d1d1"
     inkscape:document-units="px"
     showgrid="true"
     inkscape:zoom="1.1116667"
     inkscape:cx="287.85606"
     inkscape:cy="624.28784"
     inkscape:window-width="1649"
     inkscape:window-height="1486"
     inkscape:window-x="102"
     inkscape:window-y="115"
     inkscape:window-maximized="0"
     inkscape:current-layer="layer1"
     showguides="false"><inkscape:grid
       id="grid1"
       units="px"
       originx="0"
       originy="0"
       spacingx="25"
       spacingy="25"
       empcolor="#0099e5"
       empopacity="0.30196078"
       color="#0099e5"
       opacity="0.14901961"
       empspacing="4"
       dotted="false"
       gridanglex="30"
       gridanglez="30"
       visible="true" /></sodipodi:namedview><defs
     id="defs1" /><g
     inkscape:label="Layer 1"
     inkscape:groupmode="layer"
     id="layer1"><path
       id="path2-8-2"
       style="fill:#000000;fill-opacity:0.555319;fill-rule:evenodd;stroke-width:0.999873"
       d="m 200,375 c 0,-24.99996 25.00014,-75 100,-75 74.99986,0 100,50.00004 100,75 v 50 c 0,24.99996 -25.00014,75 -100,75 v 100 c 74.99986,0 100,50.00015 100,125 v 50 c 0,69.07782 -25.00014,125 -100,125 v 100 c 224.99955,0 300,-100.00025 300,-225 V 725 C 600,656.34213 577.29101,595.27223 519.60938,554.12695 558.56429,526.26669 575,484.43035 575,425 V 375 C 575,250.00024 499.9996,200 300,200 100.0004,200 0,250.00024 0,375 v 725 h 200 z"
       sodipodi:nodetypes="csssccssccsscssscccc" /></g></svg>
