<?xml version="1.0" encoding="UTF-8" standalone="no"?>
<!-- Created with Inkscape (http://www.inkscape.org/) -->

<svg
   width="1200"
   height="1200"
   viewBox="0 0 1200 1200"
   version="1.1"
   id="svg1"
   inkscape:version="1.2.1 (9c6d41e410, 2022-07-14)"
   sodipodi:docname="230_ae.svg"
   xml:space="preserve"
   xmlns:inkscape="http://www.inkscape.org/namespaces/inkscape"
   xmlns:sodipodi="http://sodipodi.sourceforge.net/DTD/sodipodi-0.dtd"
   xmlns="http://www.w3.org/2000/svg"
   xmlns:svg="http://www.w3.org/2000/svg"><sodipodi:namedview
     id="namedview1"
     pagecolor="#ffffff"
     bordercolor="#000000"
     borderopacity="0.25"
     inkscape:showpageshadow="2"
     inkscape:pageopacity="0.0"
     inkscape:pagecheckerboard="0"
     inkscape:deskcolor="#d1d1d1"
     inkscape:document-units="px"
     showgrid="true"
     inkscape:zoom="0.27791667"
     inkscape:cx="208.69565"
     inkscape:cy="1113.6432"
     inkscape:window-width="1080"
     inkscape:window-height="1586"
     inkscape:window-x="0"
     inkscape:window-y="22"
     inkscape:window-maximized="0"
     inkscape:current-layer="layer1"
     showguides="false"><inkscape:grid
       id="grid1"
       units="px"
       originx="0"
       originy="0"
       spacingx="25"
       spacingy="25"
       empcolor="#0099e5"
       empopacity="0.30196078"
       color="#0099e5"
       opacity="0.14901961"
       empspacing="4"
       dotted="false"
       gridanglex="30"
       gridanglez="30"
       visible="true" /></sodipodi:namedview><defs
     id="defs1" /><g
     inkscape:label="Layer 1"
     inkscape:groupmode="layer"
     id="layer1"><path
       id="path2"
       style="fill:#000000;fill-opacity:0.555319;fill-rule:evenodd;stroke-width:0.999873"
       d="M 125,400 C 75,400 25,425 25,425 v 100 c 0,0 48.346452,-26.60454 100,-25 95.67414,2.97198 125,50.00005 125,100 H 150 C 100,600 0,675.0001 0,775 v 50 c 0,99.9999 50,175 150,175 69.86186,0 128.84297,-20.3078 150,-50 39.78173,31.30502 78.76745,50 150,50 100,0 150,-125.00015 150,-200 H 500 c 0,74.61394 -25.46424,104.79528 -50,100 -23.01342,-4.49775 -50,-50.00015 -50,-125 V 700 H 600 V 600 C 600,525.00015 550,400 450,400 388.88855,400.0645 325,425 300,450 250,400 179.011,400 125,400 Z m 325,100 c 25,0 50,25.00015 50,100 H 400 c 0,-74.99985 25,-100 50,-100 z M 200,700 v 75 75 c 0,24.99997 -16.49404,50 -50,50 -25,0 -50,-25.00005 -50,-75 v -50 c 0,-49.99995 25,-75 100,-75 z"
       sodipodi:nodetypes="sccsccssscsccssccsccssccsccssssc" /></g></svg>
