<?xml version="1.0" encoding="UTF-8" standalone="no"?>
<!-- Created with Inkscape (http://www.inkscape.org/) -->

<svg
   width="1200"
   height="1200"
   viewBox="0 0 1200 1200"
   version="1.1"
   id="svg1"
   inkscape:version="1.2.1 (9c6d41e410, 2022-07-14)"
   sodipodi:docname="240_small-eth.svg"
   xml:space="preserve"
   xmlns:inkscape="http://www.inkscape.org/namespaces/inkscape"
   xmlns:sodipodi="http://sodipodi.sourceforge.net/DTD/sodipodi-0.dtd"
   xmlns="http://www.w3.org/2000/svg"
   xmlns:svg="http://www.w3.org/2000/svg"><sodipodi:namedview
     id="namedview1"
     pagecolor="#ffffff"
     bordercolor="#000000"
     borderopacity="0.25"
     inkscape:showpageshadow="2"
     inkscape:pageopacity="0.0"
     inkscape:pagecheckerboard="0"
     inkscape:deskcolor="#d1d1d1"
     inkscape:document-units="px"
     showgrid="true"
     inkscape:zoom="0.39303353"
     inkscape:cx="277.33003"
     inkscape:cy="730.2176"
     inkscape:window-width="2560"
     inkscape:window-height="1377"
     inkscape:window-x="1072"
     inkscape:window-y="-8"
     inkscape:window-maximized="1"
     inkscape:current-layer="layer1"
     showguides="false"><inkscape:grid
       id="grid1"
       units="px"
       originx="0"
       originy="0"
       spacingx="25"
       spacingy="25"
       empcolor="#0099e5"
       empopacity="0.30196078"
       color="#0099e5"
       opacity="0.14901961"
       empspacing="4"
       dotted="false"
       gridanglex="30"
       gridanglez="30"
       visible="true" /></sodipodi:namedview><defs
     id="defs1" /><g
     inkscape:label="Layer 1"
     inkscape:groupmode="layer"
     id="layer1"><path
       style="fill:#000000;fill-opacity:0.555319;stroke:none;stroke-width:1px;stroke-linecap:butt;stroke-linejoin:miter;stroke-opacity:1"
       d="m 50,250 c 0,0 350,241.71664 350,475 H 600 C 591.90405,400.52474 100,200 100,200 Z"
       id="path1330"
       sodipodi:nodetypes="ccccc" /><path
       style="fill:#000000;fill-opacity:0.555319;stroke:none;stroke-width:1px;stroke-linecap:butt;stroke-linejoin:miter;stroke-opacity:1"
       d="m 400,200 h 125 v 50 L 25,500 H 0 V 400 Z"
       id="path40253"
       sodipodi:nodetypes="ccccccc" /><path
       id="path2"
       style="fill:#000000;fill-opacity:0.555319;fill-rule:evenodd;stroke-width:0.999873"
       d="M 600,725 C 600,625 474.9998,499.90772 300,500 125.0002,500.0923 0,625.0001 0,725 v 50 c 0,99.9999 125.00018,225 300,225 175,0 300,-125 300,-225 z m -400,0 c 0,-74.99992 50.00005,-125 100,-125 50,0 100,50.00008 100,125 v 50 c 0,74.61401 -50,125 -100,125 -50,0 -100,-50.00008 -100,-125 z"
       sodipodi:nodetypes="csssscccsccscc" /><path
       id="path1330-8"
       style="fill:#000000;fill-opacity:0.555319;stroke:none;stroke-width:1px;stroke-linecap:butt;stroke-linejoin:miter;stroke-opacity:1"
       d="M 100 200 L 50 250 C 50 250 92.062789 279.28501 146.71875 326.64062 L 0 400 L 0 500 L 25 500 L 224.98633 400.00586 C 254.71192 430.44029 284.35245 464.29275 310.64844 500.23242 C 307.10909 500.13071 303.58189 499.99811 300 500 C 125.00037 500.0923 0 625.0002 0 725 L 0 775 C 0 874.9998 125.00035 1000 300 1000 C 474.99982 1000 600 874.9999 600 775 L 600 725 C 600 721.40788 599.79372 717.77686 599.47461 714.12695 C 590.22576 556.25699 467.16516 428.4583 345.47656 339.76172 L 525 250 L 525 200 L 400 200 L 248.18555 275.90625 C 165.07357 226.60626 100 200 100 200 z M 300 600 C 349.99995 600 400 650.00015 400 725 L 400 775 C 400 849.61394 349.99995 900 300 900 C 250.00005 900 200 849.99985 200 775 L 200 725 C 200 650.00015 250.0001 600 300 600 z " /></g></svg>
