<?xml version="1.0" encoding="UTF-8" standalone="no"?>
<!-- Created with Inkscape (http://www.inkscape.org/) -->

<svg
   width="1200"
   height="1200"
   viewBox="0 0 1200 1200"
   version="1.1"
   id="svg1"
   inkscape:version="1.2.1 (9c6d41e410, 2022-07-14)"
   sodipodi:docname="248_o-with-stroke.svg"
   xml:space="preserve"
   xmlns:inkscape="http://www.inkscape.org/namespaces/inkscape"
   xmlns:sodipodi="http://sodipodi.sourceforge.net/DTD/sodipodi-0.dtd"
   xmlns="http://www.w3.org/2000/svg"
   xmlns:svg="http://www.w3.org/2000/svg"><sodipodi:namedview
     id="namedview1"
     pagecolor="#ffffff"
     bordercolor="#000000"
     borderopacity="0.25"
     inkscape:showpageshadow="2"
     inkscape:pageopacity="0.0"
     inkscape:pagecheckerboard="0"
     inkscape:deskcolor="#d1d1d1"
     inkscape:document-units="px"
     showgrid="true"
     inkscape:zoom="0.55583334"
     inkscape:cx="191.6042"
     inkscape:cy="907.64616"
     inkscape:window-width="1080"
     inkscape:window-height="1586"
     inkscape:window-x="0"
     inkscape:window-y="22"
     inkscape:window-maximized="0"
     inkscape:current-layer="layer1"
     showguides="false"><inkscape:grid
       id="grid1"
       units="px"
       originx="0"
       originy="0"
       spacingx="25"
       spacingy="25"
       empcolor="#0099e5"
       empopacity="0.30196078"
       color="#0099e5"
       opacity="0.14901961"
       empspacing="4"
       dotted="false"
       gridanglex="30"
       gridanglez="30"
       visible="true" /></sodipodi:namedview><defs
     id="defs1" /><g
     inkscape:label="Layer 1"
     inkscape:groupmode="layer"
     id="layer1"><path
       style="fill:#000000;fill-opacity:0.555319;stroke:none;stroke-width:1px;stroke-linecap:butt;stroke-linejoin:miter;stroke-opacity:1"
       d="m 0,1000 100,0 500,-500 V 400 H 500 L 0,900 Z"
       id="path29680"
       sodipodi:nodetypes="ccccccc" /><path
       id="path2-93"
       style="fill:#000000;fill-opacity:0.555319;fill-rule:evenodd;stroke-width:0.999873"
       d="m 600,625.00003 c 0,-100 -125.0002,-225.09228 -300,-225 C 125.0002,400.09233 10e-7,525.00013 10e-7,625.00003 v 150 C 10e-7,874.99993 125.00018,1000 300,1000 475,1000 600,875.00003 600,775.00003 Z m -400,0 c 0,-74.99992 50.00005,-125 100,-125 50,0 100,50.00008 100,125 v 150 c 0,74.61401 -50,125 -100,125 -50,0 -100,-50.00008 -100,-125 z"
       sodipodi:nodetypes="csssscccsccscc" /><path
       id="path29680-2"
       style="fill:#000000;fill-opacity:0.555319;stroke:none;stroke-width:1px;stroke-linecap:butt;stroke-linejoin:miter;stroke-opacity:1"
       d="M 300 400 C 125.00037 400.0923 -7.5791149e-14 525.0002 0 625 L 0 775 C 0 805.10179 11.396565 837.45506 32.003906 867.99609 L 0 900 L 0 1000 L 100 1000 L 138.95312 961.04688 C 184.52132 984.90886 239.23547 1000 300 1000 C 474.99982 1000 600 874.9999 600 775 L 600 625 C 600 594.9017 588.60667 562.54316 568.00391 531.99609 L 600 500 L 600 400 L 500 400 L 461.07227 438.92773 C 415.49879 415.05684 360.77631 399.96795 300 400 z M 300 500 C 324.35196 500 348.65889 511.9331 367.23438 532.76562 L 200 700 L 200 625 C 200 550.00015 250.0001 500 300 500 z M 400 700 L 400 775 C 400 849.61394 349.99995 900 300 900 C 275.64804 900 251.34111 888.0669 232.76562 867.23438 L 400 700 z " /></g></svg>
