<?xml version="1.0" encoding="UTF-8" standalone="no"?>
<!-- Created with Inkscape (http://www.inkscape.org/) -->

<svg
   width="1200"
   height="1200"
   viewBox="0 0 1200 1200"
   version="1.1"
   id="svg1"
   inkscape:version="1.2.2 (732a01da63, 2022-12-09)"
   sodipodi:docname="ascii_38_ampersand.svg"
   xml:space="preserve"
   xmlns:inkscape="http://www.inkscape.org/namespaces/inkscape"
   xmlns:sodipodi="http://sodipodi.sourceforge.net/DTD/sodipodi-0.dtd"
   xmlns="http://www.w3.org/2000/svg"
   xmlns:svg="http://www.w3.org/2000/svg"><sodipodi:namedview
     id="namedview1"
     pagecolor="#ffffff"
     bordercolor="#000000"
     borderopacity="0.25"
     inkscape:showpageshadow="2"
     inkscape:pageopacity="0.0"
     inkscape:pagecheckerboard="0"
     inkscape:deskcolor="#d1d1d1"
     inkscape:document-units="px"
     showgrid="true"
     inkscape:zoom="0.78606706"
     inkscape:cx="-22.262732"
     inkscape:cy="862.52183"
     inkscape:window-width="3840"
     inkscape:window-height="2066"
     inkscape:window-x="-11"
     inkscape:window-y="-11"
     inkscape:window-maximized="1"
     inkscape:current-layer="layer1"
     showguides="false"><inkscape:grid
       id="grid1"
       units="px"
       originx="0"
       originy="0"
       spacingx="25"
       spacingy="25"
       empcolor="#0099e5"
       empopacity="0.30196078"
       color="#0099e5"
       opacity="0.14901961"
       empspacing="4"
       dotted="false"
       gridanglex="30"
       gridanglez="30"
       visible="true" /></sodipodi:namedview><defs
     id="defs1" /><g
     inkscape:label="Layer 1"
     inkscape:groupmode="layer"
     id="layer1"><path
       id="path2"
       style="fill:#000000;fill-opacity:0.555319;fill-rule:evenodd;stroke-width:0.999873"
       d="M 400,600 C 550,600 600,500 600,400 600,300 524.99982,200 350,200 175.00027,200.18455 100,300.0001 100,400 c 0,99.9999 28.4108,126.61169 100,200 l 400,400 H 700 V 900 L 300,500 c -25,-25 -24.55022,-45.68973 -25,-100 -0.6211,-74.99735 25.00005,-100 75,-100 50,0 75,25.00008 75,99.80705 C 425,474.61401 376.97765,499.31562 325,500 h -25 z"
       sodipodi:nodetypes="cscccccccscsccc" /><path
       id="path2-1"
       style="fill:#000000;fill-opacity:0.555319;fill-rule:evenodd;stroke-width:0.999873"
       d="m 575,775 c 37.73064,-38.23566 95.79558,-98.45424 125,-125 V 550 H 600 C 534.72046,615.27954 480.07538,668.15128 400,750 357.41002,793.53317 300,900 250,900 216.19195,899.10045 175,874.99992 175,800 175,725.00008 200.00005,700 250,700 H 400 V 600 H 250 C 75.00027,600.18455 0,700.0001 0,800 c 0,99.9999 75.221356,191.20441 250,200 101.11688,5.0886 175,-25 250,-100 z"
       sodipodi:nodetypes="ccccscsccccsscc" /><path
       id="path2-2"
       style="fill:#000000;fill-opacity:0.555319;fill-rule:evenodd;stroke-width:0.999873"
       d="M 350 200 C 175.00044 200.18455 100 300.0002 100 400 C 100 499.9998 128.41087 526.61176 200 600 L 202.69336 602.69336 C 61.401954 619.21994 0 709.52797 0 800 C 0 899.9998 75.221531 991.20442 250 1000 C 351.11678 1005.0886 425.00007 974.99992 500 900 L 600 1000 L 700 1000 L 700 900 L 575 775 C 612.7306 736.76438 670.79561 676.54573 700 650 L 700 550 L 600 550 C 557.21086 592.78914 518.45028 630.86046 474.64258 674.64258 L 400 600 C 549.99985 600 600 499.9999 600 400 C 600 300.0001 524.99965 200 350 200 z M 350 300 C 399.99995 300 425 324.99975 425 399.80664 C 425 474.61353 376.9776 499.31562 325 500 L 300 500 C 275.00002 475.00002 275.44978 454.31022 275 400 C 274.3789 325.00272 300.0001 300 350 300 z M 250 700 L 300 700 L 377.06836 777.06836 C 338.05336 826.89917 291.52854 900 250 900 C 216.19198 899.10045 175 874.99985 175 800 C 175 725.00015 200.0001 700 250 700 z " /></g></svg>
