<?xml version="1.0" encoding="UTF-8" standalone="no"?>
<!-- Created with Inkscape (http://www.inkscape.org/) -->

<svg
   width="1200"
   height="1200"
   viewBox="0 0 1200 1200"
   version="1.1"
   id="svg1"
   inkscape:version="1.2.1 (9c6d41e410, 2022-07-14)"
   sodipodi:docname="ascii_38_ampersand.svg"
   xml:space="preserve"
   xmlns:inkscape="http://www.inkscape.org/namespaces/inkscape"
   xmlns:sodipodi="http://sodipodi.sourceforge.net/DTD/sodipodi-0.dtd"
   xmlns="http://www.w3.org/2000/svg"
   xmlns:svg="http://www.w3.org/2000/svg"><sodipodi:namedview
     id="namedview1"
     pagecolor="#ffffff"
     bordercolor="#000000"
     borderopacity="0.25"
     inkscape:showpageshadow="2"
     inkscape:pageopacity="0.0"
     inkscape:pagecheckerboard="0"
     inkscape:deskcolor="#d1d1d1"
     inkscape:document-units="px"
     showgrid="true"
     inkscape:zoom="1.1116667"
     inkscape:cx="62.968514"
     inkscape:cy="549.62517"
     inkscape:window-width="2560"
     inkscape:window-height="1377"
     inkscape:window-x="1072"
     inkscape:window-y="-8"
     inkscape:window-maximized="1"
     inkscape:current-layer="layer1"
     showguides="false"><inkscape:grid
       id="grid1"
       units="px"
       originx="0"
       originy="0"
       spacingx="25"
       spacingy="25"
       empcolor="#0099e5"
       empopacity="0.30196078"
       color="#0099e5"
       opacity="0.14901961"
       empspacing="4"
       dotted="false"
       gridanglex="30"
       gridanglez="30"
       visible="true" /></sodipodi:namedview><defs
     id="defs1" /><g
     inkscape:label="Layer 1"
     inkscape:groupmode="layer"
     id="layer1"><path
       id="path2"
       style="fill:#000000;fill-opacity:0.555319;fill-rule:nonzero;stroke-width:0.999873"
       d="M 700,675 V 550 H 625 L 400,775 c -50,50 -100,125 -150,125 -50,0 -75,-25 -75,-100 0,-75 50,-100 100,-100 150,0 325,-200 325,-300 0,-100 -75.0002,-200.09228 -250,-200 -174.9998,0.0923 -250,100 -250,175 0,99.9999 42.69812,130.41915 100,200 l 350,425 H 700 V 950 L 300,500 c -23.48881,-26.42491 -25,-75 -25,-100 0,-74.99992 25.00002,-100 75,-100 49.99997,0 75,25 75,99.80705 C 425,525 275,600 200,600 58.234927,600 1.7991004,706.31208 0,800 c -1.9199561,99.98147 50,200 250,200 122.83404,0 150,-25 225,-100 z"
       sodipodi:nodetypes="cccssssszsscccsszsssssc" /><path
       id="path2-8"
       style="fill:#000000;fill-opacity:0.555319;fill-rule:nonzero;stroke-width:0.999873"
       d="M 350 200 C 175.00037 200.0923 100 300.00007 100 375 C 100 474.9998 142.69818 505.41922 200 575 L 219.29297 598.42578 C 212.50679 599.35856 205.95354 600 200 600 C 58.235069 600 1.7990986 706.31217 0 800 C -1.9199542 899.98137 50.0002 1000 250 1000 C 370.45407 1000 399.16326 975.66003 470.94531 904.00391 L 550 1000 L 700 1000 L 700 950 L 570.58789 804.41211 L 700 675 L 700 550 L 625 550 L 476.4707 698.5293 L 427.41602 643.34375 C 523.01367 576.56569 600 466.31763 600 400 C 600 300.0001 524.99963 199.90772 350 200 z M 350 300 C 399.99992 300 425 324.99967 425 399.80664 C 425 462.12936 387.8105 511.99013 341.22266 546.375 L 300 500 C 276.51121 473.57512 275 424.99997 275 400 C 275 325.00015 300.00007 300 350 300 z M 301.27734 697.97852 L 381.09375 794.90039 C 337.39582 842.71764 293.69793 900 250 900 C 200.00005 900 175 874.99992 175 800 C 175 725.00008 225.00005 700 275 700 C 283.68646 700 292.46205 699.26167 301.27734 697.97852 z " /></g></svg>
