<?xml version="1.0" encoding="UTF-8" standalone="no"?>
<!-- Created with Inkscape (http://www.inkscape.org/) -->

<svg
   width="1200"
   height="1200"
   viewBox="0 0 1200 1200"
   version="1.1"
   id="svg1"
   inkscape:version="1.2.1 (9c6d41e410, 2022-07-14)"
   sodipodi:docname="ascii_35_dollar-sign.svg"
   xml:space="preserve"
   xmlns:inkscape="http://www.inkscape.org/namespaces/inkscape"
   xmlns:sodipodi="http://sodipodi.sourceforge.net/DTD/sodipodi-0.dtd"
   xmlns="http://www.w3.org/2000/svg"
   xmlns:svg="http://www.w3.org/2000/svg"><sodipodi:namedview
     id="namedview1"
     pagecolor="#ffffff"
     bordercolor="#000000"
     borderopacity="0.25"
     inkscape:showpageshadow="2"
     inkscape:pageopacity="0.0"
     inkscape:pagecheckerboard="0"
     inkscape:deskcolor="#d1d1d1"
     inkscape:document-units="px"
     showgrid="true"
     inkscape:zoom="0.39303353"
     inkscape:cx="-765.83797"
     inkscape:cy="748.02778"
     inkscape:window-width="2560"
     inkscape:window-height="1377"
     inkscape:window-x="1072"
     inkscape:window-y="-8"
     inkscape:window-maximized="1"
     inkscape:current-layer="layer1"
     showguides="false"><inkscape:grid
       id="grid1"
       units="px"
       originx="0"
       originy="0"
       spacingx="25"
       spacingy="25"
       empcolor="#0099e5"
       empopacity="0.30196078"
       color="#0099e5"
       opacity="0.14901961"
       empspacing="4"
       dotted="false"
       gridanglex="30"
       gridanglez="30"
       visible="true" /></sodipodi:namedview><defs
     id="defs1" /><g
     inkscape:label="Layer 1"
     inkscape:groupmode="layer"
     id="layer1"><rect
       style="fill:#000000;fill-opacity:0.56;fill-rule:evenodd;stroke-width:4;stroke-linecap:square;stroke-linejoin:bevel;stroke-miterlimit:4.5;stop-color:#000000"
       id="rect3822"
       width="200"
       height="1000"
       x="200"
       y="100" /><path
       id="path2-5-6"
       style="fill:#000000;fill-opacity:0.555319;fill-rule:evenodd;stroke-width:0.999873"
       d="M 300,200 C 175.00012,200 -3.9999999e-6,249.61424 -3.9999999e-6,400 -3.9999999e-6,699.9997 475,600.0002 475,800 475,849.99995 425,900 300,900 175,900 75,825 75,725 H -4e-6 V 875 C 82.68319,944.30541 194.65572,1000 300,1000 424.99987,1000 600,949.99985 600,800 600,500.0003 125,599.9998 125,400 c 0,-49.99995 48.29689,-101.7991 175,-100 124.9874,1.77474 225,75 225,175 h 75 V 325 C 517.27503,256.6477 405.25627,200 300,200 Z"
       sodipodi:nodetypes="sssscccsssscccs" /><path
       id="rect3822-5"
       style="fill:#000000;fill-opacity:0.56;fill-rule:evenodd;stroke-width:4;stroke-linecap:square;stroke-linejoin:bevel;stroke-miterlimit:4.5;stop-color:#000000"
       d="M 200 100 L 200 210.19336 C 98.18699 231.25973 5.6770418e-14 287.35553 0 400 C 0 534.13864 94.99416 588.25372 200 625.02734 L 200 882.31055 C 125.75886 854.48377 75 796.15495 75 725 L 0 725 L 0 875 C 56.741666 922.56111 127.27914 963.70155 200 984.8418 L 200 1100 L 400 1100 L 400 989.75195 C 501.81304 968.59512 600 912.35544 600 800 C 600 665.86136 505.00584 611.74628 400 574.97266 L 400 318.46289 C 474.23703 346.4115 525 403.84695 525 475 L 600 475 L 600 325 C 543.24188 278.10306 472.69233 236.72677 400 215.36523 L 400 100 L 200 100 z M 200 313.54492 L 200 505.06641 C 155.05115 481.58515 125 450.28095 125 400 C 125 366.33823 147.03149 331.93353 200 313.54492 z M 400 694.93359 C 444.94885 718.41485 475 749.71905 475 800 C 475 833.49756 452.40106 866.91624 400 885.37891 L 400 694.93359 z " /></g></svg>
