<?xml version="1.0" encoding="UTF-8" standalone="no"?>
<!-- Created with Inkscape (http://www.inkscape.org/) -->

<svg
   width="1200"
   height="1200"
   viewBox="0 0 1200 1200"
   version="1.1"
   id="svg1"
   inkscape:version="1.2.2 (732a01da63, 2022-12-09)"
   sodipodi:docname="ascii_56_8.svg"
   xml:space="preserve"
   xmlns:inkscape="http://www.inkscape.org/namespaces/inkscape"
   xmlns:sodipodi="http://sodipodi.sourceforge.net/DTD/sodipodi-0.dtd"
   xmlns="http://www.w3.org/2000/svg"
   xmlns:svg="http://www.w3.org/2000/svg"><sodipodi:namedview
     id="namedview1"
     pagecolor="#ffffff"
     bordercolor="#000000"
     borderopacity="0.25"
     inkscape:showpageshadow="2"
     inkscape:pageopacity="0.0"
     inkscape:pagecheckerboard="0"
     inkscape:deskcolor="#d1d1d1"
     inkscape:document-units="px"
     showgrid="true"
     inkscape:zoom="1.1116667"
     inkscape:cx="377.36131"
     inkscape:cy="621.58919"
     inkscape:window-width="3840"
     inkscape:window-height="2066"
     inkscape:window-x="-11"
     inkscape:window-y="-11"
     inkscape:window-maximized="1"
     inkscape:current-layer="layer1"
     showguides="false"><inkscape:grid
       id="grid1"
       units="px"
       originx="0"
       originy="0"
       spacingx="25"
       spacingy="25"
       empcolor="#0099e5"
       empopacity="0.30196078"
       color="#0099e5"
       opacity="0.14901961"
       empspacing="4"
       dotted="false"
       gridanglex="30"
       gridanglez="30"
       visible="true" /></sodipodi:namedview><defs
     id="defs1" /><g
     inkscape:label="Layer 1"
     inkscape:groupmode="layer"
     id="layer1"><path
       id="path2-8"
       style="fill:#000000;fill-opacity:0.555319;fill-rule:evenodd;stroke-width:0.999873"
       d="m 400,425 v -50 c 0,-25 -25,-75 -100,-75 -75,0 -100,50 -100,75 v 50 c 0,25 25,75 100,75 75,0 100,-50 100,-75 z m -375,0 v -50 c 0,-125 75,-175 275,-175 200,0 275,50 275,175 v 50 C 575,550 502.51125,597.30135 300,600 100.01776,602.66495 25,550 25,425 Z"
       sodipodi:nodetypes="ssssssssssssss" /><path
       id="path2-8-3-0"
       style="fill:#000000;fill-opacity:0.555319;fill-rule:evenodd;stroke-width:0.999873"
       d="m 400,775 v -50 c 0,-75 -25,-125 -100,-125 -75,0 -100,50 -100,125 v 50 c 0,75 25,125 100,125 75,0 100,-55.92204 100,-125 z M 0,775 V 725 C 0,600 75,500 300,500 c 225,0 300,100 300,225 v 50 c 0,125 -75,225 -300,225 C 75,1000 0,900 0,775 Z"
       sodipodi:nodetypes="ssssssssssssss" /><path
       id="path2-8-2"
       style="fill:#000000;fill-opacity:0.555319;fill-rule:evenodd;stroke-width:0.999873"
       d="M 300 200 C 100.0002 200 25 250.00012 25 375 L 25 425 C 25 483.54179 41.457021 526.21637 79.496094 554.77344 C 22.477092 595.91107 2.8435877e-16 656.6993 0 725 L 0 775 C 0 899.99987 75.000225 1000 300 1000 C 524.99977 1000 600 899.99987 600 775 L 600 725 C 600 656.34206 577.29107 595.27227 519.60938 554.12695 C 558.56433 526.26666 575 484.43041 575 425 L 575 375 C 575 250.00012 499.9998 200 300 200 z M 300 300 C 374.99993 300 400 350.00002 400 375 L 400 425 C 400 449.99998 374.99993 500 300 500 C 225.00007 500 200 449.99998 200 425 L 200 375 C 200 350.00002 225.00007 300 300 300 z M 300 600 C 374.99993 600 400 650.00008 400 725 L 400 775 C 400 844.07789 374.99993 900 300 900 C 225.00007 900 200 849.99992 200 775 L 200 725 C 200 650.00008 225.00007 600 300 600 z " /></g></svg>
