<?xml version="1.0" encoding="UTF-8" standalone="no"?>
<!-- Created with Inkscape (http://www.inkscape.org/) -->

<svg
   width="1200"
   height="1200"
   viewBox="0 0 1200 1200"
   version="1.1"
   id="svg1"
   inkscape:version="1.2.2 (732a01da63, 2022-12-09)"
   sodipodi:docname="ascii_36_percentage-sign.svg"
   xml:space="preserve"
   xmlns:inkscape="http://www.inkscape.org/namespaces/inkscape"
   xmlns:sodipodi="http://sodipodi.sourceforge.net/DTD/sodipodi-0.dtd"
   xmlns="http://www.w3.org/2000/svg"
   xmlns:svg="http://www.w3.org/2000/svg"><sodipodi:namedview
     id="namedview1"
     pagecolor="#ffffff"
     bordercolor="#000000"
     borderopacity="0.25"
     inkscape:showpageshadow="2"
     inkscape:pageopacity="0.0"
     inkscape:pagecheckerboard="0"
     inkscape:deskcolor="#d1d1d1"
     inkscape:document-units="px"
     showgrid="true"
     inkscape:zoom="1.1116667"
     inkscape:cx="42.728634"
     inkscape:cy="613.49323"
     inkscape:window-width="3840"
     inkscape:window-height="2066"
     inkscape:window-x="-11"
     inkscape:window-y="-11"
     inkscape:window-maximized="1"
     inkscape:current-layer="layer1"
     showguides="false"><inkscape:grid
       id="grid1"
       units="px"
       originx="0"
       originy="0"
       spacingx="25"
       spacingy="25"
       empcolor="#0099e5"
       empopacity="0.30196078"
       color="#0099e5"
       opacity="0.14901961"
       empspacing="4"
       dotted="false"
       gridanglex="30"
       gridanglez="30"
       visible="true" /></sodipodi:namedview><defs
     id="defs1" /><g
     inkscape:label="Layer 1"
     inkscape:groupmode="layer"
     id="layer1"><path
       style="fill:#000000;fill-opacity:0.555319;stroke:none;stroke-width:1px;stroke-linecap:butt;stroke-linejoin:miter;stroke-opacity:1"
       d="m 0,900 v 100 H 100 L 800,300 V 200 H 700 Z"
       id="path4100"
       sodipodi:nodetypes="ccccccc" /><path
       id="path2"
       style="fill:#000000;fill-opacity:0.555319;fill-rule:evenodd;stroke-width:0.999873"
       d="M 250,600 C 449.9998,600 500,500 500,400 500,300 424.99982,200 250,200 75.00027,200.18455 0,300.0001 0,400 0,499.9999 75.00018,600 250,600 Z M 175,400 c 0,-74.99992 25.00005,-100 75,-100 50,0 75,25.00008 75,99.80705 0,74.80696 -50.00886,100.8579 -75,100.19295 -33.80805,-0.89955 -75,-25.00008 -75,-100 z"
       sodipodi:nodetypes="sscsssssss" /><path
       id="path2-7"
       style="fill:#000000;fill-opacity:0.555319;fill-rule:evenodd;stroke-width:0.999873"
       d="m 550,1000 c 199.9998,0 250,-100 250,-200 0,-100 -75.00018,-200 -250,-200 -174.99973,0.18455 -250,100.0001 -250,200 0,99.9999 75.00018,200 250,200 z M 475,800 c 0,-74.99992 25.00005,-100 75,-100 50,0 75,25.00008 75,99.80705 0,74.80696 -50.00886,100.8579 -75,100.19295 -33.80805,-0.89955 -75,-25.00008 -75,-100 z"
       sodipodi:nodetypes="sscsssssss" /><path
       id="path4100-5"
       style="fill:#000000;fill-opacity:0.555319;stroke:none;stroke-width:1px;stroke-linecap:butt;stroke-linejoin:miter;stroke-opacity:1"
       d="M 250 200 C 75.000445 200.18455 0 300.0002 0 400 C 0 499.9998 75.000355 600 250 600 C 268.8304 600 286.3256 599.10938 302.58008 597.41992 L 0 900 L 0 1000 L 100 1000 L 300 800 C 300 899.9998 375.00035 1000 550 1000 C 749.9996 1000 800 899.9999 800 800 C 800 700.0001 724.99965 600 550 600 C 530.95741 600.02008 513.16956 601.28576 496.46289 603.53711 L 800 300 L 800 200 L 700 200 L 500 400 C 500 300.0001 424.99965 200 250 200 z M 250 300 C 299.99995 300 325 324.99975 325 399.80664 C 325 474.61353 274.99112 500.66495 250 500 C 216.19198 499.10045 175 474.99985 175 400 C 175 325.00015 200.0001 300 250 300 z M 550 700 C 599.99995 700 625 724.99975 625 799.80664 C 625 874.61353 574.99112 900.66495 550 900 C 516.19198 899.10045 475 874.99985 475 800 C 475 725.00015 500.0001 700 550 700 z " /></g></svg>
