<?xml version="1.0" encoding="UTF-8" standalone="no"?>
<!-- Created with Inkscape (http://www.inkscape.org/) -->

<svg
   width="1200"
   height="1200"
   viewBox="0 0 1200 1200"
   version="1.1"
   id="svg1"
   inkscape:version="1.2.1 (9c6d41e410, 2022-07-14)"
   sodipodi:docname="ascii_81_Q.svg"
   xml:space="preserve"
   xmlns:inkscape="http://www.inkscape.org/namespaces/inkscape"
   xmlns:sodipodi="http://sodipodi.sourceforge.net/DTD/sodipodi-0.dtd"
   xmlns="http://www.w3.org/2000/svg"
   xmlns:svg="http://www.w3.org/2000/svg"><sodipodi:namedview
     id="namedview1"
     pagecolor="#ffffff"
     bordercolor="#000000"
     borderopacity="0.25"
     inkscape:showpageshadow="2"
     inkscape:pageopacity="0.0"
     inkscape:pagecheckerboard="0"
     inkscape:deskcolor="#d1d1d1"
     inkscape:document-units="px"
     showgrid="true"
     inkscape:zoom="1.1116667"
     inkscape:cx="342.72864"
     inkscape:cy="796.10195"
     inkscape:window-width="2560"
     inkscape:window-height="1377"
     inkscape:window-x="1072"
     inkscape:window-y="-8"
     inkscape:window-maximized="1"
     inkscape:current-layer="layer1"
     showguides="false"><inkscape:grid
       id="grid1"
       units="px"
       originx="0"
       originy="0"
       spacingx="25"
       spacingy="25"
       empcolor="#0099e5"
       empopacity="0.30196078"
       color="#0099e5"
       opacity="0.14901961"
       empspacing="4"
       dotted="false"
       gridanglex="30"
       gridanglez="30"
       visible="true" /></sodipodi:namedview><defs
     id="defs1" /><g
     inkscape:label="Layer 1"
     inkscape:groupmode="layer"
     id="layer1"><path
       id="path2-8"
       style="fill:#000000;fill-opacity:0.555319;fill-rule:evenodd;stroke-width:0.999873"
       d="M 400 200 C 175.00045 200 0 375.0004 0 575 L 0 625 C 0 824.9996 175.00045 1000 400 1000 C 431.13711 1000 461.21598 996.42636 490.09375 990.09375 L 500 1000 L 600 1100 L 625 1100 L 700 1100 L 700 1025 L 700 1000 L 630.46875 930.46875 C 733.70952 861.27104 800 747.95314 800 625 L 800 575 C 800 375.0004 624.99955 200 400 200 z M 400 300 C 524.99975 300 600 450.00025 600 575 L 600 625 C 600 696.57784 575.33764 775.85114 530.84375 830.84375 L 450 750 L 425 750 L 350 750 L 350 825 L 350 850 L 400 900 C 275.00676 898.72338 200 749.99975 200 625 L 200 575 C 200 450.00025 275.00025 300 400 300 z " /></g></svg>
