<?xml version="1.0" encoding="UTF-8" standalone="no"?>
<!-- Created with Inkscape (http://www.inkscape.org/) -->

<svg
   width="1200"
   height="1200"
   viewBox="0 0 1200 1200"
   version="1.1"
   id="svg1"
   inkscape:version="1.2.2 (732a01da63, 2022-12-09)"
   sodipodi:docname="ascii_64_ampersand.svg"
   xml:space="preserve"
   xmlns:inkscape="http://www.inkscape.org/namespaces/inkscape"
   xmlns:sodipodi="http://sodipodi.sourceforge.net/DTD/sodipodi-0.dtd"
   xmlns="http://www.w3.org/2000/svg"
   xmlns:svg="http://www.w3.org/2000/svg"><sodipodi:namedview
     id="namedview1"
     pagecolor="#ffffff"
     bordercolor="#000000"
     borderopacity="0.25"
     inkscape:showpageshadow="2"
     inkscape:pageopacity="0.0"
     inkscape:pagecheckerboard="0"
     inkscape:deskcolor="#d1d1d1"
     inkscape:document-units="px"
     showgrid="true"
     inkscape:zoom="1.5721341"
     inkscape:cx="311.36021"
     inkscape:cy="606.18239"
     inkscape:window-width="3840"
     inkscape:window-height="2066"
     inkscape:window-x="-11"
     inkscape:window-y="-11"
     inkscape:window-maximized="1"
     inkscape:current-layer="layer1"
     showguides="false"><inkscape:grid
       id="grid1"
       units="px"
       originx="0"
       originy="0"
       spacingx="25"
       spacingy="25"
       empcolor="#0099e5"
       empopacity="0.30196078"
       color="#0099e5"
       opacity="0.14901961"
       empspacing="4"
       dotted="false"
       gridanglex="30"
       gridanglez="30"
       visible="true" /></sodipodi:namedview><defs
     id="defs1" /><g
     inkscape:label="Layer 1"
     inkscape:groupmode="layer"
     id="layer1"><path
       id="path2"
       style="fill:#000000;fill-opacity:0.555319;fill-rule:evenodd;stroke-width:0.999873"
       d="m 600,1000 c 150,0 200,-50 200,-50 V 850 c 0,0 -71.10758,54.03713 -200,50 H 425 C 300.00013,900 200,749.99987 200,625 v -50 c 0,-124.99987 100.00145,-274.39834 225,-275 264.30096,-1.27216 275,50.00005 275,100 v 250 c 0,25 -5e-5,50 -50,50 -49.99995,0 -50,-26.42977 -50,-50 V 400 H 500 c -125,0 -200,75 -200,200 0,125 27.93041,202.54431 200,200 h 175 c 75,0 125,-50.00008 125,-125 V 400 C 798.72784,301.65817 699.99973,200 425,200 200.00023,200 0,375.0002 0,575 v 50 c 0,199.9998 200.00023,375 425,375 z M 500,500 v 100 c 0,75 -2.10124,100 -50,100 -49.99995,0 -50,-25 -50,-100 0,-75 25,-100 100,-100 z"
       sodipodi:nodetypes="cccccssssssccsscsscssscccsssc" /></g></svg>
