<?xml version="1.0" encoding="UTF-8" standalone="no"?>
<!-- Created with Inkscape (http://www.inkscape.org/) -->

<svg
   width="1200"
   height="1200"
   viewBox="0 0 1200 1200"
   version="1.1"
   id="svg1"
   inkscape:version="1.2.1 (9c6d41e410, 2022-07-14)"
   sodipodi:docname="ascii_36_dollar-sign.svg"
   xml:space="preserve"
   xmlns:inkscape="http://www.inkscape.org/namespaces/inkscape"
   xmlns:sodipodi="http://sodipodi.sourceforge.net/DTD/sodipodi-0.dtd"
   xmlns="http://www.w3.org/2000/svg"
   xmlns:svg="http://www.w3.org/2000/svg"><sodipodi:namedview
     id="namedview1"
     pagecolor="#ffffff"
     bordercolor="#000000"
     borderopacity="0.25"
     inkscape:showpageshadow="2"
     inkscape:pageopacity="0.0"
     inkscape:pagecheckerboard="0"
     inkscape:deskcolor="#d1d1d1"
     inkscape:document-units="px"
     showgrid="true"
     inkscape:zoom="0.78606706"
     inkscape:cx="-351.11508"
     inkscape:cy="605.5463"
     inkscape:window-width="2560"
     inkscape:window-height="1377"
     inkscape:window-x="1072"
     inkscape:window-y="-8"
     inkscape:window-maximized="1"
     inkscape:current-layer="layer1"
     showguides="false"><inkscape:grid
       id="grid1"
       units="px"
       originx="0"
       originy="0"
       spacingx="25"
       spacingy="25"
       empcolor="#0099e5"
       empopacity="0.30196078"
       color="#0099e5"
       opacity="0.14901961"
       empspacing="4"
       dotted="false"
       gridanglex="30"
       gridanglez="30"
       visible="true" /></sodipodi:namedview><defs
     id="defs1" /><g
     inkscape:label="Layer 1"
     inkscape:groupmode="layer"
     id="layer1"><rect
       style="fill:#000000;fill-opacity:0.56;fill-rule:evenodd;stroke-width:4;stroke-linecap:square;stroke-linejoin:bevel;stroke-miterlimit:4.5;stop-color:#000000"
       id="rect3822"
       width="200"
       height="900"
       x="200"
       y="200" /><path
       id="path2-5-6"
       style="fill:#000000;fill-opacity:0.555319;fill-rule:evenodd;stroke-width:0.935296"
       d="M 300,300 C 175.00012,300 -3.9999999e-6,343.41246 -3.9999999e-6,475 -3.9999999e-6,737.49974 475,650.00017 475,825 475,868.74996 425,900 300,900 175,900 75,862.5 75,775 H -4e-6 V 890.625 C 82.68319,951.26722 194.65572,1000 300,1000 424.99987,1000 600,956.24991 600,825 600,562.50026 125,649.99983 125,475 c 0,-43.74996 48.29689,-76.57421 175,-75 124.9874,1.5529 225,37.5 225,125 h 75 V 409.375 C 517.27503,349.56674 405.25627,300 300,300 Z"
       sodipodi:nodetypes="sssscccsssscccs" /><path
       id="rect3822-2"
       style="fill:#000000;fill-opacity:0.56;fill-rule:evenodd;stroke-width:4;stroke-linecap:square;stroke-linejoin:bevel;stroke-miterlimit:4.5;stop-color:#000000"
       d="M 200 200 L 200 308.91992 C 98.186983 327.353 5.6770422e-14 376.43608 0 475 C 0 592.3615 95.00461 639.65916 200 671.83594 L 200 890.22656 C 125.75887 874.09305 75 837.26058 75 775 L 0 775 L 0 890.625 C 56.741675 932.24097 127.27913 968.23862 200 986.73633 L 200 1100 L 400 1100 L 400 991.03125 C 501.8129 972.51898 600 923.31092 600 825 C 600 707.6385 504.99539 660.34084 400 628.16406 L 400 410.45117 C 474.23703 426.69118 525 462.74108 525 525 L 600 525 L 600 409.375 C 543.24187 368.34017 472.69234 332.13666 400 313.44531 L 400 200 L 200 200 z M 200 408.71094 L 200 566.93359 C 155.05102 546.38748 125 518.99591 125 475 C 125 445.54595 147.0315 421.09836 200 408.71094 z M 400 733.06641 C 444.94898 753.61252 475 781.00409 475 825 C 475 854.31041 452.40123 877.95096 400 890.40234 L 400 733.06641 z " /></g></svg>
