<?xml version="1.0" encoding="UTF-8" standalone="no"?>
<!-- Created with Inkscape (http://www.inkscape.org/) -->

<svg
   width="1200"
   height="1200"
   viewBox="0 0 1200 1200"
   version="1.1"
   id="svg1"
   inkscape:version="1.2.2 (732a01da63, 2022-12-09)"
   sodipodi:docname="ascii_35_dollar-sign.svg"
   xml:space="preserve"
   xmlns:inkscape="http://www.inkscape.org/namespaces/inkscape"
   xmlns:sodipodi="http://sodipodi.sourceforge.net/DTD/sodipodi-0.dtd"
   xmlns="http://www.w3.org/2000/svg"
   xmlns:svg="http://www.w3.org/2000/svg"><sodipodi:namedview
     id="namedview1"
     pagecolor="#ffffff"
     bordercolor="#000000"
     borderopacity="0.25"
     inkscape:showpageshadow="2"
     inkscape:pageopacity="0.0"
     inkscape:pagecheckerboard="0"
     inkscape:deskcolor="#d1d1d1"
     inkscape:document-units="px"
     showgrid="true"
     inkscape:zoom="1.1116667"
     inkscape:cx="-116.49175"
     inkscape:cy="541.52922"
     inkscape:window-width="3840"
     inkscape:window-height="2066"
     inkscape:window-x="-11"
     inkscape:window-y="-11"
     inkscape:window-maximized="1"
     inkscape:current-layer="layer1"
     showguides="false"><inkscape:grid
       id="grid1"
       units="px"
       originx="0"
       originy="0"
       spacingx="25"
       spacingy="25"
       empcolor="#0099e5"
       empopacity="0.30196078"
       color="#0099e5"
       opacity="0.14901961"
       empspacing="4"
       dotted="false"
       gridanglex="30"
       gridanglez="30"
       visible="true" /></sodipodi:namedview><defs
     id="defs1" /><g
     inkscape:label="Layer 1"
     inkscape:groupmode="layer"
     id="layer1"><path
       id="path2-5"
       style="fill:#000000;fill-opacity:0.555319;fill-rule:evenodd;stroke-width:0.999873"
       d="M 0,400 C -0.40004977,249.61462 175,200 300,200 500,200 598.7278,301.65807 600,400 H 475 c 0,-50 -50,-100 -175,-100 -125,0 -175,50 -175,100 0,250 475,50 475,400 0,150 -175,200 -300,200 C 100,1000 1.2722,898.34193 0,800 h 125 c 0,50 50,100 175,100 113.20994,0 175,-50 175,-100 C 475,550 0.8995502,738.15592 0,400 Z"
       sodipodi:nodetypes="ssccsscsccscs" /><rect
       style="fill:#000000;fill-opacity:0.56;fill-rule:evenodd;stroke-width:4;stroke-linecap:square;stroke-linejoin:bevel;stroke-miterlimit:4.5;stop-color:#000000"
       id="rect3822"
       width="200"
       height="1000"
       x="200"
       y="100" /><path
       id="path2-5-0"
       style="fill:#000000;fill-opacity:0.555319;fill-rule:evenodd;stroke-width:0.999873"
       d="M 200 100 L 200 210.17969 C 98.072731 231.23695 -0.29970823 287.33468 0 400 C 0.40174573 551.02292 95.215802 597.01329 200 623.99609 L 200 885.37891 C 147.59894 866.91625 125 833.49759 125 800 L 0 800 C 1.0383919 880.2684 67.034122 962.72153 200 990.32617 L 200 1100 L 400 1100 L 400 989.75195 C 501.81306 968.59516 600 912.35555 600 800 C 600 643.50453 505.00603 597.02887 400 571.05859 L 400 314.62109 C 452.40106 333.08375 475 366.50241 475 400 L 600 400 C 598.96161 319.7316 532.96588 237.27847 400 209.67383 L 400 100 L 200 100 z M 200 314.62109 L 200 519.09375 C 155.05102 497.23664 125 462.85136 125 400 C 125 366.50241 147.59894 333.08375 200 314.62109 z M 400 679.16406 C 444.947 701.95197 475 737.09073 475 800 C 475 832.36379 448.96366 864.63892 400 883.44336 L 400 679.16406 z " /></g></svg>
