<?xml version="1.0" encoding="UTF-8" standalone="no"?>
<!-- Created with Inkscape (http://www.inkscape.org/) -->

<svg
   width="800"
   height="800"
   viewBox="0 0 800 800"
   version="1.1"
   id="svg1"
   inkscape:version="1.2.1 (9c6d41e410, 2022-07-14)"
   sodipodi:docname="665_B-smallcaps.svg"
   xml:space="preserve"
   xmlns:inkscape="http://www.inkscape.org/namespaces/inkscape"
   xmlns:sodipodi="http://sodipodi.sourceforge.net/DTD/sodipodi-0.dtd"
   xmlns="http://www.w3.org/2000/svg"
   xmlns:svg="http://www.w3.org/2000/svg"><sodipodi:namedview
     id="namedview1"
     pagecolor="#ffffff"
     bordercolor="#000000"
     borderopacity="0.25"
     inkscape:showpageshadow="2"
     inkscape:pageopacity="0.0"
     inkscape:pagecheckerboard="0"
     inkscape:deskcolor="#d1d1d1"
     inkscape:document-units="px"
     showgrid="true"
     inkscape:zoom="1.4953896"
     inkscape:cx="140.09727"
     inkscape:cy="442.35965"
     inkscape:window-width="1350"
     inkscape:window-height="1230"
     inkscape:window-x="1184"
     inkscape:window-y="109"
     inkscape:window-maximized="0"
     inkscape:current-layer="layer1-19"
     showguides="false"><inkscape:grid
       id="grid1"
       units="px"
       originx="0"
       originy="0"
       spacingx="12.5"
       spacingy="12.5"
       empcolor="#0099e5"
       empopacity="0.30196078"
       color="#0099e5"
       opacity="0.14901961"
       empspacing="4"
       dotted="false"
       gridanglex="30"
       gridanglez="30"
       visible="true" /></sodipodi:namedview><defs
     id="defs1" /><g
     inkscape:label="Layer 1"
     inkscape:groupmode="layer"
     id="layer1"><g
       inkscape:label="Layer 1"
       id="layer1-1"
       transform="translate(0,100)"><g
         inkscape:label="Layer 1"
         id="layer1-19"
         transform="translate(0,-100)"><path
           id="path352-3"
           style="fill:#000000;fill-opacity:0.555319;fill-rule:evenodd;stroke:none;stroke-width:3px;stroke-linecap:butt;stroke-linejoin:miter;stroke-opacity:1"
           d="m 0,350 v 75 h 150 c 24.99998,0 50,12.50002 50,37.5 0,24.99998 -25.00002,37.5 -50,37.5 H 0 V 600 H 150 C 224.99993,600 300,537.49992 300,462.5 300,387.50007 224.99993,350 150,350 Z"
           sodipodi:nodetypes="ccsssccsssc" /><path
           id="path352-3-1"
           style="fill:#000000;fill-opacity:0.555319;fill-rule:evenodd;stroke:none;stroke-width:3px;stroke-linecap:butt;stroke-linejoin:miter;stroke-opacity:1"
           d="m 0,200 v 75 h 125 c 24.99998,0 50,12.5 50,37.5 0,25 -25.00002,37.5 -50,37.5 H 0 v 75 H 125 C 199.99993,425 275,387.49992 275,312.5 275,237.50007 199.99993,200 125,200 Z"
           sodipodi:nodetypes="ccsssccsssc" /><rect
           style="fill:#000000;fill-opacity:0.555319;fill-rule:evenodd;stroke:none;stroke-width:100;stroke-linecap:round;stroke-linejoin:round;stroke-miterlimit:4.5;stop-color:#000000"
           id="rect11692"
           width="100"
           height="400"
           x="0"
           y="200" /><path
           id="path352-3-9"
           style="fill:#000000;fill-opacity:0.555319;fill-rule:evenodd;stroke:none;stroke-width:3px;stroke-linecap:butt;stroke-linejoin:miter;stroke-opacity:1"
           d="M 0 200 L 0 275 L 0 350 L 0 425 L 0 500 L 0 600 L 100 600 L 150 600 C 224.99986 600 300 537.49985 300 462.5 C 300 424.14258 280.35789 395.61909 251.15625 376.87891 C 266.00927 359.90694 275 338.45215 275 312.5 C 275 237.50014 199.99986 200 125 200 L 100 200 L 0 200 z M 100 275 L 125 275 C 149.99996 275 175 287.50002 175 312.5 C 175 337.49998 149.99996 350 125 350 L 100 350 L 100 275 z M 100 425 L 125 425 L 150 425 C 174.99996 425 200 437.50004 200 462.5 C 200 487.49996 174.99996 500 150 500 L 100 500 L 100 425 z " /></g><g
         inkscape:label="Layer 1"
         id="layer1-19-7"
         transform="translate(0,-100)" /></g></g></svg>
