<?xml version="1.0" encoding="UTF-8" standalone="no"?>
<!-- Created with Inkscape (http://www.inkscape.org/) -->

<svg
   width="1200"
   height="1200"
   viewBox="0 0 1200 1200"
   version="1.1"
   id="svg1"
   inkscape:version="1.2.2 (732a01da63, 2022-12-09)"
   sodipodi:docname="3647_currency-bhat-sign.svg"
   xml:space="preserve"
   xmlns:inkscape="http://www.inkscape.org/namespaces/inkscape"
   xmlns:sodipodi="http://sodipodi.sourceforge.net/DTD/sodipodi-0.dtd"
   xmlns="http://www.w3.org/2000/svg"
   xmlns:svg="http://www.w3.org/2000/svg"><sodipodi:namedview
     id="namedview1"
     pagecolor="#ffffff"
     bordercolor="#000000"
     borderopacity="0.25"
     inkscape:showpageshadow="2"
     inkscape:pageopacity="0.0"
     inkscape:pagecheckerboard="0"
     inkscape:deskcolor="#d1d1d1"
     inkscape:document-units="px"
     showgrid="true"
     inkscape:zoom="0.78606706"
     inkscape:cx="499.32127"
     inkscape:cy="707.31879"
     inkscape:window-width="1649"
     inkscape:window-height="1542"
     inkscape:window-x="991"
     inkscape:window-y="150"
     inkscape:window-maximized="0"
     inkscape:current-layer="layer1"
     showguides="false"><inkscape:grid
       id="grid1"
       units="px"
       originx="0"
       originy="0"
       spacingx="25"
       spacingy="25"
       empcolor="#0099e5"
       empopacity="0.30196078"
       color="#0099e5"
       opacity="0.14901961"
       empspacing="4"
       dotted="false"
       gridanglex="30"
       gridanglez="30"
       visible="true" /></sodipodi:namedview><defs
     id="defs1" /><g
     inkscape:label="Layer 1"
     inkscape:groupmode="layer"
     id="layer1"><path
       id="path2-8"
       style="fill:#000000;fill-opacity:0.555319;fill-rule:evenodd;stroke-width:0.999873"
       d="m 2e-6,200 v 800 H 200 450 c 174.99982,0 250,-125.00005 250,-225 V 725 C 700,665.22021 673.16783,596.52712 614.22266,550.92383 659.18647,512.47242 675,456.23629 675,400 675,300.00009 624.99982,200 450,200 H 200 Z M 200,300 h 175 c 48.28475,0 100,25.00006 100,100 0,74.99995 -50.00005,100 -100,100 H 200 Z m 0,300 h 200 c 48.28475,0 100,50.00008 100,125 v 50 c 0,74.99994 -50.00005,125 -100,125 H 200 Z"
       sodipodi:nodetypes="cccssscsscccssscccsssscc" /><rect
       style="fill:#000000;fill-opacity:0.555319;fill-rule:evenodd;stroke-width:4;stroke-linecap:square;stroke-linejoin:bevel;stroke-miterlimit:4.5;stroke-opacity:0.56;stop-color:#000000"
       id="rect73494"
       width="100"
       height="1000"
       x="300"
       y="100" /><path
       id="path2-8-1"
       style="fill:#000000;fill-opacity:0.555319;fill-rule:evenodd;stroke-width:0.999873"
       d="M 300 100 L 300 200 L 200 200 L 0 200 L 0 1000 L 200 1000 L 300 1000 L 300 1100 L 400 1100 L 400 1000 L 450 1000 C 624.99965 1000 700 874.99985 700 775 L 700 725 C 700 665.22027 673.16777 596.52707 614.22266 550.92383 C 659.18642 512.47246 675 456.23623 675 400 C 675 300.00019 624.99965 200 450 200 L 400 200 L 400 100 L 300 100 z M 200 300 L 300 300 L 300 500 L 200 500 L 200 300 z M 400 302.42188 C 439.57655 310.17501 475 337.93831 475 400 C 475 462.37033 440.40116 490.09022 400 497.68164 L 400 302.42188 z M 200 600 L 300 600 L 300 900 L 200 900 L 200 600 z M 400 600 C 448.2847 600 500 650.00015 500 725 L 500 775 C 500 849.99987 449.9999 900 400 900 L 400 600 z " /></g></svg>
