<?xml version="1.0" encoding="UTF-8" standalone="no"?>
<!-- Created with Inkscape (http://www.inkscape.org/) -->

<svg
   width="1200"
   height="1200"
   viewBox="0 0 1200 1200"
   version="1.1"
   id="svg1"
   inkscape:version="1.2.1 (9c6d41e410, 2022-07-14)"
   sodipodi:docname="3647_currency-bhat-sign.svg"
   xml:space="preserve"
   xmlns:inkscape="http://www.inkscape.org/namespaces/inkscape"
   xmlns:sodipodi="http://sodipodi.sourceforge.net/DTD/sodipodi-0.dtd"
   xmlns="http://www.w3.org/2000/svg"
   xmlns:svg="http://www.w3.org/2000/svg"><sodipodi:namedview
     id="namedview1"
     pagecolor="#ffffff"
     bordercolor="#000000"
     borderopacity="0.25"
     inkscape:showpageshadow="2"
     inkscape:pageopacity="0.0"
     inkscape:pagecheckerboard="0"
     inkscape:deskcolor="#d1d1d1"
     inkscape:document-units="px"
     showgrid="true"
     inkscape:zoom="0.55583335"
     inkscape:cx="407.49624"
     inkscape:cy="950.82456"
     inkscape:window-width="1080"
     inkscape:window-height="1542"
     inkscape:window-x="1080"
     inkscape:window-y="0"
     inkscape:window-maximized="0"
     inkscape:current-layer="layer1"
     showguides="false"><inkscape:grid
       id="grid1"
       units="px"
       originx="0"
       originy="0"
       spacingx="25"
       spacingy="25"
       empcolor="#0099e5"
       empopacity="0.30196078"
       color="#0099e5"
       opacity="0.14901961"
       empspacing="4"
       dotted="false"
       gridanglex="30"
       gridanglez="30"
       visible="true" /></sodipodi:namedview><defs
     id="defs1" /><g
     inkscape:label="Layer 1"
     inkscape:groupmode="layer"
     id="layer1"><path
       id="path2-8"
       style="fill:#000000;fill-opacity:0.555319;fill-rule:evenodd;stroke-width:0.999873"
       d="m 1e-6,300 v 700 H 200 450 C 624.99982,1000 705.46964,904.74719 700,800 696.4018,731.09214 673.16783,696.52712 614.22266,650.92383 659.18647,612.47242 675,556.23629 675,500 675,400.00009 624.99982,300 450,300 H 200 Z M 200,400 h 175 c 48.28475,0 100,25.00006 100,100 0,74.99995 -50.00005,100 -100,100 H 200 Z m 0,300 h 200 c 48.28475,0 100,7e-5 100,100 0,99.99993 -50.00005,100 -100,100 H 200 Z"
       sodipodi:nodetypes="cccsscsscccssscccssscc" /><rect
       style="fill:#000000;fill-opacity:0.555319;fill-rule:evenodd;stroke-width:3.79473;stroke-linecap:square;stroke-linejoin:bevel;stroke-miterlimit:4.5;stroke-opacity:0.56;stop-color:#000000"
       id="rect73494"
       width="100"
       height="900"
       x="300"
       y="200" /><path
       id="path2-8-6"
       style="fill:#000000;fill-opacity:0.555319;fill-rule:evenodd;stroke-width:0.999873"
       d="M 300 200 L 300 300 L 200 300 L 0 300 L 0 1000 L 200 1000 L 300 1000 L 300 1100 L 400 1100 L 400 1000 L 450 1000 C 624.99965 1000 705.46963 904.74709 700 800 C 696.4018 731.09221 673.16777 696.52707 614.22266 650.92383 C 659.18642 612.47246 675 556.23623 675 500 C 675 400.00019 624.99965 300 450 300 L 400 300 L 400 200 L 300 200 z M 200 400 L 300 400 L 300 600 L 200 600 L 200 400 z M 400 402.42188 C 439.57655 410.17501 475 437.93831 475 500 C 475 562.37033 440.40116 590.09022 400 597.68164 L 400 402.42188 z M 200 700 L 300 700 L 300 900 L 200 900 L 200 700 z M 400 700 C 448.2847 700 500 700.00017 500 800 C 500 899.99983 449.9999 900 400 900 L 400 700 z " /></g></svg>
