<?xml version="1.0" encoding="UTF-8" standalone="no"?>
<!-- Created with Inkscape (http://www.inkscape.org/) -->

<svg
   width="800"
   height="800"
   viewBox="0 0 800 800"
   version="1.1"
   id="svg1"
   inkscape:version="1.2.2 (732a01da63, 2022-12-09)"
   sodipodi:docname="1047_ze-capital.svg"
   xml:space="preserve"
   xmlns:inkscape="http://www.inkscape.org/namespaces/inkscape"
   xmlns:sodipodi="http://sodipodi.sourceforge.net/DTD/sodipodi-0.dtd"
   xmlns="http://www.w3.org/2000/svg"
   xmlns:svg="http://www.w3.org/2000/svg"><sodipodi:namedview
     id="namedview1"
     pagecolor="#ffffff"
     bordercolor="#000000"
     borderopacity="0.25"
     inkscape:showpageshadow="2"
     inkscape:pageopacity="0.0"
     inkscape:pagecheckerboard="0"
     inkscape:deskcolor="#d1d1d1"
     inkscape:document-units="px"
     showgrid="true"
     inkscape:zoom="1.602893"
     inkscape:cx="-171.25285"
     inkscape:cy="276.37528"
     inkscape:window-width="3840"
     inkscape:window-height="2066"
     inkscape:window-x="-11"
     inkscape:window-y="-11"
     inkscape:window-maximized="1"
     inkscape:current-layer="layer1"
     showguides="false"><inkscape:grid
       id="grid1"
       units="px"
       originx="0"
       originy="0"
       spacingx="25"
       spacingy="25"
       empcolor="#0099e5"
       empopacity="0.30196078"
       color="#0099e5"
       opacity="0.14901961"
       empspacing="4"
       dotted="false"
       gridanglex="30"
       gridanglez="30"
       visible="true" /></sodipodi:namedview><defs
     id="defs1" /><g
     inkscape:label="Layer 1"
     inkscape:groupmode="layer"
     id="layer1"><path
       id="path352-3-2-9"
       style="fill:#000000;fill-opacity:0.555319;fill-rule:evenodd;stroke:none;stroke-width:3px;stroke-linecap:butt;stroke-linejoin:miter;stroke-opacity:1"
       d="m 25,300 v 100 h 125 c 24.99992,0 50,25.00008 50,50 0,24.99992 -25.00008,50 -50,50 H 0 v 100 h 125 c 74.99992,0 175,-75.00029 175,-150 0,-74.99971 -100.00008,-150 -175,-150 z"
       sodipodi:nodetypes="ccsssccsssc" /><path
       id="path352-3-2-9-1"
       style="fill:#000000;fill-opacity:0.555319;fill-rule:evenodd;stroke:none;stroke-width:3px;stroke-linecap:butt;stroke-linejoin:miter;stroke-opacity:1"
       d="m 0,100 v 100 h 150 c 24.99992,0 50,25.00008 50,50 0,24.99992 -25.00008,50 -50,50 H 25 v 100 h 100 c 74.99992,0 175,-75.00029 175,-150 0,-74.99971 -100.00008,-150 -175,-150 z"
       sodipodi:nodetypes="ccsssccsssc" /><path
       id="path352-3-2-9-8"
       style="fill:#000000;fill-opacity:0.555319;fill-rule:evenodd;stroke:none;stroke-width:3px;stroke-linecap:butt;stroke-linejoin:miter;stroke-opacity:1"
       d="M 0 100 L 0 200 L 150 200 C 174.9999 200 200 225.0001 200 250 C 200 274.9999 174.9999 300 150 300 L 125 300 L 25 300 L 25 400 L 125 400 L 150 400 C 174.9999 400 200 425.0001 200 450 C 200 474.9999 174.9999 500 150 500 L 0 500 L 0 600 L 125 600 C 199.99985 600 300 524.99964 300 450 C 300 413.86141 276.75416 377.74809 244.30273 350 C 276.75416 322.25191 300 286.13859 300 250 C 300 175.00036 199.99985 100 125 100 L 0 100 z " /></g></svg>
