<?xml version="1.0" encoding="UTF-8" standalone="no"?>
<!-- Created with Inkscape (http://www.inkscape.org/) -->

<svg
   width="800"
   height="800"
   viewBox="0 0 800 800"
   version="1.1"
   id="svg1"
   inkscape:version="1.2.2 (732a01da63, 2022-12-09)"
   sodipodi:docname="1071_ya-capital.svg"
   xml:space="preserve"
   xmlns:inkscape="http://www.inkscape.org/namespaces/inkscape"
   xmlns:sodipodi="http://sodipodi.sourceforge.net/DTD/sodipodi-0.dtd"
   xmlns="http://www.w3.org/2000/svg"
   xmlns:svg="http://www.w3.org/2000/svg"><sodipodi:namedview
     id="namedview1"
     pagecolor="#ffffff"
     bordercolor="#000000"
     borderopacity="0.25"
     inkscape:showpageshadow="2"
     inkscape:pageopacity="0.0"
     inkscape:pagecheckerboard="0"
     inkscape:deskcolor="#d1d1d1"
     inkscape:document-units="px"
     showgrid="true"
     inkscape:zoom="1.1334165"
     inkscape:cx="-273.95049"
     inkscape:cy="406.73486"
     inkscape:window-width="3840"
     inkscape:window-height="2066"
     inkscape:window-x="-11"
     inkscape:window-y="-11"
     inkscape:window-maximized="1"
     inkscape:current-layer="layer1"
     showguides="false"><inkscape:grid
       id="grid1"
       units="px"
       originx="0"
       originy="0"
       spacingx="25"
       spacingy="25"
       empcolor="#0099e5"
       empopacity="0.30196078"
       color="#0099e5"
       opacity="0.14901961"
       empspacing="4"
       dotted="false"
       gridanglex="30"
       gridanglez="30"
       visible="true" /></sodipodi:namedview><defs
     id="defs1" /><g
     inkscape:label="Layer 1"
     inkscape:groupmode="layer"
     id="layer1"><path
       id="path352-3-2"
       style="fill:#000000;fill-opacity:0.555319;fill-rule:evenodd;stroke:none;stroke-width:3px;stroke-linecap:butt;stroke-linejoin:miter;stroke-opacity:1"
       d="M 300,600 H 200 V 400 H 175 C 100.00014,400 25,324.99986 25,250 25,175.00014 100.00014,100 175,100 h 25 100 z M 200,200 h -25 c -24.99996,0 -50,25.00004 -50,50 0,24.99996 25.00004,50 50,50 h 25 z"
       sodipodi:nodetypes="cccsssccccssscc" /><path
       id="path9691-5"
       style="fill:#000000;fill-opacity:0.555319;fill-rule:evenodd;stroke:none;stroke-width:1px;stroke-linecap:butt;stroke-linejoin:miter;stroke-opacity:1"
       d="M 100,300 C 24.87156,402.61333 0,450 0,600 h 100 c 0,-75 0,-150 50,-200 l 25,-25 z"
       sodipodi:nodetypes="cccc" /><path
       id="path352-3-1"
       style="fill:#000000;fill-opacity:0.555319;fill-rule:evenodd;stroke:none;stroke-width:3px;stroke-linecap:butt;stroke-linejoin:miter;stroke-opacity:1"
       d="M 300,100 V 600 H 200 V 400 h -25 c -7.60385,0 -15.20282,-0.80781 -22.72852,-2.27148 L 150,400 c -49.99995,49.99995 -50,125.00008 -50,200 H 0 C 0,475.09235 17.36471,421.26145 66.51562,347.52148 41.39512,320.12207 25,285.06257 25,250 25,175.00021 100.00021,100 175,100 h 25 z M 200,200 h -25 c -24.99994,0 -50,25.00006 -50,50 0,24.99994 25.00006,50 50,50 h 25 z" /></g></svg>
