<?xml version="1.0" encoding="UTF-8" standalone="no"?>
<!-- Created with Inkscape (http://www.inkscape.org/) -->

<svg
   width="1200"
   height="1200"
   viewBox="0 0 1200 1200"
   version="1.1"
   id="svg1"
   inkscape:version="1.3 (0e150ed6c4, 2023-07-21)"
   sodipodi:docname="1073_be-small.svg"
   xml:space="preserve"
   xmlns:inkscape="http://www.inkscape.org/namespaces/inkscape"
   xmlns:sodipodi="http://sodipodi.sourceforge.net/DTD/sodipodi-0.dtd"
   xmlns="http://www.w3.org/2000/svg"
   xmlns:svg="http://www.w3.org/2000/svg"><sodipodi:namedview
     id="namedview1"
     pagecolor="#ffffff"
     bordercolor="#000000"
     borderopacity="0.25"
     inkscape:showpageshadow="2"
     inkscape:pageopacity="0.0"
     inkscape:pagecheckerboard="0"
     inkscape:deskcolor="#d1d1d1"
     inkscape:document-units="px"
     showgrid="true"
     inkscape:zoom="0.78606706"
     inkscape:cx="209.90576"
     inkscape:cy="653.25215"
     inkscape:window-width="2560"
     inkscape:window-height="1494"
     inkscape:window-x="-11"
     inkscape:window-y="-11"
     inkscape:window-maximized="1"
     inkscape:current-layer="layer1"
     showguides="false"><inkscape:grid
       id="grid1"
       units="px"
       originx="0"
       originy="0"
       spacingx="25"
       spacingy="25"
       empcolor="#0099e5"
       empopacity="0.30196078"
       color="#0099e5"
       opacity="0.14901961"
       empspacing="4"
       dotted="false"
       gridanglex="30"
       gridanglez="30"
       visible="true" /></sodipodi:namedview><defs
     id="defs1" /><g
     inkscape:label="Layer 1"
     inkscape:groupmode="layer"
     id="layer1"><path
       id="path2"
       style="fill:#000000;fill-opacity:0.555319;fill-rule:evenodd;stroke-width:0.999873"
       d="M 500,525 C 500,425 424.99982,300 250,300 75.000271,300.18455 1e-6,425.0001 1e-6,525 V 675 C 1e-6,774.9999 75.000171,900 250,900 449.9998,900 500,775 500,675 Z m -325,0 c 0,-74.99992 25.00005,-125 75,-125 50,0 75,50.00008 75,125 v 150 c 0,74.61401 -50.00886,125.66495 -75,125 -33.80805,-0.89955 -75,-50.00008 -75,-125 z"
       sodipodi:nodetypes="ccssscccsccscc" /><path
       style="fill:#000000;fill-opacity:0.555319;stroke:none;stroke-width:1px;stroke-linecap:butt;stroke-linejoin:miter;stroke-opacity:1"
       d="M 0,600 V 400 C 0,200 100,100 200,100 h 100 75 100 c 0,0 0,100 -125,100 H 250 c -75,0 -125,25 -125,150 v 250 z"
       id="path486"
       sodipodi:nodetypes="csssccssscc" /><path
       id="path2-9"
       style="fill:#000000;fill-opacity:0.555319;fill-rule:evenodd;stroke-width:0.999873"
       d="M 200 100 C 100.0001 100 0 200.0002 0 400 L 0 525 L 0 600 L 0 675 C 0 774.9998 75.000346 900 250 900 C 449.9996 900 500 774.9999 500 675 L 500 525 C 500 425.0001 424.99965 300 250 300 C 200.86707 300.05181 159.62024 309.93146 125.69922 326.32422 C 131.8323 221.84136 180.01313 200 250 200 L 350 200 C 474.99987 200 475 100 475 100 L 375 100 L 300 100 L 200 100 z M 250 400 C 299.99995 400 325 450.00015 325 525 L 325 675 C 325 749.61394 274.99112 800.66495 250 800 C 216.19198 799.10045 175 749.99985 175 675 L 175 525 C 175 450.00015 200.0001 400 250 400 z " /></g></svg>
