<?xml version="1.0" encoding="UTF-8" standalone="no"?>
<!-- Created with Inkscape (http://www.inkscape.org/) -->

<svg
   width="800"
   height="800"
   viewBox="0 0 800 800"
   version="1.1"
   id="svg1"
   inkscape:version="1.3 (0e150ed6c4, 2023-07-21)"
   sodipodi:docname="1073_be-small.svg"
   xml:space="preserve"
   xmlns:inkscape="http://www.inkscape.org/namespaces/inkscape"
   xmlns:sodipodi="http://sodipodi.sourceforge.net/DTD/sodipodi-0.dtd"
   xmlns="http://www.w3.org/2000/svg"
   xmlns:svg="http://www.w3.org/2000/svg"><sodipodi:namedview
     id="namedview1"
     pagecolor="#ffffff"
     bordercolor="#000000"
     borderopacity="0.25"
     inkscape:showpageshadow="2"
     inkscape:pageopacity="0.0"
     inkscape:pagecheckerboard="0"
     inkscape:deskcolor="#d1d1d1"
     inkscape:document-units="px"
     showgrid="true"
     inkscape:zoom="1.1334165"
     inkscape:cx="-97.492846"
     inkscape:cy="407.176"
     inkscape:window-width="2560"
     inkscape:window-height="1494"
     inkscape:window-x="-11"
     inkscape:window-y="-11"
     inkscape:window-maximized="1"
     inkscape:current-layer="layer1"
     showguides="false"><inkscape:grid
       id="grid1"
       units="px"
       originx="0"
       originy="0"
       spacingx="25"
       spacingy="25"
       empcolor="#0099e5"
       empopacity="0.30196078"
       color="#0099e5"
       opacity="0.14901961"
       empspacing="4"
       dotted="false"
       gridanglex="30"
       gridanglez="30"
       visible="true" /></sodipodi:namedview><defs
     id="defs1" /><g
     inkscape:label="Layer 1"
     inkscape:groupmode="layer"
     id="layer1"><path
       id="path352-3-2-9"
       style="fill:#000000;fill-opacity:0.555319;fill-rule:evenodd;stroke:none;stroke-width:3px;stroke-linecap:butt;stroke-linejoin:miter;stroke-opacity:1"
       d="M 150,300 C 100,300 6e-6,379.45273 3e-6,452.22636 0,525 100,600 150,600 200,600 300,525 300,450 300,375 200,300 150,300 Z m 0,100 c 24.99994,0 50,25 50,50 0,25 -25.00006,50 -50,50 -24.99994,0 -50,-25 -50,-50 0,-25 25.00006,-50 50,-50 z"
       sodipodi:nodetypes="zzzzzszszs" /><path
       id="path352-3-2-9-3"
       style="fill:#000000;fill-opacity:0.555319;fill-rule:evenodd;stroke:none;stroke-width:3px;stroke-linecap:butt;stroke-linejoin:miter;stroke-opacity:1"
       d="M 150,100 C 100.00005,100 2.999997e-6,179.45301 0,252.22656 c -2.999997e-6,72.77357 3e-6,199.9998 3e-6,199.9998 L 100,450 V 250 c 0,-24.99998 25.00008,-50 50,-50 50,0 150,0 150,-100 z"
       sodipodi:nodetypes="ssccsscs" /><path
       id="path352-3-2-9-8"
       style="fill:#000000;fill-opacity:0.555319;fill-rule:evenodd;stroke:none;stroke-width:3px;stroke-linecap:butt;stroke-linejoin:miter;stroke-opacity:1"
       d="M 150 100 C 100.0001 100 2.999994e-06 179.45309 0 252.22656 C -2.999994e-06 325.00006 -1.1293761e-21 452.22656 0 452.22656 C -2.999997e-06 525.00013 100.00005 600 150 600 C 199.99995 600 300 524.99992 300 450 C 300 375.00007 199.99995 300 150 300 C 136.11805 300 118.38009 306.14123 100 316.54688 L 100 250 C 100 225.00004 125.0001 200 150 200 C 199.99995 200 300 199.9999 300 100 L 150 100 z M 150 400 C 174.99992 400 200 425.00002 200 450 C 200 474.99998 174.99992 500 150 500 C 125.00008 500 100 474.99998 100 450 C 100 425.00002 125.00008 400 150 400 z " /></g></svg>
