<?xml version="1.0" encoding="UTF-8" standalone="no"?>
<!-- Created with Inkscape (http://www.inkscape.org/) -->

<svg
   width="800"
   height="800"
   viewBox="0 0 800 800"
   version="1.1"
   id="svg1"
   inkscape:version="1.3 (0e150ed6c4, 2023-07-21)"
   sodipodi:docname="1074_ve-small.svg"
   xml:space="preserve"
   xmlns:inkscape="http://www.inkscape.org/namespaces/inkscape"
   xmlns:sodipodi="http://sodipodi.sourceforge.net/DTD/sodipodi-0.dtd"
   xmlns="http://www.w3.org/2000/svg"
   xmlns:svg="http://www.w3.org/2000/svg"><sodipodi:namedview
     id="namedview1"
     pagecolor="#ffffff"
     bordercolor="#000000"
     borderopacity="0.25"
     inkscape:showpageshadow="2"
     inkscape:pageopacity="0.0"
     inkscape:pagecheckerboard="0"
     inkscape:deskcolor="#d1d1d1"
     inkscape:document-units="px"
     showgrid="true"
     inkscape:zoom="1.1334165"
     inkscape:cx="-127.0495"
     inkscape:cy="407.176"
     inkscape:window-width="2560"
     inkscape:window-height="1494"
     inkscape:window-x="-11"
     inkscape:window-y="-11"
     inkscape:window-maximized="1"
     inkscape:current-layer="layer1"
     showguides="false"><inkscape:grid
       id="grid1"
       units="px"
       originx="0"
       originy="0"
       spacingx="25"
       spacingy="25"
       empcolor="#0099e5"
       empopacity="0.30196078"
       color="#0099e5"
       opacity="0.14901961"
       empspacing="4"
       dotted="false"
       gridanglex="30"
       gridanglez="30"
       visible="true" /></sodipodi:namedview><defs
     id="defs1" /><g
     inkscape:label="Layer 1"
     inkscape:groupmode="layer"
     id="layer1"><path
       id="path352-3"
       style="fill:#000000;fill-opacity:0.555319;fill-rule:evenodd;stroke:none;stroke-width:2.73861px;stroke-linecap:butt;stroke-linejoin:miter;stroke-opacity:1"
       d="m 0,350 v 75 h 150 c 24.99998,0 50,0 50,25 0,20.83332 -25.00002,50 -50,50 H 0 v 100 h 150 c 74.99993,0 150,-50 150,-150 0,-50 -50.00007,-100 -125,-100 z"
       sodipodi:nodetypes="ccsssccsssc" /><path
       id="path352-3-1"
       style="fill:#000000;fill-opacity:0.555319;fill-rule:evenodd;stroke:none;stroke-width:2.59808px;stroke-linecap:butt;stroke-linejoin:miter;stroke-opacity:1"
       d="m 0,200 v 75 h 125 c 24.99998,0 50,18.75002 50,37.5 0,18.74998 -25.00002,37.5 -50,37.5 H 0 v 75 H 125 C 199.99993,425 275,368.74994 275,312.5 275,256.25005 199.99993,200 125,200 Z"
       sodipodi:nodetypes="ccsssccsssc" /><rect
       style="fill:#000000;fill-opacity:0.555319;fill-rule:evenodd;stroke:none;stroke-width:89.4427;stroke-linecap:round;stroke-linejoin:round;stroke-miterlimit:4.5;stop-color:#000000"
       id="rect11692"
       width="100"
       height="400"
       x="0"
       y="200" /><path
       id="path352-3-0"
       style="fill:#000000;fill-opacity:0.555319;fill-rule:evenodd;stroke:none;stroke-width:2.73861px;stroke-linecap:butt;stroke-linejoin:miter;stroke-opacity:1"
       d="M 0 200 L 0 275 L 0 350 L 0 425 L 0 500 L 0 600 L 100 600 L 150 600 C 224.99986 600 300 549.9999 300 450 C 300 419.52851 281.40374 389.07999 249.92188 369.92578 C 265.49681 352.46171 275 332.48786 275 312.5 C 275 256.25011 199.99986 200 125 200 L 100 200 L 0 200 z M 100 275 L 125 275 C 149.99996 275 175 293.75004 175 312.5 C 175 331.24996 149.99996 350 125 350 L 100 350 L 100 275 z M 100 425 L 125 425 L 150 425 C 174.99996 425 200 425.00002 200 450 C 200 470.8333 174.99996 500 150 500 L 100 500 L 100 425 z " /></g></svg>
