<?xml version="1.0" encoding="UTF-8" standalone="no"?>
<!-- Created with Inkscape (http://www.inkscape.org/) -->

<svg
   width="800"
   height="800"
   viewBox="0 0 800 800"
   version="1.1"
   id="svg1"
   inkscape:version="1.3 (0e150ed6c4, 2023-07-21)"
   sodipodi:docname="1079_ze-small.svg"
   xml:space="preserve"
   xmlns:inkscape="http://www.inkscape.org/namespaces/inkscape"
   xmlns:sodipodi="http://sodipodi.sourceforge.net/DTD/sodipodi-0.dtd"
   xmlns="http://www.w3.org/2000/svg"
   xmlns:svg="http://www.w3.org/2000/svg"><sodipodi:namedview
     id="namedview1"
     pagecolor="#ffffff"
     bordercolor="#000000"
     borderopacity="0.25"
     inkscape:showpageshadow="2"
     inkscape:pageopacity="0.0"
     inkscape:pagecheckerboard="0"
     inkscape:deskcolor="#d1d1d1"
     inkscape:document-units="px"
     showgrid="true"
     inkscape:zoom="1.1334165"
     inkscape:cx="233.80637"
     inkscape:cy="407.61715"
     inkscape:window-width="1276"
     inkscape:window-height="1481"
     inkscape:window-x="-9"
     inkscape:window-y="0"
     inkscape:window-maximized="0"
     inkscape:current-layer="layer1"
     showguides="false"><inkscape:grid
       id="grid1"
       units="px"
       originx="0"
       originy="0"
       spacingx="25"
       spacingy="25"
       empcolor="#0099e5"
       empopacity="0.30196078"
       color="#0099e5"
       opacity="0.14901961"
       empspacing="4"
       dotted="false"
       gridanglex="30"
       gridanglez="30"
       visible="true" /></sodipodi:namedview><defs
     id="defs1" /><g
     inkscape:label="Layer 1"
     inkscape:groupmode="layer"
     id="layer1"><path
       style="fill:#000000;fill-opacity:0.555319;stroke:none;stroke-width:1px;stroke-linecap:butt;stroke-linejoin:miter;stroke-opacity:1"
       d="m 0,275 v -75 h 125 c 75,0 175,75 175,125 0,75 -50,100 -100,100 H 0 v -75 h 150 c 25,0 50,0 50,-25 0,-25 -25,-50 -50,-50 z"
       id="path68681"
       sodipodi:nodetypes="ccsssccsscc" /><path
       style="fill:#000000;fill-opacity:0.555319;stroke:none;stroke-width:1px;stroke-linecap:butt;stroke-linejoin:miter;stroke-opacity:1"
       d="M 0,500 V 600 H 150 C 225,600 300,500 300,450 300,375 250,350 200,350 H 0 v 75 h 150 c 25,0 50,0 50,25 0,25 -25,50 -50,50 z"
       id="path68681-3"
       sodipodi:nodetypes="ccsssccsscc" /><path
       id="path68681-31"
       style="fill:#000000;fill-opacity:0.555319;stroke:none;stroke-width:1px;stroke-linecap:butt;stroke-linejoin:miter;stroke-opacity:1"
       d="m 125,200 c 74.99993,0 175,75.00005 175,125 0,26.884 -6.44812,47.31346 -16.99414,62.5 C 293.55188,402.68654 300,423.116 300,450 300,499.99995 224.99993,600 150,600 H 0 V 500 h 150 c 24.99998,0 50,-25.00002 50,-50 0,-24.99998 -25.00002,-25 -50,-25 H 0 v -75 h 150 c 24.99998,0 50,-2e-5 50,-25 0,-24.99998 -25.00002,-50 -50,-50 H 0 v -75 z" /></g></svg>
