<?xml version="1.0" encoding="UTF-8" standalone="no"?>
<!-- Created with Inkscape (http://www.inkscape.org/) -->

<svg
   width="800"
   height="800"
   viewBox="0 0 800 800"
   version="1.1"
   id="svg1"
   inkscape:version="1.3 (0e150ed6c4, 2023-07-21)"
   sodipodi:docname="1092_ef-small.svg"
   xml:space="preserve"
   xmlns:inkscape="http://www.inkscape.org/namespaces/inkscape"
   xmlns:sodipodi="http://sodipodi.sourceforge.net/DTD/sodipodi-0.dtd"
   xmlns="http://www.w3.org/2000/svg"
   xmlns:svg="http://www.w3.org/2000/svg"><sodipodi:namedview
     id="namedview1"
     pagecolor="#ffffff"
     bordercolor="#000000"
     borderopacity="0.25"
     inkscape:showpageshadow="2"
     inkscape:pageopacity="0.0"
     inkscape:pagecheckerboard="0"
     inkscape:deskcolor="#d1d1d1"
     inkscape:document-units="px"
     showgrid="true"
     inkscape:zoom="1.1334165"
     inkscape:cx="95.287125"
     inkscape:cy="407.61715"
     inkscape:window-width="1276"
     inkscape:window-height="1481"
     inkscape:window-x="1271"
     inkscape:window-y="0"
     inkscape:window-maximized="0"
     inkscape:current-layer="layer1-4"
     showguides="false"><inkscape:grid
       id="grid1"
       units="px"
       originx="0"
       originy="0"
       spacingx="25"
       spacingy="25"
       empcolor="#0099e5"
       empopacity="0.30196078"
       color="#0099e5"
       opacity="0.14901961"
       empspacing="4"
       dotted="false"
       gridanglex="30"
       gridanglez="30"
       visible="true" /></sodipodi:namedview><defs
     id="defs1" /><g
     inkscape:label="Layer 1"
     inkscape:groupmode="layer"
     id="layer1"><g
       inkscape:label="Layer 1"
       id="layer1-4"><path
         id="path352-3-2-9"
         style="fill:#000000;fill-opacity:0.555319;fill-rule:evenodd;stroke:none;stroke-width:3px;stroke-linecap:butt;stroke-linejoin:miter;stroke-opacity:1"
         d="M 150,200 C 75.00022,200 0,250 0,325 v 150 c 0,75 75.00022,125 150,125 74.99978,0 150,-54.45273 150,-125 V 325 C 300,250 224.99978,200 150,200 Z m 0,100 c 24.99994,0 75,25 75,75 v 50 c 0,50 -50.00006,75 -75,75 -24.99994,0 -75,-25 -75,-75 v -50 c 0,-50 50.00006,-75 75,-75 z"
         sodipodi:nodetypes="ssssssssssssss" /><rect
         style="opacity:0.489888;fill:#000000;fill-opacity:0.555319;fill-rule:evenodd;stroke-width:100;stroke-linecap:round;stroke-linejoin:round;stroke-miterlimit:4.5;stop-color:#000000"
         id="rect109099"
         width="100"
         height="150"
         x="100"
         y="550" /><rect
         style="opacity:0.489888;fill:#000000;fill-opacity:0.555319;fill-rule:evenodd;stroke-width:100;stroke-linecap:round;stroke-linejoin:round;stroke-miterlimit:4.5;stop-color:#000000"
         id="rect109099-1"
         width="100"
         height="125"
         x="100"
         y="100" /><rect
         style="opacity:0.489888;fill:#000000;fill-opacity:0.555319;fill-rule:evenodd;stroke-width:100;stroke-linecap:round;stroke-linejoin:round;stroke-miterlimit:4.5;stop-color:#000000"
         id="rect109101"
         width="50"
         height="250"
         x="125"
         y="275" /><path
         id="path352-3-2-9-1"
         style="fill:#000000;fill-opacity:0.555319;fill-rule:evenodd;stroke:none;stroke-width:3px;stroke-linecap:butt;stroke-linejoin:miter;stroke-opacity:1"
         d="M 100,100 V 207.4043 C 44.926544,223.91394 0,266.9589 0,325 v 150 c 0,58.0411 44.926544,101.08606 100,117.5957 V 700 H 200 V 592.06641 C 255.07354,574.52701 300,529.59527 300,475 V 325 C 300,266.9589 255.07346,223.91394 200,207.4043 V 100 Z m 25,205.84961 V 494.15039 C 101.08657,484.12493 75,461.12321 75,425 v -50 c 0,-36.12321 26.08657,-59.12493 50,-69.15039 z m 50,0 c 23.91343,10.02546 50,33.02718 50,69.15039 v 50 c 0,36.12321 -26.08657,59.12493 -50,69.15039 z"
         sodipodi:nodetypes="ccssccccsscccccssccsscc" /></g></g></svg>
