<?xml version="1.0" encoding="UTF-8" standalone="no"?>
<!-- Created with Inkscape (http://www.inkscape.org/) -->

<svg
   width="800"
   height="800"
   viewBox="0 0 800 800"
   version="1.1"
   id="svg1"
   inkscape:version="1.3 (0e150ed6c4, 2023-07-21)"
   sodipodi:docname="1102_yu-small.svg"
   xml:space="preserve"
   xmlns:inkscape="http://www.inkscape.org/namespaces/inkscape"
   xmlns:sodipodi="http://sodipodi.sourceforge.net/DTD/sodipodi-0.dtd"
   xmlns="http://www.w3.org/2000/svg"
   xmlns:svg="http://www.w3.org/2000/svg"><sodipodi:namedview
     id="namedview1"
     pagecolor="#ffffff"
     bordercolor="#000000"
     borderopacity="0.25"
     inkscape:showpageshadow="2"
     inkscape:pageopacity="0.0"
     inkscape:pagecheckerboard="0"
     inkscape:deskcolor="#d1d1d1"
     inkscape:document-units="px"
     showgrid="true"
     inkscape:zoom="1.1334165"
     inkscape:cx="312.77117"
     inkscape:cy="319.82947"
     inkscape:window-width="1649"
     inkscape:window-height="1054"
     inkscape:window-x="342"
     inkscape:window-y="210"
     inkscape:window-maximized="0"
     inkscape:current-layer="layer1"
     showguides="false"><inkscape:grid
       id="grid1"
       units="px"
       originx="0"
       originy="0"
       spacingx="25"
       spacingy="25"
       empcolor="#0099e5"
       empopacity="0.30196078"
       color="#0099e5"
       opacity="0.14901961"
       empspacing="4"
       dotted="false"
       gridanglex="30"
       gridanglez="30"
       visible="true" /></sodipodi:namedview><defs
     id="defs1" /><g
     inkscape:label="Layer 1"
     inkscape:groupmode="layer"
     id="layer1"><path
       id="path352-3-2-9-9"
       style="fill:#000000;fill-opacity:0.555319;fill-rule:evenodd;stroke:none;stroke-width:3px;stroke-linecap:butt;stroke-linejoin:miter;stroke-opacity:1"
       d="m 350,200 c -74.99978,0 -150,100 -150,175 v 50 c 0,75 75.00022,175 150,175 74.99978,0 150,-104.45273 150,-175 V 375 C 500,300 424.99978,200 350,200 Z m 0,100 c 24.99994,0 50,25.00006 50,50 v 100 c 0,24.99994 -25.00006,50 -50,50 -24.99994,0 -50,-25.00006 -50,-50 V 350 c 0,-24.99994 25.00006,-50 50,-50 z"
       sodipodi:nodetypes="ssssssssssssss" /><rect
       style="opacity:0.453441;fill:#000000;fill-opacity:0.576596;fill-rule:evenodd"
       id="rect1"
       width="100"
       height="400"
       x="0"
       y="200" /><rect
       style="opacity:0.453441;fill:#000000;fill-opacity:0.576596;fill-rule:evenodd"
       id="rect2"
       width="175"
       height="100"
       x="50"
       y="375" /><path
       id="path352-3-2-9-9-7"
       style="fill:#000000;fill-opacity:0.555319;fill-rule:evenodd;stroke:none;stroke-width:3px;stroke-linecap:butt;stroke-linejoin:miter;stroke-opacity:1"
       d="M 0 200 L 0 600 L 100 600 L 100 475 L 209.46875 475 C 231.90327 537.9846 290.93769 600 350 600 C 424.99971 600 500 495.5472 500 425 L 500 375 C 500 300.00007 424.99971 200 350 200 C 275.00029 200 200 300.00007 200 375 L 100 375 L 100 200 L 0 200 z M 350 300 C 374.99992 300 400 325.00008 400 350 L 400 450 C 400 474.99992 374.99992 500 350 500 C 325.00008 500 300 474.99992 300 450 L 300 350 C 300 325.00008 325.00008 300 350 300 z " /></g></svg>
