<?xml version="1.0" encoding="UTF-8" standalone="no"?>
<!-- Created with Inkscape (http://www.inkscape.org/) -->

<svg
   width="800"
   height="800"
   viewBox="0 0 800 800"
   version="1.1"
   id="svg1"
   inkscape:version="1.3 (0e150ed6c4, 2023-07-21)"
   sodipodi:docname="1103_ya-small.svg"
   xml:space="preserve"
   xmlns:inkscape="http://www.inkscape.org/namespaces/inkscape"
   xmlns:sodipodi="http://sodipodi.sourceforge.net/DTD/sodipodi-0.dtd"
   xmlns="http://www.w3.org/2000/svg"
   xmlns:svg="http://www.w3.org/2000/svg"><sodipodi:namedview
     id="namedview1"
     pagecolor="#ffffff"
     bordercolor="#000000"
     borderopacity="0.25"
     inkscape:showpageshadow="2"
     inkscape:pageopacity="0.0"
     inkscape:pagecheckerboard="0"
     inkscape:deskcolor="#d1d1d1"
     inkscape:document-units="px"
     showgrid="true"
     inkscape:zoom="1.1334165"
     inkscape:cx="312.77117"
     inkscape:cy="328.65235"
     inkscape:window-width="1649"
     inkscape:window-height="1054"
     inkscape:window-x="775"
     inkscape:window-y="215"
     inkscape:window-maximized="0"
     inkscape:current-layer="layer1"
     showguides="false"><inkscape:grid
       id="grid1"
       units="px"
       originx="0"
       originy="0"
       spacingx="25"
       spacingy="25"
       empcolor="#0099e5"
       empopacity="0.30196078"
       color="#0099e5"
       opacity="0.14901961"
       empspacing="4"
       dotted="false"
       gridanglex="30"
       gridanglez="30"
       visible="true" /></sodipodi:namedview><defs
     id="defs1" /><g
     inkscape:label="Layer 1"
     inkscape:groupmode="layer"
     id="layer1"><path
       id="path11457"
       style="fill:#000000;fill-opacity:0.555319;stroke:none;stroke-width:1px;stroke-linecap:butt;stroke-linejoin:miter;stroke-opacity:1"
       d="M 100,400 C 100,400 0,508.33345 0,550 v 50 h 100 c 0,0 -0.534208,-25.00575 0,-50 0.62387,-29.18917 25.00015,-50.00015 75,-100 v -50 z" /><path
       id="path352-3"
       style="fill:#000000;fill-opacity:0.555319;fill-rule:evenodd;stroke:none;stroke-width:3px;stroke-linecap:butt;stroke-linejoin:miter;stroke-opacity:1"
       d="M 300,500 V 400 H 150 c -24.99998,0 -50,-25.00002 -50,-50 0,-24.99998 25.00002,-50 50,-50 H 300 V 200 H 150 C 75.00007,200 0,275.00008 0,350 0,424.99993 100.00007,500 175,500 Z"
       sodipodi:nodetypes="ccsssccsssc" /><rect
       style="fill:#000000;fill-opacity:0.555319;fill-rule:evenodd;stroke:none;stroke-width:100;stroke-linecap:round;stroke-linejoin:round;stroke-miterlimit:4.5;stop-color:#000000"
       id="rect11692"
       width="100"
       height="400"
       x="-300"
       y="-600"
       transform="scale(-1)" /><path
       id="path11457-8"
       style="fill:#000000;fill-opacity:0.555319;stroke:none;stroke-width:1px;stroke-linecap:butt;stroke-linejoin:miter;stroke-opacity:1"
       d="M 150 200 C 75.000145 200 0 275.00015 0 350 C 0 386.51508 23.73263 423.00374 56.714844 450.86328 C 29.685636 484.84614 0 527.2918 0 550 L 0 600 L 100 600 C 100 600 99.465793 574.99423 100 550 C 100.40782 530.91925 111.03756 515.37126 132.26758 492.95703 C 146.83735 497.48351 161.33409 500 175 500 L 200 500 L 200 600 L 300 600 L 300 200 L 150 200 z M 150 300 L 200 300 L 200 400 L 175 400 L 150 400 C 125.00004 400 100 374.99996 100 350 C 100 325.00004 125.00004 300 150 300 z " /></g></svg>
