<?xml version="1.0" encoding="UTF-8" standalone="no"?>
<!-- Created with Inkscape (http://www.inkscape.org/) -->

<svg
   width="800"
   height="800"
   viewBox="0 0 800 800"
   version="1.1"
   id="svg1"
   inkscape:version="1.3 (0e150ed6c4, 2023-07-21)"
   sodipodi:docname="1114_nje-small.svg"
   xml:space="preserve"
   xmlns:inkscape="http://www.inkscape.org/namespaces/inkscape"
   xmlns:sodipodi="http://sodipodi.sourceforge.net/DTD/sodipodi-0.dtd"
   xmlns="http://www.w3.org/2000/svg"
   xmlns:svg="http://www.w3.org/2000/svg"><sodipodi:namedview
     id="namedview1"
     pagecolor="#ffffff"
     bordercolor="#000000"
     borderopacity="0.25"
     inkscape:showpageshadow="2"
     inkscape:pageopacity="0.0"
     inkscape:pagecheckerboard="0"
     inkscape:deskcolor="#d1d1d1"
     inkscape:document-units="px"
     showgrid="true"
     inkscape:zoom="1.1334165"
     inkscape:cx="-127.0495"
     inkscape:cy="407.176"
     inkscape:window-width="2560"
     inkscape:window-height="1494"
     inkscape:window-x="-11"
     inkscape:window-y="-11"
     inkscape:window-maximized="1"
     inkscape:current-layer="layer1-5"
     showguides="false"><inkscape:grid
       id="grid1"
       units="px"
       originx="0"
       originy="0"
       spacingx="25"
       spacingy="25"
       empcolor="#0099e5"
       empopacity="0.30196078"
       color="#0099e5"
       opacity="0.14901961"
       empspacing="4"
       dotted="false"
       gridanglex="30"
       gridanglez="30"
       visible="true" /></sodipodi:namedview><defs
     id="defs1" /><g
     inkscape:label="Layer 1"
     inkscape:groupmode="layer"
     id="layer1"><g
       inkscape:label="Layer 1"
       id="layer1-5"><path
         id="path352-3"
         style="fill:#000000;fill-opacity:0.555319;fill-rule:evenodd;stroke:none;stroke-width:3px;stroke-linecap:butt;stroke-linejoin:miter;stroke-opacity:1"
         d="m 200,300 v 100 h 150 c 24.99998,0 50,25.00002 50,50 0,24.99998 -25.00002,50 -50,50 H 200 v 100 h 150 c 74.99993,0 150,-75.00008 150,-150 0,-74.99993 -100.00007,-150 -175,-150 z"
         sodipodi:nodetypes="ccsssccsssc" /><path
         id="rect1"
         style="opacity:0.453441;fill:#000000;fill-opacity:0.576596;fill-rule:evenodd"
         d="M 0 200 L 0 600 L 100 600 L 100 400 L 200 400 L 200 600 L 300 600 L 300 200 L 200 200 L 200 300 L 100 300 L 100 200 L 0 200 z " /><path
         id="path352-3-4"
         style="fill:#000000;fill-opacity:0.555319;fill-rule:evenodd;stroke:none;stroke-width:3px;stroke-linecap:butt;stroke-linejoin:miter;stroke-opacity:1"
         d="M 0 200 L 0 600 L 100 600 L 100 400 L 200 400 L 200 500 L 200 600 L 300 600 L 350 600 C 424.99986 600 500 524.99985 500 450 C 500 375.00014 399.99986 300 325 300 L 300 300 L 300 200 L 200 200 L 200 300 L 100 300 L 100 200 L 0 200 z M 300 400 L 350 400 C 374.99996 400 400 425.00004 400 450 C 400 474.99996 374.99996 500 350 500 L 300 500 L 300 400 z " /></g></g></svg>
