<?xml version="1.0" encoding="UTF-8" standalone="no"?>
<!-- Created with Inkscape (http://www.inkscape.org/) -->

<svg
   width="2000"
   height="2000"
   viewBox="0 0 2000 2000"
   version="1.1"
   id="svg1"
   inkscape:version="1.2.2 (732a01da63, 2022-12-09)"
   sodipodi:docname="3647_currency-bhat-sign.svg"
   xml:space="preserve"
   xmlns:inkscape="http://www.inkscape.org/namespaces/inkscape"
   xmlns:sodipodi="http://sodipodi.sourceforge.net/DTD/sodipodi-0.dtd"
   xmlns="http://www.w3.org/2000/svg"
   xmlns:svg="http://www.w3.org/2000/svg"><sodipodi:namedview
     id="namedview1"
     pagecolor="#ffffff"
     bordercolor="#000000"
     borderopacity="0.25"
     inkscape:showpageshadow="2"
     inkscape:pageopacity="0.0"
     inkscape:pagecheckerboard="0"
     inkscape:deskcolor="#d1d1d1"
     inkscape:document-units="px"
     showgrid="true"
     inkscape:zoom="0.78606706"
     inkscape:cx="220.71908"
     inkscape:cy="1068.6111"
     inkscape:window-width="3840"
     inkscape:window-height="2066"
     inkscape:window-x="-11"
     inkscape:window-y="-11"
     inkscape:window-maximized="1"
     inkscape:current-layer="layer1"
     showguides="false"><inkscape:grid
       id="grid1"
       units="px"
       originx="0"
       originy="0"
       spacingx="10"
       spacingy="10"
       empcolor="#0099e5"
       empopacity="0.30196078"
       color="#0099e5"
       opacity="0.14901961"
       empspacing="10"
       dotted="false"
       gridanglex="30"
       gridanglez="30"
       visible="true" /></sodipodi:namedview><defs
     id="defs1" /><g
     inkscape:label="Layer 1"
     inkscape:groupmode="layer"
     id="layer1"><path
       id="path48264"
       style="fill:#000000;fill-opacity:0.555319;fill-rule:evenodd;stroke:none;stroke-width:1px;stroke-linecap:butt;stroke-linejoin:miter;stroke-opacity:1"
       d="M 100,200 V 300 H 300 V 1500 H 100 v 100 h 1000 c 149.7748,0 500,-80 500,-400 0,-320 -330,-350 -330,-350 0,0 230,-100 230,-290 0,-190 -250,-360 -500,-360 z m 500,100 h 400 c 120,0 200,140 200,250 0,110 -80,250 -200,250 H 600 Z m 0,600 h 500 c 120,0 200,130 200,300 0,170 -80,300 -200,300 H 600 Z"
       sodipodi:nodetypes="ccccccszczsccszscccszscc" /><rect
       style="opacity:0.489888;fill:#000000;fill-rule:evenodd;stroke-width:100;stroke-linecap:round;stroke-linejoin:round;stroke-miterlimit:4.5;stop-color:#000000"
       id="rect13590"
       width="200"
       height="1600"
       x="800"
       y="100" /><path
       id="path48264-4"
       style="fill:#000000;fill-opacity:0.555319;fill-rule:evenodd;stroke:none;stroke-width:1px;stroke-linecap:butt;stroke-linejoin:miter;stroke-opacity:1"
       d="M 800 100 L 800 200 L 100 200 L 100 300 L 300 300 L 300 1500 L 100 1500 L 100 1600 L 800 1600 L 800 1700 L 1000 1700 L 1000 1600 L 1100 1600 C 1249.7747 1600 1600 1519.9997 1600 1200 C 1600 880.00032 1270 850 1270 850 C 1270 850 1500 749.99981 1500 560 C 1500 370.00019 1249.9997 200 1000 200 L 1000 100 L 800 100 z M 600 300 L 800 300 L 800 800 L 600 800 L 600 300 z M 1000 300 C 1119.9999 300 1200 440.00011 1200 550 C 1200 659.99989 1119.9999 800 1000 800 L 1000 300 z M 600 900 L 800 900 L 800 1500 L 600 1500 L 600 900 z M 1000 900 L 1100 900 C 1219.9999 900 1300 1030.0002 1300 1200 C 1300 1369.9998 1219.9999 1500 1100 1500 L 1000 1500 L 1000 900 z " /></g></svg>
