<?xml version="1.0" encoding="UTF-8" standalone="no"?>
<!-- Created with Inkscape (http://www.inkscape.org/) -->

<svg
   width="1200"
   height="1200"
   viewBox="0 0 1200 1200"
   version="1.1"
   id="svg1"
   inkscape:version="1.2.1 (9c6d41e410, 2022-07-14)"
   sodipodi:docname="8471_sound-recording-copyright.svg"
   xml:space="preserve"
   xmlns:inkscape="http://www.inkscape.org/namespaces/inkscape"
   xmlns:sodipodi="http://sodipodi.sourceforge.net/DTD/sodipodi-0.dtd"
   xmlns="http://www.w3.org/2000/svg"
   xmlns:svg="http://www.w3.org/2000/svg"><sodipodi:namedview
     id="namedview1"
     pagecolor="#ffffff"
     bordercolor="#000000"
     borderopacity="0.25"
     inkscape:showpageshadow="2"
     inkscape:pageopacity="0.0"
     inkscape:pagecheckerboard="0"
     inkscape:deskcolor="#d1d1d1"
     inkscape:document-units="px"
     showgrid="true"
     inkscape:zoom="0.78606705"
     inkscape:cx="-27.987434"
     inkscape:cy="650.07177"
     inkscape:window-width="2560"
     inkscape:window-height="1377"
     inkscape:window-x="1072"
     inkscape:window-y="-8"
     inkscape:window-maximized="1"
     inkscape:current-layer="layer1-8-7"
     showguides="false"><inkscape:grid
       id="grid1"
       units="px"
       originx="0"
       originy="0"
       spacingx="25"
       spacingy="25"
       empcolor="#0099e5"
       empopacity="0.30196078"
       color="#0099e5"
       opacity="0.14901961"
       empspacing="4"
       dotted="false"
       gridanglex="30"
       gridanglez="30"
       visible="true" /></sodipodi:namedview><defs
     id="defs1" /><g
     inkscape:label="Layer 1"
     inkscape:groupmode="layer"
     id="layer1"><g
       inkscape:label="Layer 1"
       id="layer1-8"
       transform="translate(100,300)"><g
         inkscape:label="Layer 1"
         id="layer1-8-7"><path
           id="path2-8-5"
           style="fill:#000000;fill-opacity:0.555319;fill-rule:evenodd;stroke-width:0.666582"
           d="M 400,250 C 400,150 350,100.01055 225,100 L 100,99.98945 v 400 h 100 v -100 c 0,0 16.66752,0.12987 25,0.0106 128.03776,-1.83347 175,-25 175,-150 z M 200,299.98945 V 200 h 50 c 25,0 50,0 51.19447,50.59366 C 302.36091,300.00067 275,300 250,299.98945 Z"
           sodipodi:nodetypes="scccccssccsscc" /><path
           id="path2-8-0-1"
           style="fill:#000000;fill-opacity:0.555319;fill-rule:evenodd;stroke-width:0.797628"
           d="M 275,600 C 375,600 500,500 500,375 V 225 C 500,100 375,0 275,0 H 250 C 150,0 0,100 0,225 V 375 C 0,500 125,600 225,600 Z M -100,300 C -100,75 75,-100 250,-100 425,-100 600,75 600,300 600,525 430.3973,701.7991 250,700 69.602699,698.2009 -100,525 -100,300 Z"
           sodipodi:nodetypes="ssssssssszzzzz" /></g></g></g></svg>
