<?xml version="1.0" encoding="UTF-8" standalone="no"?>
<!-- Created with Inkscape (http://www.inkscape.org/) -->

<svg
   width="1200"
   height="1200"
   viewBox="0 0 1200 1200"
   version="1.1"
   id="svg1"
   inkscape:version="1.2.2 (732a01da63, 2022-12-09)"
   sodipodi:docname="945_alpha-small.svg"
   xml:space="preserve"
   xmlns:inkscape="http://www.inkscape.org/namespaces/inkscape"
   xmlns:sodipodi="http://sodipodi.sourceforge.net/DTD/sodipodi-0.dtd"
   xmlns="http://www.w3.org/2000/svg"
   xmlns:svg="http://www.w3.org/2000/svg"><sodipodi:namedview
     id="namedview1"
     pagecolor="#ffffff"
     bordercolor="#000000"
     borderopacity="0.25"
     inkscape:showpageshadow="2"
     inkscape:pageopacity="0.0"
     inkscape:pagecheckerboard="0"
     inkscape:deskcolor="#d1d1d1"
     inkscape:document-units="px"
     showgrid="true"
     inkscape:zoom="1.1116667"
     inkscape:cx="234.33283"
     inkscape:cy="814.99248"
     inkscape:window-width="3840"
     inkscape:window-height="2066"
     inkscape:window-x="-11"
     inkscape:window-y="-11"
     inkscape:window-maximized="1"
     inkscape:current-layer="layer1"
     showguides="false"><inkscape:grid
       id="grid1"
       units="px"
       originx="0"
       originy="0"
       spacingx="25"
       spacingy="25"
       empcolor="#0099e5"
       empopacity="0.30196078"
       color="#0099e5"
       opacity="0.14901961"
       empspacing="4"
       dotted="false"
       gridanglex="30"
       gridanglez="30"
       visible="true" /></sodipodi:namedview><defs
     id="defs1" /><g
     inkscape:label="Layer 1"
     inkscape:groupmode="layer"
     id="layer1"><path
       id="path2"
       style="fill:#000000;fill-opacity:0.555319;fill-rule:evenodd;stroke:none;stroke-width:0.999873"
       d="M 225,400 C 50.000447,400.18455 0,525.0002 0,625 v 150 c 0,99.9998 50.00035,225 225,225 L 250,900 C 207.009,897.30135 200,849.99985 200,775 V 625 c 0,-74.99985 0,-125 50,-125 z"
       sodipodi:nodetypes="cssccsscc" /><path
       id="path8098"
       style="fill:#000000;fill-opacity:0.555319;stroke:none;stroke-width:1px;stroke-linecap:butt;stroke-linejoin:miter;stroke-opacity:1"
       d="m 225,400 c 125,0 275,200 275,350 0,75 22.8416,152.54431 100,150 v 100 C 425,1000 300,800 300,650 300,525 275,500 250,500"
       sodipodi:nodetypes="csccsc" /><path
       id="path8098-0"
       style="fill:#000000;fill-opacity:0.555319;stroke:none;stroke-width:1px;stroke-linecap:butt;stroke-linejoin:miter;stroke-opacity:1"
       d="m 225,1000 c 125,0 275,-200 275,-350 0,-75 22.8416,-152.54431 100,-150 V 400 c -175,0 -300,200 -300,350 0,125 -25,150 -50,150"
       sodipodi:nodetypes="csccsc" /><path
       id="path2-6"
       style="fill:#000000;fill-opacity:0.555319;fill-rule:evenodd;stroke:none;stroke-width:0.999873"
       d="M 225 400 C 50.000622 400.18455 0 525.0003 0 625 L 0 775 C 0 874.9997 50.000525 1000 225 1000 C 282.73714 1000 345.78031 957.28728 396.93945 896.58398 C 449.04564 957.28738 519.16793 1000 600 1000 L 600 900 C 522.84168 902.54431 500 824.99992 500 750 C 500 733.81639 498.15906 717.03368 494.88672 700 C 498.15906 682.96632 500 666.18361 500 650 C 500 575.00008 522.84168 497.45569 600 500 L 600 400 C 519.16793 400 449.04564 442.71262 396.93945 503.41602 C 345.78031 442.71272 282.73714 400 225 400 z M 250 500 C 274.99998 500 300 525.00013 300 650 C 300 666.18359 301.53956 682.96635 304.35547 700 C 301.53956 717.03365 300 733.81641 300 750 C 300 874.99987 274.99998 900 250 900 C 207.00904 897.30135 200 849.99978 200 775 L 200 625 C 200 550.00022 200.00005 500 250 500 z " /></g></svg>
