<?xml version="1.0" encoding="UTF-8" standalone="no"?>
<!-- Created with Inkscape (http://www.inkscape.org/) -->

<svg
   width="1200"
   height="1200"
   viewBox="0 0 1200 1200"
   version="1.1"
   id="svg1"
   inkscape:version="1.2.2 (732a01da63, 2022-12-09)"
   sodipodi:docname="948_delta-small.svg"
   xml:space="preserve"
   xmlns:inkscape="http://www.inkscape.org/namespaces/inkscape"
   xmlns:sodipodi="http://sodipodi.sourceforge.net/DTD/sodipodi-0.dtd"
   xmlns="http://www.w3.org/2000/svg"
   xmlns:svg="http://www.w3.org/2000/svg"><sodipodi:namedview
     id="namedview1"
     pagecolor="#ffffff"
     bordercolor="#000000"
     borderopacity="0.25"
     inkscape:showpageshadow="2"
     inkscape:pageopacity="0.0"
     inkscape:pagecheckerboard="0"
     inkscape:deskcolor="#d1d1d1"
     inkscape:document-units="px"
     showgrid="true"
     inkscape:zoom="0.78606708"
     inkscape:cx="515.85929"
     inkscape:cy="815.45204"
     inkscape:window-width="3840"
     inkscape:window-height="2066"
     inkscape:window-x="-11"
     inkscape:window-y="-11"
     inkscape:window-maximized="1"
     inkscape:current-layer="layer1"
     showguides="false"><inkscape:grid
       id="grid1"
       units="px"
       originx="0"
       originy="0"
       spacingx="25"
       spacingy="25"
       empcolor="#0099e5"
       empopacity="0.30196078"
       color="#0099e5"
       opacity="0.14901961"
       empspacing="4"
       dotted="false"
       gridanglex="30"
       gridanglez="30"
       visible="true" /></sodipodi:namedview><defs
     id="defs1" /><g
     inkscape:label="Layer 1"
     inkscape:groupmode="layer"
     id="layer1"><path
       id="path2-2"
       style="fill:#000000;fill-opacity:0.555319;fill-rule:evenodd;stroke-width:0.999873"
       d="M 500,625 C 500,525 424.99982,400 250,400 75.00027,400.18455 0,525.0001 0,625 v 150 c 0,99.9999 75.00017,225 250,225 199.9998,0 250,-125 250,-225 z m -325,0 c 0,-74.99992 25.00005,-125 75,-125 50,0 75,50.00008 75,125 v 150 c 0,74.61401 -50.00886,125.66495 -75,125 -33.80805,-0.89955 -75,-50.00008 -75,-125 z"
       sodipodi:nodetypes="ccssscccsccscc" /><path
       id="path2-1"
       style="fill:#000000;fill-opacity:0.555319;fill-rule:evenodd;stroke-width:0.999873"
       d="M 250,500 C 200,500 23.727844,422.89881 25,325 c 0.974513,-74.99367 75,-125 225,-125 150,0 225,50 225,50 v 100 c 0,0 -70.6832,-46.18353 -225,-50 -49.98472,-1.23619 -75,25 -75,50 0,25 25,50 75,50 z"
       sodipodi:nodetypes="cszccsscc" /><path
       id="path2-2-4"
       style="fill:#000000;fill-opacity:0.555319;fill-rule:evenodd;stroke-width:0.999873"
       d="M 250 200 C 100.00015 200 25.974512 250.0064 25 325 C 24.429928 368.86989 59.538218 408.53355 102.93359 438.98438 C 32.007242 483.83436 0 559.6984 0 625 L 0 775 C 0 874.9998 75.000345 1000 250 1000 C 449.9996 1000 500 874.9999 500 775 L 500 625 C 500 525.0001 424.99965 400 250 400 C 200.00005 400 175 374.99998 175 350 C 175 325.00002 200.01533 298.76381 250 300 C 404.31665 303.81647 475 350 475 350 L 475 250 C 475 250 399.99985 200 250 200 z M 250 500 C 299.99995 500 325 550.00015 325 625 L 325 775 C 325 849.61394 274.99112 900.66495 250 900 C 216.19198 899.10045 175 849.99985 175 775 L 175 625 C 175 550.00015 200.0001 500 250 500 z " /></g></svg>
