<?xml version="1.0" encoding="UTF-8" standalone="no"?>
<!-- Created with Inkscape (http://www.inkscape.org/) -->

<svg
   width="1200"
   height="1200"
   viewBox="0 0 1200 1200"
   version="1.1"
   id="svg1"
   inkscape:version="1.2.2 (732a01da63, 2022-12-09)"
   sodipodi:docname="949_epsilon-small.svg"
   xml:space="preserve"
   xmlns:inkscape="http://www.inkscape.org/namespaces/inkscape"
   xmlns:sodipodi="http://sodipodi.sourceforge.net/DTD/sodipodi-0.dtd"
   xmlns="http://www.w3.org/2000/svg"
   xmlns:svg="http://www.w3.org/2000/svg"><sodipodi:namedview
     id="namedview1"
     pagecolor="#ffffff"
     bordercolor="#000000"
     borderopacity="0.25"
     inkscape:showpageshadow="2"
     inkscape:pageopacity="0.0"
     inkscape:pagecheckerboard="0"
     inkscape:deskcolor="#d1d1d1"
     inkscape:document-units="px"
     showgrid="true"
     inkscape:zoom="1.1116667"
     inkscape:cx="-76.911542"
     inkscape:cy="656.67164"
     inkscape:window-width="3840"
     inkscape:window-height="2066"
     inkscape:window-x="-11"
     inkscape:window-y="-11"
     inkscape:window-maximized="1"
     inkscape:current-layer="layer1"
     showguides="false"><inkscape:grid
       id="grid1"
       units="px"
       originx="0"
       originy="0"
       spacingx="25"
       spacingy="25"
       empcolor="#0099e5"
       empopacity="0.30196078"
       color="#0099e5"
       opacity="0.14901961"
       empspacing="4"
       dotted="false"
       gridanglex="30"
       gridanglez="30"
       visible="true" /></sodipodi:namedview><defs
     id="defs1" /><g
     inkscape:label="Layer 1"
     inkscape:groupmode="layer"
     id="layer1"><path
       style="fill:#000000;fill-opacity:0.555319;stroke:none;stroke-width:1.09545px;stroke-linecap:butt;stroke-linejoin:miter;stroke-opacity:1"
       d="m 500,425 c 0,0 -50,-25 -200,-25 C 150,400 1.1604634,450.00673 0,550 -0.8995502,627.51125 206.48426,775 300,775 H 400 V 625 H 300 c -75,0 -100,-25 -100,-50 0,-50 50,-75 150,-75 100,0 150,25 150,25 z"
       id="path19625"
       sodipodi:nodetypes="csssccssscc" /><path
       style="fill:#000000;fill-opacity:0.555319;stroke:none;stroke-width:1.09545px;stroke-linecap:butt;stroke-linejoin:miter;stroke-opacity:1"
       d="m 500,975 c 0,0 -50,25 -200,25 C 150,1000 1.1604634,949.99327 0,850 -0.8995502,772.48875 206.48426,625 300,625 H 400 V 775 H 300 c -75,0 -100,25 -100,50 0,50 50,75 150,75 100,0 150,-25 150,-25 z"
       id="path19625-2"
       sodipodi:nodetypes="csssccssscc" /><path
       id="path19625-8"
       style="fill:#000000;fill-opacity:0.555319;stroke:none;stroke-width:1.09545px;stroke-linecap:butt;stroke-linejoin:miter;stroke-opacity:1"
       d="M 300 400 C 150.00015 400 1.1604622 450.00683 0 550 C -0.47731061 591.12827 57.690008 651.9555 126.36914 700 C 57.690008 748.0445 -0.47731061 808.87173 0 850 C 1.1604622 949.99317 150.00015 1000 300 1000 C 449.99985 1000 500 975 500 975 L 500 875 C 500 875 449.9999 900 350 900 C 250.0001 900 200 874.99995 200 825 C 200 800.00003 225.00007 775 300 775 L 400 775 L 400 625 L 300 625 C 225.00007 625 200 599.99997 200 575 C 200 525.00005 250.0001 500 350 500 C 449.9999 500 500 525 500 525 L 500 425 C 500 425 449.99985 400 300 400 z " /></g></svg>
