<?xml version="1.0" encoding="UTF-8" standalone="no"?>
<!-- Created with Inkscape (http://www.inkscape.org/) -->

<svg
   width="1200"
   height="1200"
   viewBox="0 0 1200 1200"
   version="1.1"
   id="svg1"
   inkscape:version="1.2.2 (732a01da63, 2022-12-09)"
   sodipodi:docname="958_xi-small.svg"
   xml:space="preserve"
   xmlns:inkscape="http://www.inkscape.org/namespaces/inkscape"
   xmlns:sodipodi="http://sodipodi.sourceforge.net/DTD/sodipodi-0.dtd"
   xmlns="http://www.w3.org/2000/svg"
   xmlns:svg="http://www.w3.org/2000/svg"><sodipodi:namedview
     id="namedview1"
     pagecolor="#ffffff"
     bordercolor="#000000"
     borderopacity="0.25"
     inkscape:showpageshadow="2"
     inkscape:pageopacity="0.0"
     inkscape:pagecheckerboard="0"
     inkscape:deskcolor="#d1d1d1"
     inkscape:document-units="px"
     showgrid="true"
     inkscape:zoom="1.1116667"
     inkscape:cx="-76.911542"
     inkscape:cy="656.67164"
     inkscape:window-width="3840"
     inkscape:window-height="2066"
     inkscape:window-x="-11"
     inkscape:window-y="-11"
     inkscape:window-maximized="1"
     inkscape:current-layer="layer1"
     showguides="false"><inkscape:grid
       id="grid1"
       units="px"
       originx="0"
       originy="0"
       spacingx="25"
       spacingy="25"
       empcolor="#0099e5"
       empopacity="0.30196078"
       color="#0099e5"
       opacity="0.14901961"
       empspacing="4"
       dotted="false"
       gridanglex="30"
       gridanglez="30"
       visible="true" /></sodipodi:namedview><defs
     id="defs1" /><g
     inkscape:label="Layer 1"
     inkscape:groupmode="layer"
     id="layer1"><path
       style="fill:#000000;fill-opacity:0.55531901;stroke:none;stroke-width:1px;stroke-linecap:butt;stroke-linejoin:miter;stroke-opacity:1"
       d="M 300,525 C 152.69865,525 0,600 0,750 c 0,150 150,250 250,250 100,0 150,0 150,50 0,50 -50,50 -50,50 v 100 c 100,0 150,-50 150,-150 C 500,925 373.38831,900 300,900 250,900 200,875 200,750 200,650 250,600 300,600 h 200 v -75 z"
       id="path24528"
       sodipodi:nodetypes="ssssccssssccs" /><rect
       style="opacity:0.489888;fill:#000000;fill-opacity:0.55531901;fill-rule:evenodd;stroke:none;stroke-width:100;stroke-linecap:round;stroke-linejoin:round;stroke-miterlimit:4.5;stop-color:#000000;stroke-opacity:1"
       id="rect28190"
       width="500"
       height="100"
       x="0"
       y="200" /><path
       style="fill:#000000;stroke:none;stroke-width:1px;stroke-linecap:butt;stroke-linejoin:miter;stroke-opacity:1;fill-opacity:0.55531901"
       d="m 100,400 c 0,100 75,200 200,200 H 500 V 500 H 400 C 343.89055,500 300,450 300,400 300,350 350,300 400,300 H 500 V 200 H 300 C 175,200 100,300 100,400 Z"
       id="path28192"
       sodipodi:nodetypes="zsccszsccsz" /><path
       id="path24528-7"
       style="fill:#000000;fill-opacity:0.555319;stroke:none;stroke-width:1px;stroke-linecap:butt;stroke-linejoin:miter;stroke-opacity:1"
       d="M 0 200 L 0 300 L 126.11719 300 C 109.06829 330.54333 100 365.26627 100 400 C 100 454.68879 122.47617 509.33784 163.25 547.66992 C 71.201625 580.15907 0 647.58436 0 750 C 0 899.99985 150.0001 1000 250 1000 C 349.9999 1000 400 1000 400 1050 C 400 1099.9999 350 1100 350 1100 L 350 1200 C 449.9999 1200 500 1149.9999 500 1050 C 500 925.00013 373.38824 900 300 900 C 250.00005 900 200 874.99987 200 750 C 200 650.0001 250.00005 600 300 600 L 500 600 L 500 525 L 500 500 L 400 500 C 343.89061 500 300 449.99995 300 400 C 300 350.00005 350.00005 300 400 300 L 500 300 L 500 200 L 0 200 z " /></g></svg>
