<?xml version="1.0" encoding="UTF-8" standalone="no"?>
<!-- Created with Inkscape (http://www.inkscape.org/) -->

<svg
   width="1200"
   height="1200"
   viewBox="0 0 1200 1200"
   version="1.1"
   id="svg1"
   inkscape:version="1.2.2 (732a01da63, 2022-12-09)"
   sodipodi:docname="966_phi-symbol.svg"
   xml:space="preserve"
   xmlns:inkscape="http://www.inkscape.org/namespaces/inkscape"
   xmlns:sodipodi="http://sodipodi.sourceforge.net/DTD/sodipodi-0.dtd"
   xmlns="http://www.w3.org/2000/svg"
   xmlns:svg="http://www.w3.org/2000/svg"><sodipodi:namedview
     id="namedview1"
     pagecolor="#ffffff"
     bordercolor="#000000"
     borderopacity="0.25"
     inkscape:showpageshadow="2"
     inkscape:pageopacity="0.0"
     inkscape:pagecheckerboard="0"
     inkscape:deskcolor="#d1d1d1"
     inkscape:document-units="px"
     showgrid="true"
     inkscape:zoom="1.1116667"
     inkscape:cx="-175.86206"
     inkscape:cy="656.67164"
     inkscape:window-width="3840"
     inkscape:window-height="2066"
     inkscape:window-x="-11"
     inkscape:window-y="-11"
     inkscape:window-maximized="1"
     inkscape:current-layer="layer1"
     showguides="false"><inkscape:grid
       id="grid1"
       units="px"
       originx="0"
       originy="0"
       spacingx="25"
       spacingy="25"
       empcolor="#0099e5"
       empopacity="0.30196078"
       color="#0099e5"
       opacity="0.14901961"
       empspacing="4"
       dotted="false"
       gridanglex="30"
       gridanglez="30"
       visible="true" /></sodipodi:namedview><defs
     id="defs1" /><g
     inkscape:label="Layer 1"
     inkscape:groupmode="layer"
     id="layer1"><path
       style="fill:#000000;fill-opacity:0.555319;stroke:none;stroke-width:1px;stroke-linecap:butt;stroke-linejoin:miter;stroke-opacity:1"
       d="M 300,900 C 250,900 200,825 200,700 200,600 250,500 300,500 V 400 C 125,400 -1.7991004,498.72564 0,700 c 1.787638,199.99201 125,300 300,300 v -50 z"
       id="path24528"
       sodipodi:nodetypes="csccsccc" /><path
       style="fill:#000000;fill-opacity:0.555319;stroke:none;stroke-width:1px;stroke-linecap:butt;stroke-linejoin:miter;stroke-opacity:1"
       d="m 550,500 c 22.11394,3.5982 50,75 50,200 0,100 -50,200 -100,200 v 100 C 675,1000 801.7991,901.27436 800,700 798.21236,500.00799 725,400 550,400 v 50 z"
       id="path24528-6"
       sodipodi:nodetypes="csccsccc" /><path
       style="fill:#000000;stroke:none;stroke-width:1px;stroke-linecap:butt;stroke-linejoin:miter;stroke-opacity:1;fill-opacity:0.56"
       d="M 500,1200 V 700 c 0,-125 25,-200 50,-200 V 400 C 428.4108,400.89955 300,575 300,775 v 425 z"
       id="path37329"
       sodipodi:nodetypes="csccscc" /><path
       id="path24528-2"
       style="fill:#000000;fill-opacity:0.555319;stroke:none;stroke-width:1px;stroke-linecap:butt;stroke-linejoin:miter;stroke-opacity:1"
       d="M 300 400 C 125.00018 400 -1.7990986 498.72584 0 700 C 1.7876362 899.99181 125.00017 1000 300 1000 L 300 1200 L 500 1200 L 500 1000 C 674.99982 1000 801.7991 901.27416 800 700 C 798.21236 500.00819 724.99982 400 550 400 C 428.41092 400.89955 300 575.0002 300 775 L 300 900 C 250.00005 900 200 824.99987 200 700 C 200 600.0001 250.00005 500 300 500 L 300 400 z M 550 500 C 572.11392 503.5982 600 575.00013 600 700 C 600 799.9999 549.99995 900 500 900 L 500 700 C 500 575.00013 525.00003 500 550 500 z " /></g></svg>
