<?xml version="1.0" encoding="UTF-8" standalone="no"?>
<!-- Created with Inkscape (http://www.inkscape.org/) -->

<svg
   width="1200"
   height="1200"
   viewBox="0 0 1200 1200"
   version="1.1"
   id="svg1"
   inkscape:version="1.2.2 (732a01da63, 2022-12-09)"
   sodipodi:docname="976_beta-symbol.svg"
   xml:space="preserve"
   xmlns:inkscape="http://www.inkscape.org/namespaces/inkscape"
   xmlns:sodipodi="http://sodipodi.sourceforge.net/DTD/sodipodi-0.dtd"
   xmlns="http://www.w3.org/2000/svg"
   xmlns:svg="http://www.w3.org/2000/svg"><sodipodi:namedview
     id="namedview1"
     pagecolor="#ffffff"
     bordercolor="#000000"
     borderopacity="0.25"
     inkscape:showpageshadow="2"
     inkscape:pageopacity="0.0"
     inkscape:pagecheckerboard="0"
     inkscape:deskcolor="#d1d1d1"
     inkscape:document-units="px"
     showgrid="true"
     inkscape:zoom="0.78606705"
     inkscape:cx="422.99191"
     inkscape:cy="734.03408"
     inkscape:window-width="1350"
     inkscape:window-height="1230"
     inkscape:window-x="1722"
     inkscape:window-y="67"
     inkscape:window-maximized="0"
     inkscape:current-layer="layer1"
     showguides="false"><inkscape:grid
       id="grid1"
       units="px"
       originx="0"
       originy="0"
       spacingx="25"
       spacingy="25"
       empcolor="#0099e5"
       empopacity="0.30196078"
       color="#0099e5"
       opacity="0.14901961"
       empspacing="4"
       dotted="false"
       gridanglex="30"
       gridanglez="30"
       visible="true" /></sodipodi:namedview><defs
     id="defs1" /><g
     inkscape:label="Layer 1"
     inkscape:groupmode="layer"
     id="layer1"><rect
       style="opacity:0.489888;fill:#000000;fill-opacity:0.56;fill-rule:evenodd;stroke-width:86.6025;stroke-linecap:round;stroke-linejoin:round;stroke-miterlimit:4.5;stop-color:#000000"
       id="rect5285"
       width="200"
       height="600"
       x="0"
       y="400" /><path
       id="path5289"
       style="fill:#000000;stroke:none;stroke-width:1px;stroke-linecap:butt;stroke-linejoin:miter;stroke-opacity:1;fill-opacity:0.55531901"
       d="m 200,400 c 0,-75 25,-100 50,-100 29.20238,0 50,25.00013 50,100 0,74.99988 -75.00002,100 -100,100 v 100 c 48.2847,0 100,50.00015 100,125 v 50 c 0,74.99987 -50.0001,125 -100,125 v 100 h 50 c 174.99965,0 250,-125.00015 250,-225 V 725 C 500,665.22027 473.16777,596.52707 414.22266,550.92383 459.18642,512.47246 475,456.23623 475,400 475,300.00019 424.99965,199.99998 250,200 75,200 0,300 0,400 Z"
       sodipodi:nodetypes="ccsccssccssscsccc" /><path
       id="rect5285-0"
       style="opacity:0.489888;fill:#000000;fill-opacity:0.56;fill-rule:evenodd;stroke-width:86.6025;stroke-linecap:round;stroke-linejoin:round;stroke-miterlimit:4.5;stop-color:#000000"
       d="M 250 200 C 75.000175 200 0 300.0001 0 400 L 0 1000 L 200 1000 L 250 1000 C 424.99948 1000 500 874.99975 500 775 L 500 725 C 500 665.22033 473.16771 596.52702 414.22266 550.92383 C 459.18637 512.4725 475 456.23617 475 400 C 475 300.00029 424.99948 199.99998 250 200 z M 250 300 C 279.20235 300 300 325.0002 300 400 C 300 474.99981 224.99996 500 200 500 L 200 400 C 200 325.00007 225.00002 300 250 300 z M 200 600 C 248.28465 600 300 650.00022 300 725 L 300 775 C 300 849.9998 249.99985 900 200 900 L 200 600 z " /></g></svg>
