<?xml version="1.0" encoding="UTF-8" standalone="no"?>
<!-- Created with Inkscape (http://www.inkscape.org/) -->

<svg
   width="1200"
   height="1200"
   viewBox="0 0 1200 1200"
   version="1.1"
   id="svg1"
   inkscape:version="1.3 (0e150ed6c4, 2023-07-21)"
   sodipodi:docname="981_pi-symbol.svg"
   xml:space="preserve"
   xmlns:inkscape="http://www.inkscape.org/namespaces/inkscape"
   xmlns:sodipodi="http://sodipodi.sourceforge.net/DTD/sodipodi-0.dtd"
   xmlns="http://www.w3.org/2000/svg"
   xmlns:svg="http://www.w3.org/2000/svg"><sodipodi:namedview
     id="namedview1"
     pagecolor="#ffffff"
     bordercolor="#000000"
     borderopacity="0.25"
     inkscape:showpageshadow="2"
     inkscape:pageopacity="0.0"
     inkscape:pagecheckerboard="0"
     inkscape:deskcolor="#d1d1d1"
     inkscape:document-units="px"
     showgrid="true"
     inkscape:zoom="1.1116667"
     inkscape:cx="450.67465"
     inkscape:cy="718.29083"
     inkscape:window-width="2560"
     inkscape:window-height="1494"
     inkscape:window-x="-11"
     inkscape:window-y="-11"
     inkscape:window-maximized="1"
     inkscape:current-layer="layer1"
     showguides="false"><inkscape:grid
       id="grid1"
       units="px"
       originx="0"
       originy="0"
       spacingx="25"
       spacingy="25"
       empcolor="#0099e5"
       empopacity="0.30196078"
       color="#0099e5"
       opacity="0.14901961"
       empspacing="4"
       dotted="false"
       gridanglex="30"
       gridanglez="30"
       visible="true" /></sodipodi:namedview><defs
     id="defs1" /><g
     inkscape:label="Layer 1"
     inkscape:groupmode="layer"
     id="layer1"><path
       id="path2"
       style="fill:#000000;fill-opacity:0.555319;fill-rule:evenodd;stroke-width:0.999873"
       d="m 175,600 c 0,-100 25,-200 25,-200 H 50 C 50,400 0,500 0,600 v 175 c 0,99.9999 75.000169,225 250,225 155.92184,0 200,-300 200,-400 V 400 H 300 v 375 c 0,74.61401 -25.00886,125.66495 -50,125 -33.80805,-0.89955 -75,-50.00008 -75,-125 z"
       sodipodi:nodetypes="sccsssccccsss" /><path
       id="path2-4"
       style="fill:#000000;fill-opacity:0.555319;fill-rule:evenodd;stroke-width:0.999873"
       d="M 625,600 C 625,500 600,400 600,400 h 150 c 0,0 50,100 50,200 v 175 c 0,99.9999 -75.00326,223.96041 -250,225 C 398.57591,1000.8996 350,700 350,600 V 400 h 150 v 375 c 0,74.61401 25.00886,125.66495 50,125 33.80805,-0.89955 75,-50.00008 75,-125 z"
       sodipodi:nodetypes="sccsssccccsss" /><rect
       style="fill:#000000;fill-rule:evenodd"
       id="rect1"
       width="800"
       height="100"
       x="0"
       y="400" /><path
       id="path2-9"
       style="fill:#000000;fill-opacity:0.555319;fill-rule:evenodd;stroke-width:0.999873"
       d="M 0 400 L 0 500 L 13.974609 500 C 6.0895313 530.56469 0 565.23278 0 600 L 0 775 C 0 874.9998 75.000344 1000 250 1000 C 321.80544 1000 369.8459 936.33439 400.83008 857.91992 C 432.23807 936.58697 480.15814 1000.4149 550 1000 C 724.99657 998.96041 800 874.9998 800 775 L 800 600 C 800 565.23278 793.91047 530.56469 786.02539 500 L 800 500 L 800 400 L 450 400 L 350 400 L 300 400 L 200 400 L 50 400 L 0 400 z M 182.05469 500 L 300 500 L 300 775 C 300 849.61394 274.99112 900.66495 250 900 C 216.19198 899.10045 175 849.99985 175 775 L 175 600 C 175 565.17341 178.10227 530.6025 182.05469 500 z M 500 500 L 617.94531 500 C 621.89773 530.6025 625 565.17341 625 600 L 625 775 C 625 849.99985 583.80802 899.10045 550 900 C 525.00888 900.66495 500 849.61394 500 775 L 500 500 z " /></g></svg>
