<?xml version="1.0" encoding="UTF-8" standalone="no"?>
<!-- Created with Inkscape (http://www.inkscape.org/) -->

<svg
   width="1200"
   height="1200"
   viewBox="0 0 1200 1200"
   version="1.1"
   id="svg1"
   inkscape:version="1.3 (0e150ed6c4, 2023-07-21)"
   sodipodi:docname="983_kai-symbol.svg"
   xml:space="preserve"
   xmlns:inkscape="http://www.inkscape.org/namespaces/inkscape"
   xmlns:sodipodi="http://sodipodi.sourceforge.net/DTD/sodipodi-0.dtd"
   xmlns="http://www.w3.org/2000/svg"
   xmlns:svg="http://www.w3.org/2000/svg"><sodipodi:namedview
     id="namedview1"
     pagecolor="#ffffff"
     bordercolor="#000000"
     borderopacity="0.25"
     inkscape:showpageshadow="2"
     inkscape:pageopacity="0.0"
     inkscape:pagecheckerboard="0"
     inkscape:deskcolor="#d1d1d1"
     inkscape:document-units="px"
     showgrid="true"
     inkscape:zoom="0.78606705"
     inkscape:cx="445.25464"
     inkscape:cy="746.11956"
     inkscape:window-width="2560"
     inkscape:window-height="1494"
     inkscape:window-x="-11"
     inkscape:window-y="-11"
     inkscape:window-maximized="1"
     inkscape:current-layer="layer1"
     showguides="false"><inkscape:grid
       id="grid1"
       units="px"
       originx="0"
       originy="0"
       spacingx="25"
       spacingy="25"
       empcolor="#0099e5"
       empopacity="0.30196078"
       color="#0099e5"
       opacity="0.14901961"
       empspacing="4"
       dotted="false"
       gridanglex="30"
       gridanglez="30"
       visible="true" /></sodipodi:namedview><defs
     id="defs1" /><g
     inkscape:label="Layer 1"
     inkscape:groupmode="layer"
     id="layer1"><path
       style="fill:#000000;fill-opacity:0.555319;stroke:none;stroke-width:1px;stroke-linecap:butt;stroke-linejoin:miter;stroke-opacity:1"
       d="m 500,1050 c 0,50 -50.00005,50 -50.00005,50 v 100 c 100.00005,0 150,-50 150,-150 L 600,1000 500,900 Z"
       id="path24528"
       sodipodi:nodetypes="ccccccc" /><path
       style="fill:#000000;fill-opacity:0.555319;stroke:none;stroke-width:1px;stroke-linecap:butt;stroke-linejoin:miter;stroke-opacity:1"
       d="M 600,900 C 550,900 500,825 500,700 500,600 550,500 600,500 V 400 c -125,0 -251.7991,98.72564 -250,300 1.78764,199.99201 125,300 250,300 z"
       id="path24528-7-7"
       sodipodi:nodetypes="csccscc" /><path
       style="fill:#000000;fill-opacity:0.555319;stroke:none;stroke-width:1px;stroke-linecap:butt;stroke-linejoin:miter;stroke-opacity:1"
       d="M 0,900 C 50,900 100,825 100,700 100,600 50,500 0,500 V 400 c 125,0 251.7991,98.72564 250,300 -1.78764,199.99201 -125,300 -250,300 z"
       id="path24528-7"
       sodipodi:nodetypes="csccscc" /><path
       style="fill:#000000;fill-rule:evenodd"
       d="M 150,925 75,850 457.41138,467.58862 525,535.17725 Z"
       id="path1" /><path
       id="path24528-6"
       style="fill:#000000;fill-opacity:0.555319;stroke:none;stroke-width:1px;stroke-linecap:butt;stroke-linejoin:miter;stroke-opacity:1"
       d="M 0 400 L 0 500 C 49.99995 500 100 600.0001 100 700 C 100 824.99987 49.99995 900 0 900 L 0 1000 C 87.177613 1000 173.43219 951.29259 218.28711 854.01367 L 350.4668 716.60938 C 356.41113 852.18125 419.77903 939.08572 500 977.36328 L 500 1050 C 500 1099.9999 450 1100 450 1100 L 450 1200 C 549.99995 1200 600 1149.9999 600 1050 L 600 1000 L 600 900 C 550.00005 900 500 824.99987 500 700 C 500 600.0001 550.00005 500 600 500 L 600 400 C 513.11939 400 425.41764 447.74799 380.58203 544.41797 L 249.48828 675.51172 C 241.18721 490.75967 119.80684 400 0 400 z " /></g></svg>
