<?xml version="1.0" encoding="UTF-8" standalone="no"?>
<!-- Created with Inkscape (http://www.inkscape.org/) -->

<svg
   width="1200"
   height="1200"
   viewBox="0 0 1200 1200"
   version="1.1"
   id="svg1"
   inkscape:version="1.2.2 (732a01da63, 2022-12-09)"
   sodipodi:docname="ascii_57_9.svg"
   xml:space="preserve"
   xmlns:inkscape="http://www.inkscape.org/namespaces/inkscape"
   xmlns:sodipodi="http://sodipodi.sourceforge.net/DTD/sodipodi-0.dtd"
   xmlns="http://www.w3.org/2000/svg"
   xmlns:svg="http://www.w3.org/2000/svg"><sodipodi:namedview
     id="namedview1"
     pagecolor="#ffffff"
     bordercolor="#000000"
     borderopacity="0.25"
     inkscape:showpageshadow="2"
     inkscape:pageopacity="0.0"
     inkscape:pagecheckerboard="0"
     inkscape:deskcolor="#d1d1d1"
     inkscape:document-units="px"
     showgrid="true"
     inkscape:zoom="1.1116667"
     inkscape:cx="105.69715"
     inkscape:cy="823.98798"
     inkscape:window-width="1920"
     inkscape:window-height="2066"
     inkscape:window-x="5749"
     inkscape:window-y="-11"
     inkscape:window-maximized="0"
     inkscape:current-layer="layer1"
     showguides="false"><inkscape:grid
       id="grid1"
       units="px"
       originx="0"
       originy="0"
       spacingx="25"
       spacingy="25"
       empcolor="#0099e5"
       empopacity="0.30196078"
       color="#0099e5"
       opacity="0.14901961"
       empspacing="4"
       dotted="false"
       gridanglex="30"
       gridanglez="30"
       visible="true" /></sodipodi:namedview><defs
     id="defs1" /><g
     inkscape:label="Layer 1"
     inkscape:groupmode="layer"
     id="layer1"><path
       id="path2-8-3"
       style="fill:#000000;fill-opacity:0.555319;fill-rule:evenodd;stroke-width:0.999873"
       d="m 400,475 v -50 c 0,-75 -25,-125 -100,-125 -75,0 -100,50 -100,125 v 50 c 0,75 25,125 100,125 75,0 100,-55.92204 100,-125 z M 0,475 V 425 C 0,300 75,200 300,200 c 225,0 300,100 300,225 v 50 C 600,600 525,700 300,700 75,700 0,600 0,475 Z"
       sodipodi:nodetypes="ssssssssssssss" /><path
       style="fill:#000000;fill-opacity:0.555319;stroke:none;stroke-width:1px;stroke-linecap:butt;stroke-linejoin:miter;stroke-opacity:1"
       d="m 100,925 v 75 H 225 L 500,725 C 550,675 600,625 600,475 l -100,50 z"
       id="path42695"
       sodipodi:nodetypes="cccsccc" /><path
       id="path2-8-3-3"
       style="fill:#000000;fill-opacity:0.555319;fill-rule:evenodd;stroke-width:0.999873"
       d="M 300 200 C 75.000225 200 5.2041652e-16 300.00013 0 425 L 0 475 C 0 599.99987 75.000225 700 300 700 C 308.75279 700 317.19874 699.79629 325.50195 699.49805 L 100 925 L 100 1000 L 225 1000 L 500 725 C 548.5732 676.4268 597.00576 627.57098 599.73828 487.31641 C 599.90517 483.23842 600 479.13543 600 475 L 600 425 C 600 300.00013 524.99977 200 300 200 z M 300 300 C 374.99993 300 400 350.00007 400 425 L 400 475 C 400 544.07789 374.99993 600 300 600 C 225.00007 600 200 549.99992 200 475 L 200 425 C 200 350.00007 225.00007 300 300 300 z " /></g></svg>
