<?xml version="1.0" encoding="UTF-8" standalone="no"?>
<!-- Created with Inkscape (http://www.inkscape.org/) -->

<svg
   width="1200"
   height="1200"
   viewBox="0 0 1200 1200"
   version="1.1"
   id="svg1"
   inkscape:version="1.3 (0e150ed6c4, 2023-07-21)"
   sodipodi:docname="ascii_81_Q.svg"
   xml:space="preserve"
   xmlns:inkscape="http://www.inkscape.org/namespaces/inkscape"
   xmlns:sodipodi="http://sodipodi.sourceforge.net/DTD/sodipodi-0.dtd"
   xmlns="http://www.w3.org/2000/svg"
   xmlns:svg="http://www.w3.org/2000/svg"><sodipodi:namedview
     id="namedview1"
     pagecolor="#ffffff"
     bordercolor="#000000"
     borderopacity="0.25"
     inkscape:showpageshadow="2"
     inkscape:pageopacity="0.0"
     inkscape:pagecheckerboard="0"
     inkscape:deskcolor="#d1d1d1"
     inkscape:document-units="px"
     showgrid="true"
     inkscape:zoom="1.1116667"
     inkscape:cx="343.1784"
     inkscape:cy="717.39128"
     inkscape:window-width="2560"
     inkscape:window-height="1494"
     inkscape:window-x="-11"
     inkscape:window-y="-11"
     inkscape:window-maximized="1"
     inkscape:current-layer="layer1"
     showguides="false"><inkscape:grid
       id="grid1"
       units="px"
       originx="0"
       originy="0"
       spacingx="25"
       spacingy="25"
       empcolor="#0099e5"
       empopacity="0.30196078"
       color="#0099e5"
       opacity="0.14901961"
       empspacing="4"
       dotted="false"
       gridanglex="30"
       gridanglez="30"
       visible="true" /></sodipodi:namedview><defs
     id="defs1" /><g
     inkscape:label="Layer 1"
     inkscape:groupmode="layer"
     id="layer1"><path
       style="fill:#999999;fill-rule:evenodd;stroke-width:3.7"
       d="M 300,900 V 800 h 100 l 200,200 v 100 H 500 Z"
       id="path1"
       sodipodi:nodetypes="ccccccc" /><path
       id="path2-8-0"
       style="fill:#000000;fill-opacity:0.555319;fill-rule:evenodd;stroke-width:0.999873"
       d="M 400,625 V 575 C 400,450 400,300 300,300 200,300 200,450 200,575 v 50 c 0,125 0,275.00004 100,275.00004 C 400,900.00004 400,750 400,625 Z M 10e-7,625 V 575 C 10e-7,375 75,200 300,200 c 225,0 300,175 300,375 v 50 c 0,200 -75,375 -300,375 C 75,1000 10e-7,825 10e-7,625 Z"
       sodipodi:nodetypes="sszsszssssssss" /><path
       id="path1-0"
       style="fill:#999999;fill-rule:evenodd;stroke-width:3.7"
       d="M 300 200 C 75.000225 200 1.040833e-15 375.0002 0 575 L 0 625 C -7.5791149e-14 824.9998 75.000225 1000 300 1000 C 332.8743 1000 362.4562 996.16395 389.16016 989.16016 L 500 1100 L 600 1100 L 600 1000 L 513.83398 913.83398 C 575.81425 843.85167 600 738.47052 600 625 L 600 575 C 600 375.0002 524.99977 200 300 200 z M 300 300 C 399.9999 300 400 450.00013 400 575 L 400 625 C 400 683.9464 399.86374 748.2865 389.37695 800 L 300 800 L 300 900 C 200.0001 900 200 749.99987 200 625 L 200 575 C 200 450.00013 200.0001 300 300 300 z " /></g></svg>
