<?xml version="1.0" encoding="UTF-8" standalone="no"?>
<!-- Created with Inkscape (http://www.inkscape.org/) -->

<svg
   width="1200"
   height="1200"
   viewBox="0 0 1200 1200"
   version="1.1"
   id="svg1"
   inkscape:version="1.2.1 (9c6d41e410, 2022-07-14)"
   sodipodi:docname="ascii_48_0.svg"
   xml:space="preserve"
   xmlns:inkscape="http://www.inkscape.org/namespaces/inkscape"
   xmlns:sodipodi="http://sodipodi.sourceforge.net/DTD/sodipodi-0.dtd"
   xmlns="http://www.w3.org/2000/svg"
   xmlns:svg="http://www.w3.org/2000/svg"><sodipodi:namedview
     id="namedview1"
     pagecolor="#ffffff"
     bordercolor="#000000"
     borderopacity="0.25"
     inkscape:showpageshadow="2"
     inkscape:pageopacity="0.0"
     inkscape:pagecheckerboard="0"
     inkscape:deskcolor="#d1d1d1"
     inkscape:document-units="px"
     showgrid="true"
     inkscape:zoom="0.78606706"
     inkscape:cx="281.78257"
     inkscape:cy="599.18552"
     inkscape:window-width="2560"
     inkscape:window-height="1377"
     inkscape:window-x="1072"
     inkscape:window-y="-8"
     inkscape:window-maximized="1"
     inkscape:current-layer="layer1"
     showguides="false"><inkscape:grid
       id="grid1"
       units="px"
       originx="0"
       originy="0"
       spacingx="25"
       spacingy="25"
       empcolor="#0099e5"
       empopacity="0.30196078"
       color="#0099e5"
       opacity="0.14901961"
       empspacing="4"
       dotted="false"
       gridanglex="30"
       gridanglez="30"
       visible="true" /></sodipodi:namedview><defs
     id="defs1" /><g
     inkscape:label="Layer 1"
     inkscape:groupmode="layer"
     id="layer1"><path
       id="path2-8"
       style="fill:#000000;fill-opacity:0.555319;fill-rule:evenodd;stroke-width:0.999873"
       d="M 400,625 V 575 C 400,450 400,300 300,300 200,300 200,450 200,575 v 50 c 0,125 0,275 100,275 100,0 100,-150 100,-275 z M 0,625 V 575 C 0,375 75,200 300,200 c 225,0 300,175 300,375 v 50 c 0,200 -75,375 -300,375 C 75,1000 0,825 0,625 Z"
       sodipodi:nodetypes="sszsszssszsszs" /><path
       style="font-variation-settings:normal;opacity:1;vector-effect:none;fill:#666666;fill-opacity:1;fill-rule:evenodd;stroke:none;stroke-width:0.999999px;stroke-linecap:butt;stroke-linejoin:miter;stroke-miterlimit:4;stroke-dasharray:none;stroke-dashoffset:0;stroke-opacity:1;-inkscape-stroke:none;stop-color:#000000;stop-opacity:1"
       d="M 200,625 V 775 L 400,575 V 425 Z"
       id="path336"
       sodipodi:nodetypes="ccccc" /><path
       id="path2-8-5"
       style="fill:#000000;fill-opacity:0.555319;fill-rule:evenodd;stroke-width:0.999873"
       d="M 300 200 C 75.000225 200 1.040833e-15 375.0002 0 575 L 0 625 C 0 824.9998 75.000225 1000 300 1000 C 524.99977 1000 600 824.9998 600 625 L 600 575 C 600 375.0002 524.99977 200 300 200 z M 300 300 C 361.80179 300 385.36337 357.34393 394.38086 430.61914 L 200 625 L 200 575 C 200 450.00013 200.0001 300 300 300 z M 400 575 L 400 625 C 400 749.99987 399.9999 900 300 900 C 238.19821 900 214.63663 842.65607 205.61914 769.38086 L 400 575 z " /></g></svg>
