<?xml version="1.0" encoding="UTF-8" standalone="no"?>
<!-- Created with Inkscape (http://www.inkscape.org/) -->

<svg
   width="1200"
   height="1200"
   viewBox="0 0 1200 1200"
   version="1.1"
   id="svg1"
   inkscape:version="1.3 (0e150ed6c4, 2023-07-21)"
   sodipodi:docname="ascii_37_percentage-sign.svg"
   xml:space="preserve"
   xmlns:inkscape="http://www.inkscape.org/namespaces/inkscape"
   xmlns:sodipodi="http://sodipodi.sourceforge.net/DTD/sodipodi-0.dtd"
   xmlns="http://www.w3.org/2000/svg"
   xmlns:svg="http://www.w3.org/2000/svg"><sodipodi:namedview
     id="namedview1"
     pagecolor="#ffffff"
     bordercolor="#000000"
     borderopacity="0.25"
     inkscape:showpageshadow="2"
     inkscape:pageopacity="0.0"
     inkscape:pagecheckerboard="0"
     inkscape:deskcolor="#d1d1d1"
     inkscape:document-units="px"
     showgrid="true"
     inkscape:zoom="1.1116667"
     inkscape:cx="397.15141"
     inkscape:cy="613.94301"
     inkscape:window-width="2560"
     inkscape:window-height="1494"
     inkscape:window-x="-11"
     inkscape:window-y="-11"
     inkscape:window-maximized="1"
     inkscape:current-layer="layer1"
     showguides="false"><inkscape:grid
       id="grid1"
       units="px"
       originx="0"
       originy="0"
       spacingx="25"
       spacingy="25"
       empcolor="#0099e5"
       empopacity="0.30196078"
       color="#0099e5"
       opacity="0.14901961"
       empspacing="4"
       dotted="false"
       gridanglex="30"
       gridanglez="30"
       visible="true" /></sodipodi:namedview><defs
     id="defs1" /><g
     inkscape:label="Layer 1"
     inkscape:groupmode="layer"
     id="layer1"><path
       style="fill:#000000;fill-opacity:0.555319;stroke:none;stroke-width:1px;stroke-linecap:butt;stroke-linejoin:miter;stroke-opacity:1"
       d="m 0,900 v 100 H 100 L 700,300 V 200 H 600 Z"
       id="path4100"
       sodipodi:nodetypes="ccccccc" /><path
       id="path2"
       style="fill:#000000;fill-opacity:0.555319;fill-rule:evenodd;stroke-width:0.999873"
       d="M 200,600 C 350,600 400,500 400,400 400,300 350,200 200,200 50,200 0,300.0001 0,400 0,499.9999 50,600 200,600 Z M 125,400 c 0,-74.99992 25.00005,-100 75,-100 50,0 75,25.00008 75,99.80705 0,74.80696 -50.00886,100.8579 -75,100.19295 -33.80805,-0.89955 -75,-25.00008 -75,-100 z"
       sodipodi:nodetypes="zszszsssss" /><path
       id="path2-1"
       style="fill:#000000;fill-opacity:0.555319;fill-rule:evenodd;stroke-width:0.999873"
       d="m 500,1000 c 150,0 200,-100 200,-200 0,-100 -50,-200 -200,-200 -150,0 -200,100.0001 -200,200 0,99.9999 50,200 200,200 z M 425,800 c 0,-74.99992 25.00005,-100 75,-100 50,0 75,25.00008 75,99.80705 0,74.80696 -50.00886,100.8579 -75,100.19295 -33.80805,-0.89955 -75,-25.00008 -75,-100 z"
       sodipodi:nodetypes="zszszsssss" /><path
       id="path4100-2"
       style="fill:#000000;fill-opacity:0.555319;stroke:none;stroke-width:1px;stroke-linecap:butt;stroke-linejoin:miter;stroke-opacity:1"
       d="M 200 200 C 50.00015 200 0 300.0002 0 400 C 0 499.9998 50.00015 600 200 600 C 223.3954 600 244.35635 597.564 263.07617 593.07812 L 0 900 L 0 1000 L 100 1000 L 302.28906 763.99609 C 300.74664 775.88171 300 787.93894 300 800 C 300 899.9998 350.00015 1000 500 1000 C 649.99985 1000 700 899.9999 700 800 C 700 700.0001 649.99985 600 500 600 C 476.6046 600 455.64365 602.436 436.92383 606.92188 L 700 300 L 700 200 L 600 200 L 397.71094 436.00391 C 399.25336 424.11828 400 412.06108 400 400 C 400 300.0001 349.99985 200 200 200 z M 200 300 C 249.99995 300 275 324.99975 275 399.80664 C 275 474.61353 224.99112 500.66495 200 500 C 166.19198 499.10045 125 474.99985 125 400 C 125 325.00015 150.0001 300 200 300 z M 500 700 C 549.99995 700 575 724.99975 575 799.80664 C 575 874.61353 524.99112 900.66495 500 900 C 466.19198 899.10045 425 874.99985 425 800 C 425 725.00015 450.0001 700 500 700 z " /></g></svg>
