<?xml version="1.0" encoding="UTF-8" standalone="no"?>
<!-- Created with Inkscape (http://www.inkscape.org/) -->

<svg
   width="1200"
   height="1200"
   viewBox="0 0 1200 1200"
   version="1.1"
   id="svg1"
   inkscape:version="1.2.1 (9c6d41e410, 2022-07-14)"
   sodipodi:docname="ascii_38_ampersand.svg"
   xml:space="preserve"
   xmlns:inkscape="http://www.inkscape.org/namespaces/inkscape"
   xmlns:sodipodi="http://sodipodi.sourceforge.net/DTD/sodipodi-0.dtd"
   xmlns="http://www.w3.org/2000/svg"
   xmlns:svg="http://www.w3.org/2000/svg"><sodipodi:namedview
     id="namedview1"
     pagecolor="#ffffff"
     bordercolor="#000000"
     borderopacity="0.25"
     inkscape:showpageshadow="2"
     inkscape:pageopacity="0.0"
     inkscape:pagecheckerboard="0"
     inkscape:deskcolor="#d1d1d1"
     inkscape:document-units="px"
     showgrid="true"
     inkscape:zoom="1.1116667"
     inkscape:cx="289.65516"
     inkscape:cy="549.62517"
     inkscape:window-width="2560"
     inkscape:window-height="1377"
     inkscape:window-x="1072"
     inkscape:window-y="-8"
     inkscape:window-maximized="1"
     inkscape:current-layer="layer1"
     showguides="false"><inkscape:grid
       id="grid1"
       units="px"
       originx="0"
       originy="0"
       spacingx="25"
       spacingy="25"
       empcolor="#0099e5"
       empopacity="0.30196078"
       color="#0099e5"
       opacity="0.14901961"
       empspacing="4"
       dotted="false"
       gridanglex="30"
       gridanglez="30"
       visible="true" /></sodipodi:namedview><defs
     id="defs1" /><g
     inkscape:label="Layer 1"
     inkscape:groupmode="layer"
     id="layer1"><path
       id="path2"
       style="fill:#000000;fill-opacity:0.555319;fill-rule:nonzero;stroke-width:0.999873"
       d="M 600,675 V 550 H 525 L 325,750 c -50,50 -75,150 -125,150 -50,0 -75,-25 -75,-100 0,-75 50,-100 100,-100 150,0 275,-200 275,-300 0,-100 -25.0002,-200.09228 -200,-200 -174.9998,0.0923 -200,100 -200,175 0,99.9999 -1.981521,126.35951 50,200 l 300,425 H 600 V 950 L 250,500 c -21.70608,-27.90782 -25,-75 -25,-100 0,-74.99992 25.00002,-100 75,-100 49.99997,0 75,25 75,99.80705 C 375,525 275,600 200,600 58.234927,600 1.7991004,706.31208 0,800 c -1.9199561,99.98147 0,200 200,200 122.83404,0 125,-50 200,-125 z"
       sodipodi:nodetypes="cccssssszsscccsszsssssc" /><path
       id="path2-3"
       style="fill:#000000;fill-opacity:0.555319;fill-rule:nonzero;stroke-width:0.999873"
       d="M 300 200 C 125.00037 200.0923 100 300.00007 100 375 C 100 474.9998 98.018531 501.35958 150 575 L 168.97852 601.88672 C 49.972205 616.27861 1.6613218 713.48688 0 800 C -1.9199542 899.98137 0.0002 1000 200 1000 C 309.60522 1000 323.26046 960.12478 378.1875 898.26562 L 450 1000 L 600 1000 L 600 950 L 479.6875 795.3125 L 600 675 L 600 550 L 525 550 L 392.1875 682.8125 L 362.53711 644.69141 C 444.22939 578.06039 500 466.77201 500 400 C 500 300.0001 474.99963 199.90772 300 200 z M 300 300 C 349.99992 300 375 324.99967 375 399.80664 C 375 472.48469 341.23599 528.09269 298.28906 562.08594 L 250 500 C 228.29394 472.09221 225 424.99998 225 400 C 225 325.00015 250.00007 300 300 300 z M 237.86133 699.4707 L 297.86133 784.46875 C 264.13665 835.72847 240.09425 900 200 900 C 150.00005 900 125 874.99992 125 800 C 125 725.00008 175.00005 700 225 700 C 229.31045 700 233.59454 699.79389 237.86133 699.4707 z " /></g></svg>
