<?xml version="1.0" encoding="UTF-8" standalone="no"?>
<!-- Created with Inkscape (http://www.inkscape.org/) -->

<svg
   width="1200"
   height="1200"
   viewBox="0 0 1200 1200"
   version="1.1"
   id="svg1"
   inkscape:version="1.2.1 (9c6d41e410, 2022-07-14)"
   sodipodi:docname="ascii_87_W.svg"
   xml:space="preserve"
   xmlns:inkscape="http://www.inkscape.org/namespaces/inkscape"
   xmlns:sodipodi="http://sodipodi.sourceforge.net/DTD/sodipodi-0.dtd"
   xmlns="http://www.w3.org/2000/svg"
   xmlns:svg="http://www.w3.org/2000/svg"><sodipodi:namedview
     id="namedview1"
     pagecolor="#ffffff"
     bordercolor="#000000"
     borderopacity="0.25"
     inkscape:showpageshadow="2"
     inkscape:pageopacity="0.0"
     inkscape:pagecheckerboard="0"
     inkscape:deskcolor="#d1d1d1"
     inkscape:document-units="px"
     showgrid="true"
     inkscape:zoom="0.93113402"
     inkscape:cx="381.79252"
     inkscape:cy="682.50111"
     inkscape:window-width="1819"
     inkscape:window-height="1230"
     inkscape:window-x="1746"
     inkscape:window-y="0"
     inkscape:window-maximized="0"
     inkscape:current-layer="layer1"
     showguides="false"><inkscape:grid
       id="grid1"
       units="px"
       originx="0"
       originy="0"
       spacingx="6.25"
       spacingy="6.25"
       empcolor="#0099e5"
       empopacity="0.30196078"
       color="#0099e5"
       opacity="0.14901961"
       empspacing="16"
       dotted="false"
       gridanglex="30"
       gridanglez="30"
       visible="true" /></sodipodi:namedview><defs
     id="defs1" /><g
     inkscape:label="Layer 1"
     inkscape:groupmode="layer"
     id="layer1"><path
       id="path1-7-7"
       style="opacity:0.511111;fill:#999999;fill-rule:evenodd;stroke:none;stroke-width:3.7"
       d="M 700,200 H 550 c 0,0 0,133.33333 0,200 0,100 -87.5,300 -87.5,300 L 406.25,475 387.5,400 H 275 l 18.75,75 -56.25,225 c 0,0 -87.5,-200 -87.5,-300 0,-66.66667 0,-200 0,-200 H 0 c 0,0 0,200 0,300 0,171.79607 125,500 125,500 h 150 l 75,-300 75,300 h 150 c 0,0 125,-328.20393 125,-500 0,-100 0,-300 0,-300 z"
       sodipodi:nodetypes="ccsccccccsccscccccsc" /></g></svg>
