<?xml version="1.0" encoding="UTF-8" standalone="no"?>
<!-- Created with Inkscape (http://www.inkscape.org/) -->

<svg
   width="1200"
   height="1200"
   viewBox="0 0 1200 1200"
   version="1.1"
   id="svg1"
   inkscape:version="1.2.1 (9c6d41e410, 2022-07-14)"
   sodipodi:docname="307_ij.svg"
   xml:space="preserve"
   xmlns:inkscape="http://www.inkscape.org/namespaces/inkscape"
   xmlns:sodipodi="http://sodipodi.sourceforge.net/DTD/sodipodi-0.dtd"
   xmlns="http://www.w3.org/2000/svg"
   xmlns:svg="http://www.w3.org/2000/svg"><sodipodi:namedview
     id="namedview1"
     pagecolor="#ffffff"
     bordercolor="#000000"
     borderopacity="0.25"
     inkscape:showpageshadow="2"
     inkscape:pageopacity="0.0"
     inkscape:pagecheckerboard="0"
     inkscape:deskcolor="#d1d1d1"
     inkscape:document-units="px"
     showgrid="true"
     inkscape:zoom="0.55583335"
     inkscape:cx="313.04347"
     inkscape:cy="900.44975"
     inkscape:window-width="1080"
     inkscape:window-height="1416"
     inkscape:window-x="0"
     inkscape:window-y="210"
     inkscape:window-maximized="0"
     inkscape:current-layer="layer1"
     showguides="false"><inkscape:grid
       id="grid1"
       units="px"
       originx="0"
       originy="0"
       spacingx="25"
       spacingy="25"
       empcolor="#0099e5"
       empopacity="0.30196078"
       color="#0099e5"
       opacity="0.14901961"
       empspacing="4"
       dotted="false"
       gridanglex="30"
       gridanglez="30"
       visible="true" /></sodipodi:namedview><defs
     id="defs1" /><g
     inkscape:label="Layer 1"
     inkscape:groupmode="layer"
     id="layer1"><path
       id="path2-1"
       style="fill:#000000;fill-opacity:0.555319;fill-rule:evenodd;stroke-width:0.999873"
       d="m 400,1000 c 0,74.9997 -25.03648,98.093 -75,100 -66.66267,2.5443 -125,-25 -125,-25 v 100 c 0,0 50.44332,25 150,25 174.99965,0 250,-100.0004 250,-200 V 400 H 400 Z"
       sodipodi:nodetypes="csccssccc" /><rect
       style="opacity:0.435556;fill:#808080;fill-opacity:0.555319;stroke-width:4;stroke-linecap:square;paint-order:stroke markers fill"
       id="rect3982"
       width="200"
       height="600"
       x="0"
       y="400" /><path
       id="path39584-0"
       style="fill:#000000;fill-opacity:0.56;fill-rule:evenodd;stroke-width:6.9282;stroke-linecap:square;stroke-linejoin:bevel;stroke-miterlimit:4.5;stop-color:#000000"
       d="m 50,200 c -25,0 -50,0 -50,50 0,41.42136 44.77152,75 100,75 55.22847,0 100.00365,-33.57864 100,-75 -0.004,-45.43949 -25,-50 -50,-50 z"
       sodipodi:nodetypes="ssssss" /><path
       id="path39584-0-7"
       style="fill:#000000;fill-opacity:0.56;fill-rule:evenodd;stroke-width:6.9282;stroke-linecap:square;stroke-linejoin:bevel;stroke-miterlimit:4.5;stop-color:#000000"
       d="m 450,200 c -25,0 -50,0 -50,50 0,41.42136 44.77152,75 100,75 55.22847,0 100.00365,-33.57864 100,-75 -0.004,-45.43949 -25,-50 -50,-50 z"
       sodipodi:nodetypes="ssssss" /></g></svg>
