<?xml version="1.0" encoding="UTF-8" standalone="no"?>
<!-- Created with Inkscape (http://www.inkscape.org/) -->

<svg
   width="1200"
   height="1200"
   viewBox="0 0 1200 1200"
   version="1.1"
   id="svg1"
   inkscape:version="1.2.1 (9c6d41e410, 2022-07-14)"
   sodipodi:docname="339_oe.svg"
   xml:space="preserve"
   xmlns:inkscape="http://www.inkscape.org/namespaces/inkscape"
   xmlns:sodipodi="http://sodipodi.sourceforge.net/DTD/sodipodi-0.dtd"
   xmlns="http://www.w3.org/2000/svg"
   xmlns:svg="http://www.w3.org/2000/svg"><sodipodi:namedview
     id="namedview1"
     pagecolor="#ffffff"
     bordercolor="#000000"
     borderopacity="0.25"
     inkscape:showpageshadow="2"
     inkscape:pageopacity="0.0"
     inkscape:pagecheckerboard="0"
     inkscape:deskcolor="#d1d1d1"
     inkscape:document-units="px"
     showgrid="true"
     inkscape:zoom="0.78606704"
     inkscape:cx="440.16602"
     inkscape:cy="641.16669"
     inkscape:window-width="2560"
     inkscape:window-height="1377"
     inkscape:window-x="1072"
     inkscape:window-y="-8"
     inkscape:window-maximized="1"
     inkscape:current-layer="layer1"
     showguides="false"><inkscape:grid
       id="grid1"
       units="px"
       originx="0"
       originy="0"
       spacingx="25"
       spacingy="25"
       empcolor="#0099e5"
       empopacity="0.30196078"
       color="#0099e5"
       opacity="0.14901961"
       empspacing="4"
       dotted="false"
       gridanglex="30"
       gridanglez="30"
       visible="true" /></sodipodi:namedview><defs
     id="defs1" /><g
     inkscape:label="Layer 1"
     inkscape:groupmode="layer"
     id="layer1"><path
       id="path2"
       style="fill:#000000;fill-opacity:0.555319;fill-rule:evenodd;stroke-width:0.999873"
       d="M 175,400 C 50.000125,400 0,525.0004 0,625 v 150 c 0,99.9996 50.000125,225 175,225 64.16987,0 91.90368,-29.21373 125,-50 39.78165,31.30496 78.76764,50 150,50 99.9998,0 150,-125.00029 150,-200 H 500 c 0,74.6138 -25.46424,104.79528 -50,100 -23.01336,-4.49775 -50,-50.00029 -50,-125 V 700 H 600 V 600 c 0,-74.99971 -50.0002,-200 -150,-200 -61.11128,0.0645 -125.00005,25.00005 -150,50 -36.4348,-24.86328 -62.78005,-50 -125,-50 z m 0,100 c 24.99998,0 50,25.00029 50,100 v 200 c 0,74.6138 -25.00475,100.48323 -50,100 -46.5295,-0.89955 -75,-50.00029 -75,-125 V 625 c 0,-74.99971 25.0002,-125 75,-125 z m 275,0 c 24.99995,0 50,25.00029 50,100 H 400 c 0,-74.99971 25.00005,-100 50,-100 z"
       sodipodi:nodetypes="sssscsccssccsccsssssssssccs" /></g></svg>
