<?xml version="1.0" encoding="UTF-8" standalone="no"?>
<!-- Created with Inkscape (http://www.inkscape.org/) -->

<svg
   width="1200"
   height="1200"
   viewBox="0 0 1200 1200"
   version="1.1"
   id="svg1"
   inkscape:version="1.2.2 (732a01da63, 2022-12-09)"
   sodipodi:docname="601_schwa-small.svg"
   xmlns:inkscape="http://www.inkscape.org/namespaces/inkscape"
   xmlns:sodipodi="http://sodipodi.sourceforge.net/DTD/sodipodi-0.dtd"
   xmlns="http://www.w3.org/2000/svg"
   xmlns:svg="http://www.w3.org/2000/svg">
  <sodipodi:namedview
     id="namedview1"
     pagecolor="#ffffff"
     bordercolor="#000000"
     borderopacity="0.25"
     inkscape:showpageshadow="2"
     inkscape:pageopacity="0.0"
     inkscape:pagecheckerboard="0"
     inkscape:deskcolor="#d1d1d1"
     inkscape:document-units="px"
     showgrid="true"
     inkscape:zoom="0.55583334"
     inkscape:cx="188.90555"
     inkscape:cy="316.64168"
     inkscape:window-width="1350"
     inkscape:window-height="1230"
     inkscape:window-x="1722"
     inkscape:window-y="67"
     inkscape:window-maximized="0"
     inkscape:current-layer="layer1"
     showguides="false">
    <inkscape:grid
       id="grid1"
       units="px"
       originx="0"
       originy="0"
       spacingx="25"
       spacingy="25"
       empcolor="#0099e5"
       empopacity="0.30196078"
       color="#0099e5"
       opacity="0.14901961"
       empspacing="4"
       dotted="false"
       gridanglex="30"
       gridanglez="30"
       visible="true" />
  </sodipodi:namedview>
  <defs
     id="defs1" />
  <g
     inkscape:label="Layer 1"
     inkscape:groupmode="layer"
     id="layer1">
    <path
       id="path2"
       style="fill:#000000;fill-opacity:0.555319;fill-rule:evenodd;stroke-width:0.999873"
       d="M 250,1000 C 424.99973,999.81545 500,874.9999 500,775 V 625 C 500,525.0001 424.99982,400 250,400 50.0002,400 0,525.00008 0,600 h 150 c 0,-74.61401 50.00886,-100.66495 75,-100 33.80805,0.89955 75,50.00008 75,125 v 75 H 0 v 100 c 0,74.99992 75.00018,200 250,200 z M 225,900 c -50,0 -75,-25.00008 -75,-100 h 150 c 0,74.99992 -25.00005,100 -75,100 z"
       sodipodi:nodetypes="csssccssccscsccs" />
  </g>
</svg>
