<?xml version="1.0" encoding="UTF-8" standalone="no"?>
<!-- Created with Inkscape (http://www.inkscape.org/) -->

<svg
   width="800"
   height="800"
   viewBox="0 0 800 800"
   version="1.1"
   id="svg1"
   inkscape:version="1.2.2 (732a01da63, 2022-12-09)"
   sodipodi:docname="914_beta-capital.svg"
   xml:space="preserve"
   xmlns:inkscape="http://www.inkscape.org/namespaces/inkscape"
   xmlns:sodipodi="http://sodipodi.sourceforge.net/DTD/sodipodi-0.dtd"
   xmlns="http://www.w3.org/2000/svg"
   xmlns:svg="http://www.w3.org/2000/svg"><sodipodi:namedview
     id="namedview1"
     pagecolor="#ffffff"
     bordercolor="#000000"
     borderopacity="0.25"
     inkscape:showpageshadow="2"
     inkscape:pageopacity="0.0"
     inkscape:pagecheckerboard="0"
     inkscape:deskcolor="#d1d1d1"
     inkscape:document-units="px"
     showgrid="true"
     inkscape:zoom="1.602893"
     inkscape:cx="-50.221693"
     inkscape:cy="375.57092"
     inkscape:window-width="1918"
     inkscape:window-height="2054"
     inkscape:window-x="-10"
     inkscape:window-y="0"
     inkscape:window-maximized="0"
     inkscape:current-layer="layer1-0"
     showguides="false"><inkscape:grid
       id="grid1"
       units="px"
       originx="0"
       originy="0"
       spacingx="25"
       spacingy="25"
       empcolor="#0099e5"
       empopacity="0.30196078"
       color="#0099e5"
       opacity="0.14901961"
       empspacing="4"
       dotted="false"
       gridanglex="30"
       gridanglez="30"
       visible="true" /></sodipodi:namedview><defs
     id="defs1" /><g
     inkscape:label="Layer 1"
     inkscape:groupmode="layer"
     id="layer1"><g
       inkscape:label="Layer 1"
       id="layer1-0"
       transform="translate(-350,25)"><path
         id="path352-3"
         style="fill:#000000;fill-opacity:0.555319;fill-rule:evenodd;stroke:none;stroke-width:3px;stroke-linecap:butt;stroke-linejoin:miter;stroke-opacity:1"
         d="m 350,275 v 100 h 150 c 24.99998,0 50,25.00002 50,50 0,24.99998 -25.00002,50 -50,50 H 350 v 100 h 150 c 74.99993,0 150,-75.00008 150,-150 0,-74.99993 -75.00007,-150 -150,-150 z" /><path
         id="path352-3-1"
         style="fill:#000000;fill-opacity:0.555319;fill-rule:evenodd;stroke:none;stroke-width:3px;stroke-linecap:butt;stroke-linejoin:miter;stroke-opacity:1"
         d="m 350,75 v 100 h 125 c 24.99998,0 50,25.00002 50,50 0,24.99998 -25.00002,50 -50,50 H 350 V 375 H 475 C 549.99993,375 625,299.99992 625,225 625,150.00007 549.99993,75 475,75 Z"
         sodipodi:nodetypes="ccsssccsssc" /><rect
         style="fill:#000000;fill-opacity:0.555319;fill-rule:evenodd;stroke:none;stroke-width:100;stroke-linecap:round;stroke-linejoin:round;stroke-miterlimit:4.5;stop-color:#000000"
         id="rect11692"
         width="100"
         height="500"
         x="350"
         y="75" /><path
         id="path352-3-12"
         style="fill:#000000;fill-opacity:0.555319;fill-rule:evenodd;stroke:none;stroke-width:3px;stroke-linecap:butt;stroke-linejoin:miter;stroke-opacity:1"
         d="m 350,75 v 100 100 100 100 100 h 100 50 c 74.99986,0 150,-75.00015 150,-150 0,-42.08771 -23.6226,-84.17205 -57.60547,-113.00586 C 612.40536,286.42857 625,255.71903 625,225 625,150.00014 549.99986,75 475,75 h -25 z m 100,100 h 25 c 24.99996,0 50,25.00004 50,50 0,24.99996 -25.00004,50 -50,50 h -25 z m 0,200 h 25 25 c 24.99996,0 50,25.00004 50,50 0,24.99996 -25.00004,50 -50,50 h -50 z" /></g></g></svg>
