<?xml version="1.0" encoding="UTF-8" standalone="no"?>
<!-- Created with Inkscape (http://www.inkscape.org/) -->

<svg
   width="800"
   height="800"
   viewBox="0 0 800 800"
   version="1.1"
   id="svg1"
   inkscape:version="1.2.2 (732a01da63, 2022-12-09)"
   sodipodi:docname="935_chi-capital.svg"
   xml:space="preserve"
   xmlns:inkscape="http://www.inkscape.org/namespaces/inkscape"
   xmlns:sodipodi="http://sodipodi.sourceforge.net/DTD/sodipodi-0.dtd"
   xmlns="http://www.w3.org/2000/svg"
   xmlns:svg="http://www.w3.org/2000/svg"><sodipodi:namedview
     id="namedview1"
     pagecolor="#ffffff"
     bordercolor="#000000"
     borderopacity="0.25"
     inkscape:showpageshadow="2"
     inkscape:pageopacity="0.0"
     inkscape:pagecheckerboard="0"
     inkscape:deskcolor="#d1d1d1"
     inkscape:document-units="px"
     showgrid="true"
     inkscape:zoom="1.602893"
     inkscape:cx="142.55474"
     inkscape:cy="325.66116"
     inkscape:window-width="1920"
     inkscape:window-height="2066"
     inkscape:window-x="-11"
     inkscape:window-y="-11"
     inkscape:window-maximized="0"
     inkscape:current-layer="layer1-0"
     showguides="false"><inkscape:grid
       id="grid1"
       units="px"
       originx="0"
       originy="0"
       spacingx="25"
       spacingy="25"
       empcolor="#0099e5"
       empopacity="0.30196078"
       color="#0099e5"
       opacity="0.14901961"
       empspacing="4"
       dotted="false"
       gridanglex="30"
       gridanglez="30"
       visible="true" /></sodipodi:namedview><defs
     id="defs1" /><g
     inkscape:label="Layer 1"
     inkscape:groupmode="layer"
     id="layer1"><g
       inkscape:label="Layer 1"
       id="layer1-0"
       transform="translate(-350,25)"><g
         inkscape:label="Layer 1"
         id="layer1-6"
         transform="translate(350,-25)"><path
           id="path9691"
           style="fill:#000000;fill-opacity:0.555319;fill-rule:evenodd;stroke:none;stroke-width:1px;stroke-linecap:butt;stroke-linejoin:miter;stroke-opacity:1"
           d="m 150,400 c 50,50 50,125 50,200 H 300 C 300,450 275.12844,402.61333 200,300"
           sodipodi:nodetypes="cccc" /><path
           id="path9691-4-75"
           style="fill:#000000;fill-opacity:0.555319;fill-rule:evenodd;stroke:none;stroke-width:1px;stroke-linecap:butt;stroke-linejoin:miter;stroke-opacity:1"
           d="m 150,300 c 50,-50 50,-125 50,-200 h 100 c 0,150 -24.87156,197.38667 -100,300"
           sodipodi:nodetypes="cccc" /><path
           id="path9691-42"
           style="fill:#000000;fill-opacity:0.555319;fill-rule:evenodd;stroke:none;stroke-width:1px;stroke-linecap:butt;stroke-linejoin:miter;stroke-opacity:1"
           d="m 150,400 c -50,50 -50,125 -50,200 H 0 C 0,450 24.87156,402.61333 100,300"
           sodipodi:nodetypes="cccc" /><path
           id="path9691-4-7-7"
           style="fill:#000000;fill-opacity:0.555319;fill-rule:evenodd;stroke:none;stroke-width:1px;stroke-linecap:butt;stroke-linejoin:miter;stroke-opacity:1"
           d="M 150,300 C 100,250 100,175 100,100 H 0 c 0,150 24.87156,197.38667 100,300"
           sodipodi:nodetypes="cccc" /><rect
           style="fill:#000000;fill-opacity:0.555319;fill-rule:evenodd;stroke-width:100;stroke-linecap:round;stroke-linejoin:round;stroke-miterlimit:4.5;stop-color:#000000"
           id="rect40378-7"
           width="100"
           height="100"
           x="100"
           y="300" /><path
           id="path9691-5"
           style="fill:#000000;fill-opacity:0.555319;fill-rule:evenodd;stroke:none;stroke-width:1px;stroke-linecap:butt;stroke-linejoin:miter;stroke-opacity:1"
           d="M 0,100 C 0,223.51916 16.942743,277.508 64.847656,350 16.942743,422.492 0,476.48084 0,600 h 100 c 0,-74.99992 5e-5,-150.00005 50,-200 49.99995,49.99995 50,125.00008 50,200 H 300 C 300,476.48084 283.05726,422.492 235.15234,350 283.05726,277.508 300,223.51916 300,100 H 200 c 0,74.99993 -5e-5,150.00005 -50,200 -49.99995,-49.99995 -50,-125.00007 -50,-200 z" /></g></g></g></svg>
