<?xml version="1.0" encoding="UTF-8" standalone="no"?>
<!-- Created with Inkscape (http://www.inkscape.org/) -->

<svg
   width="800"
   height="800"
   viewBox="0 0 800 800"
   version="1.1"
   id="svg1"
   inkscape:version="1.2.2 (732a01da63, 2022-12-09)"
   sodipodi:docname="937_omega-capital.svg"
   xml:space="preserve"
   xmlns:inkscape="http://www.inkscape.org/namespaces/inkscape"
   xmlns:sodipodi="http://sodipodi.sourceforge.net/DTD/sodipodi-0.dtd"
   xmlns="http://www.w3.org/2000/svg"
   xmlns:svg="http://www.w3.org/2000/svg"><sodipodi:namedview
     id="namedview1"
     pagecolor="#ffffff"
     bordercolor="#000000"
     borderopacity="0.25"
     inkscape:showpageshadow="2"
     inkscape:pageopacity="0.0"
     inkscape:pagecheckerboard="0"
     inkscape:deskcolor="#d1d1d1"
     inkscape:document-units="px"
     showgrid="true"
     inkscape:zoom="1.602893"
     inkscape:cx="142.55474"
     inkscape:cy="425.48068"
     inkscape:window-width="1920"
     inkscape:window-height="2066"
     inkscape:window-x="-11"
     inkscape:window-y="-11"
     inkscape:window-maximized="0"
     inkscape:current-layer="layer1-0"
     showguides="false"><inkscape:grid
       id="grid1"
       units="px"
       originx="0"
       originy="0"
       spacingx="25"
       spacingy="25"
       empcolor="#0099e5"
       empopacity="0.30196078"
       color="#0099e5"
       opacity="0.14901961"
       empspacing="4"
       dotted="false"
       gridanglex="30"
       gridanglez="30"
       visible="true" /></sodipodi:namedview><defs
     id="defs1" /><g
     inkscape:label="Layer 1"
     inkscape:groupmode="layer"
     id="layer1"><g
       inkscape:label="Layer 1"
       id="layer1-0"
       transform="translate(-350,25)"><path
         id="rect56731"
         style="opacity:0.489888;fill:#000000;fill-opacity:0.555319;fill-rule:evenodd;stroke:none;stroke-width:122.474;stroke-linecap:round;stroke-linejoin:round;stroke-miterlimit:4.5;stroke-opacity:1;stop-color:#000000"
         d="M 500,375 V 475 H 375 v 100 h 125 50 V 475 375 Z"
         sodipodi:nodetypes="ccccccccc" /><path
         id="rect56731-5"
         style="opacity:0.489888;fill:#000000;fill-opacity:0.555319;fill-rule:evenodd;stroke:none;stroke-width:122.474;stroke-linecap:round;stroke-linejoin:round;stroke-miterlimit:4.5;stroke-opacity:1;stop-color:#000000"
         d="m 650,375 v 100 100 h 50 125 V 475 H 700 V 375 Z"
         sodipodi:nodetypes="ccccccccc" /><path
         id="path352-3"
         style="fill:#000000;fill-opacity:0.555319;fill-rule:evenodd;stroke:none;stroke-width:3px;stroke-linecap:butt;stroke-linejoin:miter;stroke-opacity:1"
         d="M 650,75 H 550 c -150,0 -201.47787,125.0147 -200,200 1.87162,94.96376 75.00014,200 150,200 V 375 c -24.99996,0 -50,-25 -50,-75 v -25 c 0,-50 25,-100 100,-100 h 100 c 75,0 100,50 100,100 v 25 c 0,50 -25.00004,75 -50,75 V 475 C 774.99986,475 850,375 850,275 850,200.00014 800,75 650,75 Z"
         sodipodi:nodetypes="sssccssssssccss" /><path
         id="rect56731-0"
         style="opacity:0.489888;fill:#000000;fill-opacity:0.555319;fill-rule:evenodd;stroke:none;stroke-width:122.474;stroke-linecap:round;stroke-linejoin:round;stroke-miterlimit:4.5;stroke-opacity:1;stop-color:#000000"
         d="M 550 75 C 400.00015 75 348.52213 200.01477 350 275 C 351.87162 369.96367 425.00021 475 500 475 L 375 475 L 375 575 L 500 575 L 550 575 L 550 475 L 550 375 L 500 375 C 475.00006 375 450 349.99995 450 300 L 450 275 C 450 225.00005 475.00007 175 550 175 L 650 175 C 724.99993 175 750 225.00005 750 275 L 750 300 C 750 349.99995 724.99994 375 700 375 L 650 375 L 650 475 L 650 575 L 700 575 L 825 575 L 825 475 L 700 475 C 774.99979 475 850 374.9999 850 275 C 850 200.00021 799.99985 75 650 75 L 550 75 z " /></g></g></svg>
