<?xml version="1.0" encoding="UTF-8" standalone="no"?>
<!-- Created with Inkscape (http://www.inkscape.org/) -->

<svg
   width="800"
   height="800"
   viewBox="0 0 800 800"
   version="1.1"
   id="svg1"
   inkscape:version="1.2.2 (732a01da63, 2022-12-09)"
   sodipodi:docname="945_alpha-small.svg"
   xml:space="preserve"
   xmlns:inkscape="http://www.inkscape.org/namespaces/inkscape"
   xmlns:sodipodi="http://sodipodi.sourceforge.net/DTD/sodipodi-0.dtd"
   xmlns="http://www.w3.org/2000/svg"
   xmlns:svg="http://www.w3.org/2000/svg"><sodipodi:namedview
     id="namedview1"
     pagecolor="#ffffff"
     bordercolor="#000000"
     borderopacity="0.25"
     inkscape:showpageshadow="2"
     inkscape:pageopacity="0.0"
     inkscape:pagecheckerboard="0"
     inkscape:deskcolor="#d1d1d1"
     inkscape:document-units="px"
     showgrid="true"
     inkscape:zoom="1.602893"
     inkscape:cx="86.406267"
     inkscape:cy="373.6993"
     inkscape:window-width="1920"
     inkscape:window-height="2066"
     inkscape:window-x="0"
     inkscape:window-y="0"
     inkscape:window-maximized="0"
     inkscape:current-layer="layer1-0"
     showguides="false"><inkscape:grid
       id="grid1"
       units="px"
       originx="0"
       originy="0"
       spacingx="25"
       spacingy="25"
       empcolor="#0099e5"
       empopacity="0.30196078"
       color="#0099e5"
       opacity="0.14901961"
       empspacing="4"
       dotted="false"
       gridanglex="30"
       gridanglez="30"
       visible="true" /></sodipodi:namedview><defs
     id="defs1" /><g
     inkscape:label="Layer 1"
     inkscape:groupmode="layer"
     id="layer1"><g
       inkscape:label="Layer 1"
       id="layer1-0"
       transform="translate(-350,25)"><path
         id="path352-3-2"
         style="fill:#000000;fill-opacity:0.555319;fill-rule:evenodd;stroke:none;stroke-width:3px;stroke-linecap:butt;stroke-linejoin:miter;stroke-opacity:1"
         d="m 500,175 c 75.57875,-1.24774 100,75 100,75 0,0 39.62132,-75 100,-75 h 50 v 100 c 0,0 -75,0 -100,100 24.95488,96.39263 100,100 100,100 v 100 h -50 c -50,0 -100,-75 -100,-75 0,0 -25,75 -100,75 -75,0 -150,-75 -150,-200 0,-125 75.01022,-198.76198 150,-200 z m 0,100 c -25,0 -49.99999,18.23766 -50,75 v 50 c -10e-6,50 29.78315,75.7833 50,75 48.30626,-1.87162 50,-100 50,-100 0,0 0,-100 -50,-100 z"
         sodipodi:nodetypes="scscccccscscssssscs" /></g></g></svg>
