<?xml version="1.0" encoding="UTF-8" standalone="no"?>
<!-- Created with Inkscape (http://www.inkscape.org/) -->

<svg
   width="800"
   height="800"
   viewBox="0 0 800 800"
   version="1.1"
   id="svg1"
   inkscape:version="1.2.2 (732a01da63, 2022-12-09)"
   sodipodi:docname="946_beta-small.svg"
   xml:space="preserve"
   xmlns:inkscape="http://www.inkscape.org/namespaces/inkscape"
   xmlns:sodipodi="http://sodipodi.sourceforge.net/DTD/sodipodi-0.dtd"
   xmlns="http://www.w3.org/2000/svg"
   xmlns:svg="http://www.w3.org/2000/svg"><sodipodi:namedview
     id="namedview1"
     pagecolor="#ffffff"
     bordercolor="#000000"
     borderopacity="0.25"
     inkscape:showpageshadow="2"
     inkscape:pageopacity="0.0"
     inkscape:pagecheckerboard="0"
     inkscape:deskcolor="#d1d1d1"
     inkscape:document-units="px"
     showgrid="true"
     inkscape:zoom="1.602893"
     inkscape:cx="86.406267"
     inkscape:cy="373.6993"
     inkscape:window-width="1920"
     inkscape:window-height="2066"
     inkscape:window-x="0"
     inkscape:window-y="0"
     inkscape:window-maximized="0"
     inkscape:current-layer="layer1-4"
     showguides="false"><inkscape:grid
       id="grid1"
       units="px"
       originx="0"
       originy="0"
       spacingx="25"
       spacingy="25"
       empcolor="#0099e5"
       empopacity="0.30196078"
       color="#0099e5"
       opacity="0.14901961"
       empspacing="4"
       dotted="false"
       gridanglex="30"
       gridanglez="30"
       visible="true" /></sodipodi:namedview><defs
     id="defs1" /><g
     inkscape:label="Layer 1"
     inkscape:groupmode="layer"
     id="layer1"><g
       inkscape:label="Layer 1"
       id="layer1-0"
       transform="translate(-350,25)"><g
         inkscape:label="Layer 1"
         id="layer1-4"
         transform="translate(350,-25)"><path
           id="path352-3"
           style="fill:#000000;fill-opacity:0.555319;fill-rule:evenodd;stroke:none;stroke-width:3px;stroke-linecap:butt;stroke-linejoin:miter;stroke-opacity:1"
           d="M 150 100 C 100.00005 100 0 200.00005 0 250 L 0 700 L 100 700 L 100 250 C 100.19296 228.37337 125.00002 200 150 200 C 174.99998 200 200 225.00002 200 250 C 200 274.99998 174.99998 300 150 300 L 150 400 C 199.99995 400 300 299.99995 300 250 C 300 200.00005 199.99995 100 150 100 z " /><path
           id="path352-3-4"
           style="fill:#000000;fill-opacity:0.555319;fill-rule:evenodd;stroke:none;stroke-width:3px;stroke-linecap:butt;stroke-linejoin:miter;stroke-opacity:1"
           d="M 150 300 L 150 400 C 174.99996 400 200 425.00004 200 450 C 200 474.99996 174.99996 500 150 500 L 100 500 L 100 600 L 150 600 C 199.99995 600 300 512.2783 300 450 C 300 400.00005 199.99995 300 150 300 z " /><path
           id="path352-3-6"
           style="fill:#000000;fill-opacity:0.555319;fill-rule:evenodd;stroke:none;stroke-width:3px;stroke-linecap:butt;stroke-linejoin:miter;stroke-opacity:1"
           d="M 150 100 C 100.0001 100 0 200.0001 0 250 L 0 700 L 100 700 L 100 600 L 150 600 C 199.9999 600 300 512.27824 300 450 C 300 423.28881 271.45544 382.31652 237.24609 349.93555 C 271.43167 317.5625 300 276.69725 300 250 C 300 200.0001 199.9999 100 150 100 z M 150 200 C 174.99996 200 200 225.00004 200 250 C 200 274.99996 174.99996 300 150 300 L 150 400 C 174.99994 400 200 425.00006 200 450 C 200 474.99994 174.99994 500 150 500 L 100 500 L 100 250 C 100.19296 228.37339 125.00004 200 150 200 z " /></g></g></g></svg>
