<?xml version="1.0" encoding="UTF-8" standalone="no"?>
<!-- Created with Inkscape (http://www.inkscape.org/) -->

<svg
   width="800"
   height="800"
   viewBox="0 0 800 800"
   version="1.1"
   id="svg1"
   inkscape:version="1.2.2 (732a01da63, 2022-12-09)"
   sodipodi:docname="949_epsilon-small.svg"
   xml:space="preserve"
   xmlns:inkscape="http://www.inkscape.org/namespaces/inkscape"
   xmlns:sodipodi="http://sodipodi.sourceforge.net/DTD/sodipodi-0.dtd"
   xmlns="http://www.w3.org/2000/svg"
   xmlns:svg="http://www.w3.org/2000/svg"><sodipodi:namedview
     id="namedview1"
     pagecolor="#ffffff"
     bordercolor="#000000"
     borderopacity="0.25"
     inkscape:showpageshadow="2"
     inkscape:pageopacity="0.0"
     inkscape:pagecheckerboard="0"
     inkscape:deskcolor="#d1d1d1"
     inkscape:document-units="px"
     showgrid="true"
     inkscape:zoom="1.602893"
     inkscape:cx="11.541631"
     inkscape:cy="375.57092"
     inkscape:window-width="1920"
     inkscape:window-height="2066"
     inkscape:window-x="0"
     inkscape:window-y="0"
     inkscape:window-maximized="0"
     inkscape:current-layer="layer1-0"
     showguides="false"><inkscape:grid
       id="grid1"
       units="px"
       originx="0"
       originy="0"
       spacingx="25"
       spacingy="25"
       empcolor="#0099e5"
       empopacity="0.30196078"
       color="#0099e5"
       opacity="0.14901961"
       empspacing="4"
       dotted="false"
       gridanglex="30"
       gridanglez="30"
       visible="true" /></sodipodi:namedview><defs
     id="defs1" /><g
     inkscape:label="Layer 1"
     inkscape:groupmode="layer"
     id="layer1"><g
       inkscape:label="Layer 1"
       id="layer1-0"
       transform="translate(-350,25)"><path
         style="fill:#000000;fill-opacity:0.555319;stroke:none;stroke-width:1px;stroke-linecap:butt;stroke-linejoin:miter;stroke-opacity:1"
         d="M 650,250 V 175 H 525 c -75,0 -175,75 -175,125 0,75 50,100 100,100 H 650 V 325 H 500 c -25,0 -50,0 -50,-25 0,-25 25,-50 50,-50 z"
         id="path68681"
         sodipodi:nodetypes="ccsssccsscc" /><path
         style="fill:#000000;fill-opacity:0.555319;stroke:none;stroke-width:1px;stroke-linecap:butt;stroke-linejoin:miter;stroke-opacity:1"
         d="M 650,475 V 575 H 500 C 425,575 350,475 350,425 350,350 400,325 450,325 h 200 v 75 H 500 c -25,0 -50,0 -50,25 0,25 25,50 50,50 z"
         id="path68681-3"
         sodipodi:nodetypes="ccsssccsscc" /><path
         id="path68681-31"
         style="fill:#000000;fill-opacity:0.555319;stroke:none;stroke-width:1px;stroke-linecap:butt;stroke-linejoin:miter;stroke-opacity:1"
         d="M 525 175 C 450.00007 175 350 250.00005 350 300 C 350 326.884 356.44812 347.31346 366.99414 362.5 C 356.44812 377.68654 350 398.116 350 425 C 350 474.99995 425.00007 575 500 575 L 650 575 L 650 475 L 500 475 C 475.00002 475 450 449.99998 450 425 C 450 400.00002 475.00002 400 500 400 L 650 400 L 650 325 L 500 325 C 475.00002 325 450 324.99998 450 300 C 450 275.00002 475.00002 250 500 250 L 650 250 L 650 175 L 525 175 z " /></g></g></svg>
