<?xml version="1.0" encoding="UTF-8" standalone="no"?>
<!-- Created with Inkscape (http://www.inkscape.org/) -->

<svg
   width="800"
   height="800"
   viewBox="0 0 800 800"
   version="1.1"
   id="svg1"
   inkscape:version="1.2.2 (732a01da63, 2022-12-09)"
   sodipodi:docname="955_lambda-small.svg"
   xml:space="preserve"
   xmlns:inkscape="http://www.inkscape.org/namespaces/inkscape"
   xmlns:sodipodi="http://sodipodi.sourceforge.net/DTD/sodipodi-0.dtd"
   xmlns="http://www.w3.org/2000/svg"
   xmlns:svg="http://www.w3.org/2000/svg"><sodipodi:namedview
     id="namedview1"
     pagecolor="#ffffff"
     bordercolor="#000000"
     borderopacity="0.25"
     inkscape:showpageshadow="2"
     inkscape:pageopacity="0.0"
     inkscape:pagecheckerboard="0"
     inkscape:deskcolor="#d1d1d1"
     inkscape:document-units="px"
     showgrid="true"
     inkscape:zoom="2.266833"
     inkscape:cx="116.68261"
     inkscape:cy="339.68095"
     inkscape:window-width="1920"
     inkscape:window-height="2066"
     inkscape:window-x="0"
     inkscape:window-y="0"
     inkscape:window-maximized="0"
     inkscape:current-layer="layer1-7"
     showguides="false"><inkscape:grid
       id="grid1"
       units="px"
       originx="0"
       originy="0"
       spacingx="25"
       spacingy="25"
       empcolor="#0099e5"
       empopacity="0.30196078"
       color="#0099e5"
       opacity="0.14901961"
       empspacing="4"
       dotted="false"
       gridanglex="30"
       gridanglez="30"
       visible="true" /></sodipodi:namedview><defs
     id="defs1" /><g
     inkscape:label="Layer 1"
     inkscape:groupmode="layer"
     id="layer1"><g
       inkscape:label="Layer 1"
       id="layer1-0"
       transform="translate(-350,25)"><g
         inkscape:label="Layer 1"
         id="layer1-7"
         transform="translate(350,-25)"><path
           style="fill:#000000;fill-opacity:0.555319;stroke:none;stroke-width:1px;stroke-linecap:butt;stroke-linejoin:miter;stroke-opacity:1"
           d="m 175,200 c 25,50 125,250 125,350 v 50 H 200 v -25 c 0,-50 1.87162,-76.91674 -50,-200 -50,125 -50,150 -50,200 v 25 H 4e-6 V 550 C 4e-6,450 102.25902,250.18821 125,200 Z"
           id="path34741"
           sodipodi:nodetypes="csccscsccscc" /><path
           style="fill:#000000;fill-opacity:0.555319;stroke:none;stroke-width:1px;stroke-linecap:butt;stroke-linejoin:miter;stroke-opacity:1"
           d="M 175,200 C 150,150 125,100 75,100 H 0 v 100 h 50 c 25,0 50,50 75,100 z"
           id="path81398"
           sodipodi:nodetypes="csccscc" /><path
           id="path34741-3"
           style="fill:#000000;fill-opacity:0.555319;stroke:none;stroke-width:1px;stroke-linecap:butt;stroke-linejoin:miter;stroke-opacity:1"
           d="M 0 100 L 0 200 L 50 200 C 66.767584 200 83.53515 222.53093 100.30273 252.42969 C 62.164782 333.41539 5.5497087e-16 471.78711 0 550 L 0 600 L 100 600 L 100 575 C 100 525.00005 100.00005 499.99987 150 375 C 201.87157 498.08314 200 525.00005 200 575 L 200 600 L 300 600 L 300 550 C 300 450.0001 199.99998 249.99995 175 200 C 150.00002 150.00005 124.99995 100 75 100 L 0 100 z " /></g></g></g></svg>
