<?xml version="1.0" encoding="UTF-8" standalone="no"?>
<!-- Created with Inkscape (http://www.inkscape.org/) -->

<svg
   width="800"
   height="800"
   viewBox="0 0 800 800"
   version="1.1"
   id="svg1"
   inkscape:version="1.2.2 (732a01da63, 2022-12-09)"
   sodipodi:docname="958_xi-small.svg"
   xml:space="preserve"
   xmlns:inkscape="http://www.inkscape.org/namespaces/inkscape"
   xmlns:sodipodi="http://sodipodi.sourceforge.net/DTD/sodipodi-0.dtd"
   xmlns="http://www.w3.org/2000/svg"
   xmlns:svg="http://www.w3.org/2000/svg"><sodipodi:namedview
     id="namedview1"
     pagecolor="#ffffff"
     bordercolor="#000000"
     borderopacity="0.25"
     inkscape:showpageshadow="2"
     inkscape:pageopacity="0.0"
     inkscape:pagecheckerboard="0"
     inkscape:deskcolor="#d1d1d1"
     inkscape:document-units="px"
     showgrid="true"
     inkscape:zoom="1.602893"
     inkscape:cx="11.541631"
     inkscape:cy="375.57092"
     inkscape:window-width="1920"
     inkscape:window-height="2066"
     inkscape:window-x="0"
     inkscape:window-y="0"
     inkscape:window-maximized="0"
     inkscape:current-layer="layer1-0"
     showguides="false"><inkscape:grid
       id="grid1"
       units="px"
       originx="0"
       originy="0"
       spacingx="25"
       spacingy="25"
       empcolor="#0099e5"
       empopacity="0.30196078"
       color="#0099e5"
       opacity="0.14901961"
       empspacing="4"
       dotted="false"
       gridanglex="30"
       gridanglez="30"
       visible="true" /></sodipodi:namedview><defs
     id="defs1" /><g
     inkscape:label="Layer 1"
     inkscape:groupmode="layer"
     id="layer1"><g
       inkscape:label="Layer 1"
       id="layer1-0"
       transform="translate(-350,25)"><path
         style="fill:#000000;fill-opacity:0.555319;stroke:none;stroke-width:1px;stroke-linecap:butt;stroke-linejoin:miter;stroke-opacity:1"
         d="m 600,375 c -125,0 -150,0 -150,50 0,50 29.41223,50 150,50 25,0 50,25 50,50 V 675 H 550 v -50 c 0,-25 -25,-50 -50,-50 -100,0 -153.47293,-47.50113 -150,-150 2.54216,-75.02847 75,-150 250,-150"
         id="path73492"
         sodipodi:nodetypes="csssccsssc" /><rect
         style="opacity:0.489888;fill:#000000;fill-opacity:0.555319;fill-rule:evenodd;stroke:none;stroke-width:100;stroke-linecap:round;stroke-linejoin:round;stroke-miterlimit:4.5;stop-color:#000000"
         id="rect89213"
         width="300"
         height="100"
         x="350"
         y="75" /><path
         id="path352-3-4-4"
         style="fill:#000000;fill-opacity:0.555319;fill-rule:evenodd;stroke:none;stroke-width:3px;stroke-linecap:butt;stroke-linejoin:miter;stroke-opacity:1"
         d="M 600 75 C 525.04524 74.376129 450 150.00007 450 225 C 450 299.99993 525.00007 375 600 375 L 650 375 L 650 275 L 600 275 C 575.00006 275 550 249.99994 550 225 C 550 200.00006 575.00006 175 600 175 L 600 75 z " /><path
         id="path73492-5"
         style="fill:#000000;fill-opacity:0.555319;stroke:none;stroke-width:1px;stroke-linecap:butt;stroke-linejoin:miter;stroke-opacity:1"
         d="M 350 75 L 350 175 L 460.64062 175 C 453.85492 191.11163 450 208.06735 450 225 C 450 248.4785 457.35303 271.95515 469.75195 293.13281 C 387.99667 319.86275 351.78227 372.39867 350 425 C 346.52707 527.49877 400.0001 575 500 575 C 524.99997 575 550 600.00003 550 625 L 550 675 L 650 675 L 650 525 C 650 500.00003 624.99997 475 600 475 C 479.41235 475 450 474.99995 450 425 C 450 375.00005 475.00013 375 600 375 L 650 375 L 650 275 L 600 275 C 575.00008 275 550 249.99992 550 225 C 550 200.00008 575.00008 175 600 175 L 650 175 L 650 75 L 350 75 z " /></g></g></svg>
