<?xml version="1.0" encoding="UTF-8" standalone="no"?>
<!-- Created with Inkscape (http://www.inkscape.org/) -->

<svg
   width="800"
   height="800"
   viewBox="0 0 800 800"
   version="1.1"
   id="svg1"
   inkscape:version="1.2.2 (732a01da63, 2022-12-09)"
   sodipodi:docname="963_sigma-small.svg"
   xml:space="preserve"
   xmlns:inkscape="http://www.inkscape.org/namespaces/inkscape"
   xmlns:sodipodi="http://sodipodi.sourceforge.net/DTD/sodipodi-0.dtd"
   xmlns="http://www.w3.org/2000/svg"
   xmlns:svg="http://www.w3.org/2000/svg"><sodipodi:namedview
     id="namedview1"
     pagecolor="#ffffff"
     bordercolor="#000000"
     borderopacity="0.25"
     inkscape:showpageshadow="2"
     inkscape:pageopacity="0.0"
     inkscape:pagecheckerboard="0"
     inkscape:deskcolor="#d1d1d1"
     inkscape:document-units="px"
     showgrid="true"
     inkscape:zoom="1.602893"
     inkscape:cx="11.541631"
     inkscape:cy="375.57092"
     inkscape:window-width="1920"
     inkscape:window-height="2066"
     inkscape:window-x="0"
     inkscape:window-y="0"
     inkscape:window-maximized="0"
     inkscape:current-layer="layer1-0"
     showguides="false"><inkscape:grid
       id="grid1"
       units="px"
       originx="0"
       originy="0"
       spacingx="25"
       spacingy="25"
       empcolor="#0099e5"
       empopacity="0.30196078"
       color="#0099e5"
       opacity="0.14901961"
       empspacing="4"
       dotted="false"
       gridanglex="30"
       gridanglez="30"
       visible="true" /></sodipodi:namedview><defs
     id="defs1" /><g
     inkscape:label="Layer 1"
     inkscape:groupmode="layer"
     id="layer1"><g
       inkscape:label="Layer 1"
       id="layer1-0"
       transform="translate(-350,25)"><path
         id="path352-3-2-9-0"
         style="fill:#000000;fill-opacity:0.555319;fill-rule:evenodd;stroke:none;stroke-width:3px;stroke-linecap:butt;stroke-linejoin:miter;stroke-opacity:1"
         d="m 500,175 c -74.99978,0 -150,100 -150,175 v 50 c 0,75 75.00022,175 150,175 74.99978,0 150,-104.45273 150,-175 V 350 C 650,275 574.99978,175 500,175 Z m 0,100 c 24.99994,0 50,25.00006 50,50 v 100 c 0,24.99994 -25.00006,50 -50,50 -24.99994,0 -50,-25.00006 -50,-50 V 325 c 0,-24.99994 25.00006,-50 50,-50 z"
         sodipodi:nodetypes="ssssssssssssss" /><rect
         style="opacity:0.489888;fill:#000000;fill-opacity:0.555319;fill-rule:evenodd;stroke:none;stroke-width:115.47;stroke-linecap:round;stroke-linejoin:round;stroke-miterlimit:4.5;stop-color:#000000"
         id="rect98134"
         width="200"
         height="100"
         x="500"
         y="175" /><path
         id="path352-3-2-9-0-3"
         style="fill:#000000;fill-opacity:0.555319;fill-rule:evenodd;stroke:none;stroke-width:3px;stroke-linecap:butt;stroke-linejoin:miter;stroke-opacity:1"
         d="M 500 175 C 425.00029 175 350 275.00007 350 350 L 350 400 C 350 474.99993 425.00029 575 500 575 C 574.99971 575 650 470.5472 650 400 L 650 350 C 650 326.18483 642.41842 299.85451 629.69531 275 L 700 275 L 700 175 L 500 175 z M 500 275 C 524.99992 275 550 300.00008 550 325 L 550 425 C 550 449.99992 524.99992 475 500 475 C 475.00008 475 450 449.99992 450 425 L 450 325 C 450 300.00008 475.00008 275 500 275 z " /></g></g></svg>
