<?xml version="1.0" encoding="UTF-8" standalone="no"?>
<!-- Created with Inkscape (http://www.inkscape.org/) -->

<svg
   width="800"
   height="800"
   viewBox="0 0 800 800"
   version="1.1"
   id="svg1"
   inkscape:version="1.2.2 (732a01da63, 2022-12-09)"
   sodipodi:docname="966_phi-small.svg"
   xml:space="preserve"
   xmlns:inkscape="http://www.inkscape.org/namespaces/inkscape"
   xmlns:sodipodi="http://sodipodi.sourceforge.net/DTD/sodipodi-0.dtd"
   xmlns="http://www.w3.org/2000/svg"
   xmlns:svg="http://www.w3.org/2000/svg"><sodipodi:namedview
     id="namedview1"
     pagecolor="#ffffff"
     bordercolor="#000000"
     borderopacity="0.25"
     inkscape:showpageshadow="2"
     inkscape:pageopacity="0.0"
     inkscape:pagecheckerboard="0"
     inkscape:deskcolor="#d1d1d1"
     inkscape:document-units="px"
     showgrid="true"
     inkscape:zoom="1.602893"
     inkscape:cx="-53.341053"
     inkscape:cy="475.39043"
     inkscape:window-width="1920"
     inkscape:window-height="2066"
     inkscape:window-x="0"
     inkscape:window-y="0"
     inkscape:window-maximized="0"
     inkscape:current-layer="layer1-0"
     showguides="false"><inkscape:grid
       id="grid1"
       units="px"
       originx="0"
       originy="0"
       spacingx="25"
       spacingy="25"
       empcolor="#0099e5"
       empopacity="0.30196078"
       color="#0099e5"
       opacity="0.14901961"
       empspacing="4"
       dotted="false"
       gridanglex="30"
       gridanglez="30"
       visible="true" /></sodipodi:namedview><defs
     id="defs1" /><g
     inkscape:label="Layer 1"
     inkscape:groupmode="layer"
     id="layer1"><g
       inkscape:label="Layer 1"
       id="layer1-0"
       transform="translate(-350,25)"><path
         id="path352-3-2-9"
         style="fill:#000000;fill-opacity:0.555319;fill-rule:evenodd;stroke:none;stroke-width:3px;stroke-linecap:butt;stroke-linejoin:miter;stroke-opacity:1"
         d="m 500,175 c -74.99978,0 -150,75 -150,150 v 100 c 0,75 75.00022,150 150,150 74.99978,0 150,-79.45273 150,-150 V 325 C 650,250 574.99978,175 500,175 Z m 0,100 c 24.99994,0 75,26.29293 75,75 v 50 c 0,50 -50.00006,75 -75,75 -24.99994,0 -75,-25 -75,-75 v -50 c 0,-50 50.00006,-75 75,-75 z"
         sodipodi:nodetypes="ssssssssssssss" /><rect
         style="opacity:0.489888;fill:#000000;fill-opacity:0.555319;fill-rule:evenodd;stroke-width:100;stroke-linecap:round;stroke-linejoin:round;stroke-miterlimit:4.5;stop-color:#000000"
         id="rect109099"
         width="100"
         height="150"
         x="450"
         y="525" /><rect
         style="opacity:0.489888;fill:#000000;fill-opacity:0.555319;fill-rule:evenodd;stroke-width:100;stroke-linecap:round;stroke-linejoin:round;stroke-miterlimit:4.5;stop-color:#000000"
         id="rect109101"
         width="50"
         height="250"
         x="475"
         y="250" /><path
         id="path352-3-2-9-0"
         style="fill:#000000;fill-opacity:0.555319;fill-rule:evenodd;stroke:none;stroke-width:3px;stroke-linecap:butt;stroke-linejoin:miter;stroke-opacity:1"
         d="M 500 175 C 425.00029 175 350 250.00007 350 325 L 350 425 C 350 483.04117 394.92645 541.05143 450 564.33203 L 450 675 L 550 675 L 550 563.80273 C 605.0734 539.49224 650 479.59518 650 425 L 650 325 C 650 250.00007 574.99971 175 500 175 z M 475 280.84961 L 475 469.15039 C 451.08657 459.12493 425 436.12321 425 400 L 425 350 C 425 313.87679 451.08657 290.87507 475 280.84961 z M 525 281.06445 C 548.91355 291.39245 575 314.81067 575 350 L 575 400 C 575 436.12321 548.91343 459.12493 525 469.15039 L 525 281.06445 z " /></g></g></svg>
