<?xml version="1.0" encoding="UTF-8" standalone="no"?>
<!-- Created with Inkscape (http://www.inkscape.org/) -->

<svg
   width="800"
   height="800"
   viewBox="0 0 800 800"
   version="1.1"
   id="svg1"
   inkscape:version="1.2.2 (732a01da63, 2022-12-09)"
   sodipodi:docname="967_chi-small.svg"
   xml:space="preserve"
   xmlns:inkscape="http://www.inkscape.org/namespaces/inkscape"
   xmlns:sodipodi="http://sodipodi.sourceforge.net/DTD/sodipodi-0.dtd"
   xmlns="http://www.w3.org/2000/svg"
   xmlns:svg="http://www.w3.org/2000/svg"><sodipodi:namedview
     id="namedview1"
     pagecolor="#ffffff"
     bordercolor="#000000"
     borderopacity="0.25"
     inkscape:showpageshadow="2"
     inkscape:pageopacity="0.0"
     inkscape:pagecheckerboard="0"
     inkscape:deskcolor="#d1d1d1"
     inkscape:document-units="px"
     showgrid="true"
     inkscape:zoom="1.602893"
     inkscape:cx="32.753278"
     inkscape:cy="475.39043"
     inkscape:window-width="1920"
     inkscape:window-height="2066"
     inkscape:window-x="0"
     inkscape:window-y="0"
     inkscape:window-maximized="0"
     inkscape:current-layer="layer1-0"
     showguides="false"><inkscape:grid
       id="grid1"
       units="px"
       originx="0"
       originy="0"
       spacingx="25"
       spacingy="25"
       empcolor="#0099e5"
       empopacity="0.30196078"
       color="#0099e5"
       opacity="0.14901961"
       empspacing="4"
       dotted="false"
       gridanglex="30"
       gridanglez="30"
       visible="true" /></sodipodi:namedview><defs
     id="defs1" /><g
     inkscape:label="Layer 1"
     inkscape:groupmode="layer"
     id="layer1"><g
       inkscape:label="Layer 1"
       id="layer1-0"
       transform="translate(-350,25)"><path
         id="path9691"
         style="fill:#000000;fill-opacity:0.555319;fill-rule:evenodd;stroke:none;stroke-width:1px;stroke-linecap:butt;stroke-linejoin:miter;stroke-opacity:1"
         d="m 500,475 c 50,50 50,125 50,200 H 650 C 650,525 625.12844,477.61333 550,375"
         sodipodi:nodetypes="cccc" /><path
         id="path9691-4-75"
         style="fill:#000000;fill-opacity:0.555319;fill-rule:evenodd;stroke:none;stroke-width:1px;stroke-linecap:butt;stroke-linejoin:miter;stroke-opacity:1"
         d="m 500,375 c 50,-50 50,-125 50,-200 h 100 c 0,150 -24.87156,197.38667 -100,300"
         sodipodi:nodetypes="cccc" /><path
         id="path9691-42"
         style="fill:#000000;fill-opacity:0.555319;fill-rule:evenodd;stroke:none;stroke-width:1px;stroke-linecap:butt;stroke-linejoin:miter;stroke-opacity:1"
         d="m 500,475 c -50,50 -50,125 -50,200 H 350 c 0,-150 24.87156,-197.38667 100,-300"
         sodipodi:nodetypes="cccc" /><path
         id="path9691-4-7-7"
         style="fill:#000000;fill-opacity:0.555319;fill-rule:evenodd;stroke:none;stroke-width:1px;stroke-linecap:butt;stroke-linejoin:miter;stroke-opacity:1"
         d="M 500,375 C 450,325 450,250 450,175 H 350 c 0,150 24.87156,197.38667 100,300"
         sodipodi:nodetypes="cccc" /><rect
         style="fill:#000000;fill-opacity:0.555319;fill-rule:evenodd;stroke-width:100;stroke-linecap:round;stroke-linejoin:round;stroke-miterlimit:4.5;stop-color:#000000"
         id="rect40378-7"
         width="100"
         height="100"
         x="450"
         y="375" /><path
         id="path9691-5"
         style="fill:#000000;fill-opacity:0.555319;fill-rule:evenodd;stroke:none;stroke-width:1px;stroke-linecap:butt;stroke-linejoin:miter;stroke-opacity:1"
         d="m 350,175 c 0,123.51916 16.94274,177.508 64.84766,250 C 366.94274,497.492 350,551.48084 350,675 h 100 c 0,-74.99992 5e-5,-150.00005 50,-200 49.99995,49.99995 50,125.00008 50,200 H 650 C 650,551.48084 633.05726,497.492 585.15234,425 633.05726,352.508 650,298.51916 650,175 H 550 c 0,74.99993 -5e-5,150.00005 -50,200 -49.99995,-49.99995 -50,-125.00007 -50,-200 z" /></g></g></svg>
