<?xml version="1.0" encoding="UTF-8" standalone="no"?>
<!-- Created with Inkscape (http://www.inkscape.org/) -->

<svg
   width="800"
   height="800"
   viewBox="0 0 800 800"
   version="1.1"
   id="svg1"
   inkscape:version="1.2.2 (732a01da63, 2022-12-09)"
   sodipodi:docname="969_omega-small.svg"
   xml:space="preserve"
   xmlns:inkscape="http://www.inkscape.org/namespaces/inkscape"
   xmlns:sodipodi="http://sodipodi.sourceforge.net/DTD/sodipodi-0.dtd"
   xmlns="http://www.w3.org/2000/svg"
   xmlns:svg="http://www.w3.org/2000/svg"><sodipodi:namedview
     id="namedview1"
     pagecolor="#ffffff"
     bordercolor="#000000"
     borderopacity="0.25"
     inkscape:showpageshadow="2"
     inkscape:pageopacity="0.0"
     inkscape:pagecheckerboard="0"
     inkscape:deskcolor="#d1d1d1"
     inkscape:document-units="px"
     showgrid="true"
     inkscape:zoom="1.602893"
     inkscape:cx="220.53874"
     inkscape:cy="475.39043"
     inkscape:window-width="1920"
     inkscape:window-height="2066"
     inkscape:window-x="0"
     inkscape:window-y="0"
     inkscape:window-maximized="0"
     inkscape:current-layer="layer1"
     showguides="false"><inkscape:grid
       id="grid1"
       units="px"
       originx="0"
       originy="0"
       spacingx="25"
       spacingy="25"
       empcolor="#0099e5"
       empopacity="0.30196078"
       color="#0099e5"
       opacity="0.14901961"
       empspacing="4"
       dotted="false"
       gridanglex="30"
       gridanglez="30"
       visible="true" /></sodipodi:namedview><defs
     id="defs1" /><g
     inkscape:label="Layer 1"
     inkscape:groupmode="layer"
     id="layer1"><path
       id="path352-3"
       style="fill:#000000;fill-opacity:0.555319;fill-rule:evenodd;stroke:none;stroke-width:3px;stroke-linecap:butt;stroke-linejoin:miter;stroke-opacity:1"
       d="m 0,200 v 250 c 0,74.99992 75.00007,150 150,150 74.9999,0 150,-75.00008 150,-150 V 200 H 200 v 250 c 0,24.99998 -25.00004,50 -50,50 -24.99998,0 -50.000005,-25.00002 -50.000005,-50 V 200 Z"
       sodipodi:nodetypes="csssccssscc" /><path
       id="path352-3-7"
       style="fill:#000000;fill-opacity:0.555319;fill-rule:evenodd;stroke:none;stroke-width:3px;stroke-linecap:butt;stroke-linejoin:miter;stroke-opacity:1"
       d="m 200,200 v 250 c 0,74.99992 75.00007,150 150,150 74.9999,0 150,-75.00008 150,-150 V 200 H 400 v 250 c 0,24.99998 -25.00004,50 -50,50 -24.99998,0 -50,-25.00002 -50,-50 V 200 Z"
       sodipodi:nodetypes="csssccssscc" /><path
       id="path352-3-2"
       style="fill:#000000;fill-opacity:0.555319;fill-rule:evenodd;stroke:none;stroke-width:3px;stroke-linecap:butt;stroke-linejoin:miter;stroke-opacity:1"
       d="M 0 200 L 0 450 C 0 524.99985 75.000145 600 150 600 C 186.13873 600 222.25192 582.55936 250 556.12305 C 277.74808 582.55936 313.86125 600 350 600 C 424.99983 600 500 524.99985 500 450 L 500 200 L 400 200 L 400 450 C 400 474.99996 374.99994 500 350 500 C 325.00004 500 300 474.99996 300 450 L 300 200 L 200 200 L 200 450 C 200 474.99996 174.99994 500 150 500 C 125.00004 500 100 474.99996 100 450 L 100 200 L 0 200 z " /></g></svg>
