<?xml version="1.0" encoding="UTF-8" standalone="no"?>
<!-- Created with Inkscape (http://www.inkscape.org/) -->

<svg
   width="800"
   height="800"
   viewBox="0 0 800 800"
   version="1.1"
   id="svg1"
   inkscape:version="1.2.2 (732a01da63, 2022-12-09)"
   sodipodi:docname="976_beta-symbol.svg"
   xml:space="preserve"
   xmlns:inkscape="http://www.inkscape.org/namespaces/inkscape"
   xmlns:sodipodi="http://sodipodi.sourceforge.net/DTD/sodipodi-0.dtd"
   xmlns="http://www.w3.org/2000/svg"
   xmlns:svg="http://www.w3.org/2000/svg"><sodipodi:namedview
     id="namedview1"
     pagecolor="#ffffff"
     bordercolor="#000000"
     borderopacity="0.25"
     inkscape:showpageshadow="2"
     inkscape:pageopacity="0.0"
     inkscape:pagecheckerboard="0"
     inkscape:deskcolor="#d1d1d1"
     inkscape:document-units="px"
     showgrid="true"
     inkscape:zoom="1.602893"
     inkscape:cx="70.809468"
     inkscape:cy="475.39043"
     inkscape:window-width="1920"
     inkscape:window-height="2066"
     inkscape:window-x="0"
     inkscape:window-y="0"
     inkscape:window-maximized="0"
     inkscape:current-layer="layer1-0"
     showguides="false"><inkscape:grid
       id="grid1"
       units="px"
       originx="0"
       originy="0"
       spacingx="25"
       spacingy="25"
       empcolor="#0099e5"
       empopacity="0.30196078"
       color="#0099e5"
       opacity="0.14901961"
       empspacing="4"
       dotted="false"
       gridanglex="30"
       gridanglez="30"
       visible="true" /></sodipodi:namedview><defs
     id="defs1" /><g
     inkscape:label="Layer 1"
     inkscape:groupmode="layer"
     id="layer1"><g
       inkscape:label="Layer 1"
       id="layer1-0"
       transform="translate(-350,25)"><path
         id="path352-3"
         style="fill:#000000;fill-opacity:0.555319;fill-rule:evenodd;stroke:none;stroke-width:3px;stroke-linecap:butt;stroke-linejoin:miter;stroke-opacity:1"
         d="M 500,75 C 450.00005,75 350,175.00005 350,225 V 575 H 450 V 225 c 0.19296,-21.62663 25.00002,-50 50,-50 24.99998,0 50,25.00002 50,50 0,24.99998 -25.00002,50 -50,50 V 375 C 549.99995,375 650,274.99995 650,225 650,175.00005 549.99995,75 500,75 Z"
         sodipodi:nodetypes="sscccssccss" /><path
         id="path352-3-4"
         style="fill:#000000;fill-opacity:0.555319;fill-rule:evenodd;stroke:none;stroke-width:3px;stroke-linecap:butt;stroke-linejoin:miter;stroke-opacity:1"
         d="m 500,275 v 100 c 24.99996,0 50,25.00004 50,50 0,24.99996 -25.00004,50 -50,50 h -50 v 100 h 50 c 49.99995,0 150,-87.7217 150,-150 0,-49.99995 -100.00005,-150 -150,-150 z"
         sodipodi:nodetypes="ccssccssc" /><path
         id="path352-3-6"
         style="fill:#000000;fill-opacity:0.555319;fill-rule:evenodd;stroke:none;stroke-width:3px;stroke-linecap:butt;stroke-linejoin:miter;stroke-opacity:1"
         d="M 500 75 C 450.0001 75 350 175.0001 350 225 L 350 575 L 450 575 L 500 575 C 549.9999 575 650 487.27824 650 425 C 650 398.28881 621.45544 357.31652 587.24609 324.93555 C 621.43167 292.5625 650 251.69725 650 225 C 650 175.0001 549.9999 75 500 75 z M 500 175 C 524.99996 175 550 200.00004 550 225 C 550 249.99996 524.99996 275 500 275 L 500 375 C 524.99994 375 550 400.00006 550 425 C 550 449.99994 524.99994 475 500 475 L 450 475 L 450 225 C 450.19296 203.37339 475.00004 175 500 175 z " /></g></g></svg>
