<?xml version="1.0" encoding="UTF-8" standalone="no"?>
<!-- Created with Inkscape (http://www.inkscape.org/) -->

<svg
   width="800"
   height="800"
   viewBox="0 0 800 800"
   version="1.1"
   id="svg1"
   inkscape:version="1.2.2 (732a01da63, 2022-12-09)"
   sodipodi:docname="978_upsilon-hook-capital.svg"
   xml:space="preserve"
   xmlns:inkscape="http://www.inkscape.org/namespaces/inkscape"
   xmlns:sodipodi="http://sodipodi.sourceforge.net/DTD/sodipodi-0.dtd"
   xmlns="http://www.w3.org/2000/svg"
   xmlns:svg="http://www.w3.org/2000/svg"><sodipodi:namedview
     id="namedview1"
     pagecolor="#ffffff"
     bordercolor="#000000"
     borderopacity="0.25"
     inkscape:showpageshadow="2"
     inkscape:pageopacity="0.0"
     inkscape:pagecheckerboard="0"
     inkscape:deskcolor="#d1d1d1"
     inkscape:document-units="px"
     showgrid="true"
     inkscape:zoom="1.602893"
     inkscape:cx="80.167547"
     inkscape:cy="375.57092"
     inkscape:window-width="1920"
     inkscape:window-height="2066"
     inkscape:window-x="0"
     inkscape:window-y="0"
     inkscape:window-maximized="0"
     inkscape:current-layer="layer1-0"
     showguides="false"><inkscape:grid
       id="grid1"
       units="px"
       originx="0"
       originy="0"
       spacingx="25"
       spacingy="25"
       empcolor="#0099e5"
       empopacity="0.30196078"
       color="#0099e5"
       opacity="0.14901961"
       empspacing="4"
       dotted="false"
       gridanglex="30"
       gridanglez="30"
       visible="true" /></sodipodi:namedview><defs
     id="defs1" /><g
     inkscape:label="Layer 1"
     inkscape:groupmode="layer"
     id="layer1"><g
       inkscape:label="Layer 1"
       id="layer1-0"
       transform="translate(-350,25)"><path
         id="path9691-4"
         style="fill:#000000;fill-opacity:0.555319;fill-rule:evenodd;stroke:none;stroke-width:1px;stroke-linecap:butt;stroke-linejoin:miter;stroke-opacity:1"
         d="m 500,275 c 50,-50 50,-125 50,-200 h 100 c 0,150 -24.87156,197.38667 -100,300"
         sodipodi:nodetypes="cccc" /><path
         id="path9691-4-7"
         style="fill:#000000;fill-opacity:0.555319;fill-rule:evenodd;stroke:none;stroke-width:1px;stroke-linecap:butt;stroke-linejoin:miter;stroke-opacity:1"
         d="M 500,275 C 450,225 450,150 450,75 H 350 c 0,150 24.87156,197.38667 100,300"
         sodipodi:nodetypes="cccc" /><rect
         style="fill:#000000;fill-opacity:0.555319;fill-rule:evenodd;stroke-width:173.205;stroke-linecap:round;stroke-linejoin:round;stroke-miterlimit:4.5;stop-color:#000000"
         id="rect40378"
         width="100"
         height="300"
         x="450"
         y="275" /><path
         id="rect66341"
         style="opacity:0.489888;fill-opacity:0.555319;fill-rule:evenodd;stroke-width:100;stroke-linecap:round;stroke-linejoin:round;stroke-miterlimit:4.5;stop-color:#000000"
         d="m 600,75 h 50 l 100,25 V 200 L 650,175 h -50 z"
         sodipodi:nodetypes="ccccccc" /><path
         id="path9691-4-77"
         style="fill:#000000;fill-opacity:0.555319;fill-rule:evenodd;stroke:none;stroke-width:1px;stroke-linecap:butt;stroke-linejoin:miter;stroke-opacity:1"
         d="M 350 75 C 350 224.99985 374.87164 272.38677 450 375 L 450 575 L 550 575 L 550 375 C 605.34257 299.41098 633.39067 253.74606 644.33789 175 L 650 175 L 750 200 L 750 100 L 650 75 L 600 75 L 550 75 C 550 149.99993 549.99995 225.00005 500 275 C 450.00005 225.00005 450 149.99993 450 75 L 350 75 z " /></g></g></svg>
