<?xml version="1.0" encoding="UTF-8" standalone="no"?>
<!-- Created with Inkscape (http://www.inkscape.org/) -->

<svg
   width="800"
   height="800"
   viewBox="0 0 800 800"
   version="1.1"
   id="svg1"
   inkscape:version="1.2.2 (732a01da63, 2022-12-09)"
   sodipodi:docname="981_phi-symbol.svg"
   xml:space="preserve"
   xmlns:inkscape="http://www.inkscape.org/namespaces/inkscape"
   xmlns:sodipodi="http://sodipodi.sourceforge.net/DTD/sodipodi-0.dtd"
   xmlns="http://www.w3.org/2000/svg"
   xmlns:svg="http://www.w3.org/2000/svg"><sodipodi:namedview
     id="namedview1"
     pagecolor="#ffffff"
     bordercolor="#000000"
     borderopacity="0.25"
     inkscape:showpageshadow="2"
     inkscape:pageopacity="0.0"
     inkscape:pagecheckerboard="0"
     inkscape:deskcolor="#d1d1d1"
     inkscape:document-units="px"
     showgrid="true"
     inkscape:zoom="1.602893"
     inkscape:cx="158.77541"
     inkscape:cy="475.39043"
     inkscape:window-width="1920"
     inkscape:window-height="2066"
     inkscape:window-x="0"
     inkscape:window-y="0"
     inkscape:window-maximized="0"
     inkscape:current-layer="layer1"
     showguides="false"><inkscape:grid
       id="grid1"
       units="px"
       originx="0"
       originy="0"
       spacingx="25"
       spacingy="25"
       empcolor="#0099e5"
       empopacity="0.30196078"
       color="#0099e5"
       opacity="0.14901961"
       empspacing="4"
       dotted="false"
       gridanglex="30"
       gridanglez="30"
       visible="true" /></sodipodi:namedview><defs
     id="defs1" /><g
     inkscape:label="Layer 1"
     inkscape:groupmode="layer"
     id="layer1"><path
       id="path352-3-2-9"
       style="fill:#000000;fill-opacity:0.555319;fill-rule:evenodd;stroke:none;stroke-width:3px;stroke-linecap:butt;stroke-linejoin:miter;stroke-opacity:1"
       d="M 150,200 C 75.00022,200 0,250 0,325 v 150 c 0,75 75.00022,125 150,125 74.99978,0 150,-54.45273 150,-125 V 325 C 300,250 224.99978,200 150,200 Z m 0,100 c 24.99994,0 75,25 75,75 v 50 c 0,50 -50.00006,75 -75,75 -24.99994,0 -75,-25 -75,-75 v -50 c 0,-50 50.00006,-75 75,-75 z"
       sodipodi:nodetypes="ssssssssssssss" /><rect
       style="opacity:0.489888;fill:#000000;fill-opacity:0.555319;fill-rule:evenodd;stroke-width:100;stroke-linecap:round;stroke-linejoin:round;stroke-miterlimit:4.5;stop-color:#000000"
       id="rect109099"
       width="100"
       height="150"
       x="100"
       y="550" /><rect
       style="opacity:0.489888;fill:#000000;fill-opacity:0.555319;fill-rule:evenodd;stroke-width:100;stroke-linecap:round;stroke-linejoin:round;stroke-miterlimit:4.5;stop-color:#000000"
       id="rect109099-1"
       width="100"
       height="150"
       x="100"
       y="75" /><rect
       style="opacity:0.489888;fill:#000000;fill-opacity:0.555319;fill-rule:evenodd;stroke-width:100;stroke-linecap:round;stroke-linejoin:round;stroke-miterlimit:4.5;stop-color:#000000"
       id="rect109101"
       width="50"
       height="250"
       x="125"
       y="275" /><path
       id="path352-3-2-9-1"
       style="fill:#000000;fill-opacity:0.555319;fill-rule:evenodd;stroke:none;stroke-width:3px;stroke-linecap:butt;stroke-linejoin:miter;stroke-opacity:1"
       d="M 100 75 L 100 207.4043 C 44.926544 223.91394 0 266.9589 0 325 L 0 475 C 0 533.0411 44.926544 576.08606 100 592.5957 L 100 700 L 200 700 L 200 592.06641 C 255.07354 574.52701 300 529.59527 300 475 L 300 325 C 300 266.9589 255.07346 223.91394 200 207.4043 L 200 75 L 100 75 z M 125 305.84961 L 125 494.15039 C 101.08657 484.12493 75 461.12321 75 425 L 75 375 C 75 338.87679 101.08657 315.87507 125 305.84961 z M 175 305.84961 C 198.91343 315.87507 225 338.87679 225 375 L 225 425 C 225 461.12321 198.91343 484.12493 175 494.15039 L 175 305.84961 z " /></g></svg>
