<?xml version="1.0" encoding="UTF-8" standalone="no"?>
<!-- Created with Inkscape (http://www.inkscape.org/) -->

<svg
   width="800"
   height="800"
   viewBox="0 0 800 800"
   version="1.1"
   id="svg1"
   inkscape:version="1.2.2 (732a01da63, 2022-12-09)"
   sodipodi:docname="983_kai-symbol.svg"
   xml:space="preserve"
   xmlns:inkscape="http://www.inkscape.org/namespaces/inkscape"
   xmlns:sodipodi="http://sodipodi.sourceforge.net/DTD/sodipodi-0.dtd"
   xmlns="http://www.w3.org/2000/svg"
   xmlns:svg="http://www.w3.org/2000/svg"><sodipodi:namedview
     id="namedview1"
     pagecolor="#ffffff"
     bordercolor="#000000"
     borderopacity="0.25"
     inkscape:showpageshadow="2"
     inkscape:pageopacity="0.0"
     inkscape:pagecheckerboard="0"
     inkscape:deskcolor="#d1d1d1"
     inkscape:document-units="px"
     showgrid="true"
     inkscape:zoom="1.602893"
     inkscape:cx="214.30002"
     inkscape:cy="475.39043"
     inkscape:window-width="1920"
     inkscape:window-height="2066"
     inkscape:window-x="0"
     inkscape:window-y="0"
     inkscape:window-maximized="0"
     inkscape:current-layer="layer1"
     showguides="false"><inkscape:grid
       id="grid1"
       units="px"
       originx="0"
       originy="0"
       spacingx="25"
       spacingy="25"
       empcolor="#0099e5"
       empopacity="0.30196078"
       color="#0099e5"
       opacity="0.14901961"
       empspacing="4"
       dotted="false"
       gridanglex="30"
       gridanglez="30"
       visible="true" /></sodipodi:namedview><defs
     id="defs1" /><g
     inkscape:label="Layer 1"
     inkscape:groupmode="layer"
     id="layer1"><path
       style="fill:#000000;stroke:none;stroke-width:1px;stroke-linecap:butt;stroke-linejoin:miter;stroke-opacity:1;fill-opacity:0.55531901"
       d="m 0,200 h 100 c 0,0 25,100 25,200 0,100 -25,200 -25,200 H 0 C 0,600 25,500 25,400 25,300 0,200 0,200 Z"
       id="path109487" /><path
       style="fill:#000000;stroke:none;stroke-width:1px;stroke-linecap:butt;stroke-linejoin:miter;stroke-opacity:1;fill-opacity:0.55531901"
       d="M 300,200 H 200 c 0,0 -25,100 -25,200 0,100 25,200 25,200 h 100 c 0,0 -25,-100 -25,-200 0,-100 25,-200 25,-200 z"
       id="path109487-0" /><path
       style="fill:#000000;stroke:none;stroke-width:1px;stroke-linecap:butt;stroke-linejoin:miter;stroke-opacity:1;fill-opacity:0.55531901"
       d="m 175,700 h 75 c 25,0 50,-25 50,-50 V 600 H 200 c 0,0 0,25 -25,25 z"
       id="path109511"
       sodipodi:nodetypes="csscccc" /><path
       style="fill:#000000;stroke:none;stroke-width:1px;stroke-linecap:butt;stroke-linejoin:miter;stroke-opacity:1;fill-opacity:0.55531901"
       d="M 75,500 V 375 L 225,225 v 125 z"
       id="path109513"
       sodipodi:nodetypes="ccccc" /><path
       id="path109487-2"
       style="fill:#000000;fill-opacity:0.555319;stroke:none;stroke-width:1px;stroke-linecap:butt;stroke-linejoin:miter;stroke-opacity:1"
       d="M 0 200 C 0 200 25 300.0001 25 400 C 25 499.9999 1.3877774e-15 600 0 600 L 100 600 C 100 600 116.96503 531.9845 122.92969 452.07031 L 175 400 C 175 499.9999 200 600 200 600 C 200 600 199.99998 625 175 625 L 175 700 L 250 700 C 274.99998 700 300 674.99997 300 650 L 300 600 C 300 600 275 499.9999 275 400 C 275 300.0001 300 200 300 200 L 200 200 C 200 200 193.74999 225.00004 187.5 262.5 L 121.28711 328.71289 C 114.33003 257.41354 100 200 100 200 L 0 200 z " /></g></svg>
